<?xml version="1.0" encoding="utf-8" ?>
<svg baseProfile="full" height="200mm" version="1.1" width="400mm" xmlns="http://www.w3.org/2000/svg" xmlns:ev="http://www.w3.org/2001/xml-events" xmlns:xlink="http://www.w3.org/1999/xlink"><defs /><circle cx="679.550673061" cy="499.069984674" r="5.13779527559" style="fill:none;stroke:#ff0000;stroke-opacity:1;stroke-width:1.062992" /><circle cx="557.581505211" cy="23.4109642722" r="5.13779527559" style="fill:none;stroke:#ff0000;stroke-opacity:1;stroke-width:1.062992" /><circle cx="228.399125438" cy="23.4109642722" r="5.13779527559" style="fill:none;stroke:#ff0000;stroke-opacity:1;stroke-width:1.062992" /><circle cx="43.133494766" cy="314.832834005" r="5.13779527559" style="fill:none;stroke:#ff0000;stroke-opacity:1;stroke-width:1.062992" /><circle cx="447.106191413" cy="655.062085344" r="5.13779527559" style="fill:none;stroke:#ff0000;stroke-opacity:1;stroke-width:1.062992" /><circle cx="82.8337483013" cy="527.013817693" r="5.13779527559" style="fill:none;stroke:#ff0000;stroke-opacity:1;stroke-width:1.062992" /><circle cx="1345.1190076" cy="527.013817693" r="5.13779527559" style="fill:none;stroke:#ff0000;stroke-opacity:1;stroke-width:1.062992" /><circle cx="980.846564493" cy="655.062085344" r="5.13779527559" style="fill:none;stroke:#ff0000;stroke-opacity:1;stroke-width:1.062992" /><circle cx="1384.81926114" cy="314.832834005" r="5.13779527559" style="fill:none;stroke:#ff0000;stroke-opacity:1;stroke-width:1.062992" /><circle cx="1199.55363047" cy="23.4109642722" r="5.13779527559" style="fill:none;stroke:#ff0000;stroke-opacity:1;stroke-width:1.062992" /><circle cx="870.371250694" cy="23.4109642722" r="5.13779527559" style="fill:none;stroke:#ff0000;stroke-opacity:1;stroke-width:1.062992" /><circle cx="748.402082844" cy="499.069984674" r="5.13779527559" style="fill:none;stroke:#ff0000;stroke-opacity:1;stroke-width:1.062992" /><polyline points="22.9514016023,291.990877573 87.5141254671,12.338996774" style="fill:none;stroke:#ff0000;stroke-opacity:1;stroke-width:1.062992" /><path d="M104.776587,-1.392185 A 17.7165354331 17.7165354331 0.0 0,0 87.5141254671 12.338996774" style="fill:none;stroke:#ff0000;stroke-opacity:1;stroke-width:1.062992" /><polyline points="104.776587245,-1.39218533407 682.086614173,-1.39218533407 682.086614173,16.324350099 643.11023622,16.324350099" style="fill:none;stroke:#ff0000;stroke-opacity:1;stroke-width:1.062992" /><path d="M643.110236,16.324350 A 21.2598425197 21.2598425197 0.0 0,0 621.850393701 37.5841926187" style="fill:none;stroke:#ff0000;stroke-opacity:1;stroke-width:1.062992" /><polyline points="621.850393701,37.5841926187 621.850393701,123.400470483 600.077135417,123.400470483 468.882425906,93.1117852127 470.078031904,87.9330466794 404.480677149,72.7887040444 405.676283146,67.6099655111 336.626436035,51.6685522112 335.430830038,56.8472907445 269.833475283,41.7029481095 267.442263288,52.0604251761 119.848215088,17.9856542475 58.4737738835,283.827565624 59.7287699373,353.211006038 387.764751106,486.93485709 549.710268186,613.460561861 676.235972958,451.515044781 751.716782948,451.515044781 878.24248772,613.460561861 1040.1880048,486.93485709 1368.22398597,353.211006038 1369.47898202,283.827565624 1308.10454082,17.9856542475 1160.51049262,52.0604251761 1158.11928062,41.7029481095 1092.52192587,56.8472907445 1091.32631987,51.6685522112 1022.27647276,67.6099655111 1023.47207876,72.7887040444 957.874724002,87.9330466794 959.070329999,93.1117852127 827.875620489,123.400470483 806.102362205,123.400470483 806.102362205,37.5841926187" style="fill:none;stroke:#ff0000;stroke-opacity:1;stroke-width:1.062992" /><path d="M806.102362,37.584193 A 21.2598425197 21.2598425197 0.0 0,0 784.842519685 16.324350099" style="fill:none;stroke:#ff0000;stroke-opacity:1;stroke-width:1.062992" /><polyline points="784.842519685,16.324350099 745.866141732,16.324350099 745.866141732,-1.39218533407 1323.17616866,-1.39218533407" style="fill:none;stroke:#ff0000;stroke-opacity:1;stroke-width:1.062992" /><path d="M1340.438630,12.338997 A 17.7165354331 17.7165354331 0.0 0,0 1323.17616866 -1.39218533407" style="fill:none;stroke:#ff0000;stroke-opacity:1;stroke-width:1.062992" /><polyline points="1340.43863044,12.338996774 1405.0013543,291.990877573" style="fill:none;stroke:#ff0000;stroke-opacity:1;stroke-width:1.062992" /><path d="M845.599696,593.697122 A 329.527559055 329.527559055 0.0 0,0 1405.0013543 291.990877573" style="fill:none;stroke:#ff0000;stroke-opacity:1;stroke-width:1.062992" /><path d="M845.599696,593.697122 A 181.997040135 181.997040135 0.0 0,0 582.353059718 593.697121952" style="fill:none;stroke:#ff0000;stroke-opacity:1;stroke-width:1.062992" /><path d="M22.951402,291.990878 A 329.527559055 329.527559055 0.0 0,0 582.353059718 593.697121952" style="fill:none;stroke:#ff0000;stroke-opacity:1;stroke-width:1.062992" /></svg>