<?xml version="1.0" encoding="utf-8" ?>
<svg baseProfile="full" height="200mm" version="1.1" width="400mm" xmlns="http://www.w3.org/2000/svg" xmlns:ev="http://www.w3.org/2001/xml-events" xmlns:xlink="http://www.w3.org/1999/xlink"><defs /><polyline points="434.486767612,466.557103411 432.305289944,469.349267498 421.97428282,461.277800125 456.223482215,417.44082395 466.554489339,425.512291323 464.37301167,428.304455411 481.963645422,442.047764722 484.145123091,439.255600635 494.476130215,447.327068008 460.22693082,491.164044183 449.895923696,483.09257681 452.077401364,480.300412722 434.486767612,466.557103411" style="fill:none;stroke:#ff0000;stroke-opacity:1;stroke-width:1.062992" /><polyline points="487.537885276,508.005179112 485.356407608,510.797343199 475.025400484,502.725875826 509.274599879,458.888899651 519.605607003,466.960367024 517.424129335,469.752531112 535.014763086,483.495840423 537.196240755,480.703676336 547.527247879,488.775143709 513.278048484,532.612119884 502.94704136,524.540652511 505.128519028,521.748488423 487.537885276,508.005179112" style="fill:none;stroke:#ff0000;stroke-opacity:1;stroke-width:1.062992" /><polyline points="531.348734651,539.985705396 528.556570563,537.804227727 536.628037936,527.473220603 580.465014111,561.722419998 572.393546738,572.053427122 569.601382651,569.871949454 555.858073339,587.462583206 558.650237427,589.644060874 550.578770053,599.975067998 506.741793878,565.725868603 514.813261252,555.394861479 517.605425339,557.576339147 531.348734651,539.985705396" style="fill:none;stroke:#ff0000;stroke-opacity:1;stroke-width:1.062992" /><polyline points="572.796810352,486.934587732 570.004646264,484.753110063 578.076113637,474.422102939 621.913089813,508.671302334 613.841622439,519.002309458 611.049458352,516.82083179 597.30614904,534.411465542 600.098313128,536.59294321 592.026845754,546.923950334 548.189869579,512.674750939 556.261336953,502.343743815 559.05350104,504.525221483 572.796810352,486.934587732" style="fill:none;stroke:#ff0000;stroke-opacity:1;stroke-width:1.062992" /><polyline points="614.244886053,433.883470068 611.452721965,431.701992399 619.524189339,421.370985275 663.361165514,455.62018467 655.28969814,465.951191794 652.497534053,463.769714126 638.754224741,481.360347877 641.546388829,483.541825546 633.474921455,493.87283267 589.63794528,459.623633275 597.709412654,449.292626151 600.501576741,451.474103819 614.244886053,433.883470068" style="fill:none;stroke:#ff0000;stroke-opacity:1;stroke-width:1.062992" /><polyline points="561.193768389,392.435394366 558.401604301,390.253916698 566.473071674,379.922909574 610.31004785,414.172108969 602.238580476,424.503116093 599.446416389,422.321638425 585.703107077,439.912272176 588.495271165,442.093749845 580.423803791,452.424756969 536.586827616,418.175557574 544.65829499,407.84455045 547.450459077,410.026028118 561.193768389,392.435394366" style="fill:none;stroke:#ff0000;stroke-opacity:1;stroke-width:1.062992" /><polyline points="536.442705171,133.619402413 532.990212815,132.822331748 535.939374276,120.048110032 590.143504258,132.562119473 587.194342797,145.336341188 583.741850442,144.539270523 578.720305252,166.289972363 582.172797608,167.087043028 579.223636147,179.861264744 525.019506165,167.347255303 527.968667626,154.573033588 531.421159981,155.370104253 536.442705171,133.619402413" style="fill:none;stroke:#ff0000;stroke-opacity:1;stroke-width:1.062992" /><polyline points="522.315791943,253.090180873 521.518721278,256.542673228 508.744499562,253.593511768 521.258509002,199.389381786 534.032730718,202.338543246 533.235660053,205.791035602 554.986361893,210.812580791 555.783432558,207.360088436 568.557654273,210.309249896 556.043644833,264.513379878 543.269423117,261.564218418 544.066493782,258.111726062 522.315791943,253.090180873" style="fill:none;stroke:#ff0000;stroke-opacity:1;stroke-width:1.062992" /><polyline points="499.59927799,351.486213006 498.802207325,354.938705361 486.02798561,351.989543901 498.54199505,297.785413919 511.316216766,300.734575379 510.519146101,304.187067735 532.26984794,309.208612924 533.066918605,305.756120569 545.841140321,308.705282029 533.32713088,362.909412011 520.552909165,359.960250551 521.34997983,356.507758195 499.59927799,351.486213006" style="fill:none;stroke:#ff0000;stroke-opacity:1;stroke-width:1.062992" /><polyline points="470.845350415,118.475059778 467.39285806,117.677989113 470.34201952,104.903767397 524.546149502,117.417776838 521.596988042,130.191998553 518.144495686,129.394927888 513.122950497,151.145629728 516.575442852,151.942700393 513.626281392,164.716922109 459.42215141,152.202912668 462.37131287,139.428690953 465.823805226,140.225761618 470.845350415,118.475059778" style="fill:none;stroke:#ff0000;stroke-opacity:1;stroke-width:1.062992" /><polyline points="455.701007781,184.072414533 452.248515425,183.275343868 455.197676885,170.501122153 509.401806867,183.015131593 506.452645407,195.789353309 503.000153051,194.992282644 497.978607862,216.742984483 501.431100217,217.540055148 498.481938757,230.314276864 444.277808775,217.800267423 447.226970235,205.026045708 450.679462591,205.823116373 455.701007781,184.072414533" style="fill:none;stroke:#ff0000;stroke-opacity:1;stroke-width:1.062992" /><polyline points="440.556665146,249.669769288 437.10417279,248.872698623 440.053334251,236.098476908 494.257464232,248.612486348 491.308302772,261.386708064 487.855810416,260.589637399 482.834265227,282.340339239 486.286757582,283.137409904 483.337596122,295.911631619 429.13346614,283.397622179 432.082627601,270.623400463 435.535119956,271.420471128 440.556665146,249.669769288" style="fill:none;stroke:#ff0000;stroke-opacity:1;stroke-width:1.062992" /><polyline points="425.412322511,315.267124044 421.959830155,314.470053379 424.908991616,301.695831663 479.113121597,314.209841104 476.163960137,326.984062819 472.711467781,326.186992154 467.689922592,347.937693994 471.142414948,348.734764659 468.193253487,361.508986374 413.989123505,348.994976934 416.938284966,336.220755218 420.390777321,337.017825883 425.412322511,315.267124044" style="fill:none;stroke:#ff0000;stroke-opacity:1;stroke-width:1.062992" /><polyline points="406.443601658,98.1519786096 402.991109302,97.3549079446 405.940270763,84.5806862291 460.144400745,97.0946956696 457.195239284,109.868917385 453.742746929,109.07184672 448.721201739,130.82254856 452.173694095,131.619619225 449.224532634,144.39384094 395.020402652,131.8798315 397.969564113,119.105609785 401.422056468,119.90268045 406.443601658,98.1519786096" style="fill:none;stroke:#ff0000;stroke-opacity:1;stroke-width:1.062992" /><polyline points="391.299259023,163.749333365 387.846766667,162.9522627 390.795928128,150.178040984 445.00005811,162.692050425 442.050896649,175.46627214 438.598404294,174.669201475 433.576859104,196.419903315 437.02935146,197.21697398 434.080189999,209.991195696 379.876060017,197.477186255 382.825221478,184.70296454 386.277713833,185.500035205 391.299259023,163.749333365" style="fill:none;stroke:#ff0000;stroke-opacity:1;stroke-width:1.062992" /><polyline points="376.154916388,229.34668812 372.702424032,228.549617455 375.651585493,215.77539574 429.855715475,228.28940518 426.906554014,241.063626896 423.454061659,240.266556231 418.432516469,262.01725807 421.885008825,262.814328735 418.935847364,275.588550451 364.731717382,263.07454101 367.680878843,250.300319295 371.133371198,251.09738996 376.154916388,229.34668812" style="fill:none;stroke:#ff0000;stroke-opacity:1;stroke-width:1.062992" /><polyline points="361.010573753,294.944042875 357.558081397,294.14697221 360.507242858,281.372750495 414.71137284,293.886759935 411.762211379,306.660981651 408.309719024,305.863910986 403.288173834,327.614612826 406.74066619,328.411683491 403.791504729,341.185905206 349.587374747,328.671895766 352.536536208,315.89767405 355.989028563,316.694744715 361.010573753,294.944042875" style="fill:none;stroke:#ff0000;stroke-opacity:1;stroke-width:1.062992" /><polyline points="345.866231118,360.541397631 342.413738762,359.744326966 345.362900223,346.97010525 399.567030205,359.484114691 396.617868744,372.258336406 393.165376389,371.461265741 388.143831199,393.211967581 391.596323555,394.009038246 388.647162094,406.783259961 334.443032112,394.269250521 337.392193573,381.495028805 340.844685928,382.29209947 345.866231118,360.541397631" style="fill:none;stroke:#ff0000;stroke-opacity:1;stroke-width:1.062992" /><polyline points="342.0418529,77.8288974414 338.589360544,77.0318267764 341.538522005,64.2576050609 395.742651987,76.7716145013 392.793490526,89.5458362168 389.340998171,88.7487655518 384.319452981,110.499467392 387.771945337,111.296538057 384.822783876,124.070759772 330.618653894,111.556750332 333.567815355,98.7825286162 337.020307711,99.5795992812 342.0418529,77.8288974414" style="fill:none;stroke:#ff0000;stroke-opacity:1;stroke-width:1.062992" /><polyline points="326.897510265,143.426252197 323.44501791,142.629181532 326.39417937,129.854959816 380.598309352,142.368969257 377.649147891,155.143190972 374.196655536,154.346120307 369.175110346,176.096822147 372.627602702,176.893892812 369.678441241,189.668114527 315.47431126,177.154105087 318.42347272,164.379883371 321.875965076,165.176954036 326.897510265,143.426252197" style="fill:none;stroke:#ff0000;stroke-opacity:1;stroke-width:1.062992" /><polyline points="311.75316763,209.023606952 308.300675275,208.226536287 311.249836735,195.452314571 365.453966717,207.966324012 362.504805256,220.740545727 359.052312901,219.943475062 354.030767711,241.694176902 357.483260067,242.491247567 354.534098607,255.265469283 300.329968625,242.751459842 303.279130085,229.977238127 306.731622441,230.774308792 311.75316763,209.023606952" style="fill:none;stroke:#ff0000;stroke-opacity:1;stroke-width:1.062992" /><polyline points="296.608824995,274.620961707 293.15633264,273.823891042 296.1054941,261.049669327 350.309624082,273.563678767 347.360462622,286.337900483 343.907970266,285.540829818 338.886425077,307.291531657 342.338917432,308.088602322 339.389755972,320.862824038 285.18562599,308.348814597 288.13478745,295.574592882 291.587279806,296.371663547 296.608824995,274.620961707" style="fill:none;stroke:#ff0000;stroke-opacity:1;stroke-width:1.062992" /><polyline points="281.46448236,340.218316462 278.011990005,339.421245797 280.961151465,326.647024082 335.165281447,339.161033522 332.216119987,351.935255238 328.763627631,351.138184573 323.742082442,372.888886413 327.194574797,373.685957078 324.245413337,386.460178793 270.041283355,373.946169353 272.990444815,361.171947637 276.442937171,361.969018302 281.46448236,340.218316462" style="fill:none;stroke:#ff0000;stroke-opacity:1;stroke-width:1.062992" /><polyline points="275.248892147,67.8632933397 271.796399792,67.0662226747 274.745561252,54.2920009592 328.949691234,66.8060103997 326.000529774,79.5802321152 322.548037418,78.7831614502 317.526492229,100.53386329 320.978984584,101.330933955 318.029823124,114.105155671 263.825693142,101.59114623 266.774854602,88.8169245146 270.227346958,89.6139951796 275.248892147,67.8632933397" style="fill:none;stroke:#ff0000;stroke-opacity:1;stroke-width:1.062992" /><polyline points="260.104549512,133.460648095 256.652057157,132.66357743 259.601218617,119.889355714 313.805348599,132.403365155 310.856187139,145.17758687 307.403694783,144.380516205 302.382149594,166.131218045 305.834641949,166.92828871 302.885480489,179.702510426 248.681350507,167.188500985 251.630511967,154.41427927 255.083004323,155.211349935 260.104549512,133.460648095" style="fill:none;stroke:#ff0000;stroke-opacity:1;stroke-width:1.062992" /><polyline points="244.960206877,199.05800285 241.507714522,198.260932185 244.456875982,185.48671047 298.661005964,198.00071991 295.711844504,210.774941626 292.259352148,209.977870961 287.237806959,231.728572801 290.690299314,232.525643466 287.741137854,245.299865181 233.537007872,232.785855741 236.486169332,220.011634025 239.938661688,220.80870469 244.960206877,199.05800285" style="fill:none;stroke:#ff0000;stroke-opacity:1;stroke-width:1.062992" /><polyline points="229.815864242,264.655357605 226.363371887,263.85828694 229.312533347,251.084065225 283.516663329,263.598074665 280.567501869,276.372296381 277.115009513,275.575225716 272.093464324,297.325927556 275.545956679,298.122998221 272.596795219,310.897219936 218.392665237,298.383210496 221.341826697,285.60898878 224.794319053,286.406059445 229.815864242,264.655357605" style="fill:none;stroke:#ff0000;stroke-opacity:1;stroke-width:1.062992" /><polyline points="214.671521607,330.252712361 211.219029252,329.455641696 214.168190712,316.68141998 268.372320694,329.195429421 265.423159234,341.969651136 261.970666878,341.172580471 256.949121689,362.923282311 260.401614044,363.720352976 257.452452584,376.494574691 203.248322602,363.980565251 206.197484062,351.206343535 209.649976418,352.0034142 214.671521607,330.252712361" style="fill:none;stroke:#ff0000;stroke-opacity:1;stroke-width:1.062992" /><polyline points="207.260325397,63.0764277714 203.807833042,62.2793571064 206.756994502,49.5051353909 260.961124484,62.0191448313 258.011963023,74.7933665468 254.559470668,73.9962958818 249.537925478,95.7469977217 252.990417834,96.5440683867 250.041256373,109.318290102 195.837126392,96.8042806617 198.786287852,84.0300589462 202.238780208,84.8271296112 207.260325397,63.0764277714" style="fill:none;stroke:#ff0000;stroke-opacity:1;stroke-width:1.062992" /><polyline points="192.115982762,128.673782527 188.663490407,127.876711862 191.612651867,115.102490146 245.816781849,127.616499587 242.867620389,140.390721302 239.415128033,139.593650637 234.393582843,161.344352477 237.846075199,162.141423142 234.896913739,174.915644857 180.692783757,162.401635417 183.641945217,149.627413701 187.094437573,150.424484366 192.115982762,128.673782527" style="fill:none;stroke:#ff0000;stroke-opacity:1;stroke-width:1.062992" /><polyline points="176.971640127,194.271137282 173.519147772,193.474066617 176.468309232,180.699844901 230.672439214,193.213854342 227.723277754,205.988076057 224.270785398,205.191005392 219.249240209,226.941707232 222.701732564,227.738777897 219.752571104,240.512999613 165.548441122,227.998990172 168.497602582,215.224768457 171.950094938,216.021839122 176.971640127,194.271137282" style="fill:none;stroke:#ff0000;stroke-opacity:1;stroke-width:1.062992" /><polyline points="161.827297492,259.868492037 158.374805137,259.071421372 161.323966597,246.297199657 215.528096579,258.811209097 212.578935119,271.585430813 209.126442763,270.788360148 204.104897574,292.539061987 207.557389929,293.336132652 204.608228469,306.110354368 150.404098487,293.596344927 153.353259947,280.822123212 156.805752303,281.619193877 161.827297492,259.868492037" style="fill:none;stroke:#ff0000;stroke-opacity:1;stroke-width:1.062992" /><polyline points="146.682954857,325.465846792 143.230462502,324.668776127 146.179623962,311.894554412 200.383753944,324.408563852 197.434592484,337.182785568 193.982100128,336.385714903 188.960554939,358.136416743 192.413047294,358.933487408 189.463885834,371.707709123 135.259755852,359.193699683 138.208917312,346.419477967 141.661409668,347.216548632 146.682954857,325.465846792" style="fill:none;stroke:#ff0000;stroke-opacity:1;stroke-width:1.062992" /><polyline points="125.263631953,44.1459994776 121.811139597,43.3489288127 124.760301058,30.5747070972 178.96443104,43.0887165376 176.015269579,55.8629382531 172.562777224,55.0658675881 167.541232034,76.816569428 170.99372439,77.613640093 168.044562929,90.3878618085 113.840432948,77.873852368 116.789594408,65.0996306525 120.242086764,65.8967013175 125.263631953,44.1459994776" style="fill:none;stroke:#ff0000;stroke-opacity:1;stroke-width:1.062992" /><polyline points="110.119289318,109.743354233 106.666796963,108.946283568 109.615958423,96.1720618524 163.820088405,108.686071293 160.870926944,121.460293008 157.418434589,120.663222343 152.396889399,142.413924183 155.849381755,143.210994848 152.900220295,155.985216564 98.6960903126,143.471207123 101.645251773,130.696985408 105.097744129,131.494056073 110.119289318,109.743354233" style="fill:none;stroke:#ff0000;stroke-opacity:1;stroke-width:1.062992" /><polyline points="94.9749466831,175.340708988 91.5224543276,174.543638323 94.4716157881,161.769416608 148.67574577,174.283426048 145.72658431,187.057647764 142.274091954,186.260577099 137.252546764,208.011278938 140.70503912,208.808349603 137.75587766,221.582571319 83.5517476776,209.068561878 86.5009091381,196.294340163 89.9534014936,197.091410828 94.9749466831,175.340708988" style="fill:none;stroke:#ff0000;stroke-opacity:1;stroke-width:1.062992" /><polyline points="79.8306040481,240.938063743 76.3781116926,240.140993078 79.3272731531,227.366771363 133.531403135,239.880780803 130.582241675,252.655002519 127.129749319,251.857931854 122.10820413,273.608633694 125.560696485,274.405704359 122.611535025,287.179926074 68.4074050426,274.665916634 71.3565665031,261.891694918 74.8090588587,262.688765583 79.8306040481,240.938063743" style="fill:none;stroke:#ff0000;stroke-opacity:1;stroke-width:1.062992" /><polyline points="81.085600102,310.321504157 77.6331077465,309.524433492 80.5822692069,296.750211777 134.786399189,309.264221217 131.837237728,322.038442933 128.384745373,321.241372268 123.363200183,342.992074108 126.815692539,343.789144773 123.866531078,356.563366488 69.6624010965,344.049357048 72.611562557,331.275135332 76.0640549125,332.072205997 81.085600102,310.321504157" style="fill:none;stroke:#ff0000;stroke-opacity:1;stroke-width:1.062992" /><polyline points="963.579744235,428.304455411 961.398266567,425.512291323 971.729273691,417.44082395 1005.97847309,461.277800125 995.647465962,469.349267498 993.465988293,466.557103411 975.875354541,480.300412722 978.05683221,483.09257681 967.725825086,491.164044183 933.476625691,447.327068008 943.807632815,439.255600635 945.989110483,442.047764722 963.579744235,428.304455411" style="fill:none;stroke:#ff0000;stroke-opacity:1;stroke-width:1.062992" /><polyline points="910.528626571,469.752531112 908.347148903,466.960367024 918.678156027,458.888899651 952.927355422,502.725875826 942.596348298,510.797343199 940.414870629,508.005179112 922.824236877,521.748488423 925.005714546,524.540652511 914.674707422,532.612119884 880.425508027,488.775143709 890.756515151,480.703676336 892.937992819,483.495840423 910.528626571,469.752531112" style="fill:none;stroke:#ff0000;stroke-opacity:1;stroke-width:1.062992" /><polyline points="858.351373255,569.871949454 855.559209167,572.053427122 847.487741794,561.722419998 891.324717969,527.473220603 899.396185342,537.804227727 896.604021255,539.985705396 910.347330566,557.576339147 913.139494654,555.394861479 921.210962027,565.725868603 877.373985852,599.975067998 869.302518479,589.644060874 872.094682566,587.462583206 858.351373255,569.871949454" style="fill:none;stroke:#ff0000;stroke-opacity:1;stroke-width:1.062992" /><polyline points="816.903297554,516.82083179 814.111133466,519.002309458 806.039666093,508.671302334 849.876642268,474.422102939 857.948109641,484.753110063 855.155945554,486.934587732 868.899254865,504.525221483 871.691418953,502.343743815 879.762886326,512.674750939 835.925910151,546.923950334 827.854442778,536.59294321 830.646606865,534.411465542 816.903297554,516.82083179" style="fill:none;stroke:#ff0000;stroke-opacity:1;stroke-width:1.062992" /><polyline points="775.455221853,463.769714126 772.663057765,465.951191794 764.591590392,455.62018467 808.428566567,421.370985275 816.50003394,431.701992399 813.707869853,433.883470068 827.451179164,451.474103819 830.243343252,449.292626151 838.314810625,459.623633275 794.47783445,493.87283267 786.406367077,483.541825546 789.198531164,481.360347877 775.455221853,463.769714126" style="fill:none;stroke:#ff0000;stroke-opacity:1;stroke-width:1.062992" /><polyline points="828.506339517,422.321638425 825.714175429,424.503116093 817.642708056,414.172108969 861.479684231,379.922909574 869.551151604,390.253916698 866.758987517,392.435394366 880.502296828,410.026028118 883.294460916,407.84455045 891.365928289,418.175557574 847.528952114,452.424756969 839.457484741,442.093749845 842.249648828,439.912272176 828.506339517,422.321638425" style="fill:none;stroke:#ff0000;stroke-opacity:1;stroke-width:1.062992" /><polyline points="844.210905464,144.539270523 840.758413108,145.336341188 837.809251648,132.562119473 892.01338163,120.048110032 894.96254309,132.822331748 891.510050735,133.619402413 896.531595924,155.370104253 899.98408828,154.573033588 902.93324974,167.347255303 848.729119758,179.861264744 845.779958298,167.087043028 849.232450653,166.289972363 844.210905464,144.539270523" style="fill:none;stroke:#ff0000;stroke-opacity:1;stroke-width:1.062992" /><polyline points="894.717095853,205.791035602 893.920025188,202.338543246 906.694246903,199.389381786 919.208256343,253.593511768 906.434034628,256.542673228 905.636963963,253.090180873 883.886262123,258.111726062 884.683332788,261.564218418 871.909111073,264.513379878 859.395101632,210.309249896 872.169323348,207.360088436 872.966394013,210.812580791 894.717095853,205.791035602" style="fill:none;stroke:#ff0000;stroke-opacity:1;stroke-width:1.062992" /><polyline points="917.433609805,304.187067735 916.63653914,300.734575379 929.410760855,297.785413919 941.924770296,351.989543901 929.15054858,354.938705361 928.353477915,351.486213006 906.602776076,356.507758195 907.399846741,359.960250551 894.625625025,362.909412011 882.111615585,308.705282029 894.8858373,305.756120569 895.682907965,309.208612924 917.433609805,304.187067735" style="fill:none;stroke:#ff0000;stroke-opacity:1;stroke-width:1.062992" /><polyline points="909.808260219,129.394927888 906.355767864,130.191998553 903.406606403,117.417776838 957.610736385,104.903767397 960.559897846,117.677989113 957.10740549,118.475059778 962.12895068,140.225761618 965.581443035,139.428690953 968.530604496,152.202912668 914.326474514,164.716922109 911.377313053,151.942700393 914.829805409,151.145629728 909.808260219,129.394927888" style="fill:none;stroke:#ff0000;stroke-opacity:1;stroke-width:1.062992" /><polyline points="924.952602854,194.992282644 921.500110499,195.789353309 918.550949038,183.015131593 972.75507902,170.501122153 975.704240481,183.275343868 972.251748125,184.072414533 977.273293314,205.823116373 980.72578567,205.026045708 983.674947131,217.800267423 929.470817149,230.314276864 926.521655688,217.540055148 929.974148044,216.742984483 924.952602854,194.992282644" style="fill:none;stroke:#ff0000;stroke-opacity:1;stroke-width:1.062992" /><polyline points="940.096945489,260.589637399 936.644453134,261.386708064 933.695291673,248.612486348 987.899421655,236.098476908 990.848583116,248.872698623 987.39609076,249.669769288 992.417635949,271.420471128 995.870128305,270.623400463 998.819289765,283.397622179 944.615159784,295.911631619 941.665998323,283.137409904 945.118490679,282.340339239 940.096945489,260.589637399" style="fill:none;stroke:#ff0000;stroke-opacity:1;stroke-width:1.062992" /><polyline points="955.241288124,326.186992154 951.788795769,326.984062819 948.839634308,314.209841104 1003.04376429,301.695831663 1005.99292575,314.470053379 1002.54043339,315.267124044 1007.56197858,337.017825883 1011.01447094,336.220755218 1013.9636324,348.994976934 959.759502418,361.508986374 956.810340958,348.734764659 960.262833314,347.937693994 955.241288124,326.186992154" style="fill:none;stroke:#ff0000;stroke-opacity:1;stroke-width:1.062992" /><polyline points="974.210008977,109.07184672 970.757516621,109.868917385 967.808355161,97.0946956696 1022.01248514,84.5806862291 1024.9616466,97.3549079446 1021.50915425,98.1519786096 1026.53069944,119.90268045 1029.98319179,119.105609785 1032.93235325,131.8798315 978.728223271,144.39384094 975.779061811,131.619619225 979.231554166,130.82254856 974.210008977,109.07184672" style="fill:none;stroke:#ff0000;stroke-opacity:1;stroke-width:1.062992" /><polyline points="989.354351612,174.669201475 985.901859256,175.46627214 982.952697796,162.692050425 1037.15682778,150.178040984 1040.10598924,162.9522627 1036.65349688,163.749333365 1041.67504207,185.500035205 1045.12753443,184.70296454 1048.07669589,197.477186255 993.872565906,209.991195696 990.923404446,197.21697398 994.375896801,196.419903315 989.354351612,174.669201475" style="fill:none;stroke:#ff0000;stroke-opacity:1;stroke-width:1.062992" /><polyline points="1004.49869425,240.266556231 1001.04620189,241.063626896 998.097040431,228.28940518 1052.30117041,215.77539574 1055.25033187,228.549617455 1051.79783952,229.34668812 1056.81938471,251.09738996 1060.27187706,250.300319295 1063.22103852,263.07454101 1009.01690854,275.588550451 1006.06774708,262.814328735 1009.52023944,262.01725807 1004.49869425,240.266556231" style="fill:none;stroke:#ff0000;stroke-opacity:1;stroke-width:1.062992" /><polyline points="1019.64303688,305.863910986 1016.19054453,306.660981651 1013.24138307,293.886759935 1067.44551305,281.372750495 1070.39467451,294.14697221 1066.94218215,294.944042875 1071.96372734,316.694744715 1075.4162197,315.89767405 1078.36538116,328.671895766 1024.16125118,341.185905206 1021.21208972,328.411683491 1024.66458207,327.614612826 1019.64303688,305.863910986" style="fill:none;stroke:#ff0000;stroke-opacity:1;stroke-width:1.062992" /><polyline points="1034.78737952,371.461265741 1031.33488716,372.258336406 1028.3857257,359.484114691 1082.58985568,346.97010525 1085.53901714,359.744326966 1082.08652479,360.541397631 1087.10806998,382.29209947 1090.56056233,381.495028805 1093.50972379,394.269250521 1039.30559381,406.783259961 1036.35643235,394.009038246 1039.80892471,393.211967581 1034.78737952,371.461265741" style="fill:none;stroke:#ff0000;stroke-opacity:1;stroke-width:1.062992" /><polyline points="1038.61175773,88.7487655518 1035.15926538,89.5458362168 1032.21010392,76.7716145013 1086.4142339,64.2576050609 1089.36339536,77.0318267764 1085.91090301,77.8288974414 1090.93244819,99.5795992812 1094.38494055,98.7825286162 1097.33410201,111.556750332 1043.12997203,124.070759772 1040.18081057,111.296538057 1043.63330292,110.499467392 1038.61175773,88.7487655518" style="fill:none;stroke:#ff0000;stroke-opacity:1;stroke-width:1.062992" /><polyline points="1053.75610037,154.346120307 1050.30360801,155.143190972 1047.35444655,142.368969257 1101.55857654,129.854959816 1104.507738,142.629181532 1101.05524564,143.426252197 1106.07679083,165.176954036 1109.52928319,164.379883371 1112.47844465,177.154105087 1058.27431466,189.668114527 1055.3251532,176.893892812 1058.77764556,176.096822147 1053.75610037,154.346120307" style="fill:none;stroke:#ff0000;stroke-opacity:1;stroke-width:1.062992" /><polyline points="1068.900443,219.943475062 1065.44795065,220.740545727 1062.49878919,207.966324012 1116.70291917,195.452314571 1119.65208063,208.226536287 1116.19958828,209.023606952 1121.22113346,230.774308792 1124.67362582,229.977238127 1127.62278728,242.751459842 1073.4186573,255.265469283 1070.46949584,242.491247567 1073.92198819,241.694176902 1068.900443,219.943475062" style="fill:none;stroke:#ff0000;stroke-opacity:1;stroke-width:1.062992" /><polyline points="1084.04478564,285.540829818 1080.59229328,286.337900483 1077.64313182,273.563678767 1131.84726181,261.049669327 1134.79642327,273.823891042 1131.34393091,274.620961707 1136.3654761,296.371663547 1139.81796846,295.574592882 1142.76712992,308.348814597 1088.56299993,320.862824038 1085.61383847,308.088602322 1089.06633083,307.291531657 1084.04478564,285.540829818" style="fill:none;stroke:#ff0000;stroke-opacity:1;stroke-width:1.062992" /><polyline points="1099.18912827,351.138184573 1095.73663592,351.935255238 1092.78747446,339.161033522 1146.99160444,326.647024082 1149.9407659,339.421245797 1146.48827355,340.218316462 1151.50981873,361.969018302 1154.96231109,361.171947637 1157.91147255,373.946169353 1103.70734257,386.460178793 1100.75818111,373.685957078 1104.21067346,372.888886413 1099.18912827,351.138184573" style="fill:none;stroke:#ff0000;stroke-opacity:1;stroke-width:1.062992" /><polyline points="1105.40471849,78.7831614502 1101.95222613,79.5802321152 1099.00306467,66.8060103997 1153.20719465,54.2920009592 1156.15635611,67.0662226747 1152.70386376,67.8632933397 1157.72540895,89.6139951796 1161.1779013,88.8169245146 1164.12706276,101.59114623 1109.92293278,114.105155671 1106.97377132,101.330933955 1110.42626368,100.53386329 1105.40471849,78.7831614502" style="fill:none;stroke:#ff0000;stroke-opacity:1;stroke-width:1.062992" /><polyline points="1120.54906112,144.380516205 1117.09656877,145.17758687 1114.14740731,132.403365155 1168.35153729,119.889355714 1171.30069875,132.66357743 1167.84820639,133.460648095 1172.86975158,155.211349935 1176.32224394,154.41427927 1179.2714054,167.188500985 1125.06727542,179.702510426 1122.11811396,166.92828871 1125.57060631,166.131218045 1120.54906112,144.380516205" style="fill:none;stroke:#ff0000;stroke-opacity:1;stroke-width:1.062992" /><polyline points="1135.69340376,209.977870961 1132.2409114,210.774941626 1129.29174994,198.00071991 1183.49587992,185.48671047 1186.44504138,198.260932185 1182.99254903,199.05800285 1188.01409422,220.80870469 1191.46658657,220.011634025 1194.41574803,232.785855741 1140.21161805,245.299865181 1137.26245659,232.525643466 1140.71494895,231.728572801 1135.69340376,209.977870961" style="fill:none;stroke:#ff0000;stroke-opacity:1;stroke-width:1.062992" /><polyline points="1150.83774639,275.575225716 1147.38525404,276.372296381 1144.43609258,263.598074665 1198.64022256,251.084065225 1201.58938402,263.85828694 1198.13689166,264.655357605 1203.15843685,286.406059445 1206.61092921,285.60898878 1209.56009067,298.383210496 1155.35596069,310.897219936 1152.40679923,298.122998221 1155.85929158,297.325927556 1150.83774639,275.575225716" style="fill:none;stroke:#ff0000;stroke-opacity:1;stroke-width:1.062992" /><polyline points="1165.98208903,341.172580471 1162.52959667,341.969651136 1159.58043521,329.195429421 1213.78456519,316.68141998 1216.73372665,329.455641696 1213.2812343,330.252712361 1218.30277949,352.0034142 1221.75527184,351.206343535 1224.7044333,363.980565251 1170.50030332,376.494574691 1167.55114186,363.720352976 1171.00363422,362.923282311 1165.98208903,341.172580471" style="fill:none;stroke:#ff0000;stroke-opacity:1;stroke-width:1.062992" /><polyline points="1173.39328524,73.9962958818 1169.94079288,74.7933665468 1166.99163142,62.0191448313 1221.1957614,49.5051353909 1224.14492286,62.2793571064 1220.69243051,63.0764277714 1225.7139757,84.8271296112 1229.16646805,84.0300589462 1232.11562951,96.8042806617 1177.91149953,109.318290102 1174.96233807,96.5440683867 1178.41483043,95.7469977217 1173.39328524,73.9962958818" style="fill:none;stroke:#ff0000;stroke-opacity:1;stroke-width:1.062992" /><polyline points="1188.53762787,139.593650637 1185.08513552,140.390721302 1182.13597406,127.616499587 1236.34010404,115.102490146 1239.2892655,127.876711862 1235.83677314,128.673782527 1240.85831833,150.424484366 1244.31081069,149.627413701 1247.25997215,162.401635417 1193.05584217,174.915644857 1190.10668071,162.141423142 1193.55917306,161.344352477 1188.53762787,139.593650637" style="fill:none;stroke:#ff0000;stroke-opacity:1;stroke-width:1.062992" /><polyline points="1203.68197051,205.191005392 1200.22947815,205.988076057 1197.28031669,193.213854342 1251.48444667,180.699844901 1254.43360813,193.474066617 1250.98111578,194.271137282 1256.00266097,216.021839122 1259.45515332,215.224768457 1262.40431478,227.998990172 1208.2001848,240.512999613 1205.25102334,227.738777897 1208.7035157,226.941707232 1203.68197051,205.191005392" style="fill:none;stroke:#ff0000;stroke-opacity:1;stroke-width:1.062992" /><polyline points="1218.82631314,270.788360148 1215.37382079,271.585430813 1212.42465933,258.811209097 1266.62878931,246.297199657 1269.57795077,259.071421372 1266.12545841,259.868492037 1271.1470036,281.619193877 1274.59949596,280.822123212 1277.54865742,293.596344927 1223.34452744,306.110354368 1220.39536598,293.336132652 1223.84785833,292.539061987 1218.82631314,270.788360148" style="fill:none;stroke:#ff0000;stroke-opacity:1;stroke-width:1.062992" /><polyline points="1233.97065578,336.385714903 1230.51816342,337.182785568 1227.56900196,324.408563852 1281.77313194,311.894554412 1284.7222934,324.668776127 1281.26980105,325.465846792 1286.29134624,347.216548632 1289.74383859,346.419477967 1292.69300005,359.193699683 1238.48887007,371.707709123 1235.53970861,358.933487408 1238.99220097,358.136416743 1233.97065578,336.385714903" style="fill:none;stroke:#ff0000;stroke-opacity:1;stroke-width:1.062992" /><polyline points="1255.38997868,55.0658675881 1251.93748633,55.8629382531 1248.98832487,43.0887165376 1303.19245485,30.5747070972 1306.14161631,43.3489288127 1302.68912395,44.1459994776 1307.71066914,65.8967013175 1311.1631615,65.0996306525 1314.11232296,77.873852368 1259.90819298,90.3878618085 1256.95903152,77.613640093 1260.41152387,76.816569428 1255.38997868,55.0658675881" style="fill:none;stroke:#ff0000;stroke-opacity:1;stroke-width:1.062992" /><polyline points="1270.53432132,120.663222343 1267.08182896,121.460293008 1264.1326675,108.686071293 1318.33679748,96.1720618524 1321.28595894,108.946283568 1317.83346659,109.743354233 1322.85501178,131.494056073 1326.30750413,130.696985408 1329.25666559,143.471207123 1275.05253561,155.985216564 1272.10337415,143.210994848 1275.55586651,142.413924183 1270.53432132,120.663222343" style="fill:none;stroke:#ff0000;stroke-opacity:1;stroke-width:1.062992" /><polyline points="1285.67866395,186.260577099 1282.2261716,187.057647764 1279.27701014,174.283426048 1333.48114012,161.769416608 1336.43030158,174.543638323 1332.97780922,175.340708988 1337.99935441,197.091410828 1341.45184677,196.294340163 1344.40100823,209.068561878 1290.19687825,221.582571319 1287.24771679,208.808349603 1290.70020914,208.011278938 1285.67866395,186.260577099" style="fill:none;stroke:#ff0000;stroke-opacity:1;stroke-width:1.062992" /><polyline points="1300.82300659,251.857931854 1297.37051423,252.655002519 1294.42135277,239.880780803 1348.62548275,227.366771363 1351.57464421,240.140993078 1348.12215186,240.938063743 1353.14369705,262.688765583 1356.5961894,261.891694918 1359.54535086,274.665916634 1305.34122088,287.179926074 1302.39205942,274.405704359 1305.84455178,273.608633694 1300.82300659,251.857931854" style="fill:none;stroke:#ff0000;stroke-opacity:1;stroke-width:1.062992" /><polyline points="1299.56801053,321.241372268 1296.11551818,322.038442933 1293.16635672,309.264221217 1347.3704867,296.750211777 1350.31964816,309.524433492 1346.8671558,310.321504157 1351.88870099,332.072205997 1355.34119335,331.275135332 1358.29035481,344.049357048 1304.08622483,356.563366488 1301.13706337,343.789144773 1304.58955572,342.992074108 1299.56801053,321.241372268" style="fill:none;stroke:#ff0000;stroke-opacity:1;stroke-width:1.062992" /><circle cx="679.550673061" cy="499.069984674" r="5.13779527559" style="fill:none;stroke:#ff0000;stroke-opacity:1;stroke-width:1.062992" /><circle cx="557.581505211" cy="23.4109642722" r="5.13779527559" style="fill:none;stroke:#ff0000;stroke-opacity:1;stroke-width:1.062992" /><circle cx="228.399125438" cy="23.4109642722" r="5.13779527559" style="fill:none;stroke:#ff0000;stroke-opacity:1;stroke-width:1.062992" /><circle cx="43.133494766" cy="314.832834005" r="5.13779527559" style="fill:none;stroke:#ff0000;stroke-opacity:1;stroke-width:1.062992" /><circle cx="447.106191413" cy="655.062085344" r="5.13779527559" style="fill:none;stroke:#ff0000;stroke-opacity:1;stroke-width:1.062992" /><circle cx="82.8337483013" cy="527.013817693" r="5.13779527559" style="fill:none;stroke:#ff0000;stroke-opacity:1;stroke-width:1.062992" /><circle cx="1345.1190076" cy="527.013817693" r="5.13779527559" style="fill:none;stroke:#ff0000;stroke-opacity:1;stroke-width:1.062992" /><circle cx="980.846564493" cy="655.062085344" r="5.13779527559" style="fill:none;stroke:#ff0000;stroke-opacity:1;stroke-width:1.062992" /><circle cx="1384.81926114" cy="314.832834005" r="5.13779527559" style="fill:none;stroke:#ff0000;stroke-opacity:1;stroke-width:1.062992" /><circle cx="1199.55363047" cy="23.4109642722" r="5.13779527559" style="fill:none;stroke:#ff0000;stroke-opacity:1;stroke-width:1.062992" /><circle cx="870.371250694" cy="23.4109642722" r="5.13779527559" style="fill:none;stroke:#ff0000;stroke-opacity:1;stroke-width:1.062992" /><circle cx="748.402082844" cy="499.069984674" r="5.13779527559" style="fill:none;stroke:#ff0000;stroke-opacity:1;stroke-width:1.062992" /><circle cx="643.11023622" cy="179.316476083" r="5.13779527559" style="fill:none;stroke:#ff0000;stroke-opacity:1;stroke-width:1.062992" /><circle cx="784.842519685" cy="179.316476083" r="5.13779527559" style="fill:none;stroke:#ff0000;stroke-opacity:1;stroke-width:1.062992" /><circle cx="643.11023622" cy="37.5841926187" r="5.13779527559" style="fill:none;stroke:#ff0000;stroke-opacity:1;stroke-width:1.062992" /><circle cx="784.842519685" cy="37.5841926187" r="5.13779527559" style="fill:none;stroke:#ff0000;stroke-opacity:1;stroke-width:1.062992" /><polyline points="22.9514016023,291.990877573 87.5141254671,12.338996774" style="fill:none;stroke:#ff0000;stroke-opacity:1;stroke-width:1.062992" /><path d="M104.776587,-1.392185 A 17.7165354331 17.7165354331 0.0 0,0 87.5141254671 12.338996774" style="fill:none;stroke:#ff0000;stroke-opacity:1;stroke-width:1.062992" /><polyline points="104.776587245,-1.39218533407 1323.17616866,-1.39218533407" style="fill:none;stroke:#ff0000;stroke-opacity:1;stroke-width:1.062992" /><path d="M1340.438630,12.338997 A 17.7165354331 17.7165354331 0.0 0,0 1323.17616866 -1.39218533407" style="fill:none;stroke:#ff0000;stroke-opacity:1;stroke-width:1.062992" /><polyline points="1340.43863044,12.338996774 1405.0013543,291.990877573" style="fill:none;stroke:#ff0000;stroke-opacity:1;stroke-width:1.062992" /><path d="M845.599696,593.697122 A 329.527559055 329.527559055 0.0 0,0 1405.0013543 291.990877573" style="fill:none;stroke:#ff0000;stroke-opacity:1;stroke-width:1.062992" /><path d="M845.599696,593.697122 A 181.997040135 181.997040135 0.0 0,0 582.353059718 593.697121952" style="fill:none;stroke:#ff0000;stroke-opacity:1;stroke-width:1.062992" /><path d="M22.951402,291.990878 A 329.527559055 329.527559055 0.0 0,0 582.353059718 593.697121952" style="fill:none;stroke:#ff0000;stroke-opacity:1;stroke-width:1.062992" /></svg>