<?xml version="1.0" encoding="utf-8" ?>
<svg baseProfile="full" height="200mm" version="1.1" width="400mm" xmlns="http://www.w3.org/2000/svg" xmlns:ev="http://www.w3.org/2001/xml-events" xmlns:xlink="http://www.w3.org/1999/xlink"><defs /><polyline points="459.26714431,489.514872531 492.643752637,446.794761991 457.183268725,419.089995602 423.806660397,461.810106142 459.26714431,489.514872531" style="fill:none;stroke:#ff0000;stroke-opacity:1;stroke-width:1.062992" /><polyline points="512.318261974,530.962948232 545.694870301,488.242837692 510.234386389,460.538071303 476.857778061,503.258181843 512.318261974,530.962948232" style="fill:none;stroke:#ff0000;stroke-opacity:1;stroke-width:1.062992" /><polyline points="508.39096553,564.766082093 551.11107607,598.142690421 578.81584246,562.682206508 536.09573192,529.305598181 508.39096553,564.766082093" style="fill:none;stroke:#ff0000;stroke-opacity:1;stroke-width:1.062992" /><polyline points="549.839041231,511.714964429 592.559151771,545.091572757 620.263918161,509.631088844 577.543807621,476.254480517 549.839041231,511.714964429" style="fill:none;stroke:#ff0000;stroke-opacity:1;stroke-width:1.062992" /><polyline points="591.287116932,458.663846765 634.007227472,492.040455092 661.711993862,456.57997118 618.991883322,423.203362852 591.287116932,458.663846765" style="fill:none;stroke:#ff0000;stroke-opacity:1;stroke-width:1.062992" /><polyline points="538.235999268,417.215771064 580.956109808,450.592379391 608.660876198,415.131895479 565.940765658,381.755287151 538.235999268,417.215771064" style="fill:none;stroke:#ff0000;stroke-opacity:1;stroke-width:1.062992" /><polyline points="526.108539969,165.780423258 578.931673009,177.975604433 589.054470454,134.128951518 536.231337414,121.933770343 526.108539969,165.780423258" style="fill:none;stroke:#ff0000;stroke-opacity:1;stroke-width:1.062992" /><polyline points="554.476812788,263.424346075 566.671993963,210.601213035 522.825341047,200.478415589 510.630159873,253.301548629 554.476812788,263.424346075" style="fill:none;stroke:#ff0000;stroke-opacity:1;stroke-width:1.062992" /><polyline points="531.760298836,361.820378208 543.95548001,308.997245168 500.108827095,298.874447722 487.91364592,351.697580762 531.760298836,361.820378208" style="fill:none;stroke:#ff0000;stroke-opacity:1;stroke-width:1.062992" /><polyline points="460.511185214,150.636080624 513.334318253,162.831261798 523.457115699,118.984608883 470.633982659,106.789427708 460.511185214,150.636080624" style="fill:none;stroke:#ff0000;stroke-opacity:1;stroke-width:1.062992" /><polyline points="445.366842579,216.233435379 498.189975618,228.428616553 508.312773064,184.581963638 455.489640024,172.386782463 445.366842579,216.233435379" style="fill:none;stroke:#ff0000;stroke-opacity:1;stroke-width:1.062992" /><polyline points="430.222499944,281.830790134 483.045632983,294.025971308 493.168430429,250.179318393 440.345297389,237.984137219 430.222499944,281.830790134" style="fill:none;stroke:#ff0000;stroke-opacity:1;stroke-width:1.062992" /><polyline points="415.078157309,347.428144889 467.901290348,359.623326064 478.024087794,315.776673148 425.200954754,303.581491974 415.078157309,347.428144889" style="fill:none;stroke:#ff0000;stroke-opacity:1;stroke-width:1.062992" /><polyline points="396.109436456,130.312999455 448.932569496,142.50818063 459.055366941,98.6615277144 406.232233901,86.4663465399 396.109436456,130.312999455" style="fill:none;stroke:#ff0000;stroke-opacity:1;stroke-width:1.062992" /><polyline points="380.965093821,195.91035421 433.788226861,208.105535385 443.911024306,164.25888247 391.087891266,152.063701295 380.965093821,195.91035421" style="fill:none;stroke:#ff0000;stroke-opacity:1;stroke-width:1.062992" /><polyline points="365.820751186,261.507708966 418.643884226,273.70289014 428.766681671,229.856237225 375.943548631,217.66105605 365.820751186,261.507708966" style="fill:none;stroke:#ff0000;stroke-opacity:1;stroke-width:1.062992" /><polyline points="350.676408551,327.105063721 403.499541591,339.300244895 413.622339036,295.45359198 360.799205996,283.258410806 350.676408551,327.105063721" style="fill:none;stroke:#ff0000;stroke-opacity:1;stroke-width:1.062992" /><polyline points="335.532065916,392.702418476 388.355198956,404.897599651 398.477996401,361.050946735 345.654863361,348.855765561 335.532065916,392.702418476" style="fill:none;stroke:#ff0000;stroke-opacity:1;stroke-width:1.062992" /><polyline points="331.707687698,109.989918287 384.530820738,122.185099461 394.653618183,78.3384465461 341.830485144,66.1432653716 331.707687698,109.989918287" style="fill:none;stroke:#ff0000;stroke-opacity:1;stroke-width:1.062992" /><polyline points="316.563345063,175.587273042 369.386478103,187.782454217 379.509275548,143.935801301 326.686142509,131.740620127 316.563345063,175.587273042" style="fill:none;stroke:#ff0000;stroke-opacity:1;stroke-width:1.062992" /><polyline points="301.419002428,241.184627797 354.242135468,253.379808972 364.364932913,209.533156057 311.541799874,197.337974882 301.419002428,241.184627797" style="fill:none;stroke:#ff0000;stroke-opacity:1;stroke-width:1.062992" /><polyline points="286.274659793,306.781982553 339.097792833,318.977163727 349.220590278,275.130510812 296.397457239,262.935329637 286.274659793,306.781982553" style="fill:none;stroke:#ff0000;stroke-opacity:1;stroke-width:1.062992" /><polyline points="271.130317158,372.379337308 323.953450198,384.574518482 334.076247643,340.727865567 281.253114604,328.532684393 271.130317158,372.379337308" style="fill:none;stroke:#ff0000;stroke-opacity:1;stroke-width:1.062992" /><polyline points="264.914726945,100.024314185 317.737859985,112.21949536 327.860657431,68.3728424444 275.037524391,56.17766127 264.914726945,100.024314185" style="fill:none;stroke:#ff0000;stroke-opacity:1;stroke-width:1.062992" /><polyline points="249.77038431,165.621668941 302.59351735,177.816850115 312.716314796,133.9701972 259.893181756,121.775016025 249.77038431,165.621668941" style="fill:none;stroke:#ff0000;stroke-opacity:1;stroke-width:1.062992" /><polyline points="234.626041675,231.219023696 287.449174715,243.41420487 297.571972161,199.567551955 244.748839121,187.37237078 234.626041675,231.219023696" style="fill:none;stroke:#ff0000;stroke-opacity:1;stroke-width:1.062992" /><polyline points="219.48169904,296.816378451 272.30483208,309.011559625 282.427629526,265.16490671 229.604496486,252.969725536 219.48169904,296.816378451" style="fill:none;stroke:#ff0000;stroke-opacity:1;stroke-width:1.062992" /><polyline points="204.337356406,362.413733206 257.160489445,374.608914381 267.283286891,330.762261465 214.460153851,318.567080291 204.337356406,362.413733206" style="fill:none;stroke:#ff0000;stroke-opacity:1;stroke-width:1.062992" /><polyline points="196.926160195,95.237448617 249.749293235,107.432629791 259.87209068,63.5859768761 207.048957641,51.3907957016 196.926160195,95.237448617" style="fill:none;stroke:#ff0000;stroke-opacity:1;stroke-width:1.062992" /><polyline points="181.78181756,160.834803372 234.6049506,173.029984547 244.727748045,129.183331631 191.904615006,116.988150457 181.78181756,160.834803372" style="fill:none;stroke:#ff0000;stroke-opacity:1;stroke-width:1.062992" /><polyline points="166.637474925,226.432158127 219.460607965,238.627339302 229.58340541,194.780686387 176.760272371,182.585505212 166.637474925,226.432158127" style="fill:none;stroke:#ff0000;stroke-opacity:1;stroke-width:1.062992" /><polyline points="151.49313229,292.029512883 204.31626533,304.224694057 214.439062775,260.378041142 161.615929736,248.182859967 151.49313229,292.029512883" style="fill:none;stroke:#ff0000;stroke-opacity:1;stroke-width:1.062992" /><polyline points="136.348789655,357.626867638 189.171922695,369.822048812 199.294720141,325.975395897 146.471587101,313.780214723 136.348789655,357.626867638" style="fill:none;stroke:#ff0000;stroke-opacity:1;stroke-width:1.062992" /><polyline points="114.929466751,76.3070203233 167.752599791,88.5022014977 177.875397236,44.6555485824 125.052264197,32.4603674079 114.929466751,76.3070203233" style="fill:none;stroke:#ff0000;stroke-opacity:1;stroke-width:1.062992" /><polyline points="99.7851241162,141.904375078 152.608257156,154.099556253 162.731054601,110.252903338 109.907921562,98.0577221632 99.7851241162,141.904375078" style="fill:none;stroke:#ff0000;stroke-opacity:1;stroke-width:1.062992" /><polyline points="84.6407814812,207.501729834 137.463914521,219.696911008 147.586711966,175.850258093 94.7635789267,163.655076918 84.6407814812,207.501729834" style="fill:none;stroke:#ff0000;stroke-opacity:1;stroke-width:1.062992" /><polyline points="69.4964388462,273.099084589 122.319571886,285.294265763 132.442369331,241.447612848 79.6192362917,229.252431674 69.4964388462,273.099084589" style="fill:none;stroke:#ff0000;stroke-opacity:1;stroke-width:1.062992" /><polyline points="70.7514349001,342.482525003 123.57456794,354.677706177 133.697365385,310.831053262 80.8742323456,298.635872088 70.7514349001,342.482525003" style="fill:none;stroke:#ff0000;stroke-opacity:1;stroke-width:1.062992" /><polyline points="928.222389095,446.794761991 961.598997423,489.514872531 997.059481335,461.810106142 963.682873007,419.089995602 928.222389095,446.794761991" style="fill:none;stroke:#ff0000;stroke-opacity:1;stroke-width:1.062992" /><polyline points="875.171271431,488.242837692 908.547879759,530.962948232 944.008363671,503.258181843 910.631755343,460.538071303 875.171271431,488.242837692" style="fill:none;stroke:#ff0000;stroke-opacity:1;stroke-width:1.062992" /><polyline points="869.755065662,598.142690421 912.475176202,564.766082093 884.770409813,529.305598181 842.050299273,562.682206508 869.755065662,598.142690421" style="fill:none;stroke:#ff0000;stroke-opacity:1;stroke-width:1.062992" /><polyline points="828.306989961,545.091572757 871.027100501,511.714964429 843.322334112,476.254480517 800.602223572,509.631088844 828.306989961,545.091572757" style="fill:none;stroke:#ff0000;stroke-opacity:1;stroke-width:1.062992" /><polyline points="786.85891426,492.040455092 829.5790248,458.663846765 801.87425841,423.203362852 759.15414787,456.57997118 786.85891426,492.040455092" style="fill:none;stroke:#ff0000;stroke-opacity:1;stroke-width:1.062992" /><polyline points="839.910031924,450.592379391 882.630142464,417.215771064 854.925376075,381.755287151 812.205265535,415.131895479 839.910031924,450.592379391" style="fill:none;stroke:#ff0000;stroke-opacity:1;stroke-width:1.062992" /><polyline points="841.934468724,177.975604433 894.757601764,165.780423258 884.634804318,121.933770343 831.811671278,134.128951518 841.934468724,177.975604433" style="fill:none;stroke:#ff0000;stroke-opacity:1;stroke-width:1.062992" /><polyline points="854.19414777,210.601213035 866.389328944,263.424346075 910.235981859,253.301548629 898.040800685,200.478415589 854.19414777,210.601213035" style="fill:none;stroke:#ff0000;stroke-opacity:1;stroke-width:1.062992" /><polyline points="876.910661722,308.997245168 889.105842897,361.820378208 932.952495812,351.697580762 920.757314637,298.874447722 876.910661722,308.997245168" style="fill:none;stroke:#ff0000;stroke-opacity:1;stroke-width:1.062992" /><polyline points="907.531823479,162.831261798 960.354956519,150.636080624 950.232159073,106.789427708 897.409026034,118.984608883 907.531823479,162.831261798" style="fill:none;stroke:#ff0000;stroke-opacity:1;stroke-width:1.062992" /><polyline points="922.676166114,228.428616553 975.499299154,216.233435379 965.376501708,172.386782463 912.553368668,184.581963638 922.676166114,228.428616553" style="fill:none;stroke:#ff0000;stroke-opacity:1;stroke-width:1.062992" /><polyline points="937.820508749,294.025971308 990.643641789,281.830790134 980.520844343,237.984137219 927.697711303,250.179318393 937.820508749,294.025971308" style="fill:none;stroke:#ff0000;stroke-opacity:1;stroke-width:1.062992" /><polyline points="952.964851384,359.623326064 1005.78798442,347.428144889 995.665186978,303.581491974 942.842053938,315.776673148 952.964851384,359.623326064" style="fill:none;stroke:#ff0000;stroke-opacity:1;stroke-width:1.062992" /><polyline points="971.933572237,142.50818063 1024.75670528,130.312999455 1014.63390783,86.4663465399 961.810774791,98.6615277144 971.933572237,142.50818063" style="fill:none;stroke:#ff0000;stroke-opacity:1;stroke-width:1.062992" /><polyline points="987.077914872,208.105535385 1039.90104791,195.91035421 1029.77825047,152.063701295 976.955117426,164.25888247 987.077914872,208.105535385" style="fill:none;stroke:#ff0000;stroke-opacity:1;stroke-width:1.062992" /><polyline points="1002.22225751,273.70289014 1055.04539055,261.507708966 1044.9225931,217.66105605 992.099460061,229.856237225 1002.22225751,273.70289014" style="fill:none;stroke:#ff0000;stroke-opacity:1;stroke-width:1.062992" /><polyline points="1017.36660014,339.300244895 1070.18973318,327.105063721 1060.06693574,283.258410806 1007.2438027,295.45359198 1017.36660014,339.300244895" style="fill:none;stroke:#ff0000;stroke-opacity:1;stroke-width:1.062992" /><polyline points="1032.51094278,404.897599651 1085.33407582,392.702418476 1075.21127837,348.855765561 1022.38814533,361.050946735 1032.51094278,404.897599651" style="fill:none;stroke:#ff0000;stroke-opacity:1;stroke-width:1.062992" /><polyline points="1036.33532099,122.185099461 1089.15845403,109.989918287 1079.03565659,66.1432653716 1026.21252355,78.3384465461 1036.33532099,122.185099461" style="fill:none;stroke:#ff0000;stroke-opacity:1;stroke-width:1.062992" /><polyline points="1051.47966363,187.782454217 1104.30279667,175.587273042 1094.17999922,131.740620127 1041.35686618,143.935801301 1051.47966363,187.782454217" style="fill:none;stroke:#ff0000;stroke-opacity:1;stroke-width:1.062992" /><polyline points="1066.62400626,253.379808972 1119.4471393,241.184627797 1109.32434186,197.337974882 1056.50120882,209.533156057 1066.62400626,253.379808972" style="fill:none;stroke:#ff0000;stroke-opacity:1;stroke-width:1.062992" /><polyline points="1081.7683489,318.977163727 1134.59148194,306.781982553 1124.46868449,262.935329637 1071.64555145,275.130510812 1081.7683489,318.977163727" style="fill:none;stroke:#ff0000;stroke-opacity:1;stroke-width:1.062992" /><polyline points="1096.91269153,384.574518482 1149.73582457,372.379337308 1139.61302713,328.532684393 1086.78989409,340.727865567 1096.91269153,384.574518482" style="fill:none;stroke:#ff0000;stroke-opacity:1;stroke-width:1.062992" /><polyline points="1103.12828175,112.21949536 1155.95141479,100.024314185 1145.82861734,56.17766127 1093.0054843,68.3728424444 1103.12828175,112.21949536" style="fill:none;stroke:#ff0000;stroke-opacity:1;stroke-width:1.062992" /><polyline points="1118.27262438,177.816850115 1171.09575742,165.621668941 1160.97295998,121.775016025 1108.14982694,133.9701972 1118.27262438,177.816850115" style="fill:none;stroke:#ff0000;stroke-opacity:1;stroke-width:1.062992" /><polyline points="1133.41696702,243.41420487 1186.24010006,231.219023696 1176.11730261,187.37237078 1123.29416957,199.567551955 1133.41696702,243.41420487" style="fill:none;stroke:#ff0000;stroke-opacity:1;stroke-width:1.062992" /><polyline points="1148.56130965,309.011559625 1201.38444269,296.816378451 1191.26164525,252.969725536 1138.43851221,265.16490671 1148.56130965,309.011559625" style="fill:none;stroke:#ff0000;stroke-opacity:1;stroke-width:1.062992" /><polyline points="1163.70565229,374.608914381 1216.52878533,362.413733206 1206.40598788,318.567080291 1153.58285484,330.762261465 1163.70565229,374.608914381" style="fill:none;stroke:#ff0000;stroke-opacity:1;stroke-width:1.062992" /><polyline points="1171.1168485,107.432629791 1223.93998154,95.237448617 1213.81718409,51.3907957016 1160.99405105,63.5859768761 1171.1168485,107.432629791" style="fill:none;stroke:#ff0000;stroke-opacity:1;stroke-width:1.062992" /><polyline points="1186.26119113,173.029984547 1239.08432417,160.834803372 1228.96152673,116.988150457 1176.13839369,129.183331631 1186.26119113,173.029984547" style="fill:none;stroke:#ff0000;stroke-opacity:1;stroke-width:1.062992" /><polyline points="1201.40553377,238.627339302 1254.22866681,226.432158127 1244.10586936,182.585505212 1191.28273632,194.780686387 1201.40553377,238.627339302" style="fill:none;stroke:#ff0000;stroke-opacity:1;stroke-width:1.062992" /><polyline points="1216.5498764,304.224694057 1269.37300944,292.029512883 1259.250212,248.182859967 1206.42707896,260.378041142 1216.5498764,304.224694057" style="fill:none;stroke:#ff0000;stroke-opacity:1;stroke-width:1.062992" /><polyline points="1231.69421904,369.822048812 1284.51735208,357.626867638 1274.39455463,313.780214723 1221.57142159,325.975395897 1231.69421904,369.822048812" style="fill:none;stroke:#ff0000;stroke-opacity:1;stroke-width:1.062992" /><polyline points="1253.11354194,88.5022014977 1305.93667498,76.3070203233 1295.81387754,32.4603674079 1242.9907445,44.6555485824 1253.11354194,88.5022014977" style="fill:none;stroke:#ff0000;stroke-opacity:1;stroke-width:1.062992" /><polyline points="1268.25788458,154.099556253 1321.08101762,141.904375078 1310.95822017,98.0577221632 1258.13508713,110.252903338 1268.25788458,154.099556253" style="fill:none;stroke:#ff0000;stroke-opacity:1;stroke-width:1.062992" /><polyline points="1283.40222721,219.696911008 1336.22536025,207.501729834 1326.10256281,163.655076918 1273.27942977,175.850258093 1283.40222721,219.696911008" style="fill:none;stroke:#ff0000;stroke-opacity:1;stroke-width:1.062992" /><polyline points="1298.54656985,285.294265763 1351.36970289,273.099084589 1341.24690544,229.252431674 1288.4237724,241.447612848 1298.54656985,285.294265763" style="fill:none;stroke:#ff0000;stroke-opacity:1;stroke-width:1.062992" /><polyline points="1297.29157379,354.677706177 1350.11470683,342.482525003 1339.99190939,298.635872088 1287.16877635,310.831053262 1297.29157379,354.677706177" style="fill:none;stroke:#ff0000;stroke-opacity:1;stroke-width:1.062992" /><circle cx="679.550673061" cy="499.069984674" r="5.13779527559" style="fill:none;stroke:#ff0000;stroke-opacity:1;stroke-width:1.062992" /><circle cx="557.581505211" cy="23.4109642722" r="5.13779527559" style="fill:none;stroke:#ff0000;stroke-opacity:1;stroke-width:1.062992" /><circle cx="228.399125438" cy="23.4109642722" r="5.13779527559" style="fill:none;stroke:#ff0000;stroke-opacity:1;stroke-width:1.062992" /><circle cx="43.133494766" cy="314.832834005" r="5.13779527559" style="fill:none;stroke:#ff0000;stroke-opacity:1;stroke-width:1.062992" /><circle cx="447.106191413" cy="655.062085344" r="5.13779527559" style="fill:none;stroke:#ff0000;stroke-opacity:1;stroke-width:1.062992" /><circle cx="82.8337483013" cy="527.013817693" r="5.13779527559" style="fill:none;stroke:#ff0000;stroke-opacity:1;stroke-width:1.062992" /><circle cx="1338.03239343" cy="527.013817693" r="5.13779527559" style="fill:none;stroke:#ff0000;stroke-opacity:1;stroke-width:1.062992" /><circle cx="973.75995032" cy="655.062085344" r="5.13779527559" style="fill:none;stroke:#ff0000;stroke-opacity:1;stroke-width:1.062992" /><circle cx="1377.73264697" cy="314.832834005" r="5.13779527559" style="fill:none;stroke:#ff0000;stroke-opacity:1;stroke-width:1.062992" /><circle cx="1192.46701629" cy="23.4109642722" r="5.13779527559" style="fill:none;stroke:#ff0000;stroke-opacity:1;stroke-width:1.062992" /><circle cx="863.284636521" cy="23.4109642722" r="5.13779527559" style="fill:none;stroke:#ff0000;stroke-opacity:1;stroke-width:1.062992" /><circle cx="741.315468671" cy="499.069984674" r="5.13779527559" style="fill:none;stroke:#ff0000;stroke-opacity:1;stroke-width:1.062992" /><circle cx="639.566929134" cy="179.316476083" r="5.13779527559" style="fill:none;stroke:#ff0000;stroke-opacity:1;stroke-width:1.062992" /><circle cx="781.299212598" cy="179.316476083" r="5.13779527559" style="fill:none;stroke:#ff0000;stroke-opacity:1;stroke-width:1.062992" /><circle cx="639.566929134" cy="37.5841926187" r="5.13779527559" style="fill:none;stroke:#ff0000;stroke-opacity:1;stroke-width:1.062992" /><circle cx="781.299212598" cy="37.5841926187" r="5.13779527559" style="fill:none;stroke:#ff0000;stroke-opacity:1;stroke-width:1.062992" /><polyline points="22.9514016023,291.990877573 87.5141254671,12.338996774" style="fill:none;stroke:#ff0000;stroke-opacity:1;stroke-width:1.062992" /><path d="M104.776587,-1.392185 A 17.7165354331 17.7165354331 0.0 0,0 87.5141254671 12.338996774" style="fill:none;stroke:#ff0000;stroke-opacity:1;stroke-width:1.062992" /><polyline points="104.776587245,-1.39218533407 1316.08955449,-1.39218533407" style="fill:none;stroke:#ff0000;stroke-opacity:1;stroke-width:1.062992" /><path d="M1333.352016,12.338997 A 17.7165354331 17.7165354331 0.0 0,0 1316.08955449 -1.39218533407" style="fill:none;stroke:#ff0000;stroke-opacity:1;stroke-width:1.062992" /><polyline points="1333.35201627,12.338996774 1397.91474013,291.990877573" style="fill:none;stroke:#ff0000;stroke-opacity:1;stroke-width:1.062992" /><path d="M838.513082,593.697122 A 329.527559055 329.527559055 0.0 0,0 1397.91474013 291.990877573" style="fill:none;stroke:#ff0000;stroke-opacity:1;stroke-width:1.062992" /><path d="M838.513082,593.697122 A 177.097669638 177.097669638 0.0 0,0 582.353059718 593.697121952" style="fill:none;stroke:#ff0000;stroke-opacity:1;stroke-width:1.062992" /><path d="M22.951402,291.990878 A 329.527559055 329.527559055 0.0 0,0 582.353059718 593.697121952" style="fill:none;stroke:#ff0000;stroke-opacity:1;stroke-width:1.062992" /></svg>