<?xml version="1.0" encoding="utf-8" ?>
<svg baseProfile="full" height="200mm" version="1.1" width="400mm" xmlns="http://www.w3.org/2000/svg" xmlns:ev="http://www.w3.org/2001/xml-events" xmlns:xlink="http://www.w3.org/1999/xlink"><defs /><circle cx="679.550673061" cy="499.069984674" r="5.13779527559" style="fill:none;stroke:#ff0000;stroke-opacity:1;stroke-width:1.062992" /><circle cx="557.581505211" cy="23.4109642722" r="5.13779527559" style="fill:none;stroke:#ff0000;stroke-opacity:1;stroke-width:1.062992" /><circle cx="228.399125438" cy="23.4109642722" r="5.13779527559" style="fill:none;stroke:#ff0000;stroke-opacity:1;stroke-width:1.062992" /><circle cx="43.133494766" cy="314.832834005" r="5.13779527559" style="fill:none;stroke:#ff0000;stroke-opacity:1;stroke-width:1.062992" /><circle cx="447.106191413" cy="655.062085344" r="5.13779527559" style="fill:none;stroke:#ff0000;stroke-opacity:1;stroke-width:1.062992" /><circle cx="82.8337483013" cy="527.013817693" r="5.13779527559" style="fill:none;stroke:#ff0000;stroke-opacity:1;stroke-width:1.062992" /><circle cx="1345.1190076" cy="527.013817693" r="5.13779527559" style="fill:none;stroke:#ff0000;stroke-opacity:1;stroke-width:1.062992" /><circle cx="980.846564493" cy="655.062085344" r="5.13779527559" style="fill:none;stroke:#ff0000;stroke-opacity:1;stroke-width:1.062992" /><circle cx="1384.81926114" cy="314.832834005" r="5.13779527559" style="fill:none;stroke:#ff0000;stroke-opacity:1;stroke-width:1.062992" /><circle cx="1199.55363047" cy="23.4109642722" r="5.13779527559" style="fill:none;stroke:#ff0000;stroke-opacity:1;stroke-width:1.062992" /><circle cx="870.371250694" cy="23.4109642722" r="5.13779527559" style="fill:none;stroke:#ff0000;stroke-opacity:1;stroke-width:1.062992" /><circle cx="748.402082844" cy="499.069984674" r="5.13779527559" style="fill:none;stroke:#ff0000;stroke-opacity:1;stroke-width:1.062992" /><polyline points="104.776587245,16.324350099 44.1992167049,278.71376912 76.9978940826,286.285940437 61.8535514476,351.883295193 193.048260958,382.171980463 195.439472953,371.814503396 261.036827708,386.958846031 262.232433706,381.780107498 327.829788461,396.924450133 326.634182463,402.103188666 392.231537219,417.247531301 406.180273856,356.828915079 471.777628611,371.973257714 537.374983367,387.117600349 560.091497319,288.721568216 597.952353906,124.728181328 466.757644396,94.439496058 467.953250394,89.2607575247 402.355895638,74.1164148897 403.551501636,68.9376763564 337.954146881,53.7933337214 336.758540883,58.9720722547 271.161186128,43.8277296198 268.769974133,54.1852066864 104.776587245,16.324350099" style="fill:none;stroke:#ff0000;stroke-opacity:1;stroke-width:1.062992" /><polyline points="1323.17616866,16.324350099 1383.7535392,278.71376912 1350.95486182,286.285940437 1366.09920446,351.883295193 1234.90449495,382.171980463 1232.51328295,371.814503396 1166.9159282,386.958846031 1165.7203222,381.780107498 1100.12296744,396.924450133 1101.31857344,402.103188666 1035.72121869,417.247531301 1021.77248205,356.828915079 956.175127294,371.973257714 890.577772539,387.117600349 867.861258586,288.721568216 830.000401999,124.728181328 961.195111509,94.439496058 959.999505512,89.2607575247 1025.59686027,74.1164148897 1024.40125427,68.9376763564 1089.99860902,53.7933337214 1091.19421502,58.9720722547 1156.79156978,43.8277296198 1159.18278177,54.1852066864 1323.17616866,16.324350099" style="fill:none;stroke:#ff0000;stroke-opacity:1;stroke-width:1.062992" /><polyline points="390.251571984,486.62951388 549.404924976,610.973740983 673.74915208,451.820387991 567.646916751,368.924236589 526.19884105,421.975354253 473.147723386,380.527278552 390.251571984,486.62951388" style="fill:none;stroke:#ff0000;stroke-opacity:1;stroke-width:1.062992" /><polyline points="1037.70118392,486.62951388 878.547830929,610.973740983 754.203603826,451.820387991 860.305839154,368.924236589 901.753914855,421.975354253 954.805032519,380.527278552 1037.70118392,486.62951388" style="fill:none;stroke:#ff0000;stroke-opacity:1;stroke-width:1.062992" /><polyline points="22.9514016023,291.990877573 87.5141254671,12.338996774" style="fill:none;stroke:#ff0000;stroke-opacity:1;stroke-width:1.062992" /><path d="M104.776587,-1.392185 A 17.7165354331 17.7165354331 0.0 0,0 87.5141254671 12.338996774" style="fill:none;stroke:#ff0000;stroke-opacity:1;stroke-width:1.062992" /><polyline points="104.776587245,-1.39218533407 1323.17616866,-1.39218533407" style="fill:none;stroke:#ff0000;stroke-opacity:1;stroke-width:1.062992" /><path d="M1340.438630,12.338997 A 17.7165354331 17.7165354331 0.0 0,0 1323.17616866 -1.39218533407" style="fill:none;stroke:#ff0000;stroke-opacity:1;stroke-width:1.062992" /><polyline points="1340.43863044,12.338996774 1405.0013543,291.990877573" style="fill:none;stroke:#ff0000;stroke-opacity:1;stroke-width:1.062992" /><path d="M845.599696,593.697122 A 329.527559055 329.527559055 0.0 0,0 1405.0013543 291.990877573" style="fill:none;stroke:#ff0000;stroke-opacity:1;stroke-width:1.062992" /><path d="M845.599696,593.697122 A 181.997040135 181.997040135 0.0 0,0 582.353059718 593.697121952" style="fill:none;stroke:#ff0000;stroke-opacity:1;stroke-width:1.062992" /><path d="M22.951402,291.990878 A 329.527559055 329.527559055 0.0 0,0 582.353059718 593.697121952" style="fill:none;stroke:#ff0000;stroke-opacity:1;stroke-width:1.062992" /></svg>