<?xml version="1.0" encoding="UTF-8" standalone="no"?>
<svg
   xmlns:dc="http://purl.org/dc/elements/1.1/"
   xmlns:cc="http://creativecommons.org/ns#"
   xmlns:rdf="http://www.w3.org/1999/02/22-rdf-syntax-ns#"
   xmlns:svg="http://www.w3.org/2000/svg"
   xmlns="http://www.w3.org/2000/svg"
   xmlns:sodipodi="http://sodipodi.sourceforge.net/DTD/sodipodi-0.dtd"
   xmlns:inkscape="http://www.inkscape.org/namespaces/inkscape"
   height="2125.9841"
   version="1.1"
   width="1417.3229"
   id="svg2"
   inkscape:version="0.48.4 r9939"
   sodipodi:docname="mcdox_5mm.svg">
  <metadata
     id="metadata56">
    <rdf:RDF>
      <cc:Work
         rdf:about="">
        <dc:format>image/svg+xml</dc:format>
        <dc:type
           rdf:resource="http://purl.org/dc/dcmitype/StillImage" />
        <dc:title></dc:title>
      </cc:Work>
    </rdf:RDF>
  </metadata>
  <sodipodi:namedview
     pagecolor="#ffffff"
     bordercolor="#666666"
     borderopacity="1"
     objecttolerance="10"
     gridtolerance="10"
     guidetolerance="10"
     inkscape:pageopacity="0"
     inkscape:pageshadow="2"
     inkscape:window-width="1855"
     inkscape:window-height="1056"
     id="namedview54"
     showgrid="true"
     inkscape:zoom="0.43187121"
     inkscape:cx="710.63219"
     inkscape:cy="1063.027"
     inkscape:window-x="65"
     inkscape:window-y="24"
     inkscape:window-maximized="1"
     inkscape:current-layer="svg2"
     inkscape:document-units="mm"
     units="mm"
     inkscape:showpageshadow="false">
    <inkscape:grid
       type="xygrid"
       id="grid3052"
       empspacing="5"
       visible="true"
       enabled="true"
       snapvisiblegridlinesonly="true" />
  </sodipodi:namedview>
  <defs
     id="defs4" />
  <g
     id="g3054"
     transform="translate(-3.3442291,1.8539856)">
    <path
       transform="translate(0,1417.3227)"
       style="fill:none;stroke:#ff0000;stroke-width:1.06299198;stroke-opacity:1"
       d="m 684.68845,499.06998 c 0,2.83752 -2.30026,5.13779 -5.13779,5.13779 -2.83753,0 -5.1378,-2.30027 -5.1378,-5.13779 0,-2.83753 2.30027,-5.1378 5.1378,-5.1378 2.83753,0 5.13779,2.30027 5.13779,5.1378 z"
       id="circle6" />
    <path
       transform="translate(0,1417.3227)"
       style="fill:none;stroke:#ff0000;stroke-width:1.06299198;stroke-opacity:1"
       d="m 562.71928,23.410965 c 0,2.837526 -2.30027,5.137795 -5.1378,5.137795 -2.83752,0 -5.13779,-2.300269 -5.13779,-5.137795 0,-2.837526 2.30027,-5.137795 5.13779,-5.137795 2.83753,0 5.1378,2.300269 5.1378,5.137795 z"
       id="circle8" />
    <path
       transform="translate(0,1417.3227)"
       style="fill:none;stroke:#ff0000;stroke-width:1.06299198;stroke-opacity:1"
       d="m 233.53692,23.410965 c 0,2.837526 -2.30027,5.137795 -5.1378,5.137795 -2.83752,0 -5.13779,-2.300269 -5.13779,-5.137795 0,-2.837526 2.30027,-5.137795 5.13779,-5.137795 2.83753,0 5.1378,2.300269 5.1378,5.137795 z"
       id="circle10" />
    <path
       transform="translate(0,1417.3227)"
       style="fill:none;stroke:#ff0000;stroke-width:1.06299198;stroke-opacity:1"
       d="m 48.271291,314.83282 c 0,2.83753 -2.30027,5.1378 -5.137796,5.1378 -2.837526,0 -5.137795,-2.30027 -5.137795,-5.1378 0,-2.83752 2.300269,-5.13779 5.137795,-5.13779 2.837526,0 5.137796,2.30027 5.137796,5.13779 z"
       id="circle12" />
    <path
       transform="translate(0,1417.3227)"
       style="fill:none;stroke:#ff0000;stroke-width:1.06299198;stroke-opacity:1"
       d="m 452.244,655.06207 c 0,2.83753 -2.30027,5.1378 -5.1378,5.1378 -2.83752,0 -5.13779,-2.30027 -5.13779,-5.1378 0,-2.83752 2.30027,-5.13779 5.13779,-5.13779 2.83753,0 5.1378,2.30027 5.1378,5.13779 z"
       id="circle14" />
    <path
       transform="translate(0,1417.3227)"
       style="fill:none;stroke:#ff0000;stroke-width:1.06299198;stroke-opacity:1"
       d="m 87.971543,527.01379 c 0,2.83753 -2.300269,5.1378 -5.137795,5.1378 -2.837526,0 -5.137796,-2.30027 -5.137796,-5.1378 0,-2.83752 2.30027,-5.13779 5.137796,-5.13779 2.837526,0 5.137795,2.30027 5.137795,5.13779 z"
       id="circle16" />
    <path
       transform="translate(0,1417.3227)"
       style="fill:none;stroke:#ff0000;stroke-width:1.06299198;stroke-opacity:1"
       d="m 1350.2568,527.01379 c 0,2.83753 -2.3003,5.1378 -5.1378,5.1378 -2.8375,0 -5.1378,-2.30027 -5.1378,-5.1378 0,-2.83752 2.3003,-5.13779 5.1378,-5.13779 2.8375,0 5.1378,2.30027 5.1378,5.13779 z"
       id="circle18" />
    <path
       transform="translate(0,1417.3227)"
       style="fill:none;stroke:#ff0000;stroke-width:1.06299198;stroke-opacity:1"
       d="m 985.98435,655.06207 c 0,2.83753 -2.30027,5.1378 -5.13779,5.1378 -2.83753,0 -5.1378,-2.30027 -5.1378,-5.1378 0,-2.83752 2.30027,-5.13779 5.1378,-5.13779 2.83752,0 5.13779,2.30027 5.13779,5.13779 z"
       id="circle20" />
    <path
       transform="translate(0,1417.3227)"
       style="fill:none;stroke:#ff0000;stroke-width:1.06299198;stroke-opacity:1"
       d="m 1389.957,314.83282 c 0,2.83753 -2.3003,5.1378 -5.1378,5.1378 -2.8375,0 -5.1378,-2.30027 -5.1378,-5.1378 0,-2.83752 2.3003,-5.13779 5.1378,-5.13779 2.8375,0 5.1378,2.30027 5.1378,5.13779 z"
       id="circle22" />
    <path
       transform="translate(0,1417.3227)"
       style="fill:none;stroke:#ff0000;stroke-width:1.06299198;stroke-opacity:1"
       d="m 1204.6914,23.410965 c 0,2.837526 -2.3003,5.137795 -5.1378,5.137795 -2.8375,0 -5.1378,-2.300269 -5.1378,-5.137795 0,-2.837526 2.3003,-5.137795 5.1378,-5.137795 2.8375,0 5.1378,2.300269 5.1378,5.137795 z"
       id="circle24" />
    <path
       transform="translate(0,1417.3227)"
       style="fill:none;stroke:#ff0000;stroke-width:1.06299198;stroke-opacity:1"
       d="m 875.50907,23.410965 c 0,2.837526 -2.30027,5.137795 -5.13779,5.137795 -2.83753,0 -5.1378,-2.300269 -5.1378,-5.137795 0,-2.837526 2.30027,-5.137795 5.1378,-5.137795 2.83752,0 5.13779,2.300269 5.13779,5.137795 z"
       id="circle26" />
    <path
       transform="translate(0,1417.3227)"
       style="fill:none;stroke:#ff0000;stroke-width:1.06299198;stroke-opacity:1"
       d="m 753.5399,499.06998 c 0,2.83752 -2.30027,5.13779 -5.1378,5.13779 -2.83753,0 -5.1378,-2.30027 -5.1378,-5.13779 0,-2.83753 2.30027,-5.1378 5.1378,-5.1378 2.83753,0 5.1378,2.30027 5.1378,5.1378 z"
       id="circle28" />
    <path
       transform="translate(0,1417.3227)"
       style="fill:none;stroke:#ff0000;stroke-width:1.06299198;stroke-opacity:1"
       d="M 22.951402,291.99088 87.514125,12.338997"
       id="polyline30" />
    <path
       inkscape:connector-curvature="0"
       id="path32"
       style="fill:none;stroke:#ff0000;stroke-width:1.06299198;stroke-opacity:1"
       d="m 104.77659,1415.9305 a 17.716535,17.716535 0 0 0 -17.262465,13.7312" />
    <path
       transform="translate(0,1417.3227)"
       style="fill:none;stroke:#ff0000;stroke-width:1.06299198;stroke-opacity:1"
       d="m 104.77659,-1.3921853 577.31002,0 0,17.7165353 -38.97637,0"
       id="polyline34" />
    <path
       inkscape:connector-curvature="0"
       id="path36"
       style="fill:none;stroke:#ff0000;stroke-width:1.06299198;stroke-opacity:1"
       d="m 643.11024,1433.647 a 21.259843,21.259843 0 0 0 -21.25985,21.2599" />
    <path
       transform="translate(0,1417.3227)"
       style="fill:none;stroke:#ff0000;stroke-width:1.06299198;stroke-opacity:1"
       d="m 621.85039,37.584193 0,85.816277 -21.77325,0 -131.19471,-30.288685 1.1956,-5.178738 -65.59735,-15.144343 1.1956,-5.178738 -69.04984,-15.941414 -1.19561,5.178739 -65.59735,-15.144343 -2.39122,10.357477 -147.59404,-34.074771 -61.374446,265.841916 1.254996,69.38344 328.03598,133.72385 161.94552,126.5257 126.5257,-161.94552 75.48081,0 126.52571,161.94552 161.94551,-126.5257 328.036,-133.72385 1.255,-69.38344 -61.3745,-265.841916 -147.594,34.074771 -2.3912,-10.357477 -65.5974,15.144343 -1.1956,-5.178739 -69.0498,15.941414 1.1956,5.178738 -65.59738,15.144343 1.19561,5.178738 -131.19471,30.288685 -21.77326,0 0,-85.816277"
       id="polyline38" />
    <path
       inkscape:connector-curvature="0"
       id="path40"
       style="fill:none;stroke:#ff0000;stroke-width:1.06299198;stroke-opacity:1"
       d="M 806.10236,1454.9069 A 21.259843,21.259843 0 0 0 784.84252,1433.647" />
    <path
       transform="translate(0,1417.3227)"
       style="fill:none;stroke:#ff0000;stroke-width:1.06299198;stroke-opacity:1"
       d="m 784.84252,16.32435 -38.97638,0 0,-17.7165353 577.31006,0"
       id="polyline42" />
    <path
       inkscape:connector-curvature="0"
       id="path44"
       style="fill:none;stroke:#ff0000;stroke-width:1.06299198;stroke-opacity:1"
       d="m 1340.4386,1429.6617 a 17.716535,17.716535 0 0 0 -17.2624,-13.7312" />
    <path
       transform="translate(0,1417.3227)"
       style="fill:none;stroke:#ff0000;stroke-width:1.06299198;stroke-opacity:1"
       d="m 1340.4386,12.338997 64.5628,279.651883"
       id="polyline46" />
    <path
       inkscape:connector-curvature="0"
       id="path48"
       style="fill:none;stroke:#ff0000;stroke-width:1.06299198;stroke-opacity:1"
       d="m 845.5997,2011.0198 a 329.52756,329.52756 0 0 0 559.4017,-301.7062" />
    <path
       inkscape:connector-curvature="0"
       id="path50"
       style="fill:none;stroke:#ff0000;stroke-width:1.06299198;stroke-opacity:1"
       d="m 845.5997,2011.0198 a 181.99704,181.99704 0 0 0 -263.24664,0" />
    <path
       inkscape:connector-curvature="0"
       id="path52"
       style="fill:none;stroke:#ff0000;stroke-width:1.06299198;stroke-opacity:1"
       d="M 22.951402,1709.3136 A 329.52756,329.52756 0 0 0 582.35306,2011.0198" />
  </g>
  <g
     transform="translate(-3.3442169,715.8302)"
     id="g3299">
    <path
       style="fill:none;stroke:#ff0000;stroke-width:1.06299198;stroke-opacity:1"
       d="m 684.68845,499.06998 c 0,2.83752 -2.30026,5.13779 -5.13779,5.13779 -2.83753,0 -5.1378,-2.30027 -5.1378,-5.13779 0,-2.83753 2.30027,-5.1378 5.1378,-5.1378 2.83753,0 5.13779,2.30027 5.13779,5.1378 z"
       id="circle3247" />
    <path
       style="fill:none;stroke:#ff0000;stroke-width:1.06299198;stroke-opacity:1"
       d="m 562.71928,23.410965 c 0,2.837526 -2.30027,5.137795 -5.1378,5.137795 -2.83752,0 -5.13779,-2.300269 -5.13779,-5.137795 0,-2.837526 2.30027,-5.137795 5.13779,-5.137795 2.83753,0 5.1378,2.300269 5.1378,5.137795 z"
       id="circle3249" />
    <path
       style="fill:none;stroke:#ff0000;stroke-width:1.06299198;stroke-opacity:1"
       d="m 233.53692,23.410965 c 0,2.837526 -2.30027,5.137795 -5.1378,5.137795 -2.83752,0 -5.13779,-2.300269 -5.13779,-5.137795 0,-2.837526 2.30027,-5.137795 5.13779,-5.137795 2.83753,0 5.1378,2.300269 5.1378,5.137795 z"
       id="circle3251" />
    <path
       style="fill:none;stroke:#ff0000;stroke-width:1.06299198;stroke-opacity:1"
       d="m 48.271291,314.83282 c 0,2.83753 -2.30027,5.1378 -5.137796,5.1378 -2.837526,0 -5.137795,-2.30027 -5.137795,-5.1378 0,-2.83752 2.300269,-5.13779 5.137795,-5.13779 2.837526,0 5.137796,2.30027 5.137796,5.13779 z"
       id="circle3253" />
    <path
       style="fill:none;stroke:#ff0000;stroke-width:1.06299198;stroke-opacity:1"
       d="m 452.244,655.06207 c 0,2.83753 -2.30027,5.1378 -5.1378,5.1378 -2.83752,0 -5.13779,-2.30027 -5.13779,-5.1378 0,-2.83752 2.30027,-5.13779 5.13779,-5.13779 2.83753,0 5.1378,2.30027 5.1378,5.13779 z"
       id="circle3255" />
    <path
       style="fill:none;stroke:#ff0000;stroke-width:1.06299198;stroke-opacity:1"
       d="m 87.971543,527.01379 c 0,2.83753 -2.300269,5.1378 -5.137795,5.1378 -2.837526,0 -5.137796,-2.30027 -5.137796,-5.1378 0,-2.83752 2.30027,-5.13779 5.137796,-5.13779 2.837526,0 5.137795,2.30027 5.137795,5.13779 z"
       id="circle3257" />
    <path
       style="fill:none;stroke:#ff0000;stroke-width:1.06299198;stroke-opacity:1"
       d="m 1350.2568,527.01379 c 0,2.83753 -2.3003,5.1378 -5.1378,5.1378 -2.8375,0 -5.1378,-2.30027 -5.1378,-5.1378 0,-2.83752 2.3003,-5.13779 5.1378,-5.13779 2.8375,0 5.1378,2.30027 5.1378,5.13779 z"
       id="circle3259" />
    <path
       style="fill:none;stroke:#ff0000;stroke-width:1.06299198;stroke-opacity:1"
       d="m 985.98435,655.06207 c 0,2.83753 -2.30027,5.1378 -5.13779,5.1378 -2.83753,0 -5.1378,-2.30027 -5.1378,-5.1378 0,-2.83752 2.30027,-5.13779 5.1378,-5.13779 2.83752,0 5.13779,2.30027 5.13779,5.13779 z"
       id="circle3261" />
    <path
       style="fill:none;stroke:#ff0000;stroke-width:1.06299198;stroke-opacity:1"
       d="m 1389.957,314.83282 c 0,2.83753 -2.3003,5.1378 -5.1378,5.1378 -2.8375,0 -5.1378,-2.30027 -5.1378,-5.1378 0,-2.83752 2.3003,-5.13779 5.1378,-5.13779 2.8375,0 5.1378,2.30027 5.1378,5.13779 z"
       id="circle3263" />
    <path
       style="fill:none;stroke:#ff0000;stroke-width:1.06299198;stroke-opacity:1"
       d="m 1204.6914,23.410965 c 0,2.837526 -2.3003,5.137795 -5.1378,5.137795 -2.8375,0 -5.1378,-2.300269 -5.1378,-5.137795 0,-2.837526 2.3003,-5.137795 5.1378,-5.137795 2.8375,0 5.1378,2.300269 5.1378,5.137795 z"
       id="circle3265" />
    <path
       style="fill:none;stroke:#ff0000;stroke-width:1.06299198;stroke-opacity:1"
       d="m 875.50907,23.410965 c 0,2.837526 -2.30027,5.137795 -5.13779,5.137795 -2.83753,0 -5.1378,-2.300269 -5.1378,-5.137795 0,-2.837526 2.30027,-5.137795 5.1378,-5.137795 2.83752,0 5.13779,2.300269 5.13779,5.137795 z"
       id="circle3267" />
    <path
       style="fill:none;stroke:#ff0000;stroke-width:1.06299198;stroke-opacity:1"
       d="m 753.5399,499.06998 c 0,2.83752 -2.30027,5.13779 -5.1378,5.13779 -2.83753,0 -5.1378,-2.30027 -5.1378,-5.13779 0,-2.83753 2.30027,-5.1378 5.1378,-5.1378 2.83753,0 5.1378,2.30027 5.1378,5.1378 z"
       id="circle3269" />
    <path
       style="fill:none;stroke:#ff0000;stroke-width:1.06299198;stroke-opacity:1"
       d="m 784.84252,16.32435 -141.73228,0"
       id="polyline3271" />
    <path
       inkscape:connector-curvature="0"
       id="path3273"
       style="fill:none;stroke:#ff0000;stroke-width:1.06299198;stroke-opacity:1"
       d="M 643.11024,16.32435 A 21.259843,21.259843 0 0 0 621.85039,37.584193" />
    <path
       style="fill:none;stroke:#ff0000;stroke-width:1.06299198;stroke-opacity:1"
       d="m 621.85039,37.584193 0,85.816277 -21.77325,0 -131.19471,-30.288685 1.1956,-5.178738 -65.59735,-15.144343 1.1956,-5.178738 -69.04984,-15.941414 -1.19561,5.178739 -65.59735,-15.144343 -2.39122,10.357477 -147.59404,-34.074771 -61.374446,265.841916 1.254996,69.38344 328.03598,133.72385 161.94552,126.5257 126.5257,-161.94552 75.48081,0 126.52571,161.94552 161.94551,-126.5257 328.036,-133.72385 1.255,-69.38344 -61.3745,-265.841916 -147.594,34.074771 -2.3912,-10.357477 -65.5974,15.144343 -1.1956,-5.178739 -69.0498,15.941414 1.1956,5.178738 -65.59738,15.144343 1.19561,5.178738 -131.19471,30.288685 -21.77326,0 0,-85.816277"
       id="polyline3275" />
    <path
       inkscape:connector-curvature="0"
       id="path3277"
       style="fill:none;stroke:#ff0000;stroke-width:1.06299198;stroke-opacity:1"
       d="M 806.10236,37.584193 A 21.259843,21.259843 0 0 0 784.84252,16.32435" />
    <path
       style="fill:none;stroke:#ff0000;stroke-width:1.06299198;stroke-opacity:1"
       d="M 22.951402,291.99088 87.514125,12.338997"
       id="polyline3279" />
    <path
       inkscape:connector-curvature="0"
       id="path3281"
       style="fill:none;stroke:#ff0000;stroke-width:1.06299198;stroke-opacity:1"
       d="M 104.77659,-1.392185 A 17.716535,17.716535 0 0 0 87.514125,12.338997" />
    <path
       style="fill:none;stroke:#ff0000;stroke-width:1.06299198;stroke-opacity:1"
       d="m 104.77659,-1.3921853 1218.39961,0"
       id="polyline3283" />
    <path
       inkscape:connector-curvature="0"
       id="path3285"
       style="fill:none;stroke:#ff0000;stroke-width:1.06299198;stroke-opacity:1"
       d="M 1340.4386,12.338997 A 17.716535,17.716535 0 0 0 1323.1762,-1.3921853" />
    <path
       style="fill:none;stroke:#ff0000;stroke-width:1.06299198;stroke-opacity:1"
       d="m 1340.4386,12.338997 64.5628,279.651883"
       id="polyline3287" />
    <path
       inkscape:connector-curvature="0"
       id="path3289"
       style="fill:none;stroke:#ff0000;stroke-width:1.06299198;stroke-opacity:1"
       d="M 845.5997,593.69712 A 329.52756,329.52756 0 0 0 1405.0014,291.99088" />
    <path
       inkscape:connector-curvature="0"
       id="path3291"
       style="fill:none;stroke:#ff0000;stroke-width:1.06299198;stroke-opacity:1"
       d="m 845.5997,593.69712 a 181.99704,181.99704 0 0 0 -263.24664,0" />
    <path
       inkscape:connector-curvature="0"
       id="path3293"
       style="fill:none;stroke:#ff0000;stroke-width:1.06299198;stroke-opacity:1"
       d="M 22.951402,291.99088 A 329.52756,329.52756 0 0 0 582.35306,593.69712" />
  </g>
  <g
     transform="translate(-3.3442169,12.483739)"
     id="g3650">
    <path
       style="fill:none;stroke:#ff0000;stroke-width:1.06299198;stroke-opacity:1"
       d="m 684.68845,499.06998 c 0,2.83752 -2.30026,5.13779 -5.13779,5.13779 -2.83753,0 -5.1378,-2.30027 -5.1378,-5.13779 0,-2.83753 2.30027,-5.1378 5.1378,-5.1378 2.83753,0 5.13779,2.30027 5.13779,5.1378 z"
       id="circle3590" />
    <path
       style="fill:none;stroke:#ff0000;stroke-width:1.06299198;stroke-opacity:1"
       d="m 562.71928,23.410965 c 0,2.837526 -2.30027,5.137795 -5.1378,5.137795 -2.83752,0 -5.13779,-2.300269 -5.13779,-5.137795 0,-2.837526 2.30027,-5.137795 5.13779,-5.137795 2.83753,0 5.1378,2.300269 5.1378,5.137795 z"
       id="circle3592" />
    <path
       style="fill:none;stroke:#ff0000;stroke-width:1.06299198;stroke-opacity:1"
       d="m 233.53692,23.410965 c 0,2.837526 -2.30027,5.137795 -5.1378,5.137795 -2.83752,0 -5.13779,-2.300269 -5.13779,-5.137795 0,-2.837526 2.30027,-5.137795 5.13779,-5.137795 2.83753,0 5.1378,2.300269 5.1378,5.137795 z"
       id="circle3594" />
    <path
       style="fill:none;stroke:#ff0000;stroke-width:1.06299198;stroke-opacity:1"
       d="m 48.271291,314.83282 c 0,2.83753 -2.30027,5.1378 -5.137796,5.1378 -2.837526,0 -5.137795,-2.30027 -5.137795,-5.1378 0,-2.83752 2.300269,-5.13779 5.137795,-5.13779 2.837526,0 5.137796,2.30027 5.137796,5.13779 z"
       id="circle3596" />
    <path
       style="fill:none;stroke:#ff0000;stroke-width:1.06299198;stroke-opacity:1"
       d="m 452.244,655.06207 c 0,2.83753 -2.30027,5.1378 -5.1378,5.1378 -2.83752,0 -5.13779,-2.30027 -5.13779,-5.1378 0,-2.83752 2.30027,-5.13779 5.13779,-5.13779 2.83753,0 5.1378,2.30027 5.1378,5.13779 z"
       id="circle3598" />
    <path
       style="fill:none;stroke:#ff0000;stroke-width:1.06299198;stroke-opacity:1"
       d="m 87.971543,527.01379 c 0,2.83753 -2.300269,5.1378 -5.137795,5.1378 -2.837526,0 -5.137796,-2.30027 -5.137796,-5.1378 0,-2.83752 2.30027,-5.13779 5.137796,-5.13779 2.837526,0 5.137795,2.30027 5.137795,5.13779 z"
       id="circle3600" />
    <path
       style="fill:none;stroke:#ff0000;stroke-width:1.06299198;stroke-opacity:1"
       d="m 1350.2568,527.01379 c 0,2.83753 -2.3003,5.1378 -5.1378,5.1378 -2.8375,0 -5.1378,-2.30027 -5.1378,-5.1378 0,-2.83752 2.3003,-5.13779 5.1378,-5.13779 2.8375,0 5.1378,2.30027 5.1378,5.13779 z"
       id="circle3602" />
    <path
       style="fill:none;stroke:#ff0000;stroke-width:1.06299198;stroke-opacity:1"
       d="m 985.98435,655.06207 c 0,2.83753 -2.30027,5.1378 -5.13779,5.1378 -2.83753,0 -5.1378,-2.30027 -5.1378,-5.1378 0,-2.83752 2.30027,-5.13779 5.1378,-5.13779 2.83752,0 5.13779,2.30027 5.13779,5.13779 z"
       id="circle3604" />
    <path
       style="fill:none;stroke:#ff0000;stroke-width:1.06299198;stroke-opacity:1"
       d="m 1389.957,314.83282 c 0,2.83753 -2.3003,5.1378 -5.1378,5.1378 -2.8375,0 -5.1378,-2.30027 -5.1378,-5.1378 0,-2.83752 2.3003,-5.13779 5.1378,-5.13779 2.8375,0 5.1378,2.30027 5.1378,5.13779 z"
       id="circle3606" />
    <path
       style="fill:none;stroke:#ff0000;stroke-width:1.06299198;stroke-opacity:1"
       d="m 1204.6914,23.410965 c 0,2.837526 -2.3003,5.137795 -5.1378,5.137795 -2.8375,0 -5.1378,-2.300269 -5.1378,-5.137795 0,-2.837526 2.3003,-5.137795 5.1378,-5.137795 2.8375,0 5.1378,2.300269 5.1378,5.137795 z"
       id="circle3608" />
    <path
       style="fill:none;stroke:#ff0000;stroke-width:1.06299198;stroke-opacity:1"
       d="m 875.50907,23.410965 c 0,2.837526 -2.30027,5.137795 -5.13779,5.137795 -2.83753,0 -5.1378,-2.300269 -5.1378,-5.137795 0,-2.837526 2.30027,-5.137795 5.1378,-5.137795 2.83752,0 5.13779,2.300269 5.13779,5.137795 z"
       id="circle3610" />
    <path
       style="fill:none;stroke:#ff0000;stroke-width:1.06299198;stroke-opacity:1"
       d="m 753.5399,499.06998 c 0,2.83752 -2.30027,5.13779 -5.1378,5.13779 -2.83753,0 -5.1378,-2.30027 -5.1378,-5.13779 0,-2.83753 2.30027,-5.1378 5.1378,-5.1378 2.83753,0 5.1378,2.30027 5.1378,5.1378 z"
       id="circle3612" />
    <path
       style="fill:none;stroke:#ff0000;stroke-width:1.06299198;stroke-opacity:1"
       d="m 653.74015,179.31648 c 0,5.87075 -4.75918,10.62992 -10.62992,10.62992 -5.87074,0 -10.62992,-4.75917 -10.62992,-10.62992 0,-5.87074 4.75918,-10.62992 10.62992,-10.62992 5.87074,0 10.62992,4.75918 10.62992,10.62992 z"
       id="circle3614" />
    <path
       style="fill:none;stroke:#ff0000;stroke-width:1.06299198;stroke-opacity:1"
       d="m 795.47245,179.31648 c 0,5.87075 -4.75918,10.62992 -10.62992,10.62992 -5.87074,0 -10.62992,-4.75917 -10.62992,-10.62992 0,-5.87074 4.75918,-10.62992 10.62992,-10.62992 5.87074,0 10.62992,4.75918 10.62992,10.62992 z"
       id="circle3616" />
    <path
       style="fill:none;stroke:#ff0000;stroke-width:1.06299198;stroke-opacity:1"
       d="m 653.74015,37.584194 c 0,5.870743 -4.75918,10.629921 -10.62992,10.629921 -5.87074,0 -10.62992,-4.759178 -10.62992,-10.629921 0,-5.870743 4.75918,-10.629921 10.62992,-10.629921 5.87074,0 10.62992,4.759178 10.62992,10.629921 z"
       id="circle3618" />
    <path
       style="fill:none;stroke:#ff0000;stroke-width:1.06299198;stroke-opacity:1"
       d="m 795.47245,37.584194 c 0,5.870743 -4.75918,10.629921 -10.62992,10.629921 -5.87074,0 -10.62992,-4.759178 -10.62992,-10.629921 0,-5.870743 4.75918,-10.629921 10.62992,-10.629921 5.87074,0 10.62992,4.759178 10.62992,10.629921 z"
       id="circle3620" />
    <path
       style="fill:none;stroke:#ff0000;stroke-width:1.06299198;stroke-opacity:1"
       d="m 104.77659,16.32435 -60.577373,262.38942 32.798677,7.57217 -15.144343,65.59736 131.194709,30.28868 2.39121,-10.35748 65.59736,15.14435 1.1956,-5.17874 65.59736,15.14434 -1.19561,5.17874 65.59736,15.14434 13.94873,-60.41861 65.59736,15.14434 65.59735,15.14434 22.71652,-98.39603 37.86085,-163.99339 -131.19471,-30.288684 1.19561,-5.178738 -65.59735,-15.144343 1.1956,-5.178739 -65.59735,-15.144342 -1.19561,5.178738 L 271.16119,43.82773 268.76997,54.185207 104.77659,16.32435"
       id="polyline3622" />
    <path
       style="fill:none;stroke:#ff0000;stroke-width:1.06299198;stroke-opacity:1"
       d="m 1323.1762,16.32435 60.5773,262.38942 -32.7986,7.57217 15.1443,65.59736 -131.1947,30.28868 -2.3912,-10.35748 -65.5974,15.14435 -1.1956,-5.17874 -65.5973,15.14434 1.1956,5.17874 -65.5974,15.14434 -13.9487,-60.41861 -65.59737,15.14434 -65.59736,15.14434 -22.71651,-98.39603 -37.86086,-163.99339 131.19471,-30.288684 -1.1956,-5.178738 65.59739,-15.144343 -1.1956,-5.178739 65.5973,-15.144342 1.1956,5.178738 65.5974,-15.144342 2.3912,10.357477 163.9934,-37.860857"
       id="polyline3624" />
    <path
       style="fill:none;stroke:#ff0000;stroke-width:1.06299198;stroke-opacity:1"
       d="M 390.25157,486.62951 549.40492,610.97374 673.74915,451.82039 567.64692,368.92424 526.19884,421.97535 473.14772,380.52728 390.25157,486.62951"
       id="polyline3626" />
    <path
       style="fill:none;stroke:#ff0000;stroke-width:1.06299198;stroke-opacity:1"
       d="M 1037.7012,486.62951 878.54783,610.97374 754.2036,451.82039 l 106.10224,-82.89615 41.44807,53.05111 53.05112,-41.44807 82.89617,106.10223"
       id="polyline3628" />
    <path
       style="fill:none;stroke:#ff0000;stroke-width:1.06299198;stroke-opacity:1"
       d="M 22.951402,291.99088 87.514125,12.338997"
       id="polyline3630" />
    <path
       inkscape:connector-curvature="0"
       id="path3632"
       style="fill:none;stroke:#ff0000;stroke-width:1.06299198;stroke-opacity:1"
       d="M 104.77659,-1.392185 A 17.716535,17.716535 0 0 0 87.514125,12.338997" />
    <path
       style="fill:none;stroke:#ff0000;stroke-width:1.06299198;stroke-opacity:1"
       d="m 104.77659,-1.3921853 1218.39961,0"
       id="polyline3634" />
    <path
       inkscape:connector-curvature="0"
       id="path3636"
       style="fill:none;stroke:#ff0000;stroke-width:1.06299198;stroke-opacity:1"
       d="M 1340.4386,12.338997 A 17.716535,17.716535 0 0 0 1323.1762,-1.3921853" />
    <path
       style="fill:none;stroke:#ff0000;stroke-width:1.06299198;stroke-opacity:1"
       d="m 1340.4386,12.338997 64.5628,279.651883"
       id="polyline3638" />
    <path
       inkscape:connector-curvature="0"
       id="path3640"
       style="fill:none;stroke:#ff0000;stroke-width:1.06299198;stroke-opacity:1"
       d="M 845.5997,593.69712 A 329.52756,329.52756 0 0 0 1405.0014,291.99088" />
    <path
       inkscape:connector-curvature="0"
       id="path3642"
       style="fill:none;stroke:#ff0000;stroke-width:1.06299198;stroke-opacity:1"
       d="m 845.5997,593.69712 a 181.99704,181.99704 0 0 0 -263.24664,0" />
    <path
       inkscape:connector-curvature="0"
       id="path3644"
       style="fill:none;stroke:#ff0000;stroke-width:1.06299198;stroke-opacity:1"
       d="M 22.951402,291.99088 A 329.52756,329.52756 0 0 0 582.35306,593.69712" />
  </g>
</svg>
