<?xml version="1.0" encoding="utf-8" ?>
<svg baseProfile="full" height="200mm" version="1.1" width="400mm" xmlns="http://www.w3.org/2000/svg" xmlns:ev="http://www.w3.org/2001/xml-events" xmlns:xlink="http://www.w3.org/1999/xlink"><defs /><circle cx="679.550673061" cy="499.069984674" r="5.84645669291" style="fill:none;stroke:#ff0000;stroke-opacity:1;stroke-width:1.062992" /><circle cx="557.581505211" cy="23.4109642722" r="5.84645669291" style="fill:none;stroke:#ff0000;stroke-opacity:1;stroke-width:1.062992" /><circle cx="228.399125438" cy="23.4109642722" r="5.84645669291" style="fill:none;stroke:#ff0000;stroke-opacity:1;stroke-width:1.062992" /><circle cx="43.133494766" cy="314.832834005" r="5.84645669291" style="fill:none;stroke:#ff0000;stroke-opacity:1;stroke-width:1.062992" /><circle cx="447.106191413" cy="655.062085344" r="5.84645669291" style="fill:none;stroke:#ff0000;stroke-opacity:1;stroke-width:1.062992" /><circle cx="82.8337483013" cy="527.013817693" r="5.84645669291" style="fill:none;stroke:#ff0000;stroke-opacity:1;stroke-width:1.062992" /><circle cx="1338.03239343" cy="527.013817693" r="5.84645669291" style="fill:none;stroke:#ff0000;stroke-opacity:1;stroke-width:1.062992" /><circle cx="973.75995032" cy="655.062085344" r="5.84645669291" style="fill:none;stroke:#ff0000;stroke-opacity:1;stroke-width:1.062992" /><circle cx="1377.73264697" cy="314.832834005" r="5.84645669291" style="fill:none;stroke:#ff0000;stroke-opacity:1;stroke-width:1.062992" /><circle cx="1192.46701629" cy="23.4109642722" r="5.84645669291" style="fill:none;stroke:#ff0000;stroke-opacity:1;stroke-width:1.062992" /><circle cx="863.284636521" cy="23.4109642722" r="5.84645669291" style="fill:none;stroke:#ff0000;stroke-opacity:1;stroke-width:1.062992" /><circle cx="741.315468671" cy="499.069984674" r="5.84645669291" style="fill:none;stroke:#ff0000;stroke-opacity:1;stroke-width:1.062992" /><polyline points="104.776587245,16.324350099 44.1992167049,278.71376912 76.9978940826,286.285940437 61.8535514476,351.883295193 193.048260958,382.171980463 195.439472953,371.814503396 261.036827708,386.958846031 262.232433706,381.780107498 327.829788461,396.924450133 326.634182463,402.103188666 392.231537219,417.247531301 406.180273856,356.828915079 471.777628611,371.973257714 537.374983367,387.117600349 560.091497319,288.721568216 597.952353906,124.728181328 466.757644396,94.439496058 467.953250394,89.2607575247 402.355895638,74.1164148897 403.551501636,68.9376763564 337.954146881,53.7933337214 336.758540883,58.9720722547 271.161186128,43.8277296198 268.769974133,54.1852066864 104.776587245,16.324350099" style="fill:none;stroke:#ff0000;stroke-opacity:1;stroke-width:1.062992" /><polyline points="1316.08955449,16.324350099 1376.66692503,278.71376912 1343.86824765,286.285940437 1359.01259028,351.883295193 1227.81788077,382.171980463 1225.42666878,371.814503396 1159.82931402,386.958846031 1158.63370803,381.780107498 1093.03635327,396.924450133 1094.23195927,402.103188666 1028.63460451,417.247531301 1014.68586788,356.828915079 949.088513121,371.973257714 883.491158366,387.117600349 860.774644413,288.721568216 822.913787826,124.728181328 954.108497336,94.439496058 952.912891339,89.2607575247 1018.51024609,74.1164148897 1017.3146401,68.9376763564 1082.91199485,53.7933337214 1084.10760085,58.9720722547 1149.7049556,43.8277296198 1152.0961676,54.1852066864 1316.08955449,16.324350099" style="fill:none;stroke:#ff0000;stroke-opacity:1;stroke-width:1.062992" /><polyline points="390.251571984,486.62951388 549.404924976,610.973740983 673.74915208,451.820387991 567.646916751,368.924236589 526.19884105,421.975354253 473.147723386,380.527278552 390.251571984,486.62951388" style="fill:none;stroke:#ff0000;stroke-opacity:1;stroke-width:1.062992" /><polyline points="1030.61456975,486.62951388 871.461216756,610.973740983 747.116989653,451.820387991 853.219224981,368.924236589 894.667300682,421.975354253 947.718418346,380.527278552 1030.61456975,486.62951388" style="fill:none;stroke:#ff0000;stroke-opacity:1;stroke-width:1.062992" /><polyline points="22.9514016023,291.990877573 87.5141254671,12.338996774" style="fill:none;stroke:#ff0000;stroke-opacity:1;stroke-width:1.062992" /><path d="M104.776587,-1.392185 A 17.7165354331 17.7165354331 0.0 0,0 87.5141254671 12.338996774" style="fill:none;stroke:#ff0000;stroke-opacity:1;stroke-width:1.062992" /><polyline points="104.776587245,-1.39218533407 1316.08955449,-1.39218533407" style="fill:none;stroke:#ff0000;stroke-opacity:1;stroke-width:1.062992" /><path d="M1333.352016,12.338997 A 17.7165354331 17.7165354331 0.0 0,0 1316.08955449 -1.39218533407" style="fill:none;stroke:#ff0000;stroke-opacity:1;stroke-width:1.062992" /><polyline points="1333.35201627,12.338996774 1397.91474013,291.990877573" style="fill:none;stroke:#ff0000;stroke-opacity:1;stroke-width:1.062992" /><path d="M838.513082,593.697122 A 329.527559055 329.527559055 0.0 0,0 1397.91474013 291.990877573" style="fill:none;stroke:#ff0000;stroke-opacity:1;stroke-width:1.062992" /><path d="M838.513082,593.697122 A 177.097669638 177.097669638 0.0 0,0 582.353059718 593.697121952" style="fill:none;stroke:#ff0000;stroke-opacity:1;stroke-width:1.062992" /><path d="M22.951402,291.990878 A 329.527559055 329.527559055 0.0 0,0 582.353059718 593.697121952" style="fill:none;stroke:#ff0000;stroke-opacity:1;stroke-width:1.062992" /></svg>