<?xml version="1.0" encoding="utf-8" ?>
<svg baseProfile="full" height="200mm" version="1.1" width="400mm" xmlns="http://www.w3.org/2000/svg" xmlns:ev="http://www.w3.org/2001/xml-events" xmlns:xlink="http://www.w3.org/1999/xlink"><defs /><circle cx="679.550673061" cy="499.069984674" r="5.13779527559" style="fill:none;stroke:#ff0000;stroke-opacity:1;stroke-width:1.062992" /><circle cx="557.581505211" cy="23.4109642722" r="5.13779527559" style="fill:none;stroke:#ff0000;stroke-opacity:1;stroke-width:1.062992" /><circle cx="228.399125438" cy="23.4109642722" r="5.13779527559" style="fill:none;stroke:#ff0000;stroke-opacity:1;stroke-width:1.062992" /><circle cx="43.133494766" cy="314.832834005" r="5.13779527559" style="fill:none;stroke:#ff0000;stroke-opacity:1;stroke-width:1.062992" /><circle cx="447.106191413" cy="655.062085344" r="5.13779527559" style="fill:none;stroke:#ff0000;stroke-opacity:1;stroke-width:1.062992" /><circle cx="82.8337483013" cy="527.013817693" r="5.13779527559" style="fill:none;stroke:#ff0000;stroke-opacity:1;stroke-width:1.062992" /><circle cx="1345.1190076" cy="527.013817693" r="5.13779527559" style="fill:none;stroke:#ff0000;stroke-opacity:1;stroke-width:1.062992" /><circle cx="980.846564493" cy="655.062085344" r="5.13779527559" style="fill:none;stroke:#ff0000;stroke-opacity:1;stroke-width:1.062992" /><circle cx="1384.81926114" cy="314.832834005" r="5.13779527559" style="fill:none;stroke:#ff0000;stroke-opacity:1;stroke-width:1.062992" /><circle cx="1199.55363047" cy="23.4109642722" r="5.13779527559" style="fill:none;stroke:#ff0000;stroke-opacity:1;stroke-width:1.062992" /><circle cx="870.371250694" cy="23.4109642722" r="5.13779527559" style="fill:none;stroke:#ff0000;stroke-opacity:1;stroke-width:1.062992" /><circle cx="748.402082844" cy="499.069984674" r="5.13779527559" style="fill:none;stroke:#ff0000;stroke-opacity:1;stroke-width:1.062992" /><polyline points="22.9514016023,291.990877573 87.5141254671,12.338996774" style="fill:none;stroke:#ff0000;stroke-opacity:1;stroke-width:1.062992" /><path d="M104.776587,-1.392185 A 17.7165354331 17.7165354331 0.0 0,0 87.5141254671 12.338996774" style="fill:none;stroke:#ff0000;stroke-opacity:1;stroke-width:1.062992" /><polyline points="104.776587245,-1.39218533407 682.086614173,-1.39218533407 682.086614173,122.623562697 745.866141732,122.623562697 745.866141732,-1.39218533407 1323.17616866,-1.39218533407" style="fill:none;stroke:#ff0000;stroke-opacity:1;stroke-width:1.062992" /><path d="M1340.438630,12.338997 A 17.7165354331 17.7165354331 0.0 0,0 1323.17616866 -1.39218533407" style="fill:none;stroke:#ff0000;stroke-opacity:1;stroke-width:1.062992" /><polyline points="1340.43863044,12.338996774 1405.0013543,291.990877573" style="fill:none;stroke:#ff0000;stroke-opacity:1;stroke-width:1.062992" /><path d="M845.599696,593.697122 A 329.527559055 329.527559055 0.0 0,0 1405.0013543 291.990877573" style="fill:none;stroke:#ff0000;stroke-opacity:1;stroke-width:1.062992" /><path d="M845.599696,593.697122 A 181.997040135 181.997040135 0.0 0,0 582.353059718 593.697121952" style="fill:none;stroke:#ff0000;stroke-opacity:1;stroke-width:1.062992" /><path d="M22.951402,291.990878 A 329.527559055 329.527559055 0.0 0,0 582.353059718 593.697121952" style="fill:none;stroke:#ff0000;stroke-opacity:1;stroke-width:1.062992" /></svg>