  0
SECTION
  2
HEADER
  9
$ACADVER
  1
AC1014
  9
$HANDSEED
  5
FFFF
  9
$MEASUREMENT
 70
     1
  0
ENDSEC
  0
SECTION
  2
TABLES
  0
TABLE
  2
VPORT
  5
8
330
0
100
AcDbSymbolTable
 70
     4
  0
VPORT
  5
2E
330
8
100
AcDbSymbolTableRecord
100
AcDbViewportTableRecord
  2
*ACTIVE
 70
     0
 10
0.0
 20
0.0
 11
1.0
 21
1.0
 12
210.0
 22
148.5
 13
0.0
 23
0.0
 14
10.0
 24
10.0
 15
10.0
 25
10.0
 16
0.0
 26
0.0
 36
1.0
 17
0.0
 27
0.0
 37
0.0
 40
341.0
 41
1.24
 42
50.0
 43
0.0
 44
0.0
 50
0.0
 51
0.0
 71
     0
 72
   100
 73
     1
 74
     3
 75
     0
 76
     0
 77
     0
 78
     0
  0
ENDTAB
  0
TABLE
  2
LTYPE
  5
5
330
0
100
AcDbSymbolTable
 70
     1
  0
LTYPE
  5
14
330
5
100
AcDbSymbolTableRecord
100
AcDbLinetypeTableRecord
  2
BYBLOCK
 70
     0
  3

 72
    65
 73
     0
 40
0.0
  0
LTYPE
  5
15
330
5
100
AcDbSymbolTableRecord
100
AcDbLinetypeTableRecord
  2
BYLAYER
 70
     0
  3

 72
    65
 73
     0
 40
0.0
  0
LTYPE
  5
16
330
5
100
AcDbSymbolTableRecord
100
AcDbLinetypeTableRecord
  2
CONTINUOUS
 70
     0
  3
Solid line
 72
    65
 73
     0
 40
0.0
  0
ENDTAB
  0
TABLE
  2
LAYER
  5
2
100
AcDbSymbolTable
 70
1
  0
LAYER
  5
50
100
AcDbSymbolTableRecord
100
AcDbLayerTableRecord
  2
0
 70
0
  6
CONTINUOUS
  0
ENDTAB
  0
TABLE
  2
STYLE
  5
3
330
0
100
AcDbSymbolTable
 70
     1
  0
STYLE
  5
11
330
3
100
AcDbSymbolTableRecord
100
AcDbTextStyleTableRecord
  2
STANDARD
 70
     0
 40
0.0
 41
1.0
 50
0.0
 71
     0
 42
2.5
  3
txt
  4

  0
ENDTAB
  0
TABLE
  2
VIEW
  5
6
330
0
100
AcDbSymbolTable
 70
     0
  0
ENDTAB
  0
TABLE
  2
UCS
  5
7
330
0
100
AcDbSymbolTable
 70
     0
  0
ENDTAB
  0
TABLE
  2
APPID
  5
9
330
0
100
AcDbSymbolTable
 70
     2
  0
APPID
  5
12
330
9
100
AcDbSymbolTableRecord
100
AcDbRegAppTableRecord
  2
ACAD
 70
     0
  0
ENDTAB
  0
TABLE
  2
DIMSTYLE
  5
A
330
0
100
AcDbSymbolTable
 70
     1
  0
DIMSTYLE
105
27
330
A
100
AcDbSymbolTableRecord
100
AcDbDimStyleTableRecord
  2
ISO-25
 70
     0
  3

  4

  5

  6

  7

 40
1.0
 41
2.5
 42
0.625
 43
3.75
 44
1.25
 45
0.0
 46
0.0
 47
0.0
 48
0.0
140
2.5
141
2.5
142
0.0
143
0.03937007874016
144
1.0
145
0.0
146
1.0
147
0.625
 71
     0
 72
     0
 73
     0
 74
     0
 75
     0
 76
     0
 77
     1
 78
     8
170
     0
171
     3
172
     1
173
     0
174
     0
175
     0
176
     0
177
     0
178
     0
270
     2
271
     2
272
     2
273
     2
274
     3
340
11
275
     0
280
     0
281
     0
282
     0
283
     0
284
     8
285
     0
286
     0
287
     3
288
     0
  0
ENDTAB
  0
TABLE
  2
BLOCK_RECORD
  5
1
330
0
100
AcDbSymbolTable
 70
     1
  0
BLOCK_RECORD
  5
1F
330
1
100
AcDbSymbolTableRecord
100
AcDbBlockTableRecord
  2
*MODEL_SPACE
  0
BLOCK_RECORD
  5
1B
330
1
100
AcDbSymbolTableRecord
100
AcDbBlockTableRecord
  2
*PAPER_SPACE
  0
ENDTAB
  0
ENDSEC
  0
SECTION
  2
BLOCKS
  0
BLOCK
  5
20
330
1F
100
AcDbEntity
  8
0
100
AcDbBlockBegin
  2
*MODEL_SPACE
 70
     0
 10
0.0
 20
0.0
 30
0.0
  3
*MODEL_SPACE
  1

  0
ENDBLK
  5
21
330
1F
100
AcDbEntity
  8
0
100
AcDbBlockEnd
  0
BLOCK
  5
1C
330
1B
100
AcDbEntity
 67
     1
  8
0
100
AcDbBlockBegin
  2
*PAPER_SPACE
  1

  0
ENDBLK
  5
1D
330
1B
100
AcDbEntity
 67
     1
  8
0
100
AcDbBlockEnd
  0
ENDSEC
  0
SECTION
  2
ENTITIES
  0
SPLINE
  5
100
100
AcDbEntity
  8
0
 62
1
100
AcDbSpline
 70
8
 71
3
 72
8
 73
4
 74
0
 40
0
 40
0
 40
0
 40
0
 40
1
 40
1
 40
1
 40
1
 10
192.290480
 20
58.628120
 30
0.0
 10
192.290480
 20
57.827309
 30
0.0
 10
191.641296
 20
57.178122
 30
0.0
 10
190.840482
 20
57.178122
 30
0.0
  0
SPLINE
  5
101
100
AcDbEntity
  8
0
 62
1
100
AcDbSpline
 70
8
 71
3
 72
8
 73
4
 74
0
 40
0
 40
0
 40
0
 40
0
 40
1
 40
1
 40
1
 40
1
 10
190.840482
 20
57.178122
 30
0.0
 10
190.039668
 20
57.178122
 30
0.0
 10
189.390480
 20
57.827309
 30
0.0
 10
189.390480
 20
58.628120
 30
0.0
  0
SPLINE
  5
102
100
AcDbEntity
  8
0
 62
1
100
AcDbSpline
 70
8
 71
3
 72
8
 73
4
 74
0
 40
0
 40
0
 40
0
 40
0
 40
1
 40
1
 40
1
 40
1
 10
189.390480
 20
58.628120
 30
0.0
 10
189.390480
 20
59.428934
 30
0.0
 10
190.039668
 20
60.078122
 30
0.0
 10
190.840482
 20
60.078122
 30
0.0
  0
SPLINE
  5
103
100
AcDbEntity
  8
0
 62
1
100
AcDbSpline
 70
8
 71
3
 72
8
 73
4
 74
0
 40
0
 40
0
 40
0
 40
0
 40
1
 40
1
 40
1
 40
1
 10
190.840482
 20
60.078122
 30
0.0
 10
191.641296
 20
60.078122
 30
0.0
 10
192.290480
 20
59.428934
 30
0.0
 10
192.290480
 20
58.628120
 30
0.0
  0
SPLINE
  5
104
100
AcDbEntity
  8
0
 62
1
100
AcDbSpline
 70
8
 71
3
 72
8
 73
4
 74
0
 40
0
 40
0
 40
0
 40
0
 40
1
 40
1
 40
1
 40
1
 10
157.868070
 20
192.869665
 30
0.0
 10
157.868070
 20
192.068852
 30
0.0
 10
157.218883
 20
191.419665
 30
0.0
 10
156.418069
 20
191.419665
 30
0.0
  0
SPLINE
  5
105
100
AcDbEntity
  8
0
 62
1
100
AcDbSpline
 70
8
 71
3
 72
8
 73
4
 74
0
 40
0
 40
0
 40
0
 40
0
 40
1
 40
1
 40
1
 40
1
 10
156.418069
 20
191.419665
 30
0.0
 10
155.617257
 20
191.419665
 30
0.0
 10
154.968070
 20
192.068852
 30
0.0
 10
154.968070
 20
192.869665
 30
0.0
  0
SPLINE
  5
106
100
AcDbEntity
  8
0
 62
1
100
AcDbSpline
 70
8
 71
3
 72
8
 73
4
 74
0
 40
0
 40
0
 40
0
 40
0
 40
1
 40
1
 40
1
 40
1
 10
154.968070
 20
192.869665
 30
0.0
 10
154.968070
 20
193.670478
 30
0.0
 10
155.617257
 20
194.319665
 30
0.0
 10
156.418069
 20
194.319665
 30
0.0
  0
SPLINE
  5
107
100
AcDbEntity
  8
0
 62
1
100
AcDbSpline
 70
8
 71
3
 72
8
 73
4
 74
0
 40
0
 40
0
 40
0
 40
0
 40
1
 40
1
 40
1
 40
1
 10
156.418069
 20
194.319665
 30
0.0
 10
157.218883
 20
194.319665
 30
0.0
 10
157.868070
 20
193.670478
 30
0.0
 10
157.868070
 20
192.869665
 30
0.0
  0
LWPOLYLINE
  5
108
100
AcDbEntity
  8
0
 62
1
100
AcDbPolyline
 90
2
 70
0
 10
192.290480
 20
58.628120
 30
0.0
 10
192.290480
 20
58.628120
 30
0.0
  0
SPLINE
  5
109
100
AcDbEntity
  8
0
 62
1
100
AcDbSpline
 70
8
 71
3
 72
8
 73
4
 74
0
 40
0
 40
0
 40
0
 40
0
 40
1
 40
1
 40
1
 40
1
 10
64.965493
 20
192.869665
 30
0.0
 10
64.965493
 20
192.068852
 30
0.0
 10
64.316305
 20
191.419665
 30
0.0
 10
63.515491
 20
191.419665
 30
0.0
  0
SPLINE
  5
10a
100
AcDbEntity
  8
0
 62
1
100
AcDbSpline
 70
8
 71
3
 72
8
 73
4
 74
0
 40
0
 40
0
 40
0
 40
0
 40
1
 40
1
 40
1
 40
1
 10
63.515491
 20
191.419665
 30
0.0
 10
62.714680
 20
191.419665
 30
0.0
 10
62.065493
 20
192.068852
 30
0.0
 10
62.065493
 20
192.869665
 30
0.0
  0
SPLINE
  5
10b
100
AcDbEntity
  8
0
 62
1
100
AcDbSpline
 70
8
 71
3
 72
8
 73
4
 74
0
 40
0
 40
0
 40
0
 40
0
 40
1
 40
1
 40
1
 40
1
 10
62.065493
 20
192.869665
 30
0.0
 10
62.065493
 20
193.670478
 30
0.0
 10
62.714680
 20
194.319665
 30
0.0
 10
63.515491
 20
194.319665
 30
0.0
  0
SPLINE
  5
10c
100
AcDbEntity
  8
0
 62
1
100
AcDbSpline
 70
8
 71
3
 72
8
 73
4
 74
0
 40
0
 40
0
 40
0
 40
0
 40
1
 40
1
 40
1
 40
1
 10
63.515491
 20
194.319665
 30
0.0
 10
64.316305
 20
194.319665
 30
0.0
 10
64.965493
 20
193.670478
 30
0.0
 10
64.965493
 20
192.869665
 30
0.0
  0
LWPOLYLINE
  5
10d
100
AcDbEntity
  8
0
 62
1
100
AcDbPolyline
 90
2
 70
0
 10
157.868070
 20
192.869665
 30
0.0
 10
157.868070
 20
192.869665
 30
0.0
  0
SPLINE
  5
10e
100
AcDbEntity
  8
0
 62
1
100
AcDbSpline
 70
8
 71
3
 72
8
 73
4
 74
0
 40
0
 40
0
 40
0
 40
0
 40
1
 40
1
 40
1
 40
1
 10
12.679415
 20
110.623941
 30
0.0
 10
12.679415
 20
109.823127
 30
0.0
 10
12.030228
 20
109.173940
 30
0.0
 10
11.229415
 20
109.173940
 30
0.0
  0
SPLINE
  5
10f
100
AcDbEntity
  8
0
 62
1
100
AcDbSpline
 70
8
 71
3
 72
8
 73
4
 74
0
 40
0
 40
0
 40
0
 40
0
 40
1
 40
1
 40
1
 40
1
 10
11.229415
 20
109.173940
 30
0.0
 10
10.428602
 20
109.173940
 30
0.0
 10
9.779415
 20
109.823127
 30
0.0
 10
9.779415
 20
110.623941
 30
0.0
  0
SPLINE
  5
110
100
AcDbEntity
  8
0
 62
1
100
AcDbSpline
 70
8
 71
3
 72
8
 73
4
 74
0
 40
0
 40
0
 40
0
 40
0
 40
1
 40
1
 40
1
 40
1
 10
9.779415
 20
110.623941
 30
0.0
 10
9.779415
 20
111.424752
 30
0.0
 10
10.428602
 20
112.073940
 30
0.0
 10
11.229415
 20
112.073940
 30
0.0
  0
SPLINE
  5
111
100
AcDbEntity
  8
0
 62
1
100
AcDbSpline
 70
8
 71
3
 72
8
 73
4
 74
0
 40
0
 40
0
 40
0
 40
0
 40
1
 40
1
 40
1
 40
1
 10
11.229415
 20
112.073940
 30
0.0
 10
12.030228
 20
112.073940
 30
0.0
 10
12.679415
 20
111.424752
 30
0.0
 10
12.679415
 20
110.623941
 30
0.0
  0
LWPOLYLINE
  5
112
100
AcDbEntity
  8
0
 62
1
100
AcDbPolyline
 90
2
 70
0
 10
64.965493
 20
192.869665
 30
0.0
 10
64.965493
 20
192.869665
 30
0.0
  0
SPLINE
  5
113
100
AcDbEntity
  8
0
 62
1
100
AcDbSpline
 70
8
 71
3
 72
8
 73
4
 74
0
 40
0
 40
0
 40
0
 40
0
 40
1
 40
1
 40
1
 40
1
 10
126.689491
 20
14.603686
 30
0.0
 10
126.689491
 20
13.802872
 30
0.0
 10
126.040304
 20
13.153685
 30
0.0
 10
125.239490
 20
13.153685
 30
0.0
  0
SPLINE
  5
114
100
AcDbEntity
  8
0
 62
1
100
AcDbSpline
 70
8
 71
3
 72
8
 73
4
 74
0
 40
0
 40
0
 40
0
 40
0
 40
1
 40
1
 40
1
 40
1
 10
125.239490
 20
13.153685
 30
0.0
 10
124.438678
 20
13.153685
 30
0.0
 10
123.789491
 20
13.802872
 30
0.0
 10
123.789491
 20
14.603686
 30
0.0
  0
SPLINE
  5
115
100
AcDbEntity
  8
0
 62
1
100
AcDbSpline
 70
8
 71
3
 72
8
 73
4
 74
0
 40
0
 40
0
 40
0
 40
0
 40
1
 40
1
 40
1
 40
1
 10
123.789491
 20
14.603686
 30
0.0
 10
123.789491
 20
15.404497
 30
0.0
 10
124.438678
 20
16.053685
 30
0.0
 10
125.239490
 20
16.053685
 30
0.0
  0
SPLINE
  5
116
100
AcDbEntity
  8
0
 62
1
100
AcDbSpline
 70
8
 71
3
 72
8
 73
4
 74
0
 40
0
 40
0
 40
0
 40
0
 40
1
 40
1
 40
1
 40
1
 10
125.239490
 20
16.053685
 30
0.0
 10
126.040304
 20
16.053685
 30
0.0
 10
126.689491
 20
15.404497
 30
0.0
 10
126.689491
 20
14.603686
 30
0.0
  0
LWPOLYLINE
  5
117
100
AcDbEntity
  8
0
 62
1
100
AcDbPolyline
 90
2
 70
0
 10
12.679415
 20
110.623941
 30
0.0
 10
12.679415
 20
110.623941
 30
0.0
  0
SPLINE
  5
118
100
AcDbEntity
  8
0
 62
1
100
AcDbSpline
 70
8
 71
3
 72
8
 73
4
 74
0
 40
0
 40
0
 40
0
 40
0
 40
1
 40
1
 40
1
 40
1
 10
23.883709
 20
50.741756
 30
0.0
 10
23.883709
 20
49.940942
 30
0.0
 10
23.234522
 20
49.291755
 30
0.0
 10
22.433709
 20
49.291755
 30
0.0
  0
SPLINE
  5
119
100
AcDbEntity
  8
0
 62
1
100
AcDbSpline
 70
8
 71
3
 72
8
 73
4
 74
0
 40
0
 40
0
 40
0
 40
0
 40
1
 40
1
 40
1
 40
1
 10
22.433709
 20
49.291755
 30
0.0
 10
21.632896
 20
49.291755
 30
0.0
 10
20.983708
 20
49.940942
 30
0.0
 10
20.983708
 20
50.741756
 30
0.0
  0
SPLINE
  5
11a
100
AcDbEntity
  8
0
 62
1
100
AcDbSpline
 70
8
 71
3
 72
8
 73
4
 74
0
 40
0
 40
0
 40
0
 40
0
 40
1
 40
1
 40
1
 40
1
 10
20.983708
 20
50.741756
 30
0.0
 10
20.983708
 20
51.542567
 30
0.0
 10
21.632896
 20
52.191755
 30
0.0
 10
22.433709
 20
52.191755
 30
0.0
  0
SPLINE
  5
11b
100
AcDbEntity
  8
0
 62
1
100
AcDbSpline
 70
8
 71
3
 72
8
 73
4
 74
0
 40
0
 40
0
 40
0
 40
0
 40
1
 40
1
 40
1
 40
1
 10
22.433709
 20
52.191755
 30
0.0
 10
23.234522
 20
52.191755
 30
0.0
 10
23.883709
 20
51.542567
 30
0.0
 10
23.883709
 20
50.741756
 30
0.0
  0
LWPOLYLINE
  5
11c
100
AcDbEntity
  8
0
 62
1
100
AcDbPolyline
 90
2
 70
0
 10
126.689491
 20
14.603686
 30
0.0
 10
126.689491
 20
14.603686
 30
0.0
  0
SPLINE
  5
11d
100
AcDbEntity
  8
0
 62
1
100
AcDbSpline
 70
8
 71
3
 72
8
 73
4
 74
0
 40
0
 40
0
 40
0
 40
0
 40
1
 40
1
 40
1
 40
1
 10
380.128659
 20
50.741756
 30
0.0
 10
380.128659
 20
49.940942
 30
0.0
 10
379.479463
 20
49.291755
 30
0.0
 10
378.678658
 20
49.291755
 30
0.0
  0
SPLINE
  5
11e
100
AcDbEntity
  8
0
 62
1
100
AcDbSpline
 70
8
 71
3
 72
8
 73
4
 74
0
 40
0
 40
0
 40
0
 40
0
 40
1
 40
1
 40
1
 40
1
 10
378.678658
 20
49.291755
 30
0.0
 10
377.877852
 20
49.291755
 30
0.0
 10
377.228656
 20
49.940942
 30
0.0
 10
377.228656
 20
50.741756
 30
0.0
  0
SPLINE
  5
11f
100
AcDbEntity
  8
0
 62
1
100
AcDbSpline
 70
8
 71
3
 72
8
 73
4
 74
0
 40
0
 40
0
 40
0
 40
0
 40
1
 40
1
 40
1
 40
1
 10
377.228656
 20
50.741756
 30
0.0
 10
377.228656
 20
51.542567
 30
0.0
 10
377.877852
 20
52.191755
 30
0.0
 10
378.678658
 20
52.191755
 30
0.0
  0
SPLINE
  5
120
100
AcDbEntity
  8
0
 62
1
100
AcDbSpline
 70
8
 71
3
 72
8
 73
4
 74
0
 40
0
 40
0
 40
0
 40
0
 40
1
 40
1
 40
1
 40
1
 10
378.678658
 20
52.191755
 30
0.0
 10
379.479463
 20
52.191755
 30
0.0
 10
380.128659
 20
51.542567
 30
0.0
 10
380.128659
 20
50.741756
 30
0.0
  0
LWPOLYLINE
  5
121
100
AcDbEntity
  8
0
 62
1
100
AcDbPolyline
 90
2
 70
0
 10
23.883709
 20
50.741756
 30
0.0
 10
23.883709
 20
50.741756
 30
0.0
  0
SPLINE
  5
122
100
AcDbEntity
  8
0
 62
1
100
AcDbSpline
 70
8
 71
3
 72
8
 73
4
 74
0
 40
0
 40
0
 40
0
 40
0
 40
1
 40
1
 40
1
 40
1
 10
277.322879
 20
14.603686
 30
0.0
 10
277.322879
 20
13.802872
 30
0.0
 10
276.673691
 20
13.153685
 30
0.0
 10
275.872880
 20
13.153685
 30
0.0
  0
SPLINE
  5
123
100
AcDbEntity
  8
0
 62
1
100
AcDbSpline
 70
8
 71
3
 72
8
 73
4
 74
0
 40
0
 40
0
 40
0
 40
0
 40
1
 40
1
 40
1
 40
1
 10
275.872880
 20
13.153685
 30
0.0
 10
275.072066
 20
13.153685
 30
0.0
 10
274.422879
 20
13.802872
 30
0.0
 10
274.422879
 20
14.603686
 30
0.0
  0
SPLINE
  5
124
100
AcDbEntity
  8
0
 62
1
100
AcDbSpline
 70
8
 71
3
 72
8
 73
4
 74
0
 40
0
 40
0
 40
0
 40
0
 40
1
 40
1
 40
1
 40
1
 10
274.422879
 20
14.603686
 30
0.0
 10
274.422879
 20
15.404497
 30
0.0
 10
275.072066
 20
16.053685
 30
0.0
 10
275.872880
 20
16.053685
 30
0.0
  0
SPLINE
  5
125
100
AcDbEntity
  8
0
 62
1
100
AcDbSpline
 70
8
 71
3
 72
8
 73
4
 74
0
 40
0
 40
0
 40
0
 40
0
 40
1
 40
1
 40
1
 40
1
 10
275.872880
 20
16.053685
 30
0.0
 10
276.673691
 20
16.053685
 30
0.0
 10
277.322879
 20
15.404497
 30
0.0
 10
277.322879
 20
14.603686
 30
0.0
  0
LWPOLYLINE
  5
126
100
AcDbEntity
  8
0
 62
1
100
AcDbPolyline
 90
2
 70
0
 10
380.128659
 20
50.741756
 30
0.0
 10
380.128659
 20
50.741756
 30
0.0
  0
SPLINE
  5
127
100
AcDbEntity
  8
0
 62
1
100
AcDbSpline
 70
8
 71
3
 72
8
 73
4
 74
0
 40
0
 40
0
 40
0
 40
0
 40
1
 40
1
 40
1
 40
1
 10
391.332938
 20
110.623941
 30
0.0
 10
391.332938
 20
109.823127
 30
0.0
 10
390.683742
 20
109.173940
 30
0.0
 10
389.882936
 20
109.173940
 30
0.0
  0
SPLINE
  5
128
100
AcDbEntity
  8
0
 62
1
100
AcDbSpline
 70
8
 71
3
 72
8
 73
4
 74
0
 40
0
 40
0
 40
0
 40
0
 40
1
 40
1
 40
1
 40
1
 10
389.882936
 20
109.173940
 30
0.0
 10
389.082131
 20
109.173940
 30
0.0
 10
388.432935
 20
109.823127
 30
0.0
 10
388.432935
 20
110.623941
 30
0.0
  0
SPLINE
  5
129
100
AcDbEntity
  8
0
 62
1
100
AcDbSpline
 70
8
 71
3
 72
8
 73
4
 74
0
 40
0
 40
0
 40
0
 40
0
 40
1
 40
1
 40
1
 40
1
 10
388.432935
 20
110.623941
 30
0.0
 10
388.432935
 20
111.424752
 30
0.0
 10
389.082131
 20
112.073940
 30
0.0
 10
389.882936
 20
112.073940
 30
0.0
  0
SPLINE
  5
12a
100
AcDbEntity
  8
0
 62
1
100
AcDbSpline
 70
8
 71
3
 72
8
 73
4
 74
0
 40
0
 40
0
 40
0
 40
0
 40
1
 40
1
 40
1
 40
1
 10
389.882936
 20
112.073940
 30
0.0
 10
390.683742
 20
112.073940
 30
0.0
 10
391.332938
 20
111.424752
 30
0.0
 10
391.332938
 20
110.623941
 30
0.0
  0
LWPOLYLINE
  5
12b
100
AcDbEntity
  8
0
 62
1
100
AcDbPolyline
 90
2
 70
0
 10
277.322879
 20
14.603686
 30
0.0
 10
277.322879
 20
14.603686
 30
0.0
  0
SPLINE
  5
12c
100
AcDbEntity
  8
0
 62
1
100
AcDbSpline
 70
8
 71
3
 72
8
 73
4
 74
0
 40
0
 40
0
 40
0
 40
0
 40
1
 40
1
 40
1
 40
1
 10
339.046868
 20
192.869665
 30
0.0
 10
339.046868
 20
192.068852
 30
0.0
 10
338.397672
 20
191.419665
 30
0.0
 10
337.596867
 20
191.419665
 30
0.0
  0
SPLINE
  5
12d
100
AcDbEntity
  8
0
 62
1
100
AcDbSpline
 70
8
 71
3
 72
8
 73
4
 74
0
 40
0
 40
0
 40
0
 40
0
 40
1
 40
1
 40
1
 40
1
 10
337.596867
 20
191.419665
 30
0.0
 10
336.796061
 20
191.419665
 30
0.0
 10
336.146866
 20
192.068852
 30
0.0
 10
336.146866
 20
192.869665
 30
0.0
  0
SPLINE
  5
12e
100
AcDbEntity
  8
0
 62
1
100
AcDbSpline
 70
8
 71
3
 72
8
 73
4
 74
0
 40
0
 40
0
 40
0
 40
0
 40
1
 40
1
 40
1
 40
1
 10
336.146866
 20
192.869665
 30
0.0
 10
336.146866
 20
193.670478
 30
0.0
 10
336.796061
 20
194.319665
 30
0.0
 10
337.596867
 20
194.319665
 30
0.0
  0
SPLINE
  5
12f
100
AcDbEntity
  8
0
 62
1
100
AcDbSpline
 70
8
 71
3
 72
8
 73
4
 74
0
 40
0
 40
0
 40
0
 40
0
 40
1
 40
1
 40
1
 40
1
 10
337.596867
 20
194.319665
 30
0.0
 10
338.397672
 20
194.319665
 30
0.0
 10
339.046868
 20
193.670478
 30
0.0
 10
339.046868
 20
192.869665
 30
0.0
  0
LWPOLYLINE
  5
130
100
AcDbEntity
  8
0
 62
1
100
AcDbPolyline
 90
2
 70
0
 10
391.332938
 20
110.623941
 30
0.0
 10
391.332938
 20
110.623941
 30
0.0
  0
SPLINE
  5
131
100
AcDbEntity
  8
0
 62
1
100
AcDbSpline
 70
8
 71
3
 72
8
 73
4
 74
0
 40
0
 40
0
 40
0
 40
0
 40
1
 40
1
 40
1
 40
1
 10
246.144300
 20
192.869665
 30
0.0
 10
246.144300
 20
192.068852
 30
0.0
 10
245.495112
 20
191.419665
 30
0.0
 10
244.694301
 20
191.419665
 30
0.0
  0
SPLINE
  5
132
100
AcDbEntity
  8
0
 62
1
100
AcDbSpline
 70
8
 71
3
 72
8
 73
4
 74
0
 40
0
 40
0
 40
0
 40
0
 40
1
 40
1
 40
1
 40
1
 10
244.694301
 20
191.419665
 30
0.0
 10
243.893487
 20
191.419665
 30
0.0
 10
243.244300
 20
192.068852
 30
0.0
 10
243.244300
 20
192.869665
 30
0.0
  0
SPLINE
  5
133
100
AcDbEntity
  8
0
 62
1
100
AcDbSpline
 70
8
 71
3
 72
8
 73
4
 74
0
 40
0
 40
0
 40
0
 40
0
 40
1
 40
1
 40
1
 40
1
 10
243.244300
 20
192.869665
 30
0.0
 10
243.244300
 20
193.670478
 30
0.0
 10
243.893487
 20
194.319665
 30
0.0
 10
244.694301
 20
194.319665
 30
0.0
  0
SPLINE
  5
134
100
AcDbEntity
  8
0
 62
1
100
AcDbSpline
 70
8
 71
3
 72
8
 73
4
 74
0
 40
0
 40
0
 40
0
 40
0
 40
1
 40
1
 40
1
 40
1
 10
244.694301
 20
194.319665
 30
0.0
 10
245.495112
 20
194.319665
 30
0.0
 10
246.144300
 20
193.670478
 30
0.0
 10
246.144300
 20
192.869665
 30
0.0
  0
LWPOLYLINE
  5
135
100
AcDbEntity
  8
0
 62
1
100
AcDbPolyline
 90
2
 70
0
 10
339.046868
 20
192.869665
 30
0.0
 10
339.046868
 20
192.869665
 30
0.0
  0
SPLINE
  5
136
100
AcDbEntity
  8
0
 62
1
100
AcDbSpline
 70
8
 71
3
 72
8
 73
4
 74
0
 40
0
 40
0
 40
0
 40
0
 40
1
 40
1
 40
1
 40
1
 10
211.721889
 20
58.628120
 30
0.0
 10
211.721889
 20
57.827309
 30
0.0
 10
211.072702
 20
57.178122
 30
0.0
 10
210.271888
 20
57.178122
 30
0.0
  0
SPLINE
  5
137
100
AcDbEntity
  8
0
 62
1
100
AcDbSpline
 70
8
 71
3
 72
8
 73
4
 74
0
 40
0
 40
0
 40
0
 40
0
 40
1
 40
1
 40
1
 40
1
 10
210.271888
 20
57.178122
 30
0.0
 10
209.471074
 20
57.178122
 30
0.0
 10
208.821887
 20
57.827309
 30
0.0
 10
208.821887
 20
58.628120
 30
0.0
  0
SPLINE
  5
138
100
AcDbEntity
  8
0
 62
1
100
AcDbSpline
 70
8
 71
3
 72
8
 73
4
 74
0
 40
0
 40
0
 40
0
 40
0
 40
1
 40
1
 40
1
 40
1
 10
208.821887
 20
58.628120
 30
0.0
 10
208.821887
 20
59.428934
 30
0.0
 10
209.471074
 20
60.078122
 30
0.0
 10
210.271888
 20
60.078122
 30
0.0
  0
SPLINE
  5
139
100
AcDbEntity
  8
0
 62
1
100
AcDbSpline
 70
8
 71
3
 72
8
 73
4
 74
0
 40
0
 40
0
 40
0
 40
0
 40
1
 40
1
 40
1
 40
1
 10
210.271888
 20
60.078122
 30
0.0
 10
211.072702
 20
60.078122
 30
0.0
 10
211.721889
 20
59.428934
 30
0.0
 10
211.721889
 20
58.628120
 30
0.0
  0
LWPOLYLINE
  5
13a
100
AcDbEntity
  8
0
 62
1
100
AcDbPolyline
 90
2
 70
0
 10
246.144300
 20
192.869665
 30
0.0
 10
246.144300
 20
192.869665
 30
0.0
  0
LWPOLYLINE
  5
13b
100
AcDbEntity
  8
0
 62
1
100
AcDbPolyline
 90
2
 70
0
 10
211.721889
 20
58.628120
 30
0.0
 10
211.721889
 20
58.628120
 30
0.0
  0
SPLINE
  5
13c
100
AcDbEntity
  8
0
 62
1
100
AcDbSpline
 70
8
 71
3
 72
8
 73
4
 74
0
 40
0
 40
0
 40
0
 40
0
 40
1
 40
1
 40
1
 40
1
 10
28.626466
 20
199.869669
 30
0.0
 10
26.298360
 20
199.869669
 30
0.0
 10
24.278323
 20
198.262857
 30
0.0
 10
23.754615
 20
195.994419
 30
0.0
  0
LWPOLYLINE
  5
13d
100
AcDbEntity
  8
0
 62
1
100
AcDbPolyline
 90
2
 70
0
 10
5.533580
 20
117.070444
 30
0.0
 10
23.754615
 20
195.994420
 30
0.0
  0
SPLINE
  5
13e
100
AcDbEntity
  8
0
 62
1
100
AcDbSpline
 70
8
 71
3
 72
8
 73
4
 74
0
 40
0
 40
0
 40
0
 40
0
 40
1
 40
1
 40
1
 40
1
 10
180.556185
 20
194.869679
 30
0.0
 10
178.964883
 20
194.869679
 30
0.0
 10
177.438757
 20
194.237536
 30
0.0
 10
176.313538
 20
193.112315
 30
0.0
  0
SPLINE
  5
13f
100
AcDbEntity
  8
0
 62
1
100
AcDbSpline
 70
8
 71
3
 72
8
 73
4
 74
0
 40
0
 40
0
 40
0
 40
0
 40
1
 40
1
 40
1
 40
1
 10
176.313538
 20
193.112315
 30
0.0
 10
175.188318
 20
191.987093
 30
0.0
 10
174.556179
 20
190.460965
 30
0.0
 10
174.556183
 20
188.869663
 30
0.0
  0
LWPOLYLINE
  5
140
100
AcDbEntity
  8
0
 62
1
100
AcDbPolyline
 90
4
 70
0
 10
28.626466
 20
199.869665
 30
0.0
 10
191.556183
 20
199.869665
 30
0.0
 10
191.556183
 20
194.869665
 30
0.0
 10
180.556185
 20
194.869665
 30
0.0
  0
SPLINE
  5
141
100
AcDbEntity
  8
0
 62
1
100
AcDbSpline
 70
8
 71
3
 72
8
 73
4
 74
0
 40
0
 40
0
 40
0
 40
0
 40
1
 40
1
 40
1
 40
1
 10
226.556184
 20
188.869663
 30
0.0
 10
226.556188
 20
190.460964
 30
0.0
 10
225.924049
 20
191.987092
 30
0.0
 10
224.798830
 20
193.112314
 30
0.0
  0
SPLINE
  5
142
100
AcDbEntity
  8
0
 62
1
100
AcDbSpline
 70
8
 71
3
 72
8
 73
4
 74
0
 40
0
 40
0
 40
0
 40
0
 40
1
 40
1
 40
1
 40
1
 10
224.798830
 20
193.112314
 30
0.0
 10
223.673612
 20
194.237535
 30
0.0
 10
222.147486
 20
194.869679
 30
0.0
 10
220.556184
 20
194.869679
 30
0.0
  0
LWPOLYLINE
  5
143
100
AcDbEntity
  8
0
 62
1
100
AcDbPolyline
 90
34
 70
0
 10
174.556183
 20
188.869665
 30
0.0
 10
174.556183
 20
164.650404
 30
0.0
 10
168.411288
 20
164.650404
 30
0.0
 10
131.385226
 20
173.198544
 30
0.0
 10
131.722650
 20
174.660099
 30
0.0
 10
113.209621
 20
178.934169
 30
0.0
 10
113.547045
 20
180.395724
 30
0.0
 10
94.059646
 20
184.894746
 30
0.0
 10
93.722218
 20
183.433190
 30
0.0
 10
75.209189
 20
187.707261
 30
0.0
 10
74.534333
 20
184.784150
 30
0.0
 10
32.880015
 20
194.400808
 30
0.0
 10
15.558783
 20
119.374312
 30
0.0
 10
15.912970
 20
99.792763
 30
0.0
 10
108.492014
 20
62.052921
 30
0.0
 10
154.196638
 20
26.344557
 30
0.0
 10
189.905002
 20
72.049181
 30
0.0
 10
211.207364
 20
72.049181
 30
0.0
 10
246.915731
 20
26.344557
 30
0.0
 10
292.620353
 20
62.052921
 30
0.0
 10
385.199402
 20
99.792763
 30
0.0
 10
385.553591
 20
119.374312
 30
0.0
 10
368.232343
 20
194.400808
 30
0.0
 10
326.578036
 20
184.784150
 30
0.0
 10
325.903187
 20
187.707261
 30
0.0
 10
307.390143
 20
183.433190
 30
0.0
 10
307.052718
 20
184.894746
 30
0.0
 10
287.565330
 20
180.395724
 30
0.0
 10
287.902755
 20
178.934169
 30
0.0
 10
269.389716
 20
174.660099
 30
0.0
 10
269.727144
 20
173.198544
 30
0.0
 10
232.701081
 20
164.650404
 30
0.0
 10
226.556184
 20
164.650404
 30
0.0
 10
226.556184
 20
188.869665
 30
0.0
  0
SPLINE
  5
144
100
AcDbEntity
  8
0
 62
1
100
AcDbSpline
 70
8
 71
3
 72
8
 73
4
 74
0
 40
0
 40
0
 40
0
 40
0
 40
1
 40
1
 40
1
 40
1
 10
377.357745
 20
195.994419
 30
0.0
 10
376.834039
 20
198.262850
 30
0.0
 10
374.814011
 20
199.869660
 30
0.0
 10
372.485912
 20
199.869669
 30
0.0
  0
LWPOLYLINE
  5
145
100
AcDbEntity
  8
0
 62
1
100
AcDbPolyline
 90
4
 70
0
 10
220.556184
 20
194.869665
 30
0.0
 10
209.556184
 20
194.869665
 30
0.0
 10
209.556184
 20
199.869665
 30
0.0
 10
372.485912
 20
199.869665
 30
0.0
  0
SPLINE
  5
146
100
AcDbEntity
  8
0
 62
1
100
AcDbSpline
 70
8
 71
3
 72
8
 73
4
 74
0
 40
0
 40
0
 40
0
 40
0
 40
1
 40
1
 40
1
 40
1
 10
237.703211
 20
31.922244
 30
0.0
 10
266.631590
 20
1.628501
 30
0.0
 10
312.241989
 20
-5.587757
 30
0.0
 10
349.109230
 20
14.296121
 30
0.0
  0
SPLINE
  5
147
100
AcDbEntity
  8
0
 62
1
100
AcDbSpline
 70
8
 71
3
 72
8
 73
4
 74
0
 40
0
 40
0
 40
0
 40
0
 40
1
 40
1
 40
1
 40
1
 10
349.109230
 20
14.296121
 30
0.0
 10
385.976471
 20
34.179999
 30
0.0
 10
405.001437
 20
76.256519
 30
0.0
 10
395.578802
 20
117.070439
 30
0.0
  0
SPLINE
  5
148
100
AcDbEntity
  8
0
 62
1
100
AcDbSpline
 70
8
 71
3
 72
8
 73
4
 74
0
 40
0
 40
0
 40
0
 40
0
 40
1
 40
1
 40
1
 40
1
 10
237.703211
 20
31.922244
 30
0.0
 10
228.011572
 20
42.071307
 30
0.0
 10
214.589408
 20
47.813064
 30
0.0
 10
200.556185
 20
47.813064
 30
0.0
  0
SPLINE
  5
149
100
AcDbEntity
  8
0
 62
1
100
AcDbSpline
 70
8
 71
3
 72
8
 73
4
 74
0
 40
0
 40
0
 40
0
 40
0
 40
1
 40
1
 40
1
 40
1
 10
200.556185
 20
47.813064
 30
0.0
 10
186.522962
 20
47.813064
 30
0.0
 10
173.100798
 20
42.071307
 30
0.0
 10
163.409159
 20
31.922244
 30
0.0
  0
SPLINE
  5
14a
100
AcDbEntity
  8
0
 62
1
100
AcDbSpline
 70
8
 71
3
 72
8
 73
4
 74
0
 40
0
 40
0
 40
0
 40
0
 40
1
 40
1
 40
1
 40
1
 10
5.533580
 20
117.070439
 30
0.0
 10
-3.889046
 20
76.256525
 30
0.0
 10
15.135919
 20
34.180014
 30
0.0
 10
52.003153
 20
14.296139
 30
0.0
  0
SPLINE
  5
14b
100
AcDbEntity
  8
0
 62
1
100
AcDbSpline
 70
8
 71
3
 72
8
 73
4
 74
0
 40
0
 40
0
 40
0
 40
0
 40
1
 40
1
 40
1
 40
1
 10
52.003153
 20
14.296139
 30
0.0
 10
88.870386
 20
-5.587737
 30
0.0
 10
134.480777
 20
1.628513
 30
0.0
 10
163.409159
 20
31.922244
 30
0.0
  0
SPLINE
  5
14c
100
AcDbEntity
  8
0
 62
1
100
AcDbSpline
 70
8
 71
3
 72
8
 73
4
 74
0
 40
0
 40
0
 40
0
 40
0
 40
1
 40
1
 40
1
 40
1
 10
192.290484
 20
257.128129
 30
0.0
 10
192.290484
 20
256.327317
 30
0.0
 10
191.641299
 20
255.678130
 30
0.0
 10
190.840485
 20
255.678130
 30
0.0
  0
SPLINE
  5
14d
100
AcDbEntity
  8
0
 62
1
100
AcDbSpline
 70
8
 71
3
 72
8
 73
4
 74
0
 40
0
 40
0
 40
0
 40
0
 40
1
 40
1
 40
1
 40
1
 10
190.840485
 20
255.678130
 30
0.0
 10
190.039671
 20
255.678130
 30
0.0
 10
189.390484
 20
256.327317
 30
0.0
 10
189.390484
 20
257.128129
 30
0.0
  0
SPLINE
  5
14e
100
AcDbEntity
  8
0
 62
1
100
AcDbSpline
 70
8
 71
3
 72
8
 73
4
 74
0
 40
0
 40
0
 40
0
 40
0
 40
1
 40
1
 40
1
 40
1
 10
189.390484
 20
257.128129
 30
0.0
 10
189.390484
 20
257.928943
 30
0.0
 10
190.039671
 20
258.578130
 30
0.0
 10
190.840485
 20
258.578130
 30
0.0
  0
SPLINE
  5
14f
100
AcDbEntity
  8
0
 62
1
100
AcDbSpline
 70
8
 71
3
 72
8
 73
4
 74
0
 40
0
 40
0
 40
0
 40
0
 40
1
 40
1
 40
1
 40
1
 10
190.840485
 20
258.578130
 30
0.0
 10
191.641299
 20
258.578130
 30
0.0
 10
192.290484
 20
257.928943
 30
0.0
 10
192.290484
 20
257.128129
 30
0.0
  0
LWPOLYLINE
  5
150
100
AcDbEntity
  8
0
 62
1
100
AcDbPolyline
 90
2
 70
0
 10
377.357745
 20
195.994420
 30
0.0
 10
395.578802
 20
117.070444
 30
0.0
  0
SPLINE
  5
151
100
AcDbEntity
  8
0
 62
1
100
AcDbSpline
 70
8
 71
3
 72
8
 73
4
 74
0
 40
0
 40
0
 40
0
 40
0
 40
1
 40
1
 40
1
 40
1
 10
157.868073
 20
391.369673
 30
0.0
 10
157.868073
 20
390.568860
 30
0.0
 10
157.218886
 20
389.919673
 30
0.0
 10
156.418072
 20
389.919673
 30
0.0
  0
SPLINE
  5
152
100
AcDbEntity
  8
0
 62
1
100
AcDbSpline
 70
8
 71
3
 72
8
 73
4
 74
0
 40
0
 40
0
 40
0
 40
0
 40
1
 40
1
 40
1
 40
1
 10
156.418072
 20
389.919673
 30
0.0
 10
155.617261
 20
389.919673
 30
0.0
 10
154.968074
 20
390.568860
 30
0.0
 10
154.968074
 20
391.369673
 30
0.0
  0
SPLINE
  5
153
100
AcDbEntity
  8
0
 62
1
100
AcDbSpline
 70
8
 71
3
 72
8
 73
4
 74
0
 40
0
 40
0
 40
0
 40
0
 40
1
 40
1
 40
1
 40
1
 10
154.968074
 20
391.369673
 30
0.0
 10
154.968074
 20
392.170486
 30
0.0
 10
155.617261
 20
392.819673
 30
0.0
 10
156.418072
 20
392.819673
 30
0.0
  0
SPLINE
  5
154
100
AcDbEntity
  8
0
 62
1
100
AcDbSpline
 70
8
 71
3
 72
8
 73
4
 74
0
 40
0
 40
0
 40
0
 40
0
 40
1
 40
1
 40
1
 40
1
 10
156.418072
 20
392.819673
 30
0.0
 10
157.218886
 20
392.819673
 30
0.0
 10
157.868073
 20
392.170486
 30
0.0
 10
157.868073
 20
391.369673
 30
0.0
  0
LWPOLYLINE
  5
155
100
AcDbEntity
  8
0
 62
1
100
AcDbPolyline
 90
2
 70
0
 10
192.290484
 20
257.128129
 30
0.0
 10
192.290484
 20
257.128129
 30
0.0
  0
SPLINE
  5
156
100
AcDbEntity
  8
0
 62
1
100
AcDbSpline
 70
8
 71
3
 72
8
 73
4
 74
0
 40
0
 40
0
 40
0
 40
0
 40
1
 40
1
 40
1
 40
1
 10
64.965496
 20
391.369673
 30
0.0
 10
64.965496
 20
390.568860
 30
0.0
 10
64.316309
 20
389.919673
 30
0.0
 10
63.515495
 20
389.919673
 30
0.0
  0
SPLINE
  5
157
100
AcDbEntity
  8
0
 62
1
100
AcDbSpline
 70
8
 71
3
 72
8
 73
4
 74
0
 40
0
 40
0
 40
0
 40
0
 40
1
 40
1
 40
1
 40
1
 10
63.515495
 20
389.919673
 30
0.0
 10
62.714684
 20
389.919673
 30
0.0
 10
62.065496
 20
390.568860
 30
0.0
 10
62.065496
 20
391.369673
 30
0.0
  0
SPLINE
  5
158
100
AcDbEntity
  8
0
 62
1
100
AcDbSpline
 70
8
 71
3
 72
8
 73
4
 74
0
 40
0
 40
0
 40
0
 40
0
 40
1
 40
1
 40
1
 40
1
 10
62.065496
 20
391.369673
 30
0.0
 10
62.065496
 20
392.170486
 30
0.0
 10
62.714684
 20
392.819673
 30
0.0
 10
63.515495
 20
392.819673
 30
0.0
  0
SPLINE
  5
159
100
AcDbEntity
  8
0
 62
1
100
AcDbSpline
 70
8
 71
3
 72
8
 73
4
 74
0
 40
0
 40
0
 40
0
 40
0
 40
1
 40
1
 40
1
 40
1
 10
63.515495
 20
392.819673
 30
0.0
 10
64.316309
 20
392.819673
 30
0.0
 10
64.965496
 20
392.170486
 30
0.0
 10
64.965496
 20
391.369673
 30
0.0
  0
LWPOLYLINE
  5
15a
100
AcDbEntity
  8
0
 62
1
100
AcDbPolyline
 90
2
 70
0
 10
157.868073
 20
391.369673
 30
0.0
 10
157.868073
 20
391.369673
 30
0.0
  0
SPLINE
  5
15b
100
AcDbEntity
  8
0
 62
1
100
AcDbSpline
 70
8
 71
3
 72
8
 73
4
 74
0
 40
0
 40
0
 40
0
 40
0
 40
1
 40
1
 40
1
 40
1
 10
12.679419
 20
309.123949
 30
0.0
 10
12.679419
 20
308.323135
 30
0.0
 10
12.030231
 20
307.673948
 30
0.0
 10
11.229418
 20
307.673948
 30
0.0
  0
SPLINE
  5
15c
100
AcDbEntity
  8
0
 62
1
100
AcDbSpline
 70
8
 71
3
 72
8
 73
4
 74
0
 40
0
 40
0
 40
0
 40
0
 40
1
 40
1
 40
1
 40
1
 10
11.229418
 20
307.673948
 30
0.0
 10
10.428606
 20
307.673948
 30
0.0
 10
9.779419
 20
308.323135
 30
0.0
 10
9.779419
 20
309.123949
 30
0.0
  0
SPLINE
  5
15d
100
AcDbEntity
  8
0
 62
1
100
AcDbSpline
 70
8
 71
3
 72
8
 73
4
 74
0
 40
0
 40
0
 40
0
 40
0
 40
1
 40
1
 40
1
 40
1
 10
9.779419
 20
309.123949
 30
0.0
 10
9.779419
 20
309.924760
 30
0.0
 10
10.428606
 20
310.573948
 30
0.0
 10
11.229418
 20
310.573948
 30
0.0
  0
SPLINE
  5
15e
100
AcDbEntity
  8
0
 62
1
100
AcDbSpline
 70
8
 71
3
 72
8
 73
4
 74
0
 40
0
 40
0
 40
0
 40
0
 40
1
 40
1
 40
1
 40
1
 10
11.229418
 20
310.573948
 30
0.0
 10
12.030231
 20
310.573948
 30
0.0
 10
12.679419
 20
309.924760
 30
0.0
 10
12.679419
 20
309.123949
 30
0.0
  0
LWPOLYLINE
  5
15f
100
AcDbEntity
  8
0
 62
1
100
AcDbPolyline
 90
2
 70
0
 10
64.965496
 20
391.369673
 30
0.0
 10
64.965496
 20
391.369673
 30
0.0
  0
SPLINE
  5
160
100
AcDbEntity
  8
0
 62
1
100
AcDbSpline
 70
8
 71
3
 72
8
 73
4
 74
0
 40
0
 40
0
 40
0
 40
0
 40
1
 40
1
 40
1
 40
1
 10
126.689494
 20
213.103694
 30
0.0
 10
126.689494
 20
212.302880
 30
0.0
 10
126.040307
 20
211.653693
 30
0.0
 10
125.239493
 20
211.653693
 30
0.0
  0
SPLINE
  5
161
100
AcDbEntity
  8
0
 62
1
100
AcDbSpline
 70
8
 71
3
 72
8
 73
4
 74
0
 40
0
 40
0
 40
0
 40
0
 40
1
 40
1
 40
1
 40
1
 10
125.239493
 20
211.653693
 30
0.0
 10
124.438682
 20
211.653693
 30
0.0
 10
123.789494
 20
212.302880
 30
0.0
 10
123.789494
 20
213.103694
 30
0.0
  0
SPLINE
  5
162
100
AcDbEntity
  8
0
 62
1
100
AcDbSpline
 70
8
 71
3
 72
8
 73
4
 74
0
 40
0
 40
0
 40
0
 40
0
 40
1
 40
1
 40
1
 40
1
 10
123.789494
 20
213.103694
 30
0.0
 10
123.789494
 20
213.904505
 30
0.0
 10
124.438682
 20
214.553693
 30
0.0
 10
125.239493
 20
214.553693
 30
0.0
  0
SPLINE
  5
163
100
AcDbEntity
  8
0
 62
1
100
AcDbSpline
 70
8
 71
3
 72
8
 73
4
 74
0
 40
0
 40
0
 40
0
 40
0
 40
1
 40
1
 40
1
 40
1
 10
125.239493
 20
214.553693
 30
0.0
 10
126.040307
 20
214.553693
 30
0.0
 10
126.689494
 20
213.904505
 30
0.0
 10
126.689494
 20
213.103694
 30
0.0
  0
LWPOLYLINE
  5
164
100
AcDbEntity
  8
0
 62
1
100
AcDbPolyline
 90
2
 70
0
 10
12.679419
 20
309.123949
 30
0.0
 10
12.679419
 20
309.123949
 30
0.0
  0
SPLINE
  5
165
100
AcDbEntity
  8
0
 62
1
100
AcDbSpline
 70
8
 71
3
 72
8
 73
4
 74
0
 40
0
 40
0
 40
0
 40
0
 40
1
 40
1
 40
1
 40
1
 10
23.883712
 20
249.241764
 30
0.0
 10
23.883712
 20
248.440950
 30
0.0
 10
23.234525
 20
247.791763
 30
0.0
 10
22.433712
 20
247.791763
 30
0.0
  0
SPLINE
  5
166
100
AcDbEntity
  8
0
 62
1
100
AcDbSpline
 70
8
 71
3
 72
8
 73
4
 74
0
 40
0
 40
0
 40
0
 40
0
 40
1
 40
1
 40
1
 40
1
 10
22.433712
 20
247.791763
 30
0.0
 10
21.632899
 20
247.791763
 30
0.0
 10
20.983712
 20
248.440950
 30
0.0
 10
20.983712
 20
249.241764
 30
0.0
  0
SPLINE
  5
167
100
AcDbEntity
  8
0
 62
1
100
AcDbSpline
 70
8
 71
3
 72
8
 73
4
 74
0
 40
0
 40
0
 40
0
 40
0
 40
1
 40
1
 40
1
 40
1
 10
20.983712
 20
249.241764
 30
0.0
 10
20.983712
 20
250.042576
 30
0.0
 10
21.632899
 20
250.691763
 30
0.0
 10
22.433712
 20
250.691763
 30
0.0
  0
SPLINE
  5
168
100
AcDbEntity
  8
0
 62
1
100
AcDbSpline
 70
8
 71
3
 72
8
 73
4
 74
0
 40
0
 40
0
 40
0
 40
0
 40
1
 40
1
 40
1
 40
1
 10
22.433712
 20
250.691763
 30
0.0
 10
23.234525
 20
250.691763
 30
0.0
 10
23.883712
 20
250.042576
 30
0.0
 10
23.883712
 20
249.241764
 30
0.0
  0
LWPOLYLINE
  5
169
100
AcDbEntity
  8
0
 62
1
100
AcDbPolyline
 90
2
 70
0
 10
126.689494
 20
213.103694
 30
0.0
 10
126.689494
 20
213.103694
 30
0.0
  0
SPLINE
  5
16a
100
AcDbEntity
  8
0
 62
1
100
AcDbSpline
 70
8
 71
3
 72
8
 73
4
 74
0
 40
0
 40
0
 40
0
 40
0
 40
1
 40
1
 40
1
 40
1
 10
380.128662
 20
249.241764
 30
0.0
 10
380.128662
 20
248.440950
 30
0.0
 10
379.479467
 20
247.791763
 30
0.0
 10
378.678661
 20
247.791763
 30
0.0
  0
SPLINE
  5
16b
100
AcDbEntity
  8
0
 62
1
100
AcDbSpline
 70
8
 71
3
 72
8
 73
4
 74
0
 40
0
 40
0
 40
0
 40
0
 40
1
 40
1
 40
1
 40
1
 10
378.678661
 20
247.791763
 30
0.0
 10
377.877855
 20
247.791763
 30
0.0
 10
377.228660
 20
248.440950
 30
0.0
 10
377.228660
 20
249.241764
 30
0.0
  0
SPLINE
  5
16c
100
AcDbEntity
  8
0
 62
1
100
AcDbSpline
 70
8
 71
3
 72
8
 73
4
 74
0
 40
0
 40
0
 40
0
 40
0
 40
1
 40
1
 40
1
 40
1
 10
377.228660
 20
249.241764
 30
0.0
 10
377.228660
 20
250.042576
 30
0.0
 10
377.877855
 20
250.691763
 30
0.0
 10
378.678661
 20
250.691763
 30
0.0
  0
SPLINE
  5
16d
100
AcDbEntity
  8
0
 62
1
100
AcDbSpline
 70
8
 71
3
 72
8
 73
4
 74
0
 40
0
 40
0
 40
0
 40
0
 40
1
 40
1
 40
1
 40
1
 10
378.678661
 20
250.691763
 30
0.0
 10
379.479467
 20
250.691763
 30
0.0
 10
380.128662
 20
250.042576
 30
0.0
 10
380.128662
 20
249.241764
 30
0.0
  0
LWPOLYLINE
  5
16e
100
AcDbEntity
  8
0
 62
1
100
AcDbPolyline
 90
2
 70
0
 10
23.883712
 20
249.241764
 30
0.0
 10
23.883712
 20
249.241764
 30
0.0
  0
SPLINE
  5
16f
100
AcDbEntity
  8
0
 62
1
100
AcDbSpline
 70
8
 71
3
 72
8
 73
4
 74
0
 40
0
 40
0
 40
0
 40
0
 40
1
 40
1
 40
1
 40
1
 10
277.322882
 20
213.103694
 30
0.0
 10
277.322882
 20
212.302880
 30
0.0
 10
276.673695
 20
211.653693
 30
0.0
 10
275.872883
 20
211.653693
 30
0.0
  0
SPLINE
  5
170
100
AcDbEntity
  8
0
 62
1
100
AcDbSpline
 70
8
 71
3
 72
8
 73
4
 74
0
 40
0
 40
0
 40
0
 40
0
 40
1
 40
1
 40
1
 40
1
 10
275.872883
 20
211.653693
 30
0.0
 10
275.072069
 20
211.653693
 30
0.0
 10
274.422882
 20
212.302880
 30
0.0
 10
274.422882
 20
213.103694
 30
0.0
  0
SPLINE
  5
171
100
AcDbEntity
  8
0
 62
1
100
AcDbSpline
 70
8
 71
3
 72
8
 73
4
 74
0
 40
0
 40
0
 40
0
 40
0
 40
1
 40
1
 40
1
 40
1
 10
274.422882
 20
213.103694
 30
0.0
 10
274.422882
 20
213.904505
 30
0.0
 10
275.072069
 20
214.553693
 30
0.0
 10
275.872883
 20
214.553693
 30
0.0
  0
SPLINE
  5
172
100
AcDbEntity
  8
0
 62
1
100
AcDbSpline
 70
8
 71
3
 72
8
 73
4
 74
0
 40
0
 40
0
 40
0
 40
0
 40
1
 40
1
 40
1
 40
1
 10
275.872883
 20
214.553693
 30
0.0
 10
276.673695
 20
214.553693
 30
0.0
 10
277.322882
 20
213.904505
 30
0.0
 10
277.322882
 20
213.103694
 30
0.0
  0
LWPOLYLINE
  5
173
100
AcDbEntity
  8
0
 62
1
100
AcDbPolyline
 90
2
 70
0
 10
380.128662
 20
249.241764
 30
0.0
 10
380.128662
 20
249.241764
 30
0.0
  0
SPLINE
  5
174
100
AcDbEntity
  8
0
 62
1
100
AcDbSpline
 70
8
 71
3
 72
8
 73
4
 74
0
 40
0
 40
0
 40
0
 40
0
 40
1
 40
1
 40
1
 40
1
 10
391.332941
 20
309.123949
 30
0.0
 10
391.332941
 20
308.323135
 30
0.0
 10
390.683745
 20
307.673948
 30
0.0
 10
389.882940
 20
307.673948
 30
0.0
  0
SPLINE
  5
175
100
AcDbEntity
  8
0
 62
1
100
AcDbSpline
 70
8
 71
3
 72
8
 73
4
 74
0
 40
0
 40
0
 40
0
 40
0
 40
1
 40
1
 40
1
 40
1
 10
389.882940
 20
307.673948
 30
0.0
 10
389.082134
 20
307.673948
 30
0.0
 10
388.432938
 20
308.323135
 30
0.0
 10
388.432938
 20
309.123949
 30
0.0
  0
SPLINE
  5
176
100
AcDbEntity
  8
0
 62
1
100
AcDbSpline
 70
8
 71
3
 72
8
 73
4
 74
0
 40
0
 40
0
 40
0
 40
0
 40
1
 40
1
 40
1
 40
1
 10
388.432938
 20
309.123949
 30
0.0
 10
388.432938
 20
309.924760
 30
0.0
 10
389.082134
 20
310.573948
 30
0.0
 10
389.882940
 20
310.573948
 30
0.0
  0
SPLINE
  5
177
100
AcDbEntity
  8
0
 62
1
100
AcDbSpline
 70
8
 71
3
 72
8
 73
4
 74
0
 40
0
 40
0
 40
0
 40
0
 40
1
 40
1
 40
1
 40
1
 10
389.882940
 20
310.573948
 30
0.0
 10
390.683745
 20
310.573948
 30
0.0
 10
391.332941
 20
309.924760
 30
0.0
 10
391.332941
 20
309.123949
 30
0.0
  0
LWPOLYLINE
  5
178
100
AcDbEntity
  8
0
 62
1
100
AcDbPolyline
 90
2
 70
0
 10
277.322882
 20
213.103694
 30
0.0
 10
277.322882
 20
213.103694
 30
0.0
  0
SPLINE
  5
179
100
AcDbEntity
  8
0
 62
1
100
AcDbSpline
 70
8
 71
3
 72
8
 73
4
 74
0
 40
0
 40
0
 40
0
 40
0
 40
1
 40
1
 40
1
 40
1
 10
339.046872
 20
391.369673
 30
0.0
 10
339.046872
 20
390.568860
 30
0.0
 10
338.397676
 20
389.919673
 30
0.0
 10
337.596870
 20
389.919673
 30
0.0
  0
SPLINE
  5
17a
100
AcDbEntity
  8
0
 62
1
100
AcDbSpline
 70
8
 71
3
 72
8
 73
4
 74
0
 40
0
 40
0
 40
0
 40
0
 40
1
 40
1
 40
1
 40
1
 10
337.596870
 20
389.919673
 30
0.0
 10
336.796065
 20
389.919673
 30
0.0
 10
336.146869
 20
390.568860
 30
0.0
 10
336.146869
 20
391.369673
 30
0.0
  0
SPLINE
  5
17b
100
AcDbEntity
  8
0
 62
1
100
AcDbSpline
 70
8
 71
3
 72
8
 73
4
 74
0
 40
0
 40
0
 40
0
 40
0
 40
1
 40
1
 40
1
 40
1
 10
336.146869
 20
391.369673
 30
0.0
 10
336.146869
 20
392.170486
 30
0.0
 10
336.796065
 20
392.819673
 30
0.0
 10
337.596870
 20
392.819673
 30
0.0
  0
SPLINE
  5
17c
100
AcDbEntity
  8
0
 62
1
100
AcDbSpline
 70
8
 71
3
 72
8
 73
4
 74
0
 40
0
 40
0
 40
0
 40
0
 40
1
 40
1
 40
1
 40
1
 10
337.596870
 20
392.819673
 30
0.0
 10
338.397676
 20
392.819673
 30
0.0
 10
339.046872
 20
392.170486
 30
0.0
 10
339.046872
 20
391.369673
 30
0.0
  0
LWPOLYLINE
  5
17d
100
AcDbEntity
  8
0
 62
1
100
AcDbPolyline
 90
2
 70
0
 10
391.332941
 20
309.123949
 30
0.0
 10
391.332941
 20
309.123949
 30
0.0
  0
SPLINE
  5
17e
100
AcDbEntity
  8
0
 62
1
100
AcDbSpline
 70
8
 71
3
 72
8
 73
4
 74
0
 40
0
 40
0
 40
0
 40
0
 40
1
 40
1
 40
1
 40
1
 10
246.144303
 20
391.369673
 30
0.0
 10
246.144303
 20
390.568860
 30
0.0
 10
245.495116
 20
389.919673
 30
0.0
 10
244.694304
 20
389.919673
 30
0.0
  0
SPLINE
  5
17f
100
AcDbEntity
  8
0
 62
1
100
AcDbSpline
 70
8
 71
3
 72
8
 73
4
 74
0
 40
0
 40
0
 40
0
 40
0
 40
1
 40
1
 40
1
 40
1
 10
244.694304
 20
389.919673
 30
0.0
 10
243.893490
 20
389.919673
 30
0.0
 10
243.244303
 20
390.568860
 30
0.0
 10
243.244303
 20
391.369673
 30
0.0
  0
SPLINE
  5
180
100
AcDbEntity
  8
0
 62
1
100
AcDbSpline
 70
8
 71
3
 72
8
 73
4
 74
0
 40
0
 40
0
 40
0
 40
0
 40
1
 40
1
 40
1
 40
1
 10
243.244303
 20
391.369673
 30
0.0
 10
243.244303
 20
392.170486
 30
0.0
 10
243.893490
 20
392.819673
 30
0.0
 10
244.694304
 20
392.819673
 30
0.0
  0
SPLINE
  5
181
100
AcDbEntity
  8
0
 62
1
100
AcDbSpline
 70
8
 71
3
 72
8
 73
4
 74
0
 40
0
 40
0
 40
0
 40
0
 40
1
 40
1
 40
1
 40
1
 10
244.694304
 20
392.819673
 30
0.0
 10
245.495116
 20
392.819673
 30
0.0
 10
246.144303
 20
392.170486
 30
0.0
 10
246.144303
 20
391.369673
 30
0.0
  0
LWPOLYLINE
  5
182
100
AcDbEntity
  8
0
 62
1
100
AcDbPolyline
 90
2
 70
0
 10
339.046872
 20
391.369673
 30
0.0
 10
339.046872
 20
391.369673
 30
0.0
  0
SPLINE
  5
183
100
AcDbEntity
  8
0
 62
1
100
AcDbSpline
 70
8
 71
3
 72
8
 73
4
 74
0
 40
0
 40
0
 40
0
 40
0
 40
1
 40
1
 40
1
 40
1
 10
211.721893
 20
257.128129
 30
0.0
 10
211.721893
 20
256.327317
 30
0.0
 10
211.072705
 20
255.678130
 30
0.0
 10
210.271891
 20
255.678130
 30
0.0
  0
SPLINE
  5
184
100
AcDbEntity
  8
0
 62
1
100
AcDbSpline
 70
8
 71
3
 72
8
 73
4
 74
0
 40
0
 40
0
 40
0
 40
0
 40
1
 40
1
 40
1
 40
1
 10
210.271891
 20
255.678130
 30
0.0
 10
209.471077
 20
255.678130
 30
0.0
 10
208.821890
 20
256.327317
 30
0.0
 10
208.821890
 20
257.128129
 30
0.0
  0
SPLINE
  5
185
100
AcDbEntity
  8
0
 62
1
100
AcDbSpline
 70
8
 71
3
 72
8
 73
4
 74
0
 40
0
 40
0
 40
0
 40
0
 40
1
 40
1
 40
1
 40
1
 10
208.821890
 20
257.128129
 30
0.0
 10
208.821890
 20
257.928943
 30
0.0
 10
209.471077
 20
258.578130
 30
0.0
 10
210.271891
 20
258.578130
 30
0.0
  0
SPLINE
  5
186
100
AcDbEntity
  8
0
 62
1
100
AcDbSpline
 70
8
 71
3
 72
8
 73
4
 74
0
 40
0
 40
0
 40
0
 40
0
 40
1
 40
1
 40
1
 40
1
 10
210.271891
 20
258.578130
 30
0.0
 10
211.072705
 20
258.578130
 30
0.0
 10
211.721893
 20
257.928943
 30
0.0
 10
211.721893
 20
257.128129
 30
0.0
  0
LWPOLYLINE
  5
187
100
AcDbEntity
  8
0
 62
1
100
AcDbPolyline
 90
2
 70
0
 10
246.144303
 20
391.369673
 30
0.0
 10
246.144303
 20
391.369673
 30
0.0
  0
LWPOLYLINE
  5
188
100
AcDbEntity
  8
0
 62
1
100
AcDbPolyline
 90
2
 70
0
 10
211.721893
 20
257.128129
 30
0.0
 10
211.721893
 20
257.128129
 30
0.0
  0
SPLINE
  5
189
100
AcDbEntity
  8
0
 62
1
100
AcDbSpline
 70
8
 71
3
 72
8
 73
4
 74
0
 40
0
 40
0
 40
0
 40
0
 40
1
 40
1
 40
1
 40
1
 10
180.556189
 20
393.369673
 30
0.0
 10
178.964889
 20
393.369674
 30
0.0
 10
177.438765
 20
392.737533
 30
0.0
 10
176.313547
 20
391.612314
 30
0.0
  0
SPLINE
  5
18a
100
AcDbEntity
  8
0
 62
1
100
AcDbSpline
 70
8
 71
3
 72
8
 73
4
 74
0
 40
0
 40
0
 40
0
 40
0
 40
1
 40
1
 40
1
 40
1
 10
176.313547
 20
391.612314
 30
0.0
 10
175.188328
 20
390.487096
 30
0.0
 10
174.556187
 20
388.960972
 30
0.0
 10
174.556187
 20
387.369673
 30
0.0
  0
LWPOLYLINE
  5
18b
100
AcDbEntity
  8
0
 62
1
100
AcDbPolyline
 90
2
 70
0
 10
220.556188
 20
393.369673
 30
0.0
 10
180.556189
 20
393.369673
 30
0.0
  0
SPLINE
  5
18c
100
AcDbEntity
  8
0
 62
1
100
AcDbSpline
 70
8
 71
3
 72
8
 73
4
 74
0
 40
0
 40
0
 40
0
 40
0
 40
1
 40
1
 40
1
 40
1
 10
226.556187
 20
387.369673
 30
0.0
 10
226.556187
 20
390.683381
 30
0.0
 10
223.869896
 20
393.369673
 30
0.0
 10
220.556188
 20
393.369673
 30
0.0
  0
LWPOLYLINE
  5
18d
100
AcDbEntity
  8
0
 62
1
100
AcDbPolyline
 90
34
 70
0
 10
174.556187
 20
387.369673
 30
0.0
 10
174.556187
 20
363.150412
 30
0.0
 10
168.411292
 20
363.150412
 30
0.0
 10
131.385229
 20
371.698552
 30
0.0
 10
131.722654
 20
373.160107
 30
0.0
 10
113.209624
 20
377.434178
 30
0.0
 10
113.547049
 20
378.895732
 30
0.0
 10
94.059650
 20
383.394754
 30
0.0
 10
93.722222
 20
381.933199
 30
0.0
 10
75.209192
 20
386.207269
 30
0.0
 10
74.534337
 20
383.284159
 30
0.0
 10
32.880019
 20
392.900816
 30
0.0
 10
15.558786
 20
317.874320
 30
0.0
 10
15.912974
 20
298.292771
 30
0.0
 10
108.492017
 20
260.552929
 30
0.0
 10
154.196642
 20
224.844565
 30
0.0
 10
189.905006
 20
270.549189
 30
0.0
 10
211.207368
 20
270.549189
 30
0.0
 10
246.915735
 20
224.844565
 30
0.0
 10
292.620357
 20
260.552929
 30
0.0
 10
385.199405
 20
298.292771
 30
0.0
 10
385.553594
 20
317.874320
 30
0.0
 10
368.232347
 20
392.900816
 30
0.0
 10
326.578040
 20
383.284159
 30
0.0
 10
325.903190
 20
386.207269
 30
0.0
 10
307.390146
 20
381.933199
 30
0.0
 10
307.052721
 20
383.394754
 30
0.0
 10
287.565333
 20
378.895732
 30
0.0
 10
287.902758
 20
377.434178
 30
0.0
 10
269.389720
 20
373.160107
 30
0.0
 10
269.727147
 20
371.698552
 30
0.0
 10
232.701085
 20
363.150412
 30
0.0
 10
226.556187
 20
363.150412
 30
0.0
 10
226.556187
 20
387.369673
 30
0.0
  0
SPLINE
  5
18e
100
AcDbEntity
  8
0
 62
1
100
AcDbSpline
 70
8
 71
3
 72
8
 73
4
 74
0
 40
0
 40
0
 40
0
 40
0
 40
1
 40
1
 40
1
 40
1
 10
28.626470
 20
398.369673
 30
0.0
 10
26.298365
 20
398.369673
 30
0.0
 10
24.278328
 20
396.762864
 30
0.0
 10
23.754619
 20
394.494428
 30
0.0
  0
LWPOLYLINE
  5
18f
100
AcDbEntity
  8
0
 62
1
100
AcDbPolyline
 90
2
 70
0
 10
5.533583
 20
315.570452
 30
0.0
 10
23.754619
 20
394.494428
 30
0.0
  0
SPLINE
  5
190
100
AcDbEntity
  8
0
 62
1
100
AcDbSpline
 70
8
 71
3
 72
8
 73
4
 74
0
 40
0
 40
0
 40
0
 40
0
 40
1
 40
1
 40
1
 40
1
 10
377.357748
 20
394.494428
 30
0.0
 10
376.834040
 20
396.762857
 30
0.0
 10
374.814013
 20
398.369665
 30
0.0
 10
372.485915
 20
398.369673
 30
0.0
  0
LWPOLYLINE
  5
191
100
AcDbEntity
  8
0
 62
1
100
AcDbPolyline
 90
2
 70
0
 10
28.626470
 20
398.369673
 30
0.0
 10
372.485915
 20
398.369673
 30
0.0
  0
SPLINE
  5
192
100
AcDbEntity
  8
0
 62
1
100
AcDbSpline
 70
8
 71
3
 72
8
 73
4
 74
0
 40
0
 40
0
 40
0
 40
0
 40
1
 40
1
 40
1
 40
1
 10
237.703214
 20
230.422247
 30
0.0
 10
266.631595
 20
200.128499
 30
0.0
 10
312.241999
 20
192.912241
 30
0.0
 10
349.109242
 20
212.796122
 30
0.0
  0
SPLINE
  5
193
100
AcDbEntity
  8
0
 62
1
100
AcDbSpline
 70
8
 71
3
 72
8
 73
4
 74
0
 40
0
 40
0
 40
0
 40
0
 40
1
 40
1
 40
1
 40
1
 10
349.109242
 20
212.796122
 30
0.0
 10
385.976485
 20
232.680004
 30
0.0
 10
405.001448
 20
274.756531
 30
0.0
 10
395.578805
 20
315.570452
 30
0.0
  0
SPLINE
  5
194
100
AcDbEntity
  8
0
 62
1
100
AcDbSpline
 70
8
 71
3
 72
8
 73
4
 74
0
 40
0
 40
0
 40
0
 40
0
 40
1
 40
1
 40
1
 40
1
 10
237.703214
 20
230.422247
 30
0.0
 10
228.011575
 20
240.571309
 30
0.0
 10
214.589411
 20
246.313066
 30
0.0
 10
200.556188
 20
246.313066
 30
0.0
  0
SPLINE
  5
195
100
AcDbEntity
  8
0
 62
1
100
AcDbSpline
 70
8
 71
3
 72
8
 73
4
 74
0
 40
0
 40
0
 40
0
 40
0
 40
1
 40
1
 40
1
 40
1
 10
200.556188
 20
246.313066
 30
0.0
 10
186.522966
 20
246.313066
 30
0.0
 10
173.100801
 20
240.571309
 30
0.0
 10
163.409162
 20
230.422247
 30
0.0
  0
SPLINE
  5
196
100
AcDbEntity
  8
0
 62
1
100
AcDbSpline
 70
8
 71
3
 72
8
 73
4
 74
0
 40
0
 40
0
 40
0
 40
0
 40
1
 40
1
 40
1
 40
1
 10
5.533583
 20
315.570452
 30
0.0
 10
-3.889050
 20
274.756537
 30
0.0
 10
15.135912
 20
232.680020
 30
0.0
 10
52.003148
 20
212.796140
 30
0.0
  0
SPLINE
  5
197
100
AcDbEntity
  8
0
 62
1
100
AcDbSpline
 70
8
 71
3
 72
8
 73
4
 74
0
 40
0
 40
0
 40
0
 40
0
 40
1
 40
1
 40
1
 40
1
 10
52.003148
 20
212.796140
 30
0.0
 10
88.870384
 20
192.912261
 30
0.0
 10
134.480780
 20
200.128511
 30
0.0
 10
163.409162
 20
230.422247
 30
0.0
  0
SPLINE
  5
198
100
AcDbEntity
  8
0
 62
1
100
AcDbSpline
 70
8
 71
3
 72
8
 73
4
 74
0
 40
0
 40
0
 40
0
 40
0
 40
1
 40
1
 40
1
 40
1
 10
192.290484
 20
455.628130
 30
0.0
 10
192.290484
 20
454.827319
 30
0.0
 10
191.641299
 20
454.178131
 30
0.0
 10
190.840485
 20
454.178131
 30
0.0
  0
SPLINE
  5
199
100
AcDbEntity
  8
0
 62
1
100
AcDbSpline
 70
8
 71
3
 72
8
 73
4
 74
0
 40
0
 40
0
 40
0
 40
0
 40
1
 40
1
 40
1
 40
1
 10
190.840485
 20
454.178131
 30
0.0
 10
190.039671
 20
454.178131
 30
0.0
 10
189.390484
 20
454.827319
 30
0.0
 10
189.390484
 20
455.628130
 30
0.0
  0
SPLINE
  5
19a
100
AcDbEntity
  8
0
 62
1
100
AcDbSpline
 70
8
 71
3
 72
8
 73
4
 74
0
 40
0
 40
0
 40
0
 40
0
 40
1
 40
1
 40
1
 40
1
 10
189.390484
 20
455.628130
 30
0.0
 10
189.390484
 20
456.428944
 30
0.0
 10
190.039671
 20
457.078131
 30
0.0
 10
190.840485
 20
457.078131
 30
0.0
  0
SPLINE
  5
19b
100
AcDbEntity
  8
0
 62
1
100
AcDbSpline
 70
8
 71
3
 72
8
 73
4
 74
0
 40
0
 40
0
 40
0
 40
0
 40
1
 40
1
 40
1
 40
1
 10
190.840485
 20
457.078131
 30
0.0
 10
191.641299
 20
457.078131
 30
0.0
 10
192.290484
 20
456.428944
 30
0.0
 10
192.290484
 20
455.628130
 30
0.0
  0
LWPOLYLINE
  5
19c
100
AcDbEntity
  8
0
 62
1
100
AcDbPolyline
 90
2
 70
0
 10
377.357748
 20
394.494428
 30
0.0
 10
395.578805
 20
315.570452
 30
0.0
  0
SPLINE
  5
19d
100
AcDbEntity
  8
0
 62
1
100
AcDbSpline
 70
8
 71
3
 72
8
 73
4
 74
0
 40
0
 40
0
 40
0
 40
0
 40
1
 40
1
 40
1
 40
1
 10
157.868073
 20
589.869674
 30
0.0
 10
157.868073
 20
589.068861
 30
0.0
 10
157.218886
 20
588.419674
 30
0.0
 10
156.418072
 20
588.419674
 30
0.0
  0
SPLINE
  5
19e
100
AcDbEntity
  8
0
 62
1
100
AcDbSpline
 70
8
 71
3
 72
8
 73
4
 74
0
 40
0
 40
0
 40
0
 40
0
 40
1
 40
1
 40
1
 40
1
 10
156.418072
 20
588.419674
 30
0.0
 10
155.617261
 20
588.419674
 30
0.0
 10
154.968074
 20
589.068861
 30
0.0
 10
154.968074
 20
589.869674
 30
0.0
  0
SPLINE
  5
19f
100
AcDbEntity
  8
0
 62
1
100
AcDbSpline
 70
8
 71
3
 72
8
 73
4
 74
0
 40
0
 40
0
 40
0
 40
0
 40
1
 40
1
 40
1
 40
1
 10
154.968074
 20
589.869674
 30
0.0
 10
154.968074
 20
590.670487
 30
0.0
 10
155.617261
 20
591.319674
 30
0.0
 10
156.418072
 20
591.319674
 30
0.0
  0
SPLINE
  5
1a0
100
AcDbEntity
  8
0
 62
1
100
AcDbSpline
 70
8
 71
3
 72
8
 73
4
 74
0
 40
0
 40
0
 40
0
 40
0
 40
1
 40
1
 40
1
 40
1
 10
156.418072
 20
591.319674
 30
0.0
 10
157.218886
 20
591.319674
 30
0.0
 10
157.868073
 20
590.670487
 30
0.0
 10
157.868073
 20
589.869674
 30
0.0
  0
LWPOLYLINE
  5
1a1
100
AcDbEntity
  8
0
 62
1
100
AcDbPolyline
 90
2
 70
0
 10
192.290484
 20
455.628130
 30
0.0
 10
192.290484
 20
455.628130
 30
0.0
  0
SPLINE
  5
1a2
100
AcDbEntity
  8
0
 62
1
100
AcDbSpline
 70
8
 71
3
 72
8
 73
4
 74
0
 40
0
 40
0
 40
0
 40
0
 40
1
 40
1
 40
1
 40
1
 10
64.965496
 20
589.869674
 30
0.0
 10
64.965496
 20
589.068861
 30
0.0
 10
64.316309
 20
588.419674
 30
0.0
 10
63.515495
 20
588.419674
 30
0.0
  0
SPLINE
  5
1a3
100
AcDbEntity
  8
0
 62
1
100
AcDbSpline
 70
8
 71
3
 72
8
 73
4
 74
0
 40
0
 40
0
 40
0
 40
0
 40
1
 40
1
 40
1
 40
1
 10
63.515495
 20
588.419674
 30
0.0
 10
62.714684
 20
588.419674
 30
0.0
 10
62.065496
 20
589.068861
 30
0.0
 10
62.065496
 20
589.869674
 30
0.0
  0
SPLINE
  5
1a4
100
AcDbEntity
  8
0
 62
1
100
AcDbSpline
 70
8
 71
3
 72
8
 73
4
 74
0
 40
0
 40
0
 40
0
 40
0
 40
1
 40
1
 40
1
 40
1
 10
62.065496
 20
589.869674
 30
0.0
 10
62.065496
 20
590.670487
 30
0.0
 10
62.714684
 20
591.319674
 30
0.0
 10
63.515495
 20
591.319674
 30
0.0
  0
SPLINE
  5
1a5
100
AcDbEntity
  8
0
 62
1
100
AcDbSpline
 70
8
 71
3
 72
8
 73
4
 74
0
 40
0
 40
0
 40
0
 40
0
 40
1
 40
1
 40
1
 40
1
 10
63.515495
 20
591.319674
 30
0.0
 10
64.316309
 20
591.319674
 30
0.0
 10
64.965496
 20
590.670487
 30
0.0
 10
64.965496
 20
589.869674
 30
0.0
  0
LWPOLYLINE
  5
1a6
100
AcDbEntity
  8
0
 62
1
100
AcDbPolyline
 90
2
 70
0
 10
157.868073
 20
589.869674
 30
0.0
 10
157.868073
 20
589.869674
 30
0.0
  0
SPLINE
  5
1a7
100
AcDbEntity
  8
0
 62
1
100
AcDbSpline
 70
8
 71
3
 72
8
 73
4
 74
0
 40
0
 40
0
 40
0
 40
0
 40
1
 40
1
 40
1
 40
1
 10
12.679419
 20
507.623950
 30
0.0
 10
12.679419
 20
506.823136
 30
0.0
 10
12.030231
 20
506.173949
 30
0.0
 10
11.229418
 20
506.173949
 30
0.0
  0
SPLINE
  5
1a8
100
AcDbEntity
  8
0
 62
1
100
AcDbSpline
 70
8
 71
3
 72
8
 73
4
 74
0
 40
0
 40
0
 40
0
 40
0
 40
1
 40
1
 40
1
 40
1
 10
11.229418
 20
506.173949
 30
0.0
 10
10.428606
 20
506.173949
 30
0.0
 10
9.779419
 20
506.823136
 30
0.0
 10
9.779419
 20
507.623950
 30
0.0
  0
SPLINE
  5
1a9
100
AcDbEntity
  8
0
 62
1
100
AcDbSpline
 70
8
 71
3
 72
8
 73
4
 74
0
 40
0
 40
0
 40
0
 40
0
 40
1
 40
1
 40
1
 40
1
 10
9.779419
 20
507.623950
 30
0.0
 10
9.779419
 20
508.424762
 30
0.0
 10
10.428606
 20
509.073949
 30
0.0
 10
11.229418
 20
509.073949
 30
0.0
  0
SPLINE
  5
1aa
100
AcDbEntity
  8
0
 62
1
100
AcDbSpline
 70
8
 71
3
 72
8
 73
4
 74
0
 40
0
 40
0
 40
0
 40
0
 40
1
 40
1
 40
1
 40
1
 10
11.229418
 20
509.073949
 30
0.0
 10
12.030231
 20
509.073949
 30
0.0
 10
12.679419
 20
508.424762
 30
0.0
 10
12.679419
 20
507.623950
 30
0.0
  0
LWPOLYLINE
  5
1ab
100
AcDbEntity
  8
0
 62
1
100
AcDbPolyline
 90
2
 70
0
 10
64.965496
 20
589.869674
 30
0.0
 10
64.965496
 20
589.869674
 30
0.0
  0
SPLINE
  5
1ac
100
AcDbEntity
  8
0
 62
1
100
AcDbSpline
 70
8
 71
3
 72
8
 73
4
 74
0
 40
0
 40
0
 40
0
 40
0
 40
1
 40
1
 40
1
 40
1
 10
126.689494
 20
411.603695
 30
0.0
 10
126.689494
 20
410.802881
 30
0.0
 10
126.040307
 20
410.153694
 30
0.0
 10
125.239493
 20
410.153694
 30
0.0
  0
SPLINE
  5
1ad
100
AcDbEntity
  8
0
 62
1
100
AcDbSpline
 70
8
 71
3
 72
8
 73
4
 74
0
 40
0
 40
0
 40
0
 40
0
 40
1
 40
1
 40
1
 40
1
 10
125.239493
 20
410.153694
 30
0.0
 10
124.438682
 20
410.153694
 30
0.0
 10
123.789494
 20
410.802881
 30
0.0
 10
123.789494
 20
411.603695
 30
0.0
  0
SPLINE
  5
1ae
100
AcDbEntity
  8
0
 62
1
100
AcDbSpline
 70
8
 71
3
 72
8
 73
4
 74
0
 40
0
 40
0
 40
0
 40
0
 40
1
 40
1
 40
1
 40
1
 10
123.789494
 20
411.603695
 30
0.0
 10
123.789494
 20
412.404507
 30
0.0
 10
124.438682
 20
413.053694
 30
0.0
 10
125.239493
 20
413.053694
 30
0.0
  0
SPLINE
  5
1af
100
AcDbEntity
  8
0
 62
1
100
AcDbSpline
 70
8
 71
3
 72
8
 73
4
 74
0
 40
0
 40
0
 40
0
 40
0
 40
1
 40
1
 40
1
 40
1
 10
125.239493
 20
413.053694
 30
0.0
 10
126.040307
 20
413.053694
 30
0.0
 10
126.689494
 20
412.404507
 30
0.0
 10
126.689494
 20
411.603695
 30
0.0
  0
LWPOLYLINE
  5
1b0
100
AcDbEntity
  8
0
 62
1
100
AcDbPolyline
 90
2
 70
0
 10
12.679419
 20
507.623950
 30
0.0
 10
12.679419
 20
507.623950
 30
0.0
  0
SPLINE
  5
1b1
100
AcDbEntity
  8
0
 62
1
100
AcDbSpline
 70
8
 71
3
 72
8
 73
4
 74
0
 40
0
 40
0
 40
0
 40
0
 40
1
 40
1
 40
1
 40
1
 10
23.883712
 20
447.741766
 30
0.0
 10
23.883712
 20
446.940952
 30
0.0
 10
23.234525
 20
446.291764
 30
0.0
 10
22.433712
 20
446.291764
 30
0.0
  0
SPLINE
  5
1b2
100
AcDbEntity
  8
0
 62
1
100
AcDbSpline
 70
8
 71
3
 72
8
 73
4
 74
0
 40
0
 40
0
 40
0
 40
0
 40
1
 40
1
 40
1
 40
1
 10
22.433712
 20
446.291764
 30
0.0
 10
21.632899
 20
446.291764
 30
0.0
 10
20.983712
 20
446.940952
 30
0.0
 10
20.983712
 20
447.741766
 30
0.0
  0
SPLINE
  5
1b3
100
AcDbEntity
  8
0
 62
1
100
AcDbSpline
 70
8
 71
3
 72
8
 73
4
 74
0
 40
0
 40
0
 40
0
 40
0
 40
1
 40
1
 40
1
 40
1
 10
20.983712
 20
447.741766
 30
0.0
 10
20.983712
 20
448.542577
 30
0.0
 10
21.632899
 20
449.191764
 30
0.0
 10
22.433712
 20
449.191764
 30
0.0
  0
SPLINE
  5
1b4
100
AcDbEntity
  8
0
 62
1
100
AcDbSpline
 70
8
 71
3
 72
8
 73
4
 74
0
 40
0
 40
0
 40
0
 40
0
 40
1
 40
1
 40
1
 40
1
 10
22.433712
 20
449.191764
 30
0.0
 10
23.234525
 20
449.191764
 30
0.0
 10
23.883712
 20
448.542577
 30
0.0
 10
23.883712
 20
447.741766
 30
0.0
  0
LWPOLYLINE
  5
1b5
100
AcDbEntity
  8
0
 62
1
100
AcDbPolyline
 90
2
 70
0
 10
126.689494
 20
411.603695
 30
0.0
 10
126.689494
 20
411.603695
 30
0.0
  0
SPLINE
  5
1b6
100
AcDbEntity
  8
0
 62
1
100
AcDbSpline
 70
8
 71
3
 72
8
 73
4
 74
0
 40
0
 40
0
 40
0
 40
0
 40
1
 40
1
 40
1
 40
1
 10
380.128662
 20
447.741766
 30
0.0
 10
380.128662
 20
446.940952
 30
0.0
 10
379.479467
 20
446.291764
 30
0.0
 10
378.678661
 20
446.291764
 30
0.0
  0
SPLINE
  5
1b7
100
AcDbEntity
  8
0
 62
1
100
AcDbSpline
 70
8
 71
3
 72
8
 73
4
 74
0
 40
0
 40
0
 40
0
 40
0
 40
1
 40
1
 40
1
 40
1
 10
378.678661
 20
446.291764
 30
0.0
 10
377.877855
 20
446.291764
 30
0.0
 10
377.228660
 20
446.940952
 30
0.0
 10
377.228660
 20
447.741766
 30
0.0
  0
SPLINE
  5
1b8
100
AcDbEntity
  8
0
 62
1
100
AcDbSpline
 70
8
 71
3
 72
8
 73
4
 74
0
 40
0
 40
0
 40
0
 40
0
 40
1
 40
1
 40
1
 40
1
 10
377.228660
 20
447.741766
 30
0.0
 10
377.228660
 20
448.542577
 30
0.0
 10
377.877855
 20
449.191764
 30
0.0
 10
378.678661
 20
449.191764
 30
0.0
  0
SPLINE
  5
1b9
100
AcDbEntity
  8
0
 62
1
100
AcDbSpline
 70
8
 71
3
 72
8
 73
4
 74
0
 40
0
 40
0
 40
0
 40
0
 40
1
 40
1
 40
1
 40
1
 10
378.678661
 20
449.191764
 30
0.0
 10
379.479467
 20
449.191764
 30
0.0
 10
380.128662
 20
448.542577
 30
0.0
 10
380.128662
 20
447.741766
 30
0.0
  0
LWPOLYLINE
  5
1ba
100
AcDbEntity
  8
0
 62
1
100
AcDbPolyline
 90
2
 70
0
 10
23.883712
 20
447.741766
 30
0.0
 10
23.883712
 20
447.741766
 30
0.0
  0
SPLINE
  5
1bb
100
AcDbEntity
  8
0
 62
1
100
AcDbSpline
 70
8
 71
3
 72
8
 73
4
 74
0
 40
0
 40
0
 40
0
 40
0
 40
1
 40
1
 40
1
 40
1
 10
277.322882
 20
411.603695
 30
0.0
 10
277.322882
 20
410.802881
 30
0.0
 10
276.673695
 20
410.153694
 30
0.0
 10
275.872883
 20
410.153694
 30
0.0
  0
SPLINE
  5
1bc
100
AcDbEntity
  8
0
 62
1
100
AcDbSpline
 70
8
 71
3
 72
8
 73
4
 74
0
 40
0
 40
0
 40
0
 40
0
 40
1
 40
1
 40
1
 40
1
 10
275.872883
 20
410.153694
 30
0.0
 10
275.072069
 20
410.153694
 30
0.0
 10
274.422882
 20
410.802881
 30
0.0
 10
274.422882
 20
411.603695
 30
0.0
  0
SPLINE
  5
1bd
100
AcDbEntity
  8
0
 62
1
100
AcDbSpline
 70
8
 71
3
 72
8
 73
4
 74
0
 40
0
 40
0
 40
0
 40
0
 40
1
 40
1
 40
1
 40
1
 10
274.422882
 20
411.603695
 30
0.0
 10
274.422882
 20
412.404507
 30
0.0
 10
275.072069
 20
413.053694
 30
0.0
 10
275.872883
 20
413.053694
 30
0.0
  0
SPLINE
  5
1be
100
AcDbEntity
  8
0
 62
1
100
AcDbSpline
 70
8
 71
3
 72
8
 73
4
 74
0
 40
0
 40
0
 40
0
 40
0
 40
1
 40
1
 40
1
 40
1
 10
275.872883
 20
413.053694
 30
0.0
 10
276.673695
 20
413.053694
 30
0.0
 10
277.322882
 20
412.404507
 30
0.0
 10
277.322882
 20
411.603695
 30
0.0
  0
LWPOLYLINE
  5
1bf
100
AcDbEntity
  8
0
 62
1
100
AcDbPolyline
 90
2
 70
0
 10
380.128662
 20
447.741766
 30
0.0
 10
380.128662
 20
447.741766
 30
0.0
  0
SPLINE
  5
1c0
100
AcDbEntity
  8
0
 62
1
100
AcDbSpline
 70
8
 71
3
 72
8
 73
4
 74
0
 40
0
 40
0
 40
0
 40
0
 40
1
 40
1
 40
1
 40
1
 10
391.332941
 20
507.623950
 30
0.0
 10
391.332941
 20
506.823136
 30
0.0
 10
390.683745
 20
506.173949
 30
0.0
 10
389.882940
 20
506.173949
 30
0.0
  0
SPLINE
  5
1c1
100
AcDbEntity
  8
0
 62
1
100
AcDbSpline
 70
8
 71
3
 72
8
 73
4
 74
0
 40
0
 40
0
 40
0
 40
0
 40
1
 40
1
 40
1
 40
1
 10
389.882940
 20
506.173949
 30
0.0
 10
389.082134
 20
506.173949
 30
0.0
 10
388.432938
 20
506.823136
 30
0.0
 10
388.432938
 20
507.623950
 30
0.0
  0
SPLINE
  5
1c2
100
AcDbEntity
  8
0
 62
1
100
AcDbSpline
 70
8
 71
3
 72
8
 73
4
 74
0
 40
0
 40
0
 40
0
 40
0
 40
1
 40
1
 40
1
 40
1
 10
388.432938
 20
507.623950
 30
0.0
 10
388.432938
 20
508.424762
 30
0.0
 10
389.082134
 20
509.073949
 30
0.0
 10
389.882940
 20
509.073949
 30
0.0
  0
SPLINE
  5
1c3
100
AcDbEntity
  8
0
 62
1
100
AcDbSpline
 70
8
 71
3
 72
8
 73
4
 74
0
 40
0
 40
0
 40
0
 40
0
 40
1
 40
1
 40
1
 40
1
 10
389.882940
 20
509.073949
 30
0.0
 10
390.683745
 20
509.073949
 30
0.0
 10
391.332941
 20
508.424762
 30
0.0
 10
391.332941
 20
507.623950
 30
0.0
  0
LWPOLYLINE
  5
1c4
100
AcDbEntity
  8
0
 62
1
100
AcDbPolyline
 90
2
 70
0
 10
277.322882
 20
411.603695
 30
0.0
 10
277.322882
 20
411.603695
 30
0.0
  0
SPLINE
  5
1c5
100
AcDbEntity
  8
0
 62
1
100
AcDbSpline
 70
8
 71
3
 72
8
 73
4
 74
0
 40
0
 40
0
 40
0
 40
0
 40
1
 40
1
 40
1
 40
1
 10
339.046872
 20
589.869674
 30
0.0
 10
339.046872
 20
589.068861
 30
0.0
 10
338.397676
 20
588.419674
 30
0.0
 10
337.596870
 20
588.419674
 30
0.0
  0
SPLINE
  5
1c6
100
AcDbEntity
  8
0
 62
1
100
AcDbSpline
 70
8
 71
3
 72
8
 73
4
 74
0
 40
0
 40
0
 40
0
 40
0
 40
1
 40
1
 40
1
 40
1
 10
337.596870
 20
588.419674
 30
0.0
 10
336.796065
 20
588.419674
 30
0.0
 10
336.146869
 20
589.068861
 30
0.0
 10
336.146869
 20
589.869674
 30
0.0
  0
SPLINE
  5
1c7
100
AcDbEntity
  8
0
 62
1
100
AcDbSpline
 70
8
 71
3
 72
8
 73
4
 74
0
 40
0
 40
0
 40
0
 40
0
 40
1
 40
1
 40
1
 40
1
 10
336.146869
 20
589.869674
 30
0.0
 10
336.146869
 20
590.670487
 30
0.0
 10
336.796065
 20
591.319674
 30
0.0
 10
337.596870
 20
591.319674
 30
0.0
  0
SPLINE
  5
1c8
100
AcDbEntity
  8
0
 62
1
100
AcDbSpline
 70
8
 71
3
 72
8
 73
4
 74
0
 40
0
 40
0
 40
0
 40
0
 40
1
 40
1
 40
1
 40
1
 10
337.596870
 20
591.319674
 30
0.0
 10
338.397676
 20
591.319674
 30
0.0
 10
339.046872
 20
590.670487
 30
0.0
 10
339.046872
 20
589.869674
 30
0.0
  0
LWPOLYLINE
  5
1c9
100
AcDbEntity
  8
0
 62
1
100
AcDbPolyline
 90
2
 70
0
 10
391.332941
 20
507.623950
 30
0.0
 10
391.332941
 20
507.623950
 30
0.0
  0
SPLINE
  5
1ca
100
AcDbEntity
  8
0
 62
1
100
AcDbSpline
 70
8
 71
3
 72
8
 73
4
 74
0
 40
0
 40
0
 40
0
 40
0
 40
1
 40
1
 40
1
 40
1
 10
246.144303
 20
589.869674
 30
0.0
 10
246.144303
 20
589.068861
 30
0.0
 10
245.495116
 20
588.419674
 30
0.0
 10
244.694304
 20
588.419674
 30
0.0
  0
SPLINE
  5
1cb
100
AcDbEntity
  8
0
 62
1
100
AcDbSpline
 70
8
 71
3
 72
8
 73
4
 74
0
 40
0
 40
0
 40
0
 40
0
 40
1
 40
1
 40
1
 40
1
 10
244.694304
 20
588.419674
 30
0.0
 10
243.893490
 20
588.419674
 30
0.0
 10
243.244303
 20
589.068861
 30
0.0
 10
243.244303
 20
589.869674
 30
0.0
  0
SPLINE
  5
1cc
100
AcDbEntity
  8
0
 62
1
100
AcDbSpline
 70
8
 71
3
 72
8
 73
4
 74
0
 40
0
 40
0
 40
0
 40
0
 40
1
 40
1
 40
1
 40
1
 10
243.244303
 20
589.869674
 30
0.0
 10
243.244303
 20
590.670487
 30
0.0
 10
243.893490
 20
591.319674
 30
0.0
 10
244.694304
 20
591.319674
 30
0.0
  0
SPLINE
  5
1cd
100
AcDbEntity
  8
0
 62
1
100
AcDbSpline
 70
8
 71
3
 72
8
 73
4
 74
0
 40
0
 40
0
 40
0
 40
0
 40
1
 40
1
 40
1
 40
1
 10
244.694304
 20
591.319674
 30
0.0
 10
245.495116
 20
591.319674
 30
0.0
 10
246.144303
 20
590.670487
 30
0.0
 10
246.144303
 20
589.869674
 30
0.0
  0
LWPOLYLINE
  5
1ce
100
AcDbEntity
  8
0
 62
1
100
AcDbPolyline
 90
2
 70
0
 10
339.046872
 20
589.869674
 30
0.0
 10
339.046872
 20
589.869674
 30
0.0
  0
SPLINE
  5
1cf
100
AcDbEntity
  8
0
 62
1
100
AcDbSpline
 70
8
 71
3
 72
8
 73
4
 74
0
 40
0
 40
0
 40
0
 40
0
 40
1
 40
1
 40
1
 40
1
 10
211.721893
 20
455.628130
 30
0.0
 10
211.721893
 20
454.827319
 30
0.0
 10
211.072705
 20
454.178131
 30
0.0
 10
210.271891
 20
454.178131
 30
0.0
  0
SPLINE
  5
1d0
100
AcDbEntity
  8
0
 62
1
100
AcDbSpline
 70
8
 71
3
 72
8
 73
4
 74
0
 40
0
 40
0
 40
0
 40
0
 40
1
 40
1
 40
1
 40
1
 10
210.271891
 20
454.178131
 30
0.0
 10
209.471077
 20
454.178131
 30
0.0
 10
208.821890
 20
454.827319
 30
0.0
 10
208.821890
 20
455.628130
 30
0.0
  0
SPLINE
  5
1d1
100
AcDbEntity
  8
0
 62
1
100
AcDbSpline
 70
8
 71
3
 72
8
 73
4
 74
0
 40
0
 40
0
 40
0
 40
0
 40
1
 40
1
 40
1
 40
1
 10
208.821890
 20
455.628130
 30
0.0
 10
208.821890
 20
456.428944
 30
0.0
 10
209.471077
 20
457.078131
 30
0.0
 10
210.271891
 20
457.078131
 30
0.0
  0
SPLINE
  5
1d2
100
AcDbEntity
  8
0
 62
1
100
AcDbSpline
 70
8
 71
3
 72
8
 73
4
 74
0
 40
0
 40
0
 40
0
 40
0
 40
1
 40
1
 40
1
 40
1
 10
210.271891
 20
457.078131
 30
0.0
 10
211.072705
 20
457.078131
 30
0.0
 10
211.721893
 20
456.428944
 30
0.0
 10
211.721893
 20
455.628130
 30
0.0
  0
LWPOLYLINE
  5
1d3
100
AcDbEntity
  8
0
 62
1
100
AcDbPolyline
 90
2
 70
0
 10
246.144303
 20
589.869674
 30
0.0
 10
246.144303
 20
589.869674
 30
0.0
  0
SPLINE
  5
1d4
100
AcDbEntity
  8
0
 62
1
100
AcDbSpline
 70
8
 71
3
 72
8
 73
4
 74
0
 40
0
 40
0
 40
0
 40
0
 40
1
 40
1
 40
1
 40
1
 10
183.556186
 20
545.869673
 30
0.0
 10
183.556186
 20
544.212817
 30
0.0
 10
182.213039
 20
542.869673
 30
0.0
 10
180.556186
 20
542.869673
 30
0.0
  0
SPLINE
  5
1d5
100
AcDbEntity
  8
0
 62
1
100
AcDbSpline
 70
8
 71
3
 72
8
 73
4
 74
0
 40
0
 40
0
 40
0
 40
0
 40
1
 40
1
 40
1
 40
1
 10
180.556186
 20
542.869673
 30
0.0
 10
178.899333
 20
542.869673
 30
0.0
 10
177.556186
 20
544.212817
 30
0.0
 10
177.556186
 20
545.869673
 30
0.0
  0
SPLINE
  5
1d6
100
AcDbEntity
  8
0
 62
1
100
AcDbSpline
 70
8
 71
3
 72
8
 73
4
 74
0
 40
0
 40
0
 40
0
 40
0
 40
1
 40
1
 40
1
 40
1
 10
177.556186
 20
545.869673
 30
0.0
 10
177.556186
 20
547.526526
 30
0.0
 10
178.899333
 20
548.869673
 30
0.0
 10
180.556186
 20
548.869673
 30
0.0
  0
SPLINE
  5
1d7
100
AcDbEntity
  8
0
 62
1
100
AcDbSpline
 70
8
 71
3
 72
8
 73
4
 74
0
 40
0
 40
0
 40
0
 40
0
 40
1
 40
1
 40
1
 40
1
 10
180.556186
 20
548.869673
 30
0.0
 10
182.213039
 20
548.869673
 30
0.0
 10
183.556186
 20
547.526526
 30
0.0
 10
183.556186
 20
545.869673
 30
0.0
  0
LWPOLYLINE
  5
1d8
100
AcDbEntity
  8
0
 62
1
100
AcDbPolyline
 90
2
 70
0
 10
211.721893
 20
455.628130
 30
0.0
 10
211.721893
 20
455.628130
 30
0.0
  0
SPLINE
  5
1d9
100
AcDbEntity
  8
0
 62
1
100
AcDbSpline
 70
8
 71
3
 72
8
 73
4
 74
0
 40
0
 40
0
 40
0
 40
0
 40
1
 40
1
 40
1
 40
1
 10
223.556190
 20
545.869673
 30
0.0
 10
223.556190
 20
544.212817
 30
0.0
 10
222.213044
 20
542.869673
 30
0.0
 10
220.556191
 20
542.869673
 30
0.0
  0
SPLINE
  5
1da
100
AcDbEntity
  8
0
 62
1
100
AcDbSpline
 70
8
 71
3
 72
8
 73
4
 74
0
 40
0
 40
0
 40
0
 40
0
 40
1
 40
1
 40
1
 40
1
 10
220.556191
 20
542.869673
 30
0.0
 10
218.899337
 20
542.869673
 30
0.0
 10
217.556191
 20
544.212817
 30
0.0
 10
217.556191
 20
545.869673
 30
0.0
  0
SPLINE
  5
1db
100
AcDbEntity
  8
0
 62
1
100
AcDbSpline
 70
8
 71
3
 72
8
 73
4
 74
0
 40
0
 40
0
 40
0
 40
0
 40
1
 40
1
 40
1
 40
1
 10
217.556191
 20
545.869673
 30
0.0
 10
217.556191
 20
547.526526
 30
0.0
 10
218.899337
 20
548.869673
 30
0.0
 10
220.556191
 20
548.869673
 30
0.0
  0
SPLINE
  5
1dc
100
AcDbEntity
  8
0
 62
1
100
AcDbSpline
 70
8
 71
3
 72
8
 73
4
 74
0
 40
0
 40
0
 40
0
 40
0
 40
1
 40
1
 40
1
 40
1
 10
220.556191
 20
548.869673
 30
0.0
 10
222.213044
 20
548.869673
 30
0.0
 10
223.556190
 20
547.526526
 30
0.0
 10
223.556190
 20
545.869673
 30
0.0
  0
LWPOLYLINE
  5
1dd
100
AcDbEntity
  8
0
 62
1
100
AcDbPolyline
 90
2
 70
0
 10
183.556186
 20
545.869673
 30
0.0
 10
183.556186
 20
545.869673
 30
0.0
  0
SPLINE
  5
1de
100
AcDbEntity
  8
0
 62
1
100
AcDbSpline
 70
8
 71
3
 72
8
 73
4
 74
0
 40
0
 40
0
 40
0
 40
0
 40
1
 40
1
 40
1
 40
1
 10
183.556186
 20
585.869674
 30
0.0
 10
183.556186
 20
584.212820
 30
0.0
 10
182.213039
 20
582.869674
 30
0.0
 10
180.556186
 20
582.869674
 30
0.0
  0
SPLINE
  5
1df
100
AcDbEntity
  8
0
 62
1
100
AcDbSpline
 70
8
 71
3
 72
8
 73
4
 74
0
 40
0
 40
0
 40
0
 40
0
 40
1
 40
1
 40
1
 40
1
 10
180.556186
 20
582.869674
 30
0.0
 10
178.899333
 20
582.869674
 30
0.0
 10
177.556186
 20
584.212820
 30
0.0
 10
177.556186
 20
585.869674
 30
0.0
  0
SPLINE
  5
1e0
100
AcDbEntity
  8
0
 62
1
100
AcDbSpline
 70
8
 71
3
 72
8
 73
4
 74
0
 40
0
 40
0
 40
0
 40
0
 40
1
 40
1
 40
1
 40
1
 10
177.556186
 20
585.869674
 30
0.0
 10
177.556186
 20
587.526528
 30
0.0
 10
178.899333
 20
588.869674
 30
0.0
 10
180.556186
 20
588.869674
 30
0.0
  0
SPLINE
  5
1e1
100
AcDbEntity
  8
0
 62
1
100
AcDbSpline
 70
8
 71
3
 72
8
 73
4
 74
0
 40
0
 40
0
 40
0
 40
0
 40
1
 40
1
 40
1
 40
1
 10
180.556186
 20
588.869674
 30
0.0
 10
182.213039
 20
588.869674
 30
0.0
 10
183.556186
 20
587.526528
 30
0.0
 10
183.556186
 20
585.869674
 30
0.0
  0
LWPOLYLINE
  5
1e2
100
AcDbEntity
  8
0
 62
1
100
AcDbPolyline
 90
2
 70
0
 10
223.556190
 20
545.869673
 30
0.0
 10
223.556190
 20
545.869673
 30
0.0
  0
SPLINE
  5
1e3
100
AcDbEntity
  8
0
 62
1
100
AcDbSpline
 70
8
 71
3
 72
8
 73
4
 74
0
 40
0
 40
0
 40
0
 40
0
 40
1
 40
1
 40
1
 40
1
 10
223.556190
 20
585.869674
 30
0.0
 10
223.556190
 20
584.212820
 30
0.0
 10
222.213044
 20
582.869674
 30
0.0
 10
220.556191
 20
582.869674
 30
0.0
  0
SPLINE
  5
1e4
100
AcDbEntity
  8
0
 62
1
100
AcDbSpline
 70
8
 71
3
 72
8
 73
4
 74
0
 40
0
 40
0
 40
0
 40
0
 40
1
 40
1
 40
1
 40
1
 10
220.556191
 20
582.869674
 30
0.0
 10
218.899337
 20
582.869674
 30
0.0
 10
217.556191
 20
584.212820
 30
0.0
 10
217.556191
 20
585.869674
 30
0.0
  0
SPLINE
  5
1e5
100
AcDbEntity
  8
0
 62
1
100
AcDbSpline
 70
8
 71
3
 72
8
 73
4
 74
0
 40
0
 40
0
 40
0
 40
0
 40
1
 40
1
 40
1
 40
1
 10
217.556191
 20
585.869674
 30
0.0
 10
217.556191
 20
587.526528
 30
0.0
 10
218.899337
 20
588.869674
 30
0.0
 10
220.556191
 20
588.869674
 30
0.0
  0
SPLINE
  5
1e6
100
AcDbEntity
  8
0
 62
1
100
AcDbSpline
 70
8
 71
3
 72
8
 73
4
 74
0
 40
0
 40
0
 40
0
 40
0
 40
1
 40
1
 40
1
 40
1
 10
220.556191
 20
588.869674
 30
0.0
 10
222.213044
 20
588.869674
 30
0.0
 10
223.556190
 20
587.526528
 30
0.0
 10
223.556190
 20
585.869674
 30
0.0
  0
LWPOLYLINE
  5
1e7
100
AcDbEntity
  8
0
 62
1
100
AcDbPolyline
 90
2
 70
0
 10
183.556186
 20
585.869674
 30
0.0
 10
183.556186
 20
585.869674
 30
0.0
  0
LWPOLYLINE
  5
1e8
100
AcDbEntity
  8
0
 62
1
100
AcDbPolyline
 90
2
 70
0
 10
223.556190
 20
585.869674
 30
0.0
 10
223.556190
 20
585.869674
 30
0.0
  0
LWPOLYLINE
  5
1e9
100
AcDbEntity
  8
0
 62
1
100
AcDbPolyline
 90
25
 70
0
 10
28.626470
 20
591.869674
 30
0.0
 10
11.530189
 20
517.817549
 30
0.0
 10
20.786704
 20
515.680514
 30
0.0
 10
16.512634
 20
497.167482
 30
0.0
 10
53.538697
 20
488.619343
 30
0.0
 10
54.213549
 20
491.542454
 30
0.0
 10
72.726582
 20
487.268382
 30
0.0
 10
73.064007
 20
488.729938
 30
0.0
 10
91.577040
 20
484.455868
 30
0.0
 10
91.239612
 20
482.994313
 30
0.0
 10
109.752645
 20
478.720243
 30
0.0
 10
113.689286
 20
495.771718
 30
0.0
 10
132.202319
 20
491.497649
 30
0.0
 10
150.715349
 20
487.223579
 30
0.0
 10
157.126455
 20
514.993125
 30
0.0
 10
167.811629
 20
561.275704
 30
0.0
 10
130.785566
 20
569.823844
 30
0.0
 10
131.122994
 20
571.285399
 30
0.0
 10
112.609964
 20
575.559469
 30
0.0
 10
112.947389
 20
577.021024
 30
0.0
 10
94.434359
 20
581.295094
 30
0.0
 10
94.096931
 20
579.833539
 30
0.0
 10
75.583901
 20
584.107609
 30
0.0
 10
74.909046
 20
581.184499
 30
0.0
 10
28.626470
 20
591.869674
 30
0.0
  0
LWPOLYLINE
  5
1ea
100
AcDbEntity
  8
0
 62
1
100
AcDbPolyline
 90
25
 70
0
 10
372.485915
 20
591.869674
 30
0.0
 10
389.582175
 20
517.817549
 30
0.0
 10
380.325682
 20
515.680514
 30
0.0
 10
384.599740
 20
497.167482
 30
0.0
 10
347.573680
 20
488.619343
 30
0.0
 10
346.898830
 20
491.542454
 30
0.0
 10
328.385786
 20
487.268382
 30
0.0
 10
328.048361
 20
488.729938
 30
0.0
 10
309.535345
 20
484.455868
 30
0.0
 10
309.872770
 20
482.994313
 30
0.0
 10
291.359726
 20
478.720243
 30
0.0
 10
287.423093
 20
495.771718
 30
0.0
 10
268.910058
 20
491.497649
 30
0.0
 10
250.397025
 20
487.223579
 30
0.0
 10
243.985921
 20
514.993125
 30
0.0
 10
233.300745
 20
561.275704
 30
0.0
 10
270.326808
 20
569.823844
 30
0.0
 10
269.989383
 20
571.285399
 30
0.0
 10
288.502424
 20
575.559469
 30
0.0
 10
288.164999
 20
577.021024
 30
0.0
 10
306.678015
 20
581.295094
 30
0.0
 10
307.015440
 20
579.833539
 30
0.0
 10
325.528484
 20
584.107609
 30
0.0
 10
326.203333
 20
581.184499
 30
0.0
 10
372.485915
 20
591.869674
 30
0.0
  0
LWPOLYLINE
  5
1eb
100
AcDbEntity
  8
0
 62
1
100
AcDbPolyline
 90
7
 70
0
 10
109.193853
 20
459.139107
 30
0.0
 10
154.110465
 20
424.046402
 30
0.0
 10
189.203170
 20
468.963014
 30
0.0
 10
159.258763
 20
492.358150
 30
0.0
 10
147.561194
 20
477.385948
 30
0.0
 10
132.588989
 20
489.083514
 30
0.0
 10
109.193853
 20
459.139107
 30
0.0
  0
LWPOLYLINE
  5
1ec
100
AcDbEntity
  8
0
 62
1
100
AcDbPolyline
 90
7
 70
0
 10
291.918526
 20
459.139107
 30
0.0
 10
247.001909
 20
424.046402
 30
0.0
 10
211.909204
 20
468.963014
 30
0.0
 10
241.853614
 20
492.358150
 30
0.0
 10
253.551180
 20
477.385948
 30
0.0
 10
268.523385
 20
489.083514
 30
0.0
 10
291.918526
 20
459.139107
 30
0.0
  0
SPLINE
  5
1ed
100
AcDbEntity
  8
0
 62
1
100
AcDbSpline
 70
8
 71
3
 72
8
 73
4
 74
0
 40
0
 40
0
 40
0
 40
0
 40
1
 40
1
 40
1
 40
1
 10
28.626470
 20
596.869674
 30
0.0
 10
26.298365
 20
596.869675
 30
0.0
 10
24.278328
 20
595.262865
 30
0.0
 10
23.754619
 20
592.994429
 30
0.0
  0
LWPOLYLINE
  5
1ee
100
AcDbEntity
  8
0
 62
1
100
AcDbPolyline
 90
2
 70
0
 10
5.533583
 20
514.070454
 30
0.0
 10
23.754619
 20
592.994429
 30
0.0
  0
SPLINE
  5
1ef
100
AcDbEntity
  8
0
 62
1
100
AcDbSpline
 70
8
 71
3
 72
8
 73
4
 74
0
 40
0
 40
0
 40
0
 40
0
 40
1
 40
1
 40
1
 40
1
 10
377.357748
 20
592.994429
 30
0.0
 10
376.834040
 20
595.262858
 30
0.0
 10
374.814013
 20
596.869666
 30
0.0
 10
372.485915
 20
596.869674
 30
0.0
  0
LWPOLYLINE
  5
1f0
100
AcDbEntity
  8
0
 62
1
100
AcDbPolyline
 90
2
 70
0
 10
28.626470
 20
596.869674
 30
0.0
 10
372.485915
 20
596.869674
 30
0.0
  0
SPLINE
  5
1f1
100
AcDbEntity
  8
0
 62
1
100
AcDbSpline
 70
8
 71
3
 72
8
 73
4
 74
0
 40
0
 40
0
 40
0
 40
0
 40
1
 40
1
 40
1
 40
1
 10
237.703214
 20
428.922248
 30
0.0
 10
266.631595
 20
398.628500
 30
0.0
 10
312.241999
 20
391.412242
 30
0.0
 10
349.109242
 20
411.296124
 30
0.0
  0
SPLINE
  5
1f2
100
AcDbEntity
  8
0
 62
1
100
AcDbSpline
 70
8
 71
3
 72
8
 73
4
 74
0
 40
0
 40
0
 40
0
 40
0
 40
1
 40
1
 40
1
 40
1
 10
349.109242
 20
411.296124
 30
0.0
 10
385.976485
 20
431.180005
 30
0.0
 10
405.001448
 20
473.256532
 30
0.0
 10
395.578805
 20
514.070454
 30
0.0
  0
SPLINE
  5
1f3
100
AcDbEntity
  8
0
 62
1
100
AcDbSpline
 70
8
 71
3
 72
8
 73
4
 74
0
 40
0
 40
0
 40
0
 40
0
 40
1
 40
1
 40
1
 40
1
 10
237.703214
 20
428.922248
 30
0.0
 10
228.011575
 20
439.071311
 30
0.0
 10
214.589411
 20
444.813067
 30
0.0
 10
200.556188
 20
444.813067
 30
0.0
  0
SPLINE
  5
1f4
100
AcDbEntity
  8
0
 62
1
100
AcDbSpline
 70
8
 71
3
 72
8
 73
4
 74
0
 40
0
 40
0
 40
0
 40
0
 40
1
 40
1
 40
1
 40
1
 10
200.556188
 20
444.813067
 30
0.0
 10
186.522966
 20
444.813067
 30
0.0
 10
173.100801
 20
439.071311
 30
0.0
 10
163.409162
 20
428.922248
 30
0.0
  0
SPLINE
  5
1f5
100
AcDbEntity
  8
0
 62
1
100
AcDbSpline
 70
8
 71
3
 72
8
 73
4
 74
0
 40
0
 40
0
 40
0
 40
0
 40
1
 40
1
 40
1
 40
1
 10
5.533583
 20
514.070454
 30
0.0
 10
-3.889050
 20
473.256538
 30
0.0
 10
15.135912
 20
431.180021
 30
0.0
 10
52.003148
 20
411.296141
 30
0.0
  0
SPLINE
  5
1f6
100
AcDbEntity
  8
0
 62
1
100
AcDbSpline
 70
8
 71
3
 72
8
 73
4
 74
0
 40
0
 40
0
 40
0
 40
0
 40
1
 40
1
 40
1
 40
1
 10
52.003148
 20
411.296141
 30
0.0
 10
88.870384
 20
391.412262
 30
0.0
 10
134.480780
 20
398.628512
 30
0.0
 10
163.409162
 20
428.922248
 30
0.0
  0
LWPOLYLINE
  5
1f7
100
AcDbEntity
  8
0
 62
1
100
AcDbPolyline
 90
2
 70
0
 10
377.357748
 20
592.994429
 30
0.0
 10
395.578805
 20
514.070454
 30
0.0
  0
ENDSEC
  0
SECTION
  2
OBJECTS
  0
DICTIONARY
  5
C
330
0
100
AcDbDictionary
  3
ACAD_GROUP
350
D
  3
ACAD_MLINESTYLE
350
17
  0
DICTIONARY
  5
D
330
C
100
AcDbDictionary
  0
DICTIONARY
  5
1A
330
C
100
AcDbDictionary
  0
DICTIONARY
  5
17
330
C
100
AcDbDictionary
  3
STANDARD
350
18
  0
DICTIONARY
  5
19
330
C
100
AcDbDictionary
  0
ENDSEC
  0
EOF
