<?xml version="1.0" encoding="UTF-8" standalone="no"?>
<svg
   xmlns:dc="http://purl.org/dc/elements/1.1/"
   xmlns:cc="http://creativecommons.org/ns#"
   xmlns:rdf="http://www.w3.org/1999/02/22-rdf-syntax-ns#"
   xmlns:svg="http://www.w3.org/2000/svg"
   xmlns="http://www.w3.org/2000/svg"
   xmlns:sodipodi="http://sodipodi.sourceforge.net/DTD/sodipodi-0.dtd"
   xmlns:inkscape="http://www.inkscape.org/namespaces/inkscape"
   height="2125.9841"
   version="1.1"
   width="1417.3229"
   id="svg2"
   inkscape:version="0.48.4 r9939"
   sodipodi:docname="mcdox_5mm.svg">
  <metadata
     id="metadata56">
    <rdf:RDF>
      <cc:Work
         rdf:about="">
        <dc:format>image/svg+xml</dc:format>
        <dc:type
           rdf:resource="http://purl.org/dc/dcmitype/StillImage" />
        <dc:title />
      </cc:Work>
    </rdf:RDF>
  </metadata>
  <sodipodi:namedview
     pagecolor="#ffffff"
     bordercolor="#666666"
     borderopacity="1"
     objecttolerance="10"
     gridtolerance="10"
     guidetolerance="10"
     inkscape:pageopacity="0"
     inkscape:pageshadow="2"
     inkscape:window-width="1918"
     inkscape:window-height="1032"
     id="namedview54"
     showgrid="true"
     inkscape:zoom="0.41674817"
     inkscape:cx="708.66144"
     inkscape:cy="1062.9921"
     inkscape:window-x="0"
     inkscape:window-y="25"
     inkscape:window-maximized="1"
     inkscape:current-layer="svg2"
     inkscape:document-units="mm"
     units="mm"
     inkscape:showpageshadow="false">
    <inkscape:grid
       type="xygrid"
       id="grid3052"
       empspacing="5"
       visible="true"
       enabled="true"
       snapvisiblegridlinesonly="true"
       units="mm"
       spacingx="1mm"
       spacingy="1mm" />
  </sodipodi:namedview>
  <defs
     id="defs4" />
  <path
     transform="translate(-3.3442169,1419.1767)"
     style="fill:none;stroke:#ff0000;stroke-width:1.06299198;stroke-opacity:1"
     d="m 684.68845,499.06998 c 0,2.83752 -2.30026,5.13779 -5.13779,5.13779 -2.83753,0 -5.1378,-2.30027 -5.1378,-5.13779 0,-2.83753 2.30027,-5.1378 5.1378,-5.1378 2.83753,0 5.13779,2.30027 5.13779,5.1378 z"
     id="circle6" />
  <path
     transform="translate(-3.3442169,1419.1767)"
     style="fill:none;stroke:#ff0000;stroke-width:1.06299198;stroke-opacity:1"
     d="m 562.71928,23.410965 c 0,2.837526 -2.30027,5.137795 -5.1378,5.137795 -2.83752,0 -5.13779,-2.300269 -5.13779,-5.137795 0,-2.837526 2.30027,-5.137795 5.13779,-5.137795 2.83753,0 5.1378,2.300269 5.1378,5.137795 z"
     id="circle8" />
  <path
     transform="translate(-3.3442169,1419.1767)"
     style="fill:none;stroke:#ff0000;stroke-width:1.06299198;stroke-opacity:1"
     d="m 233.53692,23.410965 c 0,2.837526 -2.30027,5.137795 -5.1378,5.137795 -2.83752,0 -5.13779,-2.300269 -5.13779,-5.137795 0,-2.837526 2.30027,-5.137795 5.13779,-5.137795 2.83753,0 5.1378,2.300269 5.1378,5.137795 z"
     id="circle10" />
  <path
     transform="translate(-3.3442169,1419.1767)"
     style="fill:none;stroke:#ff0000;stroke-width:1.06299198;stroke-opacity:1"
     d="m 48.271291,314.83282 c 0,2.83753 -2.30027,5.1378 -5.137796,5.1378 -2.837526,0 -5.137795,-2.30027 -5.137795,-5.1378 0,-2.83752 2.300269,-5.13779 5.137795,-5.13779 2.837526,0 5.137796,2.30027 5.137796,5.13779 z"
     id="circle12" />
  <path
     transform="translate(-3.3442169,1419.1767)"
     style="fill:none;stroke:#ff0000;stroke-width:1.06299198;stroke-opacity:1"
     d="m 452.244,655.06207 c 0,2.83753 -2.30027,5.1378 -5.1378,5.1378 -2.83752,0 -5.13779,-2.30027 -5.13779,-5.1378 0,-2.83752 2.30027,-5.13779 5.13779,-5.13779 2.83753,0 5.1378,2.30027 5.1378,5.13779 z"
     id="circle14" />
  <path
     transform="translate(-3.3442169,1419.1767)"
     style="fill:none;stroke:#ff0000;stroke-width:1.06299198;stroke-opacity:1"
     d="m 87.971543,527.01379 c 0,2.83753 -2.300269,5.1378 -5.137795,5.1378 -2.837526,0 -5.137796,-2.30027 -5.137796,-5.1378 0,-2.83752 2.30027,-5.13779 5.137796,-5.13779 2.837526,0 5.137795,2.30027 5.137795,5.13779 z"
     id="circle16" />
  <path
     transform="translate(-3.3442169,1419.1767)"
     style="fill:none;stroke:#ff0000;stroke-width:1.06299198;stroke-opacity:1"
     d="m 1343.1701,527.01379 c 0,2.83753 -2.3002,5.1378 -5.1378,5.1378 -2.8375,0 -5.1377,-2.30027 -5.1377,-5.1378 0,-2.83752 2.3002,-5.13779 5.1377,-5.13779 2.8376,0 5.1378,2.30027 5.1378,5.13779 z"
     id="circle18" />
  <path
     transform="translate(-3.3442169,1419.1767)"
     style="fill:none;stroke:#ff0000;stroke-width:1.06299198;stroke-opacity:1"
     d="m 978.89774,655.06207 c 0,2.83753 -2.30027,5.1378 -5.13779,5.1378 -2.83753,0 -5.1378,-2.30027 -5.1378,-5.1378 0,-2.83752 2.30027,-5.13779 5.1378,-5.13779 2.83752,0 5.13779,2.30027 5.13779,5.13779 z"
     id="circle20" />
  <path
     transform="translate(-3.3442169,1419.1767)"
     style="fill:none;stroke:#ff0000;stroke-width:1.06299198;stroke-opacity:1"
     d="m 1382.8705,314.83282 c 0,2.83753 -2.3003,5.1378 -5.1378,5.1378 -2.8376,0 -5.1378,-2.30027 -5.1378,-5.1378 0,-2.83752 2.3002,-5.13779 5.1378,-5.13779 2.8375,0 5.1378,2.30027 5.1378,5.13779 z"
     id="circle22" />
  <path
     transform="translate(-3.3442169,1419.1767)"
     style="fill:none;stroke:#ff0000;stroke-width:1.06299198;stroke-opacity:1"
     d="m 1197.6048,23.410965 c 0,2.837526 -2.3002,5.137795 -5.1378,5.137795 -2.8375,0 -5.1378,-2.300269 -5.1378,-5.137795 0,-2.837526 2.3003,-5.137795 5.1378,-5.137795 2.8376,0 5.1378,2.300269 5.1378,5.137795 z"
     id="circle24" />
  <path
     transform="translate(-3.3442169,1419.1767)"
     style="fill:none;stroke:#ff0000;stroke-width:1.06299198;stroke-opacity:1"
     d="m 868.4224,23.410965 c 0,2.837526 -2.30027,5.137795 -5.13779,5.137795 -2.83753,0 -5.1378,-2.300269 -5.1378,-5.137795 0,-2.837526 2.30027,-5.137795 5.1378,-5.137795 2.83752,0 5.13779,2.300269 5.13779,5.137795 z"
     id="circle26" />
  <path
     transform="translate(-3.3442169,1419.1767)"
     style="fill:none;stroke:#ff0000;stroke-width:1.06299198;stroke-opacity:1"
     d="m 746.45329,499.06998 c 0,2.83752 -2.30027,5.13779 -5.1378,5.13779 -2.83753,0 -5.13779,-2.30027 -5.13779,-5.13779 0,-2.83753 2.30026,-5.1378 5.13779,-5.1378 2.83753,0 5.1378,2.30027 5.1378,5.1378 z"
     id="circle28" />
  <path
     transform="translate(-3.3442169,1419.1767)"
     style="fill:none;stroke:#ff0000;stroke-width:1.06299198;stroke-opacity:1"
     d="M 22.951402,291.99088 87.514125,12.338997"
     id="polyline30" />
  <path
     d="m 101.43237,1417.7845 a 17.716535,17.716535 0 0 0 -17.262462,13.7312"
     style="fill:none;stroke:#ff0000;stroke-width:1.06299198;stroke-opacity:1"
     id="path32"
     inkscape:connector-curvature="0" />
  <path
     transform="translate(-3.3442169,1419.1767)"
     style="fill:none;stroke:#ff0000;stroke-width:1.06299198;stroke-opacity:1"
     d="m 104.77659,-1.3921853 573.76672,0 0,17.7165353 -38.97638,0"
     id="polyline34" />
  <path
     d="m 636.22271,1435.5011 a 21.259843,21.259843 0 0 0 -21.25984,21.2598"
     style="fill:none;stroke:#ff0000;stroke-width:1.06299198;stroke-opacity:1"
     id="path36"
     inkscape:connector-curvature="0" />
  <path
     transform="translate(-3.3442169,1419.1767)"
     style="fill:none;stroke:#ff0000;stroke-width:1.06299198;stroke-opacity:1"
     d="m 618.30709,37.584193 0,85.816277 -18.22995,0 -131.19471,-30.288685 1.1956,-5.178738 -65.59735,-15.144343 1.1956,-5.178738 -69.04984,-15.941414 -1.19561,5.178739 -65.59735,-15.144343 -2.39122,10.357477 -147.59404,-34.074771 -61.374446,265.841916 1.254996,69.38344 328.03598,133.72385 161.94552,126.5257 126.5257,-161.94552 68.3942,0 126.5257,161.94552 161.94553,-126.5257 328.036,-133.72385 1.255,-69.38344 -61.3745,-265.841916 -147.594,34.074771 -2.3912,-10.357477 -65.5974,15.144343 -1.1956,-5.178739 -69.0498,15.941414 1.1956,5.178738 -65.59739,15.144343 1.19561,5.178738 -131.19471,30.288685 -18.22995,0 0,-85.816277"
     id="polyline38" />
  <path
     d="m 799.21483,1456.7609 a 21.259843,21.259843 0 0 0 -21.25984,-21.2598"
     style="fill:none;stroke:#ff0000;stroke-width:1.06299198;stroke-opacity:1"
     id="path40"
     inkscape:connector-curvature="0" />
  <path
     transform="translate(-3.3442169,1419.1767)"
     style="fill:none;stroke:#ff0000;stroke-width:1.06299198;stroke-opacity:1"
     d="m 781.29921,16.32435 -38.97638,0 0,-17.7165353 573.76677,0"
     id="polyline42" />
  <path
     d="m 1330.0078,1431.5157 a 17.716535,17.716535 0 0 0 -17.2624,-13.7312"
     style="fill:none;stroke:#ff0000;stroke-width:1.06299198;stroke-opacity:1"
     id="path44"
     inkscape:connector-curvature="0" />
  <path
     transform="translate(-3.3442169,1419.1767)"
     style="fill:none;stroke:#ff0000;stroke-width:1.06299198;stroke-opacity:1"
     d="m 1333.352,12.338997 64.5627,279.651883"
     id="polyline46" />
  <path
     d="M 835.16886,2012.8738 A 329.52756,329.52756 0 0 0 1394.5705,1711.1676"
     style="fill:none;stroke:#ff0000;stroke-width:1.06299198;stroke-opacity:1"
     id="path48"
     inkscape:connector-curvature="0" />
  <path
     d="m 835.16886,2012.8738 a 177.09767,177.09767 0 0 0 -256.16002,0"
     style="fill:none;stroke:#ff0000;stroke-width:1.06299198;stroke-opacity:1"
     id="path50"
     inkscape:connector-curvature="0" />
  <path
     d="M 19.607185,1711.1676 A 329.52756,329.52756 0 0 0 579.00884,2012.8738"
     style="fill:none;stroke:#ff0000;stroke-width:1.06299198;stroke-opacity:1"
     id="path52"
     inkscape:connector-curvature="0" />
  <path
     transform="translate(-3.3442169,715.83025)"
     style="fill:none;stroke:#ff0000;stroke-width:1.06299198;stroke-opacity:1"
     d="m 684.68845,499.06998 c 0,2.83752 -2.30026,5.13779 -5.13779,5.13779 -2.83753,0 -5.1378,-2.30027 -5.1378,-5.13779 0,-2.83753 2.30027,-5.1378 5.1378,-5.1378 2.83753,0 5.13779,2.30027 5.13779,5.1378 z"
     id="circle3280" />
  <path
     transform="translate(-3.3442169,715.83025)"
     style="fill:none;stroke:#ff0000;stroke-width:1.06299198;stroke-opacity:1"
     d="m 562.71928,23.410965 c 0,2.837526 -2.30027,5.137795 -5.1378,5.137795 -2.83752,0 -5.13779,-2.300269 -5.13779,-5.137795 0,-2.837526 2.30027,-5.137795 5.13779,-5.137795 2.83753,0 5.1378,2.300269 5.1378,5.137795 z"
     id="circle3282" />
  <path
     transform="translate(-3.3442169,715.83025)"
     style="fill:none;stroke:#ff0000;stroke-width:1.06299198;stroke-opacity:1"
     d="m 233.53692,23.410965 c 0,2.837526 -2.30027,5.137795 -5.1378,5.137795 -2.83752,0 -5.13779,-2.300269 -5.13779,-5.137795 0,-2.837526 2.30027,-5.137795 5.13779,-5.137795 2.83753,0 5.1378,2.300269 5.1378,5.137795 z"
     id="circle3284" />
  <path
     transform="translate(-3.3442169,715.83025)"
     style="fill:none;stroke:#ff0000;stroke-width:1.06299198;stroke-opacity:1"
     d="m 48.271291,314.83282 c 0,2.83753 -2.30027,5.1378 -5.137796,5.1378 -2.837526,0 -5.137795,-2.30027 -5.137795,-5.1378 0,-2.83752 2.300269,-5.13779 5.137795,-5.13779 2.837526,0 5.137796,2.30027 5.137796,5.13779 z"
     id="circle3286" />
  <path
     transform="translate(-3.3442169,715.83025)"
     style="fill:none;stroke:#ff0000;stroke-width:1.06299198;stroke-opacity:1"
     d="m 452.244,655.06207 c 0,2.83753 -2.30027,5.1378 -5.1378,5.1378 -2.83752,0 -5.13779,-2.30027 -5.13779,-5.1378 0,-2.83752 2.30027,-5.13779 5.13779,-5.13779 2.83753,0 5.1378,2.30027 5.1378,5.13779 z"
     id="circle3288" />
  <path
     transform="translate(-3.3442169,715.83025)"
     style="fill:none;stroke:#ff0000;stroke-width:1.06299198;stroke-opacity:1"
     d="m 87.971543,527.01379 c 0,2.83753 -2.300269,5.1378 -5.137795,5.1378 -2.837526,0 -5.137796,-2.30027 -5.137796,-5.1378 0,-2.83752 2.30027,-5.13779 5.137796,-5.13779 2.837526,0 5.137795,2.30027 5.137795,5.13779 z"
     id="circle3290" />
  <path
     transform="translate(-3.3442169,715.83025)"
     style="fill:none;stroke:#ff0000;stroke-width:1.06299198;stroke-opacity:1"
     d="m 1343.1701,527.01379 c 0,2.83753 -2.3002,5.1378 -5.1378,5.1378 -2.8375,0 -5.1377,-2.30027 -5.1377,-5.1378 0,-2.83752 2.3002,-5.13779 5.1377,-5.13779 2.8376,0 5.1378,2.30027 5.1378,5.13779 z"
     id="circle3292" />
  <path
     transform="translate(-3.3442169,715.83025)"
     style="fill:none;stroke:#ff0000;stroke-width:1.06299198;stroke-opacity:1"
     d="m 978.89774,655.06207 c 0,2.83753 -2.30027,5.1378 -5.13779,5.1378 -2.83753,0 -5.1378,-2.30027 -5.1378,-5.1378 0,-2.83752 2.30027,-5.13779 5.1378,-5.13779 2.83752,0 5.13779,2.30027 5.13779,5.13779 z"
     id="circle3294" />
  <path
     transform="translate(-3.3442169,715.83025)"
     style="fill:none;stroke:#ff0000;stroke-width:1.06299198;stroke-opacity:1"
     d="m 1382.8705,314.83282 c 0,2.83753 -2.3003,5.1378 -5.1378,5.1378 -2.8376,0 -5.1378,-2.30027 -5.1378,-5.1378 0,-2.83752 2.3002,-5.13779 5.1378,-5.13779 2.8375,0 5.1378,2.30027 5.1378,5.13779 z"
     id="circle3296" />
  <path
     transform="translate(-3.3442169,715.83025)"
     style="fill:none;stroke:#ff0000;stroke-width:1.06299198;stroke-opacity:1"
     d="m 1197.6048,23.410965 c 0,2.837526 -2.3002,5.137795 -5.1378,5.137795 -2.8375,0 -5.1378,-2.300269 -5.1378,-5.137795 0,-2.837526 2.3003,-5.137795 5.1378,-5.137795 2.8376,0 5.1378,2.300269 5.1378,5.137795 z"
     id="circle3298" />
  <path
     transform="translate(-3.3442169,715.83025)"
     style="fill:none;stroke:#ff0000;stroke-width:1.06299198;stroke-opacity:1"
     d="m 868.4224,23.410965 c 0,2.837526 -2.30027,5.137795 -5.13779,5.137795 -2.83753,0 -5.1378,-2.300269 -5.1378,-5.137795 0,-2.837526 2.30027,-5.137795 5.1378,-5.137795 2.83752,0 5.13779,2.300269 5.13779,5.137795 z"
     id="circle3300" />
  <path
     transform="translate(-3.3442169,715.83025)"
     style="fill:none;stroke:#ff0000;stroke-width:1.06299198;stroke-opacity:1"
     d="m 746.45329,499.06998 c 0,2.83752 -2.30027,5.13779 -5.1378,5.13779 -2.83753,0 -5.13779,-2.30027 -5.13779,-5.13779 0,-2.83753 2.30026,-5.1378 5.13779,-5.1378 2.83753,0 5.1378,2.30027 5.1378,5.1378 z"
     id="circle3302" />
  <path
     transform="translate(-3.3442169,715.83025)"
     style="fill:none;stroke:#ff0000;stroke-width:1.06299198;stroke-opacity:1"
     d="m 781.29921,16.32435 -141.73228,0"
     id="polyline3304" />
  <path
     d="m 636.22271,732.1546 a 21.259843,21.259843 0 0 0 -21.25984,21.25984"
     style="fill:none;stroke:#ff0000;stroke-width:1.06299198;stroke-opacity:1"
     id="path3306"
     inkscape:connector-curvature="0" />
  <path
     transform="translate(-3.3442169,715.83025)"
     style="fill:none;stroke:#ff0000;stroke-width:1.06299198;stroke-opacity:1"
     d="m 618.30709,37.584193 0,85.816277 -18.22995,0 -131.19471,-30.288685 1.1956,-5.178738 -65.59735,-15.144343 1.1956,-5.178738 -69.04984,-15.941414 -1.19561,5.178739 -65.59735,-15.144343 -2.39122,10.357477 -147.59404,-34.074771 -61.374446,265.841916 1.254996,69.38344 328.03598,133.72385 161.94552,126.5257 126.5257,-161.94552 68.3942,0 126.5257,161.94552 161.94553,-126.5257 328.036,-133.72385 1.255,-69.38344 -61.3745,-265.841916 -147.594,34.074771 -2.3912,-10.357477 -65.5974,15.144343 -1.1956,-5.178739 -69.0498,15.941414 1.1956,5.178738 -65.59739,15.144343 1.19561,5.178738 -131.19471,30.288685 -18.22995,0 0,-85.816277"
     id="polyline3308" />
  <path
     d="M 799.21483,753.41444 A 21.259843,21.259843 0 0 0 777.95499,732.1546"
     style="fill:none;stroke:#ff0000;stroke-width:1.06299198;stroke-opacity:1"
     id="path3310"
     inkscape:connector-curvature="0" />
  <path
     transform="translate(-3.3442169,715.83025)"
     style="fill:none;stroke:#ff0000;stroke-width:1.06299198;stroke-opacity:1"
     d="M 22.951402,291.99088 87.514125,12.338997"
     id="polyline3312" />
  <path
     d="M 101.43237,714.43806 A 17.716535,17.716535 0 0 0 84.169908,728.16925"
     style="fill:none;stroke:#ff0000;stroke-width:1.06299198;stroke-opacity:1"
     id="path3314"
     inkscape:connector-curvature="0" />
  <path
     transform="translate(-3.3442169,715.83025)"
     style="fill:none;stroke:#ff0000;stroke-width:1.06299198;stroke-opacity:1"
     d="m 104.77659,-1.3921853 1211.31301,0"
     id="polyline3316" />
  <path
     d="m 1330.0078,728.16925 a 17.716535,17.716535 0 0 0 -17.2624,-13.73119"
     style="fill:none;stroke:#ff0000;stroke-width:1.06299198;stroke-opacity:1"
     id="path3318"
     inkscape:connector-curvature="0" />
  <path
     transform="translate(-3.3442169,715.83025)"
     style="fill:none;stroke:#ff0000;stroke-width:1.06299198;stroke-opacity:1"
     d="m 1333.352,12.338997 64.5627,279.651883"
     id="polyline3320" />
  <path
     d="M 835.16886,1309.5274 A 329.52756,329.52756 0 0 0 1394.5705,1007.8211"
     style="fill:none;stroke:#ff0000;stroke-width:1.06299198;stroke-opacity:1"
     id="path3322"
     inkscape:connector-curvature="0" />
  <path
     d="m 835.16886,1309.5274 a 177.09767,177.09767 0 0 0 -256.16002,0"
     style="fill:none;stroke:#ff0000;stroke-width:1.06299198;stroke-opacity:1"
     id="path3324"
     inkscape:connector-curvature="0" />
  <path
     d="M 19.607185,1007.8211 A 329.52756,329.52756 0 0 0 579.00884,1309.5274"
     style="fill:none;stroke:#ff0000;stroke-width:1.06299198;stroke-opacity:1"
     id="path3326"
     inkscape:connector-curvature="0" />
  <path
     transform="translate(-3.3442169,12.483797)"
     style="fill:none;stroke:#ff0000;stroke-width:1.06299198;stroke-opacity:1"
     d="m 684.68845,499.06998 c 0,2.83752 -2.30026,5.13779 -5.13779,5.13779 -2.83753,0 -5.1378,-2.30027 -5.1378,-5.13779 0,-2.83753 2.30027,-5.1378 5.1378,-5.1378 2.83753,0 5.13779,2.30027 5.13779,5.1378 z"
     id="circle6-5" />
  <path
     transform="translate(-3.3442169,12.483797)"
     style="fill:none;stroke:#ff0000;stroke-width:1.06299198;stroke-opacity:1"
     d="m 562.71928,23.410965 c 0,2.837526 -2.30027,5.137795 -5.1378,5.137795 -2.83752,0 -5.13779,-2.300269 -5.13779,-5.137795 0,-2.837526 2.30027,-5.137795 5.13779,-5.137795 2.83753,0 5.1378,2.300269 5.1378,5.137795 z"
     id="circle8-9" />
  <path
     transform="translate(-3.3442169,12.483797)"
     style="fill:none;stroke:#ff0000;stroke-width:1.06299198;stroke-opacity:1"
     d="m 233.53692,23.410965 c 0,2.837526 -2.30027,5.137795 -5.1378,5.137795 -2.83752,0 -5.13779,-2.300269 -5.13779,-5.137795 0,-2.837526 2.30027,-5.137795 5.13779,-5.137795 2.83753,0 5.1378,2.300269 5.1378,5.137795 z"
     id="circle10-1" />
  <path
     transform="translate(-3.3442169,12.483797)"
     style="fill:none;stroke:#ff0000;stroke-width:1.06299198;stroke-opacity:1"
     d="m 48.271291,314.83282 c 0,2.83753 -2.30027,5.1378 -5.137796,5.1378 -2.837526,0 -5.137795,-2.30027 -5.137795,-5.1378 0,-2.83752 2.300269,-5.13779 5.137795,-5.13779 2.837526,0 5.137796,2.30027 5.137796,5.13779 z"
     id="circle12-7" />
  <path
     transform="translate(-3.3442169,12.483797)"
     style="fill:none;stroke:#ff0000;stroke-width:1.06299198;stroke-opacity:1"
     d="m 452.244,655.06207 c 0,2.83753 -2.30027,5.1378 -5.1378,5.1378 -2.83752,0 -5.13779,-2.30027 -5.13779,-5.1378 0,-2.83752 2.30027,-5.13779 5.13779,-5.13779 2.83753,0 5.1378,2.30027 5.1378,5.13779 z"
     id="circle14-9" />
  <path
     transform="translate(-3.3442169,12.483797)"
     style="fill:none;stroke:#ff0000;stroke-width:1.06299198;stroke-opacity:1"
     d="m 87.971543,527.01379 c 0,2.83753 -2.300269,5.1378 -5.137795,5.1378 -2.837526,0 -5.137796,-2.30027 -5.137796,-5.1378 0,-2.83752 2.30027,-5.13779 5.137796,-5.13779 2.837526,0 5.137795,2.30027 5.137795,5.13779 z"
     id="circle16-1" />
  <path
     transform="translate(-3.3442169,12.483797)"
     style="fill:none;stroke:#ff0000;stroke-width:1.06299198;stroke-opacity:1"
     d="m 1343.1701,527.01379 c 0,2.83753 -2.3002,5.1378 -5.1378,5.1378 -2.8375,0 -5.1377,-2.30027 -5.1377,-5.1378 0,-2.83752 2.3002,-5.13779 5.1377,-5.13779 2.8376,0 5.1378,2.30027 5.1378,5.13779 z"
     id="circle18-2" />
  <path
     transform="translate(-3.3442169,12.483797)"
     style="fill:none;stroke:#ff0000;stroke-width:1.06299198;stroke-opacity:1"
     d="m 978.89774,655.06207 c 0,2.83753 -2.30027,5.1378 -5.13779,5.1378 -2.83753,0 -5.1378,-2.30027 -5.1378,-5.1378 0,-2.83752 2.30027,-5.13779 5.1378,-5.13779 2.83752,0 5.13779,2.30027 5.13779,5.13779 z"
     id="circle20-3" />
  <path
     transform="translate(-3.3442169,12.483797)"
     style="fill:none;stroke:#ff0000;stroke-width:1.06299198;stroke-opacity:1"
     d="m 1382.8705,314.83282 c 0,2.83753 -2.3003,5.1378 -5.1378,5.1378 -2.8376,0 -5.1378,-2.30027 -5.1378,-5.1378 0,-2.83752 2.3002,-5.13779 5.1378,-5.13779 2.8375,0 5.1378,2.30027 5.1378,5.13779 z"
     id="circle22-6" />
  <path
     transform="translate(-3.3442169,12.483797)"
     style="fill:none;stroke:#ff0000;stroke-width:1.06299198;stroke-opacity:1"
     d="m 1197.6048,23.410965 c 0,2.837526 -2.3002,5.137795 -5.1378,5.137795 -2.8375,0 -5.1378,-2.300269 -5.1378,-5.137795 0,-2.837526 2.3003,-5.137795 5.1378,-5.137795 2.8376,0 5.1378,2.300269 5.1378,5.137795 z"
     id="circle24-7" />
  <path
     transform="translate(-3.3442169,12.483797)"
     style="fill:none;stroke:#ff0000;stroke-width:1.06299198;stroke-opacity:1"
     d="m 868.4224,23.410965 c 0,2.837526 -2.30027,5.137795 -5.13779,5.137795 -2.83753,0 -5.1378,-2.300269 -5.1378,-5.137795 0,-2.837526 2.30027,-5.137795 5.1378,-5.137795 2.83752,0 5.13779,2.300269 5.13779,5.137795 z"
     id="circle26-2" />
  <path
     transform="translate(-3.3442169,12.483797)"
     style="fill:none;stroke:#ff0000;stroke-width:1.06299198;stroke-opacity:1"
     d="m 746.45329,499.06998 c 0,2.83752 -2.30027,5.13779 -5.1378,5.13779 -2.83753,0 -5.13779,-2.30027 -5.13779,-5.13779 0,-2.83753 2.30026,-5.1378 5.13779,-5.1378 2.83753,0 5.1378,2.30027 5.1378,5.1378 z"
     id="circle28-1" />
  <path
     transform="translate(-3.3442169,12.483797)"
     style="fill:none;stroke:#ff0000;stroke-width:1.06299198;stroke-opacity:1"
     d="m 650.19688,179.31648 c 0,5.87075 -4.75918,10.62992 -10.62992,10.62992 -5.87075,0 -10.62993,-4.75917 -10.62993,-10.62992 0,-5.87074 4.75918,-10.62992 10.62993,-10.62992 5.87074,0 10.62992,4.75918 10.62992,10.62992 z"
     id="circle30" />
  <path
     transform="translate(-3.3442169,12.483797)"
     style="fill:none;stroke:#ff0000;stroke-width:1.06299198;stroke-opacity:1"
     d="m 791.92912,179.31648 c 0,5.87075 -4.75918,10.62992 -10.62993,10.62992 -5.87074,0 -10.62992,-4.75917 -10.62992,-10.62992 0,-5.87074 4.75918,-10.62992 10.62992,-10.62992 5.87075,0 10.62993,4.75918 10.62993,10.62992 z"
     id="circle32" />
  <path
     transform="translate(-3.3442169,12.483797)"
     style="fill:none;stroke:#ff0000;stroke-width:1.06299198;stroke-opacity:1"
     d="m 650.19688,37.584194 c 0,5.870743 -4.75918,10.629921 -10.62992,10.629921 -5.87075,0 -10.62993,-4.759178 -10.62993,-10.629921 0,-5.870743 4.75918,-10.629921 10.62993,-10.629921 5.87074,0 10.62992,4.759178 10.62992,10.629921 z"
     id="circle34" />
  <path
     transform="translate(-3.3442169,12.483797)"
     style="fill:none;stroke:#ff0000;stroke-width:1.06299198;stroke-opacity:1"
     d="m 791.92912,37.584194 c 0,5.870743 -4.75918,10.629921 -10.62993,10.629921 -5.87074,0 -10.62992,-4.759178 -10.62992,-10.629921 0,-5.870743 4.75918,-10.629921 10.62992,-10.629921 5.87075,0 10.62993,4.759178 10.62993,10.629921 z"
     id="circle36" />
  <path
     transform="translate(-3.3442169,12.483797)"
     style="fill:none;stroke:#ff0000;stroke-width:1.06299198;stroke-opacity:1"
     d="m 104.77659,16.32435 -60.577373,262.38942 32.798677,7.57217 -15.144343,65.59736 131.194709,30.28868 2.39121,-10.35748 65.59736,15.14435 1.1956,-5.17874 65.59736,15.14434 -1.19561,5.17874 65.59736,15.14434 13.94873,-60.41861 65.59736,15.14434 65.59735,15.14434 22.71652,-98.39603 37.86085,-163.99339 -131.19471,-30.288684 1.19561,-5.178738 -65.59735,-15.144343 1.1956,-5.178739 -65.59735,-15.144342 -1.19561,5.178738 L 271.16119,43.82773 268.76997,54.185207 104.77659,16.32435"
     id="polyline38-2" />
  <path
     transform="translate(-3.3442169,12.483797)"
     style="fill:none;stroke:#ff0000;stroke-width:1.06299198;stroke-opacity:1"
     d="m 1316.0896,16.32435 60.5773,262.38942 -32.7987,7.57217 15.1444,65.59736 -131.1947,30.28868 -2.3912,-10.35748 -65.5974,15.14435 -1.1956,-5.17874 -65.5973,15.14434 1.1956,5.17874 -65.5974,15.14434 -13.9487,-60.41861 -65.59739,15.14434 -65.59735,15.14434 -22.71652,-98.39603 -37.86085,-163.99339 131.19471,-30.288684 -1.19561,-5.178738 65.59731,-15.144343 -1.1956,-5.178739 65.5974,-15.144342 1.1956,5.178738 65.5974,-15.144342 2.3912,10.357477 163.9934,-37.860857"
     id="polyline40" />
  <path
     transform="translate(-3.3442169,12.483797)"
     style="fill:none;stroke:#ff0000;stroke-width:1.06299198;stroke-opacity:1"
     d="M 390.25157,486.62951 549.40492,610.97374 673.74915,451.82039 567.64692,368.92424 526.19884,421.97535 473.14772,380.52728 390.25157,486.62951"
     id="polyline42-9" />
  <path
     transform="translate(-3.3442169,12.483797)"
     style="fill:none;stroke:#ff0000;stroke-width:1.06299198;stroke-opacity:1"
     d="M 1030.6146,486.62951 871.46122,610.97374 747.11699,451.82039 l 106.10223,-82.89615 41.44808,53.05111 53.05112,-41.44807 82.89618,106.10223"
     id="polyline44" />
  <path
     transform="translate(-3.3442169,12.483797)"
     style="fill:none;stroke:#ff0000;stroke-width:1.06299198;stroke-opacity:1"
     d="M 22.951402,291.99088 87.514125,12.338997"
     id="polyline46-0" />
  <path
     d="M 101.43237,11.091612 A 17.716535,17.716535 0 0 0 84.169908,24.822794"
     style="fill:none;stroke:#ff0000;stroke-width:1.06299198;stroke-opacity:1"
     id="path48-4"
     inkscape:connector-curvature="0" />
  <path
     transform="translate(-3.3442169,12.483797)"
     style="fill:none;stroke:#ff0000;stroke-width:1.06299198;stroke-opacity:1"
     d="m 104.77659,-1.3921853 1211.31301,0"
     id="polyline50" />
  <path
     d="M 1330.0078,24.822794 A 17.716535,17.716535 0 0 0 1312.7454,11.091612"
     style="fill:none;stroke:#ff0000;stroke-width:1.06299198;stroke-opacity:1"
     id="path52-3"
     inkscape:connector-curvature="0" />
  <path
     transform="translate(-3.3442169,12.483797)"
     style="fill:none;stroke:#ff0000;stroke-width:1.06299198;stroke-opacity:1"
     d="m 1333.352,12.338997 64.5627,279.651883"
     id="polyline54" />
  <path
     d="M 835.16886,606.18092 A 329.52756,329.52756 0 0 0 1394.5705,304.47468"
     style="fill:none;stroke:#ff0000;stroke-width:1.06299198;stroke-opacity:1"
     id="path56"
     inkscape:connector-curvature="0" />
  <path
     d="m 835.16886,606.18092 a 177.09767,177.09767 0 0 0 -256.16002,0"
     style="fill:none;stroke:#ff0000;stroke-width:1.06299198;stroke-opacity:1"
     id="path58"
     inkscape:connector-curvature="0" />
  <path
     d="M 19.607185,304.47468 A 329.52756,329.52756 0 0 0 579.00884,606.18092"
     style="fill:none;stroke:#ff0000;stroke-width:1.06299198;stroke-opacity:1"
     id="path60"
     inkscape:connector-curvature="0" />
</svg>
