<?xml version="1.0" encoding="utf-8" ?>
<svg baseProfile="full" height="200mm" version="1.1" width="400mm" xmlns="http://www.w3.org/2000/svg" xmlns:ev="http://www.w3.org/2001/xml-events" xmlns:xlink="http://www.w3.org/1999/xlink"><defs /><polyline points="434.486767612,466.557103411 432.305289944,469.349267498 421.97428282,461.277800125 456.223482215,417.44082395 466.554489339,425.512291323 464.37301167,428.304455411 481.963645422,442.047764722 484.145123091,439.255600635 494.476130215,447.327068008 460.22693082,491.164044183 449.895923696,483.09257681 452.077401364,480.300412722 434.486767612,466.557103411" style="fill:none;stroke:#ff0000;stroke-opacity:1;stroke-width:1.062992" /><polyline points="487.537885276,508.005179112 485.356407608,510.797343199 475.025400484,502.725875826 509.274599879,458.888899651 519.605607003,466.960367024 517.424129335,469.752531112 535.014763086,483.495840423 537.196240755,480.703676336 547.527247879,488.775143709 513.278048484,532.612119884 502.94704136,524.540652511 505.128519028,521.748488423 487.537885276,508.005179112" style="fill:none;stroke:#ff0000;stroke-opacity:1;stroke-width:1.062992" /><polyline points="531.348734651,539.985705396 528.556570563,537.804227727 536.628037936,527.473220603 580.465014111,561.722419998 572.393546738,572.053427122 569.601382651,569.871949454 555.858073339,587.462583206 558.650237427,589.644060874 550.578770053,599.975067998 506.741793878,565.725868603 514.813261252,555.394861479 517.605425339,557.576339147 531.348734651,539.985705396" style="fill:none;stroke:#ff0000;stroke-opacity:1;stroke-width:1.062992" /><polyline points="572.796810352,486.934587732 570.004646264,484.753110063 578.076113637,474.422102939 621.913089813,508.671302334 613.841622439,519.002309458 611.049458352,516.82083179 597.30614904,534.411465542 600.098313128,536.59294321 592.026845754,546.923950334 548.189869579,512.674750939 556.261336953,502.343743815 559.05350104,504.525221483 572.796810352,486.934587732" style="fill:none;stroke:#ff0000;stroke-opacity:1;stroke-width:1.062992" /><polyline points="614.244886053,433.883470068 611.452721965,431.701992399 619.524189339,421.370985275 663.361165514,455.62018467 655.28969814,465.951191794 652.497534053,463.769714126 638.754224741,481.360347877 641.546388829,483.541825546 633.474921455,493.87283267 589.63794528,459.623633275 597.709412654,449.292626151 600.501576741,451.474103819 614.244886053,433.883470068" style="fill:none;stroke:#ff0000;stroke-opacity:1;stroke-width:1.062992" /><polyline points="561.193768389,392.435394366 558.401604301,390.253916698 566.473071674,379.922909574 610.31004785,414.172108969 602.238580476,424.503116093 599.446416389,422.321638425 585.703107077,439.912272176 588.495271165,442.093749845 580.423803791,452.424756969 536.586827616,418.175557574 544.65829499,407.84455045 547.450459077,410.026028118 561.193768389,392.435394366" style="fill:none;stroke:#ff0000;stroke-opacity:1;stroke-width:1.062992" /><polyline points="536.442705171,133.619402413 532.990212815,132.822331748 535.939374276,120.048110032 590.143504258,132.562119473 587.194342797,145.336341188 583.741850442,144.539270523 578.720305252,166.289972363 582.172797608,167.087043028 579.223636147,179.861264744 525.019506165,167.347255303 527.968667626,154.573033588 531.421159981,155.370104253 536.442705171,133.619402413" style="fill:none;stroke:#ff0000;stroke-opacity:1;stroke-width:1.062992" /><polyline points="522.315791943,253.090180873 521.518721278,256.542673228 508.744499562,253.593511768 521.258509002,199.389381786 534.032730718,202.338543246 533.235660053,205.791035602 554.986361893,210.812580791 555.783432558,207.360088436 568.557654273,210.309249896 556.043644833,264.513379878 543.269423117,261.564218418 544.066493782,258.111726062 522.315791943,253.090180873" style="fill:none;stroke:#ff0000;stroke-opacity:1;stroke-width:1.062992" /><polyline points="499.59927799,351.486213006 498.802207325,354.938705361 486.02798561,351.989543901 498.54199505,297.785413919 511.316216766,300.734575379 510.519146101,304.187067735 532.26984794,309.208612924 533.066918605,305.756120569 545.841140321,308.705282029 533.32713088,362.909412011 520.552909165,359.960250551 521.34997983,356.507758195 499.59927799,351.486213006" style="fill:none;stroke:#ff0000;stroke-opacity:1;stroke-width:1.062992" /><polyline points="470.845350415,118.475059778 467.39285806,117.677989113 470.34201952,104.903767397 524.546149502,117.417776838 521.596988042,130.191998553 518.144495686,129.394927888 513.122950497,151.145629728 516.575442852,151.942700393 513.626281392,164.716922109 459.42215141,152.202912668 462.37131287,139.428690953 465.823805226,140.225761618 470.845350415,118.475059778" style="fill:none;stroke:#ff0000;stroke-opacity:1;stroke-width:1.062992" /><polyline points="455.701007781,184.072414533 452.248515425,183.275343868 455.197676885,170.501122153 509.401806867,183.015131593 506.452645407,195.789353309 503.000153051,194.992282644 497.978607862,216.742984483 501.431100217,217.540055148 498.481938757,230.314276864 444.277808775,217.800267423 447.226970235,205.026045708 450.679462591,205.823116373 455.701007781,184.072414533" style="fill:none;stroke:#ff0000;stroke-opacity:1;stroke-width:1.062992" /><polyline points="440.556665146,249.669769288 437.10417279,248.872698623 440.053334251,236.098476908 494.257464232,248.612486348 491.308302772,261.386708064 487.855810416,260.589637399 482.834265227,282.340339239 486.286757582,283.137409904 483.337596122,295.911631619 429.13346614,283.397622179 432.082627601,270.623400463 435.535119956,271.420471128 440.556665146,249.669769288" style="fill:none;stroke:#ff0000;stroke-opacity:1;stroke-width:1.062992" /><polyline points="425.412322511,315.267124044 421.959830155,314.470053379 424.908991616,301.695831663 479.113121597,314.209841104 476.163960137,326.984062819 472.711467781,326.186992154 467.689922592,347.937693994 471.142414948,348.734764659 468.193253487,361.508986374 413.989123505,348.994976934 416.938284966,336.220755218 420.390777321,337.017825883 425.412322511,315.267124044" style="fill:none;stroke:#ff0000;stroke-opacity:1;stroke-width:1.062992" /><polyline points="406.443601658,98.1519786096 402.991109302,97.3549079446 405.940270763,84.5806862291 460.144400745,97.0946956696 457.195239284,109.868917385 453.742746929,109.07184672 448.721201739,130.82254856 452.173694095,131.619619225 449.224532634,144.39384094 395.020402652,131.8798315 397.969564113,119.105609785 401.422056468,119.90268045 406.443601658,98.1519786096" style="fill:none;stroke:#ff0000;stroke-opacity:1;stroke-width:1.062992" /><polyline points="391.299259023,163.749333365 387.846766667,162.9522627 390.795928128,150.178040984 445.00005811,162.692050425 442.050896649,175.46627214 438.598404294,174.669201475 433.576859104,196.419903315 437.02935146,197.21697398 434.080189999,209.991195696 379.876060017,197.477186255 382.825221478,184.70296454 386.277713833,185.500035205 391.299259023,163.749333365" style="fill:none;stroke:#ff0000;stroke-opacity:1;stroke-width:1.062992" /><polyline points="376.154916388,229.34668812 372.702424032,228.549617455 375.651585493,215.77539574 429.855715475,228.28940518 426.906554014,241.063626896 423.454061659,240.266556231 418.432516469,262.01725807 421.885008825,262.814328735 418.935847364,275.588550451 364.731717382,263.07454101 367.680878843,250.300319295 371.133371198,251.09738996 376.154916388,229.34668812" style="fill:none;stroke:#ff0000;stroke-opacity:1;stroke-width:1.062992" /><polyline points="361.010573753,294.944042875 357.558081397,294.14697221 360.507242858,281.372750495 414.71137284,293.886759935 411.762211379,306.660981651 408.309719024,305.863910986 403.288173834,327.614612826 406.74066619,328.411683491 403.791504729,341.185905206 349.587374747,328.671895766 352.536536208,315.89767405 355.989028563,316.694744715 361.010573753,294.944042875" style="fill:none;stroke:#ff0000;stroke-opacity:1;stroke-width:1.062992" /><polyline points="345.866231118,360.541397631 342.413738762,359.744326966 345.362900223,346.97010525 399.567030205,359.484114691 396.617868744,372.258336406 393.165376389,371.461265741 388.143831199,393.211967581 391.596323555,394.009038246 388.647162094,406.783259961 334.443032112,394.269250521 337.392193573,381.495028805 340.844685928,382.29209947 345.866231118,360.541397631" style="fill:none;stroke:#ff0000;stroke-opacity:1;stroke-width:1.062992" /><polyline points="342.0418529,77.8288974414 338.589360544,77.0318267764 341.538522005,64.2576050609 395.742651987,76.7716145013 392.793490526,89.5458362168 389.340998171,88.7487655518 384.319452981,110.499467392 387.771945337,111.296538057 384.822783876,124.070759772 330.618653894,111.556750332 333.567815355,98.7825286162 337.020307711,99.5795992812 342.0418529,77.8288974414" style="fill:none;stroke:#ff0000;stroke-opacity:1;stroke-width:1.062992" /><polyline points="326.897510265,143.426252197 323.44501791,142.629181532 326.39417937,129.854959816 380.598309352,142.368969257 377.649147891,155.143190972 374.196655536,154.346120307 369.175110346,176.096822147 372.627602702,176.893892812 369.678441241,189.668114527 315.47431126,177.154105087 318.42347272,164.379883371 321.875965076,165.176954036 326.897510265,143.426252197" style="fill:none;stroke:#ff0000;stroke-opacity:1;stroke-width:1.062992" /><polyline points="311.75316763,209.023606952 308.300675275,208.226536287 311.249836735,195.452314571 365.453966717,207.966324012 362.504805256,220.740545727 359.052312901,219.943475062 354.030767711,241.694176902 357.483260067,242.491247567 354.534098607,255.265469283 300.329968625,242.751459842 303.279130085,229.977238127 306.731622441,230.774308792 311.75316763,209.023606952" style="fill:none;stroke:#ff0000;stroke-opacity:1;stroke-width:1.062992" /><polyline points="296.608824995,274.620961707 293.15633264,273.823891042 296.1054941,261.049669327 350.309624082,273.563678767 347.360462622,286.337900483 343.907970266,285.540829818 338.886425077,307.291531657 342.338917432,308.088602322 339.389755972,320.862824038 285.18562599,308.348814597 288.13478745,295.574592882 291.587279806,296.371663547 296.608824995,274.620961707" style="fill:none;stroke:#ff0000;stroke-opacity:1;stroke-width:1.062992" /><polyline points="281.46448236,340.218316462 278.011990005,339.421245797 280.961151465,326.647024082 335.165281447,339.161033522 332.216119987,351.935255238 328.763627631,351.138184573 323.742082442,372.888886413 327.194574797,373.685957078 324.245413337,386.460178793 270.041283355,373.946169353 272.990444815,361.171947637 276.442937171,361.969018302 281.46448236,340.218316462" style="fill:none;stroke:#ff0000;stroke-opacity:1;stroke-width:1.062992" /><polyline points="275.248892147,67.8632933397 271.796399792,67.0662226747 274.745561252,54.2920009592 328.949691234,66.8060103997 326.000529774,79.5802321152 322.548037418,78.7831614502 317.526492229,100.53386329 320.978984584,101.330933955 318.029823124,114.105155671 263.825693142,101.59114623 266.774854602,88.8169245146 270.227346958,89.6139951796 275.248892147,67.8632933397" style="fill:none;stroke:#ff0000;stroke-opacity:1;stroke-width:1.062992" /><polyline points="260.104549512,133.460648095 256.652057157,132.66357743 259.601218617,119.889355714 313.805348599,132.403365155 310.856187139,145.17758687 307.403694783,144.380516205 302.382149594,166.131218045 305.834641949,166.92828871 302.885480489,179.702510426 248.681350507,167.188500985 251.630511967,154.41427927 255.083004323,155.211349935 260.104549512,133.460648095" style="fill:none;stroke:#ff0000;stroke-opacity:1;stroke-width:1.062992" /><polyline points="244.960206877,199.05800285 241.507714522,198.260932185 244.456875982,185.48671047 298.661005964,198.00071991 295.711844504,210.774941626 292.259352148,209.977870961 287.237806959,231.728572801 290.690299314,232.525643466 287.741137854,245.299865181 233.537007872,232.785855741 236.486169332,220.011634025 239.938661688,220.80870469 244.960206877,199.05800285" style="fill:none;stroke:#ff0000;stroke-opacity:1;stroke-width:1.062992" /><polyline points="229.815864242,264.655357605 226.363371887,263.85828694 229.312533347,251.084065225 283.516663329,263.598074665 280.567501869,276.372296381 277.115009513,275.575225716 272.093464324,297.325927556 275.545956679,298.122998221 272.596795219,310.897219936 218.392665237,298.383210496 221.341826697,285.60898878 224.794319053,286.406059445 229.815864242,264.655357605" style="fill:none;stroke:#ff0000;stroke-opacity:1;stroke-width:1.062992" /><polyline points="214.671521607,330.252712361 211.219029252,329.455641696 214.168190712,316.68141998 268.372320694,329.195429421 265.423159234,341.969651136 261.970666878,341.172580471 256.949121689,362.923282311 260.401614044,363.720352976 257.452452584,376.494574691 203.248322602,363.980565251 206.197484062,351.206343535 209.649976418,352.0034142 214.671521607,330.252712361" style="fill:none;stroke:#ff0000;stroke-opacity:1;stroke-width:1.062992" /><polyline points="207.260325397,63.0764277714 203.807833042,62.2793571064 206.756994502,49.5051353909 260.961124484,62.0191448313 258.011963023,74.7933665468 254.559470668,73.9962958818 249.537925478,95.7469977217 252.990417834,96.5440683867 250.041256373,109.318290102 195.837126392,96.8042806617 198.786287852,84.0300589462 202.238780208,84.8271296112 207.260325397,63.0764277714" style="fill:none;stroke:#ff0000;stroke-opacity:1;stroke-width:1.062992" /><polyline points="192.115982762,128.673782527 188.663490407,127.876711862 191.612651867,115.102490146 245.816781849,127.616499587 242.867620389,140.390721302 239.415128033,139.593650637 234.393582843,161.344352477 237.846075199,162.141423142 234.896913739,174.915644857 180.692783757,162.401635417 183.641945217,149.627413701 187.094437573,150.424484366 192.115982762,128.673782527" style="fill:none;stroke:#ff0000;stroke-opacity:1;stroke-width:1.062992" /><polyline points="176.971640127,194.271137282 173.519147772,193.474066617 176.468309232,180.699844901 230.672439214,193.213854342 227.723277754,205.988076057 224.270785398,205.191005392 219.249240209,226.941707232 222.701732564,227.738777897 219.752571104,240.512999613 165.548441122,227.998990172 168.497602582,215.224768457 171.950094938,216.021839122 176.971640127,194.271137282" style="fill:none;stroke:#ff0000;stroke-opacity:1;stroke-width:1.062992" /><polyline points="161.827297492,259.868492037 158.374805137,259.071421372 161.323966597,246.297199657 215.528096579,258.811209097 212.578935119,271.585430813 209.126442763,270.788360148 204.104897574,292.539061987 207.557389929,293.336132652 204.608228469,306.110354368 150.404098487,293.596344927 153.353259947,280.822123212 156.805752303,281.619193877 161.827297492,259.868492037" style="fill:none;stroke:#ff0000;stroke-opacity:1;stroke-width:1.062992" /><polyline points="146.682954857,325.465846792 143.230462502,324.668776127 146.179623962,311.894554412 200.383753944,324.408563852 197.434592484,337.182785568 193.982100128,336.385714903 188.960554939,358.136416743 192.413047294,358.933487408 189.463885834,371.707709123 135.259755852,359.193699683 138.208917312,346.419477967 141.661409668,347.216548632 146.682954857,325.465846792" style="fill:none;stroke:#ff0000;stroke-opacity:1;stroke-width:1.062992" /><polyline points="125.263631953,44.1459994776 121.811139597,43.3489288127 124.760301058,30.5747070972 178.96443104,43.0887165376 176.015269579,55.8629382531 172.562777224,55.0658675881 167.541232034,76.816569428 170.99372439,77.613640093 168.044562929,90.3878618085 113.840432948,77.873852368 116.789594408,65.0996306525 120.242086764,65.8967013175 125.263631953,44.1459994776" style="fill:none;stroke:#ff0000;stroke-opacity:1;stroke-width:1.062992" /><polyline points="110.119289318,109.743354233 106.666796963,108.946283568 109.615958423,96.1720618524 163.820088405,108.686071293 160.870926944,121.460293008 157.418434589,120.663222343 152.396889399,142.413924183 155.849381755,143.210994848 152.900220295,155.985216564 98.6960903126,143.471207123 101.645251773,130.696985408 105.097744129,131.494056073 110.119289318,109.743354233" style="fill:none;stroke:#ff0000;stroke-opacity:1;stroke-width:1.062992" /><polyline points="94.9749466831,175.340708988 91.5224543276,174.543638323 94.4716157881,161.769416608 148.67574577,174.283426048 145.72658431,187.057647764 142.274091954,186.260577099 137.252546764,208.011278938 140.70503912,208.808349603 137.75587766,221.582571319 83.5517476776,209.068561878 86.5009091381,196.294340163 89.9534014936,197.091410828 94.9749466831,175.340708988" style="fill:none;stroke:#ff0000;stroke-opacity:1;stroke-width:1.062992" /><polyline points="79.8306040481,240.938063743 76.3781116926,240.140993078 79.3272731531,227.366771363 133.531403135,239.880780803 130.582241675,252.655002519 127.129749319,251.857931854 122.10820413,273.608633694 125.560696485,274.405704359 122.611535025,287.179926074 68.4074050426,274.665916634 71.3565665031,261.891694918 74.8090588587,262.688765583 79.8306040481,240.938063743" style="fill:none;stroke:#ff0000;stroke-opacity:1;stroke-width:1.062992" /><polyline points="81.085600102,310.321504157 77.6331077465,309.524433492 80.5822692069,296.750211777 134.786399189,309.264221217 131.837237728,322.038442933 128.384745373,321.241372268 123.363200183,342.992074108 126.815692539,343.789144773 123.866531078,356.563366488 69.6624010965,344.049357048 72.611562557,331.275135332 76.0640549125,332.072205997 81.085600102,310.321504157" style="fill:none;stroke:#ff0000;stroke-opacity:1;stroke-width:1.062992" /><polyline points="956.493130062,428.304455411 954.311652393,425.512291323 964.642659517,417.44082395 998.891858913,461.277800125 988.560851788,469.349267498 986.37937412,466.557103411 968.788740368,480.300412722 970.970218037,483.09257681 960.639210913,491.164044183 926.390011518,447.327068008 936.721018642,439.255600635 938.90249631,442.047764722 956.493130062,428.304455411" style="fill:none;stroke:#ff0000;stroke-opacity:1;stroke-width:1.062992" /><polyline points="903.442012398,469.752531112 901.260534729,466.960367024 911.591541853,458.888899651 945.840741248,502.725875826 935.509734124,510.797343199 933.328256456,508.005179112 915.737622704,521.748488423 917.919100373,524.540652511 907.588093249,532.612119884 873.338893853,488.775143709 883.669900978,480.703676336 885.851378646,483.495840423 903.442012398,469.752531112" style="fill:none;stroke:#ff0000;stroke-opacity:1;stroke-width:1.062992" /><polyline points="851.264759082,569.871949454 848.472594994,572.053427122 840.401127621,561.722419998 884.238103796,527.473220603 892.309571169,537.804227727 889.517407082,539.985705396 903.260716393,557.576339147 906.052880481,555.394861479 914.124347854,565.725868603 870.287371679,599.975067998 862.215904306,589.644060874 865.008068393,587.462583206 851.264759082,569.871949454" style="fill:none;stroke:#ff0000;stroke-opacity:1;stroke-width:1.062992" /><polyline points="809.816683381,516.82083179 807.024519293,519.002309458 798.95305192,508.671302334 842.790028095,474.422102939 850.861495468,484.753110063 848.069331381,486.934587732 861.812640692,504.525221483 864.60480478,502.343743815 872.676272153,512.674750939 828.839295978,546.923950334 820.767828605,536.59294321 823.559992692,534.411465542 809.816683381,516.82083179" style="fill:none;stroke:#ff0000;stroke-opacity:1;stroke-width:1.062992" /><polyline points="768.36860768,463.769714126 765.576443592,465.951191794 757.504976219,455.62018467 801.341952394,421.370985275 809.413419767,431.701992399 806.62125568,433.883470068 820.364564991,451.474103819 823.156729079,449.292626151 831.228196452,459.623633275 787.391220277,493.87283267 779.319752903,483.541825546 782.111916991,481.360347877 768.36860768,463.769714126" style="fill:none;stroke:#ff0000;stroke-opacity:1;stroke-width:1.062992" /><polyline points="821.419725344,422.321638425 818.627561256,424.503116093 810.556093883,414.172108969 854.393070058,379.922909574 862.464537431,390.253916698 859.672373344,392.435394366 873.415682655,410.026028118 876.207846743,407.84455045 884.279314116,418.175557574 840.442337941,452.424756969 832.370870568,442.093749845 835.163034655,439.912272176 821.419725344,422.321638425" style="fill:none;stroke:#ff0000;stroke-opacity:1;stroke-width:1.062992" /><polyline points="837.124291291,144.539270523 833.671798935,145.336341188 830.722637475,132.562119473 884.926767457,120.048110032 887.875928917,132.822331748 884.423436562,133.619402413 889.444981751,155.370104253 892.897474107,154.573033588 895.846635567,167.347255303 841.642505585,179.861264744 838.693344125,167.087043028 842.14583648,166.289972363 837.124291291,144.539270523" style="fill:none;stroke:#ff0000;stroke-opacity:1;stroke-width:1.062992" /><polyline points="887.630481679,205.791035602 886.833411014,202.338543246 899.60763273,199.389381786 912.12164217,253.593511768 899.347420455,256.542673228 898.55034979,253.090180873 876.79964795,258.111726062 877.596718615,261.564218418 864.822496899,264.513379878 852.308487459,210.309249896 865.082709174,207.360088436 865.879779839,210.812580791 887.630481679,205.791035602" style="fill:none;stroke:#ff0000;stroke-opacity:1;stroke-width:1.062992" /><polyline points="910.346995632,304.187067735 909.549924967,300.734575379 922.324146682,297.785413919 934.838156123,351.989543901 922.063934407,354.938705361 921.266863742,351.486213006 899.516161902,356.507758195 900.313232567,359.960250551 887.539010852,362.909412011 875.025001411,308.705282029 887.799223127,305.756120569 888.596293792,309.208612924 910.346995632,304.187067735" style="fill:none;stroke:#ff0000;stroke-opacity:1;stroke-width:1.062992" /><polyline points="902.721646046,129.394927888 899.26915369,130.191998553 896.31999223,117.417776838 950.524122212,104.903767397 953.473283672,117.677989113 950.020791317,118.475059778 955.042336506,140.225761618 958.494828862,139.428690953 961.443990322,152.202912668 907.23986034,164.716922109 904.29069888,151.942700393 907.743191235,151.145629728 902.721646046,129.394927888" style="fill:none;stroke:#ff0000;stroke-opacity:1;stroke-width:1.062992" /><polyline points="917.865988681,194.992282644 914.413496325,195.789353309 911.464334865,183.015131593 965.668464847,170.501122153 968.617626307,183.275343868 965.165133952,184.072414533 970.186679141,205.823116373 973.639171497,205.026045708 976.588332957,217.800267423 922.384202975,230.314276864 919.435041515,217.540055148 922.88753387,216.742984483 917.865988681,194.992282644" style="fill:none;stroke:#ff0000;stroke-opacity:1;stroke-width:1.062992" /><polyline points="933.010331316,260.589637399 929.55783896,261.386708064 926.6086775,248.612486348 980.812807482,236.098476908 983.761968942,248.872698623 980.309476587,249.669769288 985.331021776,271.420471128 988.783514132,270.623400463 991.732675592,283.397622179 937.52854561,295.911631619 934.57938415,283.137409904 938.031876505,282.340339239 933.010331316,260.589637399" style="fill:none;stroke:#ff0000;stroke-opacity:1;stroke-width:1.062992" /><polyline points="948.154673951,326.186992154 944.702181595,326.984062819 941.753020135,314.209841104 995.957150117,301.695831663 998.906311577,314.470053379 995.453819222,315.267124044 1000.47536441,337.017825883 1003.92785677,336.220755218 1006.87701823,348.994976934 952.672888245,361.508986374 949.723726785,348.734764659 953.17621914,347.937693994 948.154673951,326.186992154" style="fill:none;stroke:#ff0000;stroke-opacity:1;stroke-width:1.062992" /><polyline points="967.123394804,109.07184672 963.670902448,109.868917385 960.721740988,97.0946956696 1014.92587097,84.5806862291 1017.87503243,97.3549079446 1014.42254007,98.1519786096 1019.44408526,119.90268045 1022.89657762,119.105609785 1025.84573908,131.8798315 971.641609098,144.39384094 968.692447638,131.619619225 972.144939993,130.82254856 967.123394804,109.07184672" style="fill:none;stroke:#ff0000;stroke-opacity:1;stroke-width:1.062992" /><polyline points="982.267737439,174.669201475 978.815245083,175.46627214 975.866083623,162.692050425 1030.0702136,150.178040984 1033.01937507,162.9522627 1029.56688271,163.749333365 1034.5884279,185.500035205 1038.04092025,184.70296454 1040.99008172,197.477186255 986.785951733,209.991195696 983.836790273,197.21697398 987.289282628,196.419903315 982.267737439,174.669201475" style="fill:none;stroke:#ff0000;stroke-opacity:1;stroke-width:1.062992" /><polyline points="997.412080074,240.266556231 993.959587718,241.063626896 991.010426258,228.28940518 1045.21455624,215.77539574 1048.1637177,228.549617455 1044.71122534,229.34668812 1049.73277053,251.09738996 1053.18526289,250.300319295 1056.13442435,263.07454101 1001.93029437,275.588550451 998.981132908,262.814328735 1002.43362526,262.01725807 997.412080074,240.266556231" style="fill:none;stroke:#ff0000;stroke-opacity:1;stroke-width:1.062992" /><polyline points="1012.55642271,305.863910986 1009.10393035,306.660981651 1006.15476889,293.886759935 1060.35889887,281.372750495 1063.30806033,294.14697221 1059.85556798,294.944042875 1064.87711317,316.694744715 1068.32960552,315.89767405 1071.27876698,328.671895766 1017.074637,341.185905206 1014.12547554,328.411683491 1017.5779679,327.614612826 1012.55642271,305.863910986" style="fill:none;stroke:#ff0000;stroke-opacity:1;stroke-width:1.062992" /><polyline points="1027.70076534,371.461265741 1024.24827299,372.258336406 1021.29911153,359.484114691 1075.50324151,346.97010525 1078.45240297,359.744326966 1074.99991061,360.541397631 1080.0214558,382.29209947 1083.47394816,381.495028805 1086.42310962,394.269250521 1032.21897964,406.783259961 1029.26981818,394.009038246 1032.72231053,393.211967581 1027.70076534,371.461265741" style="fill:none;stroke:#ff0000;stroke-opacity:1;stroke-width:1.062992" /><polyline points="1031.52514356,88.7487655518 1028.07265121,89.5458362168 1025.12348975,76.7716145013 1079.32761973,64.2576050609 1082.27678119,77.0318267764 1078.82428883,77.8288974414 1083.84583402,99.5795992812 1087.29832638,98.7825286162 1090.24748784,111.556750332 1036.04335786,124.070759772 1033.0941964,111.296538057 1036.54668875,110.499467392 1031.52514356,88.7487655518" style="fill:none;stroke:#ff0000;stroke-opacity:1;stroke-width:1.062992" /><polyline points="1046.6694862,154.346120307 1043.21699384,155.143190972 1040.26783238,142.368969257 1094.47196236,129.854959816 1097.42112382,142.629181532 1093.96863147,143.426252197 1098.99017666,165.176954036 1102.44266901,164.379883371 1105.39183047,177.154105087 1051.18770049,189.668114527 1048.23853903,176.893892812 1051.69103139,176.096822147 1046.6694862,154.346120307" style="fill:none;stroke:#ff0000;stroke-opacity:1;stroke-width:1.062992" /><polyline points="1061.81382883,219.943475062 1058.36133648,220.740545727 1055.41217502,207.966324012 1109.616305,195.452314571 1112.56546646,208.226536287 1109.1129741,209.023606952 1114.13451929,230.774308792 1117.58701165,229.977238127 1120.53617311,242.751459842 1066.33204313,255.265469283 1063.38288167,242.491247567 1066.83537402,241.694176902 1061.81382883,219.943475062" style="fill:none;stroke:#ff0000;stroke-opacity:1;stroke-width:1.062992" /><polyline points="1076.95817147,285.540829818 1073.50567911,286.337900483 1070.55651765,273.563678767 1124.76064763,261.049669327 1127.70980909,273.823891042 1124.25731674,274.620961707 1129.27886193,296.371663547 1132.73135428,295.574592882 1135.68051574,308.348814597 1081.47638576,320.862824038 1078.5272243,308.088602322 1081.97971666,307.291531657 1076.95817147,285.540829818" style="fill:none;stroke:#ff0000;stroke-opacity:1;stroke-width:1.062992" /><polyline points="1092.1025141,351.138184573 1088.65002175,351.935255238 1085.70086029,339.161033522 1139.90499027,326.647024082 1142.85415173,339.421245797 1139.40165937,340.218316462 1144.42320456,361.969018302 1147.87569692,361.171947637 1150.82485838,373.946169353 1096.6207284,386.460178793 1093.67156694,373.685957078 1097.12405929,372.888886413 1092.1025141,351.138184573" style="fill:none;stroke:#ff0000;stroke-opacity:1;stroke-width:1.062992" /><polyline points="1098.31810431,78.7831614502 1094.86561196,79.5802321152 1091.9164505,66.8060103997 1146.12058048,54.2920009592 1149.06974194,67.0662226747 1145.61724958,67.8632933397 1150.63879477,89.6139951796 1154.09128713,88.8169245146 1157.04044859,101.59114623 1102.83631861,114.105155671 1099.88715715,101.330933955 1103.3396495,100.53386329 1098.31810431,78.7831614502" style="fill:none;stroke:#ff0000;stroke-opacity:1;stroke-width:1.062992" /><polyline points="1113.46244695,144.380516205 1110.00995459,145.17758687 1107.06079313,132.403365155 1161.26492312,119.889355714 1164.21408458,132.66357743 1160.76159222,133.460648095 1165.78313741,155.211349935 1169.23562976,154.41427927 1172.18479123,167.188500985 1117.98066124,179.702510426 1115.03149978,166.92828871 1118.48399214,166.131218045 1113.46244695,144.380516205" style="fill:none;stroke:#ff0000;stroke-opacity:1;stroke-width:1.062992" /><polyline points="1128.60678958,209.977870961 1125.15429723,210.774941626 1122.20513577,198.00071991 1176.40926575,185.48671047 1179.35842721,198.260932185 1175.90593485,199.05800285 1180.92748004,220.80870469 1184.3799724,220.011634025 1187.32913386,232.785855741 1133.12500388,245.299865181 1130.17584242,232.525643466 1133.62833477,231.728572801 1128.60678958,209.977870961" style="fill:none;stroke:#ff0000;stroke-opacity:1;stroke-width:1.062992" /><polyline points="1143.75113222,275.575225716 1140.29863986,276.372296381 1137.3494784,263.598074665 1191.55360838,251.084065225 1194.50276985,263.85828694 1191.05027749,264.655357605 1196.07182268,286.406059445 1199.52431503,285.60898878 1202.4734765,298.383210496 1148.26934651,310.897219936 1145.32018505,298.122998221 1148.77267741,297.325927556 1143.75113222,275.575225716" style="fill:none;stroke:#ff0000;stroke-opacity:1;stroke-width:1.062992" /><polyline points="1158.89547485,341.172580471 1155.4429825,341.969651136 1152.49382104,329.195429421 1206.69795102,316.68141998 1209.64711248,329.455641696 1206.19462012,330.252712361 1211.21616531,352.0034142 1214.66865767,351.206343535 1217.61781913,363.980565251 1163.41368915,376.494574691 1160.46452769,363.720352976 1163.91702004,362.923282311 1158.89547485,341.172580471" style="fill:none;stroke:#ff0000;stroke-opacity:1;stroke-width:1.062992" /><polyline points="1166.30667106,73.9962958818 1162.85417871,74.7933665468 1159.90501725,62.0191448313 1214.10914723,49.5051353909 1217.05830869,62.2793571064 1213.60581634,63.0764277714 1218.62736152,84.8271296112 1222.07985388,84.0300589462 1225.02901534,96.8042806617 1170.82488536,109.318290102 1167.8757239,96.5440683867 1171.32821625,95.7469977217 1166.30667106,73.9962958818" style="fill:none;stroke:#ff0000;stroke-opacity:1;stroke-width:1.062992" /><polyline points="1181.4510137,139.593650637 1177.99852134,140.390721302 1175.04935988,127.616499587 1229.25348987,115.102490146 1232.20265133,127.876711862 1228.75015897,128.673782527 1233.77170416,150.424484366 1237.22419652,149.627413701 1240.17335798,162.401635417 1185.96922799,174.915644857 1183.02006653,162.141423142 1186.47255889,161.344352477 1181.4510137,139.593650637" style="fill:none;stroke:#ff0000;stroke-opacity:1;stroke-width:1.062992" /><polyline points="1196.59535633,205.191005392 1193.14286398,205.988076057 1190.19370252,193.213854342 1244.3978325,180.699844901 1247.34699396,193.474066617 1243.89450161,194.271137282 1248.91604679,216.021839122 1252.36853915,215.224768457 1255.31770061,227.998990172 1201.11357063,240.512999613 1198.16440917,227.738777897 1201.61690152,226.941707232 1196.59535633,205.191005392" style="fill:none;stroke:#ff0000;stroke-opacity:1;stroke-width:1.062992" /><polyline points="1211.73969897,270.788360148 1208.28720661,271.585430813 1205.33804515,258.811209097 1259.54217514,246.297199657 1262.4913366,259.071421372 1259.03884424,259.868492037 1264.06038943,281.619193877 1267.51288179,280.822123212 1270.46204325,293.596344927 1216.25791326,306.110354368 1213.3087518,293.336132652 1216.76124416,292.539061987 1211.73969897,270.788360148" style="fill:none;stroke:#ff0000;stroke-opacity:1;stroke-width:1.062992" /><polyline points="1226.8840416,336.385714903 1223.43154925,337.182785568 1220.48238779,324.408563852 1274.68651777,311.894554412 1277.63567923,324.668776127 1274.18318688,325.465846792 1279.20473206,347.216548632 1282.65722442,346.419477967 1285.60638588,359.193699683 1231.4022559,371.707709123 1228.45309444,358.933487408 1231.90558679,358.136416743 1226.8840416,336.385714903" style="fill:none;stroke:#ff0000;stroke-opacity:1;stroke-width:1.062992" /><polyline points="1248.30336451,55.0658675881 1244.85087215,55.8629382531 1241.90171069,43.0887165376 1296.10584067,30.5747070972 1299.05500213,43.3489288127 1295.60250978,44.1459994776 1300.62405497,65.8967013175 1304.07654732,65.0996306525 1307.02570878,77.873852368 1252.8215788,90.3878618085 1249.87241734,77.613640093 1253.3249097,76.816569428 1248.30336451,55.0658675881" style="fill:none;stroke:#ff0000;stroke-opacity:1;stroke-width:1.062992" /><polyline points="1263.44770714,120.663222343 1259.99521479,121.460293008 1257.04605333,108.686071293 1311.25018331,96.1720618524 1314.19934477,108.946283568 1310.74685241,109.743354233 1315.7683976,131.494056073 1319.22088996,130.696985408 1322.17005142,143.471207123 1267.96592144,155.985216564 1265.01675998,143.210994848 1268.46925233,142.413924183 1263.44770714,120.663222343" style="fill:none;stroke:#ff0000;stroke-opacity:1;stroke-width:1.062992" /><polyline points="1278.59204978,186.260577099 1275.13955742,187.057647764 1272.19039596,174.283426048 1326.39452594,161.769416608 1329.3436874,174.543638323 1325.89119505,175.340708988 1330.91274024,197.091410828 1334.36523259,196.294340163 1337.31439405,209.068561878 1283.11026407,221.582571319 1280.16110261,208.808349603 1283.61359497,208.011278938 1278.59204978,186.260577099" style="fill:none;stroke:#ff0000;stroke-opacity:1;stroke-width:1.062992" /><polyline points="1293.73639241,251.857931854 1290.28390006,252.655002519 1287.3347386,239.880780803 1341.53886858,227.366771363 1344.48803004,240.140993078 1341.03553768,240.938063743 1346.05708287,262.688765583 1349.50957523,261.891694918 1352.45873669,274.665916634 1298.25460671,287.179926074 1295.30544525,274.405704359 1298.7579376,273.608633694 1293.73639241,251.857931854" style="fill:none;stroke:#ff0000;stroke-opacity:1;stroke-width:1.062992" /><polyline points="1292.48139636,321.241372268 1289.028904,322.038442933 1286.07974254,309.264221217 1340.28387253,296.750211777 1343.23303399,309.524433492 1339.78054163,310.321504157 1344.80208682,332.072205997 1348.25457918,331.275135332 1351.20374064,344.049357048 1296.99961065,356.563366488 1294.05044919,343.789144773 1297.50294155,342.992074108 1292.48139636,321.241372268" style="fill:none;stroke:#ff0000;stroke-opacity:1;stroke-width:1.062992" /><circle cx="679.550673061" cy="499.069984674" r="5.84645669291" style="fill:none;stroke:#ff0000;stroke-opacity:1;stroke-width:1.062992" /><circle cx="557.581505211" cy="23.4109642722" r="5.84645669291" style="fill:none;stroke:#ff0000;stroke-opacity:1;stroke-width:1.062992" /><circle cx="228.399125438" cy="23.4109642722" r="5.84645669291" style="fill:none;stroke:#ff0000;stroke-opacity:1;stroke-width:1.062992" /><circle cx="43.133494766" cy="314.832834005" r="5.84645669291" style="fill:none;stroke:#ff0000;stroke-opacity:1;stroke-width:1.062992" /><circle cx="447.106191413" cy="655.062085344" r="5.84645669291" style="fill:none;stroke:#ff0000;stroke-opacity:1;stroke-width:1.062992" /><circle cx="82.8337483013" cy="527.013817693" r="5.84645669291" style="fill:none;stroke:#ff0000;stroke-opacity:1;stroke-width:1.062992" /><circle cx="1338.03239343" cy="527.013817693" r="5.84645669291" style="fill:none;stroke:#ff0000;stroke-opacity:1;stroke-width:1.062992" /><circle cx="973.75995032" cy="655.062085344" r="5.84645669291" style="fill:none;stroke:#ff0000;stroke-opacity:1;stroke-width:1.062992" /><circle cx="1377.73264697" cy="314.832834005" r="5.84645669291" style="fill:none;stroke:#ff0000;stroke-opacity:1;stroke-width:1.062992" /><circle cx="1192.46701629" cy="23.4109642722" r="5.84645669291" style="fill:none;stroke:#ff0000;stroke-opacity:1;stroke-width:1.062992" /><circle cx="863.284636521" cy="23.4109642722" r="5.84645669291" style="fill:none;stroke:#ff0000;stroke-opacity:1;stroke-width:1.062992" /><circle cx="741.315468671" cy="499.069984674" r="5.84645669291" style="fill:none;stroke:#ff0000;stroke-opacity:1;stroke-width:1.062992" /><circle cx="639.566929134" cy="179.316476083" r="5.84645669291" style="fill:none;stroke:#ff0000;stroke-opacity:1;stroke-width:1.062992" /><circle cx="781.299212598" cy="179.316476083" r="5.84645669291" style="fill:none;stroke:#ff0000;stroke-opacity:1;stroke-width:1.062992" /><circle cx="639.566929134" cy="37.5841926187" r="5.84645669291" style="fill:none;stroke:#ff0000;stroke-opacity:1;stroke-width:1.062992" /><circle cx="781.299212598" cy="37.5841926187" r="5.84645669291" style="fill:none;stroke:#ff0000;stroke-opacity:1;stroke-width:1.062992" /><polyline points="22.9514016023,291.990877573 87.5141254671,12.338996774" style="fill:none;stroke:#ff0000;stroke-opacity:1;stroke-width:1.062992" /><path d="M104.776587,-1.392185 A 17.7165354331 17.7165354331 0.0 0,0 87.5141254671 12.338996774" style="fill:none;stroke:#ff0000;stroke-opacity:1;stroke-width:1.062992" /><polyline points="104.776587245,-1.39218533407 1316.08955449,-1.39218533407" style="fill:none;stroke:#ff0000;stroke-opacity:1;stroke-width:1.062992" /><path d="M1333.352016,12.338997 A 17.7165354331 17.7165354331 0.0 0,0 1316.08955449 -1.39218533407" style="fill:none;stroke:#ff0000;stroke-opacity:1;stroke-width:1.062992" /><polyline points="1333.35201627,12.338996774 1397.91474013,291.990877573" style="fill:none;stroke:#ff0000;stroke-opacity:1;stroke-width:1.062992" /><path d="M838.513082,593.697122 A 329.527559055 329.527559055 0.0 0,0 1397.91474013 291.990877573" style="fill:none;stroke:#ff0000;stroke-opacity:1;stroke-width:1.062992" /><path d="M838.513082,593.697122 A 177.097669638 177.097669638 0.0 0,0 582.353059718 593.697121952" style="fill:none;stroke:#ff0000;stroke-opacity:1;stroke-width:1.062992" /><path d="M22.951402,291.990878 A 329.527559055 329.527559055 0.0 0,0 582.353059718 593.697121952" style="fill:none;stroke:#ff0000;stroke-opacity:1;stroke-width:1.062992" /></svg>