<?xml version="1.0" encoding="utf-8" ?>
<svg baseProfile="full" height="200mm" version="1.1" width="400mm" xmlns="http://www.w3.org/2000/svg" xmlns:ev="http://www.w3.org/2001/xml-events" xmlns:xlink="http://www.w3.org/1999/xlink"><defs /><polyline points="459.26714431,489.514872531 492.643752637,446.794761991 457.183268725,419.089995602 423.806660397,461.810106142 459.26714431,489.514872531" style="fill:none;stroke:#ff0000;stroke-opacity:1;stroke-width:1.062992" /><polyline points="512.318261974,530.962948232 545.694870301,488.242837692 510.234386389,460.538071303 476.857778061,503.258181843 512.318261974,530.962948232" style="fill:none;stroke:#ff0000;stroke-opacity:1;stroke-width:1.062992" /><polyline points="508.39096553,564.766082093 551.11107607,598.142690421 578.81584246,562.682206508 536.09573192,529.305598181 508.39096553,564.766082093" style="fill:none;stroke:#ff0000;stroke-opacity:1;stroke-width:1.062992" /><polyline points="549.839041231,511.714964429 592.559151771,545.091572757 620.263918161,509.631088844 577.543807621,476.254480517 549.839041231,511.714964429" style="fill:none;stroke:#ff0000;stroke-opacity:1;stroke-width:1.062992" /><polyline points="591.287116932,458.663846765 634.007227472,492.040455092 661.711993862,456.57997118 618.991883322,423.203362852 591.287116932,458.663846765" style="fill:none;stroke:#ff0000;stroke-opacity:1;stroke-width:1.062992" /><polyline points="538.235999268,417.215771064 580.956109808,450.592379391 608.660876198,415.131895479 565.940765658,381.755287151 538.235999268,417.215771064" style="fill:none;stroke:#ff0000;stroke-opacity:1;stroke-width:1.062992" /><polyline points="526.108539969,165.780423258 578.931673009,177.975604433 589.054470454,134.128951518 536.231337414,121.933770343 526.108539969,165.780423258" style="fill:none;stroke:#ff0000;stroke-opacity:1;stroke-width:1.062992" /><polyline points="554.476812788,263.424346075 566.671993963,210.601213035 522.825341047,200.478415589 510.630159873,253.301548629 554.476812788,263.424346075" style="fill:none;stroke:#ff0000;stroke-opacity:1;stroke-width:1.062992" /><polyline points="531.760298836,361.820378208 543.95548001,308.997245168 500.108827095,298.874447722 487.91364592,351.697580762 531.760298836,361.820378208" style="fill:none;stroke:#ff0000;stroke-opacity:1;stroke-width:1.062992" /><polyline points="460.511185214,150.636080624 513.334318253,162.831261798 523.457115699,118.984608883 470.633982659,106.789427708 460.511185214,150.636080624" style="fill:none;stroke:#ff0000;stroke-opacity:1;stroke-width:1.062992" /><polyline points="445.366842579,216.233435379 498.189975618,228.428616553 508.312773064,184.581963638 455.489640024,172.386782463 445.366842579,216.233435379" style="fill:none;stroke:#ff0000;stroke-opacity:1;stroke-width:1.062992" /><polyline points="430.222499944,281.830790134 483.045632983,294.025971308 493.168430429,250.179318393 440.345297389,237.984137219 430.222499944,281.830790134" style="fill:none;stroke:#ff0000;stroke-opacity:1;stroke-width:1.062992" /><polyline points="415.078157309,347.428144889 467.901290348,359.623326064 478.024087794,315.776673148 425.200954754,303.581491974 415.078157309,347.428144889" style="fill:none;stroke:#ff0000;stroke-opacity:1;stroke-width:1.062992" /><polyline points="396.109436456,130.312999455 448.932569496,142.50818063 459.055366941,98.6615277144 406.232233901,86.4663465399 396.109436456,130.312999455" style="fill:none;stroke:#ff0000;stroke-opacity:1;stroke-width:1.062992" /><polyline points="380.965093821,195.91035421 433.788226861,208.105535385 443.911024306,164.25888247 391.087891266,152.063701295 380.965093821,195.91035421" style="fill:none;stroke:#ff0000;stroke-opacity:1;stroke-width:1.062992" /><polyline points="365.820751186,261.507708966 418.643884226,273.70289014 428.766681671,229.856237225 375.943548631,217.66105605 365.820751186,261.507708966" style="fill:none;stroke:#ff0000;stroke-opacity:1;stroke-width:1.062992" /><polyline points="350.676408551,327.105063721 403.499541591,339.300244895 413.622339036,295.45359198 360.799205996,283.258410806 350.676408551,327.105063721" style="fill:none;stroke:#ff0000;stroke-opacity:1;stroke-width:1.062992" /><polyline points="335.532065916,392.702418476 388.355198956,404.897599651 398.477996401,361.050946735 345.654863361,348.855765561 335.532065916,392.702418476" style="fill:none;stroke:#ff0000;stroke-opacity:1;stroke-width:1.062992" /><polyline points="331.707687698,109.989918287 384.530820738,122.185099461 394.653618183,78.3384465461 341.830485144,66.1432653716 331.707687698,109.989918287" style="fill:none;stroke:#ff0000;stroke-opacity:1;stroke-width:1.062992" /><polyline points="316.563345063,175.587273042 369.386478103,187.782454217 379.509275548,143.935801301 326.686142509,131.740620127 316.563345063,175.587273042" style="fill:none;stroke:#ff0000;stroke-opacity:1;stroke-width:1.062992" /><polyline points="301.419002428,241.184627797 354.242135468,253.379808972 364.364932913,209.533156057 311.541799874,197.337974882 301.419002428,241.184627797" style="fill:none;stroke:#ff0000;stroke-opacity:1;stroke-width:1.062992" /><polyline points="286.274659793,306.781982553 339.097792833,318.977163727 349.220590278,275.130510812 296.397457239,262.935329637 286.274659793,306.781982553" style="fill:none;stroke:#ff0000;stroke-opacity:1;stroke-width:1.062992" /><polyline points="271.130317158,372.379337308 323.953450198,384.574518482 334.076247643,340.727865567 281.253114604,328.532684393 271.130317158,372.379337308" style="fill:none;stroke:#ff0000;stroke-opacity:1;stroke-width:1.062992" /><polyline points="264.914726945,100.024314185 317.737859985,112.21949536 327.860657431,68.3728424444 275.037524391,56.17766127 264.914726945,100.024314185" style="fill:none;stroke:#ff0000;stroke-opacity:1;stroke-width:1.062992" /><polyline points="249.77038431,165.621668941 302.59351735,177.816850115 312.716314796,133.9701972 259.893181756,121.775016025 249.77038431,165.621668941" style="fill:none;stroke:#ff0000;stroke-opacity:1;stroke-width:1.062992" /><polyline points="234.626041675,231.219023696 287.449174715,243.41420487 297.571972161,199.567551955 244.748839121,187.37237078 234.626041675,231.219023696" style="fill:none;stroke:#ff0000;stroke-opacity:1;stroke-width:1.062992" /><polyline points="219.48169904,296.816378451 272.30483208,309.011559625 282.427629526,265.16490671 229.604496486,252.969725536 219.48169904,296.816378451" style="fill:none;stroke:#ff0000;stroke-opacity:1;stroke-width:1.062992" /><polyline points="204.337356406,362.413733206 257.160489445,374.608914381 267.283286891,330.762261465 214.460153851,318.567080291 204.337356406,362.413733206" style="fill:none;stroke:#ff0000;stroke-opacity:1;stroke-width:1.062992" /><polyline points="196.926160195,95.237448617 249.749293235,107.432629791 259.87209068,63.5859768761 207.048957641,51.3907957016 196.926160195,95.237448617" style="fill:none;stroke:#ff0000;stroke-opacity:1;stroke-width:1.062992" /><polyline points="181.78181756,160.834803372 234.6049506,173.029984547 244.727748045,129.183331631 191.904615006,116.988150457 181.78181756,160.834803372" style="fill:none;stroke:#ff0000;stroke-opacity:1;stroke-width:1.062992" /><polyline points="166.637474925,226.432158127 219.460607965,238.627339302 229.58340541,194.780686387 176.760272371,182.585505212 166.637474925,226.432158127" style="fill:none;stroke:#ff0000;stroke-opacity:1;stroke-width:1.062992" /><polyline points="151.49313229,292.029512883 204.31626533,304.224694057 214.439062775,260.378041142 161.615929736,248.182859967 151.49313229,292.029512883" style="fill:none;stroke:#ff0000;stroke-opacity:1;stroke-width:1.062992" /><polyline points="136.348789655,357.626867638 189.171922695,369.822048812 199.294720141,325.975395897 146.471587101,313.780214723 136.348789655,357.626867638" style="fill:none;stroke:#ff0000;stroke-opacity:1;stroke-width:1.062992" /><polyline points="114.929466751,76.3070203233 167.752599791,88.5022014977 177.875397236,44.6555485824 125.052264197,32.4603674079 114.929466751,76.3070203233" style="fill:none;stroke:#ff0000;stroke-opacity:1;stroke-width:1.062992" /><polyline points="99.7851241162,141.904375078 152.608257156,154.099556253 162.731054601,110.252903338 109.907921562,98.0577221632 99.7851241162,141.904375078" style="fill:none;stroke:#ff0000;stroke-opacity:1;stroke-width:1.062992" /><polyline points="84.6407814812,207.501729834 137.463914521,219.696911008 147.586711966,175.850258093 94.7635789267,163.655076918 84.6407814812,207.501729834" style="fill:none;stroke:#ff0000;stroke-opacity:1;stroke-width:1.062992" /><polyline points="69.4964388462,273.099084589 122.319571886,285.294265763 132.442369331,241.447612848 79.6192362917,229.252431674 69.4964388462,273.099084589" style="fill:none;stroke:#ff0000;stroke-opacity:1;stroke-width:1.062992" /><polyline points="70.7514349001,342.482525003 123.57456794,354.677706177 133.697365385,310.831053262 80.8742323456,298.635872088 70.7514349001,342.482525003" style="fill:none;stroke:#ff0000;stroke-opacity:1;stroke-width:1.062992" /><polyline points="935.309003268,446.794761991 968.685611596,489.514872531 1004.14609551,461.810106142 970.769487181,419.089995602 935.309003268,446.794761991" style="fill:none;stroke:#ff0000;stroke-opacity:1;stroke-width:1.062992" /><polyline points="882.257885604,488.242837692 915.634493932,530.962948232 951.094977844,503.258181843 917.718369516,460.538071303 882.257885604,488.242837692" style="fill:none;stroke:#ff0000;stroke-opacity:1;stroke-width:1.062992" /><polyline points="876.841679835,598.142690421 919.561790375,564.766082093 891.857023986,529.305598181 849.136913446,562.682206508 876.841679835,598.142690421" style="fill:none;stroke:#ff0000;stroke-opacity:1;stroke-width:1.062992" /><polyline points="835.393604134,545.091572757 878.113714674,511.714964429 850.408948285,476.254480517 807.688837745,509.631088844 835.393604134,545.091572757" style="fill:none;stroke:#ff0000;stroke-opacity:1;stroke-width:1.062992" /><polyline points="793.945528433,492.040455092 836.665638973,458.663846765 808.960872584,423.203362852 766.240762044,456.57997118 793.945528433,492.040455092" style="fill:none;stroke:#ff0000;stroke-opacity:1;stroke-width:1.062992" /><polyline points="846.996646097,450.592379391 889.716756637,417.215771064 862.011990248,381.755287151 819.291879708,415.131895479 846.996646097,450.592379391" style="fill:none;stroke:#ff0000;stroke-opacity:1;stroke-width:1.062992" /><polyline points="849.021082897,177.975604433 901.844215937,165.780423258 891.721418491,121.933770343 838.898285452,134.128951518 849.021082897,177.975604433" style="fill:none;stroke:#ff0000;stroke-opacity:1;stroke-width:1.062992" /><polyline points="861.280761943,210.601213035 873.475943117,263.424346075 917.322596033,253.301548629 905.127414858,200.478415589 861.280761943,210.601213035" style="fill:none;stroke:#ff0000;stroke-opacity:1;stroke-width:1.062992" /><polyline points="883.997275895,308.997245168 896.19245707,361.820378208 940.039109985,351.697580762 927.843928811,298.874447722 883.997275895,308.997245168" style="fill:none;stroke:#ff0000;stroke-opacity:1;stroke-width:1.062992" /><polyline points="914.618437652,162.831261798 967.441570692,150.636080624 957.318773246,106.789427708 904.495640207,118.984608883 914.618437652,162.831261798" style="fill:none;stroke:#ff0000;stroke-opacity:1;stroke-width:1.062992" /><polyline points="929.762780287,228.428616553 982.585913327,216.233435379 972.463115881,172.386782463 919.639982842,184.581963638 929.762780287,228.428616553" style="fill:none;stroke:#ff0000;stroke-opacity:1;stroke-width:1.062992" /><polyline points="944.907122922,294.025971308 997.730255962,281.830790134 987.607458516,237.984137219 934.784325477,250.179318393 944.907122922,294.025971308" style="fill:none;stroke:#ff0000;stroke-opacity:1;stroke-width:1.062992" /><polyline points="960.051465557,359.623326064 1012.8745986,347.428144889 1002.75180115,303.581491974 949.928668112,315.776673148 960.051465557,359.623326064" style="fill:none;stroke:#ff0000;stroke-opacity:1;stroke-width:1.062992" /><polyline points="979.02018641,142.50818063 1031.84331945,130.312999455 1021.720522,86.4663465399 968.897388964,98.6615277144 979.02018641,142.50818063" style="fill:none;stroke:#ff0000;stroke-opacity:1;stroke-width:1.062992" /><polyline points="994.164529045,208.105535385 1046.98766208,195.91035421 1036.86486464,152.063701295 984.041731599,164.25888247 994.164529045,208.105535385" style="fill:none;stroke:#ff0000;stroke-opacity:1;stroke-width:1.062992" /><polyline points="1009.30887168,273.70289014 1062.13200472,261.507708966 1052.00920727,217.66105605 999.186074234,229.856237225 1009.30887168,273.70289014" style="fill:none;stroke:#ff0000;stroke-opacity:1;stroke-width:1.062992" /><polyline points="1024.45321431,339.300244895 1077.27634735,327.105063721 1067.15354991,283.258410806 1014.33041687,295.45359198 1024.45321431,339.300244895" style="fill:none;stroke:#ff0000;stroke-opacity:1;stroke-width:1.062992" /><polyline points="1039.59755695,404.897599651 1092.42068999,392.702418476 1082.29789254,348.855765561 1029.4747595,361.050946735 1039.59755695,404.897599651" style="fill:none;stroke:#ff0000;stroke-opacity:1;stroke-width:1.062992" /><polyline points="1043.42193517,122.185099461 1096.24506821,109.989918287 1086.12227076,66.1432653716 1033.29913772,78.3384465461 1043.42193517,122.185099461" style="fill:none;stroke:#ff0000;stroke-opacity:1;stroke-width:1.062992" /><polyline points="1058.5662778,187.782454217 1111.38941084,175.587273042 1101.2666134,131.740620127 1048.44348036,143.935801301 1058.5662778,187.782454217" style="fill:none;stroke:#ff0000;stroke-opacity:1;stroke-width:1.062992" /><polyline points="1073.71062044,253.379808972 1126.53375348,241.184627797 1116.41095603,197.337974882 1063.58782299,209.533156057 1073.71062044,253.379808972" style="fill:none;stroke:#ff0000;stroke-opacity:1;stroke-width:1.062992" /><polyline points="1088.85496307,318.977163727 1141.67809611,306.781982553 1131.55529867,262.935329637 1078.73216563,275.130510812 1088.85496307,318.977163727" style="fill:none;stroke:#ff0000;stroke-opacity:1;stroke-width:1.062992" /><polyline points="1103.99930571,384.574518482 1156.82243875,372.379337308 1146.6996413,328.532684393 1093.87650826,340.727865567 1103.99930571,384.574518482" style="fill:none;stroke:#ff0000;stroke-opacity:1;stroke-width:1.062992" /><polyline points="1110.21489592,112.21949536 1163.03802896,100.024314185 1152.91523151,56.17766127 1100.09209847,68.3728424444 1110.21489592,112.21949536" style="fill:none;stroke:#ff0000;stroke-opacity:1;stroke-width:1.062992" /><polyline points="1125.35923856,177.816850115 1178.1823716,165.621668941 1168.05957415,121.775016025 1115.23644111,133.9701972 1125.35923856,177.816850115" style="fill:none;stroke:#ff0000;stroke-opacity:1;stroke-width:1.062992" /><polyline points="1140.50358119,243.41420487 1193.32671423,231.219023696 1183.20391678,187.37237078 1130.38078374,199.567551955 1140.50358119,243.41420487" style="fill:none;stroke:#ff0000;stroke-opacity:1;stroke-width:1.062992" /><polyline points="1155.64792383,309.011559625 1208.47105687,296.816378451 1198.34825942,252.969725536 1145.52512638,265.16490671 1155.64792383,309.011559625" style="fill:none;stroke:#ff0000;stroke-opacity:1;stroke-width:1.062992" /><polyline points="1170.79226646,374.608914381 1223.6153995,362.413733206 1213.49260205,318.567080291 1160.66946901,330.762261465 1170.79226646,374.608914381" style="fill:none;stroke:#ff0000;stroke-opacity:1;stroke-width:1.062992" /><polyline points="1178.20346267,107.432629791 1231.02659571,95.237448617 1220.90379826,51.3907957016 1168.08066523,63.5859768761 1178.20346267,107.432629791" style="fill:none;stroke:#ff0000;stroke-opacity:1;stroke-width:1.062992" /><polyline points="1193.34780531,173.029984547 1246.17093835,160.834803372 1236.0481409,116.988150457 1183.22500786,129.183331631 1193.34780531,173.029984547" style="fill:none;stroke:#ff0000;stroke-opacity:1;stroke-width:1.062992" /><polyline points="1208.49214794,238.627339302 1261.31528098,226.432158127 1251.19248353,182.585505212 1198.3693505,194.780686387 1208.49214794,238.627339302" style="fill:none;stroke:#ff0000;stroke-opacity:1;stroke-width:1.062992" /><polyline points="1223.63649058,304.224694057 1276.45962362,292.029512883 1266.33682617,248.182859967 1213.51369313,260.378041142 1223.63649058,304.224694057" style="fill:none;stroke:#ff0000;stroke-opacity:1;stroke-width:1.062992" /><polyline points="1238.78083321,369.822048812 1291.60396625,357.626867638 1281.4811688,313.780214723 1228.65803576,325.975395897 1238.78083321,369.822048812" style="fill:none;stroke:#ff0000;stroke-opacity:1;stroke-width:1.062992" /><polyline points="1260.20015611,88.5022014977 1313.02328915,76.3070203233 1302.90049171,32.4603674079 1250.07735867,44.6555485824 1260.20015611,88.5022014977" style="fill:none;stroke:#ff0000;stroke-opacity:1;stroke-width:1.062992" /><polyline points="1275.34449875,154.099556253 1328.16763179,141.904375078 1318.04483434,98.0577221632 1265.2217013,110.252903338 1275.34449875,154.099556253" style="fill:none;stroke:#ff0000;stroke-opacity:1;stroke-width:1.062992" /><polyline points="1290.48884138,219.696911008 1343.31197442,207.501729834 1333.18917698,163.655076918 1280.36604394,175.850258093 1290.48884138,219.696911008" style="fill:none;stroke:#ff0000;stroke-opacity:1;stroke-width:1.062992" /><polyline points="1305.63318402,285.294265763 1358.45631706,273.099084589 1348.33351961,229.252431674 1295.51038657,241.447612848 1305.63318402,285.294265763" style="fill:none;stroke:#ff0000;stroke-opacity:1;stroke-width:1.062992" /><polyline points="1304.37818797,354.677706177 1357.20132101,342.482525003 1347.07852356,298.635872088 1294.25539052,310.831053262 1304.37818797,354.677706177" style="fill:none;stroke:#ff0000;stroke-opacity:1;stroke-width:1.062992" /><circle cx="679.550673061" cy="499.069984674" r="5.13779527559" style="fill:none;stroke:#ff0000;stroke-opacity:1;stroke-width:1.062992" /><circle cx="557.581505211" cy="23.4109642722" r="5.13779527559" style="fill:none;stroke:#ff0000;stroke-opacity:1;stroke-width:1.062992" /><circle cx="228.399125438" cy="23.4109642722" r="5.13779527559" style="fill:none;stroke:#ff0000;stroke-opacity:1;stroke-width:1.062992" /><circle cx="43.133494766" cy="314.832834005" r="5.13779527559" style="fill:none;stroke:#ff0000;stroke-opacity:1;stroke-width:1.062992" /><circle cx="447.106191413" cy="655.062085344" r="5.13779527559" style="fill:none;stroke:#ff0000;stroke-opacity:1;stroke-width:1.062992" /><circle cx="82.8337483013" cy="527.013817693" r="5.13779527559" style="fill:none;stroke:#ff0000;stroke-opacity:1;stroke-width:1.062992" /><circle cx="1345.1190076" cy="527.013817693" r="5.13779527559" style="fill:none;stroke:#ff0000;stroke-opacity:1;stroke-width:1.062992" /><circle cx="980.846564493" cy="655.062085344" r="5.13779527559" style="fill:none;stroke:#ff0000;stroke-opacity:1;stroke-width:1.062992" /><circle cx="1384.81926114" cy="314.832834005" r="5.13779527559" style="fill:none;stroke:#ff0000;stroke-opacity:1;stroke-width:1.062992" /><circle cx="1199.55363047" cy="23.4109642722" r="5.13779527559" style="fill:none;stroke:#ff0000;stroke-opacity:1;stroke-width:1.062992" /><circle cx="870.371250694" cy="23.4109642722" r="5.13779527559" style="fill:none;stroke:#ff0000;stroke-opacity:1;stroke-width:1.062992" /><circle cx="748.402082844" cy="499.069984674" r="5.13779527559" style="fill:none;stroke:#ff0000;stroke-opacity:1;stroke-width:1.062992" /><circle cx="643.11023622" cy="179.316476083" r="5.13779527559" style="fill:none;stroke:#ff0000;stroke-opacity:1;stroke-width:1.062992" /><circle cx="784.842519685" cy="179.316476083" r="5.13779527559" style="fill:none;stroke:#ff0000;stroke-opacity:1;stroke-width:1.062992" /><circle cx="643.11023622" cy="37.5841926187" r="5.13779527559" style="fill:none;stroke:#ff0000;stroke-opacity:1;stroke-width:1.062992" /><circle cx="784.842519685" cy="37.5841926187" r="5.13779527559" style="fill:none;stroke:#ff0000;stroke-opacity:1;stroke-width:1.062992" /><polyline points="22.9514016023,291.990877573 87.5141254671,12.338996774" style="fill:none;stroke:#ff0000;stroke-opacity:1;stroke-width:1.062992" /><path d="M104.776587,-1.392185 A 17.7165354331 17.7165354331 0.0 0,0 87.5141254671 12.338996774" style="fill:none;stroke:#ff0000;stroke-opacity:1;stroke-width:1.062992" /><polyline points="104.776587245,-1.39218533407 1323.17616866,-1.39218533407" style="fill:none;stroke:#ff0000;stroke-opacity:1;stroke-width:1.062992" /><path d="M1340.438630,12.338997 A 17.7165354331 17.7165354331 0.0 0,0 1323.17616866 -1.39218533407" style="fill:none;stroke:#ff0000;stroke-opacity:1;stroke-width:1.062992" /><polyline points="1340.43863044,12.338996774 1405.0013543,291.990877573" style="fill:none;stroke:#ff0000;stroke-opacity:1;stroke-width:1.062992" /><path d="M845.599696,593.697122 A 329.527559055 329.527559055 0.0 0,0 1405.0013543 291.990877573" style="fill:none;stroke:#ff0000;stroke-opacity:1;stroke-width:1.062992" /><path d="M845.599696,593.697122 A 181.997040135 181.997040135 0.0 0,0 582.353059718 593.697121952" style="fill:none;stroke:#ff0000;stroke-opacity:1;stroke-width:1.062992" /><path d="M22.951402,291.990878 A 329.527559055 329.527559055 0.0 0,0 582.353059718 593.697121952" style="fill:none;stroke:#ff0000;stroke-opacity:1;stroke-width:1.062992" /></svg>