G04 #@! TF.FileFunction,Copper,L1,Top,Signal*
%FSLAX46Y46*%
G04 Gerber Fmt 4.6, Leading zero omitted, Abs format (unit mm)*
G04 Created by KiCad (PCBNEW 0.201412201901+5330~19~ubuntu14.04.1-product) date Mon 29 Dec 2014 15:13:16 GMT*
%MOMM*%
G01*
G04 APERTURE LIST*
%ADD10C,0.100000*%
%ADD11C,0.300000*%
%ADD12R,2.032000X2.032000*%
%ADD13O,2.032000X2.032000*%
%ADD14C,1.727200*%
%ADD15C,1.998980*%
%ADD16R,1.397000X1.397000*%
%ADD17C,1.397000*%
%ADD18C,0.254000*%
G04 APERTURE END LIST*
D10*
D11*
X126236609Y-53678571D02*
X126102679Y-53607143D01*
X126049108Y-53464286D01*
X126209823Y-52178571D01*
X127022323Y-53678571D02*
X126888393Y-53607143D01*
X126825894Y-53535714D01*
X126772322Y-53392857D01*
X126825893Y-52964286D01*
X126915179Y-52821429D01*
X126995536Y-52750000D01*
X127147323Y-52678571D01*
X127361608Y-52678571D01*
X127495536Y-52750000D01*
X127558036Y-52821429D01*
X127611608Y-52964286D01*
X127558037Y-53392857D01*
X127468751Y-53535714D01*
X127388393Y-53607143D01*
X127236608Y-53678571D01*
X127022323Y-53678571D01*
X128379466Y-53678571D02*
X128245536Y-53607143D01*
X128191965Y-53464286D01*
X128352680Y-52178571D01*
X129165180Y-53678571D02*
X129031250Y-53607143D01*
X128977679Y-53464286D01*
X129138394Y-52178571D01*
X129718751Y-52678571D02*
X129950894Y-53678571D01*
X130433036Y-52678571D02*
X129950894Y-53678571D01*
X129763393Y-54035714D01*
X129683036Y-54107143D01*
X129531251Y-54178571D01*
X130879465Y-53678571D02*
X131066965Y-52178571D01*
X130995536Y-52750000D02*
X131147322Y-52678571D01*
X131433036Y-52678571D01*
X131566964Y-52750000D01*
X131629464Y-52821429D01*
X131683036Y-52964286D01*
X131629465Y-53392857D01*
X131540179Y-53535714D01*
X131459821Y-53607143D01*
X131308036Y-53678571D01*
X131022322Y-53678571D01*
X130888393Y-53607143D01*
X132236608Y-53678571D02*
X132361608Y-52678571D01*
X132325893Y-52964286D02*
X132415178Y-52821429D01*
X132495536Y-52750000D01*
X132647322Y-52678571D01*
X132790179Y-52678571D01*
X133808036Y-53678571D02*
X133995536Y-52178571D01*
X133816964Y-53607143D02*
X133665179Y-53678571D01*
X133379465Y-53678571D01*
X133245535Y-53607143D01*
X133183036Y-53535714D01*
X133129464Y-53392857D01*
X133183035Y-52964286D01*
X133272321Y-52821429D01*
X133352678Y-52750000D01*
X133504465Y-52678571D01*
X133790179Y-52678571D01*
X133924107Y-52750000D01*
D12*
X134000000Y-23730000D03*
D13*
X134000000Y-26270000D03*
D10*
G36*
X123931682Y-66438127D02*
X122171918Y-67454127D01*
X121308318Y-65958327D01*
X123068082Y-64942327D01*
X123931682Y-66438127D01*
X123931682Y-66438127D01*
G37*
D14*
X121218018Y-64074723D02*
X121481982Y-63922323D01*
X119948018Y-61875018D02*
X120211982Y-61722618D01*
X118678018Y-59675314D02*
X118941982Y-59522914D01*
X117408018Y-57475609D02*
X117671982Y-57323209D01*
X116138018Y-55275905D02*
X116401982Y-55123505D01*
X114868018Y-53076200D02*
X115131982Y-52923800D01*
X113598018Y-50876495D02*
X113861982Y-50724095D01*
X112328018Y-48676791D02*
X112591982Y-48524391D01*
X111058018Y-46477086D02*
X111321982Y-46324686D01*
X109788018Y-44277382D02*
X110051982Y-44124982D01*
X108518018Y-42077677D02*
X108781982Y-41925277D01*
X107248018Y-39877973D02*
X107511982Y-39725573D01*
D10*
G36*
X137828082Y-67454127D02*
X136068318Y-66438127D01*
X136931918Y-64942327D01*
X138691682Y-65958327D01*
X137828082Y-67454127D01*
X137828082Y-67454127D01*
G37*
D14*
X138518018Y-63922323D02*
X138781982Y-64074723D01*
X139788018Y-61722618D02*
X140051982Y-61875018D01*
X141058018Y-59522914D02*
X141321982Y-59675314D01*
X142328018Y-57323209D02*
X142591982Y-57475609D01*
X143598018Y-55123505D02*
X143861982Y-55275905D01*
X144868018Y-52923800D02*
X145131982Y-53076200D01*
X146138018Y-50724095D02*
X146401982Y-50876495D01*
X147408018Y-48524391D02*
X147671982Y-48676791D01*
X148678018Y-46324686D02*
X148941982Y-46477086D01*
X149948018Y-44124982D02*
X150211982Y-44277382D01*
X151218018Y-41925277D02*
X151481982Y-42077677D01*
X152488018Y-39725573D02*
X152751982Y-39877973D01*
D12*
X126000000Y-23730000D03*
D13*
X126000000Y-26270000D03*
D15*
X132080000Y-28568000D03*
X132080000Y-43568000D03*
X128016000Y-28568000D03*
X128016000Y-43568000D03*
D16*
X122380000Y-21030000D03*
D17*
X122380000Y-23570000D03*
X122380000Y-26110000D03*
X122380000Y-28650000D03*
X122380000Y-31190000D03*
X122380000Y-33730000D03*
X122380000Y-36270000D03*
X122380000Y-38810000D03*
X122380000Y-41350000D03*
X122380000Y-43890000D03*
X122380000Y-46430000D03*
X122380000Y-48970000D03*
X137620000Y-48970000D03*
X137620000Y-46430000D03*
X137620000Y-43890000D03*
X137620000Y-41350000D03*
X137620000Y-38810000D03*
X137620000Y-36270000D03*
X137620000Y-33730000D03*
X137620000Y-31190000D03*
X137620000Y-28650000D03*
X137620000Y-26110000D03*
X137620000Y-23570000D03*
X137620000Y-21030000D03*
X135080000Y-48970000D03*
X132540000Y-48970000D03*
X130000000Y-48970000D03*
X127460000Y-48970000D03*
X124920000Y-48970000D03*
D18*
X122620000Y-66198227D02*
X137380000Y-66198227D01*
X121350000Y-63998523D02*
X138650000Y-63998523D01*
X120080000Y-61798818D02*
X139920000Y-61798818D01*
X118810000Y-59599114D02*
X141190000Y-59599114D01*
X117540000Y-57399409D02*
X142460000Y-57399409D01*
X135128000Y-55199705D02*
X143730000Y-55199705D01*
X116270000Y-55199705D02*
X135128000Y-55199705D01*
X121464000Y-38810000D02*
X118237000Y-42037000D01*
X118237000Y-42037000D02*
X118237000Y-49763000D01*
X118237000Y-49763000D02*
X115000000Y-53000000D01*
X122380000Y-38810000D02*
X121464000Y-38810000D01*
X121464000Y-36270000D02*
X117348000Y-40386000D01*
X117348000Y-40386000D02*
X117348000Y-47182295D01*
X117348000Y-47182295D02*
X113730000Y-50800295D01*
X122380000Y-36270000D02*
X121464000Y-36270000D01*
X121464000Y-33730000D02*
X116459000Y-38735000D01*
X116459000Y-38735000D02*
X116459000Y-44601591D01*
X116459000Y-44601591D02*
X112460000Y-48600591D01*
X122380000Y-33730000D02*
X121464000Y-33730000D01*
X121464000Y-31190000D02*
X115570000Y-37084000D01*
X115570000Y-37084000D02*
X115570000Y-42020886D01*
X115570000Y-42020886D02*
X111190000Y-46400886D01*
X122380000Y-31190000D02*
X121464000Y-31190000D01*
X121464000Y-28650000D02*
X114681000Y-35433000D01*
X114681000Y-35433000D02*
X114681000Y-39440182D01*
X114681000Y-39440182D02*
X109920000Y-44201182D01*
X122380000Y-28650000D02*
X121464000Y-28650000D01*
X121464000Y-26110000D02*
X113792000Y-33782000D01*
X113792000Y-33782000D02*
X113792000Y-36859477D01*
X113792000Y-36859477D02*
X108650000Y-42001477D01*
X122380000Y-26110000D02*
X121464000Y-26110000D01*
X121464000Y-23570000D02*
X112903000Y-32131000D01*
X112903000Y-32131000D02*
X112903000Y-34278773D01*
X112903000Y-34278773D02*
X107380000Y-39801773D01*
X122380000Y-23570000D02*
X121464000Y-23570000D01*
X138632000Y-43890000D02*
X140208000Y-45466000D01*
X140208000Y-45466000D02*
X140208000Y-48208000D01*
X140208000Y-48208000D02*
X145000000Y-53000000D01*
X137620000Y-43890000D02*
X138632000Y-43890000D01*
X138609000Y-36270000D02*
X141097000Y-38758000D01*
X141097000Y-38758000D02*
X141097000Y-45627295D01*
X141097000Y-45627295D02*
X146270000Y-50800295D01*
X137620000Y-36270000D02*
X138609000Y-36270000D01*
X138505000Y-33730000D02*
X141986000Y-37211000D01*
X141986000Y-37211000D02*
X141986000Y-43046591D01*
X141986000Y-43046591D02*
X147540000Y-48600591D01*
X137620000Y-33730000D02*
X138505000Y-33730000D01*
X138632000Y-31190000D02*
X142875000Y-35433000D01*
X142875000Y-35433000D02*
X142875000Y-40465886D01*
X142875000Y-40465886D02*
X148810000Y-46400886D01*
X137620000Y-31190000D02*
X138632000Y-31190000D01*
X138505000Y-28650000D02*
X143764000Y-33909000D01*
X143764000Y-33909000D02*
X143764000Y-37885182D01*
X143764000Y-37885182D02*
X150080000Y-44201182D01*
X137620000Y-28650000D02*
X138505000Y-28650000D01*
X138505000Y-26110000D02*
X144653000Y-32258000D01*
X144653000Y-32258000D02*
X144653000Y-35304477D01*
X144653000Y-35304477D02*
X151350000Y-42001477D01*
X137620000Y-26110000D02*
X138505000Y-26110000D01*
X138609000Y-23570000D02*
X145542000Y-30503000D01*
X145542000Y-30503000D02*
X145542000Y-32723773D01*
X145542000Y-32723773D02*
X152620000Y-39801773D01*
X137620000Y-23570000D02*
X138609000Y-23570000D01*
X125274000Y-21030000D02*
X124206000Y-22098000D01*
X124206000Y-22098000D02*
X124206000Y-45716000D01*
X124206000Y-45716000D02*
X127460000Y-48970000D01*
X137620000Y-21030000D02*
X125274000Y-21030000D01*
X134000000Y-26270000D02*
X134000000Y-26648000D01*
X134000000Y-26648000D02*
X132080000Y-28568000D01*
X134000000Y-26270000D02*
X134000000Y-26500000D01*
X126000000Y-26270000D02*
X126000000Y-26552000D01*
X126000000Y-26552000D02*
X128016000Y-28568000D01*
X126000000Y-26270000D02*
X126000000Y-26500000D01*
X137620000Y-38810000D02*
X136838000Y-38810000D01*
X136838000Y-38810000D02*
X132080000Y-43568000D01*
X132014000Y-43500000D02*
X132000000Y-43500000D01*
X132014000Y-43500000D02*
X132000000Y-43500000D01*
X137620000Y-41350000D02*
X136958000Y-41350000D01*
X136958000Y-41350000D02*
X132842000Y-45466000D01*
X132842000Y-45466000D02*
X129914000Y-45466000D01*
X129914000Y-45466000D02*
X128016000Y-43568000D01*
G36*
X143559912Y-53635035D02*
X143182143Y-53659795D01*
X142657718Y-53918411D01*
X142272182Y-54358029D01*
X142245135Y-54437705D01*
X135128750Y-54437705D01*
X135128750Y-50865000D01*
X130754583Y-50865000D01*
X130754583Y-49904188D01*
X130000000Y-49149605D01*
X129245417Y-49904188D01*
X129307071Y-50139800D01*
X129807480Y-50315927D01*
X130337199Y-50287148D01*
X130692929Y-50139800D01*
X130754583Y-49904188D01*
X130754583Y-50865000D01*
X124871251Y-50865000D01*
X124871251Y-54437705D01*
X117754865Y-54437705D01*
X117727822Y-54358036D01*
X117342288Y-53918416D01*
X116817864Y-53659798D01*
X116440086Y-53635035D01*
X116607529Y-53295498D01*
X116645774Y-52712025D01*
X116574772Y-52502858D01*
X118775815Y-50301816D01*
X118775815Y-50301815D01*
X118940996Y-50054605D01*
X118998999Y-49763000D01*
X118999000Y-49763000D01*
X118999000Y-42352630D01*
X121517817Y-39833812D01*
X121623647Y-39939827D01*
X121961446Y-40080093D01*
X121625620Y-40218854D01*
X121250173Y-40593647D01*
X121046732Y-41083587D01*
X121046269Y-41614086D01*
X121248854Y-42104380D01*
X121623647Y-42479827D01*
X121961446Y-42620093D01*
X121625620Y-42758854D01*
X121250173Y-43133647D01*
X121046732Y-43623587D01*
X121046269Y-44154086D01*
X121248854Y-44644380D01*
X121623647Y-45019827D01*
X121961446Y-45160093D01*
X121625620Y-45298854D01*
X121250173Y-45673647D01*
X121046732Y-46163587D01*
X121046269Y-46694086D01*
X121248854Y-47184380D01*
X121623647Y-47559827D01*
X121961446Y-47700093D01*
X121625620Y-47838854D01*
X121250173Y-48213647D01*
X121046732Y-48703587D01*
X121046269Y-49234086D01*
X121248854Y-49724380D01*
X121623647Y-50099827D01*
X122113587Y-50303268D01*
X122644086Y-50303731D01*
X123134380Y-50101146D01*
X123509827Y-49726353D01*
X123650093Y-49388553D01*
X123788854Y-49724380D01*
X124163647Y-50099827D01*
X124653587Y-50303268D01*
X125184086Y-50303731D01*
X125674380Y-50101146D01*
X126049827Y-49726353D01*
X126190093Y-49388553D01*
X126328854Y-49724380D01*
X126703647Y-50099827D01*
X127193587Y-50303268D01*
X127724086Y-50303731D01*
X128214380Y-50101146D01*
X128589827Y-49726353D01*
X128723313Y-49404881D01*
X128830200Y-49662929D01*
X129065812Y-49724583D01*
X129820395Y-48970000D01*
X129065812Y-48215417D01*
X128830200Y-48277071D01*
X128731916Y-48556311D01*
X128591146Y-48215620D01*
X128216353Y-47840173D01*
X127726413Y-47636732D01*
X127203905Y-47636275D01*
X124968000Y-45400370D01*
X124968000Y-27560271D01*
X125368190Y-27827670D01*
X126000000Y-27953345D01*
X126270006Y-27899637D01*
X126449285Y-28078915D01*
X126381794Y-28241453D01*
X126381226Y-28891694D01*
X126629538Y-29492655D01*
X127088927Y-29952846D01*
X127689453Y-30202206D01*
X128339694Y-30202774D01*
X128940655Y-29954462D01*
X129400846Y-29495073D01*
X129650206Y-28894547D01*
X129650774Y-28244306D01*
X129402462Y-27643345D01*
X128943073Y-27183154D01*
X128342547Y-26933794D01*
X127692306Y-26933226D01*
X127527112Y-27001482D01*
X127499073Y-26973443D01*
X127525325Y-26934155D01*
X127651000Y-26302345D01*
X127651000Y-26237655D01*
X127525325Y-25605845D01*
X127324628Y-25305481D01*
X127375699Y-25284327D01*
X127554327Y-25105698D01*
X127651000Y-24872309D01*
X127651000Y-24015750D01*
X127651000Y-23444250D01*
X127651000Y-22587691D01*
X127554327Y-22354302D01*
X127375699Y-22175673D01*
X127142310Y-22079000D01*
X126889691Y-22079000D01*
X126285750Y-22079000D01*
X126127000Y-22237750D01*
X126127000Y-23603000D01*
X127492250Y-23603000D01*
X127651000Y-23444250D01*
X127651000Y-24015750D01*
X127492250Y-23857000D01*
X126127000Y-23857000D01*
X126127000Y-23877000D01*
X125873000Y-23877000D01*
X125873000Y-23857000D01*
X125853000Y-23857000D01*
X125853000Y-23603000D01*
X125873000Y-23603000D01*
X125873000Y-22237750D01*
X125714250Y-22079000D01*
X125302630Y-22079000D01*
X125589630Y-21792000D01*
X136496460Y-21792000D01*
X136863647Y-22159827D01*
X137201446Y-22300093D01*
X136865620Y-22438854D01*
X136490173Y-22813647D01*
X136286732Y-23303587D01*
X136286269Y-23834086D01*
X136488854Y-24324380D01*
X136863647Y-24699827D01*
X137201446Y-24840093D01*
X136865620Y-24978854D01*
X136490173Y-25353647D01*
X136286732Y-25843587D01*
X136286269Y-26374086D01*
X136488854Y-26864380D01*
X136863647Y-27239827D01*
X137201446Y-27380093D01*
X136865620Y-27518854D01*
X136490173Y-27893647D01*
X136286732Y-28383587D01*
X136286269Y-28914086D01*
X136488854Y-29404380D01*
X136863647Y-29779827D01*
X137201446Y-29920093D01*
X136865620Y-30058854D01*
X136490173Y-30433647D01*
X136286732Y-30923587D01*
X136286269Y-31454086D01*
X136488854Y-31944380D01*
X136863647Y-32319827D01*
X137201446Y-32460093D01*
X136865620Y-32598854D01*
X136490173Y-32973647D01*
X136286732Y-33463587D01*
X136286269Y-33994086D01*
X136488854Y-34484380D01*
X136863647Y-34859827D01*
X137201446Y-35000093D01*
X136865620Y-35138854D01*
X136490173Y-35513647D01*
X136286732Y-36003587D01*
X136286269Y-36534086D01*
X136488854Y-37024380D01*
X136863647Y-37399827D01*
X137201446Y-37540093D01*
X136865620Y-37678854D01*
X136490173Y-38053647D01*
X136438495Y-38178100D01*
X136299185Y-38271185D01*
X135651000Y-38919369D01*
X135651000Y-26302345D01*
X135651000Y-26237655D01*
X135525325Y-25605845D01*
X135324628Y-25305481D01*
X135375699Y-25284327D01*
X135554327Y-25105698D01*
X135651000Y-24872309D01*
X135651000Y-24015750D01*
X135651000Y-23444250D01*
X135651000Y-22587691D01*
X135554327Y-22354302D01*
X135375699Y-22175673D01*
X135142310Y-22079000D01*
X134889691Y-22079000D01*
X134285750Y-22079000D01*
X134127000Y-22237750D01*
X134127000Y-23603000D01*
X135492250Y-23603000D01*
X135651000Y-23444250D01*
X135651000Y-24015750D01*
X135492250Y-23857000D01*
X134127000Y-23857000D01*
X134127000Y-23877000D01*
X133873000Y-23877000D01*
X133873000Y-23857000D01*
X133873000Y-23603000D01*
X133873000Y-22237750D01*
X133714250Y-22079000D01*
X133110309Y-22079000D01*
X132857690Y-22079000D01*
X132624301Y-22175673D01*
X132445673Y-22354302D01*
X132349000Y-22587691D01*
X132349000Y-23444250D01*
X132507750Y-23603000D01*
X133873000Y-23603000D01*
X133873000Y-23857000D01*
X132507750Y-23857000D01*
X132349000Y-24015750D01*
X132349000Y-24872309D01*
X132445673Y-25105698D01*
X132624301Y-25284327D01*
X132675371Y-25305481D01*
X132474675Y-25605845D01*
X132349000Y-26237655D01*
X132349000Y-26302345D01*
X132474675Y-26934155D01*
X132500501Y-26972807D01*
X132406547Y-26933794D01*
X131756306Y-26933226D01*
X131155345Y-27181538D01*
X130695154Y-27640927D01*
X130445794Y-28241453D01*
X130445226Y-28891694D01*
X130693538Y-29492655D01*
X131152927Y-29952846D01*
X131753453Y-30202206D01*
X132403694Y-30202774D01*
X133004655Y-29954462D01*
X133464846Y-29495073D01*
X133714206Y-28894547D01*
X133714774Y-28244306D01*
X133646517Y-28079112D01*
X133810065Y-27915564D01*
X134000000Y-27953345D01*
X134631810Y-27827670D01*
X135167433Y-27469778D01*
X135525325Y-26934155D01*
X135651000Y-26302345D01*
X135651000Y-38919369D01*
X132569084Y-42001285D01*
X132406547Y-41933794D01*
X131756306Y-41933226D01*
X131155345Y-42181538D01*
X130695154Y-42640927D01*
X130445794Y-43241453D01*
X130445226Y-43891694D01*
X130693538Y-44492655D01*
X130904514Y-44704000D01*
X130229630Y-44704000D01*
X129582714Y-44057084D01*
X129650206Y-43894547D01*
X129650774Y-43244306D01*
X129402462Y-42643345D01*
X128943073Y-42183154D01*
X128342547Y-41933794D01*
X127692306Y-41933226D01*
X127091345Y-42181538D01*
X126631154Y-42640927D01*
X126381794Y-43241453D01*
X126381226Y-43891694D01*
X126629538Y-44492655D01*
X127088927Y-44952846D01*
X127689453Y-45202206D01*
X128339694Y-45202774D01*
X128504887Y-45134517D01*
X129375184Y-46004815D01*
X129375185Y-46004815D01*
X129622395Y-46169996D01*
X129914000Y-46228000D01*
X132842000Y-46228000D01*
X132842000Y-46227999D01*
X133133604Y-46169996D01*
X133133605Y-46169996D01*
X133380815Y-46004815D01*
X136893434Y-42492195D01*
X137201446Y-42620093D01*
X136865620Y-42758854D01*
X136490173Y-43133647D01*
X136286732Y-43623587D01*
X136286269Y-44154086D01*
X136488854Y-44644380D01*
X136863647Y-45019827D01*
X137201446Y-45160093D01*
X136865620Y-45298854D01*
X136490173Y-45673647D01*
X136286732Y-46163587D01*
X136286269Y-46694086D01*
X136488854Y-47184380D01*
X136863647Y-47559827D01*
X137201446Y-47700093D01*
X136865620Y-47838854D01*
X136490173Y-48213647D01*
X136349906Y-48551446D01*
X136211146Y-48215620D01*
X135836353Y-47840173D01*
X135346413Y-47636732D01*
X134815914Y-47636269D01*
X134325620Y-47838854D01*
X133950173Y-48213647D01*
X133809906Y-48551446D01*
X133671146Y-48215620D01*
X133296353Y-47840173D01*
X132806413Y-47636732D01*
X132275914Y-47636269D01*
X131785620Y-47838854D01*
X131410173Y-48213647D01*
X131276686Y-48535118D01*
X131169800Y-48277071D01*
X130934188Y-48215417D01*
X130754583Y-48395022D01*
X130754583Y-48035812D01*
X130692929Y-47800200D01*
X130192520Y-47624073D01*
X129662801Y-47652852D01*
X129307071Y-47800200D01*
X129245417Y-48035812D01*
X130000000Y-48790395D01*
X130754583Y-48035812D01*
X130754583Y-48395022D01*
X130179605Y-48970000D01*
X130934188Y-49724583D01*
X131169800Y-49662929D01*
X131268083Y-49383688D01*
X131408854Y-49724380D01*
X131783647Y-50099827D01*
X132273587Y-50303268D01*
X132804086Y-50303731D01*
X133294380Y-50101146D01*
X133669827Y-49726353D01*
X133810093Y-49388553D01*
X133948854Y-49724380D01*
X134323647Y-50099827D01*
X134813587Y-50303268D01*
X135344086Y-50303731D01*
X135834380Y-50101146D01*
X136209827Y-49726353D01*
X136350093Y-49388553D01*
X136488854Y-49724380D01*
X136863647Y-50099827D01*
X137353587Y-50303268D01*
X137884086Y-50303731D01*
X138374380Y-50101146D01*
X138749827Y-49726353D01*
X138953268Y-49236413D01*
X138953731Y-48705914D01*
X138751146Y-48215620D01*
X138376353Y-47840173D01*
X138038553Y-47699906D01*
X138374380Y-47561146D01*
X138749827Y-47186353D01*
X138953268Y-46696413D01*
X138953731Y-46165914D01*
X138751146Y-45675620D01*
X138376353Y-45300173D01*
X138038553Y-45159906D01*
X138374380Y-45021146D01*
X138530083Y-44865713D01*
X139446000Y-45781630D01*
X139446000Y-48208000D01*
X139504004Y-48499605D01*
X139669185Y-48746815D01*
X143425227Y-52502858D01*
X143354227Y-52712017D01*
X143392469Y-53295490D01*
X143559912Y-53635035D01*
X143559912Y-53635035D01*
G37*
X143559912Y-53635035D02*
X143182143Y-53659795D01*
X142657718Y-53918411D01*
X142272182Y-54358029D01*
X142245135Y-54437705D01*
X135128750Y-54437705D01*
X135128750Y-50865000D01*
X130754583Y-50865000D01*
X130754583Y-49904188D01*
X130000000Y-49149605D01*
X129245417Y-49904188D01*
X129307071Y-50139800D01*
X129807480Y-50315927D01*
X130337199Y-50287148D01*
X130692929Y-50139800D01*
X130754583Y-49904188D01*
X130754583Y-50865000D01*
X124871251Y-50865000D01*
X124871251Y-54437705D01*
X117754865Y-54437705D01*
X117727822Y-54358036D01*
X117342288Y-53918416D01*
X116817864Y-53659798D01*
X116440086Y-53635035D01*
X116607529Y-53295498D01*
X116645774Y-52712025D01*
X116574772Y-52502858D01*
X118775815Y-50301816D01*
X118775815Y-50301815D01*
X118940996Y-50054605D01*
X118998999Y-49763000D01*
X118999000Y-49763000D01*
X118999000Y-42352630D01*
X121517817Y-39833812D01*
X121623647Y-39939827D01*
X121961446Y-40080093D01*
X121625620Y-40218854D01*
X121250173Y-40593647D01*
X121046732Y-41083587D01*
X121046269Y-41614086D01*
X121248854Y-42104380D01*
X121623647Y-42479827D01*
X121961446Y-42620093D01*
X121625620Y-42758854D01*
X121250173Y-43133647D01*
X121046732Y-43623587D01*
X121046269Y-44154086D01*
X121248854Y-44644380D01*
X121623647Y-45019827D01*
X121961446Y-45160093D01*
X121625620Y-45298854D01*
X121250173Y-45673647D01*
X121046732Y-46163587D01*
X121046269Y-46694086D01*
X121248854Y-47184380D01*
X121623647Y-47559827D01*
X121961446Y-47700093D01*
X121625620Y-47838854D01*
X121250173Y-48213647D01*
X121046732Y-48703587D01*
X121046269Y-49234086D01*
X121248854Y-49724380D01*
X121623647Y-50099827D01*
X122113587Y-50303268D01*
X122644086Y-50303731D01*
X123134380Y-50101146D01*
X123509827Y-49726353D01*
X123650093Y-49388553D01*
X123788854Y-49724380D01*
X124163647Y-50099827D01*
X124653587Y-50303268D01*
X125184086Y-50303731D01*
X125674380Y-50101146D01*
X126049827Y-49726353D01*
X126190093Y-49388553D01*
X126328854Y-49724380D01*
X126703647Y-50099827D01*
X127193587Y-50303268D01*
X127724086Y-50303731D01*
X128214380Y-50101146D01*
X128589827Y-49726353D01*
X128723313Y-49404881D01*
X128830200Y-49662929D01*
X129065812Y-49724583D01*
X129820395Y-48970000D01*
X129065812Y-48215417D01*
X128830200Y-48277071D01*
X128731916Y-48556311D01*
X128591146Y-48215620D01*
X128216353Y-47840173D01*
X127726413Y-47636732D01*
X127203905Y-47636275D01*
X124968000Y-45400370D01*
X124968000Y-27560271D01*
X125368190Y-27827670D01*
X126000000Y-27953345D01*
X126270006Y-27899637D01*
X126449285Y-28078915D01*
X126381794Y-28241453D01*
X126381226Y-28891694D01*
X126629538Y-29492655D01*
X127088927Y-29952846D01*
X127689453Y-30202206D01*
X128339694Y-30202774D01*
X128940655Y-29954462D01*
X129400846Y-29495073D01*
X129650206Y-28894547D01*
X129650774Y-28244306D01*
X129402462Y-27643345D01*
X128943073Y-27183154D01*
X128342547Y-26933794D01*
X127692306Y-26933226D01*
X127527112Y-27001482D01*
X127499073Y-26973443D01*
X127525325Y-26934155D01*
X127651000Y-26302345D01*
X127651000Y-26237655D01*
X127525325Y-25605845D01*
X127324628Y-25305481D01*
X127375699Y-25284327D01*
X127554327Y-25105698D01*
X127651000Y-24872309D01*
X127651000Y-24015750D01*
X127651000Y-23444250D01*
X127651000Y-22587691D01*
X127554327Y-22354302D01*
X127375699Y-22175673D01*
X127142310Y-22079000D01*
X126889691Y-22079000D01*
X126285750Y-22079000D01*
X126127000Y-22237750D01*
X126127000Y-23603000D01*
X127492250Y-23603000D01*
X127651000Y-23444250D01*
X127651000Y-24015750D01*
X127492250Y-23857000D01*
X126127000Y-23857000D01*
X126127000Y-23877000D01*
X125873000Y-23877000D01*
X125873000Y-23857000D01*
X125853000Y-23857000D01*
X125853000Y-23603000D01*
X125873000Y-23603000D01*
X125873000Y-22237750D01*
X125714250Y-22079000D01*
X125302630Y-22079000D01*
X125589630Y-21792000D01*
X136496460Y-21792000D01*
X136863647Y-22159827D01*
X137201446Y-22300093D01*
X136865620Y-22438854D01*
X136490173Y-22813647D01*
X136286732Y-23303587D01*
X136286269Y-23834086D01*
X136488854Y-24324380D01*
X136863647Y-24699827D01*
X137201446Y-24840093D01*
X136865620Y-24978854D01*
X136490173Y-25353647D01*
X136286732Y-25843587D01*
X136286269Y-26374086D01*
X136488854Y-26864380D01*
X136863647Y-27239827D01*
X137201446Y-27380093D01*
X136865620Y-27518854D01*
X136490173Y-27893647D01*
X136286732Y-28383587D01*
X136286269Y-28914086D01*
X136488854Y-29404380D01*
X136863647Y-29779827D01*
X137201446Y-29920093D01*
X136865620Y-30058854D01*
X136490173Y-30433647D01*
X136286732Y-30923587D01*
X136286269Y-31454086D01*
X136488854Y-31944380D01*
X136863647Y-32319827D01*
X137201446Y-32460093D01*
X136865620Y-32598854D01*
X136490173Y-32973647D01*
X136286732Y-33463587D01*
X136286269Y-33994086D01*
X136488854Y-34484380D01*
X136863647Y-34859827D01*
X137201446Y-35000093D01*
X136865620Y-35138854D01*
X136490173Y-35513647D01*
X136286732Y-36003587D01*
X136286269Y-36534086D01*
X136488854Y-37024380D01*
X136863647Y-37399827D01*
X137201446Y-37540093D01*
X136865620Y-37678854D01*
X136490173Y-38053647D01*
X136438495Y-38178100D01*
X136299185Y-38271185D01*
X135651000Y-38919369D01*
X135651000Y-26302345D01*
X135651000Y-26237655D01*
X135525325Y-25605845D01*
X135324628Y-25305481D01*
X135375699Y-25284327D01*
X135554327Y-25105698D01*
X135651000Y-24872309D01*
X135651000Y-24015750D01*
X135651000Y-23444250D01*
X135651000Y-22587691D01*
X135554327Y-22354302D01*
X135375699Y-22175673D01*
X135142310Y-22079000D01*
X134889691Y-22079000D01*
X134285750Y-22079000D01*
X134127000Y-22237750D01*
X134127000Y-23603000D01*
X135492250Y-23603000D01*
X135651000Y-23444250D01*
X135651000Y-24015750D01*
X135492250Y-23857000D01*
X134127000Y-23857000D01*
X134127000Y-23877000D01*
X133873000Y-23877000D01*
X133873000Y-23857000D01*
X133873000Y-23603000D01*
X133873000Y-22237750D01*
X133714250Y-22079000D01*
X133110309Y-22079000D01*
X132857690Y-22079000D01*
X132624301Y-22175673D01*
X132445673Y-22354302D01*
X132349000Y-22587691D01*
X132349000Y-23444250D01*
X132507750Y-23603000D01*
X133873000Y-23603000D01*
X133873000Y-23857000D01*
X132507750Y-23857000D01*
X132349000Y-24015750D01*
X132349000Y-24872309D01*
X132445673Y-25105698D01*
X132624301Y-25284327D01*
X132675371Y-25305481D01*
X132474675Y-25605845D01*
X132349000Y-26237655D01*
X132349000Y-26302345D01*
X132474675Y-26934155D01*
X132500501Y-26972807D01*
X132406547Y-26933794D01*
X131756306Y-26933226D01*
X131155345Y-27181538D01*
X130695154Y-27640927D01*
X130445794Y-28241453D01*
X130445226Y-28891694D01*
X130693538Y-29492655D01*
X131152927Y-29952846D01*
X131753453Y-30202206D01*
X132403694Y-30202774D01*
X133004655Y-29954462D01*
X133464846Y-29495073D01*
X133714206Y-28894547D01*
X133714774Y-28244306D01*
X133646517Y-28079112D01*
X133810065Y-27915564D01*
X134000000Y-27953345D01*
X134631810Y-27827670D01*
X135167433Y-27469778D01*
X135525325Y-26934155D01*
X135651000Y-26302345D01*
X135651000Y-38919369D01*
X132569084Y-42001285D01*
X132406547Y-41933794D01*
X131756306Y-41933226D01*
X131155345Y-42181538D01*
X130695154Y-42640927D01*
X130445794Y-43241453D01*
X130445226Y-43891694D01*
X130693538Y-44492655D01*
X130904514Y-44704000D01*
X130229630Y-44704000D01*
X129582714Y-44057084D01*
X129650206Y-43894547D01*
X129650774Y-43244306D01*
X129402462Y-42643345D01*
X128943073Y-42183154D01*
X128342547Y-41933794D01*
X127692306Y-41933226D01*
X127091345Y-42181538D01*
X126631154Y-42640927D01*
X126381794Y-43241453D01*
X126381226Y-43891694D01*
X126629538Y-44492655D01*
X127088927Y-44952846D01*
X127689453Y-45202206D01*
X128339694Y-45202774D01*
X128504887Y-45134517D01*
X129375184Y-46004815D01*
X129375185Y-46004815D01*
X129622395Y-46169996D01*
X129914000Y-46228000D01*
X132842000Y-46228000D01*
X132842000Y-46227999D01*
X133133604Y-46169996D01*
X133133605Y-46169996D01*
X133380815Y-46004815D01*
X136893434Y-42492195D01*
X137201446Y-42620093D01*
X136865620Y-42758854D01*
X136490173Y-43133647D01*
X136286732Y-43623587D01*
X136286269Y-44154086D01*
X136488854Y-44644380D01*
X136863647Y-45019827D01*
X137201446Y-45160093D01*
X136865620Y-45298854D01*
X136490173Y-45673647D01*
X136286732Y-46163587D01*
X136286269Y-46694086D01*
X136488854Y-47184380D01*
X136863647Y-47559827D01*
X137201446Y-47700093D01*
X136865620Y-47838854D01*
X136490173Y-48213647D01*
X136349906Y-48551446D01*
X136211146Y-48215620D01*
X135836353Y-47840173D01*
X135346413Y-47636732D01*
X134815914Y-47636269D01*
X134325620Y-47838854D01*
X133950173Y-48213647D01*
X133809906Y-48551446D01*
X133671146Y-48215620D01*
X133296353Y-47840173D01*
X132806413Y-47636732D01*
X132275914Y-47636269D01*
X131785620Y-47838854D01*
X131410173Y-48213647D01*
X131276686Y-48535118D01*
X131169800Y-48277071D01*
X130934188Y-48215417D01*
X130754583Y-48395022D01*
X130754583Y-48035812D01*
X130692929Y-47800200D01*
X130192520Y-47624073D01*
X129662801Y-47652852D01*
X129307071Y-47800200D01*
X129245417Y-48035812D01*
X130000000Y-48790395D01*
X130754583Y-48035812D01*
X130754583Y-48395022D01*
X130179605Y-48970000D01*
X130934188Y-49724583D01*
X131169800Y-49662929D01*
X131268083Y-49383688D01*
X131408854Y-49724380D01*
X131783647Y-50099827D01*
X132273587Y-50303268D01*
X132804086Y-50303731D01*
X133294380Y-50101146D01*
X133669827Y-49726353D01*
X133810093Y-49388553D01*
X133948854Y-49724380D01*
X134323647Y-50099827D01*
X134813587Y-50303268D01*
X135344086Y-50303731D01*
X135834380Y-50101146D01*
X136209827Y-49726353D01*
X136350093Y-49388553D01*
X136488854Y-49724380D01*
X136863647Y-50099827D01*
X137353587Y-50303268D01*
X137884086Y-50303731D01*
X138374380Y-50101146D01*
X138749827Y-49726353D01*
X138953268Y-49236413D01*
X138953731Y-48705914D01*
X138751146Y-48215620D01*
X138376353Y-47840173D01*
X138038553Y-47699906D01*
X138374380Y-47561146D01*
X138749827Y-47186353D01*
X138953268Y-46696413D01*
X138953731Y-46165914D01*
X138751146Y-45675620D01*
X138376353Y-45300173D01*
X138038553Y-45159906D01*
X138374380Y-45021146D01*
X138530083Y-44865713D01*
X139446000Y-45781630D01*
X139446000Y-48208000D01*
X139504004Y-48499605D01*
X139669185Y-48746815D01*
X143425227Y-52502858D01*
X143354227Y-52712017D01*
X143392469Y-53295490D01*
X143559912Y-53635035D01*
G36*
X154315000Y-64932532D02*
X153974141Y-66646144D01*
X153041675Y-68041677D01*
X152135240Y-68647337D01*
X152135240Y-64577211D01*
X151810910Y-63792273D01*
X151210886Y-63191200D01*
X150426515Y-62865501D01*
X149577211Y-62864760D01*
X148792273Y-63189090D01*
X148191200Y-63789114D01*
X147865501Y-64573485D01*
X147864760Y-65422789D01*
X148189090Y-66207727D01*
X148789114Y-66808800D01*
X149573485Y-67134499D01*
X150422789Y-67135240D01*
X151207727Y-66810910D01*
X151808800Y-66210886D01*
X152134499Y-65426515D01*
X152135240Y-64577211D01*
X152135240Y-68647337D01*
X151646142Y-68974142D01*
X149932532Y-69315000D01*
X112135240Y-69315000D01*
X112135240Y-64577211D01*
X111810910Y-63792273D01*
X111210886Y-63191200D01*
X110426515Y-62865501D01*
X109577211Y-62864760D01*
X108792273Y-63189090D01*
X108191200Y-63789114D01*
X107865501Y-64573485D01*
X107864760Y-65422789D01*
X108189090Y-66207727D01*
X108789114Y-66808800D01*
X109573485Y-67134499D01*
X110422789Y-67135240D01*
X111207727Y-66810910D01*
X111808800Y-66210886D01*
X112134499Y-65426515D01*
X112135240Y-64577211D01*
X112135240Y-69315000D01*
X110067467Y-69315000D01*
X108353855Y-68974141D01*
X106958322Y-68041675D01*
X106025857Y-66646142D01*
X105685000Y-64932532D01*
X105685000Y-25067467D01*
X106025857Y-23353857D01*
X106958322Y-21958324D01*
X108353855Y-21025858D01*
X110067467Y-20685000D01*
X121046500Y-20685000D01*
X121046500Y-20744250D01*
X121205250Y-20903000D01*
X122253000Y-20903000D01*
X122253000Y-20883000D01*
X122507000Y-20883000D01*
X122507000Y-20903000D01*
X123554750Y-20903000D01*
X123713500Y-20744250D01*
X123713500Y-20685000D01*
X124541370Y-20685000D01*
X123713500Y-21512870D01*
X123713500Y-21315750D01*
X123554750Y-21157000D01*
X122507000Y-21157000D01*
X122507000Y-21177000D01*
X122253000Y-21177000D01*
X122253000Y-21157000D01*
X121205250Y-21157000D01*
X121046500Y-21315750D01*
X121046500Y-21602191D01*
X121046500Y-21854810D01*
X121143173Y-22088199D01*
X121321802Y-22266827D01*
X121555191Y-22363500D01*
X121807990Y-22363500D01*
X121625620Y-22438854D01*
X121250173Y-22813647D01*
X121233477Y-22853853D01*
X121233477Y-22853854D01*
X121172395Y-22866004D01*
X120925184Y-23031185D01*
X112364185Y-31592185D01*
X112199004Y-31839395D01*
X112141000Y-32131000D01*
X112141000Y-33963142D01*
X112135240Y-33968902D01*
X112135240Y-24577211D01*
X111810910Y-23792273D01*
X111210886Y-23191200D01*
X110426515Y-22865501D01*
X109577211Y-22864760D01*
X108792273Y-23189090D01*
X108191200Y-23789114D01*
X107865501Y-24573485D01*
X107864760Y-25422789D01*
X108189090Y-26207727D01*
X108789114Y-26808800D01*
X109573485Y-27134499D01*
X110422789Y-27135240D01*
X111207727Y-26810910D01*
X111808800Y-26210886D01*
X112134499Y-25426515D01*
X112135240Y-24577211D01*
X112135240Y-33968902D01*
X107847541Y-38256601D01*
X107344391Y-38223621D01*
X106790698Y-38411573D01*
X106470710Y-38596317D01*
X106031089Y-38981852D01*
X105772471Y-39506275D01*
X105734226Y-40089748D01*
X105922178Y-40643441D01*
X106307713Y-41083062D01*
X106832136Y-41341680D01*
X107209912Y-41366442D01*
X107042471Y-41705979D01*
X107004226Y-42289452D01*
X107192178Y-42843145D01*
X107577713Y-43282766D01*
X108102136Y-43541384D01*
X108479913Y-43566146D01*
X108312471Y-43905684D01*
X108274226Y-44489157D01*
X108462178Y-45042850D01*
X108847713Y-45482471D01*
X109372136Y-45741089D01*
X109749912Y-45765851D01*
X109582471Y-46105388D01*
X109544226Y-46688861D01*
X109732178Y-47242554D01*
X110117713Y-47682175D01*
X110642136Y-47940793D01*
X111019913Y-47965555D01*
X110852471Y-48305093D01*
X110814226Y-48888566D01*
X111002178Y-49442259D01*
X111387713Y-49881880D01*
X111912136Y-50140498D01*
X112289912Y-50165260D01*
X112122471Y-50504797D01*
X112084226Y-51088270D01*
X112272178Y-51641963D01*
X112657713Y-52081584D01*
X113182136Y-52340202D01*
X113559913Y-52364964D01*
X113392471Y-52704502D01*
X113354226Y-53287975D01*
X113542178Y-53841668D01*
X113927713Y-54281289D01*
X114452136Y-54539907D01*
X114829913Y-54564669D01*
X114662471Y-54904207D01*
X114624226Y-55487680D01*
X114812178Y-56041373D01*
X115197713Y-56480994D01*
X115722136Y-56739612D01*
X116099912Y-56764374D01*
X115932471Y-57103911D01*
X115894226Y-57687384D01*
X116082178Y-58241077D01*
X116467713Y-58680698D01*
X116992136Y-58939316D01*
X117369913Y-58964078D01*
X117202471Y-59303616D01*
X117164226Y-59887089D01*
X117352178Y-60440782D01*
X117737713Y-60880403D01*
X118262136Y-61139021D01*
X118639912Y-61163783D01*
X118472471Y-61503320D01*
X118434226Y-62086793D01*
X118622178Y-62640486D01*
X119007713Y-63080107D01*
X119532136Y-63338725D01*
X119909913Y-63363487D01*
X119742471Y-63703025D01*
X119704226Y-64286498D01*
X119892178Y-64840191D01*
X120277713Y-65279812D01*
X120802136Y-65538430D01*
X120821081Y-65539671D01*
X120798402Y-65559373D01*
X120684003Y-65786836D01*
X120666155Y-66040820D01*
X120747618Y-66282047D01*
X121611218Y-67777847D01*
X121772964Y-67964043D01*
X122000427Y-68078442D01*
X122254411Y-68096290D01*
X122495638Y-68014827D01*
X124255402Y-66998827D01*
X124299836Y-66960227D01*
X135700722Y-66960227D01*
X135744598Y-66998827D01*
X137504362Y-68014827D01*
X137737536Y-68095205D01*
X137991724Y-68080546D01*
X138220605Y-67969010D01*
X138388782Y-67777847D01*
X139252382Y-66282047D01*
X139332760Y-66048873D01*
X139318101Y-65794685D01*
X139206565Y-65565804D01*
X139177006Y-65539799D01*
X139197858Y-65538433D01*
X139722282Y-65279817D01*
X140107818Y-64840199D01*
X140295773Y-64286506D01*
X140257531Y-63703033D01*
X140090087Y-63363487D01*
X140467858Y-63338728D01*
X140992282Y-63080112D01*
X141377818Y-62640494D01*
X141565773Y-62086801D01*
X141527531Y-61503328D01*
X141360087Y-61163783D01*
X141737858Y-61139024D01*
X142262282Y-60880408D01*
X142647818Y-60440790D01*
X142835773Y-59887097D01*
X142797531Y-59303624D01*
X142630087Y-58964078D01*
X143007858Y-58939319D01*
X143532282Y-58680703D01*
X143917818Y-58241085D01*
X144105773Y-57687392D01*
X144067531Y-57103919D01*
X143900087Y-56764374D01*
X144277858Y-56739615D01*
X144802282Y-56480999D01*
X145187818Y-56041381D01*
X145375773Y-55487688D01*
X145337531Y-54904215D01*
X145170087Y-54564669D01*
X145547858Y-54539910D01*
X146072282Y-54281294D01*
X146457818Y-53841676D01*
X146645773Y-53287983D01*
X146607531Y-52704510D01*
X146440087Y-52364964D01*
X146817858Y-52340205D01*
X147342282Y-52081589D01*
X147727818Y-51641971D01*
X147915773Y-51088278D01*
X147877531Y-50504805D01*
X147710087Y-50165260D01*
X148087858Y-50140501D01*
X148612282Y-49881885D01*
X148997818Y-49442267D01*
X149185773Y-48888574D01*
X149147531Y-48305101D01*
X148980087Y-47965555D01*
X149357858Y-47940796D01*
X149882282Y-47682180D01*
X150267818Y-47242562D01*
X150455773Y-46688869D01*
X150417531Y-46105396D01*
X150250087Y-45765851D01*
X150627858Y-45741092D01*
X151152282Y-45482476D01*
X151537818Y-45042858D01*
X151725773Y-44489165D01*
X151687531Y-43905692D01*
X151520087Y-43566146D01*
X151897858Y-43541387D01*
X152422282Y-43282771D01*
X152807818Y-42843153D01*
X152995773Y-42289460D01*
X152957531Y-41705987D01*
X152790087Y-41366442D01*
X153167858Y-41341683D01*
X153692282Y-41083067D01*
X154077818Y-40643449D01*
X154265773Y-40089756D01*
X154227531Y-39506283D01*
X153968915Y-38981858D01*
X153529297Y-38596322D01*
X153209309Y-38411576D01*
X152655616Y-38223621D01*
X152152456Y-38256599D01*
X152135240Y-38239382D01*
X152135240Y-24577211D01*
X151810910Y-23792273D01*
X151210886Y-23191200D01*
X150426515Y-22865501D01*
X149577211Y-22864760D01*
X148792273Y-23189090D01*
X148191200Y-23789114D01*
X147865501Y-24573485D01*
X147864760Y-25422789D01*
X148189090Y-26207727D01*
X148789114Y-26808800D01*
X149573485Y-27134499D01*
X150422789Y-27135240D01*
X151207727Y-26810910D01*
X151808800Y-26210886D01*
X152134499Y-25426515D01*
X152135240Y-24577211D01*
X152135240Y-38239382D01*
X146304000Y-32408142D01*
X146304000Y-30503000D01*
X146245996Y-30211396D01*
X146245996Y-30211395D01*
X146179834Y-30112376D01*
X146080816Y-29964185D01*
X139147815Y-23031185D01*
X138900605Y-22866004D01*
X138760444Y-22838124D01*
X138751146Y-22815620D01*
X138376353Y-22440173D01*
X138038553Y-22299906D01*
X138374380Y-22161146D01*
X138749827Y-21786353D01*
X138953268Y-21296413D01*
X138953731Y-20765914D01*
X138920298Y-20685000D01*
X149932532Y-20685000D01*
X151646142Y-21025857D01*
X153041675Y-21958322D01*
X153974141Y-23353855D01*
X154315000Y-25067467D01*
X154315000Y-64932532D01*
X154315000Y-64932532D01*
G37*
X154315000Y-64932532D02*
X153974141Y-66646144D01*
X153041675Y-68041677D01*
X152135240Y-68647337D01*
X152135240Y-64577211D01*
X151810910Y-63792273D01*
X151210886Y-63191200D01*
X150426515Y-62865501D01*
X149577211Y-62864760D01*
X148792273Y-63189090D01*
X148191200Y-63789114D01*
X147865501Y-64573485D01*
X147864760Y-65422789D01*
X148189090Y-66207727D01*
X148789114Y-66808800D01*
X149573485Y-67134499D01*
X150422789Y-67135240D01*
X151207727Y-66810910D01*
X151808800Y-66210886D01*
X152134499Y-65426515D01*
X152135240Y-64577211D01*
X152135240Y-68647337D01*
X151646142Y-68974142D01*
X149932532Y-69315000D01*
X112135240Y-69315000D01*
X112135240Y-64577211D01*
X111810910Y-63792273D01*
X111210886Y-63191200D01*
X110426515Y-62865501D01*
X109577211Y-62864760D01*
X108792273Y-63189090D01*
X108191200Y-63789114D01*
X107865501Y-64573485D01*
X107864760Y-65422789D01*
X108189090Y-66207727D01*
X108789114Y-66808800D01*
X109573485Y-67134499D01*
X110422789Y-67135240D01*
X111207727Y-66810910D01*
X111808800Y-66210886D01*
X112134499Y-65426515D01*
X112135240Y-64577211D01*
X112135240Y-69315000D01*
X110067467Y-69315000D01*
X108353855Y-68974141D01*
X106958322Y-68041675D01*
X106025857Y-66646142D01*
X105685000Y-64932532D01*
X105685000Y-25067467D01*
X106025857Y-23353857D01*
X106958322Y-21958324D01*
X108353855Y-21025858D01*
X110067467Y-20685000D01*
X121046500Y-20685000D01*
X121046500Y-20744250D01*
X121205250Y-20903000D01*
X122253000Y-20903000D01*
X122253000Y-20883000D01*
X122507000Y-20883000D01*
X122507000Y-20903000D01*
X123554750Y-20903000D01*
X123713500Y-20744250D01*
X123713500Y-20685000D01*
X124541370Y-20685000D01*
X123713500Y-21512870D01*
X123713500Y-21315750D01*
X123554750Y-21157000D01*
X122507000Y-21157000D01*
X122507000Y-21177000D01*
X122253000Y-21177000D01*
X122253000Y-21157000D01*
X121205250Y-21157000D01*
X121046500Y-21315750D01*
X121046500Y-21602191D01*
X121046500Y-21854810D01*
X121143173Y-22088199D01*
X121321802Y-22266827D01*
X121555191Y-22363500D01*
X121807990Y-22363500D01*
X121625620Y-22438854D01*
X121250173Y-22813647D01*
X121233477Y-22853853D01*
X121233477Y-22853854D01*
X121172395Y-22866004D01*
X120925184Y-23031185D01*
X112364185Y-31592185D01*
X112199004Y-31839395D01*
X112141000Y-32131000D01*
X112141000Y-33963142D01*
X112135240Y-33968902D01*
X112135240Y-24577211D01*
X111810910Y-23792273D01*
X111210886Y-23191200D01*
X110426515Y-22865501D01*
X109577211Y-22864760D01*
X108792273Y-23189090D01*
X108191200Y-23789114D01*
X107865501Y-24573485D01*
X107864760Y-25422789D01*
X108189090Y-26207727D01*
X108789114Y-26808800D01*
X109573485Y-27134499D01*
X110422789Y-27135240D01*
X111207727Y-26810910D01*
X111808800Y-26210886D01*
X112134499Y-25426515D01*
X112135240Y-24577211D01*
X112135240Y-33968902D01*
X107847541Y-38256601D01*
X107344391Y-38223621D01*
X106790698Y-38411573D01*
X106470710Y-38596317D01*
X106031089Y-38981852D01*
X105772471Y-39506275D01*
X105734226Y-40089748D01*
X105922178Y-40643441D01*
X106307713Y-41083062D01*
X106832136Y-41341680D01*
X107209912Y-41366442D01*
X107042471Y-41705979D01*
X107004226Y-42289452D01*
X107192178Y-42843145D01*
X107577713Y-43282766D01*
X108102136Y-43541384D01*
X108479913Y-43566146D01*
X108312471Y-43905684D01*
X108274226Y-44489157D01*
X108462178Y-45042850D01*
X108847713Y-45482471D01*
X109372136Y-45741089D01*
X109749912Y-45765851D01*
X109582471Y-46105388D01*
X109544226Y-46688861D01*
X109732178Y-47242554D01*
X110117713Y-47682175D01*
X110642136Y-47940793D01*
X111019913Y-47965555D01*
X110852471Y-48305093D01*
X110814226Y-48888566D01*
X111002178Y-49442259D01*
X111387713Y-49881880D01*
X111912136Y-50140498D01*
X112289912Y-50165260D01*
X112122471Y-50504797D01*
X112084226Y-51088270D01*
X112272178Y-51641963D01*
X112657713Y-52081584D01*
X113182136Y-52340202D01*
X113559913Y-52364964D01*
X113392471Y-52704502D01*
X113354226Y-53287975D01*
X113542178Y-53841668D01*
X113927713Y-54281289D01*
X114452136Y-54539907D01*
X114829913Y-54564669D01*
X114662471Y-54904207D01*
X114624226Y-55487680D01*
X114812178Y-56041373D01*
X115197713Y-56480994D01*
X115722136Y-56739612D01*
X116099912Y-56764374D01*
X115932471Y-57103911D01*
X115894226Y-57687384D01*
X116082178Y-58241077D01*
X116467713Y-58680698D01*
X116992136Y-58939316D01*
X117369913Y-58964078D01*
X117202471Y-59303616D01*
X117164226Y-59887089D01*
X117352178Y-60440782D01*
X117737713Y-60880403D01*
X118262136Y-61139021D01*
X118639912Y-61163783D01*
X118472471Y-61503320D01*
X118434226Y-62086793D01*
X118622178Y-62640486D01*
X119007713Y-63080107D01*
X119532136Y-63338725D01*
X119909913Y-63363487D01*
X119742471Y-63703025D01*
X119704226Y-64286498D01*
X119892178Y-64840191D01*
X120277713Y-65279812D01*
X120802136Y-65538430D01*
X120821081Y-65539671D01*
X120798402Y-65559373D01*
X120684003Y-65786836D01*
X120666155Y-66040820D01*
X120747618Y-66282047D01*
X121611218Y-67777847D01*
X121772964Y-67964043D01*
X122000427Y-68078442D01*
X122254411Y-68096290D01*
X122495638Y-68014827D01*
X124255402Y-66998827D01*
X124299836Y-66960227D01*
X135700722Y-66960227D01*
X135744598Y-66998827D01*
X137504362Y-68014827D01*
X137737536Y-68095205D01*
X137991724Y-68080546D01*
X138220605Y-67969010D01*
X138388782Y-67777847D01*
X139252382Y-66282047D01*
X139332760Y-66048873D01*
X139318101Y-65794685D01*
X139206565Y-65565804D01*
X139177006Y-65539799D01*
X139197858Y-65538433D01*
X139722282Y-65279817D01*
X140107818Y-64840199D01*
X140295773Y-64286506D01*
X140257531Y-63703033D01*
X140090087Y-63363487D01*
X140467858Y-63338728D01*
X140992282Y-63080112D01*
X141377818Y-62640494D01*
X141565773Y-62086801D01*
X141527531Y-61503328D01*
X141360087Y-61163783D01*
X141737858Y-61139024D01*
X142262282Y-60880408D01*
X142647818Y-60440790D01*
X142835773Y-59887097D01*
X142797531Y-59303624D01*
X142630087Y-58964078D01*
X143007858Y-58939319D01*
X143532282Y-58680703D01*
X143917818Y-58241085D01*
X144105773Y-57687392D01*
X144067531Y-57103919D01*
X143900087Y-56764374D01*
X144277858Y-56739615D01*
X144802282Y-56480999D01*
X145187818Y-56041381D01*
X145375773Y-55487688D01*
X145337531Y-54904215D01*
X145170087Y-54564669D01*
X145547858Y-54539910D01*
X146072282Y-54281294D01*
X146457818Y-53841676D01*
X146645773Y-53287983D01*
X146607531Y-52704510D01*
X146440087Y-52364964D01*
X146817858Y-52340205D01*
X147342282Y-52081589D01*
X147727818Y-51641971D01*
X147915773Y-51088278D01*
X147877531Y-50504805D01*
X147710087Y-50165260D01*
X148087858Y-50140501D01*
X148612282Y-49881885D01*
X148997818Y-49442267D01*
X149185773Y-48888574D01*
X149147531Y-48305101D01*
X148980087Y-47965555D01*
X149357858Y-47940796D01*
X149882282Y-47682180D01*
X150267818Y-47242562D01*
X150455773Y-46688869D01*
X150417531Y-46105396D01*
X150250087Y-45765851D01*
X150627858Y-45741092D01*
X151152282Y-45482476D01*
X151537818Y-45042858D01*
X151725773Y-44489165D01*
X151687531Y-43905692D01*
X151520087Y-43566146D01*
X151897858Y-43541387D01*
X152422282Y-43282771D01*
X152807818Y-42843153D01*
X152995773Y-42289460D01*
X152957531Y-41705987D01*
X152790087Y-41366442D01*
X153167858Y-41341683D01*
X153692282Y-41083067D01*
X154077818Y-40643449D01*
X154265773Y-40089756D01*
X154227531Y-39506283D01*
X153968915Y-38981858D01*
X153529297Y-38596322D01*
X153209309Y-38411576D01*
X152655616Y-38223621D01*
X152152456Y-38256599D01*
X152135240Y-38239382D01*
X152135240Y-24577211D01*
X151810910Y-23792273D01*
X151210886Y-23191200D01*
X150426515Y-22865501D01*
X149577211Y-22864760D01*
X148792273Y-23189090D01*
X148191200Y-23789114D01*
X147865501Y-24573485D01*
X147864760Y-25422789D01*
X148189090Y-26207727D01*
X148789114Y-26808800D01*
X149573485Y-27134499D01*
X150422789Y-27135240D01*
X151207727Y-26810910D01*
X151808800Y-26210886D01*
X152134499Y-25426515D01*
X152135240Y-24577211D01*
X152135240Y-38239382D01*
X146304000Y-32408142D01*
X146304000Y-30503000D01*
X146245996Y-30211396D01*
X146245996Y-30211395D01*
X146179834Y-30112376D01*
X146080816Y-29964185D01*
X139147815Y-23031185D01*
X138900605Y-22866004D01*
X138760444Y-22838124D01*
X138751146Y-22815620D01*
X138376353Y-22440173D01*
X138038553Y-22299906D01*
X138374380Y-22161146D01*
X138749827Y-21786353D01*
X138953268Y-21296413D01*
X138953731Y-20765914D01*
X138920298Y-20685000D01*
X149932532Y-20685000D01*
X151646142Y-21025857D01*
X153041675Y-21958322D01*
X153974141Y-23353855D01*
X154315000Y-25067467D01*
X154315000Y-64932532D01*
M02*
