  0
SECTION
  2
HEADER
  9
$ACADVER
  1
AC1014
  9
$HANDSEED
  5
FFFF
  9
$MEASUREMENT
 70
     1
  0
ENDSEC
  0
SECTION
  2
TABLES
  0
TABLE
  2
VPORT
  5
8
330
0
100
AcDbSymbolTable
 70
     4
  0
VPORT
  5
2E
330
8
100
AcDbSymbolTableRecord
100
AcDbViewportTableRecord
  2
*ACTIVE
 70
     0
 10
0.0
 20
0.0
 11
1.0
 21
1.0
 12
210.0
 22
148.5
 13
0.0
 23
0.0
 14
10.0
 24
10.0
 15
10.0
 25
10.0
 16
0.0
 26
0.0
 36
1.0
 17
0.0
 27
0.0
 37
0.0
 40
341.0
 41
1.24
 42
50.0
 43
0.0
 44
0.0
 50
0.0
 51
0.0
 71
     0
 72
   100
 73
     1
 74
     3
 75
     0
 76
     0
 77
     0
 78
     0
  0
ENDTAB
  0
TABLE
  2
LTYPE
  5
5
330
0
100
AcDbSymbolTable
 70
     1
  0
LTYPE
  5
14
330
5
100
AcDbSymbolTableRecord
100
AcDbLinetypeTableRecord
  2
BYBLOCK
 70
     0
  3

 72
    65
 73
     0
 40
0.0
  0
LTYPE
  5
15
330
5
100
AcDbSymbolTableRecord
100
AcDbLinetypeTableRecord
  2
BYLAYER
 70
     0
  3

 72
    65
 73
     0
 40
0.0
  0
LTYPE
  5
16
330
5
100
AcDbSymbolTableRecord
100
AcDbLinetypeTableRecord
  2
CONTINUOUS
 70
     0
  3
Solid line
 72
    65
 73
     0
 40
0.0
  0
ENDTAB
  0
TABLE
  2
LAYER
  5
2
100
AcDbSymbolTable
 70
1
  0
LAYER
  5
50
100
AcDbSymbolTableRecord
100
AcDbLayerTableRecord
  2
0
 70
0
  6
CONTINUOUS
  0
ENDTAB
  0
TABLE
  2
STYLE
  5
3
330
0
100
AcDbSymbolTable
 70
     1
  0
STYLE
  5
11
330
3
100
AcDbSymbolTableRecord
100
AcDbTextStyleTableRecord
  2
STANDARD
 70
     0
 40
0.0
 41
1.0
 50
0.0
 71
     0
 42
2.5
  3
txt
  4

  0
ENDTAB
  0
TABLE
  2
VIEW
  5
6
330
0
100
AcDbSymbolTable
 70
     0
  0
ENDTAB
  0
TABLE
  2
UCS
  5
7
330
0
100
AcDbSymbolTable
 70
     0
  0
ENDTAB
  0
TABLE
  2
APPID
  5
9
330
0
100
AcDbSymbolTable
 70
     2
  0
APPID
  5
12
330
9
100
AcDbSymbolTableRecord
100
AcDbRegAppTableRecord
  2
ACAD
 70
     0
  0
ENDTAB
  0
TABLE
  2
DIMSTYLE
  5
A
330
0
100
AcDbSymbolTable
 70
     1
  0
DIMSTYLE
105
27
330
A
100
AcDbSymbolTableRecord
100
AcDbDimStyleTableRecord
  2
ISO-25
 70
     0
  3

  4

  5

  6

  7

 40
1.0
 41
2.5
 42
0.625
 43
3.75
 44
1.25
 45
0.0
 46
0.0
 47
0.0
 48
0.0
140
2.5
141
2.5
142
0.0
143
0.03937007874016
144
1.0
145
0.0
146
1.0
147
0.625
 71
     0
 72
     0
 73
     0
 74
     0
 75
     0
 76
     0
 77
     1
 78
     8
170
     0
171
     3
172
     1
173
     0
174
     0
175
     0
176
     0
177
     0
178
     0
270
     2
271
     2
272
     2
273
     2
274
     3
340
11
275
     0
280
     0
281
     0
282
     0
283
     0
284
     8
285
     0
286
     0
287
     3
288
     0
  0
ENDTAB
  0
TABLE
  2
BLOCK_RECORD
  5
1
330
0
100
AcDbSymbolTable
 70
     1
  0
BLOCK_RECORD
  5
1F
330
1
100
AcDbSymbolTableRecord
100
AcDbBlockTableRecord
  2
*MODEL_SPACE
  0
BLOCK_RECORD
  5
1B
330
1
100
AcDbSymbolTableRecord
100
AcDbBlockTableRecord
  2
*PAPER_SPACE
  0
ENDTAB
  0
ENDSEC
  0
SECTION
  2
BLOCKS
  0
BLOCK
  5
20
330
1F
100
AcDbEntity
  8
0
100
AcDbBlockBegin
  2
*MODEL_SPACE
 70
     0
 10
0.0
 20
0.0
 30
0.0
  3
*MODEL_SPACE
  1

  0
ENDBLK
  5
21
330
1F
100
AcDbEntity
  8
0
100
AcDbBlockEnd
  0
BLOCK
  5
1C
330
1B
100
AcDbEntity
 67
     1
  8
0
100
AcDbBlockBegin
  2
*PAPER_SPACE
  1

  0
ENDBLK
  5
1D
330
1B
100
AcDbEntity
 67
     1
  8
0
100
AcDbBlockEnd
  0
ENDSEC
  0
SECTION
  2
ENTITIES
  0
SPLINE
  5
100
100
AcDbEntity
  8
0
 62
1
100
AcDbSpline
 70
8
 71
3
 72
8
 73
4
 74
0
 40
0
 40
0
 40
0
 40
0
 40
1
 40
1
 40
1
 40
1
 10
192.290484
 20
58.628116
 30
0.0
 10
192.290484
 20
57.827305
 30
0.0
 10
191.641299
 20
57.178118
 30
0.0
 10
190.840485
 20
57.178118
 30
0.0
  0
SPLINE
  5
101
100
AcDbEntity
  8
0
 62
1
100
AcDbSpline
 70
8
 71
3
 72
8
 73
4
 74
0
 40
0
 40
0
 40
0
 40
0
 40
1
 40
1
 40
1
 40
1
 10
190.840485
 20
57.178118
 30
0.0
 10
190.039671
 20
57.178118
 30
0.0
 10
189.390484
 20
57.827305
 30
0.0
 10
189.390484
 20
58.628116
 30
0.0
  0
SPLINE
  5
102
100
AcDbEntity
  8
0
 62
1
100
AcDbSpline
 70
8
 71
3
 72
8
 73
4
 74
0
 40
0
 40
0
 40
0
 40
0
 40
1
 40
1
 40
1
 40
1
 10
189.390484
 20
58.628116
 30
0.0
 10
189.390484
 20
59.428930
 30
0.0
 10
190.039671
 20
60.078118
 30
0.0
 10
190.840485
 20
60.078118
 30
0.0
  0
SPLINE
  5
103
100
AcDbEntity
  8
0
 62
1
100
AcDbSpline
 70
8
 71
3
 72
8
 73
4
 74
0
 40
0
 40
0
 40
0
 40
0
 40
1
 40
1
 40
1
 40
1
 10
190.840485
 20
60.078118
 30
0.0
 10
191.641299
 20
60.078118
 30
0.0
 10
192.290484
 20
59.428930
 30
0.0
 10
192.290484
 20
58.628116
 30
0.0
  0
LINE
  5
104
100
AcDbEntity
  8
0
 62
1
100
AcDbLine
 10
192.290484
 20
58.628116
 30
0.0
 11
192.290484
 21
58.628116
 31
0.0
  0
SPLINE
  5
105
100
AcDbEntity
  8
0
 62
1
100
AcDbSpline
 70
8
 71
3
 72
8
 73
4
 74
0
 40
0
 40
0
 40
0
 40
0
 40
1
 40
1
 40
1
 40
1
 10
157.868073
 20
192.869661
 30
0.0
 10
157.868073
 20
192.068848
 30
0.0
 10
157.218886
 20
191.419661
 30
0.0
 10
156.418072
 20
191.419661
 30
0.0
  0
SPLINE
  5
106
100
AcDbEntity
  8
0
 62
1
100
AcDbSpline
 70
8
 71
3
 72
8
 73
4
 74
0
 40
0
 40
0
 40
0
 40
0
 40
1
 40
1
 40
1
 40
1
 10
156.418072
 20
191.419661
 30
0.0
 10
155.617261
 20
191.419661
 30
0.0
 10
154.968074
 20
192.068848
 30
0.0
 10
154.968074
 20
192.869661
 30
0.0
  0
SPLINE
  5
107
100
AcDbEntity
  8
0
 62
1
100
AcDbSpline
 70
8
 71
3
 72
8
 73
4
 74
0
 40
0
 40
0
 40
0
 40
0
 40
1
 40
1
 40
1
 40
1
 10
154.968074
 20
192.869661
 30
0.0
 10
154.968074
 20
193.670473
 30
0.0
 10
155.617261
 20
194.319660
 30
0.0
 10
156.418072
 20
194.319660
 30
0.0
  0
SPLINE
  5
108
100
AcDbEntity
  8
0
 62
1
100
AcDbSpline
 70
8
 71
3
 72
8
 73
4
 74
0
 40
0
 40
0
 40
0
 40
0
 40
1
 40
1
 40
1
 40
1
 10
156.418072
 20
194.319660
 30
0.0
 10
157.218886
 20
194.319660
 30
0.0
 10
157.868073
 20
193.670473
 30
0.0
 10
157.868073
 20
192.869661
 30
0.0
  0
LINE
  5
109
100
AcDbEntity
  8
0
 62
1
100
AcDbLine
 10
157.868073
 20
192.869661
 30
0.0
 11
157.868073
 21
192.869661
 31
0.0
  0
SPLINE
  5
10a
100
AcDbEntity
  8
0
 62
1
100
AcDbSpline
 70
8
 71
3
 72
8
 73
4
 74
0
 40
0
 40
0
 40
0
 40
0
 40
1
 40
1
 40
1
 40
1
 10
64.965496
 20
192.869661
 30
0.0
 10
64.965496
 20
192.068848
 30
0.0
 10
64.316309
 20
191.419661
 30
0.0
 10
63.515495
 20
191.419661
 30
0.0
  0
SPLINE
  5
10b
100
AcDbEntity
  8
0
 62
1
100
AcDbSpline
 70
8
 71
3
 72
8
 73
4
 74
0
 40
0
 40
0
 40
0
 40
0
 40
1
 40
1
 40
1
 40
1
 10
63.515495
 20
191.419661
 30
0.0
 10
62.714684
 20
191.419661
 30
0.0
 10
62.065496
 20
192.068848
 30
0.0
 10
62.065496
 20
192.869661
 30
0.0
  0
SPLINE
  5
10c
100
AcDbEntity
  8
0
 62
1
100
AcDbSpline
 70
8
 71
3
 72
8
 73
4
 74
0
 40
0
 40
0
 40
0
 40
0
 40
1
 40
1
 40
1
 40
1
 10
62.065496
 20
192.869661
 30
0.0
 10
62.065496
 20
193.670473
 30
0.0
 10
62.714684
 20
194.319660
 30
0.0
 10
63.515495
 20
194.319660
 30
0.0
  0
SPLINE
  5
10d
100
AcDbEntity
  8
0
 62
1
100
AcDbSpline
 70
8
 71
3
 72
8
 73
4
 74
0
 40
0
 40
0
 40
0
 40
0
 40
1
 40
1
 40
1
 40
1
 10
63.515495
 20
194.319660
 30
0.0
 10
64.316309
 20
194.319660
 30
0.0
 10
64.965496
 20
193.670473
 30
0.0
 10
64.965496
 20
192.869661
 30
0.0
  0
LINE
  5
10e
100
AcDbEntity
  8
0
 62
1
100
AcDbLine
 10
64.965496
 20
192.869661
 30
0.0
 11
64.965496
 21
192.869661
 31
0.0
  0
SPLINE
  5
10f
100
AcDbEntity
  8
0
 62
1
100
AcDbSpline
 70
8
 71
3
 72
8
 73
4
 74
0
 40
0
 40
0
 40
0
 40
0
 40
1
 40
1
 40
1
 40
1
 10
12.679419
 20
110.623937
 30
0.0
 10
12.679419
 20
109.823123
 30
0.0
 10
12.030231
 20
109.173936
 30
0.0
 10
11.229418
 20
109.173936
 30
0.0
  0
SPLINE
  5
110
100
AcDbEntity
  8
0
 62
1
100
AcDbSpline
 70
8
 71
3
 72
8
 73
4
 74
0
 40
0
 40
0
 40
0
 40
0
 40
1
 40
1
 40
1
 40
1
 10
11.229418
 20
109.173936
 30
0.0
 10
10.428606
 20
109.173936
 30
0.0
 10
9.779419
 20
109.823123
 30
0.0
 10
9.779419
 20
110.623937
 30
0.0
  0
SPLINE
  5
111
100
AcDbEntity
  8
0
 62
1
100
AcDbSpline
 70
8
 71
3
 72
8
 73
4
 74
0
 40
0
 40
0
 40
0
 40
0
 40
1
 40
1
 40
1
 40
1
 10
9.779419
 20
110.623937
 30
0.0
 10
9.779419
 20
111.424748
 30
0.0
 10
10.428606
 20
112.073936
 30
0.0
 10
11.229418
 20
112.073936
 30
0.0
  0
SPLINE
  5
112
100
AcDbEntity
  8
0
 62
1
100
AcDbSpline
 70
8
 71
3
 72
8
 73
4
 74
0
 40
0
 40
0
 40
0
 40
0
 40
1
 40
1
 40
1
 40
1
 10
11.229418
 20
112.073936
 30
0.0
 10
12.030231
 20
112.073936
 30
0.0
 10
12.679419
 20
111.424748
 30
0.0
 10
12.679419
 20
110.623937
 30
0.0
  0
LINE
  5
113
100
AcDbEntity
  8
0
 62
1
100
AcDbLine
 10
12.679419
 20
110.623937
 30
0.0
 11
12.679419
 21
110.623937
 31
0.0
  0
SPLINE
  5
114
100
AcDbEntity
  8
0
 62
1
100
AcDbSpline
 70
8
 71
3
 72
8
 73
4
 74
0
 40
0
 40
0
 40
0
 40
0
 40
1
 40
1
 40
1
 40
1
 10
126.689494
 20
14.603682
 30
0.0
 10
126.689494
 20
13.802868
 30
0.0
 10
126.040307
 20
13.153681
 30
0.0
 10
125.239493
 20
13.153681
 30
0.0
  0
SPLINE
  5
115
100
AcDbEntity
  8
0
 62
1
100
AcDbSpline
 70
8
 71
3
 72
8
 73
4
 74
0
 40
0
 40
0
 40
0
 40
0
 40
1
 40
1
 40
1
 40
1
 10
125.239493
 20
13.153681
 30
0.0
 10
124.438682
 20
13.153681
 30
0.0
 10
123.789494
 20
13.802868
 30
0.0
 10
123.789494
 20
14.603682
 30
0.0
  0
SPLINE
  5
116
100
AcDbEntity
  8
0
 62
1
100
AcDbSpline
 70
8
 71
3
 72
8
 73
4
 74
0
 40
0
 40
0
 40
0
 40
0
 40
1
 40
1
 40
1
 40
1
 10
123.789494
 20
14.603682
 30
0.0
 10
123.789494
 20
15.404493
 30
0.0
 10
124.438682
 20
16.053681
 30
0.0
 10
125.239493
 20
16.053681
 30
0.0
  0
SPLINE
  5
117
100
AcDbEntity
  8
0
 62
1
100
AcDbSpline
 70
8
 71
3
 72
8
 73
4
 74
0
 40
0
 40
0
 40
0
 40
0
 40
1
 40
1
 40
1
 40
1
 10
125.239493
 20
16.053681
 30
0.0
 10
126.040307
 20
16.053681
 30
0.0
 10
126.689494
 20
15.404493
 30
0.0
 10
126.689494
 20
14.603682
 30
0.0
  0
LINE
  5
118
100
AcDbEntity
  8
0
 62
1
100
AcDbLine
 10
126.689494
 20
14.603682
 30
0.0
 11
126.689494
 21
14.603682
 31
0.0
  0
SPLINE
  5
119
100
AcDbEntity
  8
0
 62
1
100
AcDbSpline
 70
8
 71
3
 72
8
 73
4
 74
0
 40
0
 40
0
 40
0
 40
0
 40
1
 40
1
 40
1
 40
1
 10
23.883712
 20
50.741752
 30
0.0
 10
23.883712
 20
49.940938
 30
0.0
 10
23.234525
 20
49.291751
 30
0.0
 10
22.433712
 20
49.291751
 30
0.0
  0
SPLINE
  5
11a
100
AcDbEntity
  8
0
 62
1
100
AcDbSpline
 70
8
 71
3
 72
8
 73
4
 74
0
 40
0
 40
0
 40
0
 40
0
 40
1
 40
1
 40
1
 40
1
 10
22.433712
 20
49.291751
 30
0.0
 10
21.632899
 20
49.291751
 30
0.0
 10
20.983712
 20
49.940938
 30
0.0
 10
20.983712
 20
50.741752
 30
0.0
  0
SPLINE
  5
11b
100
AcDbEntity
  8
0
 62
1
100
AcDbSpline
 70
8
 71
3
 72
8
 73
4
 74
0
 40
0
 40
0
 40
0
 40
0
 40
1
 40
1
 40
1
 40
1
 10
20.983712
 20
50.741752
 30
0.0
 10
20.983712
 20
51.542563
 30
0.0
 10
21.632899
 20
52.191751
 30
0.0
 10
22.433712
 20
52.191751
 30
0.0
  0
SPLINE
  5
11c
100
AcDbEntity
  8
0
 62
1
100
AcDbSpline
 70
8
 71
3
 72
8
 73
4
 74
0
 40
0
 40
0
 40
0
 40
0
 40
1
 40
1
 40
1
 40
1
 10
22.433712
 20
52.191751
 30
0.0
 10
23.234525
 20
52.191751
 30
0.0
 10
23.883712
 20
51.542563
 30
0.0
 10
23.883712
 20
50.741752
 30
0.0
  0
LINE
  5
11d
100
AcDbEntity
  8
0
 62
1
100
AcDbLine
 10
23.883712
 20
50.741752
 30
0.0
 11
23.883712
 21
50.741752
 31
0.0
  0
SPLINE
  5
11e
100
AcDbEntity
  8
0
 62
1
100
AcDbSpline
 70
8
 71
3
 72
8
 73
4
 74
0
 40
0
 40
0
 40
0
 40
0
 40
1
 40
1
 40
1
 40
1
 10
378.128638
 20
50.741752
 30
0.0
 10
378.128638
 20
49.940938
 30
0.0
 10
377.479471
 20
49.291751
 30
0.0
 10
376.678637
 20
49.291751
 30
0.0
  0
SPLINE
  5
11f
100
AcDbEntity
  8
0
 62
1
100
AcDbSpline
 70
8
 71
3
 72
8
 73
4
 74
0
 40
0
 40
0
 40
0
 40
0
 40
1
 40
1
 40
1
 40
1
 10
376.678637
 20
49.291751
 30
0.0
 10
375.877831
 20
49.291751
 30
0.0
 10
375.228664
 20
49.940938
 30
0.0
 10
375.228664
 20
50.741752
 30
0.0
  0
SPLINE
  5
120
100
AcDbEntity
  8
0
 62
1
100
AcDbSpline
 70
8
 71
3
 72
8
 73
4
 74
0
 40
0
 40
0
 40
0
 40
0
 40
1
 40
1
 40
1
 40
1
 10
375.228664
 20
50.741752
 30
0.0
 10
375.228664
 20
51.542563
 30
0.0
 10
375.877831
 20
52.191751
 30
0.0
 10
376.678637
 20
52.191751
 30
0.0
  0
SPLINE
  5
121
100
AcDbEntity
  8
0
 62
1
100
AcDbSpline
 70
8
 71
3
 72
8
 73
4
 74
0
 40
0
 40
0
 40
0
 40
0
 40
1
 40
1
 40
1
 40
1
 10
376.678637
 20
52.191751
 30
0.0
 10
377.479471
 20
52.191751
 30
0.0
 10
378.128638
 20
51.542563
 30
0.0
 10
378.128638
 20
50.741752
 30
0.0
  0
LINE
  5
122
100
AcDbEntity
  8
0
 62
1
100
AcDbLine
 10
378.128638
 20
50.741752
 30
0.0
 11
378.128638
 21
50.741752
 31
0.0
  0
SPLINE
  5
123
100
AcDbEntity
  8
0
 62
1
100
AcDbSpline
 70
8
 71
3
 72
8
 73
4
 74
0
 40
0
 40
0
 40
0
 40
0
 40
1
 40
1
 40
1
 40
1
 10
275.322883
 20
14.603682
 30
0.0
 10
275.322883
 20
13.802868
 30
0.0
 10
274.673696
 20
13.153681
 30
0.0
 10
273.872885
 20
13.153681
 30
0.0
  0
SPLINE
  5
124
100
AcDbEntity
  8
0
 62
1
100
AcDbSpline
 70
8
 71
3
 72
8
 73
4
 74
0
 40
0
 40
0
 40
0
 40
0
 40
1
 40
1
 40
1
 40
1
 10
273.872885
 20
13.153681
 30
0.0
 10
273.072071
 20
13.153681
 30
0.0
 10
272.422883
 20
13.802868
 30
0.0
 10
272.422883
 20
14.603682
 30
0.0
  0
SPLINE
  5
125
100
AcDbEntity
  8
0
 62
1
100
AcDbSpline
 70
8
 71
3
 72
8
 73
4
 74
0
 40
0
 40
0
 40
0
 40
0
 40
1
 40
1
 40
1
 40
1
 10
272.422883
 20
14.603682
 30
0.0
 10
272.422883
 20
15.404493
 30
0.0
 10
273.072071
 20
16.053681
 30
0.0
 10
273.872885
 20
16.053681
 30
0.0
  0
SPLINE
  5
126
100
AcDbEntity
  8
0
 62
1
100
AcDbSpline
 70
8
 71
3
 72
8
 73
4
 74
0
 40
0
 40
0
 40
0
 40
0
 40
1
 40
1
 40
1
 40
1
 10
273.872885
 20
16.053681
 30
0.0
 10
274.673696
 20
16.053681
 30
0.0
 10
275.322883
 20
15.404493
 30
0.0
 10
275.322883
 20
14.603682
 30
0.0
  0
LINE
  5
127
100
AcDbEntity
  8
0
 62
1
100
AcDbLine
 10
275.322883
 20
14.603682
 30
0.0
 11
275.322883
 21
14.603682
 31
0.0
  0
SPLINE
  5
128
100
AcDbEntity
  8
0
 62
1
100
AcDbSpline
 70
8
 71
3
 72
8
 73
4
 74
0
 40
0
 40
0
 40
0
 40
0
 40
1
 40
1
 40
1
 40
1
 10
389.332973
 20
110.623937
 30
0.0
 10
389.332973
 20
109.823123
 30
0.0
 10
388.683777
 20
109.173936
 30
0.0
 10
387.882972
 20
109.173936
 30
0.0
  0
SPLINE
  5
129
100
AcDbEntity
  8
0
 62
1
100
AcDbSpline
 70
8
 71
3
 72
8
 73
4
 74
0
 40
0
 40
0
 40
0
 40
0
 40
1
 40
1
 40
1
 40
1
 10
387.882972
 20
109.173936
 30
0.0
 10
387.082138
 20
109.173936
 30
0.0
 10
386.432971
 20
109.823123
 30
0.0
 10
386.432971
 20
110.623937
 30
0.0
  0
SPLINE
  5
12a
100
AcDbEntity
  8
0
 62
1
100
AcDbSpline
 70
8
 71
3
 72
8
 73
4
 74
0
 40
0
 40
0
 40
0
 40
0
 40
1
 40
1
 40
1
 40
1
 10
386.432971
 20
110.623937
 30
0.0
 10
386.432971
 20
111.424748
 30
0.0
 10
387.082138
 20
112.073936
 30
0.0
 10
387.882972
 20
112.073936
 30
0.0
  0
SPLINE
  5
12b
100
AcDbEntity
  8
0
 62
1
100
AcDbSpline
 70
8
 71
3
 72
8
 73
4
 74
0
 40
0
 40
0
 40
0
 40
0
 40
1
 40
1
 40
1
 40
1
 10
387.882972
 20
112.073936
 30
0.0
 10
388.683777
 20
112.073936
 30
0.0
 10
389.332973
 20
111.424748
 30
0.0
 10
389.332973
 20
110.623937
 30
0.0
  0
LINE
  5
12c
100
AcDbEntity
  8
0
 62
1
100
AcDbLine
 10
389.332973
 20
110.623937
 30
0.0
 11
389.332973
 21
110.623937
 31
0.0
  0
SPLINE
  5
12d
100
AcDbEntity
  8
0
 62
1
100
AcDbSpline
 70
8
 71
3
 72
8
 73
4
 74
0
 40
0
 40
0
 40
0
 40
0
 40
1
 40
1
 40
1
 40
1
 10
337.046876
 20
192.869661
 30
0.0
 10
337.046876
 20
192.068848
 30
0.0
 10
336.397708
 20
191.419661
 30
0.0
 10
335.596874
 20
191.419661
 30
0.0
  0
SPLINE
  5
12e
100
AcDbEntity
  8
0
 62
1
100
AcDbSpline
 70
8
 71
3
 72
8
 73
4
 74
0
 40
0
 40
0
 40
0
 40
0
 40
1
 40
1
 40
1
 40
1
 10
335.596874
 20
191.419661
 30
0.0
 10
334.796069
 20
191.419661
 30
0.0
 10
334.146873
 20
192.068848
 30
0.0
 10
334.146873
 20
192.869661
 30
0.0
  0
SPLINE
  5
12f
100
AcDbEntity
  8
0
 62
1
100
AcDbSpline
 70
8
 71
3
 72
8
 73
4
 74
0
 40
0
 40
0
 40
0
 40
0
 40
1
 40
1
 40
1
 40
1
 10
334.146873
 20
192.869661
 30
0.0
 10
334.146873
 20
193.670473
 30
0.0
 10
334.796069
 20
194.319660
 30
0.0
 10
335.596874
 20
194.319660
 30
0.0
  0
SPLINE
  5
130
100
AcDbEntity
  8
0
 62
1
100
AcDbSpline
 70
8
 71
3
 72
8
 73
4
 74
0
 40
0
 40
0
 40
0
 40
0
 40
1
 40
1
 40
1
 40
1
 10
335.596874
 20
194.319660
 30
0.0
 10
336.397708
 20
194.319660
 30
0.0
 10
337.046876
 20
193.670473
 30
0.0
 10
337.046876
 20
192.869661
 30
0.0
  0
LINE
  5
131
100
AcDbEntity
  8
0
 62
1
100
AcDbLine
 10
337.046876
 20
192.869661
 30
0.0
 11
337.046876
 21
192.869661
 31
0.0
  0
SPLINE
  5
132
100
AcDbEntity
  8
0
 62
1
100
AcDbSpline
 70
8
 71
3
 72
8
 73
4
 74
0
 40
0
 40
0
 40
0
 40
0
 40
1
 40
1
 40
1
 40
1
 10
244.144287
 20
192.869661
 30
0.0
 10
244.144287
 20
192.068848
 30
0.0
 10
243.495100
 20
191.419661
 30
0.0
 10
242.694289
 20
191.419661
 30
0.0
  0
SPLINE
  5
133
100
AcDbEntity
  8
0
 62
1
100
AcDbSpline
 70
8
 71
3
 72
8
 73
4
 74
0
 40
0
 40
0
 40
0
 40
0
 40
1
 40
1
 40
1
 40
1
 10
242.694289
 20
191.419661
 30
0.0
 10
241.893475
 20
191.419661
 30
0.0
 10
241.244287
 20
192.068848
 30
0.0
 10
241.244287
 20
192.869661
 30
0.0
  0
SPLINE
  5
134
100
AcDbEntity
  8
0
 62
1
100
AcDbSpline
 70
8
 71
3
 72
8
 73
4
 74
0
 40
0
 40
0
 40
0
 40
0
 40
1
 40
1
 40
1
 40
1
 10
241.244287
 20
192.869661
 30
0.0
 10
241.244287
 20
193.670473
 30
0.0
 10
241.893475
 20
194.319660
 30
0.0
 10
242.694289
 20
194.319660
 30
0.0
  0
SPLINE
  5
135
100
AcDbEntity
  8
0
 62
1
100
AcDbSpline
 70
8
 71
3
 72
8
 73
4
 74
0
 40
0
 40
0
 40
0
 40
0
 40
1
 40
1
 40
1
 40
1
 10
242.694289
 20
194.319660
 30
0.0
 10
243.495100
 20
194.319660
 30
0.0
 10
244.144287
 20
193.670473
 30
0.0
 10
244.144287
 20
192.869661
 30
0.0
  0
LINE
  5
136
100
AcDbEntity
  8
0
 62
1
100
AcDbLine
 10
244.144287
 20
192.869661
 30
0.0
 11
244.144287
 21
192.869661
 31
0.0
  0
SPLINE
  5
137
100
AcDbEntity
  8
0
 62
1
100
AcDbSpline
 70
8
 71
3
 72
8
 73
4
 74
0
 40
0
 40
0
 40
0
 40
0
 40
1
 40
1
 40
1
 40
1
 10
209.721894
 20
58.628116
 30
0.0
 10
209.721894
 20
57.827305
 30
0.0
 10
209.072707
 20
57.178118
 30
0.0
 10
208.271893
 20
57.178118
 30
0.0
  0
SPLINE
  5
138
100
AcDbEntity
  8
0
 62
1
100
AcDbSpline
 70
8
 71
3
 72
8
 73
4
 74
0
 40
0
 40
0
 40
0
 40
0
 40
1
 40
1
 40
1
 40
1
 10
208.271893
 20
57.178118
 30
0.0
 10
207.471079
 20
57.178118
 30
0.0
 10
206.821894
 20
57.827305
 30
0.0
 10
206.821894
 20
58.628116
 30
0.0
  0
SPLINE
  5
139
100
AcDbEntity
  8
0
 62
1
100
AcDbSpline
 70
8
 71
3
 72
8
 73
4
 74
0
 40
0
 40
0
 40
0
 40
0
 40
1
 40
1
 40
1
 40
1
 10
206.821894
 20
58.628116
 30
0.0
 10
206.821894
 20
59.428930
 30
0.0
 10
207.471079
 20
60.078118
 30
0.0
 10
208.271893
 20
60.078118
 30
0.0
  0
SPLINE
  5
13a
100
AcDbEntity
  8
0
 62
1
100
AcDbSpline
 70
8
 71
3
 72
8
 73
4
 74
0
 40
0
 40
0
 40
0
 40
0
 40
1
 40
1
 40
1
 40
1
 10
208.271893
 20
60.078118
 30
0.0
 10
209.072707
 20
60.078118
 30
0.0
 10
209.721894
 20
59.428930
 30
0.0
 10
209.721894
 20
58.628116
 30
0.0
  0
LINE
  5
13b
100
AcDbEntity
  8
0
 62
1
100
AcDbLine
 10
209.721894
 20
58.628116
 30
0.0
 11
209.721894
 21
58.628116
 31
0.0
  0
LINE
  5
13c
100
AcDbEntity
  8
0
 62
1
100
AcDbLine
 10
5.533583
 20
117.070440
 30
0.0
 11
23.754619
 21
195.994416
 31
0.0
  0
SPLINE
  5
13d
100
AcDbEntity
  8
0
 62
1
100
AcDbSpline
 70
8
 71
3
 72
8
 73
4
 74
0
 40
0
 40
0
 40
0
 40
0
 40
1
 40
1
 40
1
 40
1
 10
28.626469
 20
199.869665
 30
0.0
 10
26.298363
 20
199.869664
 30
0.0
 10
24.278326
 20
198.262852
 30
0.0
 10
23.754618
 20
195.994415
 30
0.0
  0
LINE
  5
13e
100
AcDbEntity
  8
0
 62
1
100
AcDbLine
 10
28.626470
 20
199.869661
 30
0.0
 11
190.556188
 21
199.869661
 31
0.0
  0
LINE
  5
13f
100
AcDbEntity
  8
0
 62
1
100
AcDbLine
 10
190.556188
 20
199.869661
 30
0.0
 11
190.556188
 21
194.869661
 31
0.0
  0
LINE
  5
140
100
AcDbEntity
  8
0
 62
1
100
AcDbLine
 10
190.556188
 20
194.869661
 30
0.0
 11
179.556188
 21
194.869661
 31
0.0
  0
SPLINE
  5
141
100
AcDbEntity
  8
0
 62
1
100
AcDbSpline
 70
8
 71
3
 72
8
 73
4
 74
0
 40
0
 40
0
 40
0
 40
0
 40
1
 40
1
 40
1
 40
1
 10
179.556187
 20
194.869647
 30
0.0
 10
176.242484
 20
194.869646
 30
0.0
 10
173.556194
 20
192.183362
 30
0.0
 10
173.556188
 20
188.869659
 30
0.0
  0
LINE
  5
142
100
AcDbEntity
  8
0
 62
1
100
AcDbLine
 10
173.556189
 20
188.869661
 30
0.0
 11
173.556189
 21
164.650400
 31
0.0
  0
LINE
  5
143
100
AcDbEntity
  8
0
 62
1
100
AcDbLine
 10
173.556189
 20
164.650400
 30
0.0
 11
168.411292
 21
164.650400
 31
0.0
  0
LINE
  5
144
100
AcDbEntity
  8
0
 62
1
100
AcDbLine
 10
168.411292
 20
164.650400
 30
0.0
 11
131.385229
 21
173.198540
 31
0.0
  0
LINE
  5
145
100
AcDbEntity
  8
0
 62
1
100
AcDbLine
 10
131.385229
 20
173.198540
 30
0.0
 11
131.722654
 21
174.660095
 31
0.0
  0
LINE
  5
146
100
AcDbEntity
  8
0
 62
1
100
AcDbLine
 10
131.722654
 20
174.660095
 30
0.0
 11
113.209624
 21
178.934165
 31
0.0
  0
LINE
  5
147
100
AcDbEntity
  8
0
 62
1
100
AcDbLine
 10
113.209624
 20
178.934165
 30
0.0
 11
113.547049
 21
180.395720
 31
0.0
  0
LINE
  5
148
100
AcDbEntity
  8
0
 62
1
100
AcDbLine
 10
113.547049
 20
180.395720
 30
0.0
 11
94.059650
 21
184.894742
 31
0.0
  0
LINE
  5
149
100
AcDbEntity
  8
0
 62
1
100
AcDbLine
 10
94.059650
 20
184.894742
 30
0.0
 11
93.722222
 21
183.433186
 31
0.0
  0
LINE
  5
14a
100
AcDbEntity
  8
0
 62
1
100
AcDbLine
 10
93.722222
 20
183.433186
 30
0.0
 11
75.209192
 21
187.707256
 31
0.0
  0
LINE
  5
14b
100
AcDbEntity
  8
0
 62
1
100
AcDbLine
 10
75.209192
 20
187.707256
 30
0.0
 11
74.534337
 21
184.784146
 31
0.0
  0
LINE
  5
14c
100
AcDbEntity
  8
0
 62
1
100
AcDbLine
 10
74.534337
 20
184.784146
 30
0.0
 11
32.880019
 21
194.400804
 31
0.0
  0
LINE
  5
14d
100
AcDbEntity
  8
0
 62
1
100
AcDbLine
 10
32.880019
 20
194.400804
 30
0.0
 11
15.558786
 21
119.374308
 31
0.0
  0
LINE
  5
14e
100
AcDbEntity
  8
0
 62
1
100
AcDbLine
 10
15.558786
 20
119.374308
 30
0.0
 11
15.912974
 21
99.792759
 31
0.0
  0
LINE
  5
14f
100
AcDbEntity
  8
0
 62
1
100
AcDbLine
 10
15.912974
 20
99.792759
 30
0.0
 11
108.492017
 21
62.052917
 31
0.0
  0
LINE
  5
150
100
AcDbEntity
  8
0
 62
1
100
AcDbLine
 10
108.492017
 20
62.052917
 30
0.0
 11
154.196642
 21
26.344553
 31
0.0
  0
LINE
  5
151
100
AcDbEntity
  8
0
 62
1
100
AcDbLine
 10
154.196642
 20
26.344553
 30
0.0
 11
189.905006
 21
72.049177
 31
0.0
  0
LINE
  5
152
100
AcDbEntity
  8
0
 62
1
100
AcDbLine
 10
189.905006
 20
72.049177
 30
0.0
 11
209.207369
 21
72.049177
 31
0.0
  0
LINE
  5
153
100
AcDbEntity
  8
0
 62
1
100
AcDbLine
 10
209.207369
 20
72.049177
 30
0.0
 11
244.915733
 21
26.344553
 31
0.0
  0
LINE
  5
154
100
AcDbEntity
  8
0
 62
1
100
AcDbLine
 10
244.915733
 20
26.344553
 30
0.0
 11
290.620361
 21
62.052917
 31
0.0
  0
LINE
  5
155
100
AcDbEntity
  8
0
 62
1
100
AcDbLine
 10
290.620361
 20
62.052917
 30
0.0
 11
383.199409
 21
99.792759
 31
0.0
  0
LINE
  5
156
100
AcDbEntity
  8
0
 62
1
100
AcDbLine
 10
383.199409
 20
99.792759
 30
0.0
 11
383.553598
 21
119.374308
 31
0.0
  0
LINE
  5
157
100
AcDbEntity
  8
0
 62
1
100
AcDbLine
 10
383.553598
 20
119.374308
 30
0.0
 11
366.232351
 21
194.400804
 31
0.0
  0
LINE
  5
158
100
AcDbEntity
  8
0
 62
1
100
AcDbLine
 10
366.232351
 20
194.400804
 30
0.0
 11
324.578044
 21
184.784146
 31
0.0
  0
LINE
  5
159
100
AcDbEntity
  8
0
 62
1
100
AcDbLine
 10
324.578044
 20
184.784146
 30
0.0
 11
323.903194
 21
187.707256
 31
0.0
  0
LINE
  5
15a
100
AcDbEntity
  8
0
 62
1
100
AcDbLine
 10
323.903194
 20
187.707256
 30
0.0
 11
305.390150
 21
183.433186
 31
0.0
  0
LINE
  5
15b
100
AcDbEntity
  8
0
 62
1
100
AcDbLine
 10
305.390150
 20
183.433186
 30
0.0
 11
305.052725
 21
184.894742
 31
0.0
  0
LINE
  5
15c
100
AcDbEntity
  8
0
 62
1
100
AcDbLine
 10
305.052725
 20
184.894742
 30
0.0
 11
285.565337
 21
180.395720
 31
0.0
  0
LINE
  5
15d
100
AcDbEntity
  8
0
 62
1
100
AcDbLine
 10
285.565337
 20
180.395720
 30
0.0
 11
285.902762
 21
178.934165
 31
0.0
  0
LINE
  5
15e
100
AcDbEntity
  8
0
 62
1
100
AcDbLine
 10
285.902762
 20
178.934165
 30
0.0
 11
267.389721
 21
174.660095
 31
0.0
  0
LINE
  5
15f
100
AcDbEntity
  8
0
 62
1
100
AcDbLine
 10
267.389721
 20
174.660095
 30
0.0
 11
267.727149
 21
173.198540
 31
0.0
  0
LINE
  5
160
100
AcDbEntity
  8
0
 62
1
100
AcDbLine
 10
267.727149
 20
173.198540
 30
0.0
 11
230.701086
 21
164.650400
 31
0.0
  0
LINE
  5
161
100
AcDbEntity
  8
0
 62
1
100
AcDbLine
 10
230.701086
 20
164.650400
 30
0.0
 11
225.556189
 21
164.650400
 31
0.0
  0
LINE
  5
162
100
AcDbEntity
  8
0
 62
1
100
AcDbLine
 10
225.556189
 20
164.650400
 30
0.0
 11
225.556189
 21
188.869661
 31
0.0
  0
SPLINE
  5
163
100
AcDbEntity
  8
0
 62
1
100
AcDbSpline
 70
8
 71
3
 72
8
 73
4
 74
0
 40
0
 40
0
 40
0
 40
0
 40
1
 40
1
 40
1
 40
1
 10
225.556185
 20
188.869659
 30
0.0
 10
225.556179
 20
192.183362
 30
0.0
 10
222.869890
 20
194.869646
 30
0.0
 10
219.556186
 20
194.869647
 30
0.0
  0
LINE
  5
164
100
AcDbEntity
  8
0
 62
1
100
AcDbLine
 10
219.556187
 20
194.869661
 30
0.0
 11
208.556186
 21
194.869661
 31
0.0
  0
LINE
  5
165
100
AcDbEntity
  8
0
 62
1
100
AcDbLine
 10
208.556186
 20
194.869661
 30
0.0
 11
208.556186
 21
199.869661
 31
0.0
  0
LINE
  5
166
100
AcDbEntity
  8
0
 62
1
100
AcDbLine
 10
208.556186
 20
199.869661
 30
0.0
 11
370.485919
 21
199.869661
 31
0.0
  0
SPLINE
  5
167
100
AcDbEntity
  8
0
 62
1
100
AcDbSpline
 70
8
 71
3
 72
8
 73
4
 74
0
 40
0
 40
0
 40
0
 40
0
 40
1
 40
1
 40
1
 40
1
 10
375.357757
 20
195.994415
 30
0.0
 10
374.834051
 20
198.262846
 30
0.0
 10
372.814023
 20
199.869656
 30
0.0
 10
370.485924
 20
199.869665
 30
0.0
  0
LINE
  5
168
100
AcDbEntity
  8
0
 62
1
100
AcDbLine
 10
375.357752
 20
195.994416
 30
0.0
 11
393.578781
 21
117.070440
 31
0.0
  0
SPLINE
  5
169
100
AcDbEntity
  8
0
 62
1
100
AcDbSpline
 70
8
 71
3
 72
8
 73
4
 74
0
 40
0
 40
0
 40
0
 40
0
 40
1
 40
1
 40
1
 40
1
 10
235.703212
 20
31.922240
 30
0.0
 10
264.631594
 20
1.628514
 30
0.0
 10
310.241982
 20
-5.587732
 30
0.0
 10
347.109212
 20
14.296142
 30
0.0
  0
SPLINE
  5
16a
100
AcDbEntity
  8
0
 62
1
100
AcDbSpline
 70
8
 71
3
 72
8
 73
4
 74
0
 40
0
 40
0
 40
0
 40
0
 40
1
 40
1
 40
1
 40
1
 10
347.109212
 20
14.296142
 30
0.0
 10
383.976443
 20
34.180017
 30
0.0
 10
403.001408
 20
76.256523
 30
0.0
 10
393.578786
 20
117.070434
 30
0.0
  0
SPLINE
  5
16b
100
AcDbEntity
  8
0
 62
1
100
AcDbSpline
 70
8
 71
3
 72
8
 73
4
 74
0
 40
0
 40
0
 40
0
 40
0
 40
1
 40
1
 40
1
 40
1
 10
235.703212
 20
31.922240
 30
0.0
 10
226.272472
 20
41.798089
 30
0.0
 10
213.211634
 20
47.385277
 30
0.0
 10
199.556187
 20
47.385277
 30
0.0
  0
SPLINE
  5
16c
100
AcDbEntity
  8
0
 62
1
100
AcDbSpline
 70
8
 71
3
 72
8
 73
4
 74
0
 40
0
 40
0
 40
0
 40
0
 40
1
 40
1
 40
1
 40
1
 10
199.556187
 20
47.385277
 30
0.0
 10
185.900739
 20
47.385277
 30
0.0
 10
172.839901
 20
41.798089
 30
0.0
 10
163.409162
 20
31.922240
 30
0.0
  0
SPLINE
  5
16d
100
AcDbEntity
  8
0
 62
1
100
AcDbSpline
 70
8
 71
3
 72
8
 73
4
 74
0
 40
0
 40
0
 40
0
 40
0
 40
1
 40
1
 40
1
 40
1
 10
5.533583
 20
117.070434
 30
0.0
 10
-3.889042
 20
76.256521
 30
0.0
 10
15.135923
 20
34.180011
 30
0.0
 10
52.003156
 20
14.296136
 30
0.0
  0
SPLINE
  5
16e
100
AcDbEntity
  8
0
 62
1
100
AcDbSpline
 70
8
 71
3
 72
8
 73
4
 74
0
 40
0
 40
0
 40
0
 40
0
 40
1
 40
1
 40
1
 40
1
 10
52.003156
 20
14.296136
 30
0.0
 10
88.870389
 20
-5.587739
 30
0.0
 10
134.480780
 20
1.628510
 30
0.0
 10
163.409162
 20
31.922240
 30
0.0
  0
SPLINE
  5
16f
100
AcDbEntity
  8
0
 62
1
100
AcDbSpline
 70
8
 71
3
 72
8
 73
4
 74
0
 40
0
 40
0
 40
0
 40
0
 40
1
 40
1
 40
1
 40
1
 10
192.290484
 20
257.128114
 30
0.0
 10
192.290484
 20
256.327303
 30
0.0
 10
191.641299
 20
255.678116
 30
0.0
 10
190.840485
 20
255.678116
 30
0.0
  0
SPLINE
  5
170
100
AcDbEntity
  8
0
 62
1
100
AcDbSpline
 70
8
 71
3
 72
8
 73
4
 74
0
 40
0
 40
0
 40
0
 40
0
 40
1
 40
1
 40
1
 40
1
 10
190.840485
 20
255.678116
 30
0.0
 10
190.039671
 20
255.678116
 30
0.0
 10
189.390484
 20
256.327303
 30
0.0
 10
189.390484
 20
257.128114
 30
0.0
  0
SPLINE
  5
171
100
AcDbEntity
  8
0
 62
1
100
AcDbSpline
 70
8
 71
3
 72
8
 73
4
 74
0
 40
0
 40
0
 40
0
 40
0
 40
1
 40
1
 40
1
 40
1
 10
189.390484
 20
257.128114
 30
0.0
 10
189.390484
 20
257.928928
 30
0.0
 10
190.039671
 20
258.578116
 30
0.0
 10
190.840485
 20
258.578116
 30
0.0
  0
SPLINE
  5
172
100
AcDbEntity
  8
0
 62
1
100
AcDbSpline
 70
8
 71
3
 72
8
 73
4
 74
0
 40
0
 40
0
 40
0
 40
0
 40
1
 40
1
 40
1
 40
1
 10
190.840485
 20
258.578116
 30
0.0
 10
191.641299
 20
258.578116
 30
0.0
 10
192.290484
 20
257.928928
 30
0.0
 10
192.290484
 20
257.128114
 30
0.0
  0
LINE
  5
173
100
AcDbEntity
  8
0
 62
1
100
AcDbLine
 10
192.290484
 20
257.128114
 30
0.0
 11
192.290484
 21
257.128114
 31
0.0
  0
SPLINE
  5
174
100
AcDbEntity
  8
0
 62
1
100
AcDbSpline
 70
8
 71
3
 72
8
 73
4
 74
0
 40
0
 40
0
 40
0
 40
0
 40
1
 40
1
 40
1
 40
1
 10
157.868073
 20
391.369659
 30
0.0
 10
157.868073
 20
390.568846
 30
0.0
 10
157.218886
 20
389.919659
 30
0.0
 10
156.418072
 20
389.919659
 30
0.0
  0
SPLINE
  5
175
100
AcDbEntity
  8
0
 62
1
100
AcDbSpline
 70
8
 71
3
 72
8
 73
4
 74
0
 40
0
 40
0
 40
0
 40
0
 40
1
 40
1
 40
1
 40
1
 10
156.418072
 20
389.919659
 30
0.0
 10
155.617261
 20
389.919659
 30
0.0
 10
154.968074
 20
390.568846
 30
0.0
 10
154.968074
 20
391.369659
 30
0.0
  0
SPLINE
  5
176
100
AcDbEntity
  8
0
 62
1
100
AcDbSpline
 70
8
 71
3
 72
8
 73
4
 74
0
 40
0
 40
0
 40
0
 40
0
 40
1
 40
1
 40
1
 40
1
 10
154.968074
 20
391.369659
 30
0.0
 10
154.968074
 20
392.170472
 30
0.0
 10
155.617261
 20
392.819659
 30
0.0
 10
156.418072
 20
392.819659
 30
0.0
  0
SPLINE
  5
177
100
AcDbEntity
  8
0
 62
1
100
AcDbSpline
 70
8
 71
3
 72
8
 73
4
 74
0
 40
0
 40
0
 40
0
 40
0
 40
1
 40
1
 40
1
 40
1
 10
156.418072
 20
392.819659
 30
0.0
 10
157.218886
 20
392.819659
 30
0.0
 10
157.868073
 20
392.170472
 30
0.0
 10
157.868073
 20
391.369659
 30
0.0
  0
LINE
  5
178
100
AcDbEntity
  8
0
 62
1
100
AcDbLine
 10
157.868073
 20
391.369659
 30
0.0
 11
157.868073
 21
391.369659
 31
0.0
  0
SPLINE
  5
179
100
AcDbEntity
  8
0
 62
1
100
AcDbSpline
 70
8
 71
3
 72
8
 73
4
 74
0
 40
0
 40
0
 40
0
 40
0
 40
1
 40
1
 40
1
 40
1
 10
64.965496
 20
391.369659
 30
0.0
 10
64.965496
 20
390.568846
 30
0.0
 10
64.316309
 20
389.919659
 30
0.0
 10
63.515495
 20
389.919659
 30
0.0
  0
SPLINE
  5
17a
100
AcDbEntity
  8
0
 62
1
100
AcDbSpline
 70
8
 71
3
 72
8
 73
4
 74
0
 40
0
 40
0
 40
0
 40
0
 40
1
 40
1
 40
1
 40
1
 10
63.515495
 20
389.919659
 30
0.0
 10
62.714684
 20
389.919659
 30
0.0
 10
62.065496
 20
390.568846
 30
0.0
 10
62.065496
 20
391.369659
 30
0.0
  0
SPLINE
  5
17b
100
AcDbEntity
  8
0
 62
1
100
AcDbSpline
 70
8
 71
3
 72
8
 73
4
 74
0
 40
0
 40
0
 40
0
 40
0
 40
1
 40
1
 40
1
 40
1
 10
62.065496
 20
391.369659
 30
0.0
 10
62.065496
 20
392.170472
 30
0.0
 10
62.714684
 20
392.819659
 30
0.0
 10
63.515495
 20
392.819659
 30
0.0
  0
SPLINE
  5
17c
100
AcDbEntity
  8
0
 62
1
100
AcDbSpline
 70
8
 71
3
 72
8
 73
4
 74
0
 40
0
 40
0
 40
0
 40
0
 40
1
 40
1
 40
1
 40
1
 10
63.515495
 20
392.819659
 30
0.0
 10
64.316309
 20
392.819659
 30
0.0
 10
64.965496
 20
392.170472
 30
0.0
 10
64.965496
 20
391.369659
 30
0.0
  0
LINE
  5
17d
100
AcDbEntity
  8
0
 62
1
100
AcDbLine
 10
64.965496
 20
391.369659
 30
0.0
 11
64.965496
 21
391.369659
 31
0.0
  0
SPLINE
  5
17e
100
AcDbEntity
  8
0
 62
1
100
AcDbSpline
 70
8
 71
3
 72
8
 73
4
 74
0
 40
0
 40
0
 40
0
 40
0
 40
1
 40
1
 40
1
 40
1
 10
12.679419
 20
309.123935
 30
0.0
 10
12.679419
 20
308.323121
 30
0.0
 10
12.030231
 20
307.673934
 30
0.0
 10
11.229418
 20
307.673934
 30
0.0
  0
SPLINE
  5
17f
100
AcDbEntity
  8
0
 62
1
100
AcDbSpline
 70
8
 71
3
 72
8
 73
4
 74
0
 40
0
 40
0
 40
0
 40
0
 40
1
 40
1
 40
1
 40
1
 10
11.229418
 20
307.673934
 30
0.0
 10
10.428606
 20
307.673934
 30
0.0
 10
9.779419
 20
308.323121
 30
0.0
 10
9.779419
 20
309.123935
 30
0.0
  0
SPLINE
  5
180
100
AcDbEntity
  8
0
 62
1
100
AcDbSpline
 70
8
 71
3
 72
8
 73
4
 74
0
 40
0
 40
0
 40
0
 40
0
 40
1
 40
1
 40
1
 40
1
 10
9.779419
 20
309.123935
 30
0.0
 10
9.779419
 20
309.924746
 30
0.0
 10
10.428606
 20
310.573934
 30
0.0
 10
11.229418
 20
310.573934
 30
0.0
  0
SPLINE
  5
181
100
AcDbEntity
  8
0
 62
1
100
AcDbSpline
 70
8
 71
3
 72
8
 73
4
 74
0
 40
0
 40
0
 40
0
 40
0
 40
1
 40
1
 40
1
 40
1
 10
11.229418
 20
310.573934
 30
0.0
 10
12.030231
 20
310.573934
 30
0.0
 10
12.679419
 20
309.924746
 30
0.0
 10
12.679419
 20
309.123935
 30
0.0
  0
LINE
  5
182
100
AcDbEntity
  8
0
 62
1
100
AcDbLine
 10
12.679419
 20
309.123935
 30
0.0
 11
12.679419
 21
309.123935
 31
0.0
  0
SPLINE
  5
183
100
AcDbEntity
  8
0
 62
1
100
AcDbSpline
 70
8
 71
3
 72
8
 73
4
 74
0
 40
0
 40
0
 40
0
 40
0
 40
1
 40
1
 40
1
 40
1
 10
126.689494
 20
213.103680
 30
0.0
 10
126.689494
 20
212.302866
 30
0.0
 10
126.040307
 20
211.653679
 30
0.0
 10
125.239493
 20
211.653679
 30
0.0
  0
SPLINE
  5
184
100
AcDbEntity
  8
0
 62
1
100
AcDbSpline
 70
8
 71
3
 72
8
 73
4
 74
0
 40
0
 40
0
 40
0
 40
0
 40
1
 40
1
 40
1
 40
1
 10
125.239493
 20
211.653679
 30
0.0
 10
124.438682
 20
211.653679
 30
0.0
 10
123.789494
 20
212.302866
 30
0.0
 10
123.789494
 20
213.103680
 30
0.0
  0
SPLINE
  5
185
100
AcDbEntity
  8
0
 62
1
100
AcDbSpline
 70
8
 71
3
 72
8
 73
4
 74
0
 40
0
 40
0
 40
0
 40
0
 40
1
 40
1
 40
1
 40
1
 10
123.789494
 20
213.103680
 30
0.0
 10
123.789494
 20
213.904491
 30
0.0
 10
124.438682
 20
214.553679
 30
0.0
 10
125.239493
 20
214.553679
 30
0.0
  0
SPLINE
  5
186
100
AcDbEntity
  8
0
 62
1
100
AcDbSpline
 70
8
 71
3
 72
8
 73
4
 74
0
 40
0
 40
0
 40
0
 40
0
 40
1
 40
1
 40
1
 40
1
 10
125.239493
 20
214.553679
 30
0.0
 10
126.040307
 20
214.553679
 30
0.0
 10
126.689494
 20
213.904491
 30
0.0
 10
126.689494
 20
213.103680
 30
0.0
  0
LINE
  5
187
100
AcDbEntity
  8
0
 62
1
100
AcDbLine
 10
126.689494
 20
213.103680
 30
0.0
 11
126.689494
 21
213.103680
 31
0.0
  0
SPLINE
  5
188
100
AcDbEntity
  8
0
 62
1
100
AcDbSpline
 70
8
 71
3
 72
8
 73
4
 74
0
 40
0
 40
0
 40
0
 40
0
 40
1
 40
1
 40
1
 40
1
 10
23.883712
 20
249.241750
 30
0.0
 10
23.883712
 20
248.440936
 30
0.0
 10
23.234525
 20
247.791749
 30
0.0
 10
22.433712
 20
247.791749
 30
0.0
  0
SPLINE
  5
189
100
AcDbEntity
  8
0
 62
1
100
AcDbSpline
 70
8
 71
3
 72
8
 73
4
 74
0
 40
0
 40
0
 40
0
 40
0
 40
1
 40
1
 40
1
 40
1
 10
22.433712
 20
247.791749
 30
0.0
 10
21.632899
 20
247.791749
 30
0.0
 10
20.983712
 20
248.440936
 30
0.0
 10
20.983712
 20
249.241750
 30
0.0
  0
SPLINE
  5
18a
100
AcDbEntity
  8
0
 62
1
100
AcDbSpline
 70
8
 71
3
 72
8
 73
4
 74
0
 40
0
 40
0
 40
0
 40
0
 40
1
 40
1
 40
1
 40
1
 10
20.983712
 20
249.241750
 30
0.0
 10
20.983712
 20
250.042561
 30
0.0
 10
21.632899
 20
250.691749
 30
0.0
 10
22.433712
 20
250.691749
 30
0.0
  0
SPLINE
  5
18b
100
AcDbEntity
  8
0
 62
1
100
AcDbSpline
 70
8
 71
3
 72
8
 73
4
 74
0
 40
0
 40
0
 40
0
 40
0
 40
1
 40
1
 40
1
 40
1
 10
22.433712
 20
250.691749
 30
0.0
 10
23.234525
 20
250.691749
 30
0.0
 10
23.883712
 20
250.042561
 30
0.0
 10
23.883712
 20
249.241750
 30
0.0
  0
LINE
  5
18c
100
AcDbEntity
  8
0
 62
1
100
AcDbLine
 10
23.883712
 20
249.241750
 30
0.0
 11
23.883712
 21
249.241750
 31
0.0
  0
SPLINE
  5
18d
100
AcDbEntity
  8
0
 62
1
100
AcDbSpline
 70
8
 71
3
 72
8
 73
4
 74
0
 40
0
 40
0
 40
0
 40
0
 40
1
 40
1
 40
1
 40
1
 10
378.128638
 20
249.241750
 30
0.0
 10
378.128638
 20
248.440936
 30
0.0
 10
377.479471
 20
247.791749
 30
0.0
 10
376.678637
 20
247.791749
 30
0.0
  0
SPLINE
  5
18e
100
AcDbEntity
  8
0
 62
1
100
AcDbSpline
 70
8
 71
3
 72
8
 73
4
 74
0
 40
0
 40
0
 40
0
 40
0
 40
1
 40
1
 40
1
 40
1
 10
376.678637
 20
247.791749
 30
0.0
 10
375.877831
 20
247.791749
 30
0.0
 10
375.228664
 20
248.440936
 30
0.0
 10
375.228664
 20
249.241750
 30
0.0
  0
SPLINE
  5
18f
100
AcDbEntity
  8
0
 62
1
100
AcDbSpline
 70
8
 71
3
 72
8
 73
4
 74
0
 40
0
 40
0
 40
0
 40
0
 40
1
 40
1
 40
1
 40
1
 10
375.228664
 20
249.241750
 30
0.0
 10
375.228664
 20
250.042561
 30
0.0
 10
375.877831
 20
250.691749
 30
0.0
 10
376.678637
 20
250.691749
 30
0.0
  0
SPLINE
  5
190
100
AcDbEntity
  8
0
 62
1
100
AcDbSpline
 70
8
 71
3
 72
8
 73
4
 74
0
 40
0
 40
0
 40
0
 40
0
 40
1
 40
1
 40
1
 40
1
 10
376.678637
 20
250.691749
 30
0.0
 10
377.479471
 20
250.691749
 30
0.0
 10
378.128638
 20
250.042561
 30
0.0
 10
378.128638
 20
249.241750
 30
0.0
  0
LINE
  5
191
100
AcDbEntity
  8
0
 62
1
100
AcDbLine
 10
378.128638
 20
249.241750
 30
0.0
 11
378.128638
 21
249.241750
 31
0.0
  0
SPLINE
  5
192
100
AcDbEntity
  8
0
 62
1
100
AcDbSpline
 70
8
 71
3
 72
8
 73
4
 74
0
 40
0
 40
0
 40
0
 40
0
 40
1
 40
1
 40
1
 40
1
 10
275.322883
 20
213.103680
 30
0.0
 10
275.322883
 20
212.302866
 30
0.0
 10
274.673696
 20
211.653679
 30
0.0
 10
273.872885
 20
211.653679
 30
0.0
  0
SPLINE
  5
193
100
AcDbEntity
  8
0
 62
1
100
AcDbSpline
 70
8
 71
3
 72
8
 73
4
 74
0
 40
0
 40
0
 40
0
 40
0
 40
1
 40
1
 40
1
 40
1
 10
273.872885
 20
211.653679
 30
0.0
 10
273.072071
 20
211.653679
 30
0.0
 10
272.422883
 20
212.302866
 30
0.0
 10
272.422883
 20
213.103680
 30
0.0
  0
SPLINE
  5
194
100
AcDbEntity
  8
0
 62
1
100
AcDbSpline
 70
8
 71
3
 72
8
 73
4
 74
0
 40
0
 40
0
 40
0
 40
0
 40
1
 40
1
 40
1
 40
1
 10
272.422883
 20
213.103680
 30
0.0
 10
272.422883
 20
213.904491
 30
0.0
 10
273.072071
 20
214.553679
 30
0.0
 10
273.872885
 20
214.553679
 30
0.0
  0
SPLINE
  5
195
100
AcDbEntity
  8
0
 62
1
100
AcDbSpline
 70
8
 71
3
 72
8
 73
4
 74
0
 40
0
 40
0
 40
0
 40
0
 40
1
 40
1
 40
1
 40
1
 10
273.872885
 20
214.553679
 30
0.0
 10
274.673696
 20
214.553679
 30
0.0
 10
275.322883
 20
213.904491
 30
0.0
 10
275.322883
 20
213.103680
 30
0.0
  0
LINE
  5
196
100
AcDbEntity
  8
0
 62
1
100
AcDbLine
 10
275.322883
 20
213.103680
 30
0.0
 11
275.322883
 21
213.103680
 31
0.0
  0
SPLINE
  5
197
100
AcDbEntity
  8
0
 62
1
100
AcDbSpline
 70
8
 71
3
 72
8
 73
4
 74
0
 40
0
 40
0
 40
0
 40
0
 40
1
 40
1
 40
1
 40
1
 10
389.332973
 20
309.123935
 30
0.0
 10
389.332973
 20
308.323121
 30
0.0
 10
388.683777
 20
307.673934
 30
0.0
 10
387.882972
 20
307.673934
 30
0.0
  0
SPLINE
  5
198
100
AcDbEntity
  8
0
 62
1
100
AcDbSpline
 70
8
 71
3
 72
8
 73
4
 74
0
 40
0
 40
0
 40
0
 40
0
 40
1
 40
1
 40
1
 40
1
 10
387.882972
 20
307.673934
 30
0.0
 10
387.082138
 20
307.673934
 30
0.0
 10
386.432971
 20
308.323121
 30
0.0
 10
386.432971
 20
309.123935
 30
0.0
  0
SPLINE
  5
199
100
AcDbEntity
  8
0
 62
1
100
AcDbSpline
 70
8
 71
3
 72
8
 73
4
 74
0
 40
0
 40
0
 40
0
 40
0
 40
1
 40
1
 40
1
 40
1
 10
386.432971
 20
309.123935
 30
0.0
 10
386.432971
 20
309.924746
 30
0.0
 10
387.082138
 20
310.573934
 30
0.0
 10
387.882972
 20
310.573934
 30
0.0
  0
SPLINE
  5
19a
100
AcDbEntity
  8
0
 62
1
100
AcDbSpline
 70
8
 71
3
 72
8
 73
4
 74
0
 40
0
 40
0
 40
0
 40
0
 40
1
 40
1
 40
1
 40
1
 10
387.882972
 20
310.573934
 30
0.0
 10
388.683777
 20
310.573934
 30
0.0
 10
389.332973
 20
309.924746
 30
0.0
 10
389.332973
 20
309.123935
 30
0.0
  0
LINE
  5
19b
100
AcDbEntity
  8
0
 62
1
100
AcDbLine
 10
389.332973
 20
309.123935
 30
0.0
 11
389.332973
 21
309.123935
 31
0.0
  0
SPLINE
  5
19c
100
AcDbEntity
  8
0
 62
1
100
AcDbSpline
 70
8
 71
3
 72
8
 73
4
 74
0
 40
0
 40
0
 40
0
 40
0
 40
1
 40
1
 40
1
 40
1
 10
337.046876
 20
391.369659
 30
0.0
 10
337.046876
 20
390.568846
 30
0.0
 10
336.397708
 20
389.919659
 30
0.0
 10
335.596874
 20
389.919659
 30
0.0
  0
SPLINE
  5
19d
100
AcDbEntity
  8
0
 62
1
100
AcDbSpline
 70
8
 71
3
 72
8
 73
4
 74
0
 40
0
 40
0
 40
0
 40
0
 40
1
 40
1
 40
1
 40
1
 10
335.596874
 20
389.919659
 30
0.0
 10
334.796069
 20
389.919659
 30
0.0
 10
334.146873
 20
390.568846
 30
0.0
 10
334.146873
 20
391.369659
 30
0.0
  0
SPLINE
  5
19e
100
AcDbEntity
  8
0
 62
1
100
AcDbSpline
 70
8
 71
3
 72
8
 73
4
 74
0
 40
0
 40
0
 40
0
 40
0
 40
1
 40
1
 40
1
 40
1
 10
334.146873
 20
391.369659
 30
0.0
 10
334.146873
 20
392.170472
 30
0.0
 10
334.796069
 20
392.819659
 30
0.0
 10
335.596874
 20
392.819659
 30
0.0
  0
SPLINE
  5
19f
100
AcDbEntity
  8
0
 62
1
100
AcDbSpline
 70
8
 71
3
 72
8
 73
4
 74
0
 40
0
 40
0
 40
0
 40
0
 40
1
 40
1
 40
1
 40
1
 10
335.596874
 20
392.819659
 30
0.0
 10
336.397708
 20
392.819659
 30
0.0
 10
337.046876
 20
392.170472
 30
0.0
 10
337.046876
 20
391.369659
 30
0.0
  0
LINE
  5
1a0
100
AcDbEntity
  8
0
 62
1
100
AcDbLine
 10
337.046876
 20
391.369659
 30
0.0
 11
337.046876
 21
391.369659
 31
0.0
  0
SPLINE
  5
1a1
100
AcDbEntity
  8
0
 62
1
100
AcDbSpline
 70
8
 71
3
 72
8
 73
4
 74
0
 40
0
 40
0
 40
0
 40
0
 40
1
 40
1
 40
1
 40
1
 10
244.144287
 20
391.369659
 30
0.0
 10
244.144287
 20
390.568846
 30
0.0
 10
243.495100
 20
389.919659
 30
0.0
 10
242.694289
 20
389.919659
 30
0.0
  0
SPLINE
  5
1a2
100
AcDbEntity
  8
0
 62
1
100
AcDbSpline
 70
8
 71
3
 72
8
 73
4
 74
0
 40
0
 40
0
 40
0
 40
0
 40
1
 40
1
 40
1
 40
1
 10
242.694289
 20
389.919659
 30
0.0
 10
241.893475
 20
389.919659
 30
0.0
 10
241.244287
 20
390.568846
 30
0.0
 10
241.244287
 20
391.369659
 30
0.0
  0
SPLINE
  5
1a3
100
AcDbEntity
  8
0
 62
1
100
AcDbSpline
 70
8
 71
3
 72
8
 73
4
 74
0
 40
0
 40
0
 40
0
 40
0
 40
1
 40
1
 40
1
 40
1
 10
241.244287
 20
391.369659
 30
0.0
 10
241.244287
 20
392.170472
 30
0.0
 10
241.893475
 20
392.819659
 30
0.0
 10
242.694289
 20
392.819659
 30
0.0
  0
SPLINE
  5
1a4
100
AcDbEntity
  8
0
 62
1
100
AcDbSpline
 70
8
 71
3
 72
8
 73
4
 74
0
 40
0
 40
0
 40
0
 40
0
 40
1
 40
1
 40
1
 40
1
 10
242.694289
 20
392.819659
 30
0.0
 10
243.495100
 20
392.819659
 30
0.0
 10
244.144287
 20
392.170472
 30
0.0
 10
244.144287
 20
391.369659
 30
0.0
  0
LINE
  5
1a5
100
AcDbEntity
  8
0
 62
1
100
AcDbLine
 10
244.144287
 20
391.369659
 30
0.0
 11
244.144287
 21
391.369659
 31
0.0
  0
SPLINE
  5
1a6
100
AcDbEntity
  8
0
 62
1
100
AcDbSpline
 70
8
 71
3
 72
8
 73
4
 74
0
 40
0
 40
0
 40
0
 40
0
 40
1
 40
1
 40
1
 40
1
 10
209.721894
 20
257.128114
 30
0.0
 10
209.721894
 20
256.327303
 30
0.0
 10
209.072707
 20
255.678116
 30
0.0
 10
208.271893
 20
255.678116
 30
0.0
  0
SPLINE
  5
1a7
100
AcDbEntity
  8
0
 62
1
100
AcDbSpline
 70
8
 71
3
 72
8
 73
4
 74
0
 40
0
 40
0
 40
0
 40
0
 40
1
 40
1
 40
1
 40
1
 10
208.271893
 20
255.678116
 30
0.0
 10
207.471079
 20
255.678116
 30
0.0
 10
206.821894
 20
256.327303
 30
0.0
 10
206.821894
 20
257.128114
 30
0.0
  0
SPLINE
  5
1a8
100
AcDbEntity
  8
0
 62
1
100
AcDbSpline
 70
8
 71
3
 72
8
 73
4
 74
0
 40
0
 40
0
 40
0
 40
0
 40
1
 40
1
 40
1
 40
1
 10
206.821894
 20
257.128114
 30
0.0
 10
206.821894
 20
257.928928
 30
0.0
 10
207.471079
 20
258.578116
 30
0.0
 10
208.271893
 20
258.578116
 30
0.0
  0
SPLINE
  5
1a9
100
AcDbEntity
  8
0
 62
1
100
AcDbSpline
 70
8
 71
3
 72
8
 73
4
 74
0
 40
0
 40
0
 40
0
 40
0
 40
1
 40
1
 40
1
 40
1
 10
208.271893
 20
258.578116
 30
0.0
 10
209.072707
 20
258.578116
 30
0.0
 10
209.721894
 20
257.928928
 30
0.0
 10
209.721894
 20
257.128114
 30
0.0
  0
LINE
  5
1aa
100
AcDbEntity
  8
0
 62
1
100
AcDbLine
 10
209.721894
 20
257.128114
 30
0.0
 11
209.721894
 21
257.128114
 31
0.0
  0
LINE
  5
1ab
100
AcDbEntity
  8
0
 62
1
100
AcDbLine
 10
219.556187
 20
393.369659
 30
0.0
 11
179.556188
 21
393.369659
 31
0.0
  0
SPLINE
  5
1ac
100
AcDbEntity
  8
0
 62
1
100
AcDbSpline
 70
8
 71
3
 72
8
 73
4
 74
0
 40
0
 40
0
 40
0
 40
0
 40
1
 40
1
 40
1
 40
1
 10
179.556187
 20
393.369659
 30
0.0
 10
176.242479
 20
393.369658
 30
0.0
 10
173.556188
 20
390.683368
 30
0.0
 10
173.556188
 20
387.369660
 30
0.0
  0
LINE
  5
1ad
100
AcDbEntity
  8
0
 62
1
100
AcDbLine
 10
173.556189
 20
387.369659
 30
0.0
 11
173.556189
 21
363.150398
 31
0.0
  0
LINE
  5
1ae
100
AcDbEntity
  8
0
 62
1
100
AcDbLine
 10
173.556189
 20
363.150398
 30
0.0
 11
168.411292
 21
363.150398
 31
0.0
  0
LINE
  5
1af
100
AcDbEntity
  8
0
 62
1
100
AcDbLine
 10
168.411292
 20
363.150398
 30
0.0
 11
131.385229
 21
371.698538
 31
0.0
  0
LINE
  5
1b0
100
AcDbEntity
  8
0
 62
1
100
AcDbLine
 10
131.385229
 20
371.698538
 30
0.0
 11
131.722654
 21
373.160093
 31
0.0
  0
LINE
  5
1b1
100
AcDbEntity
  8
0
 62
1
100
AcDbLine
 10
131.722654
 20
373.160093
 30
0.0
 11
113.209624
 21
377.434163
 31
0.0
  0
LINE
  5
1b2
100
AcDbEntity
  8
0
 62
1
100
AcDbLine
 10
113.209624
 20
377.434163
 30
0.0
 11
113.547049
 21
378.895718
 31
0.0
  0
LINE
  5
1b3
100
AcDbEntity
  8
0
 62
1
100
AcDbLine
 10
113.547049
 20
378.895718
 30
0.0
 11
94.059650
 21
383.394740
 31
0.0
  0
LINE
  5
1b4
100
AcDbEntity
  8
0
 62
1
100
AcDbLine
 10
94.059650
 20
383.394740
 30
0.0
 11
93.722222
 21
381.933184
 31
0.0
  0
LINE
  5
1b5
100
AcDbEntity
  8
0
 62
1
100
AcDbLine
 10
93.722222
 20
381.933184
 30
0.0
 11
75.209192
 21
386.207255
 31
0.0
  0
LINE
  5
1b6
100
AcDbEntity
  8
0
 62
1
100
AcDbLine
 10
75.209192
 20
386.207255
 30
0.0
 11
74.534337
 21
383.284144
 31
0.0
  0
LINE
  5
1b7
100
AcDbEntity
  8
0
 62
1
100
AcDbLine
 10
74.534337
 20
383.284144
 30
0.0
 11
32.880019
 21
392.900802
 31
0.0
  0
LINE
  5
1b8
100
AcDbEntity
  8
0
 62
1
100
AcDbLine
 10
32.880019
 20
392.900802
 30
0.0
 11
15.558786
 21
317.874306
 31
0.0
  0
LINE
  5
1b9
100
AcDbEntity
  8
0
 62
1
100
AcDbLine
 10
15.558786
 20
317.874306
 30
0.0
 11
15.912974
 21
298.292757
 31
0.0
  0
LINE
  5
1ba
100
AcDbEntity
  8
0
 62
1
100
AcDbLine
 10
15.912974
 20
298.292757
 30
0.0
 11
108.492017
 21
260.552915
 31
0.0
  0
LINE
  5
1bb
100
AcDbEntity
  8
0
 62
1
100
AcDbLine
 10
108.492017
 20
260.552915
 30
0.0
 11
154.196642
 21
224.844551
 31
0.0
  0
LINE
  5
1bc
100
AcDbEntity
  8
0
 62
1
100
AcDbLine
 10
154.196642
 20
224.844551
 30
0.0
 11
189.905006
 21
270.549175
 31
0.0
  0
LINE
  5
1bd
100
AcDbEntity
  8
0
 62
1
100
AcDbLine
 10
189.905006
 20
270.549175
 30
0.0
 11
209.207369
 21
270.549175
 31
0.0
  0
LINE
  5
1be
100
AcDbEntity
  8
0
 62
1
100
AcDbLine
 10
209.207369
 20
270.549175
 30
0.0
 11
244.915733
 21
224.844551
 31
0.0
  0
LINE
  5
1bf
100
AcDbEntity
  8
0
 62
1
100
AcDbLine
 10
244.915733
 20
224.844551
 30
0.0
 11
290.620361
 21
260.552915
 31
0.0
  0
LINE
  5
1c0
100
AcDbEntity
  8
0
 62
1
100
AcDbLine
 10
290.620361
 20
260.552915
 30
0.0
 11
383.199409
 21
298.292757
 31
0.0
  0
LINE
  5
1c1
100
AcDbEntity
  8
0
 62
1
100
AcDbLine
 10
383.199409
 20
298.292757
 30
0.0
 11
383.553598
 21
317.874306
 31
0.0
  0
LINE
  5
1c2
100
AcDbEntity
  8
0
 62
1
100
AcDbLine
 10
383.553598
 20
317.874306
 30
0.0
 11
366.232351
 21
392.900802
 31
0.0
  0
LINE
  5
1c3
100
AcDbEntity
  8
0
 62
1
100
AcDbLine
 10
366.232351
 20
392.900802
 30
0.0
 11
324.578044
 21
383.284144
 31
0.0
  0
LINE
  5
1c4
100
AcDbEntity
  8
0
 62
1
100
AcDbLine
 10
324.578044
 20
383.284144
 30
0.0
 11
323.903194
 21
386.207255
 31
0.0
  0
LINE
  5
1c5
100
AcDbEntity
  8
0
 62
1
100
AcDbLine
 10
323.903194
 20
386.207255
 30
0.0
 11
305.390150
 21
381.933184
 31
0.0
  0
LINE
  5
1c6
100
AcDbEntity
  8
0
 62
1
100
AcDbLine
 10
305.390150
 20
381.933184
 30
0.0
 11
305.052725
 21
383.394740
 31
0.0
  0
LINE
  5
1c7
100
AcDbEntity
  8
0
 62
1
100
AcDbLine
 10
305.052725
 20
383.394740
 30
0.0
 11
285.565337
 21
378.895718
 31
0.0
  0
LINE
  5
1c8
100
AcDbEntity
  8
0
 62
1
100
AcDbLine
 10
285.565337
 20
378.895718
 30
0.0
 11
285.902762
 21
377.434163
 31
0.0
  0
LINE
  5
1c9
100
AcDbEntity
  8
0
 62
1
100
AcDbLine
 10
285.902762
 20
377.434163
 30
0.0
 11
267.389721
 21
373.160093
 31
0.0
  0
LINE
  5
1ca
100
AcDbEntity
  8
0
 62
1
100
AcDbLine
 10
267.389721
 20
373.160093
 30
0.0
 11
267.727149
 21
371.698538
 31
0.0
  0
LINE
  5
1cb
100
AcDbEntity
  8
0
 62
1
100
AcDbLine
 10
267.727149
 20
371.698538
 30
0.0
 11
230.701086
 21
363.150398
 31
0.0
  0
LINE
  5
1cc
100
AcDbEntity
  8
0
 62
1
100
AcDbLine
 10
230.701086
 20
363.150398
 30
0.0
 11
225.556189
 21
363.150398
 31
0.0
  0
LINE
  5
1cd
100
AcDbEntity
  8
0
 62
1
100
AcDbLine
 10
225.556189
 20
363.150398
 30
0.0
 11
225.556189
 21
387.369659
 31
0.0
  0
SPLINE
  5
1ce
100
AcDbEntity
  8
0
 62
1
100
AcDbSpline
 70
8
 71
3
 72
8
 73
4
 74
0
 40
0
 40
0
 40
0
 40
0
 40
1
 40
1
 40
1
 40
1
 10
225.556185
 20
387.369660
 30
0.0
 10
225.556185
 20
390.683368
 30
0.0
 10
222.869894
 20
393.369658
 30
0.0
 10
219.556186
 20
393.369659
 30
0.0
  0
LINE
  5
1cf
100
AcDbEntity
  8
0
 62
1
100
AcDbLine
 10
5.533583
 20
315.570438
 30
0.0
 11
23.754619
 21
394.494414
 31
0.0
  0
SPLINE
  5
1d0
100
AcDbEntity
  8
0
 62
1
100
AcDbSpline
 70
8
 71
3
 72
8
 73
4
 74
0
 40
0
 40
0
 40
0
 40
0
 40
1
 40
1
 40
1
 40
1
 10
28.626469
 20
398.369660
 30
0.0
 10
26.298364
 20
398.369660
 30
0.0
 10
24.278327
 20
396.762849
 30
0.0
 10
23.754618
 20
394.494413
 30
0.0
  0
LINE
  5
1d1
100
AcDbEntity
  8
0
 62
1
100
AcDbLine
 10
28.626470
 20
398.369659
 30
0.0
 11
370.485919
 21
398.369659
 31
0.0
  0
SPLINE
  5
1d2
100
AcDbEntity
  8
0
 62
1
100
AcDbSpline
 70
8
 71
3
 72
8
 73
4
 74
0
 40
0
 40
0
 40
0
 40
0
 40
1
 40
1
 40
1
 40
1
 10
375.357757
 20
394.494413
 30
0.0
 10
374.834050
 20
396.762843
 30
0.0
 10
372.814022
 20
398.369652
 30
0.0
 10
370.485924
 20
398.369660
 30
0.0
  0
LINE
  5
1d3
100
AcDbEntity
  8
0
 62
1
100
AcDbLine
 10
375.357752
 20
394.494414
 30
0.0
 11
393.578781
 21
315.570438
 31
0.0
  0
SPLINE
  5
1d4
100
AcDbEntity
  8
0
 62
1
100
AcDbSpline
 70
8
 71
3
 72
8
 73
4
 74
0
 40
0
 40
0
 40
0
 40
0
 40
1
 40
1
 40
1
 40
1
 10
235.703212
 20
230.422224
 30
0.0
 10
264.631597
 20
200.128487
 30
0.0
 10
310.241996
 20
192.912239
 30
0.0
 10
347.109232
 20
212.796123
 30
0.0
  0
SPLINE
  5
1d5
100
AcDbEntity
  8
0
 62
1
100
AcDbSpline
 70
8
 71
3
 72
8
 73
4
 74
0
 40
0
 40
0
 40
0
 40
0
 40
1
 40
1
 40
1
 40
1
 10
347.109232
 20
212.796123
 30
0.0
 10
383.976469
 20
232.680008
 30
0.0
 10
403.001427
 20
274.756530
 30
0.0
 10
393.578786
 20
315.570447
 30
0.0
  0
SPLINE
  5
1d6
100
AcDbEntity
  8
0
 62
1
100
AcDbSpline
 70
8
 71
3
 72
8
 73
4
 74
0
 40
0
 40
0
 40
0
 40
0
 40
1
 40
1
 40
1
 40
1
 10
235.703212
 20
230.422224
 30
0.0
 10
226.272472
 20
240.298073
 30
0.0
 10
213.211634
 20
245.885261
 30
0.0
 10
199.556187
 20
245.885261
 30
0.0
  0
SPLINE
  5
1d7
100
AcDbEntity
  8
0
 62
1
100
AcDbSpline
 70
8
 71
3
 72
8
 73
4
 74
0
 40
0
 40
0
 40
0
 40
0
 40
1
 40
1
 40
1
 40
1
 10
199.556187
 20
245.885261
 30
0.0
 10
185.900739
 20
245.885261
 30
0.0
 10
172.839901
 20
240.298073
 30
0.0
 10
163.409162
 20
230.422224
 30
0.0
  0
SPLINE
  5
1d8
100
AcDbEntity
  8
0
 62
1
100
AcDbSpline
 70
8
 71
3
 72
8
 73
4
 74
0
 40
0
 40
0
 40
0
 40
0
 40
1
 40
1
 40
1
 40
1
 10
5.533583
 20
315.570447
 30
0.0
 10
-3.889061
 20
274.756528
 30
0.0
 10
15.135897
 20
232.680002
 30
0.0
 10
52.003136
 20
212.796117
 30
0.0
  0
SPLINE
  5
1d9
100
AcDbEntity
  8
0
 62
1
100
AcDbSpline
 70
8
 71
3
 72
8
 73
4
 74
0
 40
0
 40
0
 40
0
 40
0
 40
1
 40
1
 40
1
 40
1
 10
52.003136
 20
212.796117
 30
0.0
 10
88.870375
 20
192.912232
 30
0.0
 10
134.480777
 20
200.128483
 30
0.0
 10
163.409162
 20
230.422224
 30
0.0
  0
SPLINE
  5
1da
100
AcDbEntity
  8
0
 62
1
100
AcDbSpline
 70
8
 71
3
 72
8
 73
4
 74
0
 40
0
 40
0
 40
0
 40
0
 40
1
 40
1
 40
1
 40
1
 10
192.290484
 20
455.628113
 30
0.0
 10
192.290484
 20
454.827302
 30
0.0
 10
191.641299
 20
454.178115
 30
0.0
 10
190.840485
 20
454.178115
 30
0.0
  0
SPLINE
  5
1db
100
AcDbEntity
  8
0
 62
1
100
AcDbSpline
 70
8
 71
3
 72
8
 73
4
 74
0
 40
0
 40
0
 40
0
 40
0
 40
1
 40
1
 40
1
 40
1
 10
190.840485
 20
454.178115
 30
0.0
 10
190.039671
 20
454.178115
 30
0.0
 10
189.390484
 20
454.827302
 30
0.0
 10
189.390484
 20
455.628113
 30
0.0
  0
SPLINE
  5
1dc
100
AcDbEntity
  8
0
 62
1
100
AcDbSpline
 70
8
 71
3
 72
8
 73
4
 74
0
 40
0
 40
0
 40
0
 40
0
 40
1
 40
1
 40
1
 40
1
 10
189.390484
 20
455.628113
 30
0.0
 10
189.390484
 20
456.428927
 30
0.0
 10
190.039671
 20
457.078115
 30
0.0
 10
190.840485
 20
457.078115
 30
0.0
  0
SPLINE
  5
1dd
100
AcDbEntity
  8
0
 62
1
100
AcDbSpline
 70
8
 71
3
 72
8
 73
4
 74
0
 40
0
 40
0
 40
0
 40
0
 40
1
 40
1
 40
1
 40
1
 10
190.840485
 20
457.078115
 30
0.0
 10
191.641299
 20
457.078115
 30
0.0
 10
192.290484
 20
456.428927
 30
0.0
 10
192.290484
 20
455.628113
 30
0.0
  0
LINE
  5
1de
100
AcDbEntity
  8
0
 62
1
100
AcDbLine
 10
192.290484
 20
455.628113
 30
0.0
 11
192.290484
 21
455.628113
 31
0.0
  0
SPLINE
  5
1df
100
AcDbEntity
  8
0
 62
1
100
AcDbSpline
 70
8
 71
3
 72
8
 73
4
 74
0
 40
0
 40
0
 40
0
 40
0
 40
1
 40
1
 40
1
 40
1
 10
157.868073
 20
589.869658
 30
0.0
 10
157.868073
 20
589.068845
 30
0.0
 10
157.218886
 20
588.419658
 30
0.0
 10
156.418072
 20
588.419658
 30
0.0
  0
SPLINE
  5
1e0
100
AcDbEntity
  8
0
 62
1
100
AcDbSpline
 70
8
 71
3
 72
8
 73
4
 74
0
 40
0
 40
0
 40
0
 40
0
 40
1
 40
1
 40
1
 40
1
 10
156.418072
 20
588.419658
 30
0.0
 10
155.617261
 20
588.419658
 30
0.0
 10
154.968074
 20
589.068845
 30
0.0
 10
154.968074
 20
589.869658
 30
0.0
  0
SPLINE
  5
1e1
100
AcDbEntity
  8
0
 62
1
100
AcDbSpline
 70
8
 71
3
 72
8
 73
4
 74
0
 40
0
 40
0
 40
0
 40
0
 40
1
 40
1
 40
1
 40
1
 10
154.968074
 20
589.869658
 30
0.0
 10
154.968074
 20
590.670471
 30
0.0
 10
155.617261
 20
591.319658
 30
0.0
 10
156.418072
 20
591.319658
 30
0.0
  0
SPLINE
  5
1e2
100
AcDbEntity
  8
0
 62
1
100
AcDbSpline
 70
8
 71
3
 72
8
 73
4
 74
0
 40
0
 40
0
 40
0
 40
0
 40
1
 40
1
 40
1
 40
1
 10
156.418072
 20
591.319658
 30
0.0
 10
157.218886
 20
591.319658
 30
0.0
 10
157.868073
 20
590.670471
 30
0.0
 10
157.868073
 20
589.869658
 30
0.0
  0
LINE
  5
1e3
100
AcDbEntity
  8
0
 62
1
100
AcDbLine
 10
157.868073
 20
589.869658
 30
0.0
 11
157.868073
 21
589.869658
 31
0.0
  0
SPLINE
  5
1e4
100
AcDbEntity
  8
0
 62
1
100
AcDbSpline
 70
8
 71
3
 72
8
 73
4
 74
0
 40
0
 40
0
 40
0
 40
0
 40
1
 40
1
 40
1
 40
1
 10
64.965496
 20
589.869658
 30
0.0
 10
64.965496
 20
589.068845
 30
0.0
 10
64.316309
 20
588.419658
 30
0.0
 10
63.515495
 20
588.419658
 30
0.0
  0
SPLINE
  5
1e5
100
AcDbEntity
  8
0
 62
1
100
AcDbSpline
 70
8
 71
3
 72
8
 73
4
 74
0
 40
0
 40
0
 40
0
 40
0
 40
1
 40
1
 40
1
 40
1
 10
63.515495
 20
588.419658
 30
0.0
 10
62.714684
 20
588.419658
 30
0.0
 10
62.065496
 20
589.068845
 30
0.0
 10
62.065496
 20
589.869658
 30
0.0
  0
SPLINE
  5
1e6
100
AcDbEntity
  8
0
 62
1
100
AcDbSpline
 70
8
 71
3
 72
8
 73
4
 74
0
 40
0
 40
0
 40
0
 40
0
 40
1
 40
1
 40
1
 40
1
 10
62.065496
 20
589.869658
 30
0.0
 10
62.065496
 20
590.670471
 30
0.0
 10
62.714684
 20
591.319658
 30
0.0
 10
63.515495
 20
591.319658
 30
0.0
  0
SPLINE
  5
1e7
100
AcDbEntity
  8
0
 62
1
100
AcDbSpline
 70
8
 71
3
 72
8
 73
4
 74
0
 40
0
 40
0
 40
0
 40
0
 40
1
 40
1
 40
1
 40
1
 10
63.515495
 20
591.319658
 30
0.0
 10
64.316309
 20
591.319658
 30
0.0
 10
64.965496
 20
590.670471
 30
0.0
 10
64.965496
 20
589.869658
 30
0.0
  0
LINE
  5
1e8
100
AcDbEntity
  8
0
 62
1
100
AcDbLine
 10
64.965496
 20
589.869658
 30
0.0
 11
64.965496
 21
589.869658
 31
0.0
  0
SPLINE
  5
1e9
100
AcDbEntity
  8
0
 62
1
100
AcDbSpline
 70
8
 71
3
 72
8
 73
4
 74
0
 40
0
 40
0
 40
0
 40
0
 40
1
 40
1
 40
1
 40
1
 10
12.679419
 20
507.623934
 30
0.0
 10
12.679419
 20
506.823120
 30
0.0
 10
12.030231
 20
506.173933
 30
0.0
 10
11.229418
 20
506.173933
 30
0.0
  0
SPLINE
  5
1ea
100
AcDbEntity
  8
0
 62
1
100
AcDbSpline
 70
8
 71
3
 72
8
 73
4
 74
0
 40
0
 40
0
 40
0
 40
0
 40
1
 40
1
 40
1
 40
1
 10
11.229418
 20
506.173933
 30
0.0
 10
10.428606
 20
506.173933
 30
0.0
 10
9.779419
 20
506.823120
 30
0.0
 10
9.779419
 20
507.623934
 30
0.0
  0
SPLINE
  5
1eb
100
AcDbEntity
  8
0
 62
1
100
AcDbSpline
 70
8
 71
3
 72
8
 73
4
 74
0
 40
0
 40
0
 40
0
 40
0
 40
1
 40
1
 40
1
 40
1
 10
9.779419
 20
507.623934
 30
0.0
 10
9.779419
 20
508.424745
 30
0.0
 10
10.428606
 20
509.073933
 30
0.0
 10
11.229418
 20
509.073933
 30
0.0
  0
SPLINE
  5
1ec
100
AcDbEntity
  8
0
 62
1
100
AcDbSpline
 70
8
 71
3
 72
8
 73
4
 74
0
 40
0
 40
0
 40
0
 40
0
 40
1
 40
1
 40
1
 40
1
 10
11.229418
 20
509.073933
 30
0.0
 10
12.030231
 20
509.073933
 30
0.0
 10
12.679419
 20
508.424745
 30
0.0
 10
12.679419
 20
507.623934
 30
0.0
  0
LINE
  5
1ed
100
AcDbEntity
  8
0
 62
1
100
AcDbLine
 10
12.679419
 20
507.623934
 30
0.0
 11
12.679419
 21
507.623934
 31
0.0
  0
SPLINE
  5
1ee
100
AcDbEntity
  8
0
 62
1
100
AcDbSpline
 70
8
 71
3
 72
8
 73
4
 74
0
 40
0
 40
0
 40
0
 40
0
 40
1
 40
1
 40
1
 40
1
 10
126.689494
 20
411.603679
 30
0.0
 10
126.689494
 20
410.802865
 30
0.0
 10
126.040307
 20
410.153678
 30
0.0
 10
125.239493
 20
410.153678
 30
0.0
  0
SPLINE
  5
1ef
100
AcDbEntity
  8
0
 62
1
100
AcDbSpline
 70
8
 71
3
 72
8
 73
4
 74
0
 40
0
 40
0
 40
0
 40
0
 40
1
 40
1
 40
1
 40
1
 10
125.239493
 20
410.153678
 30
0.0
 10
124.438682
 20
410.153678
 30
0.0
 10
123.789494
 20
410.802865
 30
0.0
 10
123.789494
 20
411.603679
 30
0.0
  0
SPLINE
  5
1f0
100
AcDbEntity
  8
0
 62
1
100
AcDbSpline
 70
8
 71
3
 72
8
 73
4
 74
0
 40
0
 40
0
 40
0
 40
0
 40
1
 40
1
 40
1
 40
1
 10
123.789494
 20
411.603679
 30
0.0
 10
123.789494
 20
412.404490
 30
0.0
 10
124.438682
 20
413.053678
 30
0.0
 10
125.239493
 20
413.053678
 30
0.0
  0
SPLINE
  5
1f1
100
AcDbEntity
  8
0
 62
1
100
AcDbSpline
 70
8
 71
3
 72
8
 73
4
 74
0
 40
0
 40
0
 40
0
 40
0
 40
1
 40
1
 40
1
 40
1
 10
125.239493
 20
413.053678
 30
0.0
 10
126.040307
 20
413.053678
 30
0.0
 10
126.689494
 20
412.404490
 30
0.0
 10
126.689494
 20
411.603679
 30
0.0
  0
LINE
  5
1f2
100
AcDbEntity
  8
0
 62
1
100
AcDbLine
 10
126.689494
 20
411.603679
 30
0.0
 11
126.689494
 21
411.603679
 31
0.0
  0
SPLINE
  5
1f3
100
AcDbEntity
  8
0
 62
1
100
AcDbSpline
 70
8
 71
3
 72
8
 73
4
 74
0
 40
0
 40
0
 40
0
 40
0
 40
1
 40
1
 40
1
 40
1
 10
23.883712
 20
447.741749
 30
0.0
 10
23.883712
 20
446.940935
 30
0.0
 10
23.234525
 20
446.291748
 30
0.0
 10
22.433712
 20
446.291748
 30
0.0
  0
SPLINE
  5
1f4
100
AcDbEntity
  8
0
 62
1
100
AcDbSpline
 70
8
 71
3
 72
8
 73
4
 74
0
 40
0
 40
0
 40
0
 40
0
 40
1
 40
1
 40
1
 40
1
 10
22.433712
 20
446.291748
 30
0.0
 10
21.632899
 20
446.291748
 30
0.0
 10
20.983712
 20
446.940935
 30
0.0
 10
20.983712
 20
447.741749
 30
0.0
  0
SPLINE
  5
1f5
100
AcDbEntity
  8
0
 62
1
100
AcDbSpline
 70
8
 71
3
 72
8
 73
4
 74
0
 40
0
 40
0
 40
0
 40
0
 40
1
 40
1
 40
1
 40
1
 10
20.983712
 20
447.741749
 30
0.0
 10
20.983712
 20
448.542560
 30
0.0
 10
21.632899
 20
449.191748
 30
0.0
 10
22.433712
 20
449.191748
 30
0.0
  0
SPLINE
  5
1f6
100
AcDbEntity
  8
0
 62
1
100
AcDbSpline
 70
8
 71
3
 72
8
 73
4
 74
0
 40
0
 40
0
 40
0
 40
0
 40
1
 40
1
 40
1
 40
1
 10
22.433712
 20
449.191748
 30
0.0
 10
23.234525
 20
449.191748
 30
0.0
 10
23.883712
 20
448.542560
 30
0.0
 10
23.883712
 20
447.741749
 30
0.0
  0
LINE
  5
1f7
100
AcDbEntity
  8
0
 62
1
100
AcDbLine
 10
23.883712
 20
447.741749
 30
0.0
 11
23.883712
 21
447.741749
 31
0.0
  0
SPLINE
  5
1f8
100
AcDbEntity
  8
0
 62
1
100
AcDbSpline
 70
8
 71
3
 72
8
 73
4
 74
0
 40
0
 40
0
 40
0
 40
0
 40
1
 40
1
 40
1
 40
1
 10
378.128638
 20
447.741749
 30
0.0
 10
378.128638
 20
446.940935
 30
0.0
 10
377.479471
 20
446.291748
 30
0.0
 10
376.678637
 20
446.291748
 30
0.0
  0
SPLINE
  5
1f9
100
AcDbEntity
  8
0
 62
1
100
AcDbSpline
 70
8
 71
3
 72
8
 73
4
 74
0
 40
0
 40
0
 40
0
 40
0
 40
1
 40
1
 40
1
 40
1
 10
376.678637
 20
446.291748
 30
0.0
 10
375.877831
 20
446.291748
 30
0.0
 10
375.228664
 20
446.940935
 30
0.0
 10
375.228664
 20
447.741749
 30
0.0
  0
SPLINE
  5
1fa
100
AcDbEntity
  8
0
 62
1
100
AcDbSpline
 70
8
 71
3
 72
8
 73
4
 74
0
 40
0
 40
0
 40
0
 40
0
 40
1
 40
1
 40
1
 40
1
 10
375.228664
 20
447.741749
 30
0.0
 10
375.228664
 20
448.542560
 30
0.0
 10
375.877831
 20
449.191748
 30
0.0
 10
376.678637
 20
449.191748
 30
0.0
  0
SPLINE
  5
1fb
100
AcDbEntity
  8
0
 62
1
100
AcDbSpline
 70
8
 71
3
 72
8
 73
4
 74
0
 40
0
 40
0
 40
0
 40
0
 40
1
 40
1
 40
1
 40
1
 10
376.678637
 20
449.191748
 30
0.0
 10
377.479471
 20
449.191748
 30
0.0
 10
378.128638
 20
448.542560
 30
0.0
 10
378.128638
 20
447.741749
 30
0.0
  0
LINE
  5
1fc
100
AcDbEntity
  8
0
 62
1
100
AcDbLine
 10
378.128638
 20
447.741749
 30
0.0
 11
378.128638
 21
447.741749
 31
0.0
  0
SPLINE
  5
1fd
100
AcDbEntity
  8
0
 62
1
100
AcDbSpline
 70
8
 71
3
 72
8
 73
4
 74
0
 40
0
 40
0
 40
0
 40
0
 40
1
 40
1
 40
1
 40
1
 10
275.322883
 20
411.603679
 30
0.0
 10
275.322883
 20
410.802865
 30
0.0
 10
274.673696
 20
410.153678
 30
0.0
 10
273.872885
 20
410.153678
 30
0.0
  0
SPLINE
  5
1fe
100
AcDbEntity
  8
0
 62
1
100
AcDbSpline
 70
8
 71
3
 72
8
 73
4
 74
0
 40
0
 40
0
 40
0
 40
0
 40
1
 40
1
 40
1
 40
1
 10
273.872885
 20
410.153678
 30
0.0
 10
273.072071
 20
410.153678
 30
0.0
 10
272.422883
 20
410.802865
 30
0.0
 10
272.422883
 20
411.603679
 30
0.0
  0
SPLINE
  5
1ff
100
AcDbEntity
  8
0
 62
1
100
AcDbSpline
 70
8
 71
3
 72
8
 73
4
 74
0
 40
0
 40
0
 40
0
 40
0
 40
1
 40
1
 40
1
 40
1
 10
272.422883
 20
411.603679
 30
0.0
 10
272.422883
 20
412.404490
 30
0.0
 10
273.072071
 20
413.053678
 30
0.0
 10
273.872885
 20
413.053678
 30
0.0
  0
SPLINE
  5
200
100
AcDbEntity
  8
0
 62
1
100
AcDbSpline
 70
8
 71
3
 72
8
 73
4
 74
0
 40
0
 40
0
 40
0
 40
0
 40
1
 40
1
 40
1
 40
1
 10
273.872885
 20
413.053678
 30
0.0
 10
274.673696
 20
413.053678
 30
0.0
 10
275.322883
 20
412.404490
 30
0.0
 10
275.322883
 20
411.603679
 30
0.0
  0
LINE
  5
201
100
AcDbEntity
  8
0
 62
1
100
AcDbLine
 10
275.322883
 20
411.603679
 30
0.0
 11
275.322883
 21
411.603679
 31
0.0
  0
SPLINE
  5
202
100
AcDbEntity
  8
0
 62
1
100
AcDbSpline
 70
8
 71
3
 72
8
 73
4
 74
0
 40
0
 40
0
 40
0
 40
0
 40
1
 40
1
 40
1
 40
1
 10
389.332973
 20
507.623934
 30
0.0
 10
389.332973
 20
506.823120
 30
0.0
 10
388.683777
 20
506.173933
 30
0.0
 10
387.882972
 20
506.173933
 30
0.0
  0
SPLINE
  5
203
100
AcDbEntity
  8
0
 62
1
100
AcDbSpline
 70
8
 71
3
 72
8
 73
4
 74
0
 40
0
 40
0
 40
0
 40
0
 40
1
 40
1
 40
1
 40
1
 10
387.882972
 20
506.173933
 30
0.0
 10
387.082138
 20
506.173933
 30
0.0
 10
386.432971
 20
506.823120
 30
0.0
 10
386.432971
 20
507.623934
 30
0.0
  0
SPLINE
  5
204
100
AcDbEntity
  8
0
 62
1
100
AcDbSpline
 70
8
 71
3
 72
8
 73
4
 74
0
 40
0
 40
0
 40
0
 40
0
 40
1
 40
1
 40
1
 40
1
 10
386.432971
 20
507.623934
 30
0.0
 10
386.432971
 20
508.424745
 30
0.0
 10
387.082138
 20
509.073933
 30
0.0
 10
387.882972
 20
509.073933
 30
0.0
  0
SPLINE
  5
205
100
AcDbEntity
  8
0
 62
1
100
AcDbSpline
 70
8
 71
3
 72
8
 73
4
 74
0
 40
0
 40
0
 40
0
 40
0
 40
1
 40
1
 40
1
 40
1
 10
387.882972
 20
509.073933
 30
0.0
 10
388.683777
 20
509.073933
 30
0.0
 10
389.332973
 20
508.424745
 30
0.0
 10
389.332973
 20
507.623934
 30
0.0
  0
LINE
  5
206
100
AcDbEntity
  8
0
 62
1
100
AcDbLine
 10
389.332973
 20
507.623934
 30
0.0
 11
389.332973
 21
507.623934
 31
0.0
  0
SPLINE
  5
207
100
AcDbEntity
  8
0
 62
1
100
AcDbSpline
 70
8
 71
3
 72
8
 73
4
 74
0
 40
0
 40
0
 40
0
 40
0
 40
1
 40
1
 40
1
 40
1
 10
337.046876
 20
589.869658
 30
0.0
 10
337.046876
 20
589.068845
 30
0.0
 10
336.397708
 20
588.419658
 30
0.0
 10
335.596874
 20
588.419658
 30
0.0
  0
SPLINE
  5
208
100
AcDbEntity
  8
0
 62
1
100
AcDbSpline
 70
8
 71
3
 72
8
 73
4
 74
0
 40
0
 40
0
 40
0
 40
0
 40
1
 40
1
 40
1
 40
1
 10
335.596874
 20
588.419658
 30
0.0
 10
334.796069
 20
588.419658
 30
0.0
 10
334.146873
 20
589.068845
 30
0.0
 10
334.146873
 20
589.869658
 30
0.0
  0
SPLINE
  5
209
100
AcDbEntity
  8
0
 62
1
100
AcDbSpline
 70
8
 71
3
 72
8
 73
4
 74
0
 40
0
 40
0
 40
0
 40
0
 40
1
 40
1
 40
1
 40
1
 10
334.146873
 20
589.869658
 30
0.0
 10
334.146873
 20
590.670471
 30
0.0
 10
334.796069
 20
591.319658
 30
0.0
 10
335.596874
 20
591.319658
 30
0.0
  0
SPLINE
  5
20a
100
AcDbEntity
  8
0
 62
1
100
AcDbSpline
 70
8
 71
3
 72
8
 73
4
 74
0
 40
0
 40
0
 40
0
 40
0
 40
1
 40
1
 40
1
 40
1
 10
335.596874
 20
591.319658
 30
0.0
 10
336.397708
 20
591.319658
 30
0.0
 10
337.046876
 20
590.670471
 30
0.0
 10
337.046876
 20
589.869658
 30
0.0
  0
LINE
  5
20b
100
AcDbEntity
  8
0
 62
1
100
AcDbLine
 10
337.046876
 20
589.869658
 30
0.0
 11
337.046876
 21
589.869658
 31
0.0
  0
SPLINE
  5
20c
100
AcDbEntity
  8
0
 62
1
100
AcDbSpline
 70
8
 71
3
 72
8
 73
4
 74
0
 40
0
 40
0
 40
0
 40
0
 40
1
 40
1
 40
1
 40
1
 10
244.144287
 20
589.869658
 30
0.0
 10
244.144287
 20
589.068845
 30
0.0
 10
243.495100
 20
588.419658
 30
0.0
 10
242.694289
 20
588.419658
 30
0.0
  0
SPLINE
  5
20d
100
AcDbEntity
  8
0
 62
1
100
AcDbSpline
 70
8
 71
3
 72
8
 73
4
 74
0
 40
0
 40
0
 40
0
 40
0
 40
1
 40
1
 40
1
 40
1
 10
242.694289
 20
588.419658
 30
0.0
 10
241.893475
 20
588.419658
 30
0.0
 10
241.244287
 20
589.068845
 30
0.0
 10
241.244287
 20
589.869658
 30
0.0
  0
SPLINE
  5
20e
100
AcDbEntity
  8
0
 62
1
100
AcDbSpline
 70
8
 71
3
 72
8
 73
4
 74
0
 40
0
 40
0
 40
0
 40
0
 40
1
 40
1
 40
1
 40
1
 10
241.244287
 20
589.869658
 30
0.0
 10
241.244287
 20
590.670471
 30
0.0
 10
241.893475
 20
591.319658
 30
0.0
 10
242.694289
 20
591.319658
 30
0.0
  0
SPLINE
  5
20f
100
AcDbEntity
  8
0
 62
1
100
AcDbSpline
 70
8
 71
3
 72
8
 73
4
 74
0
 40
0
 40
0
 40
0
 40
0
 40
1
 40
1
 40
1
 40
1
 10
242.694289
 20
591.319658
 30
0.0
 10
243.495100
 20
591.319658
 30
0.0
 10
244.144287
 20
590.670471
 30
0.0
 10
244.144287
 20
589.869658
 30
0.0
  0
LINE
  5
210
100
AcDbEntity
  8
0
 62
1
100
AcDbLine
 10
244.144287
 20
589.869658
 30
0.0
 11
244.144287
 21
589.869658
 31
0.0
  0
SPLINE
  5
211
100
AcDbEntity
  8
0
 62
1
100
AcDbSpline
 70
8
 71
3
 72
8
 73
4
 74
0
 40
0
 40
0
 40
0
 40
0
 40
1
 40
1
 40
1
 40
1
 10
209.721894
 20
455.628113
 30
0.0
 10
209.721894
 20
454.827302
 30
0.0
 10
209.072707
 20
454.178115
 30
0.0
 10
208.271893
 20
454.178115
 30
0.0
  0
SPLINE
  5
212
100
AcDbEntity
  8
0
 62
1
100
AcDbSpline
 70
8
 71
3
 72
8
 73
4
 74
0
 40
0
 40
0
 40
0
 40
0
 40
1
 40
1
 40
1
 40
1
 10
208.271893
 20
454.178115
 30
0.0
 10
207.471079
 20
454.178115
 30
0.0
 10
206.821894
 20
454.827302
 30
0.0
 10
206.821894
 20
455.628113
 30
0.0
  0
SPLINE
  5
213
100
AcDbEntity
  8
0
 62
1
100
AcDbSpline
 70
8
 71
3
 72
8
 73
4
 74
0
 40
0
 40
0
 40
0
 40
0
 40
1
 40
1
 40
1
 40
1
 10
206.821894
 20
455.628113
 30
0.0
 10
206.821894
 20
456.428927
 30
0.0
 10
207.471079
 20
457.078115
 30
0.0
 10
208.271893
 20
457.078115
 30
0.0
  0
SPLINE
  5
214
100
AcDbEntity
  8
0
 62
1
100
AcDbSpline
 70
8
 71
3
 72
8
 73
4
 74
0
 40
0
 40
0
 40
0
 40
0
 40
1
 40
1
 40
1
 40
1
 10
208.271893
 20
457.078115
 30
0.0
 10
209.072707
 20
457.078115
 30
0.0
 10
209.721894
 20
456.428927
 30
0.0
 10
209.721894
 20
455.628113
 30
0.0
  0
LINE
  5
215
100
AcDbEntity
  8
0
 62
1
100
AcDbLine
 10
209.721894
 20
455.628113
 30
0.0
 11
209.721894
 21
455.628113
 31
0.0
  0
SPLINE
  5
216
100
AcDbEntity
  8
0
 62
1
100
AcDbSpline
 70
8
 71
3
 72
8
 73
4
 74
0
 40
0
 40
0
 40
0
 40
0
 40
1
 40
1
 40
1
 40
1
 10
182.556196
 20
545.869657
 30
0.0
 10
182.556196
 20
544.212801
 30
0.0
 10
181.213050
 20
542.869657
 30
0.0
 10
179.556196
 20
542.869657
 30
0.0
  0
SPLINE
  5
217
100
AcDbEntity
  8
0
 62
1
100
AcDbSpline
 70
8
 71
3
 72
8
 73
4
 74
0
 40
0
 40
0
 40
0
 40
0
 40
1
 40
1
 40
1
 40
1
 10
179.556196
 20
542.869657
 30
0.0
 10
177.899340
 20
542.869657
 30
0.0
 10
176.556194
 20
544.212801
 30
0.0
 10
176.556194
 20
545.869657
 30
0.0
  0
SPLINE
  5
218
100
AcDbEntity
  8
0
 62
1
100
AcDbSpline
 70
8
 71
3
 72
8
 73
4
 74
0
 40
0
 40
0
 40
0
 40
0
 40
1
 40
1
 40
1
 40
1
 10
176.556194
 20
545.869657
 30
0.0
 10
176.556194
 20
547.526510
 30
0.0
 10
177.899340
 20
548.869656
 30
0.0
 10
179.556196
 20
548.869656
 30
0.0
  0
SPLINE
  5
219
100
AcDbEntity
  8
0
 62
1
100
AcDbSpline
 70
8
 71
3
 72
8
 73
4
 74
0
 40
0
 40
0
 40
0
 40
0
 40
1
 40
1
 40
1
 40
1
 10
179.556196
 20
548.869656
 30
0.0
 10
181.213050
 20
548.869656
 30
0.0
 10
182.556196
 20
547.526510
 30
0.0
 10
182.556196
 20
545.869657
 30
0.0
  0
LINE
  5
21a
100
AcDbEntity
  8
0
 62
1
100
AcDbLine
 10
182.556196
 20
545.869657
 30
0.0
 11
182.556196
 21
545.869657
 31
0.0
  0
SPLINE
  5
21b
100
AcDbEntity
  8
0
 62
1
100
AcDbSpline
 70
8
 71
3
 72
8
 73
4
 74
0
 40
0
 40
0
 40
0
 40
0
 40
1
 40
1
 40
1
 40
1
 10
222.556184
 20
545.869657
 30
0.0
 10
222.556184
 20
544.212801
 30
0.0
 10
221.213037
 20
542.869657
 30
0.0
 10
219.556181
 20
542.869657
 30
0.0
  0
SPLINE
  5
21c
100
AcDbEntity
  8
0
 62
1
100
AcDbSpline
 70
8
 71
3
 72
8
 73
4
 74
0
 40
0
 40
0
 40
0
 40
0
 40
1
 40
1
 40
1
 40
1
 10
219.556181
 20
542.869657
 30
0.0
 10
217.899328
 20
542.869657
 30
0.0
 10
216.556182
 20
544.212801
 30
0.0
 10
216.556182
 20
545.869657
 30
0.0
  0
SPLINE
  5
21d
100
AcDbEntity
  8
0
 62
1
100
AcDbSpline
 70
8
 71
3
 72
8
 73
4
 74
0
 40
0
 40
0
 40
0
 40
0
 40
1
 40
1
 40
1
 40
1
 10
216.556182
 20
545.869657
 30
0.0
 10
216.556182
 20
547.526510
 30
0.0
 10
217.899328
 20
548.869656
 30
0.0
 10
219.556181
 20
548.869656
 30
0.0
  0
SPLINE
  5
21e
100
AcDbEntity
  8
0
 62
1
100
AcDbSpline
 70
8
 71
3
 72
8
 73
4
 74
0
 40
0
 40
0
 40
0
 40
0
 40
1
 40
1
 40
1
 40
1
 10
219.556181
 20
548.869656
 30
0.0
 10
221.213037
 20
548.869656
 30
0.0
 10
222.556184
 20
547.526510
 30
0.0
 10
222.556184
 20
545.869657
 30
0.0
  0
LINE
  5
21f
100
AcDbEntity
  8
0
 62
1
100
AcDbLine
 10
222.556184
 20
545.869657
 30
0.0
 11
222.556184
 21
545.869657
 31
0.0
  0
SPLINE
  5
220
100
AcDbEntity
  8
0
 62
1
100
AcDbSpline
 70
8
 71
3
 72
8
 73
4
 74
0
 40
0
 40
0
 40
0
 40
0
 40
1
 40
1
 40
1
 40
1
 10
182.556196
 20
585.869657
 30
0.0
 10
182.556196
 20
584.212803
 30
0.0
 10
181.213050
 20
582.869658
 30
0.0
 10
179.556196
 20
582.869658
 30
0.0
  0
SPLINE
  5
221
100
AcDbEntity
  8
0
 62
1
100
AcDbSpline
 70
8
 71
3
 72
8
 73
4
 74
0
 40
0
 40
0
 40
0
 40
0
 40
1
 40
1
 40
1
 40
1
 10
179.556196
 20
582.869658
 30
0.0
 10
177.899340
 20
582.869658
 30
0.0
 10
176.556194
 20
584.212803
 30
0.0
 10
176.556194
 20
585.869657
 30
0.0
  0
SPLINE
  5
222
100
AcDbEntity
  8
0
 62
1
100
AcDbSpline
 70
8
 71
3
 72
8
 73
4
 74
0
 40
0
 40
0
 40
0
 40
0
 40
1
 40
1
 40
1
 40
1
 10
176.556194
 20
585.869657
 30
0.0
 10
176.556194
 20
587.526512
 30
0.0
 10
177.899340
 20
588.869657
 30
0.0
 10
179.556196
 20
588.869657
 30
0.0
  0
SPLINE
  5
223
100
AcDbEntity
  8
0
 62
1
100
AcDbSpline
 70
8
 71
3
 72
8
 73
4
 74
0
 40
0
 40
0
 40
0
 40
0
 40
1
 40
1
 40
1
 40
1
 10
179.556196
 20
588.869657
 30
0.0
 10
181.213050
 20
588.869657
 30
0.0
 10
182.556196
 20
587.526512
 30
0.0
 10
182.556196
 20
585.869657
 30
0.0
  0
LINE
  5
224
100
AcDbEntity
  8
0
 62
1
100
AcDbLine
 10
182.556196
 20
585.869657
 30
0.0
 11
182.556196
 21
585.869657
 31
0.0
  0
SPLINE
  5
225
100
AcDbEntity
  8
0
 62
1
100
AcDbSpline
 70
8
 71
3
 72
8
 73
4
 74
0
 40
0
 40
0
 40
0
 40
0
 40
1
 40
1
 40
1
 40
1
 10
222.556184
 20
585.869657
 30
0.0
 10
222.556184
 20
584.212803
 30
0.0
 10
221.213037
 20
582.869658
 30
0.0
 10
219.556181
 20
582.869658
 30
0.0
  0
SPLINE
  5
226
100
AcDbEntity
  8
0
 62
1
100
AcDbSpline
 70
8
 71
3
 72
8
 73
4
 74
0
 40
0
 40
0
 40
0
 40
0
 40
1
 40
1
 40
1
 40
1
 10
219.556181
 20
582.869658
 30
0.0
 10
217.899328
 20
582.869658
 30
0.0
 10
216.556182
 20
584.212803
 30
0.0
 10
216.556182
 20
585.869657
 30
0.0
  0
SPLINE
  5
227
100
AcDbEntity
  8
0
 62
1
100
AcDbSpline
 70
8
 71
3
 72
8
 73
4
 74
0
 40
0
 40
0
 40
0
 40
0
 40
1
 40
1
 40
1
 40
1
 10
216.556182
 20
585.869657
 30
0.0
 10
216.556182
 20
587.526512
 30
0.0
 10
217.899328
 20
588.869657
 30
0.0
 10
219.556181
 20
588.869657
 30
0.0
  0
SPLINE
  5
228
100
AcDbEntity
  8
0
 62
1
100
AcDbSpline
 70
8
 71
3
 72
8
 73
4
 74
0
 40
0
 40
0
 40
0
 40
0
 40
1
 40
1
 40
1
 40
1
 10
219.556181
 20
588.869657
 30
0.0
 10
221.213037
 20
588.869657
 30
0.0
 10
222.556184
 20
587.526512
 30
0.0
 10
222.556184
 20
585.869657
 30
0.0
  0
LINE
  5
229
100
AcDbEntity
  8
0
 62
1
100
AcDbLine
 10
222.556184
 20
585.869657
 30
0.0
 11
222.556184
 21
585.869657
 31
0.0
  0
LINE
  5
22a
100
AcDbEntity
  8
0
 62
1
100
AcDbLine
 10
28.626470
 20
591.869658
 30
0.0
 11
11.530189
 21
517.817533
 31
0.0
  0
LINE
  5
22b
100
AcDbEntity
  8
0
 62
1
100
AcDbLine
 10
11.530189
 20
517.817533
 30
0.0
 11
20.786704
 21
515.680498
 31
0.0
  0
LINE
  5
22c
100
AcDbEntity
  8
0
 62
1
100
AcDbLine
 10
20.786704
 20
515.680498
 30
0.0
 11
16.512634
 21
497.167465
 31
0.0
  0
LINE
  5
22d
100
AcDbEntity
  8
0
 62
1
100
AcDbLine
 10
16.512634
 20
497.167465
 30
0.0
 11
53.538697
 21
488.619327
 31
0.0
  0
LINE
  5
22e
100
AcDbEntity
  8
0
 62
1
100
AcDbLine
 10
53.538697
 20
488.619327
 30
0.0
 11
54.213549
 21
491.542438
 31
0.0
  0
LINE
  5
22f
100
AcDbEntity
  8
0
 62
1
100
AcDbLine
 10
54.213549
 20
491.542438
 30
0.0
 11
72.726582
 21
487.268366
 31
0.0
  0
LINE
  5
230
100
AcDbEntity
  8
0
 62
1
100
AcDbLine
 10
72.726582
 20
487.268366
 30
0.0
 11
73.064007
 21
488.729921
 31
0.0
  0
LINE
  5
231
100
AcDbEntity
  8
0
 62
1
100
AcDbLine
 10
73.064007
 20
488.729921
 30
0.0
 11
91.577040
 21
484.455852
 31
0.0
  0
LINE
  5
232
100
AcDbEntity
  8
0
 62
1
100
AcDbLine
 10
91.577040
 20
484.455852
 30
0.0
 11
91.239612
 21
482.994296
 31
0.0
  0
LINE
  5
233
100
AcDbEntity
  8
0
 62
1
100
AcDbLine
 10
91.239612
 20
482.994296
 30
0.0
 11
109.752645
 21
478.720227
 31
0.0
  0
LINE
  5
234
100
AcDbEntity
  8
0
 62
1
100
AcDbLine
 10
109.752645
 20
478.720227
 30
0.0
 11
113.689286
 21
495.771701
 31
0.0
  0
LINE
  5
235
100
AcDbEntity
  8
0
 62
1
100
AcDbLine
 10
113.689286
 20
495.771701
 30
0.0
 11
132.202319
 21
491.497632
 31
0.0
  0
LINE
  5
236
100
AcDbEntity
  8
0
 62
1
100
AcDbLine
 10
132.202319
 20
491.497632
 30
0.0
 11
150.715349
 21
487.223563
 31
0.0
  0
LINE
  5
237
100
AcDbEntity
  8
0
 62
1
100
AcDbLine
 10
150.715349
 20
487.223563
 30
0.0
 11
157.126455
 21
514.993109
 31
0.0
  0
LINE
  5
238
100
AcDbEntity
  8
0
 62
1
100
AcDbLine
 10
157.126455
 20
514.993109
 30
0.0
 11
167.811629
 21
561.275688
 31
0.0
  0
LINE
  5
239
100
AcDbEntity
  8
0
 62
1
100
AcDbLine
 10
167.811629
 20
561.275688
 30
0.0
 11
130.785566
 21
569.823828
 31
0.0
  0
LINE
  5
23a
100
AcDbEntity
  8
0
 62
1
100
AcDbLine
 10
130.785566
 20
569.823828
 30
0.0
 11
131.122994
 21
571.285383
 31
0.0
  0
LINE
  5
23b
100
AcDbEntity
  8
0
 62
1
100
AcDbLine
 10
131.122994
 20
571.285383
 30
0.0
 11
112.609964
 21
575.559453
 31
0.0
  0
LINE
  5
23c
100
AcDbEntity
  8
0
 62
1
100
AcDbLine
 10
112.609964
 20
575.559453
 30
0.0
 11
112.947389
 21
577.021008
 31
0.0
  0
LINE
  5
23d
100
AcDbEntity
  8
0
 62
1
100
AcDbLine
 10
112.947389
 20
577.021008
 30
0.0
 11
94.434359
 21
581.295078
 31
0.0
  0
LINE
  5
23e
100
AcDbEntity
  8
0
 62
1
100
AcDbLine
 10
94.434359
 20
581.295078
 30
0.0
 11
94.096931
 21
579.833523
 31
0.0
  0
LINE
  5
23f
100
AcDbEntity
  8
0
 62
1
100
AcDbLine
 10
94.096931
 20
579.833523
 30
0.0
 11
75.583901
 21
584.107593
 31
0.0
  0
LINE
  5
240
100
AcDbEntity
  8
0
 62
1
100
AcDbLine
 10
75.583901
 20
584.107593
 30
0.0
 11
74.909046
 21
581.184483
 31
0.0
  0
LINE
  5
241
100
AcDbEntity
  8
0
 62
1
100
AcDbLine
 10
74.909046
 20
581.184483
 30
0.0
 11
28.626470
 21
591.869658
 31
0.0
  0
LINE
  5
242
100
AcDbEntity
  8
0
 62
1
100
AcDbLine
 10
370.485919
 20
591.869658
 30
0.0
 11
387.582179
 21
517.817533
 31
0.0
  0
LINE
  5
243
100
AcDbEntity
  8
0
 62
1
100
AcDbLine
 10
387.582179
 20
517.817533
 30
0.0
 11
378.325657
 21
515.680498
 31
0.0
  0
LINE
  5
244
100
AcDbEntity
  8
0
 62
1
100
AcDbLine
 10
378.325657
 20
515.680498
 30
0.0
 11
382.599744
 21
497.167465
 31
0.0
  0
LINE
  5
245
100
AcDbEntity
  8
0
 62
1
100
AcDbLine
 10
382.599744
 20
497.167465
 30
0.0
 11
345.573684
 21
488.619327
 31
0.0
  0
LINE
  5
246
100
AcDbEntity
  8
0
 62
1
100
AcDbLine
 10
345.573684
 20
488.619327
 30
0.0
 11
344.898834
 21
491.542438
 31
0.0
  0
LINE
  5
247
100
AcDbEntity
  8
0
 62
1
100
AcDbLine
 10
344.898834
 20
491.542438
 30
0.0
 11
326.385790
 21
487.268366
 31
0.0
  0
LINE
  5
248
100
AcDbEntity
  8
0
 62
1
100
AcDbLine
 10
326.385790
 20
487.268366
 30
0.0
 11
326.048365
 21
488.729921
 31
0.0
  0
LINE
  5
249
100
AcDbEntity
  8
0
 62
1
100
AcDbLine
 10
326.048365
 20
488.729921
 30
0.0
 11
307.535349
 21
484.455852
 31
0.0
  0
LINE
  5
24a
100
AcDbEntity
  8
0
 62
1
100
AcDbLine
 10
307.535349
 20
484.455852
 30
0.0
 11
307.872774
 21
482.994296
 31
0.0
  0
LINE
  5
24b
100
AcDbEntity
  8
0
 62
1
100
AcDbLine
 10
307.872774
 20
482.994296
 30
0.0
 11
289.359730
 21
478.720227
 31
0.0
  0
LINE
  5
24c
100
AcDbEntity
  8
0
 62
1
100
AcDbLine
 10
289.359730
 20
478.720227
 30
0.0
 11
285.423097
 21
495.771701
 31
0.0
  0
LINE
  5
24d
100
AcDbEntity
  8
0
 62
1
100
AcDbLine
 10
285.423097
 20
495.771701
 30
0.0
 11
266.910056
 21
491.497632
 31
0.0
  0
LINE
  5
24e
100
AcDbEntity
  8
0
 62
1
100
AcDbLine
 10
266.910056
 20
491.497632
 30
0.0
 11
248.397026
 21
487.223563
 31
0.0
  0
LINE
  5
24f
100
AcDbEntity
  8
0
 62
1
100
AcDbLine
 10
248.397026
 20
487.223563
 30
0.0
 11
241.985919
 21
514.993109
 31
0.0
  0
LINE
  5
250
100
AcDbEntity
  8
0
 62
1
100
AcDbLine
 10
241.985919
 20
514.993109
 30
0.0
 11
231.300746
 21
561.275688
 31
0.0
  0
LINE
  5
251
100
AcDbEntity
  8
0
 62
1
100
AcDbLine
 10
231.300746
 20
561.275688
 30
0.0
 11
268.326809
 21
569.823828
 31
0.0
  0
LINE
  5
252
100
AcDbEntity
  8
0
 62
1
100
AcDbLine
 10
268.326809
 20
569.823828
 30
0.0
 11
267.989381
 21
571.285383
 31
0.0
  0
LINE
  5
253
100
AcDbEntity
  8
0
 62
1
100
AcDbLine
 10
267.989381
 20
571.285383
 30
0.0
 11
286.502400
 21
575.559453
 31
0.0
  0
LINE
  5
254
100
AcDbEntity
  8
0
 62
1
100
AcDbLine
 10
286.502400
 20
575.559453
 30
0.0
 11
286.164975
 21
577.021008
 31
0.0
  0
LINE
  5
255
100
AcDbEntity
  8
0
 62
1
100
AcDbLine
 10
286.164975
 20
577.021008
 30
0.0
 11
304.678019
 21
581.295078
 31
0.0
  0
LINE
  5
256
100
AcDbEntity
  8
0
 62
1
100
AcDbLine
 10
304.678019
 20
581.295078
 30
0.0
 11
305.015444
 21
579.833523
 31
0.0
  0
LINE
  5
257
100
AcDbEntity
  8
0
 62
1
100
AcDbLine
 10
305.015444
 20
579.833523
 30
0.0
 11
323.528488
 21
584.107593
 31
0.0
  0
LINE
  5
258
100
AcDbEntity
  8
0
 62
1
100
AcDbLine
 10
323.528488
 20
584.107593
 30
0.0
 11
324.203337
 21
581.184483
 31
0.0
  0
LINE
  5
259
100
AcDbEntity
  8
0
 62
1
100
AcDbLine
 10
324.203337
 20
581.184483
 30
0.0
 11
370.485919
 21
591.869658
 31
0.0
  0
LINE
  5
25a
100
AcDbEntity
  8
0
 62
1
100
AcDbLine
 10
109.193853
 20
459.139090
 30
0.0
 11
154.110465
 21
424.046386
 31
0.0
  0
LINE
  5
25b
100
AcDbEntity
  8
0
 62
1
100
AcDbLine
 10
154.110465
 20
424.046386
 30
0.0
 11
189.203170
 21
468.962998
 31
0.0
  0
LINE
  5
25c
100
AcDbEntity
  8
0
 62
1
100
AcDbLine
 10
189.203170
 20
468.962998
 30
0.0
 11
159.258763
 21
492.358133
 31
0.0
  0
LINE
  5
25d
100
AcDbEntity
  8
0
 62
1
100
AcDbLine
 10
159.258763
 20
492.358133
 30
0.0
 11
147.561194
 21
477.385931
 31
0.0
  0
LINE
  5
25e
100
AcDbEntity
  8
0
 62
1
100
AcDbLine
 10
147.561194
 20
477.385931
 30
0.0
 11
132.588989
 21
489.083498
 31
0.0
  0
LINE
  5
25f
100
AcDbEntity
  8
0
 62
1
100
AcDbLine
 10
132.588989
 20
489.083498
 30
0.0
 11
109.193853
 21
459.139090
 31
0.0
  0
LINE
  5
260
100
AcDbEntity
  8
0
 62
1
100
AcDbLine
 10
289.918530
 20
459.139090
 30
0.0
 11
245.001910
 21
424.046386
 31
0.0
  0
LINE
  5
261
100
AcDbEntity
  8
0
 62
1
100
AcDbLine
 10
245.001910
 20
424.046386
 30
0.0
 11
209.909205
 21
468.962998
 31
0.0
  0
LINE
  5
262
100
AcDbEntity
  8
0
 62
1
100
AcDbLine
 10
209.909205
 20
468.962998
 30
0.0
 11
239.853612
 21
492.358133
 31
0.0
  0
LINE
  5
263
100
AcDbEntity
  8
0
 62
1
100
AcDbLine
 10
239.853612
 20
492.358133
 30
0.0
 11
251.551181
 21
477.385931
 31
0.0
  0
LINE
  5
264
100
AcDbEntity
  8
0
 62
1
100
AcDbLine
 10
251.551181
 20
477.385931
 30
0.0
 11
266.523386
 21
489.083498
 31
0.0
  0
LINE
  5
265
100
AcDbEntity
  8
0
 62
1
100
AcDbLine
 10
266.523386
 20
489.083498
 30
0.0
 11
289.918530
 21
459.139090
 31
0.0
  0
LINE
  5
266
100
AcDbEntity
  8
0
 62
1
100
AcDbLine
 10
5.533583
 20
514.070437
 30
0.0
 11
23.754619
 21
592.994413
 31
0.0
  0
SPLINE
  5
267
100
AcDbEntity
  8
0
 62
1
100
AcDbSpline
 70
8
 71
3
 72
8
 73
4
 74
0
 40
0
 40
0
 40
0
 40
0
 40
1
 40
1
 40
1
 40
1
 10
28.626469
 20
596.869658
 30
0.0
 10
26.298365
 20
596.869658
 30
0.0
 10
24.278328
 20
595.262848
 30
0.0
 10
23.754618
 20
592.994413
 30
0.0
  0
LINE
  5
268
100
AcDbEntity
  8
0
 62
1
100
AcDbLine
 10
28.626470
 20
596.869658
 30
0.0
 11
370.485919
 21
596.869658
 31
0.0
  0
SPLINE
  5
269
100
AcDbEntity
  8
0
 62
1
100
AcDbSpline
 70
8
 71
3
 72
8
 73
4
 74
0
 40
0
 40
0
 40
0
 40
0
 40
1
 40
1
 40
1
 40
1
 10
375.357757
 20
592.994413
 30
0.0
 10
374.834049
 20
595.262842
 30
0.0
 10
372.814022
 20
596.869650
 30
0.0
 10
370.485924
 20
596.869658
 30
0.0
  0
LINE
  5
26a
100
AcDbEntity
  8
0
 62
1
100
AcDbLine
 10
375.357752
 20
592.994413
 30
0.0
 11
393.578781
 21
514.070437
 31
0.0
  0
SPLINE
  5
26b
100
AcDbEntity
  8
0
 62
1
100
AcDbSpline
 70
8
 71
3
 72
8
 73
4
 74
0
 40
0
 40
0
 40
0
 40
0
 40
1
 40
1
 40
1
 40
1
 10
235.703212
 20
428.922231
 30
0.0
 10
264.631595
 20
398.628500
 30
0.0
 10
310.241988
 20
391.412253
 30
0.0
 10
347.109220
 20
411.296132
 30
0.0
  0
SPLINE
  5
26c
100
AcDbEntity
  8
0
 62
1
100
AcDbSpline
 70
8
 71
3
 72
8
 73
4
 74
0
 40
0
 40
0
 40
0
 40
0
 40
1
 40
1
 40
1
 40
1
 10
347.109220
 20
411.296132
 30
0.0
 10
383.976453
 20
431.180010
 30
0.0
 10
403.001415
 20
473.256523
 30
0.0
 10
393.578786
 20
514.070436
 30
0.0
  0
SPLINE
  5
26d
100
AcDbEntity
  8
0
 62
1
100
AcDbSpline
 70
8
 71
3
 72
8
 73
4
 74
0
 40
0
 40
0
 40
0
 40
0
 40
1
 40
1
 40
1
 40
1
 10
235.703212
 20
428.922231
 30
0.0
 10
226.272472
 20
438.798080
 30
0.0
 10
213.211634
 20
444.385268
 30
0.0
 10
199.556187
 20
444.385268
 30
0.0
  0
SPLINE
  5
26e
100
AcDbEntity
  8
0
 62
1
100
AcDbSpline
 70
8
 71
3
 72
8
 73
4
 74
0
 40
0
 40
0
 40
0
 40
0
 40
1
 40
1
 40
1
 40
1
 10
199.556187
 20
444.385268
 30
0.0
 10
185.900739
 20
444.385268
 30
0.0
 10
172.839901
 20
438.798080
 30
0.0
 10
163.409162
 20
428.922231
 30
0.0
  0
SPLINE
  5
26f
100
AcDbEntity
  8
0
 62
1
100
AcDbSpline
 70
8
 71
3
 72
8
 73
4
 74
0
 40
0
 40
0
 40
0
 40
0
 40
1
 40
1
 40
1
 40
1
 10
5.533583
 20
514.070436
 30
0.0
 10
-3.889050
 20
473.256521
 30
0.0
 10
15.135913
 20
431.180005
 30
0.0
 10
52.003148
 20
411.296125
 30
0.0
  0
SPLINE
  5
270
100
AcDbEntity
  8
0
 62
1
100
AcDbSpline
 70
8
 71
3
 72
8
 73
4
 74
0
 40
0
 40
0
 40
0
 40
0
 40
1
 40
1
 40
1
 40
1
 10
52.003148
 20
411.296125
 30
0.0
 10
88.870383
 20
391.412246
 30
0.0
 10
134.480779
 20
398.628496
 30
0.0
 10
163.409162
 20
428.922231
 30
0.0
  0
ENDSEC
  0
SECTION
  2
OBJECTS
  0
DICTIONARY
  5
C
330
0
100
AcDbDictionary
  3
ACAD_GROUP
350
D
  3
ACAD_MLINESTYLE
350
17
  0
DICTIONARY
  5
D
330
C
100
AcDbDictionary
  0
DICTIONARY
  5
1A
330
C
100
AcDbDictionary
  0
DICTIONARY
  5
17
330
C
100
AcDbDictionary
  3
STANDARD
350
18
  0
DICTIONARY
  5
19
330
C
100
AcDbDictionary
  0
ENDSEC
  0
EOF
