  0
SECTION
  2
HEADER
  9
$ACADVER
  1
AC1009
  9
$EXTMIN
 10
0.0
 20
0.0
 30
0.0
  9
$EXTMAX
 10
100.0
 20
100.0
 30
0.0
  9
$INSBASE
 10
0.0
 20
0.0
 30
0.0
  0
ENDSEC
  0
SECTION
  2
TABLES
  0
TABLE
  2
LTYPE
 70
19
  0
LTYPE
  2
PHANTOM
 70
0
  3
Phantom ______  __  __  ______  __  __  ______
 72
65
 73
6
 40
2.5
 49
1.25
 49
-0.25
 49
0.25
 49
-0.25
 49
0.25
 49
-0.25
  0
LTYPE
  2
DOT2
 70
0
  3
Dot (.5) . . . . . . . . . . . . . . . . . . . 
 72
65
 73
2
 40
0.1
 49
0.0
 49
-0.1
  0
LTYPE
  2
DIVIDE
 70
0
  3
Divide __ . . __ . . __ . . __ . . __ . . __
 72
65
 73
6
 40
1.6
 49
1.0
 49
-0.2
 49
0.0
 49
-0.2
 49
0.0
 49
-0.2
  0
LTYPE
  2
DIVIDEX2
 70
0
  3
Divide (2x) ____  . .  ____  . .  ____  . .  ____
 72
65
 73
6
 40
2.6
 49
2.0
 49
-0.2
 49
0.0
 49
-0.2
 49
0.0
 49
-0.2
  0
LTYPE
  2
CENTER
 70
0
  3
Center ____ _ ____ _ ____ _ ____ _ ____ _ ____
 72
65
 73
4
 40
2.0
 49
1.25
 49
-0.25
 49
0.25
 49
-0.25
  0
LTYPE
  2
DASHDOT
 70
0
  3
Dash dot __ . __ . __ . __ . __ . __ . __ . __
 72
65
 73
4
 40
1.4
 49
1.0
 49
-0.2
 49
0.0
 49
-0.2
  0
LTYPE
  2
CENTERX2
 70
0
  3
Center (2x) ________  __  ________  __  ________
 72
65
 73
4
 40
3.5
 49
2.5
 49
-0.25
 49
0.5
 49
-0.25
  0
LTYPE
  2
PHANTOMX2
 70
0
  3
Phantom (2x)____________    ____    ____    ____________
 72
65
 73
6
 40
4.25
 49
2.5
 49
-0.25
 49
0.5
 49
-0.25
 49
0.5
 49
-0.25
  0
LTYPE
  2
CONTINUOUS
 70
0
  3
Solid
 72
65
 73
0
 40
0.0
  0
LTYPE
  2
PHANTOM2
 70
0
  3
Phantom (.5x) ___ _ _ ___ _ _ ___ _ _ ___ _ _ ___
 72
65
 73
6
 40
1.25
 49
0.625
 49
-0.125
 49
0.125
 49
-0.125
 49
0.125
 49
-0.125
  0
LTYPE
  2
DASHED
 70
0
  3
Dashed __ __ __ __ __ __ __ __ __ __ __ __ __ _
 72
65
 73
2
 40
0.6
 49
0.5
 49
-0.1
  0
LTYPE
  2
DASHED2
 70
0
  3
Dashed (.5x) _ _ _ _ _ _ _ _ _ _ _ _ _ _
 72
65
 73
2
 40
0.3
 49
0.25
 49
-0.05
  0
LTYPE
  2
DASHDOT2
 70
0
  3
Dash dot (.5x) _ . _ . _ . _ . _ . _ . _ . _
 72
65
 73
4
 40
0.7
 49
0.5
 49
-0.1
 49
0.0
 49
-0.1
  0
LTYPE
  2
DOTX2
 70
0
  3
Dot (2x) .    .    .    .    .    .    .    . 
 72
65
 73
2
 40
0.4
 49
0.0
 49
-0.4
  0
LTYPE
  2
DIVIDE2
 70
0
  3
Divide(.5x) _ . _ . _ . _ . _ . _ . _ . _
 72
65
 73
6
 40
0.8
 49
0.5
 49
-0.1
 49
0.0
 49
-0.1
 49
0.0
 49
-0.1
  0
LTYPE
  2
CENTER2
 70
0
  3
Center (.5x) ____ _ ____ _ ____ _ ____ _ ____
 72
65
 73
4
 40
1.0
 49
0.625
 49
-0.125
 49
0.125
 49
-0.125
  0
LTYPE
  2
DASHDOTX2
 70
0
  3
Dash dot (2x) ____  .  ____  .  ____  .  ____
 72
65
 73
4
 40
2.4
 49
2.0
 49
-0.2
 49
0.0
 49
-0.2
  0
LTYPE
  2
DOT
 70
0
  3
Dot .  .  .  .  .  .  .  .  .  .  .  .  .  .  .  .
 72
65
 73
2
 40
0.2
 49
0.0
 49
-0.2
  0
LTYPE
  2
DASHEDX2
 70
0
  3
Dashed (2x) ____  ____  ____  ____  ____  ____
 72
65
 73
2
 40
1.2
 49
1.0
 49
-0.2
  0
ENDTAB
  0
TABLE
  2
LAYER
 70
5
  0
LAYER
  2
VIEWPORTS
 70
0
 62
7
  6
CONTINUOUS
  0
LAYER
  2
TABLEGRID
 70
0
 62
1
  6
CONTINUOUS
  0
LAYER
  2
TABLECONTENT
 70
0
 62
1
  6
CONTINUOUS
  0
LAYER
  2
DIMENSIONS
 70
0
 62
1
  6
CONTINUOUS
  0
LAYER
  2
TABLEBACKGROUND
 70
0
 62
1
  6
CONTINUOUS
  0
ENDTAB
  0
TABLE
  2
STYLE
 70
12
  0
STYLE
  2
TIMES
 70
0
 40
0.0
 41
1.0
 42
1.0
 50
0.0
 71
0
  3
times.ttf
  4

  0
STYLE
  2
ARIAL
 70
0
 40
0.0
 41
1.0
 42
1.0
 50
0.0
 71
0
  3
arial.ttf
  4

  0
STYLE
  2
TIMES_BOLD
 70
0
 40
0.0
 41
1.0
 42
1.0
 50
0.0
 71
0
  3
timesbd.ttf
  4

  0
STYLE
  2
ARIAL_BLACK
 70
0
 40
0.0
 41
1.0
 42
1.0
 50
0.0
 71
0
  3
ariblk.ttf
  4

  0
STYLE
  2
TIMES_ITALIC
 70
0
 40
0.0
 41
1.0
 42
1.0
 50
0.0
 71
0
  3
timesi.ttf
  4

  0
STYLE
  2
ISOCPEUR
 70
0
 40
0.0
 41
1.0
 42
1.0
 50
0.0
 71
0
  3
isocpeur.ttf
  4

  0
STYLE
  2
ARIAL_BOLD
 70
0
 40
0.0
 41
1.0
 42
1.0
 50
0.0
 71
0
  3
arialbd.ttf
  4

  0
STYLE
  2
ARIAL_ITALIC
 70
0
 40
0.0
 41
1.0
 42
1.0
 50
0.0
 71
0
  3
ariali.ttf
  4

  0
STYLE
  2
ARIAL_BOLD_ITALIC
 70
0
 40
0.0
 41
1.0
 42
1.0
 50
0.0
 71
0
  3
arialbi.ttf
  4

  0
STYLE
  2
TIMES_BOLD_ITALIC
 70
0
 40
0.0
 41
1.0
 42
1.0
 50
0.0
 71
0
  3
timesbi.ttf
  4

  0
STYLE
  2
ISOCPEUR_ITALIC
 70
0
 40
0.0
 41
1.0
 42
1.0
 50
0.0
 71
0
  3
isocpeui.ttf
  4

  0
STYLE
  2
STANDARD
 70
0
 40
0.0
 41
1.0
 42
1.0
 50
0.0
 71
0
  3
arial.ttf
  4

  0
ENDTAB
  0
TABLE
  2
VIEW
 70
0
  0
ENDTAB
  0
TABLE
  2
APPID
 70
1
  0
APPID
  2
DXFWRITE
 70
0
  0
ENDTAB
  0
TABLE
  2
VPORT
 70
0
  0
ENDTAB
  0
TABLE
  2
UCS
 70
0
  0
ENDTAB
  0
ENDSEC
  0
SECTION
  2
BLOCKS
  0
BLOCK
  8
0
  2
sh_7_4
  3
sh_7_4
 70
0
 10
0.0
 20
0.0
 30
0.0
  0
POLYLINE
  8
0
 66
1
 10
0.0
 20
0.0
 30
0.0
 70
8
  0
VERTEX
  8
0
 10
1.45
 20
1.075
 30
0.0
  0
VERTEX
  8
0
 10
-1.45
 20
1.075
 30
0.0
  0
VERTEX
  8
0
 10
-1.45
 20
-1.075
 30
0.0
  0
VERTEX
  8
0
 10
1.45
 20
-1.075
 30
0.0
  0
VERTEX
  8
0
 10
1.45
 20
1.075
 30
0.0
  0
SEQEND
  0
ENDBLK
  0
BLOCK
  8
0
  2
sh_7_5
  3
sh_7_5
 70
0
 10
0.0
 20
0.0
 30
0.0
  0
POLYLINE
  8
0
 66
1
 10
0.0
 20
0.0
 30
0.0
 70
8
  0
VERTEX
  8
0
 10
1.5
 20
1.075
 30
0.0
  0
VERTEX
  8
0
 10
-1.5
 20
1.075
 30
0.0
  0
VERTEX
  8
0
 10
-1.5
 20
-1.075
 30
0.0
  0
VERTEX
  8
0
 10
1.5
 20
-1.075
 30
0.0
  0
VERTEX
  8
0
 10
1.5
 20
1.075
 30
0.0
  0
SEQEND
  0
ENDBLK
  0
BLOCK
  8
0
  2
sh_7_0
  3
sh_7_0
 70
0
 10
0.0
 20
0.0
 30
0.0
  0
POLYLINE
  8
0
 66
1
 10
0.0
 20
0.0
 30
0.0
 70
8
  0
VERTEX
  8
0
 10
1.35
 20
1.075
 30
0.0
  0
VERTEX
  8
0
 10
-1.35
 20
1.075
 30
0.0
  0
VERTEX
  8
0
 10
-1.35
 20
-1.075
 30
0.0
  0
VERTEX
  8
0
 10
1.35
 20
-1.075
 30
0.0
  0
VERTEX
  8
0
 10
1.35
 20
1.075
 30
0.0
  0
SEQEND
  0
ENDBLK
  0
BLOCK
  8
0
  2
sh_7_1
  3
sh_7_1
 70
0
 10
0.0
 20
0.0
 30
0.0
  0
POLYLINE
  8
0
 66
1
 10
0.0
 20
0.0
 30
0.0
 70
8
  0
VERTEX
  8
0
 10
1.375
 20
1.075
 30
0.0
  0
VERTEX
  8
0
 10
-1.375
 20
1.075
 30
0.0
  0
VERTEX
  8
0
 10
-1.375
 20
-1.075
 30
0.0
  0
VERTEX
  8
0
 10
1.375
 20
-1.075
 30
0.0
  0
VERTEX
  8
0
 10
1.375
 20
1.075
 30
0.0
  0
SEQEND
  0
ENDBLK
  0
BLOCK
  8
0
  2
sh_7_2
  3
sh_7_2
 70
0
 10
0.0
 20
0.0
 30
0.0
  0
POLYLINE
  8
0
 66
1
 10
0.0
 20
0.0
 30
0.0
 70
8
  0
VERTEX
  8
0
 10
1.4
 20
1.075
 30
0.0
  0
VERTEX
  8
0
 10
-1.4
 20
1.075
 30
0.0
  0
VERTEX
  8
0
 10
-1.4
 20
-1.075
 30
0.0
  0
VERTEX
  8
0
 10
1.4
 20
-1.075
 30
0.0
  0
VERTEX
  8
0
 10
1.4
 20
1.075
 30
0.0
  0
SEQEND
  0
ENDBLK
  0
BLOCK
  8
0
  2
sh_7_3
  3
sh_7_3
 70
0
 10
0.0
 20
0.0
 30
0.0
  0
POLYLINE
  8
0
 66
1
 10
0.0
 20
0.0
 30
0.0
 70
8
  0
VERTEX
  8
0
 10
1.425
 20
1.075
 30
0.0
  0
VERTEX
  8
0
 10
-1.425
 20
1.075
 30
0.0
  0
VERTEX
  8
0
 10
-1.425
 20
-1.075
 30
0.0
  0
VERTEX
  8
0
 10
1.425
 20
-1.075
 30
0.0
  0
VERTEX
  8
0
 10
1.425
 20
1.075
 30
0.0
  0
SEQEND
  0
ENDBLK
  0
BLOCK
  8
0
  2
sh_6_5
  3
sh_6_5
 70
0
 10
0.0
 20
0.0
 30
0.0
  0
POLYLINE
  8
0
 66
1
 10
0.0
 20
0.0
 30
0.0
 70
8
  0
VERTEX
  8
0
 10
1.5
 20
1.05
 30
0.0
  0
VERTEX
  8
0
 10
-1.5
 20
1.05
 30
0.0
  0
VERTEX
  8
0
 10
-1.5
 20
-1.05
 30
0.0
  0
VERTEX
  8
0
 10
1.5
 20
-1.05
 30
0.0
  0
VERTEX
  8
0
 10
1.5
 20
1.05
 30
0.0
  0
SEQEND
  0
ENDBLK
  0
BLOCK
  8
0
  2
sh_6_4
  3
sh_6_4
 70
0
 10
0.0
 20
0.0
 30
0.0
  0
POLYLINE
  8
0
 66
1
 10
0.0
 20
0.0
 30
0.0
 70
8
  0
VERTEX
  8
0
 10
1.45
 20
1.05
 30
0.0
  0
VERTEX
  8
0
 10
-1.45
 20
1.05
 30
0.0
  0
VERTEX
  8
0
 10
-1.45
 20
-1.05
 30
0.0
  0
VERTEX
  8
0
 10
1.45
 20
-1.05
 30
0.0
  0
VERTEX
  8
0
 10
1.45
 20
1.05
 30
0.0
  0
SEQEND
  0
ENDBLK
  0
BLOCK
  8
0
  2
sh_4_0
  3
sh_4_0
 70
0
 10
0.0
 20
0.0
 30
0.0
  0
POLYLINE
  8
0
 66
1
 10
0.0
 20
0.0
 30
0.0
 70
8
  0
VERTEX
  8
0
 10
1.35
 20
1.0
 30
0.0
  0
VERTEX
  8
0
 10
-1.35
 20
1.0
 30
0.0
  0
VERTEX
  8
0
 10
-1.35
 20
-1.0
 30
0.0
  0
VERTEX
  8
0
 10
1.35
 20
-1.0
 30
0.0
  0
VERTEX
  8
0
 10
1.35
 20
1.0
 30
0.0
  0
SEQEND
  0
ENDBLK
  0
BLOCK
  8
0
  2
sh_6_1
  3
sh_6_1
 70
0
 10
0.0
 20
0.0
 30
0.0
  0
POLYLINE
  8
0
 66
1
 10
0.0
 20
0.0
 30
0.0
 70
8
  0
VERTEX
  8
0
 10
1.375
 20
1.05
 30
0.0
  0
VERTEX
  8
0
 10
-1.375
 20
1.05
 30
0.0
  0
VERTEX
  8
0
 10
-1.375
 20
-1.05
 30
0.0
  0
VERTEX
  8
0
 10
1.375
 20
-1.05
 30
0.0
  0
VERTEX
  8
0
 10
1.375
 20
1.05
 30
0.0
  0
SEQEND
  0
ENDBLK
  0
BLOCK
  8
0
  2
sh_6_0
  3
sh_6_0
 70
0
 10
0.0
 20
0.0
 30
0.0
  0
POLYLINE
  8
0
 66
1
 10
0.0
 20
0.0
 30
0.0
 70
8
  0
VERTEX
  8
0
 10
1.35
 20
1.05
 30
0.0
  0
VERTEX
  8
0
 10
-1.35
 20
1.05
 30
0.0
  0
VERTEX
  8
0
 10
-1.35
 20
-1.05
 30
0.0
  0
VERTEX
  8
0
 10
1.35
 20
-1.05
 30
0.0
  0
VERTEX
  8
0
 10
1.35
 20
1.05
 30
0.0
  0
SEQEND
  0
ENDBLK
  0
BLOCK
  8
0
  2
sh_6_3
  3
sh_6_3
 70
0
 10
0.0
 20
0.0
 30
0.0
  0
POLYLINE
  8
0
 66
1
 10
0.0
 20
0.0
 30
0.0
 70
8
  0
VERTEX
  8
0
 10
1.425
 20
1.05
 30
0.0
  0
VERTEX
  8
0
 10
-1.425
 20
1.05
 30
0.0
  0
VERTEX
  8
0
 10
-1.425
 20
-1.05
 30
0.0
  0
VERTEX
  8
0
 10
1.425
 20
-1.05
 30
0.0
  0
VERTEX
  8
0
 10
1.425
 20
1.05
 30
0.0
  0
SEQEND
  0
ENDBLK
  0
BLOCK
  8
0
  2
sh_6_2
  3
sh_6_2
 70
0
 10
0.0
 20
0.0
 30
0.0
  0
POLYLINE
  8
0
 66
1
 10
0.0
 20
0.0
 30
0.0
 70
8
  0
VERTEX
  8
0
 10
1.4
 20
1.05
 30
0.0
  0
VERTEX
  8
0
 10
-1.4
 20
1.05
 30
0.0
  0
VERTEX
  8
0
 10
-1.4
 20
-1.05
 30
0.0
  0
VERTEX
  8
0
 10
1.4
 20
-1.05
 30
0.0
  0
VERTEX
  8
0
 10
1.4
 20
1.05
 30
0.0
  0
SEQEND
  0
ENDBLK
  0
BLOCK
  8
0
  2
sh_1_4
  3
sh_1_4
 70
0
 10
0.0
 20
0.0
 30
0.0
  0
POLYLINE
  8
0
 66
1
 10
0.0
 20
0.0
 30
0.0
 70
8
  0
VERTEX
  8
0
 10
1.45
 20
0.925
 30
0.0
  0
VERTEX
  8
0
 10
-1.45
 20
0.925
 30
0.0
  0
VERTEX
  8
0
 10
-1.45
 20
-0.925
 30
0.0
  0
VERTEX
  8
0
 10
1.45
 20
-0.925
 30
0.0
  0
VERTEX
  8
0
 10
1.45
 20
0.925
 30
0.0
  0
SEQEND
  0
ENDBLK
  0
BLOCK
  8
0
  2
sh_1_5
  3
sh_1_5
 70
0
 10
0.0
 20
0.0
 30
0.0
  0
POLYLINE
  8
0
 66
1
 10
0.0
 20
0.0
 30
0.0
 70
8
  0
VERTEX
  8
0
 10
1.5
 20
0.925
 30
0.0
  0
VERTEX
  8
0
 10
-1.5
 20
0.925
 30
0.0
  0
VERTEX
  8
0
 10
-1.5
 20
-0.925
 30
0.0
  0
VERTEX
  8
0
 10
1.5
 20
-0.925
 30
0.0
  0
VERTEX
  8
0
 10
1.5
 20
0.925
 30
0.0
  0
SEQEND
  0
ENDBLK
  0
BLOCK
  8
0
  2
sh_1_2
  3
sh_1_2
 70
0
 10
0.0
 20
0.0
 30
0.0
  0
POLYLINE
  8
0
 66
1
 10
0.0
 20
0.0
 30
0.0
 70
8
  0
VERTEX
  8
0
 10
1.4
 20
0.925
 30
0.0
  0
VERTEX
  8
0
 10
-1.4
 20
0.925
 30
0.0
  0
VERTEX
  8
0
 10
-1.4
 20
-0.925
 30
0.0
  0
VERTEX
  8
0
 10
1.4
 20
-0.925
 30
0.0
  0
VERTEX
  8
0
 10
1.4
 20
0.925
 30
0.0
  0
SEQEND
  0
ENDBLK
  0
BLOCK
  8
0
  2
sh_1_3
  3
sh_1_3
 70
0
 10
0.0
 20
0.0
 30
0.0
  0
POLYLINE
  8
0
 66
1
 10
0.0
 20
0.0
 30
0.0
 70
8
  0
VERTEX
  8
0
 10
1.425
 20
0.925
 30
0.0
  0
VERTEX
  8
0
 10
-1.425
 20
0.925
 30
0.0
  0
VERTEX
  8
0
 10
-1.425
 20
-0.925
 30
0.0
  0
VERTEX
  8
0
 10
1.425
 20
-0.925
 30
0.0
  0
VERTEX
  8
0
 10
1.425
 20
0.925
 30
0.0
  0
SEQEND
  0
ENDBLK
  0
BLOCK
  8
0
  2
sh_1_0
  3
sh_1_0
 70
0
 10
0.0
 20
0.0
 30
0.0
  0
POLYLINE
  8
0
 66
1
 10
0.0
 20
0.0
 30
0.0
 70
8
  0
VERTEX
  8
0
 10
1.35
 20
0.925
 30
0.0
  0
VERTEX
  8
0
 10
-1.35
 20
0.925
 30
0.0
  0
VERTEX
  8
0
 10
-1.35
 20
-0.925
 30
0.0
  0
VERTEX
  8
0
 10
1.35
 20
-0.925
 30
0.0
  0
VERTEX
  8
0
 10
1.35
 20
0.925
 30
0.0
  0
SEQEND
  0
ENDBLK
  0
BLOCK
  8
0
  2
sh_1_1
  3
sh_1_1
 70
0
 10
0.0
 20
0.0
 30
0.0
  0
POLYLINE
  8
0
 66
1
 10
0.0
 20
0.0
 30
0.0
 70
8
  0
VERTEX
  8
0
 10
1.375
 20
0.925
 30
0.0
  0
VERTEX
  8
0
 10
-1.375
 20
0.925
 30
0.0
  0
VERTEX
  8
0
 10
-1.375
 20
-0.925
 30
0.0
  0
VERTEX
  8
0
 10
1.375
 20
-0.925
 30
0.0
  0
VERTEX
  8
0
 10
1.375
 20
0.925
 30
0.0
  0
SEQEND
  0
ENDBLK
  0
BLOCK
  8
0
  2
sh_0_5
  3
sh_0_5
 70
0
 10
0.0
 20
0.0
 30
0.0
  0
POLYLINE
  8
0
 66
1
 10
0.0
 20
0.0
 30
0.0
 70
8
  0
VERTEX
  8
0
 10
1.5
 20
0.9
 30
0.0
  0
VERTEX
  8
0
 10
-1.5
 20
0.9
 30
0.0
  0
VERTEX
  8
0
 10
-1.5
 20
-0.9
 30
0.0
  0
VERTEX
  8
0
 10
1.5
 20
-0.9
 30
0.0
  0
VERTEX
  8
0
 10
1.5
 20
0.9
 30
0.0
  0
SEQEND
  0
ENDBLK
  0
BLOCK
  8
0
  2
sh_0_4
  3
sh_0_4
 70
0
 10
0.0
 20
0.0
 30
0.0
  0
POLYLINE
  8
0
 66
1
 10
0.0
 20
0.0
 30
0.0
 70
8
  0
VERTEX
  8
0
 10
1.45
 20
0.9
 30
0.0
  0
VERTEX
  8
0
 10
-1.45
 20
0.9
 30
0.0
  0
VERTEX
  8
0
 10
-1.45
 20
-0.9
 30
0.0
  0
VERTEX
  8
0
 10
1.45
 20
-0.9
 30
0.0
  0
VERTEX
  8
0
 10
1.45
 20
0.9
 30
0.0
  0
SEQEND
  0
ENDBLK
  0
BLOCK
  8
0
  2
sh_0_3
  3
sh_0_3
 70
0
 10
0.0
 20
0.0
 30
0.0
  0
POLYLINE
  8
0
 66
1
 10
0.0
 20
0.0
 30
0.0
 70
8
  0
VERTEX
  8
0
 10
1.425
 20
0.9
 30
0.0
  0
VERTEX
  8
0
 10
-1.425
 20
0.9
 30
0.0
  0
VERTEX
  8
0
 10
-1.425
 20
-0.9
 30
0.0
  0
VERTEX
  8
0
 10
1.425
 20
-0.9
 30
0.0
  0
VERTEX
  8
0
 10
1.425
 20
0.9
 30
0.0
  0
SEQEND
  0
ENDBLK
  0
BLOCK
  8
0
  2
sh_0_2
  3
sh_0_2
 70
0
 10
0.0
 20
0.0
 30
0.0
  0
POLYLINE
  8
0
 66
1
 10
0.0
 20
0.0
 30
0.0
 70
8
  0
VERTEX
  8
0
 10
1.4
 20
0.9
 30
0.0
  0
VERTEX
  8
0
 10
-1.4
 20
0.9
 30
0.0
  0
VERTEX
  8
0
 10
-1.4
 20
-0.9
 30
0.0
  0
VERTEX
  8
0
 10
1.4
 20
-0.9
 30
0.0
  0
VERTEX
  8
0
 10
1.4
 20
0.9
 30
0.0
  0
SEQEND
  0
ENDBLK
  0
BLOCK
  8
0
  2
sh_0_1
  3
sh_0_1
 70
0
 10
0.0
 20
0.0
 30
0.0
  0
POLYLINE
  8
0
 66
1
 10
0.0
 20
0.0
 30
0.0
 70
8
  0
VERTEX
  8
0
 10
1.375
 20
0.9
 30
0.0
  0
VERTEX
  8
0
 10
-1.375
 20
0.9
 30
0.0
  0
VERTEX
  8
0
 10
-1.375
 20
-0.9
 30
0.0
  0
VERTEX
  8
0
 10
1.375
 20
-0.9
 30
0.0
  0
VERTEX
  8
0
 10
1.375
 20
0.9
 30
0.0
  0
SEQEND
  0
ENDBLK
  0
BLOCK
  8
0
  2
sh_0_0
  3
sh_0_0
 70
0
 10
0.0
 20
0.0
 30
0.0
  0
POLYLINE
  8
0
 66
1
 10
0.0
 20
0.0
 30
0.0
 70
8
  0
VERTEX
  8
0
 10
1.35
 20
0.9
 30
0.0
  0
VERTEX
  8
0
 10
-1.35
 20
0.9
 30
0.0
  0
VERTEX
  8
0
 10
-1.35
 20
-0.9
 30
0.0
  0
VERTEX
  8
0
 10
1.35
 20
-0.9
 30
0.0
  0
VERTEX
  8
0
 10
1.35
 20
0.9
 30
0.0
  0
SEQEND
  0
ENDBLK
  0
BLOCK
  8
0
  2
sh_4_3
  3
sh_4_3
 70
0
 10
0.0
 20
0.0
 30
0.0
  0
POLYLINE
  8
0
 66
1
 10
0.0
 20
0.0
 30
0.0
 70
8
  0
VERTEX
  8
0
 10
1.425
 20
1.0
 30
0.0
  0
VERTEX
  8
0
 10
-1.425
 20
1.0
 30
0.0
  0
VERTEX
  8
0
 10
-1.425
 20
-1.0
 30
0.0
  0
VERTEX
  8
0
 10
1.425
 20
-1.0
 30
0.0
  0
VERTEX
  8
0
 10
1.425
 20
1.0
 30
0.0
  0
SEQEND
  0
ENDBLK
  0
BLOCK
  8
0
  2
sh_4_2
  3
sh_4_2
 70
0
 10
0.0
 20
0.0
 30
0.0
  0
POLYLINE
  8
0
 66
1
 10
0.0
 20
0.0
 30
0.0
 70
8
  0
VERTEX
  8
0
 10
1.4
 20
1.0
 30
0.0
  0
VERTEX
  8
0
 10
-1.4
 20
1.0
 30
0.0
  0
VERTEX
  8
0
 10
-1.4
 20
-1.0
 30
0.0
  0
VERTEX
  8
0
 10
1.4
 20
-1.0
 30
0.0
  0
VERTEX
  8
0
 10
1.4
 20
1.0
 30
0.0
  0
SEQEND
  0
ENDBLK
  0
BLOCK
  8
0
  2
sh_4_1
  3
sh_4_1
 70
0
 10
0.0
 20
0.0
 30
0.0
  0
POLYLINE
  8
0
 66
1
 10
0.0
 20
0.0
 30
0.0
 70
8
  0
VERTEX
  8
0
 10
1.375
 20
1.0
 30
0.0
  0
VERTEX
  8
0
 10
-1.375
 20
1.0
 30
0.0
  0
VERTEX
  8
0
 10
-1.375
 20
-1.0
 30
0.0
  0
VERTEX
  8
0
 10
1.375
 20
-1.0
 30
0.0
  0
VERTEX
  8
0
 10
1.375
 20
1.0
 30
0.0
  0
SEQEND
  0
ENDBLK
  0
BLOCK
  8
0
  2
sh_2_1
  3
sh_2_1
 70
0
 10
0.0
 20
0.0
 30
0.0
  0
POLYLINE
  8
0
 66
1
 10
0.0
 20
0.0
 30
0.0
 70
8
  0
VERTEX
  8
0
 10
1.375
 20
0.95
 30
0.0
  0
VERTEX
  8
0
 10
-1.375
 20
0.95
 30
0.0
  0
VERTEX
  8
0
 10
-1.375
 20
-0.95
 30
0.0
  0
VERTEX
  8
0
 10
1.375
 20
-0.95
 30
0.0
  0
VERTEX
  8
0
 10
1.375
 20
0.95
 30
0.0
  0
SEQEND
  0
ENDBLK
  0
BLOCK
  8
0
  2
sh_2_0
  3
sh_2_0
 70
0
 10
0.0
 20
0.0
 30
0.0
  0
POLYLINE
  8
0
 66
1
 10
0.0
 20
0.0
 30
0.0
 70
8
  0
VERTEX
  8
0
 10
1.35
 20
0.95
 30
0.0
  0
VERTEX
  8
0
 10
-1.35
 20
0.95
 30
0.0
  0
VERTEX
  8
0
 10
-1.35
 20
-0.95
 30
0.0
  0
VERTEX
  8
0
 10
1.35
 20
-0.95
 30
0.0
  0
VERTEX
  8
0
 10
1.35
 20
0.95
 30
0.0
  0
SEQEND
  0
ENDBLK
  0
BLOCK
  8
0
  2
sh_2_3
  3
sh_2_3
 70
0
 10
0.0
 20
0.0
 30
0.0
  0
POLYLINE
  8
0
 66
1
 10
0.0
 20
0.0
 30
0.0
 70
8
  0
VERTEX
  8
0
 10
1.425
 20
0.95
 30
0.0
  0
VERTEX
  8
0
 10
-1.425
 20
0.95
 30
0.0
  0
VERTEX
  8
0
 10
-1.425
 20
-0.95
 30
0.0
  0
VERTEX
  8
0
 10
1.425
 20
-0.95
 30
0.0
  0
VERTEX
  8
0
 10
1.425
 20
0.95
 30
0.0
  0
SEQEND
  0
ENDBLK
  0
BLOCK
  8
0
  2
sh_2_2
  3
sh_2_2
 70
0
 10
0.0
 20
0.0
 30
0.0
  0
POLYLINE
  8
0
 66
1
 10
0.0
 20
0.0
 30
0.0
 70
8
  0
VERTEX
  8
0
 10
1.4
 20
0.95
 30
0.0
  0
VERTEX
  8
0
 10
-1.4
 20
0.95
 30
0.0
  0
VERTEX
  8
0
 10
-1.4
 20
-0.95
 30
0.0
  0
VERTEX
  8
0
 10
1.4
 20
-0.95
 30
0.0
  0
VERTEX
  8
0
 10
1.4
 20
0.95
 30
0.0
  0
SEQEND
  0
ENDBLK
  0
BLOCK
  8
0
  2
sh_2_5
  3
sh_2_5
 70
0
 10
0.0
 20
0.0
 30
0.0
  0
POLYLINE
  8
0
 66
1
 10
0.0
 20
0.0
 30
0.0
 70
8
  0
VERTEX
  8
0
 10
1.5
 20
0.95
 30
0.0
  0
VERTEX
  8
0
 10
-1.5
 20
0.95
 30
0.0
  0
VERTEX
  8
0
 10
-1.5
 20
-0.95
 30
0.0
  0
VERTEX
  8
0
 10
1.5
 20
-0.95
 30
0.0
  0
VERTEX
  8
0
 10
1.5
 20
0.95
 30
0.0
  0
SEQEND
  0
ENDBLK
  0
BLOCK
  8
0
  2
sh_2_4
  3
sh_2_4
 70
0
 10
0.0
 20
0.0
 30
0.0
  0
POLYLINE
  8
0
 66
1
 10
0.0
 20
0.0
 30
0.0
 70
8
  0
VERTEX
  8
0
 10
1.45
 20
0.95
 30
0.0
  0
VERTEX
  8
0
 10
-1.45
 20
0.95
 30
0.0
  0
VERTEX
  8
0
 10
-1.45
 20
-0.95
 30
0.0
  0
VERTEX
  8
0
 10
1.45
 20
-0.95
 30
0.0
  0
VERTEX
  8
0
 10
1.45
 20
0.95
 30
0.0
  0
SEQEND
  0
ENDBLK
  0
BLOCK
  8
0
  2
sh_5_2
  3
sh_5_2
 70
0
 10
0.0
 20
0.0
 30
0.0
  0
POLYLINE
  8
0
 66
1
 10
0.0
 20
0.0
 30
0.0
 70
8
  0
VERTEX
  8
0
 10
1.4
 20
1.025
 30
0.0
  0
VERTEX
  8
0
 10
-1.4
 20
1.025
 30
0.0
  0
VERTEX
  8
0
 10
-1.4
 20
-1.025
 30
0.0
  0
VERTEX
  8
0
 10
1.4
 20
-1.025
 30
0.0
  0
VERTEX
  8
0
 10
1.4
 20
1.025
 30
0.0
  0
SEQEND
  0
ENDBLK
  0
BLOCK
  8
0
  2
sh_5_3
  3
sh_5_3
 70
0
 10
0.0
 20
0.0
 30
0.0
  0
POLYLINE
  8
0
 66
1
 10
0.0
 20
0.0
 30
0.0
 70
8
  0
VERTEX
  8
0
 10
1.425
 20
1.025
 30
0.0
  0
VERTEX
  8
0
 10
-1.425
 20
1.025
 30
0.0
  0
VERTEX
  8
0
 10
-1.425
 20
-1.025
 30
0.0
  0
VERTEX
  8
0
 10
1.425
 20
-1.025
 30
0.0
  0
VERTEX
  8
0
 10
1.425
 20
1.025
 30
0.0
  0
SEQEND
  0
ENDBLK
  0
BLOCK
  8
0
  2
sh_5_0
  3
sh_5_0
 70
0
 10
0.0
 20
0.0
 30
0.0
  0
POLYLINE
  8
0
 66
1
 10
0.0
 20
0.0
 30
0.0
 70
8
  0
VERTEX
  8
0
 10
1.35
 20
1.025
 30
0.0
  0
VERTEX
  8
0
 10
-1.35
 20
1.025
 30
0.0
  0
VERTEX
  8
0
 10
-1.35
 20
-1.025
 30
0.0
  0
VERTEX
  8
0
 10
1.35
 20
-1.025
 30
0.0
  0
VERTEX
  8
0
 10
1.35
 20
1.025
 30
0.0
  0
SEQEND
  0
ENDBLK
  0
BLOCK
  8
0
  2
sh_5_1
  3
sh_5_1
 70
0
 10
0.0
 20
0.0
 30
0.0
  0
POLYLINE
  8
0
 66
1
 10
0.0
 20
0.0
 30
0.0
 70
8
  0
VERTEX
  8
0
 10
1.375
 20
1.025
 30
0.0
  0
VERTEX
  8
0
 10
-1.375
 20
1.025
 30
0.0
  0
VERTEX
  8
0
 10
-1.375
 20
-1.025
 30
0.0
  0
VERTEX
  8
0
 10
1.375
 20
-1.025
 30
0.0
  0
VERTEX
  8
0
 10
1.375
 20
1.025
 30
0.0
  0
SEQEND
  0
ENDBLK
  0
BLOCK
  8
0
  2
sh_5_4
  3
sh_5_4
 70
0
 10
0.0
 20
0.0
 30
0.0
  0
POLYLINE
  8
0
 66
1
 10
0.0
 20
0.0
 30
0.0
 70
8
  0
VERTEX
  8
0
 10
1.45
 20
1.025
 30
0.0
  0
VERTEX
  8
0
 10
-1.45
 20
1.025
 30
0.0
  0
VERTEX
  8
0
 10
-1.45
 20
-1.025
 30
0.0
  0
VERTEX
  8
0
 10
1.45
 20
-1.025
 30
0.0
  0
VERTEX
  8
0
 10
1.45
 20
1.025
 30
0.0
  0
SEQEND
  0
ENDBLK
  0
BLOCK
  8
0
  2
sh_5_5
  3
sh_5_5
 70
0
 10
0.0
 20
0.0
 30
0.0
  0
POLYLINE
  8
0
 66
1
 10
0.0
 20
0.0
 30
0.0
 70
8
  0
VERTEX
  8
0
 10
1.5
 20
1.025
 30
0.0
  0
VERTEX
  8
0
 10
-1.5
 20
1.025
 30
0.0
  0
VERTEX
  8
0
 10
-1.5
 20
-1.025
 30
0.0
  0
VERTEX
  8
0
 10
1.5
 20
-1.025
 30
0.0
  0
VERTEX
  8
0
 10
1.5
 20
1.025
 30
0.0
  0
SEQEND
  0
ENDBLK
  0
BLOCK
  8
0
  2
sh_3_0
  3
sh_3_0
 70
0
 10
0.0
 20
0.0
 30
0.0
  0
POLYLINE
  8
0
 66
1
 10
0.0
 20
0.0
 30
0.0
 70
8
  0
VERTEX
  8
0
 10
1.35
 20
0.975
 30
0.0
  0
VERTEX
  8
0
 10
-1.35
 20
0.975
 30
0.0
  0
VERTEX
  8
0
 10
-1.35
 20
-0.975
 30
0.0
  0
VERTEX
  8
0
 10
1.35
 20
-0.975
 30
0.0
  0
VERTEX
  8
0
 10
1.35
 20
0.975
 30
0.0
  0
SEQEND
  0
ENDBLK
  0
BLOCK
  8
0
  2
sh_3_1
  3
sh_3_1
 70
0
 10
0.0
 20
0.0
 30
0.0
  0
POLYLINE
  8
0
 66
1
 10
0.0
 20
0.0
 30
0.0
 70
8
  0
VERTEX
  8
0
 10
1.375
 20
0.975
 30
0.0
  0
VERTEX
  8
0
 10
-1.375
 20
0.975
 30
0.0
  0
VERTEX
  8
0
 10
-1.375
 20
-0.975
 30
0.0
  0
VERTEX
  8
0
 10
1.375
 20
-0.975
 30
0.0
  0
VERTEX
  8
0
 10
1.375
 20
0.975
 30
0.0
  0
SEQEND
  0
ENDBLK
  0
BLOCK
  8
0
  2
sh_3_2
  3
sh_3_2
 70
0
 10
0.0
 20
0.0
 30
0.0
  0
POLYLINE
  8
0
 66
1
 10
0.0
 20
0.0
 30
0.0
 70
8
  0
VERTEX
  8
0
 10
1.4
 20
0.975
 30
0.0
  0
VERTEX
  8
0
 10
-1.4
 20
0.975
 30
0.0
  0
VERTEX
  8
0
 10
-1.4
 20
-0.975
 30
0.0
  0
VERTEX
  8
0
 10
1.4
 20
-0.975
 30
0.0
  0
VERTEX
  8
0
 10
1.4
 20
0.975
 30
0.0
  0
SEQEND
  0
ENDBLK
  0
BLOCK
  8
0
  2
sh_3_3
  3
sh_3_3
 70
0
 10
0.0
 20
0.0
 30
0.0
  0
POLYLINE
  8
0
 66
1
 10
0.0
 20
0.0
 30
0.0
 70
8
  0
VERTEX
  8
0
 10
1.425
 20
0.975
 30
0.0
  0
VERTEX
  8
0
 10
-1.425
 20
0.975
 30
0.0
  0
VERTEX
  8
0
 10
-1.425
 20
-0.975
 30
0.0
  0
VERTEX
  8
0
 10
1.425
 20
-0.975
 30
0.0
  0
VERTEX
  8
0
 10
1.425
 20
0.975
 30
0.0
  0
SEQEND
  0
ENDBLK
  0
BLOCK
  8
0
  2
sh_3_4
  3
sh_3_4
 70
0
 10
0.0
 20
0.0
 30
0.0
  0
POLYLINE
  8
0
 66
1
 10
0.0
 20
0.0
 30
0.0
 70
8
  0
VERTEX
  8
0
 10
1.45
 20
0.975
 30
0.0
  0
VERTEX
  8
0
 10
-1.45
 20
0.975
 30
0.0
  0
VERTEX
  8
0
 10
-1.45
 20
-0.975
 30
0.0
  0
VERTEX
  8
0
 10
1.45
 20
-0.975
 30
0.0
  0
VERTEX
  8
0
 10
1.45
 20
0.975
 30
0.0
  0
SEQEND
  0
ENDBLK
  0
BLOCK
  8
0
  2
sh_3_5
  3
sh_3_5
 70
0
 10
0.0
 20
0.0
 30
0.0
  0
POLYLINE
  8
0
 66
1
 10
0.0
 20
0.0
 30
0.0
 70
8
  0
VERTEX
  8
0
 10
1.5
 20
0.975
 30
0.0
  0
VERTEX
  8
0
 10
-1.5
 20
0.975
 30
0.0
  0
VERTEX
  8
0
 10
-1.5
 20
-0.975
 30
0.0
  0
VERTEX
  8
0
 10
1.5
 20
-0.975
 30
0.0
  0
VERTEX
  8
0
 10
1.5
 20
0.975
 30
0.0
  0
SEQEND
  0
ENDBLK
  0
BLOCK
  8
0
  2
sh_4_5
  3
sh_4_5
 70
0
 10
0.0
 20
0.0
 30
0.0
  0
POLYLINE
  8
0
 66
1
 10
0.0
 20
0.0
 30
0.0
 70
8
  0
VERTEX
  8
0
 10
1.5
 20
1.0
 30
0.0
  0
VERTEX
  8
0
 10
-1.5
 20
1.0
 30
0.0
  0
VERTEX
  8
0
 10
-1.5
 20
-1.0
 30
0.0
  0
VERTEX
  8
0
 10
1.5
 20
-1.0
 30
0.0
  0
VERTEX
  8
0
 10
1.5
 20
1.0
 30
0.0
  0
SEQEND
  0
ENDBLK
  0
BLOCK
  8
0
  2
sh_4_4
  3
sh_4_4
 70
0
 10
0.0
 20
0.0
 30
0.0
  0
POLYLINE
  8
0
 66
1
 10
0.0
 20
0.0
 30
0.0
 70
8
  0
VERTEX
  8
0
 10
1.45
 20
1.0
 30
0.0
  0
VERTEX
  8
0
 10
-1.45
 20
1.0
 30
0.0
  0
VERTEX
  8
0
 10
-1.45
 20
-1.0
 30
0.0
  0
VERTEX
  8
0
 10
1.45
 20
-1.0
 30
0.0
  0
VERTEX
  8
0
 10
1.45
 20
1.0
 30
0.0
  0
SEQEND
  0
ENDBLK
  0
ENDSEC
  0
SECTION
  2
ENTITIES
  0
VIEWPORT
  8
VIEWPORTS
 67
1
 10
0.0
 20
0.0
 30
0.0
 40
1.0
 41
1.0
 68
1
 69
1
1001
ACAD
1000
MVIEW
1002
{
1070
16
1010
0.0
1020
0.0
1030
0.0
1010
0.0
1020
0.0
1030
0.0
1040
0.0
1040
1.0
1040
0.0
1040
0.0
1040
50.0
1040
0.0
1040
0.0
1070
0
1070
100
1070
1
1070
3
1070
0
1070
0
1070
0
1070
0
1040
0.0
1040
0.0
1040
0.0
1040
0.1
1040
0.1
1040
0.1
1040
0.1
1070
0
1002
{
1002
}
1002
}
  0
INSERT
 62
256
  8
0
  2
sh_0_0
 10
0.0
 20
0.0
 30
0.0
 50
0.0
  0
INSERT
 62
256
  8
0
  2
sh_0_1
 10
6.0
 20
0.0
 30
0.0
 50
0.0
  0
INSERT
 62
256
  8
0
  2
sh_0_2
 10
12.0
 20
0.0
 30
0.0
 50
0.0
  0
INSERT
 62
256
  8
0
  2
sh_0_3
 10
18.0
 20
0.0
 30
0.0
 50
0.0
  0
INSERT
 62
256
  8
0
  2
sh_0_4
 10
24.0
 20
0.0
 30
0.0
 50
0.0
  0
INSERT
 62
256
  8
0
  2
sh_0_5
 10
30.0
 20
0.0
 30
0.0
 50
0.0
  0
INSERT
 62
256
  8
0
  2
sh_1_0
 10
0.0
 20
4.0
 30
0.0
 50
0.0
  0
INSERT
 62
256
  8
0
  2
sh_1_1
 10
6.0
 20
4.0
 30
0.0
 50
0.0
  0
INSERT
 62
256
  8
0
  2
sh_1_2
 10
12.0
 20
4.0
 30
0.0
 50
0.0
  0
INSERT
 62
256
  8
0
  2
sh_1_3
 10
18.0
 20
4.0
 30
0.0
 50
0.0
  0
INSERT
 62
256
  8
0
  2
sh_1_4
 10
24.0
 20
4.0
 30
0.0
 50
0.0
  0
INSERT
 62
256
  8
0
  2
sh_1_5
 10
30.0
 20
4.0
 30
0.0
 50
0.0
  0
INSERT
 62
256
  8
0
  2
sh_2_0
 10
0.0
 20
8.0
 30
0.0
 50
0.0
  0
INSERT
 62
256
  8
0
  2
sh_2_1
 10
6.0
 20
8.0
 30
0.0
 50
0.0
  0
INSERT
 62
256
  8
0
  2
sh_2_2
 10
12.0
 20
8.0
 30
0.0
 50
0.0
  0
INSERT
 62
256
  8
0
  2
sh_2_3
 10
18.0
 20
8.0
 30
0.0
 50
0.0
  0
INSERT
 62
256
  8
0
  2
sh_2_4
 10
24.0
 20
8.0
 30
0.0
 50
0.0
  0
INSERT
 62
256
  8
0
  2
sh_2_5
 10
30.0
 20
8.0
 30
0.0
 50
0.0
  0
INSERT
 62
256
  8
0
  2
sh_3_0
 10
0.0
 20
12.0
 30
0.0
 50
0.0
  0
INSERT
 62
256
  8
0
  2
sh_3_1
 10
6.0
 20
12.0
 30
0.0
 50
0.0
  0
INSERT
 62
256
  8
0
  2
sh_3_2
 10
12.0
 20
12.0
 30
0.0
 50
0.0
  0
INSERT
 62
256
  8
0
  2
sh_3_3
 10
18.0
 20
12.0
 30
0.0
 50
0.0
  0
INSERT
 62
256
  8
0
  2
sh_3_4
 10
24.0
 20
12.0
 30
0.0
 50
0.0
  0
INSERT
 62
256
  8
0
  2
sh_3_5
 10
30.0
 20
12.0
 30
0.0
 50
0.0
  0
INSERT
 62
256
  8
0
  2
sh_4_0
 10
0.0
 20
16.0
 30
0.0
 50
0.0
  0
INSERT
 62
256
  8
0
  2
sh_4_1
 10
6.0
 20
16.0
 30
0.0
 50
0.0
  0
INSERT
 62
256
  8
0
  2
sh_4_2
 10
12.0
 20
16.0
 30
0.0
 50
0.0
  0
INSERT
 62
256
  8
0
  2
sh_4_3
 10
18.0
 20
16.0
 30
0.0
 50
0.0
  0
INSERT
 62
256
  8
0
  2
sh_4_4
 10
24.0
 20
16.0
 30
0.0
 50
0.0
  0
INSERT
 62
256
  8
0
  2
sh_4_5
 10
30.0
 20
16.0
 30
0.0
 50
0.0
  0
INSERT
 62
256
  8
0
  2
sh_5_0
 10
0.0
 20
20.0
 30
0.0
 50
0.0
  0
INSERT
 62
256
  8
0
  2
sh_5_1
 10
6.0
 20
20.0
 30
0.0
 50
0.0
  0
INSERT
 62
256
  8
0
  2
sh_5_2
 10
12.0
 20
20.0
 30
0.0
 50
0.0
  0
INSERT
 62
256
  8
0
  2
sh_5_3
 10
18.0
 20
20.0
 30
0.0
 50
0.0
  0
INSERT
 62
256
  8
0
  2
sh_5_4
 10
24.0
 20
20.0
 30
0.0
 50
0.0
  0
INSERT
 62
256
  8
0
  2
sh_5_5
 10
30.0
 20
20.0
 30
0.0
 50
0.0
  0
INSERT
 62
256
  8
0
  2
sh_6_0
 10
0.0
 20
24.0
 30
0.0
 50
0.0
  0
INSERT
 62
256
  8
0
  2
sh_6_1
 10
6.0
 20
24.0
 30
0.0
 50
0.0
  0
INSERT
 62
256
  8
0
  2
sh_6_2
 10
12.0
 20
24.0
 30
0.0
 50
0.0
  0
INSERT
 62
256
  8
0
  2
sh_6_3
 10
18.0
 20
24.0
 30
0.0
 50
0.0
  0
INSERT
 62
256
  8
0
  2
sh_6_4
 10
24.0
 20
24.0
 30
0.0
 50
0.0
  0
INSERT
 62
256
  8
0
  2
sh_6_5
 10
30.0
 20
24.0
 30
0.0
 50
0.0
  0
INSERT
 62
256
  8
0
  2
sh_7_0
 10
0.0
 20
28.0
 30
0.0
 50
0.0
  0
INSERT
 62
256
  8
0
  2
sh_7_1
 10
6.0
 20
28.0
 30
0.0
 50
0.0
  0
INSERT
 62
256
  8
0
  2
sh_7_2
 10
12.0
 20
28.0
 30
0.0
 50
0.0
  0
INSERT
 62
256
  8
0
  2
sh_7_3
 10
18.0
 20
28.0
 30
0.0
 50
0.0
  0
INSERT
 62
256
  8
0
  2
sh_7_4
 10
24.0
 20
28.0
 30
0.0
 50
0.0
  0
INSERT
 62
256
  8
0
  2
sh_7_5
 10
30.0
 20
28.0
 30
0.0
 50
0.0
  0
ENDSEC
  0
EOF
