<?xml version="1.0" encoding="UTF-8" standalone="no"?>
<svg
   xmlns:dc="http://purl.org/dc/elements/1.1/"
   xmlns:cc="http://creativecommons.org/ns#"
   xmlns:rdf="http://www.w3.org/1999/02/22-rdf-syntax-ns#"
   xmlns:svg="http://www.w3.org/2000/svg"
   xmlns="http://www.w3.org/2000/svg"
   xmlns:sodipodi="http://sodipodi.sourceforge.net/DTD/sodipodi-0.dtd"
   xmlns:inkscape="http://www.inkscape.org/namespaces/inkscape"
   version="1.1"
   width="400mm"
   height="200mm"
   viewBox="0 0 157480.32 78740.155"
   id="svg2180"
   sodipodi:docname="case.svg"
   inkscape:version="1.0.1 (1.0.1+r75)">
  <title
     id="title3033">mcdox/case</title>
  <metadata
     id="metadata2186">
    <rdf:RDF>
      <cc:Work
         rdf:about="">
        <dc:format>image/svg+xml</dc:format>
        <dc:type
           rdf:resource="http://purl.org/dc/dcmitype/StillImage" />
        <dc:title>mcdox/case</dc:title>
      </cc:Work>
    </rdf:RDF>
  </metadata>
  <defs
     id="defs2184" />
  <sodipodi:namedview
     pagecolor="#ffffff"
     bordercolor="#666666"
     borderopacity="1"
     objecttolerance="10"
     gridtolerance="10"
     guidetolerance="10"
     inkscape:pageopacity="0"
     inkscape:pageshadow="2"
     inkscape:window-width="1920"
     inkscape:window-height="1052"
     id="namedview2182"
     showgrid="true"
     inkscape:zoom="1.5338356"
     inkscape:cx="479.02048"
     inkscape:cy="407.8206"
     inkscape:window-x="1920"
     inkscape:window-y="0"
     inkscape:window-maximized="1"
     inkscape:current-layer="layer3"
     units="mm"
     width="400mm"
     inkscape:document-units="mm"
     inkscape:pagecheckerboard="false"
     inkscape:object-paths="false"
     inkscape:snap-intersection-paths="false"
     inkscape:snap-global="true"
     inkscape:document-rotation="0"
     inkscape:snap-smooth-nodes="false"
     inkscape:snap-midpoints="true"
     inkscape:snap-center="true"
     inkscape:snap-bbox="true">
    <inkscape:grid
       type="xygrid"
       id="grid3031"
       units="mm"
       spacingx="393.70078"
       spacingy="393.70078" />
  </sodipodi:namedview>
  <desc
     id="desc4">Picture generated by PCBNEW </desc>
  <g
     inkscape:groupmode="layer"
     id="layer1"
     inkscape:label="pcb.EdgeCuts"
     style="display:inline">
    <path
       id="path2080"
       style="fill:#c2c200;fill-opacity:0;stroke:#c2c200;stroke-width:118.11;stroke-linecap:round;stroke-linejoin:round;stroke-miterlimit:4;stroke-dasharray:none;stroke-opacity:1"
       d="M 75965.992,23820.952 61772.343,20544.09 m 0,0 132.947,-575.853 m 0,0 -7288.289,-1682.634 m 0,0 132.722,-574.878 m 0,0 -7480.239,-1726.949 m 0,0 -132.722,574.878 m 0,0 -7289.262,-1682.859 m 0,0 -265.667,1150.731 m 0,0 -14768.528,-3409.582 m 0.286,0.795 a 787.402,787.402 0 0 0 -944.347,590.091 m -0.03,-0.12 -6307.628,27321.337 m -0.01,0.305 a 787.402,787.402 0 0 0 590.094,944.345 m 781.9,988.628 a 787.402,787.402 0 0 0 -590.092,-944.345 m 589.423,944.088 -1328.336,5753.655 m 0.557,0.745 a 787.402,787.402 0 0 0 590.093,944.345 m 0.117,-0.999 12850.968,2966.879 m 45510.462,-27361.65 -2765.098,11976.956 m 589.568,944.84 3069.266,708.596 m 589.792,943.866 -2789.843,12084.138 m -57099.065,-9950.526 191.951,44.315 M 76556.731,24765.611 a 787.402,787.402 0 0 0 -590.093,-944.346 m -2175.037,12921.439 a 787.402,787.402 0 0 0 590.092,944.345 m 3658.969,1652.852 a 787.402,787.402 0 0 0 -590.093,-944.346 M 54563.601,56142.87 71693.697,72110.554 m 1113.208,-38.571 10210.852,-10976.382 m -43.817,-1121.604 -7140.388,-6661.984 m 7184.745,7783.917 a 793.529,793.529 0 0 0 -44.2,-1121.281 M 71694.146,72111.273 a 787.401,787.401 0 0 0 1112.961,-38.833 M 31046.169,52127.69 a 787.402,787.402 0 0 0 944.346,-590.091 m 708.221,-442.631 a 590.551,590.551 0 0 0 -708.221,442.63 m 43260.394,-113.95 a 1968.5,1968.5 0 0 0 583.101,1889.497 M 32698.736,51094.968 54563.601,56142.87" />
  </g>
  <g
     inkscape:groupmode="layer"
     id="layer2"
     inkscape:label="pcb.Eco1"
     style="display:inline">
    <path
       id="path474"
       style="fill:#008400;fill-opacity:0;stroke:#008400;stroke-width:118.11;stroke-linecap:round;stroke-linejoin:round;stroke-miterlimit:4;stroke-dasharray:none;stroke-opacity:1"
       d="m 71511.477,72201.905 268.659,-287.945 m -3723.473,-2933.792 864.06,805.003 m 3147.358,2397.448 3759.28,-4031.678 m -19.51,-555.629 -863.835,-805.978 m -4027.714,4318.648 -1727.894,-1610.981 m -1151.03,-1073.437 287.945,268.659 m 6350.034,-1614.944 -1727.894,-1610.981 m 1727.894,1610.981 268.659,-287.945 m 595.175,1093.923 268.66,-287.945 m -5160.209,3800.615 268.66,-287.945 m -1995.579,-1322.811 267.685,-288.17 m 2323.069,2704.904 -863.835,-805.978 m 5179.719,-3244.986 -288.17,-267.684 m -3186.903,-3510.881 863.834,805.977 m -1420.663,-785.717 -3758.081,4030.928 m 4910.085,-2957.266 268.659,-287.945 m -1132.494,-518.033 268.66,-287.944 m -556.829,20.26 288.169,267.684 m -15.547,7522.299 -287.945,-268.659 m -3723.473,-2933.792 268.66,-287.945" />
    <path
       id="path514"
       style="fill:#008400;fill-opacity:0;stroke:#008400;stroke-width:118.11;stroke-linecap:round;stroke-linejoin:round;stroke-miterlimit:4;stroke-dasharray:none;stroke-opacity:1"
       d="m 66040.825,67100.528 268.659,-287.945 m -3723.473,-2933.792 863.085,804.778 m 3148.333,2397.673 3759.28,-4031.678 m -19.286,-556.604 -864.059,-805.003 m -4027.715,4318.648 -1727.894,-1610.981 m -1152.004,-1073.662 287.945,268.659 m 6351.009,-1614.719 -1727.894,-1610.981 m 1727.894,1610.981 268.659,-287.945 m 595.4,1092.948 268.659,-287.945 m -5160.433,3801.59 268.659,-287.945 m -1996.553,-1323.036 268.659,-287.945 m 2323.07,2704.904 -863.835,-805.978 m 5179.719,-3244.986 -287.945,-268.659 m -3187.129,-3509.906 863.835,805.977 m -1420.439,-786.692 -3759.28,4031.678 m 4911.06,-2957.041 268.659,-287.945 m -1132.494,-518.033 268.659,-287.944 m -556.604,19.285 287.945,268.659 m -15.547,7522.299 -287.945,-268.659 m -3723.473,-2933.792 267.685,-288.17" />
    <path
       id="path554"
       style="fill:#008400;fill-opacity:0;stroke:#008400;stroke-width:118.11;stroke-linecap:round;stroke-linejoin:round;stroke-miterlimit:4;stroke-dasharray:none;stroke-opacity:1"
       d="m 72702.614,52452.681 286.971,268.434 m -4046.026,3762.269 3759.055,-4030.703 m -3471.11,4299.362 -268.659,287.945 m -19.286,-556.604 287.945,268.659 m 863.085,804.779 -267.685,288.17 m 1995.354,1323.785 -1727.669,-1611.955 m 1727.669,1611.955 -268.659,287.945 m 1132.719,517.058 -268.66,287.945 m 556.604,-19.286 -287.944,-268.659 m 2895.22,-4836.681 -1727.894,-1610.98 m 2879.674,2685.617 -287.945,-268.659 m 268.659,-287.945 -268.659,287.945 m -595.175,-1093.922 -268.66,287.944 m -1459.234,-1898.925 -268.66,287.945 m -595.4,-1092.949 -268.659,287.945 m 3724.447,2934.017 -863.834,-805.977 m -2591.954,-2415.985 864.06,805.004 m -5159.459,3801.814 864.059,805.004 m 2590.754,2416.733 -864.059,-805.003 m 5179.719,-3244.986 -3759.056,4030.703" />
    <path
       id="path594"
       style="fill:#008400;fill-opacity:0;stroke:#008400;stroke-width:118.11;stroke-linecap:round;stroke-linejoin:round;stroke-miterlimit:4;stroke-dasharray:none;stroke-opacity:1"
       d="m 57114.609,58776.215 268.66,-287.945 m 3743.507,3491.595 -287.945,-268.659 m 15.548,-7522.299 287.945,268.66 m 0,0 268.659,-287.945 m 595.175,1093.922 268.66,-287.945 m -1420.439,-786.692 -3759.28,4031.678 m 4315.884,-4050.963 863.835,805.977 m 2611.239,2972.589 -287.945,-268.66 m -4027.94,4319.623 -863.834,-805.978 m -1727.894,-1610.981 268.659,-287.945 m 1459.235,1898.926 268.659,-287.945 m 4623.115,-3225.7 267.685,-288.169 m -1131.745,-516.834 268.659,-287.945 m -268.659,287.945 -1727.894,-1610.981 m -4911.059,2957.041 288.17,267.685 m 2591.728,2416.958 -1727.894,-1610.981 m 6618.694,-1902.888 -863.086,-804.779 m -2875.935,5393.285 3759.281,-4031.677 m -7771.448,828.027 863.835,805.977 m 2591.728,2416.959 268.659,-287.945" />
    <path
       id="path634"
       style="fill:#008400;fill-opacity:0;stroke:#008400;stroke-width:118.11;stroke-linecap:round;stroke-linejoin:round;stroke-miterlimit:4;stroke-dasharray:none;stroke-opacity:1"
       d="m 68891.059,49651.473 88.406,-382.928 m -4986.826,-1151.299 383.902,88.631 m 6226.756,-4219.429 -383.902,-88.63 m 0,0 88.631,-383.902 m -1239.362,118.234 88.631,-383.901 m 1446.002,738.199 -1239.93,5370.728 m 944.659,-5843.26 -1150.731,-265.667 m -3924.726,-501.731 383.902,88.632 m -1328.336,5753.654 1150.731,265.668 m 2301.462,531.334 88.406,-382.928 m -2389.868,-148.407 88.406,-382.927 m 89.199,-5636.395 88.631,-383.902 m 1062.1,649.569 88.631,-383.902 m -88.631,383.902 2301.462,531.334 m 294.703,5725.026 -383.902,-88.631 m -3452.193,-797.001 2301.462,531.334 m -2123.632,-6551.631 1150.731,265.667 m -2863.194,5400.332 1239.93,-5370.728 m 3658.49,6904.955 -1150.731,-265.667 m -3452.193,-797.002 88.406,-382.927" />
    <path
       id="path674"
       style="fill:#008400;fill-opacity:0;stroke:#008400;stroke-width:118.11;stroke-linecap:round;stroke-linejoin:round;stroke-miterlimit:4;stroke-dasharray:none;stroke-opacity:1"
       d="m 71415.01,38719.041 88.631,-383.902 m -4986.826,-1151.3 383.902,88.631 m 6226.756,-4219.428 -383.902,-88.631 m 0,0 88.406,-382.927 m -1239.137,117.26 88.406,-382.928 m 1446.227,737.226 -1239.93,5370.728 m 944.434,-5842.286 -1150.731,-265.668 m -3924.501,-502.704 383.902,88.63 m -1328.561,5754.63 1150.731,265.667 m 2301.462,531.335 88.631,-383.902 m -2390.093,-147.433 88.631,-383.902 m 89.199,-5636.395 88.406,-382.927 m 1062.325,648.595 88.406,-382.928 m -88.406,382.928 2301.462,531.334 m 294.703,5725.026 -383.902,-88.631 m -3452.193,-797.002 2301.462,531.335 m -2123.857,-6550.657 1150.731,265.667 m -2862.969,5399.357 1239.93,-5370.727 m 3658.265,6905.929 -1150.731,-265.667 m -3452.193,-797.002 88.631,-383.902" />
    <path
       id="path714"
       style="fill:#008400;fill-opacity:0;stroke:#008400;stroke-width:118.11;stroke-linecap:round;stroke-linejoin:round;stroke-miterlimit:4;stroke-dasharray:none;stroke-opacity:1"
       d="m 17591.962,39526.176 381.953,88.181 m 1151.525,-4987.8 -88.631,383.901 m 4219.429,6226.757 88.406,-382.928 m 0,0 383.902,88.632 m -118.01,-1240.337 383.902,88.631 m -738.2,1446.002 -5370.729,-1239.931 m 5843.037,945.634 265.892,-1151.705 m 501.73,-3924.725 -88.631,383.901 m -5752.681,-1328.111 -265.667,1150.732 m -531.335,2301.461 381.953,88.181 m 149.382,-2389.643 381.953,88.181 m 5636.395,89.199 383.902,88.631 m -649.569,1062.1 383.902,88.631 m -383.902,-88.631 -531.334,2301.462 m -5725.027,294.702 88.406,-382.927 m 797.227,-3453.167 -531.335,2301.462 m 6551.632,-2123.632 -265.667,1150.731 m -5400.332,-2863.194 5370.728,1239.931 m -6904.206,3659.688 265.892,-1151.705 m 797.002,-3452.193 381.953,88.18" />
    <path
       id="path754"
       style="fill:#008400;fill-opacity:0;stroke:#008400;stroke-width:118.11;stroke-linecap:round;stroke-linejoin:round;stroke-miterlimit:4;stroke-dasharray:none;stroke-opacity:1"
       d="m 19274.821,32236.914 381.953,88.181 m 1151.299,-4986.826 -88.63,383.901 m 4219.429,6226.757 88.631,-383.902 m 0,0 383.901,88.631 m -118.234,-1239.362 383.902,88.631 m -738.2,1446.002 -5370.729,-1239.931 m 5843.261,944.66 265.668,-1150.731 m 501.73,-3924.726 -88.631,383.902 m -5752.681,-1328.111 -265.668,1150.731 m -531.334,2301.462 381.953,88.181 m 149.381,-2389.643 381.953,88.18 m 5636.396,89.2 383.902,88.63 m -649.569,1062.101 383.902,88.63 m -383.902,-88.63 -531.334,2301.462 m -5725.027,294.702 88.631,-383.901 m 797.001,-3452.194 -531.334,2301.463 m 6551.632,-2123.633 -265.667,1150.731 m -5400.333,-2863.193 5370.729,1239.93 m -6903.981,3658.715 265.667,-1150.731 m 797.002,-3452.193 381.953,88.18" />
    <path
       id="path794"
       style="fill:#008400;fill-opacity:0;stroke:#008400;stroke-width:118.11;stroke-linecap:round;stroke-linejoin:round;stroke-miterlimit:4;stroke-dasharray:none;stroke-opacity:1"
       d="m 20957.455,24948.626 381.953,88.181 m 1151.3,-4986.826 -88.406,382.927 m 4219.204,6227.731 88.63,-383.902 m 0,0 383.902,88.631 m -118.234,-1239.362 383.901,88.63 m -738.199,1446.003 -5370.729,-1239.931 m 5843.261,944.66 265.667,-1150.732 m 501.731,-3924.725 -88.406,382.927 m -5752.681,-1328.111 -265.892,1151.706 m -531.335,2301.462 381.953,88.18 m 149.382,-2389.642 381.953,88.18 m 5636.62,88.225 383.902,88.631 m -649.794,1063.075 383.902,88.63 m -383.902,-88.63 -531.334,2301.462 m -5725.027,294.702 88.631,-383.901 m 797.002,-3452.194 -531.335,2301.462 m 6551.857,-2124.606 -265.892,1151.705 m -5400.332,-2863.193 5370.728,1239.93 m -6903.981,3658.715 265.667,-1150.731 m 797.227,-3453.168 381.953,88.181" />
    <path
       id="path834"
       style="fill:#008400;fill-opacity:0;stroke:#008400;stroke-width:118.11;stroke-linecap:round;stroke-linejoin:round;stroke-miterlimit:4;stroke-dasharray:none;stroke-opacity:1"
       d="m 22640.089,17660.338 381.953,88.18 m 1151.525,-4987.799 -88.631,383.902 m 4219.429,6226.755 88.405,-382.927 m 0,0 383.902,88.63 m -118.01,-1240.336 383.902,88.631 m -738.199,1446.002 -5370.729,-1239.93 m 5843.036,945.633 265.892,-1151.705 m 501.731,-3924.726 -88.631,383.902 m -5752.681,-1328.11 -265.667,1150.73 m -531.335,2301.462 381.953,88.181 m 149.382,-2389.643 381.953,88.181 m 5636.395,89.199 383.902,88.631 m -649.569,1062.1 383.902,88.631 m -383.902,-88.631 -531.335,2301.462 m -5725.026,294.703 88.406,-382.928 m 797.227,-3453.167 -531.335,2301.462 m 6551.632,-2123.632 -265.667,1150.731 m -5400.332,-2863.193 5370.728,1239.929 m -6904.206,3659.69 265.892,-1151.706 m 797.002,-3452.192 381.953,88.181" />
    <path
       id="path874"
       style="fill:#008400;fill-opacity:0;stroke:#008400;stroke-width:118.11;stroke-linecap:round;stroke-linejoin:round;stroke-miterlimit:4;stroke-dasharray:none;stroke-opacity:1"
       d="m 19264.653,42336.478 5370.728,1239.93 m 295.496,471.558 -265.892,1151.705 m -797.001,3452.194 265.667,-1150.731 m -6403.225,-266.236 265.667,-1150.731 m 797.226,-3453.168 -265.892,1151.706 m -797.001,3452.193 382.927,88.406 m -117.26,-1239.137 382.927,88.406 m 148.407,-2389.868 382.928,88.405 m -117.036,-1240.111 382.928,88.407 m 88.406,-382.928 -88.406,382.928 m -265.892,1151.704 -531.335,2301.463 m 6256.361,-2596.165 -88.405,382.928 m 0,0 383.901,88.631 m -649.794,1063.075 383.902,88.63 m -383.902,-88.63 -531.334,2301.462 m 0,0 383.902,88.631 m -738.2,1446.002 88.631,-383.902 m 0,0 383.902,88.631 m -472.533,295.271 -5370.729,-1239.931 m 0,0 88.631,-383.901" />
    <path
       id="path914"
       style="fill:#008400;fill-opacity:0;stroke:#008400;stroke-width:118.11;stroke-linecap:round;stroke-linejoin:round;stroke-miterlimit:4;stroke-dasharray:none;stroke-opacity:1"
       d="m 33284.901,14864.235 5370.728,1239.931 m 294.297,472.307 -265.667,1150.731 m -797.227,3453.168 265.892,-1151.706 m -6403.449,-265.261 265.892,-1151.705 m 797.002,-3452.193 -265.667,1150.731 m -797.227,3453.167 383.902,88.631 m -118.01,-1240.336 383.902,88.63 m 147.433,-2390.092 383.902,88.63 m -118.235,-1239.361 383.902,88.63 m 88.63,-383.902 -88.63,383.902 m -265.667,1150.731 -531.335,2301.462 m 6256.36,-2596.164 -88.63,383.901 m 0,0 382.927,88.407 m -648.595,1062.325 382.928,88.406 m -382.928,-88.406 -531.334,2301.462 m 0,0 382.927,88.405 m -737.225,1446.227 88.406,-382.927 m 0,0 382.927,88.406 m -471.333,294.521 -5370.728,-1239.93 m 0,0 88.406,-382.927" />
    <path
       id="path954"
       style="fill:#008400;fill-opacity:0;stroke:#008400;stroke-width:118.11;stroke-linecap:round;stroke-linejoin:round;stroke-miterlimit:4;stroke-dasharray:none;stroke-opacity:1"
       d="m 31602.043,22153.498 5370.727,1239.93 m 294.522,471.333 -265.892,1151.706 m -797.002,3452.193 265.668,-1150.731 m -6403.225,-266.236 265.667,-1150.731 m 797.227,-3453.167 -265.892,1151.705 m -797.002,3452.193 383.902,88.631 m -118.235,-1239.362 383.902,88.631 m 147.433,-2390.093 383.902,88.631 m -118.01,-1240.336 383.902,88.63 m 88.406,-382.927 -88.406,382.927 m -265.892,1151.706 -531.335,2301.462 m 6256.36,-2596.165 -88.405,382.928 m 0,0 382.927,88.405 m -648.82,1063.3 382.928,88.406 m -382.928,-88.406 -531.334,2301.462 m 0,0 382.928,88.406 m -737.226,1446.227 88.631,-383.902 m 0,0 382.927,88.406 m -471.558,295.496 -5370.728,-1239.93 m 0,0 88.631,-383.902" />
    <path
       id="path994"
       style="fill:#008400;fill-opacity:0;stroke:#008400;stroke-width:118.11;stroke-linecap:round;stroke-linejoin:round;stroke-miterlimit:4;stroke-dasharray:none;stroke-opacity:1"
       d="m 29919.409,29441.786 5370.728,1239.93 m 294.296,472.308 -265.667,1150.731 m -797.002,3452.193 265.668,-1150.731 m -6403.225,-266.236 265.668,-1150.731 m 797.001,-3452.193 -265.667,1150.731 m -797.002,3452.193 383.902,88.631 m -118.234,-1239.362 383.901,88.631 m 147.433,-2390.093 383.902,88.631 m -118.235,-1239.362 383.902,88.631 m 88.631,-383.902 -88.631,383.902 m -265.667,1150.731 -531.335,2301.462 m 6256.361,-2596.165 -88.631,383.902 m 0,0 382.927,88.406 m -648.594,1062.325 382.927,88.406 m -382.927,-88.406 -531.335,2301.462 m 0,0 382.928,88.406 m -737.226,1446.227 88.631,-383.901 m 0,0 382.927,88.405 m -471.558,295.496 -5370.728,-1239.93 m 0,0 88.631,-383.902" />
    <path
       id="path1034"
       style="fill:#008400;fill-opacity:0;stroke:#008400;stroke-width:118.11;stroke-linecap:round;stroke-linejoin:round;stroke-miterlimit:4;stroke-dasharray:none;stroke-opacity:1"
       d="m 28236.775,36730.074 5370.728,1239.93 m 294.296,472.308 -265.667,1150.731 m -797.226,3453.167 265.892,-1151.705 m -6403.449,-265.261 265.892,-1151.706 m 797.001,-3452.193 -265.667,1150.731 m -797.226,3453.168 383.901,88.63 m -118.009,-1240.336 383.902,88.631 m 147.432,-2390.093 383.902,88.631 m -118.235,-1239.362 383.902,88.631 m 88.631,-383.902 -88.631,383.902 m -265.667,1150.731 -531.334,2301.462 m 6256.36,-2596.165 -88.631,383.902 m 0,0 382.927,88.407 m -648.594,1062.324 382.927,88.407 m -382.927,-88.407 -531.335,2301.462 m 0,0 382.928,88.406 m -737.226,1446.227 88.406,-382.927 m 0,0 382.928,88.405 m -471.334,294.522 -5370.727,-1239.93 m 0,0 88.405,-382.928" />
    <path
       id="path1074"
       style="fill:#008400;fill-opacity:0;stroke:#008400;stroke-width:118.11;stroke-linecap:round;stroke-linejoin:round;stroke-miterlimit:4;stroke-dasharray:none;stroke-opacity:1"
       d="m 26553.916,44019.337 5370.728,1239.93 m 294.521,471.333 -265.892,1151.705 m -797.001,3452.194 265.667,-1150.732 m -6403.224,-266.235 265.667,-1150.731 m 797.226,-3453.168 -265.892,1151.706 m -797.001,3452.193 383.901,88.631 m -118.234,-1239.362 383.902,88.63 m 147.432,-2390.092 383.902,88.63 m -118.01,-1240.336 383.902,88.631 m 88.406,-382.927 -88.406,382.927 m -265.892,1151.705 -531.334,2301.462 m 6256.36,-2596.164 -88.406,382.927 m 0,0 382.927,88.407 m -648.819,1063.299 382.927,88.405 m -382.927,-88.405 -531.335,2301.462 m 0,0 382.928,88.405 m -737.225,1446.228 88.63,-383.902 m 0,0 382.928,88.406 m -471.558,295.496 -5370.728,-1239.931 m 0,0 88.63,-383.901" />
    <path
       id="path1114"
       style="fill:#008400;fill-opacity:0;stroke:#008400;stroke-width:118.11;stroke-linecap:round;stroke-linejoin:round;stroke-miterlimit:4;stroke-dasharray:none;stroke-opacity:1"
       d="m 40838.857,15396.138 5370.728,1239.932 m 295.271,472.531 -265.668,1150.731 m -797.001,3452.193 265.667,-1150.731 m -6404.199,-266.46 265.668,-1150.731 m 797.001,-3452.194 -265.667,1150.731 m -797.002,3452.194 383.902,88.63 m -118.234,-1239.361 383.901,88.63 m 147.433,-2390.093 383.902,88.631 m -118.235,-1239.362 383.902,88.631 m 88.631,-383.902 -88.631,383.902 m -265.667,1150.731 -531.335,2301.462 m 6256.361,-2596.164 -88.631,383.901 m 0,0 383.902,88.631 m -649.569,1062.1 383.901,88.631 m -383.901,-88.631 -531.335,2301.462 m 0,0 383.902,88.631 m -738.2,1446.002 88.631,-383.901 m 0,0 383.902,88.63 m -472.533,295.271 -5370.727,-1239.93 m 0,0 88.63,-383.902" />
    <path
       id="path1154"
       style="fill:#008400;fill-opacity:0;stroke:#008400;stroke-width:118.11;stroke-linecap:round;stroke-linejoin:round;stroke-miterlimit:4;stroke-dasharray:none;stroke-opacity:1"
       d="m 39155.998,22685.401 5370.728,1239.93 m 295.496,471.558 -265.667,1150.731 m -797.227,3453.168 265.667,-1150.731 m -6404.198,-266.461 265.667,-1150.731 m 797.226,-3453.168 -265.667,1150.732 m -797.226,3453.167 383.901,88.631 m -118.234,-1239.362 383.902,88.631 m 147.657,-2391.067 383.902,88.63 m -118.235,-1239.362 383.902,88.631 m 88.406,-382.927 -88.406,382.927 m -265.667,1150.731 -531.559,2302.437 m 6256.36,-2596.165 -88.406,382.927 m 0,0 383.902,88.631 m -649.569,1062.1 383.902,88.631 m -383.902,-88.631 -531.56,2302.437 m 0,0 383.902,88.631 m -737.975,1445.027 88.406,-382.927 m 0,0 383.902,88.631 m -472.308,294.296 -5370.727,-1239.93 m 0,0 88.405,-382.927" />
    <path
       id="path1194"
       style="fill:#008400;fill-opacity:0;stroke:#008400;stroke-width:118.11;stroke-linecap:round;stroke-linejoin:round;stroke-miterlimit:4;stroke-dasharray:none;stroke-opacity:1"
       d="m 37473.364,29973.689 5370.728,1239.93 m 295.271,472.533 -265.667,1150.731 m -797.002,3452.193 265.667,-1150.731 m -6404.198,-266.461 265.667,-1150.731 m 797.001,-3452.193 -265.667,1150.731 m -797.001,3452.193 383.901,88.631 m -118.234,-1239.362 383.902,88.631 m 147.432,-2390.093 383.902,88.631 m -118.235,-1239.362 383.902,88.631 m 88.631,-383.902 -88.631,383.902 m -265.667,1150.731 -531.334,2301.462 m 6256.36,-2596.165 -88.631,383.902 m 0,0 383.902,88.631 m -649.569,1062.1 383.902,88.631 m -383.902,-88.631 -531.335,2301.462 m 0,0 383.902,88.631 m -738.199,1446.002 88.63,-383.902 m 0,0 383.902,88.631 m -472.532,295.271 -5370.728,-1239.93 m 0,0 88.63,-383.902" />
    <path
       id="path1234"
       style="fill:#008400;fill-opacity:0;stroke:#008400;stroke-width:118.11;stroke-linecap:round;stroke-linejoin:round;stroke-miterlimit:4;stroke-dasharray:none;stroke-opacity:1"
       d="m 35788.259,37232.67 5369.754,1239.705 m 295.271,472.533 -265.667,1150.731 m -797.002,3452.193 265.667,-1150.731 m -6403.224,-266.236 265.667,-1150.731 m 797.002,-3452.193 -265.667,1150.731 m -797.002,3452.193 383.902,88.631 m -118.235,-1239.362 383.902,88.631 m 147.433,-2390.093 383.901,88.631 m -118.234,-1239.362 383.902,88.631 m 88.63,-383.902 -88.63,383.902 m -265.668,1150.731 -531.334,2301.462 m 6255.386,-2596.39 -88.631,383.902 m 0,0 383.902,88.631 m -649.569,1062.1 383.902,88.631 m -383.902,-88.631 -531.334,2301.462 m 0,0 383.901,88.631 m -738.199,1446.002 88.63,-383.902 m 0,0 383.902,88.631 m -472.532,295.271 -5369.754,-1239.705 m 0,0 88.631,-383.902" />
    <path
       id="path1274"
       style="fill:#008400;fill-opacity:0;stroke:#008400;stroke-width:118.11;stroke-linecap:round;stroke-linejoin:round;stroke-miterlimit:4;stroke-dasharray:none;stroke-opacity:1"
       d="m 34107.871,44551.239 5370.728,1239.931 m 295.496,471.558 -265.667,1150.731 m -797.227,3453.167 265.668,-1150.731 m -6404.199,-266.46 265.667,-1150.731 m 797.227,-3453.168 -265.667,1150.731 m -797.227,3453.168 383.902,88.63 m -118.235,-1239.361 383.902,88.63 m 147.658,-2391.067 383.901,88.631 m -118.234,-1239.362 383.902,88.631 m 88.405,-382.928 -88.405,382.928 m -265.668,1150.731 -531.559,2302.436 m 6256.36,-2596.164 -88.406,382.927 m 0,0 383.902,88.631 m -649.569,1062.1 383.902,88.631 m -383.902,-88.631 -531.559,2302.437 m 0,0 383.902,88.63 m -737.975,1445.028 88.406,-382.927 m 0,0 383.901,88.63 m -472.307,294.297 -5370.728,-1239.93 m 0,0 88.406,-382.928" />
    <path
       id="path1314"
       style="fill:#008400;fill-opacity:0;stroke:#008400;stroke-width:118.11;stroke-linecap:round;stroke-linejoin:round;stroke-miterlimit:4;stroke-dasharray:none;stroke-opacity:1"
       d="m 48259.866,16503.894 5370.728,1239.93 m 295.271,472.533 -265.667,1150.731 m -797.002,3452.193 265.667,-1150.731 m -6403.224,-266.236 265.667,-1150.731 m 797.002,-3452.193 -265.667,1150.731 m -797.002,3452.193 382.927,88.406 m -117.26,-1239.137 382.928,88.406 m 148.407,-2389.868 382.927,88.407 m -117.26,-1239.138 382.927,88.406 m 88.631,-383.902 -88.631,383.902 m -265.667,1150.731 -531.334,2301.462 m 6256.36,-2596.165 -88.631,383.902 m 0,0 383.902,88.631 m -649.569,1062.1 383.902,88.631 m -383.902,-88.631 -531.335,2301.462 m 0,0 383.902,88.631 m -738.199,1446.002 88.63,-383.902 m 0,0 383.902,88.631 m -472.532,295.271 -5370.728,-1239.93 m 0,0 88.63,-383.902" />
    <path
       id="path1354"
       style="fill:#008400;fill-opacity:0;stroke:#008400;stroke-width:118.11;stroke-linecap:round;stroke-linejoin:round;stroke-miterlimit:4;stroke-dasharray:none;stroke-opacity:1"
       d="m 46577.232,23792.182 5370.728,1239.93 m 295.271,472.533 -265.667,1150.731 m -797.002,3452.193 265.667,-1150.731 m -6403.224,-266.236 265.667,-1150.731 m 797.002,-3452.193 -265.667,1150.731 m -797.002,3452.193 382.928,88.406 m -117.261,-1239.137 382.928,88.406 m 148.407,-2389.868 382.927,88.406 m -117.26,-1239.137 382.927,88.406 m 88.631,-383.902 -88.631,383.902 m -265.667,1150.731 -531.334,2301.462 m 6256.36,-2596.165 -88.631,383.902 m 0,0 383.902,88.631 m -649.569,1062.1 383.902,88.631 m -383.902,-88.631 -531.334,2301.462 m 0,0 383.901,88.631 m -738.199,1446.002 88.63,-383.902 m 0,0 383.902,88.631 m -472.532,295.271 -5370.728,-1239.93 m 0,0 88.631,-383.902" />
    <path
       id="path1394"
       style="fill:#008400;fill-opacity:0;stroke:#008400;stroke-width:118.11;stroke-linecap:round;stroke-linejoin:round;stroke-miterlimit:4;stroke-dasharray:none;stroke-opacity:1"
       d="m 44894.598,31080.47 5370.728,1239.93 m 295.271,472.533 -265.667,1150.731 m -797.227,3453.167 265.892,-1151.705 m -6403.449,-265.261 265.892,-1151.706 m 797.002,-3452.193 -265.667,1150.731 m -797.227,3453.168 382.928,88.405 m -117.036,-1240.111 382.928,88.406 m 148.407,-2389.868 382.927,88.406 m -117.26,-1239.137 382.927,88.406 m 88.631,-383.902 -88.631,383.902 m -265.667,1150.731 -531.334,2301.462 m 6256.36,-2596.165 -88.631,383.902 m 0,0 383.902,88.631 m -649.569,1062.1 383.902,88.631 m -383.902,-88.631 -531.334,2301.462 m 0,0 383.901,88.631 m -738.199,1446.002 88.405,-382.927 m 0,0 383.902,88.63 m -472.307,294.297 -5370.728,-1239.93 m 0,0 88.406,-382.928" />
    <path
       id="path1434"
       style="fill:#008400;fill-opacity:0;stroke:#008400;stroke-width:118.11;stroke-linecap:round;stroke-linejoin:round;stroke-miterlimit:4;stroke-dasharray:none;stroke-opacity:1"
       d="m 43211.739,38369.732 5370.728,1239.931 m 295.496,471.558 -265.892,1151.705 m -797.002,3452.193 265.668,-1150.731 m -6403.225,-266.235 265.668,-1150.731 m 797.226,-3453.168 -265.892,1151.706 m -797.002,3452.193 382.928,88.405 m -117.26,-1239.136 382.927,88.405 m 148.407,-2389.867 382.927,88.405 m -117.035,-1240.111 382.928,88.406 m 88.405,-382.928 -88.405,382.928 m -265.893,1151.705 -531.334,2301.462 m 6256.36,-2596.164 -88.406,382.927 m 0,0 383.902,88.632 m -649.794,1063.074 383.902,88.63 m -383.902,-88.63 -531.334,2301.462 m 0,0 383.902,88.63 m -738.2,1446.002 88.631,-383.901 m 0,0 383.901,88.63 m -472.532,295.271 -5370.728,-1239.93 m 0,0 88.631,-383.902" />
    <path
       id="path1474"
       style="fill:#008400;fill-opacity:0;stroke:#008400;stroke-width:118.11;stroke-linecap:round;stroke-linejoin:round;stroke-miterlimit:4;stroke-dasharray:none;stroke-opacity:1"
       d="m 41529.105,45658.021 5370.728,1239.93 m 295.271,472.532 -265.667,1150.731 m -797.001,3452.193 265.667,-1150.731 m -6403.225,-266.235 265.668,-1150.731 m 797.001,-3452.193 -265.667,1150.731 m -797.002,3452.193 382.928,88.406 m -117.26,-1239.137 382.927,88.406 m 148.407,-2389.868 382.928,88.405 m -117.261,-1239.136 382.928,88.405 m 88.63,-383.901 -88.63,383.901 m -265.667,1150.731 -531.335,2301.463 m 6256.36,-2596.165 -88.63,383.902 m 0,0 383.901,88.63 m -649.569,1062.101 383.902,88.63 m -383.902,-88.63 -531.334,2301.462 m 0,0 383.902,88.63 m -738.2,1446.003 88.631,-383.902 m 0,0 383.902,88.63 m -472.533,295.272 -5370.728,-1239.931 m 0,0 88.631,-383.901" />
    <path
       id="path1514"
       style="fill:#008400;fill-opacity:0;stroke:#008400;stroke-width:118.11;stroke-linecap:round;stroke-linejoin:round;stroke-miterlimit:4;stroke-dasharray:none;stroke-opacity:1"
       d="m 55416.407,18761.631 5370.728,1239.93 m 294.297,472.308 -265.667,1150.731 m -797.002,3452.193 265.667,-1150.731 m -6403.224,-266.236 265.667,-1150.731 m 797.002,-3452.193 -265.667,1150.731 m -797.002,3452.193 383.902,88.631 m -118.235,-1239.362 383.902,88.631 m 147.433,-2390.093 383.901,88.631 m -118.234,-1239.362 383.902,88.631 m 88.63,-383.902 -88.63,383.902 m -265.668,1150.731 -531.334,2301.462 m 6256.36,-2596.165 -88.631,383.902 m 0,0 382.928,88.406 m -648.595,1062.325 382.928,88.406 m -382.928,-88.406 -531.334,2301.462 m 0,0 382.927,88.406 m -737.225,1446.227 88.631,-383.902 m 0,0 382.927,88.406 m -471.558,295.496 -5370.728,-1239.93 m 0,0 88.631,-383.902" />
    <path
       id="path1554"
       style="fill:#008400;fill-opacity:0;stroke:#008400;stroke-width:118.11;stroke-linecap:round;stroke-linejoin:round;stroke-miterlimit:4;stroke-dasharray:none;stroke-opacity:1"
       d="m 53733.548,26050.893 5370.728,1239.931 m 294.522,471.333 -265.667,1150.731 m -797.227,3453.167 265.667,-1150.731 m -6403.224,-266.235 265.667,-1150.731 m 797.227,-3453.168 -265.667,1150.731 m -797.227,3453.168 383.902,88.63 m -118.235,-1239.361 383.902,88.63 m 147.658,-2391.067 383.901,88.631 m -118.234,-1239.362 383.902,88.631 m 88.405,-382.928 -88.405,382.928 m -265.668,1150.731 -531.559,2302.436 m 6256.36,-2596.164 -88.406,382.927 m 0,0 382.928,88.406 m -648.595,1062.325 382.928,88.406 m -382.928,-88.406 -531.559,2302.437 m 0,0 382.927,88.405 m -737,1445.253 88.406,-382.927 m 0,0 382.927,88.405 m -471.333,294.522 -5370.728,-1239.93 m 0,0 88.406,-382.928" />
    <path
       id="path1594"
       style="fill:#008400;fill-opacity:0;stroke:#008400;stroke-width:118.11;stroke-linecap:round;stroke-linejoin:round;stroke-miterlimit:4;stroke-dasharray:none;stroke-opacity:1"
       d="m 52050.915,33339.182 5370.727,1239.93 m 294.297,472.307 -265.667,1150.731 m -797.002,3452.194 265.667,-1150.732 m -6403.224,-266.235 265.667,-1150.731 m 797.002,-3452.193 -265.667,1150.731 m -797.002,3452.193 383.902,88.631 m -118.235,-1239.362 383.902,88.631 m 147.433,-2390.093 383.902,88.63 m -118.235,-1239.361 383.902,88.63 m 88.631,-383.901 -88.631,383.901 m -265.667,1150.731 -531.335,2301.463 m 6256.36,-2596.165 -88.63,383.902 m 0,0 382.927,88.405 m -648.595,1062.326 382.928,88.405 m -382.928,-88.405 -531.334,2301.462 m 0,0 382.927,88.405 m -737.225,1446.228 88.631,-383.902 m 0,0 382.927,88.406 m -471.558,295.496 -5370.728,-1239.931 m 0,0 88.631,-383.901" />
    <path
       id="path1634"
       style="fill:#008400;fill-opacity:0;stroke:#008400;stroke-width:118.11;stroke-linecap:round;stroke-linejoin:round;stroke-miterlimit:4;stroke-dasharray:none;stroke-opacity:1"
       d="m 50368.281,40627.47 5370.727,1239.93 m 294.297,472.307 -265.667,1150.731 m -797.002,3452.194 265.668,-1150.731 m -6403.225,-266.236 265.668,-1150.731 m 797.001,-3452.193 -265.667,1150.731 m -797.002,3452.193 383.902,88.631 m -118.234,-1239.362 383.901,88.631 m 147.433,-2390.093 383.902,88.631 m -118.235,-1239.362 383.902,88.63 m 88.631,-383.901 -88.631,383.901 m -265.667,1150.732 -531.335,2301.462 m 6256.36,-2596.165 -88.63,383.902 m 0,0 382.927,88.405 m -648.594,1062.326 382.927,88.405 m -382.927,-88.405 -531.335,2301.462 m 0,0 382.928,88.407 m -737.226,1446.226 88.631,-383.902 m 0,0 382.927,88.407 m -471.558,295.495 -5370.728,-1239.931 m 0,0 88.631,-383.901" />
    <path
       id="path1674"
       style="fill:#008400;fill-opacity:0;stroke:#008400;stroke-width:118.11;stroke-linecap:round;stroke-linejoin:round;stroke-miterlimit:4;stroke-dasharray:none;stroke-opacity:1"
       d="m 48685.422,47916.732 5370.728,1239.93 m 294.521,471.334 -265.667,1150.731 m -797.226,3453.167 265.667,-1150.731 m -6403.224,-266.236 265.667,-1150.731 m 797.226,-3453.167 -265.667,1150.731 m -797.226,3453.167 383.901,88.631 m -118.234,-1239.362 383.902,88.631 m 147.657,-2391.067 383.902,88.631 m -118.235,-1239.362 383.902,88.631 m 88.406,-382.928 -88.406,382.928 m -265.667,1150.731 -531.559,2302.436 m 6256.36,-2596.165 -88.406,382.928 m 0,0 382.927,88.407 m -648.594,1062.324 382.927,88.407 m -382.927,-88.407 -531.56,2302.437 m 0,0 382.928,88.406 m -737.001,1445.253 88.406,-382.928 m 0,0 382.928,88.406 m -471.334,294.522 -5370.727,-1239.93 m 0,0 88.405,-382.928" />
    <path
       id="path1714"
       style="fill:#008400;fill-opacity:0;stroke:#008400;stroke-width:118.11;stroke-linecap:round;stroke-linejoin:round;stroke-miterlimit:4;stroke-dasharray:none;stroke-opacity:1"
       d="m 62571.749,21020.118 5370.728,1239.93 m 295.271,472.532 -265.667,1150.731 m -797.002,3452.194 265.668,-1150.732 m -6404.199,-266.46 265.667,-1150.731 m 797.002,-3452.193 -265.667,1150.731 m -797.002,3452.193 383.902,88.631 m -118.235,-1239.362 383.902,88.631 m 147.433,-2390.093 383.901,88.63 m -118.234,-1239.361 383.902,88.63 m 88.63,-383.901 -88.63,383.901 m -265.668,1150.731 -531.334,2301.463 m 6256.36,-2596.165 -88.631,383.902 m 0,0 383.902,88.63 m -649.569,1062.101 383.902,88.63 m -383.902,-88.63 -531.334,2301.462 m 0,0 383.902,88.63 m -738.2,1446.003 88.631,-383.902 m 0,0 383.901,88.631 m -472.532,295.271 -5370.728,-1239.931 m 0,0 88.631,-383.901" />
    <path
       id="path1754"
       style="fill:#008400;fill-opacity:0;stroke:#008400;stroke-width:118.11;stroke-linecap:round;stroke-linejoin:round;stroke-miterlimit:4;stroke-dasharray:none;stroke-opacity:1"
       d="m 60889.115,28308.406 5370.728,1239.93 m 295.271,472.532 -265.667,1150.731 m -797.002,3452.194 265.668,-1150.731 m -6404.199,-266.461 265.667,-1150.731 m 797.002,-3452.193 -265.667,1150.731 m -797.002,3452.193 383.902,88.631 m -118.235,-1239.362 383.902,88.631 m 147.433,-2390.093 383.901,88.631 m -118.234,-1239.362 383.902,88.631 m 88.63,-383.902 -88.63,383.902 m -265.668,1150.731 -531.334,2301.462 m 6256.36,-2596.165 -88.631,383.902 m 0,0 383.902,88.63 m -649.569,1062.101 383.902,88.63 m -383.902,-88.63 -531.334,2301.462 m 0,0 383.902,88.631 m -738.2,1446.002 88.631,-383.902 m 0,0 383.901,88.631 m -472.532,295.271 -5370.728,-1239.93 m 0,0 88.631,-383.902" />
    <path
       id="path1794"
       style="fill:#008400;fill-opacity:0;stroke:#008400;stroke-width:118.11;stroke-linecap:round;stroke-linejoin:round;stroke-miterlimit:4;stroke-dasharray:none;stroke-opacity:1"
       d="m 59206.257,35597.669 5370.727,1239.929 m 295.496,471.559 -265.667,1150.731 m -797.226,3453.167 265.667,-1150.731 m -6404.199,-266.461 265.667,-1150.731 m 797.227,-3453.167 -265.667,1150.731 m -797.227,3453.167 383.902,88.631 m -118.235,-1239.362 383.902,88.631 m 147.658,-2391.067 383.902,88.631 m -118.235,-1239.362 383.902,88.631 m 88.406,-382.927 -88.406,382.928 m -265.667,1150.73 -531.56,2302.436 m 6256.36,-2596.165 -88.405,382.928 m 0,0 383.901,88.631 m -649.569,1062.1 383.902,88.631 m -383.902,-88.631 -531.559,2302.436 m 0,0 383.902,88.631 m -737.975,1445.028 88.406,-382.928 m 0,0 383.902,88.631 m -472.308,294.297 -5370.728,-1239.93 m 0,0 88.406,-382.928" />
    <path
       id="path1834"
       style="fill:#008400;fill-opacity:0;stroke:#008400;stroke-width:118.11;stroke-linecap:round;stroke-linejoin:round;stroke-miterlimit:4;stroke-dasharray:none;stroke-opacity:1"
       d="m 57523.623,42885.956 5370.727,1239.93 m 295.272,472.533 -265.668,1150.731 m -797.001,3452.193 265.667,-1150.731 m -6404.199,-266.46 265.668,-1150.731 m 797.001,-3452.194 -265.667,1150.731 m -797.002,3452.194 383.902,88.63 m -118.234,-1239.362 383.901,88.631 m 147.433,-2390.093 383.902,88.631 m -118.235,-1239.362 383.902,88.631 m 88.631,-383.902 -88.631,383.902 m -265.667,1150.731 -531.335,2301.462 m 6256.36,-2596.165 -88.63,383.902 m 0,0 383.902,88.631 m -649.569,1062.1 383.901,88.631 m -383.901,-88.631 -531.335,2301.462 m 0,0 383.902,88.631 m -738.2,1446.002 88.631,-383.902 m 0,0 383.902,88.631 m -472.533,295.271 -5370.728,-1239.93 m 0,0 88.631,-383.902" />
    <path
       id="path1874"
       style="fill:#008400;fill-opacity:0;stroke:#008400;stroke-width:118.11;stroke-linecap:round;stroke-linejoin:round;stroke-miterlimit:4;stroke-dasharray:none;stroke-opacity:1"
       d="m 82203.97,61313.113 -3759.055,4030.703 m -556.604,19.286 -864.06,-805.003 m -2590.754,-2416.734 863.835,805.978 m 3431.564,-5412.796 864.06,805.004 m 2591.728,2416.958 -863.834,-805.977 m -2591.954,-2415.985 -267.684,288.17 m 1131.744,516.834 -267.685,288.169 m 1995.579,1322.812 -268.659,287.944 m 1132.493,518.033 -268.659,287.945 m 287.945,268.659 -287.945,-268.659 m -863.834,-805.978 -1726.92,-1610.756 m -880.356,6716.096 -287.945,-268.659 m 0,0 -268.659,287.945 m -595.401,-1092.948 -268.659,287.945 m 268.659,-287.945 -1726.919,-1610.756 m 0,0 -268.659,287.945 m -883.121,-1362.582 287.945,268.659 m 0,0 -268.659,287.945 m -19.286,-556.604 3759.056,-4030.703 m 0,0 287.945,268.659" />
    <path
       id="path1914"
       style="fill:#008400;fill-opacity:0;stroke:#008400;stroke-width:118.11;stroke-linecap:round;stroke-linejoin:round;stroke-miterlimit:4;stroke-dasharray:none;stroke-opacity:1"
       d="m 69860.037,22702.752 5370.728,1239.93 m 295.271,472.532 -265.667,1150.731 m -797.002,3452.193 265.668,-1150.731 m -6403.225,-266.235 265.668,-1150.731 m 797.001,-3452.193 -265.667,1150.731 m -797.002,3452.193 382.928,88.406 m -117.26,-1239.137 382.927,88.405 m 148.407,-2389.867 382.927,88.405 m -117.26,-1239.136 382.928,88.405 m 88.63,-383.901 -88.63,383.901 m -265.668,1150.731 -531.334,2301.462 m 6256.36,-2596.164 -88.631,383.902 m 0,0 383.902,88.63 m -649.569,1062.101 383.902,88.63 m -383.902,-88.63 -531.334,2301.462 m 0,0 383.902,88.63 m -738.2,1446.003 88.631,-383.902 m 0,0 383.901,88.63 m -472.532,295.272 -5370.728,-1239.931 m 0,0 88.631,-383.901" />
  </g>
  <g
     inkscape:groupmode="layer"
     id="layer3"
     inkscape:label="pcb.F.Crtyd"
     style="display:inline">
    <path
       d="m 73066.534,48231.353 559.288,129.123"
       id="path12"
       style="fill:#c2c2c2;fill-opacity:0;stroke:#c2c2c2;stroke-width:118.11;stroke-linecap:round;stroke-linejoin:round;stroke-miterlimit:4;stroke-dasharray:none;stroke-opacity:1" />
    <path
       d="m 73625.822,48360.475 -292.436,1266.681"
       id="path14"
       style="fill:#c2c2c2;fill-opacity:0;stroke:#c2c2c2;stroke-width:118.11;stroke-linecap:round;stroke-linejoin:round;stroke-miterlimit:4;stroke-dasharray:none;stroke-opacity:1" />
    <path
       d="m 73333.386,49627.156 -559.288,-129.122"
       id="path16"
       style="fill:#c2c2c2;fill-opacity:0;stroke:#c2c2c2;stroke-width:118.11;stroke-linecap:round;stroke-linejoin:round;stroke-miterlimit:4;stroke-dasharray:none;stroke-opacity:1" />
    <path
       d="m 72774.098,49498.034 292.436,-1266.681"
       id="path18"
       style="fill:#c2c2c2;fill-opacity:0;stroke:#c2c2c2;stroke-width:118.11;stroke-linecap:round;stroke-linejoin:round;stroke-miterlimit:4;stroke-dasharray:none;stroke-opacity:1" />
    <path
       d="m 72490.681,48098.407 560.263,129.346"
       id="path20"
       style="fill:#c2c2c2;fill-opacity:0;stroke:#c2c2c2;stroke-width:118.11;stroke-linecap:round;stroke-linejoin:round;stroke-miterlimit:4;stroke-dasharray:none;stroke-opacity:1" />
    <path
       d="m 73050.944,48227.753 -292.436,1266.682"
       id="path22"
       style="fill:#c2c2c2;fill-opacity:0;stroke:#c2c2c2;stroke-width:118.11;stroke-linecap:round;stroke-linejoin:round;stroke-miterlimit:4;stroke-dasharray:none;stroke-opacity:1" />
    <path
       d="m 72758.508,49494.435 -560.263,-129.347"
       id="path24"
       style="fill:#c2c2c2;fill-opacity:0;stroke:#c2c2c2;stroke-width:118.11;stroke-linecap:round;stroke-linejoin:round;stroke-miterlimit:4;stroke-dasharray:none;stroke-opacity:1" />
    <path
       d="m 72198.245,49365.088 292.436,-1266.68"
       id="path26"
       style="fill:#c2c2c2;fill-opacity:0;stroke:#c2c2c2;stroke-width:118.11;stroke-linecap:round;stroke-linejoin:round;stroke-miterlimit:4;stroke-dasharray:none;stroke-opacity:1" />
    <path
       d="m 72630.762,47367.177 3952.045,912.401"
       id="path28"
       style="fill:#c2c2c2;fill-opacity:0;stroke:#c2c2c2;stroke-width:118.11;stroke-linecap:round;stroke-linejoin:round;stroke-miterlimit:4;stroke-dasharray:none;stroke-opacity:1" />
    <path
       d="m 76582.807,48279.578 2118.364,-9175.643"
       id="path30"
       style="fill:#c2c2c2;fill-opacity:0;stroke:#c2c2c2;stroke-width:118.11;stroke-linecap:round;stroke-linejoin:round;stroke-miterlimit:4;stroke-dasharray:none;stroke-opacity:1" />
    <path
       d="m 78701.171,39103.935 -3952.045,-912.401"
       id="path32"
       style="fill:#c2c2c2;fill-opacity:0;stroke:#c2c2c2;stroke-width:118.11;stroke-linecap:round;stroke-linejoin:round;stroke-miterlimit:4;stroke-dasharray:none;stroke-opacity:1" />
    <path
       d="m 74749.126,38191.534 -2118.364,9175.643"
       id="path34"
       style="fill:#c2c2c2;fill-opacity:0;stroke:#c2c2c2;stroke-width:118.11;stroke-linecap:round;stroke-linejoin:round;stroke-miterlimit:4;stroke-dasharray:none;stroke-opacity:1" />
    <path
       d="M 70836.354,74801.667 65509.075,69834.994"
       id="path38"
       style="fill:#c2c2c2;fill-opacity:0;stroke:#c2c2c2;stroke-width:118.11;stroke-linecap:round;stroke-linejoin:round;stroke-miterlimit:4;stroke-dasharray:none;stroke-opacity:1" />
    <path
       d="M 65509.075,69834.994 73027.41,61772.613"
       id="path40"
       style="fill:#c2c2c2;fill-opacity:0;stroke:#c2c2c2;stroke-width:118.11;stroke-linecap:round;stroke-linejoin:round;stroke-miterlimit:4;stroke-dasharray:none;stroke-opacity:1" />
    <path
       d="m 73027.41,61772.613 5327.055,4967.647"
       id="path42"
       style="fill:#c2c2c2;fill-opacity:0;stroke:#c2c2c2;stroke-width:118.11;stroke-linecap:round;stroke-linejoin:round;stroke-miterlimit:4;stroke-dasharray:none;stroke-opacity:1" />
    <path
       d="m 78354.465,66740.26 -7518.111,8061.407"
       id="path44"
       style="fill:#c2c2c2;fill-opacity:0;stroke:#c2c2c2;stroke-width:118.11;stroke-linecap:round;stroke-linejoin:round;stroke-miterlimit:4;stroke-dasharray:none;stroke-opacity:1" />
    <path
       d="m 65365.702,69700.29 -5327.28,-4966.673"
       id="path46"
       style="fill:#c2c2c2;fill-opacity:0;stroke:#c2c2c2;stroke-width:118.11;stroke-linecap:round;stroke-linejoin:round;stroke-miterlimit:4;stroke-dasharray:none;stroke-opacity:1" />
    <path
       d="m 60038.422,64733.617 7518.336,-8062.381"
       id="path48"
       style="fill:#c2c2c2;fill-opacity:0;stroke:#c2c2c2;stroke-width:118.11;stroke-linecap:round;stroke-linejoin:round;stroke-miterlimit:4;stroke-dasharray:none;stroke-opacity:1" />
    <path
       d="m 67556.758,56671.236 5327.055,4967.647"
       id="path50"
       style="fill:#c2c2c2;fill-opacity:0;stroke:#c2c2c2;stroke-width:118.11;stroke-linecap:round;stroke-linejoin:round;stroke-miterlimit:4;stroke-dasharray:none;stroke-opacity:1" />
    <path
       d="M 72883.813,61638.883 65365.702,69700.29"
       id="path52"
       style="fill:#c2c2c2;fill-opacity:0;stroke:#c2c2c2;stroke-width:118.11;stroke-linecap:round;stroke-linejoin:round;stroke-miterlimit:4;stroke-dasharray:none;stroke-opacity:1" />
    <path
       d="m 73017.767,61494.311 4967.647,-5327.053"
       id="path54"
       style="fill:#c2c2c2;fill-opacity:0;stroke:#c2c2c2;stroke-width:118.11;stroke-linecap:round;stroke-linejoin:round;stroke-miterlimit:4;stroke-dasharray:none;stroke-opacity:1" />
    <path
       d="m 67691.687,56526.889 5326.08,4967.422"
       id="path56"
       style="fill:#c2c2c2;fill-opacity:0;stroke:#c2c2c2;stroke-width:118.11;stroke-linecap:round;stroke-linejoin:round;stroke-miterlimit:4;stroke-dasharray:none;stroke-opacity:1" />
    <path
       d="m 72658.135,51200.584 -4966.448,5326.305"
       id="path58"
       style="fill:#c2c2c2;fill-opacity:0;stroke:#c2c2c2;stroke-width:118.11;stroke-linecap:round;stroke-linejoin:round;stroke-miterlimit:4;stroke-dasharray:none;stroke-opacity:1" />
    <path
       d="M 77985.414,56167.257 72658.135,51200.584"
       id="path60"
       style="fill:#c2c2c2;fill-opacity:0;stroke:#c2c2c2;stroke-width:118.11;stroke-linecap:round;stroke-linejoin:round;stroke-miterlimit:4;stroke-dasharray:none;stroke-opacity:1" />
    <path
       d="M 67413.385,56536.532 59895.05,64598.913"
       id="path62"
       style="fill:#c2c2c2;fill-opacity:0;stroke:#c2c2c2;stroke-width:118.11;stroke-linecap:round;stroke-linejoin:round;stroke-miterlimit:4;stroke-dasharray:none;stroke-opacity:1" />
    <path
       d="m 62086.106,51569.859 5327.279,4966.673"
       id="path64"
       style="fill:#c2c2c2;fill-opacity:0;stroke:#c2c2c2;stroke-width:118.11;stroke-linecap:round;stroke-linejoin:round;stroke-miterlimit:4;stroke-dasharray:none;stroke-opacity:1" />
    <path
       d="m 54567.995,59631.266 7518.111,-8061.407"
       id="path66"
       style="fill:#c2c2c2;fill-opacity:0;stroke:#c2c2c2;stroke-width:118.11;stroke-linecap:round;stroke-linejoin:round;stroke-miterlimit:4;stroke-dasharray:none;stroke-opacity:1" />
    <path
       d="M 59895.05,64598.913 54567.995,59631.266"
       id="path68"
       style="fill:#c2c2c2;fill-opacity:0;stroke:#c2c2c2;stroke-width:118.11;stroke-linecap:round;stroke-linejoin:round;stroke-miterlimit:4;stroke-dasharray:none;stroke-opacity:1" />
    <path
       d="M 64990.217,39862.073 62510.581,50602.554"
       id="path70"
       style="fill:#c2c2c2;fill-opacity:0;stroke:#c2c2c2;stroke-width:118.11;stroke-linecap:round;stroke-linejoin:round;stroke-miterlimit:4;stroke-dasharray:none;stroke-opacity:1" />
    <path
       d="M 72086.554,41500.391 64990.217,39862.073"
       id="path72"
       style="fill:#c2c2c2;fill-opacity:0;stroke:#c2c2c2;stroke-width:118.11;stroke-linecap:round;stroke-linejoin:round;stroke-miterlimit:4;stroke-dasharray:none;stroke-opacity:1" />
    <path
       d="M 69606.919,52240.872 72086.554,41500.391"
       id="path74"
       style="fill:#c2c2c2;fill-opacity:0;stroke:#c2c2c2;stroke-width:118.11;stroke-linecap:round;stroke-linejoin:round;stroke-miterlimit:4;stroke-dasharray:none;stroke-opacity:1" />
    <path
       d="m 62510.581,50602.554 7096.338,1638.318"
       id="path76"
       style="fill:#c2c2c2;fill-opacity:0;stroke:#c2c2c2;stroke-width:118.11;stroke-linecap:round;stroke-linejoin:round;stroke-miterlimit:4;stroke-dasharray:none;stroke-opacity:1" />
    <path
       d="M 67514.393,28928.666 65034.532,39670.122"
       id="path78"
       style="fill:#c2c2c2;fill-opacity:0;stroke:#c2c2c2;stroke-width:118.11;stroke-linecap:round;stroke-linejoin:round;stroke-miterlimit:4;stroke-dasharray:none;stroke-opacity:1" />
    <path
       d="M 74610.73,30566.985 67514.393,28928.666"
       id="path80"
       style="fill:#c2c2c2;fill-opacity:0;stroke:#c2c2c2;stroke-width:118.11;stroke-linecap:round;stroke-linejoin:round;stroke-miterlimit:4;stroke-dasharray:none;stroke-opacity:1" />
    <path
       d="M 72130.869,41308.44 74610.73,30566.985"
       id="path82"
       style="fill:#c2c2c2;fill-opacity:0;stroke:#c2c2c2;stroke-width:118.11;stroke-linecap:round;stroke-linejoin:round;stroke-miterlimit:4;stroke-dasharray:none;stroke-opacity:1" />
    <path
       d="m 65034.532,39670.122 7096.337,1638.318"
       id="path84"
       style="fill:#c2c2c2;fill-opacity:0;stroke:#c2c2c2;stroke-width:118.11;stroke-linecap:round;stroke-linejoin:round;stroke-miterlimit:4;stroke-dasharray:none;stroke-opacity:1" />
    <path
       d="M 27380.614,35624.136 16641.106,33144.724"
       id="path86"
       style="fill:#c2c2c2;fill-opacity:0;stroke:#c2c2c2;stroke-width:118.11;stroke-linecap:round;stroke-linejoin:round;stroke-miterlimit:4;stroke-dasharray:none;stroke-opacity:1" />
    <path
       d="m 25742.295,42720.472 1638.319,-7096.336"
       id="path88"
       style="fill:#c2c2c2;fill-opacity:0;stroke:#c2c2c2;stroke-width:118.11;stroke-linecap:round;stroke-linejoin:round;stroke-miterlimit:4;stroke-dasharray:none;stroke-opacity:1" />
    <path
       d="m 15002.788,40241.061 10739.507,2479.411"
       id="path90"
       style="fill:#c2c2c2;fill-opacity:0;stroke:#c2c2c2;stroke-width:118.11;stroke-linecap:round;stroke-linejoin:round;stroke-miterlimit:4;stroke-dasharray:none;stroke-opacity:1" />
    <path
       d="m 16641.106,33144.724 -1638.318,7096.337"
       id="path92"
       style="fill:#c2c2c2;fill-opacity:0;stroke:#c2c2c2;stroke-width:118.11;stroke-linecap:round;stroke-linejoin:round;stroke-miterlimit:4;stroke-dasharray:none;stroke-opacity:1" />
    <path
       d="M 29063.473,28334.872 18323.965,25855.462"
       id="path94"
       style="fill:#c2c2c2;fill-opacity:0;stroke:#c2c2c2;stroke-width:118.11;stroke-linecap:round;stroke-linejoin:round;stroke-miterlimit:4;stroke-dasharray:none;stroke-opacity:1" />
    <path
       d="m 27424.929,35432.184 1638.544,-7097.312"
       id="path96"
       style="fill:#c2c2c2;fill-opacity:0;stroke:#c2c2c2;stroke-width:118.11;stroke-linecap:round;stroke-linejoin:round;stroke-miterlimit:4;stroke-dasharray:none;stroke-opacity:1" />
    <path
       d="m 16685.421,32952.773 10739.508,2479.411"
       id="path98"
       style="fill:#c2c2c2;fill-opacity:0;stroke:#c2c2c2;stroke-width:118.11;stroke-linecap:round;stroke-linejoin:round;stroke-miterlimit:4;stroke-dasharray:none;stroke-opacity:1" />
    <path
       d="m 18323.965,25855.462 -1638.544,7097.311"
       id="path100"
       style="fill:#c2c2c2;fill-opacity:0;stroke:#c2c2c2;stroke-width:118.11;stroke-linecap:round;stroke-linejoin:round;stroke-miterlimit:4;stroke-dasharray:none;stroke-opacity:1" />
    <path
       d="M 30746.106,21046.584 20006.599,18567.173"
       id="path102"
       style="fill:#c2c2c2;fill-opacity:0;stroke:#c2c2c2;stroke-width:118.11;stroke-linecap:round;stroke-linejoin:round;stroke-miterlimit:4;stroke-dasharray:none;stroke-opacity:1" />
    <path
       d="m 29107.788,28142.921 1638.318,-7096.337"
       id="path104"
       style="fill:#c2c2c2;fill-opacity:0;stroke:#c2c2c2;stroke-width:118.11;stroke-linecap:round;stroke-linejoin:round;stroke-miterlimit:4;stroke-dasharray:none;stroke-opacity:1" />
    <path
       d="m 18368.28,25663.511 10739.508,2479.41"
       id="path106"
       style="fill:#c2c2c2;fill-opacity:0;stroke:#c2c2c2;stroke-width:118.11;stroke-linecap:round;stroke-linejoin:round;stroke-miterlimit:4;stroke-dasharray:none;stroke-opacity:1" />
    <path
       d="M 20006.599,18567.173 18368.28,25663.511"
       id="path108"
       style="fill:#c2c2c2;fill-opacity:0;stroke:#c2c2c2;stroke-width:118.11;stroke-linecap:round;stroke-linejoin:round;stroke-miterlimit:4;stroke-dasharray:none;stroke-opacity:1" />
    <path
       d="M 32428.74,13758.296 21689.233,11278.887"
       id="path110"
       style="fill:#c2c2c2;fill-opacity:0;stroke:#c2c2c2;stroke-width:118.11;stroke-linecap:round;stroke-linejoin:round;stroke-miterlimit:4;stroke-dasharray:none;stroke-opacity:1" />
    <path
       d="M 30790.422,20854.633 32428.74,13758.297"
       id="path112"
       style="fill:#c2c2c2;fill-opacity:0;stroke:#c2c2c2;stroke-width:118.11;stroke-linecap:round;stroke-linejoin:round;stroke-miterlimit:4;stroke-dasharray:none;stroke-opacity:1" />
    <path
       d="m 20050.914,18375.223 10739.508,2479.41"
       id="path114"
       style="fill:#c2c2c2;fill-opacity:0;stroke:#c2c2c2;stroke-width:118.11;stroke-linecap:round;stroke-linejoin:round;stroke-miterlimit:4;stroke-dasharray:none;stroke-opacity:1" />
    <path
       d="m 21689.233,11278.887 -1638.319,7096.336"
       id="path116"
       style="fill:#c2c2c2;fill-opacity:0;stroke:#c2c2c2;stroke-width:118.11;stroke-linecap:round;stroke-linejoin:round;stroke-miterlimit:4;stroke-dasharray:none;stroke-opacity:1" />
    <path
       d="m 18601.642,41274.104 -1638.319,7096.337"
       id="path118"
       style="fill:#c2c2c2;fill-opacity:0;stroke:#c2c2c2;stroke-width:118.11;stroke-linecap:round;stroke-linejoin:round;stroke-miterlimit:4;stroke-dasharray:none;stroke-opacity:1" />
    <path
       d="m 16963.323,48370.441 7096.338,1638.319"
       id="path120"
       style="fill:#c2c2c2;fill-opacity:0;stroke:#c2c2c2;stroke-width:118.11;stroke-linecap:round;stroke-linejoin:round;stroke-miterlimit:4;stroke-dasharray:none;stroke-opacity:1" />
    <path
       d="M 24059.661,50008.76 25697.98,42912.423"
       id="path122"
       style="fill:#c2c2c2;fill-opacity:0;stroke:#c2c2c2;stroke-width:118.11;stroke-linecap:round;stroke-linejoin:round;stroke-miterlimit:4;stroke-dasharray:none;stroke-opacity:1" />
    <path
       d="M 25697.98,42912.423 18601.642,41274.104"
       id="path124"
       style="fill:#c2c2c2;fill-opacity:0;stroke:#c2c2c2;stroke-width:118.11;stroke-linecap:round;stroke-linejoin:round;stroke-miterlimit:4;stroke-dasharray:none;stroke-opacity:1" />
    <path
       d="m 32620.691,13802.611 -1638.318,7096.338"
       id="path126"
       style="fill:#c2c2c2;fill-opacity:0;stroke:#c2c2c2;stroke-width:118.11;stroke-linecap:round;stroke-linejoin:round;stroke-miterlimit:4;stroke-dasharray:none;stroke-opacity:1" />
    <path
       d="m 30982.373,20898.949 7096.337,1638.318"
       id="path128"
       style="fill:#c2c2c2;fill-opacity:0;stroke:#c2c2c2;stroke-width:118.11;stroke-linecap:round;stroke-linejoin:round;stroke-miterlimit:4;stroke-dasharray:none;stroke-opacity:1" />
    <path
       d="M 38078.71,22537.267 39717.028,15440.93"
       id="path130"
       style="fill:#c2c2c2;fill-opacity:0;stroke:#c2c2c2;stroke-width:118.11;stroke-linecap:round;stroke-linejoin:round;stroke-miterlimit:4;stroke-dasharray:none;stroke-opacity:1" />
    <path
       d="M 39717.028,15440.93 32620.691,13802.611"
       id="path132"
       style="fill:#c2c2c2;fill-opacity:0;stroke:#c2c2c2;stroke-width:118.11;stroke-linecap:round;stroke-linejoin:round;stroke-miterlimit:4;stroke-dasharray:none;stroke-opacity:1" />
    <path
       d="m 30938.057,21090.899 -1638.318,7096.338"
       id="path134"
       style="fill:#c2c2c2;fill-opacity:0;stroke:#c2c2c2;stroke-width:118.11;stroke-linecap:round;stroke-linejoin:round;stroke-miterlimit:4;stroke-dasharray:none;stroke-opacity:1" />
    <path
       d="m 29299.739,28187.237 7096.337,1638.318"
       id="path136"
       style="fill:#c2c2c2;fill-opacity:0;stroke:#c2c2c2;stroke-width:118.11;stroke-linecap:round;stroke-linejoin:round;stroke-miterlimit:4;stroke-dasharray:none;stroke-opacity:1" />
    <path
       d="m 36396.076,29825.555 1638.319,-7096.337"
       id="path138"
       style="fill:#c2c2c2;fill-opacity:0;stroke:#c2c2c2;stroke-width:118.11;stroke-linecap:round;stroke-linejoin:round;stroke-miterlimit:4;stroke-dasharray:none;stroke-opacity:1" />
    <path
       d="M 38034.395,22729.218 30938.057,21090.899"
       id="path140"
       style="fill:#c2c2c2;fill-opacity:0;stroke:#c2c2c2;stroke-width:118.11;stroke-linecap:round;stroke-linejoin:round;stroke-miterlimit:4;stroke-dasharray:none;stroke-opacity:1" />
    <path
       d="M 29255.423,28379.187 27616.88,35476.499"
       id="path142"
       style="fill:#c2c2c2;fill-opacity:0;stroke:#c2c2c2;stroke-width:118.11;stroke-linecap:round;stroke-linejoin:round;stroke-miterlimit:4;stroke-dasharray:none;stroke-opacity:1" />
    <path
       d="m 27616.88,35476.499 7096.337,1638.319"
       id="path144"
       style="fill:#c2c2c2;fill-opacity:0;stroke:#c2c2c2;stroke-width:118.11;stroke-linecap:round;stroke-linejoin:round;stroke-miterlimit:4;stroke-dasharray:none;stroke-opacity:1" />
    <path
       d="m 34713.217,37114.818 1638.544,-7097.312"
       id="path146"
       style="fill:#c2c2c2;fill-opacity:0;stroke:#c2c2c2;stroke-width:118.11;stroke-linecap:round;stroke-linejoin:round;stroke-miterlimit:4;stroke-dasharray:none;stroke-opacity:1" />
    <path
       d="M 36351.761,30017.506 29255.423,28379.187"
       id="path148"
       style="fill:#c2c2c2;fill-opacity:0;stroke:#c2c2c2;stroke-width:118.11;stroke-linecap:round;stroke-linejoin:round;stroke-miterlimit:4;stroke-dasharray:none;stroke-opacity:1" />
    <path
       d="m 27572.565,35668.45 -1638.319,7096.337"
       id="path150"
       style="fill:#c2c2c2;fill-opacity:0;stroke:#c2c2c2;stroke-width:118.11;stroke-linecap:round;stroke-linejoin:round;stroke-miterlimit:4;stroke-dasharray:none;stroke-opacity:1" />
    <path
       d="m 25934.246,42764.787 7096.337,1638.32"
       id="path152"
       style="fill:#c2c2c2;fill-opacity:0;stroke:#c2c2c2;stroke-width:118.11;stroke-linecap:round;stroke-linejoin:round;stroke-miterlimit:4;stroke-dasharray:none;stroke-opacity:1" />
    <path
       d="m 33030.583,44403.106 1638.319,-7096.338"
       id="path154"
       style="fill:#c2c2c2;fill-opacity:0;stroke:#c2c2c2;stroke-width:118.11;stroke-linecap:round;stroke-linejoin:round;stroke-miterlimit:4;stroke-dasharray:none;stroke-opacity:1" />
    <path
       d="M 34668.902,37306.768 27572.565,35668.45"
       id="path156"
       style="fill:#c2c2c2;fill-opacity:0;stroke:#c2c2c2;stroke-width:118.11;stroke-linecap:round;stroke-linejoin:round;stroke-miterlimit:4;stroke-dasharray:none;stroke-opacity:1" />
    <path
       d="m 25889.931,42956.738 -1638.319,7096.337"
       id="path158"
       style="fill:#c2c2c2;fill-opacity:0;stroke:#c2c2c2;stroke-width:118.11;stroke-linecap:round;stroke-linejoin:round;stroke-miterlimit:4;stroke-dasharray:none;stroke-opacity:1" />
    <path
       d="m 24251.612,50053.075 7096.337,1638.319"
       id="path160"
       style="fill:#c2c2c2;fill-opacity:0;stroke:#c2c2c2;stroke-width:118.11;stroke-linecap:round;stroke-linejoin:round;stroke-miterlimit:4;stroke-dasharray:none;stroke-opacity:1" />
    <path
       d="m 31347.949,51691.394 1638.319,-7096.337"
       id="path162"
       style="fill:#c2c2c2;fill-opacity:0;stroke:#c2c2c2;stroke-width:118.11;stroke-linecap:round;stroke-linejoin:round;stroke-miterlimit:4;stroke-dasharray:none;stroke-opacity:1" />
    <path
       d="M 32986.268,44595.057 25889.931,42956.738"
       id="path164"
       style="fill:#c2c2c2;fill-opacity:0;stroke:#c2c2c2;stroke-width:118.11;stroke-linecap:round;stroke-linejoin:round;stroke-miterlimit:4;stroke-dasharray:none;stroke-opacity:1" />
    <path
       d="m 40174.647,14334.514 -1638.319,7096.337"
       id="path166"
       style="fill:#c2c2c2;fill-opacity:0;stroke:#c2c2c2;stroke-width:118.11;stroke-linecap:round;stroke-linejoin:round;stroke-miterlimit:4;stroke-dasharray:none;stroke-opacity:1" />
    <path
       d="m 38536.328,21430.851 7097.312,1638.544"
       id="path168"
       style="fill:#c2c2c2;fill-opacity:0;stroke:#c2c2c2;stroke-width:118.11;stroke-linecap:round;stroke-linejoin:round;stroke-miterlimit:4;stroke-dasharray:none;stroke-opacity:1" />
    <path
       d="m 45633.64,23069.395 1638.318,-7096.337"
       id="path170"
       style="fill:#c2c2c2;fill-opacity:0;stroke:#c2c2c2;stroke-width:118.11;stroke-linecap:round;stroke-linejoin:round;stroke-miterlimit:4;stroke-dasharray:none;stroke-opacity:1" />
    <path
       d="M 47271.958,15973.058 40174.647,14334.514"
       id="path172"
       style="fill:#c2c2c2;fill-opacity:0;stroke:#c2c2c2;stroke-width:118.11;stroke-linecap:round;stroke-linejoin:round;stroke-miterlimit:4;stroke-dasharray:none;stroke-opacity:1" />
    <path
       d="m 38492.013,21622.802 -1638.319,7096.337"
       id="path174"
       style="fill:#c2c2c2;fill-opacity:0;stroke:#c2c2c2;stroke-width:118.11;stroke-linecap:round;stroke-linejoin:round;stroke-miterlimit:4;stroke-dasharray:none;stroke-opacity:1" />
    <path
       d="m 36853.694,28719.139 7097.312,1638.544"
       id="path176"
       style="fill:#c2c2c2;fill-opacity:0;stroke:#c2c2c2;stroke-width:118.11;stroke-linecap:round;stroke-linejoin:round;stroke-miterlimit:4;stroke-dasharray:none;stroke-opacity:1" />
    <path
       d="m 43951.006,30357.683 1638.318,-7096.337"
       id="path178"
       style="fill:#c2c2c2;fill-opacity:0;stroke:#c2c2c2;stroke-width:118.11;stroke-linecap:round;stroke-linejoin:round;stroke-miterlimit:4;stroke-dasharray:none;stroke-opacity:1" />
    <path
       d="M 45589.324,23261.346 38492.013,21622.802"
       id="path180"
       style="fill:#c2c2c2;fill-opacity:0;stroke:#c2c2c2;stroke-width:118.11;stroke-linecap:round;stroke-linejoin:round;stroke-miterlimit:4;stroke-dasharray:none;stroke-opacity:1" />
    <path
       d="m 36809.379,28911.09 -1638.544,7097.312"
       id="path182"
       style="fill:#c2c2c2;fill-opacity:0;stroke:#c2c2c2;stroke-width:118.11;stroke-linecap:round;stroke-linejoin:round;stroke-miterlimit:4;stroke-dasharray:none;stroke-opacity:1" />
    <path
       d="m 35170.835,36008.402 7097.312,1638.543"
       id="path184"
       style="fill:#c2c2c2;fill-opacity:0;stroke:#c2c2c2;stroke-width:118.11;stroke-linecap:round;stroke-linejoin:round;stroke-miterlimit:4;stroke-dasharray:none;stroke-opacity:1" />
    <path
       d="M 42268.147,37646.945 43906.69,30549.634"
       id="path186"
       style="fill:#c2c2c2;fill-opacity:0;stroke:#c2c2c2;stroke-width:118.11;stroke-linecap:round;stroke-linejoin:round;stroke-miterlimit:4;stroke-dasharray:none;stroke-opacity:1" />
    <path
       d="M 43906.69,30549.634 36809.379,28911.09"
       id="path188"
       style="fill:#c2c2c2;fill-opacity:0;stroke:#c2c2c2;stroke-width:118.11;stroke-linecap:round;stroke-linejoin:round;stroke-miterlimit:4;stroke-dasharray:none;stroke-opacity:1" />
    <path
       d="m 35124.274,36170.071 -1638.543,7097.312"
       id="path190"
       style="fill:#c2c2c2;fill-opacity:0;stroke:#c2c2c2;stroke-width:118.11;stroke-linecap:round;stroke-linejoin:round;stroke-miterlimit:4;stroke-dasharray:none;stroke-opacity:1" />
    <path
       d="m 33485.731,43267.383 7096.337,1638.319"
       id="path192"
       style="fill:#c2c2c2;fill-opacity:0;stroke:#c2c2c2;stroke-width:118.11;stroke-linecap:round;stroke-linejoin:round;stroke-miterlimit:4;stroke-dasharray:none;stroke-opacity:1" />
    <path
       d="M 40582.068,44905.702 42220.611,37808.39"
       id="path194"
       style="fill:#c2c2c2;fill-opacity:0;stroke:#c2c2c2;stroke-width:118.11;stroke-linecap:round;stroke-linejoin:round;stroke-miterlimit:4;stroke-dasharray:none;stroke-opacity:1" />
    <path
       d="M 42220.611,37808.39 35124.274,36170.071"
       id="path196"
       style="fill:#c2c2c2;fill-opacity:0;stroke:#c2c2c2;stroke-width:118.11;stroke-linecap:round;stroke-linejoin:round;stroke-miterlimit:4;stroke-dasharray:none;stroke-opacity:1" />
    <path
       d="m 33443.886,43488.641 -1638.319,7096.337"
       id="path198"
       style="fill:#c2c2c2;fill-opacity:0;stroke:#c2c2c2;stroke-width:118.11;stroke-linecap:round;stroke-linejoin:round;stroke-miterlimit:4;stroke-dasharray:none;stroke-opacity:1" />
    <path
       d="m 31805.567,50584.978 7097.312,1638.544"
       id="path200"
       style="fill:#c2c2c2;fill-opacity:0;stroke:#c2c2c2;stroke-width:118.11;stroke-linecap:round;stroke-linejoin:round;stroke-miterlimit:4;stroke-dasharray:none;stroke-opacity:1" />
    <path
       d="m 38902.879,52223.522 1638.319,-7096.338"
       id="path202"
       style="fill:#c2c2c2;fill-opacity:0;stroke:#c2c2c2;stroke-width:118.11;stroke-linecap:round;stroke-linejoin:round;stroke-miterlimit:4;stroke-dasharray:none;stroke-opacity:1" />
    <path
       d="M 40541.198,45127.184 33443.886,43488.641"
       id="path204"
       style="fill:#c2c2c2;fill-opacity:0;stroke:#c2c2c2;stroke-width:118.11;stroke-linecap:round;stroke-linejoin:round;stroke-miterlimit:4;stroke-dasharray:none;stroke-opacity:1" />
    <path
       d="m 47596.63,15442.495 -1638.093,7095.362"
       id="path206"
       style="fill:#c2c2c2;fill-opacity:0;stroke:#c2c2c2;stroke-width:118.11;stroke-linecap:round;stroke-linejoin:round;stroke-miterlimit:4;stroke-dasharray:none;stroke-opacity:1" />
    <path
       d="m 45958.537,22537.857 7096.337,1638.319"
       id="path208"
       style="fill:#c2c2c2;fill-opacity:0;stroke:#c2c2c2;stroke-width:118.11;stroke-linecap:round;stroke-linejoin:round;stroke-miterlimit:4;stroke-dasharray:none;stroke-opacity:1" />
    <path
       d="m 53054.874,24176.176 1638.093,-7095.363"
       id="path210"
       style="fill:#c2c2c2;fill-opacity:0;stroke:#c2c2c2;stroke-width:118.11;stroke-linecap:round;stroke-linejoin:round;stroke-miterlimit:4;stroke-dasharray:none;stroke-opacity:1" />
    <path
       d="M 54692.967,17080.813 47596.63,15442.495"
       id="path212"
       style="fill:#c2c2c2;fill-opacity:0;stroke:#c2c2c2;stroke-width:118.11;stroke-linecap:round;stroke-linejoin:round;stroke-miterlimit:4;stroke-dasharray:none;stroke-opacity:1" />
    <path
       d="M 45914.221,22729.808 44275.678,29827.12"
       id="path214"
       style="fill:#c2c2c2;fill-opacity:0;stroke:#c2c2c2;stroke-width:118.11;stroke-linecap:round;stroke-linejoin:round;stroke-miterlimit:4;stroke-dasharray:none;stroke-opacity:1" />
    <path
       d="m 44275.678,29827.12 7096.337,1638.318"
       id="path216"
       style="fill:#c2c2c2;fill-opacity:0;stroke:#c2c2c2;stroke-width:118.11;stroke-linecap:round;stroke-linejoin:round;stroke-miterlimit:4;stroke-dasharray:none;stroke-opacity:1" />
    <path
       d="m 51372.015,31465.438 1638.543,-7097.311"
       id="path218"
       style="fill:#c2c2c2;fill-opacity:0;stroke:#c2c2c2;stroke-width:118.11;stroke-linecap:round;stroke-linejoin:round;stroke-miterlimit:4;stroke-dasharray:none;stroke-opacity:1" />
    <path
       d="M 53010.558,24368.127 45914.221,22729.808"
       id="path220"
       style="fill:#c2c2c2;fill-opacity:0;stroke:#c2c2c2;stroke-width:118.11;stroke-linecap:round;stroke-linejoin:round;stroke-miterlimit:4;stroke-dasharray:none;stroke-opacity:1" />
    <path
       d="m 44231.362,30019.071 -1638.318,7096.337"
       id="path222"
       style="fill:#c2c2c2;fill-opacity:0;stroke:#c2c2c2;stroke-width:118.11;stroke-linecap:round;stroke-linejoin:round;stroke-miterlimit:4;stroke-dasharray:none;stroke-opacity:1" />
    <path
       d="m 42593.044,37115.408 7096.337,1638.32"
       id="path224"
       style="fill:#c2c2c2;fill-opacity:0;stroke:#c2c2c2;stroke-width:118.11;stroke-linecap:round;stroke-linejoin:round;stroke-miterlimit:4;stroke-dasharray:none;stroke-opacity:1" />
    <path
       d="M 49689.381,38753.727 51327.7,31657.389"
       id="path226"
       style="fill:#c2c2c2;fill-opacity:0;stroke:#c2c2c2;stroke-width:118.11;stroke-linecap:round;stroke-linejoin:round;stroke-miterlimit:4;stroke-dasharray:none;stroke-opacity:1" />
    <path
       d="M 51327.7,31657.389 44231.362,30019.071"
       id="path228"
       style="fill:#c2c2c2;fill-opacity:0;stroke:#c2c2c2;stroke-width:118.11;stroke-linecap:round;stroke-linejoin:round;stroke-miterlimit:4;stroke-dasharray:none;stroke-opacity:1" />
    <path
       d="M 42548.728,37307.359 40910.41,44403.696"
       id="path230"
       style="fill:#c2c2c2;fill-opacity:0;stroke:#c2c2c2;stroke-width:118.11;stroke-linecap:round;stroke-linejoin:round;stroke-miterlimit:4;stroke-dasharray:none;stroke-opacity:1" />
    <path
       d="m 40910.41,44403.696 7096.337,1638.32"
       id="path232"
       style="fill:#c2c2c2;fill-opacity:0;stroke:#c2c2c2;stroke-width:118.11;stroke-linecap:round;stroke-linejoin:round;stroke-miterlimit:4;stroke-dasharray:none;stroke-opacity:1" />
    <path
       d="m 48006.747,46042.015 1638.319,-7096.338"
       id="path234"
       style="fill:#c2c2c2;fill-opacity:0;stroke:#c2c2c2;stroke-width:118.11;stroke-linecap:round;stroke-linejoin:round;stroke-miterlimit:4;stroke-dasharray:none;stroke-opacity:1" />
    <path
       d="M 49645.066,38945.677 42548.728,37307.359"
       id="path236"
       style="fill:#c2c2c2;fill-opacity:0;stroke:#c2c2c2;stroke-width:118.11;stroke-linecap:round;stroke-linejoin:round;stroke-miterlimit:4;stroke-dasharray:none;stroke-opacity:1" />
    <path
       d="m 40866.095,44595.647 -1638.544,7097.312"
       id="path238"
       style="fill:#c2c2c2;fill-opacity:0;stroke:#c2c2c2;stroke-width:118.11;stroke-linecap:round;stroke-linejoin:round;stroke-miterlimit:4;stroke-dasharray:none;stroke-opacity:1" />
    <path
       d="m 39227.551,51692.959 7096.337,1638.318"
       id="path240"
       style="fill:#c2c2c2;fill-opacity:0;stroke:#c2c2c2;stroke-width:118.11;stroke-linecap:round;stroke-linejoin:round;stroke-miterlimit:4;stroke-dasharray:none;stroke-opacity:1" />
    <path
       d="m 46323.888,53331.277 1638.544,-7097.311"
       id="path242"
       style="fill:#c2c2c2;fill-opacity:0;stroke:#c2c2c2;stroke-width:118.11;stroke-linecap:round;stroke-linejoin:round;stroke-miterlimit:4;stroke-dasharray:none;stroke-opacity:1" />
    <path
       d="M 47962.432,46233.966 40866.095,44595.647"
       id="path244"
       style="fill:#c2c2c2;fill-opacity:0;stroke:#c2c2c2;stroke-width:118.11;stroke-linecap:round;stroke-linejoin:round;stroke-miterlimit:4;stroke-dasharray:none;stroke-opacity:1" />
    <path
       d="m 54752.197,17700.007 -1638.318,7096.337"
       id="path246"
       style="fill:#c2c2c2;fill-opacity:0;stroke:#c2c2c2;stroke-width:118.11;stroke-linecap:round;stroke-linejoin:round;stroke-miterlimit:4;stroke-dasharray:none;stroke-opacity:1" />
    <path
       d="m 53113.879,24796.344 7096.337,1638.319"
       id="path248"
       style="fill:#c2c2c2;fill-opacity:0;stroke:#c2c2c2;stroke-width:118.11;stroke-linecap:round;stroke-linejoin:round;stroke-miterlimit:4;stroke-dasharray:none;stroke-opacity:1" />
    <path
       d="m 60210.216,26434.663 1638.318,-7096.338"
       id="path250"
       style="fill:#c2c2c2;fill-opacity:0;stroke:#c2c2c2;stroke-width:118.11;stroke-linecap:round;stroke-linejoin:round;stroke-miterlimit:4;stroke-dasharray:none;stroke-opacity:1" />
    <path
       d="M 61848.534,19338.325 54752.197,17700.007"
       id="path252"
       style="fill:#c2c2c2;fill-opacity:0;stroke:#c2c2c2;stroke-width:118.11;stroke-linecap:round;stroke-linejoin:round;stroke-miterlimit:4;stroke-dasharray:none;stroke-opacity:1" />
    <path
       d="m 53069.563,24988.295 -1638.318,7096.337"
       id="path254"
       style="fill:#c2c2c2;fill-opacity:0;stroke:#c2c2c2;stroke-width:118.11;stroke-linecap:round;stroke-linejoin:round;stroke-miterlimit:4;stroke-dasharray:none;stroke-opacity:1" />
    <path
       d="m 51431.245,32084.632 7096.337,1638.319"
       id="path256"
       style="fill:#c2c2c2;fill-opacity:0;stroke:#c2c2c2;stroke-width:118.11;stroke-linecap:round;stroke-linejoin:round;stroke-miterlimit:4;stroke-dasharray:none;stroke-opacity:1" />
    <path
       d="M 58527.582,33722.951 60165.9,26626.614"
       id="path258"
       style="fill:#c2c2c2;fill-opacity:0;stroke:#c2c2c2;stroke-width:118.11;stroke-linecap:round;stroke-linejoin:round;stroke-miterlimit:4;stroke-dasharray:none;stroke-opacity:1" />
    <path
       d="M 60165.9,26626.614 53069.563,24988.295"
       id="path260"
       style="fill:#c2c2c2;fill-opacity:0;stroke:#c2c2c2;stroke-width:118.11;stroke-linecap:round;stroke-linejoin:round;stroke-miterlimit:4;stroke-dasharray:none;stroke-opacity:1" />
    <path
       d="m 51386.929,32276.583 -1638.543,7097.312"
       id="path262"
       style="fill:#c2c2c2;fill-opacity:0;stroke:#c2c2c2;stroke-width:118.11;stroke-linecap:round;stroke-linejoin:round;stroke-miterlimit:4;stroke-dasharray:none;stroke-opacity:1" />
    <path
       d="m 49748.386,39373.895 7096.337,1638.318"
       id="path264"
       style="fill:#c2c2c2;fill-opacity:0;stroke:#c2c2c2;stroke-width:118.11;stroke-linecap:round;stroke-linejoin:round;stroke-miterlimit:4;stroke-dasharray:none;stroke-opacity:1" />
    <path
       d="m 56844.723,41012.213 1638.543,-7097.311"
       id="path266"
       style="fill:#c2c2c2;fill-opacity:0;stroke:#c2c2c2;stroke-width:118.11;stroke-linecap:round;stroke-linejoin:round;stroke-miterlimit:4;stroke-dasharray:none;stroke-opacity:1" />
    <path
       d="M 58483.266,33914.902 51386.929,32276.583"
       id="path268"
       style="fill:#c2c2c2;fill-opacity:0;stroke:#c2c2c2;stroke-width:118.11;stroke-linecap:round;stroke-linejoin:round;stroke-miterlimit:4;stroke-dasharray:none;stroke-opacity:1" />
    <path
       d="m 49704.295,39564.871 -1638.543,7097.312"
       id="path270"
       style="fill:#c2c2c2;fill-opacity:0;stroke:#c2c2c2;stroke-width:118.11;stroke-linecap:round;stroke-linejoin:round;stroke-miterlimit:4;stroke-dasharray:none;stroke-opacity:1" />
    <path
       d="m 48065.752,46662.183 7096.337,1638.318"
       id="path272"
       style="fill:#c2c2c2;fill-opacity:0;stroke:#c2c2c2;stroke-width:118.11;stroke-linecap:round;stroke-linejoin:round;stroke-miterlimit:4;stroke-dasharray:none;stroke-opacity:1" />
    <path
       d="M 55162.089,48300.501 56800.633,41203.19"
       id="path274"
       style="fill:#c2c2c2;fill-opacity:0;stroke:#c2c2c2;stroke-width:118.11;stroke-linecap:round;stroke-linejoin:round;stroke-miterlimit:4;stroke-dasharray:none;stroke-opacity:1" />
    <path
       d="M 56800.633,41203.19 49704.295,39564.871"
       id="path276"
       style="fill:#c2c2c2;fill-opacity:0;stroke:#c2c2c2;stroke-width:118.11;stroke-linecap:round;stroke-linejoin:round;stroke-miterlimit:4;stroke-dasharray:none;stroke-opacity:1" />
    <path
       d="m 48021.437,46854.134 -1638.319,7096.337"
       id="path278"
       style="fill:#c2c2c2;fill-opacity:0;stroke:#c2c2c2;stroke-width:118.11;stroke-linecap:round;stroke-linejoin:round;stroke-miterlimit:4;stroke-dasharray:none;stroke-opacity:1" />
    <path
       d="m 46383.118,53950.471 7096.337,1638.318"
       id="path280"
       style="fill:#c2c2c2;fill-opacity:0;stroke:#c2c2c2;stroke-width:118.11;stroke-linecap:round;stroke-linejoin:round;stroke-miterlimit:4;stroke-dasharray:none;stroke-opacity:1" />
    <path
       d="m 53479.455,55588.789 1638.319,-7096.337"
       id="path282"
       style="fill:#c2c2c2;fill-opacity:0;stroke:#c2c2c2;stroke-width:118.11;stroke-linecap:round;stroke-linejoin:round;stroke-miterlimit:4;stroke-dasharray:none;stroke-opacity:1" />
    <path
       d="M 55117.774,48492.452 48021.437,46854.134"
       id="path284"
       style="fill:#c2c2c2;fill-opacity:0;stroke:#c2c2c2;stroke-width:118.11;stroke-linecap:round;stroke-linejoin:round;stroke-miterlimit:4;stroke-dasharray:none;stroke-opacity:1" />
    <path
       d="m 61907.764,19957.519 -1638.543,7097.312"
       id="path286"
       style="fill:#c2c2c2;fill-opacity:0;stroke:#c2c2c2;stroke-width:118.11;stroke-linecap:round;stroke-linejoin:round;stroke-miterlimit:4;stroke-dasharray:none;stroke-opacity:1" />
    <path
       d="m 60269.221,27054.831 7097.311,1638.543"
       id="path288"
       style="fill:#c2c2c2;fill-opacity:0;stroke:#c2c2c2;stroke-width:118.11;stroke-linecap:round;stroke-linejoin:round;stroke-miterlimit:4;stroke-dasharray:none;stroke-opacity:1" />
    <path
       d="m 67366.532,28693.374 1638.544,-7097.311"
       id="path290"
       style="fill:#c2c2c2;fill-opacity:0;stroke:#c2c2c2;stroke-width:118.11;stroke-linecap:round;stroke-linejoin:round;stroke-miterlimit:4;stroke-dasharray:none;stroke-opacity:1" />
    <path
       d="M 69005.076,21596.063 61907.764,19957.519"
       id="path292"
       style="fill:#c2c2c2;fill-opacity:0;stroke:#c2c2c2;stroke-width:118.11;stroke-linecap:round;stroke-linejoin:round;stroke-miterlimit:4;stroke-dasharray:none;stroke-opacity:1" />
    <path
       d="m 60225.13,27245.807 -1638.543,7097.312"
       id="path294"
       style="fill:#c2c2c2;fill-opacity:0;stroke:#c2c2c2;stroke-width:118.11;stroke-linecap:round;stroke-linejoin:round;stroke-miterlimit:4;stroke-dasharray:none;stroke-opacity:1" />
    <path
       d="m 58586.587,34343.119 7097.311,1638.543"
       id="path296"
       style="fill:#c2c2c2;fill-opacity:0;stroke:#c2c2c2;stroke-width:118.11;stroke-linecap:round;stroke-linejoin:round;stroke-miterlimit:4;stroke-dasharray:none;stroke-opacity:1" />
    <path
       d="m 65683.898,35981.662 1638.544,-7097.311"
       id="path298"
       style="fill:#c2c2c2;fill-opacity:0;stroke:#c2c2c2;stroke-width:118.11;stroke-linecap:round;stroke-linejoin:round;stroke-miterlimit:4;stroke-dasharray:none;stroke-opacity:1" />
    <path
       d="M 67322.442,28884.351 60225.13,27245.807"
       id="path300"
       style="fill:#c2c2c2;fill-opacity:0;stroke:#c2c2c2;stroke-width:118.11;stroke-linecap:round;stroke-linejoin:round;stroke-miterlimit:4;stroke-dasharray:none;stroke-opacity:1" />
    <path
       d="m 58542.271,34535.07 -1638.318,7096.337"
       id="path302"
       style="fill:#c2c2c2;fill-opacity:0;stroke:#c2c2c2;stroke-width:118.11;stroke-linecap:round;stroke-linejoin:round;stroke-miterlimit:4;stroke-dasharray:none;stroke-opacity:1" />
    <path
       d="m 56903.953,41631.407 7097.311,1638.543"
       id="path304"
       style="fill:#c2c2c2;fill-opacity:0;stroke:#c2c2c2;stroke-width:118.11;stroke-linecap:round;stroke-linejoin:round;stroke-miterlimit:4;stroke-dasharray:none;stroke-opacity:1" />
    <path
       d="m 64001.264,43269.95 1638.319,-7096.337"
       id="path306"
       style="fill:#c2c2c2;fill-opacity:0;stroke:#c2c2c2;stroke-width:118.11;stroke-linecap:round;stroke-linejoin:round;stroke-miterlimit:4;stroke-dasharray:none;stroke-opacity:1" />
    <path
       d="M 65639.583,36173.613 58542.271,34535.07"
       id="path308"
       style="fill:#c2c2c2;fill-opacity:0;stroke:#c2c2c2;stroke-width:118.11;stroke-linecap:round;stroke-linejoin:round;stroke-miterlimit:4;stroke-dasharray:none;stroke-opacity:1" />
    <path
       d="m 56859.637,41823.358 -1638.318,7096.337"
       id="path310"
       style="fill:#c2c2c2;fill-opacity:0;stroke:#c2c2c2;stroke-width:118.11;stroke-linecap:round;stroke-linejoin:round;stroke-miterlimit:4;stroke-dasharray:none;stroke-opacity:1" />
    <path
       d="m 55221.319,48919.695 7097.311,1638.543"
       id="path312"
       style="fill:#c2c2c2;fill-opacity:0;stroke:#c2c2c2;stroke-width:118.11;stroke-linecap:round;stroke-linejoin:round;stroke-miterlimit:4;stroke-dasharray:none;stroke-opacity:1" />
    <path
       d="m 62318.63,50558.238 1638.319,-7096.337"
       id="path314"
       style="fill:#c2c2c2;fill-opacity:0;stroke:#c2c2c2;stroke-width:118.11;stroke-linecap:round;stroke-linejoin:round;stroke-miterlimit:4;stroke-dasharray:none;stroke-opacity:1" />
    <path
       d="M 63956.949,43461.901 56859.637,41823.358"
       id="path316"
       style="fill:#c2c2c2;fill-opacity:0;stroke:#c2c2c2;stroke-width:118.11;stroke-linecap:round;stroke-linejoin:round;stroke-miterlimit:4;stroke-dasharray:none;stroke-opacity:1" />
    <path
       d="M 83455.842,61269.608 78128.787,56301.961"
       id="path318"
       style="fill:#c2c2c2;fill-opacity:0;stroke:#c2c2c2;stroke-width:118.11;stroke-linecap:round;stroke-linejoin:round;stroke-miterlimit:4;stroke-dasharray:none;stroke-opacity:1" />
    <path
       d="M 78128.787,56301.961 73162.34,61628.266"
       id="path320"
       style="fill:#c2c2c2;fill-opacity:0;stroke:#c2c2c2;stroke-width:118.11;stroke-linecap:round;stroke-linejoin:round;stroke-miterlimit:4;stroke-dasharray:none;stroke-opacity:1" />
    <path
       d="m 73162.34,61628.266 5326.08,4967.422"
       id="path322"
       style="fill:#c2c2c2;fill-opacity:0;stroke:#c2c2c2;stroke-width:118.11;stroke-linecap:round;stroke-linejoin:round;stroke-miterlimit:4;stroke-dasharray:none;stroke-opacity:1" />
    <path
       d="m 78488.42,66595.688 4967.422,-5326.08"
       id="path324"
       style="fill:#c2c2c2;fill-opacity:0;stroke:#c2c2c2;stroke-width:118.11;stroke-linecap:round;stroke-linejoin:round;stroke-miterlimit:4;stroke-dasharray:none;stroke-opacity:1" />
    <path
       d="M 69197.026,21640.378 67558.483,28737.69"
       id="path326"
       style="fill:#c2c2c2;fill-opacity:0;stroke:#c2c2c2;stroke-width:118.11;stroke-linecap:round;stroke-linejoin:round;stroke-miterlimit:4;stroke-dasharray:none;stroke-opacity:1" />
    <path
       d="m 67558.483,28737.69 7096.337,1638.318"
       id="path328"
       style="fill:#c2c2c2;fill-opacity:0;stroke:#c2c2c2;stroke-width:118.11;stroke-linecap:round;stroke-linejoin:round;stroke-miterlimit:4;stroke-dasharray:none;stroke-opacity:1" />
    <path
       d="m 74654.82,30376.008 1638.544,-7097.312"
       id="path330"
       style="fill:#c2c2c2;fill-opacity:0;stroke:#c2c2c2;stroke-width:118.11;stroke-linecap:round;stroke-linejoin:round;stroke-miterlimit:4;stroke-dasharray:none;stroke-opacity:1" />
    <path
       d="M 76293.364,23278.696 69197.026,21640.378"
       id="path332"
       style="fill:#c2c2c2;fill-opacity:0;stroke:#c2c2c2;stroke-width:118.11;stroke-linecap:round;stroke-linejoin:round;stroke-miterlimit:4;stroke-dasharray:none;stroke-opacity:1" />
  </g>
</svg>
