  0
SECTION
  2
HEADER
  9
$ACADVER
  1
AC1014
  9
$HANDSEED
  5
FFFF
  9
$MEASUREMENT
 70
     1
  0
ENDSEC
  0
SECTION
  2
TABLES
  0
TABLE
  2
VPORT
  5
8
330
0
100
AcDbSymbolTable
 70
     4
  0
VPORT
  5
2E
330
8
100
AcDbSymbolTableRecord
100
AcDbViewportTableRecord
  2
*ACTIVE
 70
     0
 10
0.0
 20
0.0
 11
1.0
 21
1.0
 12
210.0
 22
148.5
 13
0.0
 23
0.0
 14
10.0
 24
10.0
 15
10.0
 25
10.0
 16
0.0
 26
0.0
 36
1.0
 17
0.0
 27
0.0
 37
0.0
 40
341.0
 41
1.24
 42
50.0
 43
0.0
 44
0.0
 50
0.0
 51
0.0
 71
     0
 72
   100
 73
     1
 74
     3
 75
     0
 76
     0
 77
     0
 78
     0
  0
ENDTAB
  0
TABLE
  2
LTYPE
  5
5
330
0
100
AcDbSymbolTable
 70
     1
  0
LTYPE
  5
14
330
5
100
AcDbSymbolTableRecord
100
AcDbLinetypeTableRecord
  2
BYBLOCK
 70
     0
  3

 72
    65
 73
     0
 40
0.0
  0
LTYPE
  5
15
330
5
100
AcDbSymbolTableRecord
100
AcDbLinetypeTableRecord
  2
BYLAYER
 70
     0
  3

 72
    65
 73
     0
 40
0.0
  0
LTYPE
  5
16
330
5
100
AcDbSymbolTableRecord
100
AcDbLinetypeTableRecord
  2
CONTINUOUS
 70
     0
  3
Solid line
 72
    65
 73
     0
 40
0.0
  0
ENDTAB
  0
TABLE
  2
LAYER
  5
2
100
AcDbSymbolTable
 70
2
  0
LAYER
  5
50
100
AcDbSymbolTableRecord
100
AcDbLayerTableRecord
  2
0
 70
0
  6
CONTINUOUS
  0
LAYER
  5
51
100
AcDbSymbolTableRecord
100
AcDbLayerTableRecord
  2
cut.coverTop
 70
0
  6
CONTINUOUS
  0
ENDTAB
  0
TABLE
  2
STYLE
  5
3
330
0
100
AcDbSymbolTable
 70
     1
  0
STYLE
  5
11
330
3
100
AcDbSymbolTableRecord
100
AcDbTextStyleTableRecord
  2
STANDARD
 70
     0
 40
0.0
 41
1.0
 50
0.0
 71
     0
 42
2.5
  3
txt
  4

  0
ENDTAB
  0
TABLE
  2
VIEW
  5
6
330
0
100
AcDbSymbolTable
 70
     0
  0
ENDTAB
  0
TABLE
  2
UCS
  5
7
330
0
100
AcDbSymbolTable
 70
     0
  0
ENDTAB
  0
TABLE
  2
APPID
  5
9
330
0
100
AcDbSymbolTable
 70
     2
  0
APPID
  5
12
330
9
100
AcDbSymbolTableRecord
100
AcDbRegAppTableRecord
  2
ACAD
 70
     0
  0
ENDTAB
  0
TABLE
  2
DIMSTYLE
  5
A
330
0
100
AcDbSymbolTable
 70
     1
  0
DIMSTYLE
105
27
330
A
100
AcDbSymbolTableRecord
100
AcDbDimStyleTableRecord
  2
ISO-25
 70
     0
  3

  4

  5

  6

  7

 40
1.0
 41
2.5
 42
0.625
 43
3.75
 44
1.25
 45
0.0
 46
0.0
 47
0.0
 48
0.0
140
2.5
141
2.5
142
0.0
143
0.03937007874016
144
1.0
145
0.0
146
1.0
147
0.625
 71
     0
 72
     0
 73
     0
 74
     0
 75
     0
 76
     0
 77
     1
 78
     8
170
     0
171
     3
172
     1
173
     0
174
     0
175
     0
176
     0
177
     0
178
     0
270
     2
271
     2
272
     2
273
     2
274
     3
340
11
275
     0
280
     0
281
     0
282
     0
283
     0
284
     8
285
     0
286
     0
287
     3
288
     0
  0
ENDTAB
  0
TABLE
  2
BLOCK_RECORD
  5
1
330
0
100
AcDbSymbolTable
 70
     1
  0
BLOCK_RECORD
  5
1F
330
1
100
AcDbSymbolTableRecord
100
AcDbBlockTableRecord
  2
*MODEL_SPACE
  0
BLOCK_RECORD
  5
1B
330
1
100
AcDbSymbolTableRecord
100
AcDbBlockTableRecord
  2
*PAPER_SPACE
  0
ENDTAB
  0
ENDSEC
  0
SECTION
  2
BLOCKS
  0
BLOCK
  5
20
330
1F
100
AcDbEntity
  8
0
100
AcDbBlockBegin
  2
*MODEL_SPACE
 70
     0
 10
0.0
 20
0.0
 30
0.0
  3
*MODEL_SPACE
  1

  0
ENDBLK
  5
21
330
1F
100
AcDbEntity
  8
0
100
AcDbBlockEnd
  0
BLOCK
  5
1C
330
1B
100
AcDbEntity
 67
     1
  8
0
100
AcDbBlockBegin
  2
*PAPER_SPACE
  1

  0
ENDBLK
  5
1D
330
1B
100
AcDbEntity
 67
     1
  8
0
100
AcDbBlockEnd
  0
ENDSEC
  0
SECTION
  2
ENTITIES
  0
SPLINE
  5
100
100
AcDbEntity
  8
cut.coverTop
 62
1
100
AcDbSpline
 70
8
 71
3
 72
8
 73
4
 74
0
 40
0
 40
0
 40
0
 40
0
 40
1
 40
1
 40
1
 40
1
 10
18.599989
 20
-93.079948
 30
0.0
 10
18.599989
 20
-93.963603
 30
0.0
 10
17.883645
 20
-94.679946
 30
0.0
 10
16.999990
 20
-94.679946
 30
0.0
  0
SPLINE
  5
101
100
AcDbEntity
  8
cut.coverTop
 62
1
100
AcDbSpline
 70
8
 71
3
 72
8
 73
4
 74
0
 40
0
 40
0
 40
0
 40
0
 40
1
 40
1
 40
1
 40
1
 10
16.999990
 20
-94.679946
 30
0.0
 10
16.116335
 20
-94.679946
 30
0.0
 10
15.399991
 20
-93.963603
 30
0.0
 10
15.399991
 20
-93.079948
 30
0.0
  0
SPLINE
  5
102
100
AcDbEntity
  8
cut.coverTop
 62
1
100
AcDbSpline
 70
8
 71
3
 72
8
 73
4
 74
0
 40
0
 40
0
 40
0
 40
0
 40
1
 40
1
 40
1
 40
1
 10
15.399991
 20
-93.079948
 30
0.0
 10
15.399991
 20
-92.196293
 30
0.0
 10
16.116335
 20
-91.479949
 30
0.0
 10
16.999990
 20
-91.479949
 30
0.0
  0
SPLINE
  5
103
100
AcDbEntity
  8
cut.coverTop
 62
1
100
AcDbSpline
 70
8
 71
3
 72
8
 73
4
 74
0
 40
0
 40
0
 40
0
 40
0
 40
1
 40
1
 40
1
 40
1
 10
16.999990
 20
-91.479949
 30
0.0
 10
17.883645
 20
-91.479949
 30
0.0
 10
18.599989
 20
-92.196293
 30
0.0
 10
18.599989
 20
-93.079948
 30
0.0
  0
SPLINE
  5
104
100
AcDbEntity
  8
cut.coverTop
 62
1
100
AcDbSpline
 70
8
 71
3
 72
8
 73
4
 74
0
 40
0
 40
0
 40
0
 40
0
 40
1
 40
1
 40
1
 40
1
 10
61.599965
 20
-13.079993
 30
0.0
 10
61.599966
 20
-13.963648
 30
0.0
 10
60.883622
 20
-14.679992
 30
0.0
 10
59.999967
 20
-14.679992
 30
0.0
  0
SPLINE
  5
105
100
AcDbEntity
  8
cut.coverTop
 62
1
100
AcDbSpline
 70
8
 71
3
 72
8
 73
4
 74
0
 40
0
 40
0
 40
0
 40
0
 40
1
 40
1
 40
1
 40
1
 10
59.999967
 20
-14.679992
 30
0.0
 10
59.116312
 20
-14.679992
 30
0.0
 10
58.399968
 20
-13.963648
 30
0.0
 10
58.399969
 20
-13.079993
 30
0.0
  0
SPLINE
  5
106
100
AcDbEntity
  8
cut.coverTop
 62
1
100
AcDbSpline
 70
8
 71
3
 72
8
 73
4
 74
0
 40
0
 40
0
 40
0
 40
0
 40
1
 40
1
 40
1
 40
1
 10
58.399969
 20
-13.079993
 30
0.0
 10
58.399969
 20
-12.196338
 30
0.0
 10
59.116312
 20
-11.479994
 30
0.0
 10
59.999967
 20
-11.479994
 30
0.0
  0
SPLINE
  5
107
100
AcDbEntity
  8
cut.coverTop
 62
1
100
AcDbSpline
 70
8
 71
3
 72
8
 73
4
 74
0
 40
0
 40
0
 40
0
 40
0
 40
1
 40
1
 40
1
 40
1
 10
59.999967
 20
-11.479994
 30
0.0
 10
60.883622
 20
-11.479994
 30
0.0
 10
61.599965
 20
-12.196338
 30
0.0
 10
61.599965
 20
-13.079993
 30
0.0
  0
LWPOLYLINE
  5
108
100
AcDbEntity
  8
cut.coverTop
 62
1
100
AcDbPolyline
 90
1
 70
1
 10
18.599989
 20
-93.079948
 30
0.0
  0
SPLINE
  5
109
100
AcDbEntity
  8
cut.coverTop
 62
1
100
AcDbSpline
 70
8
 71
3
 72
8
 73
4
 74
0
 40
0
 40
0
 40
0
 40
0
 40
1
 40
1
 40
1
 40
1
 10
341.599818
 20
-13.079993
 30
0.0
 10
341.599818
 20
-13.963647
 30
0.0
 10
340.883476
 20
-14.679990
 30
0.0
 10
339.999822
 20
-14.679992
 30
0.0
  0
SPLINE
  5
10a
100
AcDbEntity
  8
cut.coverTop
 62
1
100
AcDbSpline
 70
8
 71
3
 72
8
 73
4
 74
0
 40
0
 40
0
 40
0
 40
0
 40
1
 40
1
 40
1
 40
1
 10
339.999822
 20
-14.679992
 30
0.0
 10
339.575472
 20
-14.679998
 30
0.0
 10
339.168500
 20
-14.511430
 30
0.0
 10
338.868438
 20
-14.211371
 30
0.0
  0
SPLINE
  5
10b
100
AcDbEntity
  8
cut.coverTop
 62
1
100
AcDbSpline
 70
8
 71
3
 72
8
 73
4
 74
0
 40
0
 40
0
 40
0
 40
0
 40
1
 40
1
 40
1
 40
1
 10
338.868438
 20
-14.211371
 30
0.0
 10
338.568375
 20
-13.911312
 30
0.0
 10
338.399801
 20
-13.504343
 30
0.0
 10
338.399801
 20
-13.079993
 30
0.0
  0
SPLINE
  5
10c
100
AcDbEntity
  8
cut.coverTop
 62
1
100
AcDbSpline
 70
8
 71
3
 72
8
 73
4
 74
0
 40
0
 40
0
 40
0
 40
0
 40
1
 40
1
 40
1
 40
1
 10
338.399801
 20
-13.079993
 30
0.0
 10
338.399801
 20
-12.655643
 30
0.0
 10
338.568375
 20
-12.248673
 30
0.0
 10
338.868438
 20
-11.948615
 30
0.0
  0
SPLINE
  5
10d
100
AcDbEntity
  8
cut.coverTop
 62
1
100
AcDbSpline
 70
8
 71
3
 72
8
 73
4
 74
0
 40
0
 40
0
 40
0
 40
0
 40
1
 40
1
 40
1
 40
1
 10
338.868438
 20
-11.948615
 30
0.0
 10
339.168501
 20
-11.648556
 30
0.0
 10
339.575472
 20
-11.479988
 30
0.0
 10
339.999822
 20
-11.479994
 30
0.0
  0
SPLINE
  5
10e
100
AcDbEntity
  8
cut.coverTop
 62
1
100
AcDbSpline
 70
8
 71
3
 72
8
 73
4
 74
0
 40
0
 40
0
 40
0
 40
0
 40
1
 40
1
 40
1
 40
1
 10
339.999822
 20
-11.479994
 30
0.0
 10
340.883476
 20
-11.479995
 30
0.0
 10
341.599818
 20
-12.196339
 30
0.0
 10
341.599818
 20
-13.079993
 30
0.0
  0
LWPOLYLINE
  5
10f
100
AcDbEntity
  8
cut.coverTop
 62
1
100
AcDbPolyline
 90
1
 70
1
 10
61.599965
 20
-13.079993
 30
0.0
  0
SPLINE
  5
110
100
AcDbEntity
  8
cut.coverTop
 62
1
100
AcDbSpline
 70
8
 71
3
 72
8
 73
4
 74
0
 40
0
 40
0
 40
0
 40
0
 40
1
 40
1
 40
1
 40
1
 10
236.599859
 20
-35.079981
 30
0.0
 10
236.599858
 20
-35.963635
 30
0.0
 10
235.883515
 20
-36.679979
 30
0.0
 10
234.999860
 20
-36.679979
 30
0.0
  0
SPLINE
  5
111
100
AcDbEntity
  8
cut.coverTop
 62
1
100
AcDbSpline
 70
8
 71
3
 72
8
 73
4
 74
0
 40
0
 40
0
 40
0
 40
0
 40
1
 40
1
 40
1
 40
1
 10
234.999860
 20
-36.679979
 30
0.0
 10
234.575514
 20
-36.679980
 30
0.0
 10
234.168548
 20
-36.511409
 30
0.0
 10
233.868489
 20
-36.211351
 30
0.0
  0
SPLINE
  5
112
100
AcDbEntity
  8
cut.coverTop
 62
1
100
AcDbSpline
 70
8
 71
3
 72
8
 73
4
 74
0
 40
0
 40
0
 40
0
 40
0
 40
1
 40
1
 40
1
 40
1
 10
233.868489
 20
-36.211351
 30
0.0
 10
233.568431
 20
-35.911293
 30
0.0
 10
233.399859
 20
-35.504327
 30
0.0
 10
233.399859
 20
-35.079981
 30
0.0
  0
SPLINE
  5
113
100
AcDbEntity
  8
cut.coverTop
 62
1
100
AcDbSpline
 70
8
 71
3
 72
8
 73
4
 74
0
 40
0
 40
0
 40
0
 40
0
 40
1
 40
1
 40
1
 40
1
 10
233.399859
 20
-35.079981
 30
0.0
 10
233.399859
 20
-34.655634
 30
0.0
 10
233.568430
 20
-34.248667
 30
0.0
 10
233.868488
 20
-33.948609
 30
0.0
  0
SPLINE
  5
114
100
AcDbEntity
  8
cut.coverTop
 62
1
100
AcDbSpline
 70
8
 71
3
 72
8
 73
4
 74
0
 40
0
 40
0
 40
0
 40
0
 40
1
 40
1
 40
1
 40
1
 10
233.868488
 20
-33.948609
 30
0.0
 10
234.168547
 20
-33.648550
 30
0.0
 10
234.575513
 20
-33.479979
 30
0.0
 10
234.999860
 20
-33.479980
 30
0.0
  0
SPLINE
  5
115
100
AcDbEntity
  8
cut.coverTop
 62
1
100
AcDbSpline
 70
8
 71
3
 72
8
 73
4
 74
0
 40
0
 40
0
 40
0
 40
0
 40
1
 40
1
 40
1
 40
1
 10
234.999860
 20
-33.479980
 30
0.0
 10
235.424207
 20
-33.479980
 30
0.0
 10
235.831173
 20
-33.648551
 30
0.0
 10
236.131231
 20
-33.948609
 30
0.0
  0
SPLINE
  5
116
100
AcDbEntity
  8
cut.coverTop
 62
1
100
AcDbSpline
 70
8
 71
3
 72
8
 73
4
 74
0
 40
0
 40
0
 40
0
 40
0
 40
1
 40
1
 40
1
 40
1
 10
236.131231
 20
-33.948609
 30
0.0
 10
236.431289
 20
-34.248668
 30
0.0
 10
236.599859
 20
-34.655634
 30
0.0
 10
236.599859
 20
-35.079981
 30
0.0
  0
LWPOLYLINE
  5
117
100
AcDbEntity
  8
cut.coverTop
 62
1
100
AcDbPolyline
 90
1
 70
1
 10
341.599818
 20
-13.079993
 30
0.0
  0
SPLINE
  5
118
100
AcDbEntity
  8
cut.coverTop
 62
1
100
AcDbSpline
 70
8
 71
3
 72
8
 73
4
 74
0
 40
0
 40
0
 40
0
 40
0
 40
1
 40
1
 40
1
 40
1
 10
166.599907
 20
-35.079981
 30
0.0
 10
166.599907
 20
-35.963635
 30
0.0
 10
165.883563
 20
-36.679979
 30
0.0
 10
164.999909
 20
-36.679979
 30
0.0
  0
SPLINE
  5
119
100
AcDbEntity
  8
cut.coverTop
 62
1
100
AcDbSpline
 70
8
 71
3
 72
8
 73
4
 74
0
 40
0
 40
0
 40
0
 40
0
 40
1
 40
1
 40
1
 40
1
 10
164.999909
 20
-36.679979
 30
0.0
 10
164.116254
 20
-36.679979
 30
0.0
 10
163.399910
 20
-35.963635
 30
0.0
 10
163.399910
 20
-35.079981
 30
0.0
  0
SPLINE
  5
11a
100
AcDbEntity
  8
cut.coverTop
 62
1
100
AcDbSpline
 70
8
 71
3
 72
8
 73
4
 74
0
 40
0
 40
0
 40
0
 40
0
 40
1
 40
1
 40
1
 40
1
 10
163.399910
 20
-35.079981
 30
0.0
 10
163.399910
 20
-34.655634
 30
0.0
 10
163.568480
 20
-34.248668
 30
0.0
 10
163.868538
 20
-33.948609
 30
0.0
  0
SPLINE
  5
11b
100
AcDbEntity
  8
cut.coverTop
 62
1
100
AcDbSpline
 70
8
 71
3
 72
8
 73
4
 74
0
 40
0
 40
0
 40
0
 40
0
 40
1
 40
1
 40
1
 40
1
 10
163.868538
 20
-33.948609
 30
0.0
 10
164.168596
 20
-33.648551
 30
0.0
 10
164.575562
 20
-33.479980
 30
0.0
 10
164.999909
 20
-33.479980
 30
0.0
  0
SPLINE
  5
11c
100
AcDbEntity
  8
cut.coverTop
 62
1
100
AcDbSpline
 70
8
 71
3
 72
8
 73
4
 74
0
 40
0
 40
0
 40
0
 40
0
 40
1
 40
1
 40
1
 40
1
 10
164.999909
 20
-33.479980
 30
0.0
 10
165.424255
 20
-33.479980
 30
0.0
 10
165.831221
 20
-33.648551
 30
0.0
 10
166.131279
 20
-33.948609
 30
0.0
  0
SPLINE
  5
11d
100
AcDbEntity
  8
cut.coverTop
 62
1
100
AcDbSpline
 70
8
 71
3
 72
8
 73
4
 74
0
 40
0
 40
0
 40
0
 40
0
 40
1
 40
1
 40
1
 40
1
 10
166.131279
 20
-33.948609
 30
0.0
 10
166.431337
 20
-34.248668
 30
0.0
 10
166.599908
 20
-34.655634
 30
0.0
 10
166.599907
 20
-35.079981
 30
0.0
  0
LWPOLYLINE
  5
11e
100
AcDbEntity
  8
cut.coverTop
 62
1
100
AcDbPolyline
 90
1
 70
1
 10
236.599859
 20
-35.079981
 30
0.0
  0
SPLINE
  5
11f
100
AcDbEntity
  8
cut.coverTop
 62
1
100
AcDbSpline
 70
8
 71
3
 72
8
 73
4
 74
0
 40
0
 40
0
 40
0
 40
0
 40
1
 40
1
 40
1
 40
1
 10
201.599889
 20
-158.079912
 30
0.0
 10
201.599889
 20
-158.504259
 30
0.0
 10
201.431318
 20
-158.911225
 30
0.0
 10
201.131259
 20
-159.211283
 30
0.0
  0
SPLINE
  5
120
100
AcDbEntity
  8
cut.coverTop
 62
1
100
AcDbSpline
 70
8
 71
3
 72
8
 73
4
 74
0
 40
0
 40
0
 40
0
 40
0
 40
1
 40
1
 40
1
 40
1
 10
201.131259
 20
-159.211283
 30
0.0
 10
200.831201
 20
-159.511341
 30
0.0
 10
200.424235
 20
-159.679911
 30
0.0
 10
199.999888
 20
-159.679911
 30
0.0
  0
SPLINE
  5
121
100
AcDbEntity
  8
cut.coverTop
 62
1
100
AcDbSpline
 70
8
 71
3
 72
8
 73
4
 74
0
 40
0
 40
0
 40
0
 40
0
 40
1
 40
1
 40
1
 40
1
 10
199.999888
 20
-159.679911
 30
0.0
 10
199.116234
 20
-159.679910
 30
0.0
 10
198.399890
 20
-158.963567
 30
0.0
 10
198.399890
 20
-158.079912
 30
0.0
  0
SPLINE
  5
122
100
AcDbEntity
  8
cut.coverTop
 62
1
100
AcDbSpline
 70
8
 71
3
 72
8
 73
4
 74
0
 40
0
 40
0
 40
0
 40
0
 40
1
 40
1
 40
1
 40
1
 10
198.399890
 20
-158.079912
 30
0.0
 10
198.399890
 20
-157.196258
 30
0.0
 10
199.116234
 20
-156.479914
 30
0.0
 10
199.999888
 20
-156.479914
 30
0.0
  0
SPLINE
  5
123
100
AcDbEntity
  8
cut.coverTop
 62
1
100
AcDbSpline
 70
8
 71
3
 72
8
 73
4
 74
0
 40
0
 40
0
 40
0
 40
0
 40
1
 40
1
 40
1
 40
1
 10
199.999888
 20
-156.479914
 30
0.0
 10
200.424235
 20
-156.479913
 30
0.0
 10
200.831201
 20
-156.648484
 30
0.0
 10
201.131259
 20
-156.948542
 30
0.0
  0
SPLINE
  5
124
100
AcDbEntity
  8
cut.coverTop
 62
1
100
AcDbSpline
 70
8
 71
3
 72
8
 73
4
 74
0
 40
0
 40
0
 40
0
 40
0
 40
1
 40
1
 40
1
 40
1
 10
201.131259
 20
-156.948542
 30
0.0
 10
201.431318
 20
-157.248600
 30
0.0
 10
201.599889
 20
-157.655566
 30
0.0
 10
201.599889
 20
-158.079912
 30
0.0
  0
LWPOLYLINE
  5
125
100
AcDbEntity
  8
cut.coverTop
 62
1
100
AcDbPolyline
 90
1
 70
1
 10
166.599907
 20
-35.079981
 30
0.0
  0
SPLINE
  5
126
100
AcDbEntity
  8
cut.coverTop
 62
1
100
AcDbSpline
 70
8
 71
3
 72
8
 73
4
 74
0
 40
0
 40
0
 40
0
 40
0
 40
1
 40
1
 40
1
 40
1
 10
384.599811
 20
-93.079948
 30
0.0
 10
384.599810
 20
-93.963601
 30
0.0
 10
383.883468
 20
-94.679944
 30
0.0
 10
382.999815
 20
-94.679946
 30
0.0
  0
SPLINE
  5
127
100
AcDbEntity
  8
cut.coverTop
 62
1
100
AcDbSpline
 70
8
 71
3
 72
8
 73
4
 74
0
 40
0
 40
0
 40
0
 40
0
 40
1
 40
1
 40
1
 40
1
 10
382.999815
 20
-94.679946
 30
0.0
 10
382.575465
 20
-94.679952
 30
0.0
 10
382.168493
 20
-94.511384
 30
0.0
 10
381.868430
 20
-94.211325
 30
0.0
  0
SPLINE
  5
128
100
AcDbEntity
  8
cut.coverTop
 62
1
100
AcDbSpline
 70
8
 71
3
 72
8
 73
4
 74
0
 40
0
 40
0
 40
0
 40
0
 40
1
 40
1
 40
1
 40
1
 10
381.868430
 20
-94.211325
 30
0.0
 10
381.568367
 20
-93.911267
 30
0.0
 10
381.399793
 20
-93.504298
 30
0.0
 10
381.399793
 20
-93.079948
 30
0.0
  0
SPLINE
  5
129
100
AcDbEntity
  8
cut.coverTop
 62
1
100
AcDbSpline
 70
8
 71
3
 72
8
 73
4
 74
0
 40
0
 40
0
 40
0
 40
0
 40
1
 40
1
 40
1
 40
1
 10
381.399793
 20
-93.079948
 30
0.0
 10
381.399793
 20
-92.655598
 30
0.0
 10
381.568367
 20
-92.248629
 30
0.0
 10
381.868430
 20
-91.948570
 30
0.0
  0
SPLINE
  5
12a
100
AcDbEntity
  8
cut.coverTop
 62
1
100
AcDbSpline
 70
8
 71
3
 72
8
 73
4
 74
0
 40
0
 40
0
 40
0
 40
0
 40
1
 40
1
 40
1
 40
1
 10
381.868430
 20
-91.948570
 30
0.0
 10
382.168493
 20
-91.648511
 30
0.0
 10
382.575465
 20
-91.479943
 30
0.0
 10
382.999815
 20
-91.479949
 30
0.0
  0
SPLINE
  5
12b
100
AcDbEntity
  8
cut.coverTop
 62
1
100
AcDbSpline
 70
8
 71
3
 72
8
 73
4
 74
0
 40
0
 40
0
 40
0
 40
0
 40
1
 40
1
 40
1
 40
1
 10
382.999815
 20
-91.479949
 30
0.0
 10
383.883468
 20
-91.479951
 30
0.0
 10
384.599810
 20
-92.196294
 30
0.0
 10
384.599811
 20
-93.079948
 30
0.0
  0
LWPOLYLINE
  5
12c
100
AcDbEntity
  8
cut.coverTop
 62
1
100
AcDbPolyline
 90
1
 70
1
 10
201.599889
 20
-158.079912
 30
0.0
  0
SPLINE
  5
12d
100
AcDbEntity
  8
cut.coverTop
 62
1
100
AcDbSpline
 70
8
 71
3
 72
8
 73
4
 74
0
 40
0
 40
0
 40
0
 40
0
 40
1
 40
1
 40
1
 40
1
 10
371.599767
 20
-143.079920
 30
0.0
 10
371.599768
 20
-143.963574
 30
0.0
 10
370.883426
 20
-144.679919
 30
0.0
 10
369.999771
 20
-144.679921
 30
0.0
  0
SPLINE
  5
12e
100
AcDbEntity
  8
cut.coverTop
 62
1
100
AcDbSpline
 70
8
 71
3
 72
8
 73
4
 74
0
 40
0
 40
0
 40
0
 40
0
 40
1
 40
1
 40
1
 40
1
 10
369.999771
 20
-144.679921
 30
0.0
 10
369.116117
 20
-144.679919
 30
0.0
 10
368.399774
 20
-143.963574
 30
0.0
 10
368.399775
 20
-143.079920
 30
0.0
  0
SPLINE
  5
12f
100
AcDbEntity
  8
cut.coverTop
 62
1
100
AcDbSpline
 70
8
 71
3
 72
8
 73
4
 74
0
 40
0
 40
0
 40
0
 40
0
 40
1
 40
1
 40
1
 40
1
 10
368.399775
 20
-143.079920
 30
0.0
 10
368.399776
 20
-142.196266
 30
0.0
 10
369.116118
 20
-141.479923
 30
0.0
 10
369.999771
 20
-141.479921
 30
0.0
  0
SPLINE
  5
130
100
AcDbEntity
  8
cut.coverTop
 62
1
100
AcDbSpline
 70
8
 71
3
 72
8
 73
4
 74
0
 40
0
 40
0
 40
0
 40
0
 40
1
 40
1
 40
1
 40
1
 10
369.999771
 20
-141.479921
 30
0.0
 10
370.883425
 20
-141.479923
 30
0.0
 10
371.599767
 20
-142.196266
 30
0.0
 10
371.599767
 20
-143.079920
 30
0.0
  0
LWPOLYLINE
  5
131
100
AcDbEntity
  8
cut.coverTop
 62
1
100
AcDbPolyline
 90
1
 70
1
 10
384.599811
 20
-93.079948
 30
0.0
  0
SPLINE
  5
132
100
AcDbEntity
  8
cut.coverTop
 62
1
100
AcDbSpline
 70
8
 71
3
 72
8
 73
4
 74
0
 40
0
 40
0
 40
0
 40
0
 40
1
 40
1
 40
1
 40
1
 10
271.599844
 20
-183.079889
 30
0.0
 10
271.599843
 20
-183.963543
 30
0.0
 10
270.883501
 20
-184.679886
 30
0.0
 10
269.999848
 20
-184.679888
 30
0.0
  0
SPLINE
  5
133
100
AcDbEntity
  8
cut.coverTop
 62
1
100
AcDbSpline
 70
8
 71
3
 72
8
 73
4
 74
0
 40
0
 40
0
 40
0
 40
0
 40
1
 40
1
 40
1
 40
1
 10
269.999848
 20
-184.679888
 30
0.0
 10
269.116194
 20
-184.679886
 30
0.0
 10
268.399852
 20
-183.963543
 30
0.0
 10
268.399852
 20
-183.079889
 30
0.0
  0
SPLINE
  5
134
100
AcDbEntity
  8
cut.coverTop
 62
1
100
AcDbSpline
 70
8
 71
3
 72
8
 73
4
 74
0
 40
0
 40
0
 40
0
 40
0
 40
1
 40
1
 40
1
 40
1
 10
268.399852
 20
-183.079889
 30
0.0
 10
268.399851
 20
-182.196235
 30
0.0
 10
269.116193
 20
-181.479890
 30
0.0
 10
269.999848
 20
-181.479888
 30
0.0
  0
SPLINE
  5
135
100
AcDbEntity
  8
cut.coverTop
 62
1
100
AcDbSpline
 70
8
 71
3
 72
8
 73
4
 74
0
 40
0
 40
0
 40
0
 40
0
 40
1
 40
1
 40
1
 40
1
 10
269.999848
 20
-181.479888
 30
0.0
 10
270.883502
 20
-181.479890
 30
0.0
 10
271.599845
 20
-182.196235
 30
0.0
 10
271.599844
 20
-183.079889
 30
0.0
  0
LWPOLYLINE
  5
136
100
AcDbEntity
  8
cut.coverTop
 62
1
100
AcDbPolyline
 90
1
 70
1
 10
371.599767
 20
-143.079920
 30
0.0
  0
SPLINE
  5
137
100
AcDbEntity
  8
cut.coverTop
 62
1
100
AcDbSpline
 70
8
 71
3
 72
8
 73
4
 74
0
 40
0
 40
0
 40
0
 40
0
 40
1
 40
1
 40
1
 40
1
 10
126.599930
 20
-183.079889
 30
0.0
 10
126.599930
 20
-183.963544
 30
0.0
 10
125.883586
 20
-184.679887
 30
0.0
 10
124.999931
 20
-184.679888
 30
0.0
  0
SPLINE
  5
138
100
AcDbEntity
  8
cut.coverTop
 62
1
100
AcDbSpline
 70
8
 71
3
 72
8
 73
4
 74
0
 40
0
 40
0
 40
0
 40
0
 40
1
 40
1
 40
1
 40
1
 10
124.999931
 20
-184.679888
 30
0.0
 10
124.575585
 20
-184.679888
 30
0.0
 10
124.168619
 20
-184.511318
 30
0.0
 10
123.868560
 20
-184.211260
 30
0.0
  0
SPLINE
  5
139
100
AcDbEntity
  8
cut.coverTop
 62
1
100
AcDbSpline
 70
8
 71
3
 72
8
 73
4
 74
0
 40
0
 40
0
 40
0
 40
0
 40
1
 40
1
 40
1
 40
1
 10
123.868560
 20
-184.211260
 30
0.0
 10
123.568502
 20
-183.911202
 30
0.0
 10
123.399931
 20
-183.504236
 30
0.0
 10
123.399930
 20
-183.079889
 30
0.0
  0
SPLINE
  5
13a
100
AcDbEntity
  8
cut.coverTop
 62
1
100
AcDbSpline
 70
8
 71
3
 72
8
 73
4
 74
0
 40
0
 40
0
 40
0
 40
0
 40
1
 40
1
 40
1
 40
1
 10
123.399930
 20
-183.079889
 30
0.0
 10
123.399930
 20
-182.655542
 30
0.0
 10
123.568501
 20
-182.248576
 30
0.0
 10
123.868559
 20
-181.948517
 30
0.0
  0
SPLINE
  5
13b
100
AcDbEntity
  8
cut.coverTop
 62
1
100
AcDbSpline
 70
8
 71
3
 72
8
 73
4
 74
0
 40
0
 40
0
 40
0
 40
0
 40
1
 40
1
 40
1
 40
1
 10
123.868559
 20
-181.948517
 30
0.0
 10
124.168618
 20
-181.648459
 30
0.0
 10
124.575585
 20
-181.479888
 30
0.0
 10
124.999931
 20
-181.479888
 30
0.0
  0
SPLINE
  5
13c
100
AcDbEntity
  8
cut.coverTop
 62
1
100
AcDbSpline
 70
8
 71
3
 72
8
 73
4
 74
0
 40
0
 40
0
 40
0
 40
0
 40
1
 40
1
 40
1
 40
1
 10
124.999931
 20
-181.479888
 30
0.0
 10
125.424278
 20
-181.479888
 30
0.0
 10
125.831244
 20
-181.648460
 30
0.0
 10
126.131302
 20
-181.948518
 30
0.0
  0
SPLINE
  5
13d
100
AcDbEntity
  8
cut.coverTop
 62
1
100
AcDbSpline
 70
8
 71
3
 72
8
 73
4
 74
0
 40
0
 40
0
 40
0
 40
0
 40
1
 40
1
 40
1
 40
1
 10
126.131302
 20
-181.948518
 30
0.0
 10
126.431360
 20
-182.248576
 30
0.0
 10
126.599930
 20
-182.655543
 30
0.0
 10
126.599930
 20
-183.079889
 30
0.0
  0
LWPOLYLINE
  5
13e
100
AcDbEntity
  8
cut.coverTop
 62
1
100
AcDbPolyline
 90
1
 70
1
 10
271.599844
 20
-183.079889
 30
0.0
  0
SPLINE
  5
13f
100
AcDbEntity
  8
cut.coverTop
 62
1
100
AcDbSpline
 70
8
 71
3
 72
8
 73
4
 74
0
 40
0
 40
0
 40
0
 40
0
 40
1
 40
1
 40
1
 40
1
 10
31.599983
 20
-143.079920
 30
0.0
 10
31.599984
 20
-143.504267
 30
0.0
 10
31.431413
 20
-143.911233
 30
0.0
 10
31.131354
 20
-144.211292
 30
0.0
  0
SPLINE
  5
140
100
AcDbEntity
  8
cut.coverTop
 62
1
100
AcDbSpline
 70
8
 71
3
 72
8
 73
4
 74
0
 40
0
 40
0
 40
0
 40
0
 40
1
 40
1
 40
1
 40
1
 10
31.131354
 20
-144.211292
 30
0.0
 10
30.831296
 20
-144.511350
 30
0.0
 10
30.424329
 20
-144.679921
 30
0.0
 10
29.999982
 20
-144.679921
 30
0.0
  0
SPLINE
  5
141
100
AcDbEntity
  8
cut.coverTop
 62
1
100
AcDbSpline
 70
8
 71
3
 72
8
 73
4
 74
0
 40
0
 40
0
 40
0
 40
0
 40
1
 40
1
 40
1
 40
1
 10
29.999982
 20
-144.679921
 30
0.0
 10
29.575636
 20
-144.679921
 30
0.0
 10
29.168670
 20
-144.511349
 30
0.0
 10
28.868612
 20
-144.211291
 30
0.0
  0
SPLINE
  5
142
100
AcDbEntity
  8
cut.coverTop
 62
1
100
AcDbSpline
 70
8
 71
3
 72
8
 73
4
 74
0
 40
0
 40
0
 40
0
 40
0
 40
1
 40
1
 40
1
 40
1
 10
28.868612
 20
-144.211291
 30
0.0
 10
28.568554
 20
-143.911233
 30
0.0
 10
28.399983
 20
-143.504266
 30
0.0
 10
28.399984
 20
-143.079920
 30
0.0
  0
SPLINE
  5
143
100
AcDbEntity
  8
cut.coverTop
 62
1
100
AcDbSpline
 70
8
 71
3
 72
8
 73
4
 74
0
 40
0
 40
0
 40
0
 40
0
 40
1
 40
1
 40
1
 40
1
 10
28.399984
 20
-143.079920
 30
0.0
 10
28.399984
 20
-142.196265
 30
0.0
 10
29.116328
 20
-141.479922
 30
0.0
 10
29.999982
 20
-141.479921
 30
0.0
  0
SPLINE
  5
144
100
AcDbEntity
  8
cut.coverTop
 62
1
100
AcDbSpline
 70
8
 71
3
 72
8
 73
4
 74
0
 40
0
 40
0
 40
0
 40
0
 40
1
 40
1
 40
1
 40
1
 10
29.999982
 20
-141.479921
 30
0.0
 10
30.424329
 20
-141.479921
 30
0.0
 10
30.831295
 20
-141.648491
 30
0.0
 10
31.131353
 20
-141.948549
 30
0.0
  0
SPLINE
  5
145
100
AcDbEntity
  8
cut.coverTop
 62
1
100
AcDbSpline
 70
8
 71
3
 72
8
 73
4
 74
0
 40
0
 40
0
 40
0
 40
0
 40
1
 40
1
 40
1
 40
1
 10
31.131353
 20
-141.948549
 30
0.0
 10
31.431412
 20
-142.248607
 30
0.0
 10
31.599983
 20
-142.655573
 30
0.0
 10
31.599983
 20
-143.079920
 30
0.0
  0
LWPOLYLINE
  5
146
100
AcDbEntity
  8
cut.coverTop
 62
1
100
AcDbPolyline
 90
1
 70
1
 10
126.599930
 20
-183.079889
 30
0.0
  0
LWPOLYLINE
  5
147
100
AcDbEntity
  8
cut.coverTop
 62
1
100
AcDbPolyline
 90
1
 70
1
 10
31.599983
 20
-143.079920
 30
0.0
  0
SPLINE
  5
148
100
AcDbEntity
  8
cut.coverTop
 62
1
100
AcDbSpline
 70
8
 71
3
 72
8
 73
4
 74
0
 40
0
 40
0
 40
0
 40
0
 40
1
 40
1
 40
1
 40
1
 10
14.291785
 20
-68.079963
 30
0.0
 10
11.999993
 20
-78.079957
 30
0.0
 10
9.999994
 20
-88.079950
 30
0.0
 10
9.999994
 20
-98.079946
 30
0.0
  0
SPLINE
  5
149
100
AcDbEntity
  8
cut.coverTop
 62
1
100
AcDbSpline
 70
8
 71
3
 72
8
 73
4
 74
0
 40
0
 40
0
 40
0
 40
0
 40
1
 40
1
 40
1
 40
1
 10
9.999994
 20
-98.079946
 30
0.0
 10
9.999987
 20
-149.442408
 30
0.0
 10
51.787261
 20
-192.930030
 30
0.0
 10
103.149723
 20
-192.930025
 30
0.0
  0
SPLINE
  5
14a
100
AcDbEntity
  8
cut.coverTop
 62
1
100
AcDbSpline
 70
8
 71
3
 72
8
 73
4
 74
0
 40
0
 40
0
 40
0
 40
0
 40
1
 40
1
 40
1
 40
1
 10
103.149723
 20
-192.930025
 30
0.0
 10
154.512188
 20
-192.930033
 30
0.0
 10
164.999909
 20
-165.579909
 30
0.0
 10
192.499896
 20
-165.579909
 30
0.0
  0
LWPOLYLINE
  5
14b
100
AcDbEntity
  8
cut.coverTop
 62
1
100
AcDbPolyline
 90
2
 70
0
 10
26.999985
 20
-11.079994
 30
0.0
 10
14.291785
 20
-68.079963
 30
0.0
  0
SPLINE
  5
14c
100
AcDbEntity
  8
cut.coverTop
 62
1
100
AcDbSpline
 70
8
 71
3
 72
8
 73
4
 74
0
 40
0
 40
0
 40
0
 40
0
 40
1
 40
1
 40
1
 40
1
 10
207.499887
 20
-165.579909
 30
0.0
 10
234.999871
 20
-165.579909
 30
0.0
 10
245.487478
 20
-192.930028
 30
0.0
 10
296.849940
 20
-192.930025
 30
0.0
  0
SPLINE
  5
14d
100
AcDbEntity
  8
cut.coverTop
 62
1
100
AcDbSpline
 70
8
 71
3
 72
8
 73
4
 74
0
 40
0
 40
0
 40
0
 40
0
 40
1
 40
1
 40
1
 40
1
 10
296.849940
 20
-192.930025
 30
0.0
 10
348.212392
 20
-192.930033
 30
0.0
 10
389.999789
 20
-149.442411
 30
0.0
 10
389.999789
 20
-98.079946
 30
0.0
  0
SPLINE
  5
14e
100
AcDbEntity
  8
cut.coverTop
 62
1
100
AcDbSpline
 70
8
 71
3
 72
8
 73
4
 74
0
 40
0
 40
0
 40
0
 40
0
 40
1
 40
1
 40
1
 40
1
 10
389.999789
 20
-98.079946
 30
0.0
 10
389.999789
 20
-88.079950
 30
0.0
 10
387.999778
 20
-78.079957
 30
0.0
 10
385.999794
 20
-68.079963
 30
0.0
  0
LWPOLYLINE
  5
14f
100
AcDbEntity
  8
cut.coverTop
 62
1
100
AcDbPolyline
 90
2
 70
0
 10
192.499896
 20
-165.579909
 30
0.0
 10
207.499887
 20
-165.579909
 30
0.0
  0
SPLINE
  5
150
100
AcDbEntity
  8
cut.coverTop
 62
1
100
AcDbSpline
 70
8
 71
3
 72
8
 73
4
 74
0
 40
0
 40
0
 40
0
 40
0
 40
1
 40
1
 40
1
 40
1
 10
372.999789
 20
-11.079994
 30
0.0
 10
371.999797
 20
-6.079997
 30
0.0
 10
368.999794
 20
-6.079997
 30
0.0
 10
364.999799
 20
-6.079997
 30
0.0
  0
SPLINE
  5
151
100
AcDbEntity
  8
cut.coverTop
 62
1
100
AcDbSpline
 70
8
 71
3
 72
8
 73
4
 74
0
 40
0
 40
0
 40
0
 40
0
 40
1
 40
1
 40
1
 40
1
 10
364.999799
 20
-6.079997
 30
0.0
 10
229.999870
 20
-18.079990
 30
0.0
 10
229.999870
 20
-37.079980
 30
0.0
 10
208.929726
 20
-37.079977
 30
0.0
  0
LWPOLYLINE
  5
152
100
AcDbEntity
  8
cut.coverTop
 62
1
100
AcDbPolyline
 90
2
 70
0
 10
385.999794
 20
-68.079963
 30
0.0
 10
372.999789
 20
-11.079994
 30
0.0
  0
SPLINE
  5
153
100
AcDbEntity
  8
cut.coverTop
 62
1
100
AcDbSpline
 70
8
 71
3
 72
8
 73
4
 74
0
 40
0
 40
0
 40
0
 40
0
 40
1
 40
1
 40
1
 40
1
 10
190.999894
 20
-37.079980
 30
0.0
 10
169.999904
 20
-37.079980
 30
0.0
 10
169.999904
 20
-18.079990
 30
0.0
 10
34.999981
 20
-6.079997
 30
0.0
  0
SPLINE
  5
154
100
AcDbEntity
  8
cut.coverTop
 62
1
100
AcDbSpline
 70
8
 71
3
 72
8
 73
4
 74
0
 40
0
 40
0
 40
0
 40
0
 40
1
 40
1
 40
1
 40
1
 10
34.999981
 20
-6.079997
 30
0.0
 10
30.999983
 20
-6.079997
 30
0.0
 10
27.999985
 20
-6.079997
 30
0.0
 10
26.999985
 20
-11.079994
 30
0.0
  0
LWPOLYLINE
  5
155
100
AcDbEntity
  8
cut.coverTop
 62
1
100
AcDbPolyline
 90
2
 70
0
 10
208.929726
 20
-37.079977
 30
0.0
 10
190.999894
 20
-37.079980
 30
0.0
  0
LWPOLYLINE
  5
156
100
AcDbEntity
  8
cut.coverTop
 62
1
100
AcDbPolyline
 90
1
 70
1
 10
26.999985
 20
-11.079994
 30
0.0
  0
LWPOLYLINE
  5
157
100
AcDbEntity
  8
cut.coverTop
 62
1
100
AcDbPolyline
 90
22
 70
1
 10
384.627507
 20
-84.595940
 30
0.0
 10
367.576231
 20
-10.738733
 30
0.0
 10
321.293682
 20
-21.423900
 30
0.0
 10
320.618829
 20
-18.500790
 30
0.0
 10
302.105806
 20
-22.774857
 30
0.0
 10
301.768380
 20
-21.313304
 30
0.0
 10
283.450236
 20
-25.542380
 30
0.0
 10
283.787662
 20
-27.003933
 30
0.0
 10
265.274639
 20
-31.278001
 30
0.0
 10
265.612065
 20
-32.739554
 30
0.0
 10
228.586025
 20
-41.287688
 30
0.0
 10
245.637302
 20
-115.144895
 30
0.0
 10
282.663342
 20
-106.596761
 30
0.0
 10
286.599983
 20
-123.648230
 30
0.0
 10
304.918130
 20
-119.419153
 30
0.0
 10
304.580703
 20
-117.957597
 30
0.0
 10
323.288597
 20
-113.638540
 30
0.0
 10
323.626024
 20
-115.100097
 30
0.0
 10
342.139044
 20
-110.826030
 30
0.0
 10
342.813896
 20
-113.749137
 30
0.0
 10
379.645063
 20
-105.245994
 30
0.0
 10
375.370996
 20
-86.732974
 30
0.0
  0
LWPOLYLINE
  5
158
100
AcDbEntity
  8
cut.coverTop
 62
1
100
AcDbPolyline
 90
6
 70
1
 10
242.659558
 20
-172.484309
 30
0.0
 10
210.401042
 20
-137.891305
 30
0.0
 10
238.046187
 20
-112.111798
 30
0.0
 10
251.004153
 20
-126.007507
 30
0.0
 10
264.899857
 20
-113.049542
 30
0.0
 10
284.200402
 20
-133.746838
 30
0.0
  0
LWPOLYLINE
  5
159
100
AcDbEntity
  8
cut.coverTop
 62
1
100
AcDbPolyline
 90
22
 70
1
 10
15.158599
 20
-84.595940
 30
0.0
 10
32.209876
 20
-10.738733
 30
0.0
 10
78.492425
 20
-21.423900
 30
0.0
 10
79.167278
 20
-18.500790
 30
0.0
 10
97.680301
 20
-22.774857
 30
0.0
 10
98.017727
 20
-21.313304
 30
0.0
 10
116.335871
 20
-25.542380
 30
0.0
 10
115.998445
 20
-27.003933
 30
0.0
 10
134.511467
 20
-31.278001
 30
0.0
 10
134.174041
 20
-32.739554
 30
0.0
 10
171.200081
 20
-41.287688
 30
0.0
 10
154.148805
 20
-115.144895
 30
0.0
 10
117.122764
 20
-106.596761
 30
0.0
 10
113.186123
 20
-123.648230
 30
0.0
 10
94.867977
 20
-119.419153
 30
0.0
 10
95.205404
 20
-117.957597
 30
0.0
 10
76.497510
 20
-113.638540
 30
0.0
 10
76.160083
 20
-115.100097
 30
0.0
 10
57.647063
 20
-110.826030
 30
0.0
 10
56.972211
 20
-113.749137
 30
0.0
 10
20.141044
 20
-105.245994
 30
0.0
 10
24.415111
 20
-86.732974
 30
0.0
  0
LWPOLYLINE
  5
15a
100
AcDbEntity
  8
cut.coverTop
 62
1
100
AcDbPolyline
 90
6
 70
1
 10
157.126549
 20
-172.484309
 30
0.0
 10
189.385065
 20
-137.891305
 30
0.0
 10
161.739920
 20
-112.111798
 30
0.0
 10
148.781954
 20
-126.007507
 30
0.0
 10
134.886250
 20
-113.049542
 30
0.0
 10
115.585704
 20
-133.746838
 30
0.0
  0
ENDSEC
  0
SECTION
  2
OBJECTS
  0
DICTIONARY
  5
C
330
0
100
AcDbDictionary
  3
ACAD_GROUP
350
D
  3
ACAD_MLINESTYLE
350
17
  0
DICTIONARY
  5
D
330
C
100
AcDbDictionary
  0
DICTIONARY
  5
1A
330
C
100
AcDbDictionary
  0
DICTIONARY
  5
17
330
C
100
AcDbDictionary
  3
STANDARD
350
18
  0
DICTIONARY
  5
19
330
C
100
AcDbDictionary
  0
ENDSEC
  0
EOF
