<?xml version="1.0" encoding="UTF-8" standalone="no"?>
<svg
   xmlns:dc="http://purl.org/dc/elements/1.1/"
   xmlns:cc="http://creativecommons.org/ns#"
   xmlns:rdf="http://www.w3.org/1999/02/22-rdf-syntax-ns#"
   xmlns:svg="http://www.w3.org/2000/svg"
   xmlns="http://www.w3.org/2000/svg"
   xmlns:sodipodi="http://sodipodi.sourceforge.net/DTD/sodipodi-0.dtd"
   xmlns:inkscape="http://www.inkscape.org/namespaces/inkscape"
   version="1.1"
   width="400mm"
   height="200mm"
   viewBox="0 0 157480.32 78740.155"
   id="svg2180"
   sodipodi:docname="cut.innerTop.svg"
   inkscape:version="1.0.1 (1.0.1+r75)">
  <title
     id="title3033">mcdox/case</title>
  <metadata
     id="metadata2186">
    <rdf:RDF>
      <cc:Work
         rdf:about="">
        <dc:format>image/svg+xml</dc:format>
        <dc:type
           rdf:resource="http://purl.org/dc/dcmitype/StillImage" />
        <dc:title>mcdox/case</dc:title>
      </cc:Work>
    </rdf:RDF>
  </metadata>
  <defs
     id="defs2184" />
  <sodipodi:namedview
     pagecolor="#ffffff"
     bordercolor="#666666"
     borderopacity="1"
     objecttolerance="10"
     gridtolerance="10"
     guidetolerance="10"
     inkscape:pageopacity="0"
     inkscape:pageshadow="2"
     inkscape:window-width="1853"
     inkscape:window-height="1025"
     id="namedview2182"
     showgrid="true"
     inkscape:zoom="0.89561458"
     inkscape:cx="755.90551"
     inkscape:cy="377.95276"
     inkscape:window-x="67"
     inkscape:window-y="27"
     inkscape:window-maximized="1"
     inkscape:current-layer="g4837"
     units="mm"
     width="400mm"
     inkscape:document-units="mm"
     inkscape:pagecheckerboard="false"
     inkscape:object-paths="false"
     inkscape:snap-intersection-paths="false"
     inkscape:snap-global="true"
     inkscape:document-rotation="0"
     inkscape:snap-smooth-nodes="false"
     inkscape:snap-midpoints="true"
     inkscape:snap-center="false"
     inkscape:snap-bbox="true"
     inkscape:bbox-nodes="false"
     inkscape:snap-nodes="true"
     inkscape:snap-grids="true"
     inkscape:snap-bbox-midpoints="true">
    <inkscape:grid
       type="xygrid"
       id="grid3031"
       units="mm"
       spacingx="393.70078"
       spacingy="393.70078"
       empspacing="5" />
  </sodipodi:namedview>
  <desc
     id="desc4">Picture generated by PCBNEW </desc>
  <g
     inkscape:groupmode="layer"
     id="g4837"
     inkscape:label="cut.innerTop"
     style="display:inline">
    <g
       id="g4821"
       style="stroke:#ff0000;stroke-width:118.11;stroke-miterlimit:4;stroke-dasharray:none;stroke-opacity:1">
      <path
         id="path4799"
         style="display:inline;fill:none;stroke:#ff0000;stroke-width:118.11;stroke-miterlimit:4;stroke-dasharray:none;stroke-opacity:1"
         d="m 7322.8344,37401.574 a 629.92126,629.92126 0 0 1 -629.9213,629.921 629.92126,629.92126 0 0 1 -629.9213,-629.921 629.92126,629.92126 0 0 1 629.9213,-629.921 629.92126,629.92126 0 0 1 629.9213,629.921 z" />
      <path
         id="path4801"
         style="display:inline;fill:none;stroke:#ff0000;stroke-width:118.11;stroke-miterlimit:4;stroke-dasharray:none;stroke-opacity:1"
         d="m 24251.968,5905.5117 a 629.92126,629.92126 0 0 1 -629.921,629.9213 629.92126,629.92126 0 0 1 -629.921,-629.9213 629.92126,629.92126 0 0 1 629.921,-629.9212 629.92126,629.92126 0 0 1 629.921,629.9212 z" />
      <path
         id="path4803"
         style="display:inline;fill:none;stroke:#ff0000;stroke-width:118.11;stroke-miterlimit:4;stroke-dasharray:none;stroke-opacity:1"
         d="m 134488.19,5905.5117 a 629.92126,629.92126 0 0 1 -629.92,629.9213 629.92126,629.92126 0 0 1 -629.93,-629.9213 629.92126,629.92126 0 0 1 629.93,-629.9212 629.92126,629.92126 0 0 1 629.92,629.9212 z" />
      <path
         id="path4805"
         style="display:inline;fill:none;stroke:#ff0000;stroke-width:118.11;stroke-miterlimit:4;stroke-dasharray:none;stroke-opacity:1"
         d="m 93149.601,14566.929 a 629.92126,629.92126 0 0 1 -629.921,629.921 629.92126,629.92126 0 0 1 -629.922,-629.921 629.92126,629.92126 0 0 1 629.922,-629.922 629.92126,629.92126 0 0 1 629.921,629.922 z" />
      <path
         id="path4807"
         style="display:inline;fill:none;stroke:#ff0000;stroke-width:118.11;stroke-miterlimit:4;stroke-dasharray:none;stroke-opacity:1"
         d="m 65590.55,14566.929 a 629.92126,629.92126 0 0 1 -629.921,629.921 629.92126,629.92126 0 0 1 -629.921,-629.921 629.92126,629.92126 0 0 1 629.921,-629.922 629.92126,629.92126 0 0 1 629.921,629.922 z" />
      <path
         id="path4809"
         style="display:inline;fill:none;stroke:#ff0000;stroke-width:118.11;stroke-miterlimit:4;stroke-dasharray:none;stroke-opacity:1"
         d="m 79370.078,62992.125 a 629.92126,629.92126 0 0 1 -629.922,629.921 629.92126,629.92126 0 0 1 -629.921,-629.921 629.92126,629.92126 0 0 1 629.921,-629.921 629.92126,629.92126 0 0 1 629.922,629.921 z" />
      <path
         id="path4811"
         style="display:inline;fill:none;stroke:#ff0000;stroke-width:118.11;stroke-miterlimit:4;stroke-dasharray:none;stroke-opacity:1"
         d="m 151417.33,37401.574 a 629.92126,629.92126 0 0 1 -629.92,629.921 629.92126,629.92126 0 0 1 -629.93,-629.921 629.92126,629.92126 0 0 1 629.93,-629.921 629.92126,629.92126 0 0 1 629.92,629.921 z" />
      <path
         id="path4813"
         style="display:inline;fill:none;stroke:#ff0000;stroke-width:118.11;stroke-miterlimit:4;stroke-dasharray:none;stroke-opacity:1"
         d="m 146299.2,57086.613 a 629.92126,629.92126 0 0 1 -629.92,629.922 629.92126,629.92126 0 0 1 -629.92,-629.922 629.92126,629.92126 0 0 1 629.92,-629.921 629.92126,629.92126 0 0 1 629.92,629.921 z" />
      <path
         id="path4815"
         style="display:inline;fill:none;stroke:#ff0000;stroke-width:118.11;stroke-miterlimit:4;stroke-dasharray:none;stroke-opacity:1"
         d="m 106929.13,72834.641 a 629.92126,629.92126 0 0 1 -629.92,629.921 629.92126,629.92126 0 0 1 -629.92,-629.921 629.92126,629.92126 0 0 1 629.92,-629.922 629.92126,629.92126 0 0 1 629.92,629.922 z" />
      <path
         id="path4817"
         style="display:inline;fill:none;stroke:#ff0000;stroke-width:118.11;stroke-miterlimit:4;stroke-dasharray:none;stroke-opacity:1"
         d="m 49842.519,72834.641 a 629.92126,629.92126 0 0 1 -629.921,629.921 629.92126,629.92126 0 0 1 -629.922,-629.921 629.92126,629.92126 0 0 1 629.922,-629.922 629.92126,629.92126 0 0 1 629.921,629.922 z" />
      <path
         id="path4819"
         style="display:inline;fill:none;stroke:#ff0000;stroke-width:118.11;stroke-miterlimit:4;stroke-dasharray:none;stroke-opacity:1"
         d="m 12440.945,57086.613 a 629.92126,629.92126 0 0 1 -629.922,629.922 629.92126,629.92126 0 0 1 -629.921,-629.922 629.92126,629.92126 0 0 1 629.921,-629.921 629.92126,629.92126 0 0 1 629.922,629.921 z" />
    </g>
    <path
       id="path4823"
       style="fill:none;stroke:#ff0000;stroke-width:1.13386;stroke-miterlimit:4;stroke-dasharray:none;stroke-opacity:1"
       d="M 102.04724,49.133856 54.016221,264.56692 c -8.661893,37.79527 -16.220947,75.59054 -16.220947,113.38582 -2.8e-5,194.12594 157.936206,358.48869 352.062146,358.48867 194.12595,3e-5 233.7646,-103.37057 337.70161,-103.37057 h 56.69291 c 103.937,0 143.57522,103.37058 337.70116,103.37057 194.1259,3e-5 352.0626,-164.36272 352.0626,-358.48867 0,-37.79528 -7.5591,-75.59055 -15.1181,-113.38582 L 1409.7637,49.133856 C 1405.9842,30.236219 1394.6456,30.236219 1379.5275,30.236219 869.29129,75.590547 869.29129,147.40157 789.65606,147.40156 l -67.76633,1e-5 c -79.37008,0 -79.37008,-71.811023 -589.60627,-117.165351 -15.11811,0 -26.45669,0 -30.23622,18.897637 z"
       sodipodi:nodetypes="ccccccccccccccc"
       transform="scale(104.16667)" />
    <g
       id="g4829"
       style="display:inline;stroke:#ff0000;stroke-width:118.11;stroke-miterlimit:4;stroke-dasharray:none;stroke-opacity:1"
       transform="matrix(-0.97436978,0.22495104,0.22495104,0.97436978,153167.89,-10907.734)">
      <path
         style="display:inline;fill:none;stroke:#ff0000;stroke-width:118.11;stroke-linecap:butt;stroke-linejoin:miter;stroke-miterlimit:4;stroke-dasharray:none;stroke-opacity:1"
         d="m 11811.024,43425.198 v -29842.52 h 18700.787 v -1181.103 h 7480.316 v -590.551 h 7401.574 v 590.551 h 7480.316 v 590.551 h 14960.63 v 29842.52 h -14960.63 v 6889.765 h -7401.575 v -590.552 h -7559.055 v 590.552 h -7480.315 v 1181.102 h -14881.89 v -7480.315 z"
         id="path4825" />
      <path
         style="fill:none;stroke:#ff0000;stroke-width:118.11;stroke-linecap:butt;stroke-linejoin:miter;stroke-miterlimit:4;stroke-dasharray:none;stroke-opacity:1"
         d="m 74055.117,64566.928 9311.03,-16127.165 -12888.09,-7440.94 -3740.16,6478.142 -6478.14,-3740.16 -5570.868,9649.023 z"
         id="path4827" />
    </g>
    <g
       id="g4835"
       style="display:inline;stroke:#ff0000;stroke-width:118.11;stroke-miterlimit:4;stroke-dasharray:none;stroke-opacity:1"
       transform="rotate(13.000003,49982.089,13101.291)">
      <path
         style="display:inline;fill:none;stroke:#ff0000;stroke-width:118.11;stroke-linecap:butt;stroke-linejoin:miter;stroke-miterlimit:4;stroke-dasharray:none;stroke-opacity:1"
         d="m 11811.024,43425.198 v -29842.52 h 18700.787 v -1181.103 h 7480.316 v -590.551 h 7401.574 v 590.551 h 7480.316 v 590.551 h 14960.63 v 29842.52 h -14960.63 v 6889.765 h -7401.575 v -590.552 h -7559.055 v 590.552 h -7480.315 v 1181.102 h -14881.89 v -7480.315 z"
         id="path4831" />
      <path
         style="fill:none;stroke:#ff0000;stroke-width:118.11;stroke-linecap:butt;stroke-linejoin:miter;stroke-miterlimit:4;stroke-dasharray:none;stroke-opacity:1"
         d="m 74055.117,64566.928 9311.03,-16127.165 -12888.09,-7440.94 -3740.16,6478.142 -6478.14,-3740.16 -5570.868,9649.023 z"
         id="path4833" />
    </g>
    <circle
       style="fill:none;stroke:#ff0000;stroke-width:118.11;stroke-miterlimit:4;stroke-dasharray:none;stroke-opacity:1"
       id="path4918"
       cx="78740.156"
       cy="34645.668"
       r="1181.1024" />
    <circle
       style="display:inline;fill:none;stroke:#ff0000;stroke-width:118.11;stroke-miterlimit:4;stroke-dasharray:none;stroke-opacity:1"
       id="path4918-0"
       cx="70866.141"
       cy="22244.094"
       r="1181.1024" />
    <circle
       style="display:inline;fill:none;stroke:#ff0000;stroke-width:118.11;stroke-miterlimit:4;stroke-dasharray:none;stroke-opacity:1"
       id="path4918-6"
       cx="86614.172"
       cy="22244.094"
       r="1181.1024" />
  </g>
</svg>
