<?xml version="1.0" encoding="UTF-8" standalone="no"?>
<svg
   xmlns:dc="http://purl.org/dc/elements/1.1/"
   xmlns:cc="http://creativecommons.org/ns#"
   xmlns:rdf="http://www.w3.org/1999/02/22-rdf-syntax-ns#"
   xmlns:svg="http://www.w3.org/2000/svg"
   xmlns="http://www.w3.org/2000/svg"
   xmlns:sodipodi="http://sodipodi.sourceforge.net/DTD/sodipodi-0.dtd"
   xmlns:inkscape="http://www.inkscape.org/namespaces/inkscape"
   version="1.1"
   width="400mm"
   height="200mm"
   viewBox="0 0 157480.32 78740.155"
   id="svg2180"
   sodipodi:docname="cut.mount.svg"
   inkscape:version="1.0.1 (1.0.1+r75)">
  <title
     id="title3033">mcdox/case</title>
  <metadata
     id="metadata2186">
    <rdf:RDF>
      <cc:Work
         rdf:about="">
        <dc:format>image/svg+xml</dc:format>
        <dc:type
           rdf:resource="http://purl.org/dc/dcmitype/StillImage" />
        <dc:title>mcdox/case</dc:title>
      </cc:Work>
    </rdf:RDF>
  </metadata>
  <defs
     id="defs2184" />
  <sodipodi:namedview
     pagecolor="#ffffff"
     bordercolor="#666666"
     borderopacity="1"
     objecttolerance="10"
     gridtolerance="10"
     guidetolerance="10"
     inkscape:pageopacity="0"
     inkscape:pageshadow="2"
     inkscape:window-width="1853"
     inkscape:window-height="1025"
     id="namedview2182"
     showgrid="true"
     inkscape:zoom="0.89561458"
     inkscape:cx="755.90551"
     inkscape:cy="377.95276"
     inkscape:window-x="67"
     inkscape:window-y="27"
     inkscape:window-maximized="1"
     inkscape:current-layer="g4967"
     units="mm"
     width="400mm"
     inkscape:document-units="mm"
     inkscape:pagecheckerboard="false"
     inkscape:object-paths="false"
     inkscape:snap-intersection-paths="false"
     inkscape:snap-global="true"
     inkscape:document-rotation="0"
     inkscape:snap-smooth-nodes="false"
     inkscape:snap-midpoints="true"
     inkscape:snap-center="false"
     inkscape:snap-bbox="true"
     inkscape:bbox-nodes="false"
     inkscape:snap-nodes="true"
     inkscape:snap-grids="true"
     inkscape:snap-bbox-midpoints="true">
    <inkscape:grid
       type="xygrid"
       id="grid3031"
       units="mm"
       spacingx="393.70078"
       spacingy="393.70078"
       empspacing="5" />
  </sodipodi:namedview>
  <desc
     id="desc4">Picture generated by PCBNEW </desc>
  <g
     inkscape:groupmode="layer"
     id="g4967"
     inkscape:label="cut.mount"
     style="display:inline">
    <path
       id="path4941"
       style="display:inline;fill:none;stroke:#ff0000;stroke-width:118.11;stroke-miterlimit:4;stroke-dasharray:none;stroke-opacity:1"
       d="m 7322.8344,37401.574 a 629.92126,629.92126 0 0 1 -629.9213,629.921 629.92126,629.92126 0 0 1 -629.9213,-629.921 629.92126,629.92126 0 0 1 629.9213,-629.921 629.92126,629.92126 0 0 1 629.9213,629.921 z" />
    <path
       id="path4943"
       style="display:inline;fill:none;stroke:#ff0000;stroke-width:118.11;stroke-miterlimit:4;stroke-dasharray:none;stroke-opacity:1"
       d="m 24251.968,5905.5117 a 629.92126,629.92126 0 0 1 -629.921,629.9213 629.92126,629.92126 0 0 1 -629.921,-629.9213 629.92126,629.92126 0 0 1 629.921,-629.9212 629.92126,629.92126 0 0 1 629.921,629.9212 z" />
    <path
       id="path4945"
       style="display:inline;fill:none;stroke:#ff0000;stroke-width:118.11;stroke-miterlimit:4;stroke-dasharray:none;stroke-opacity:1"
       d="m 134488.19,5905.5117 a 629.92126,629.92126 0 0 1 -629.92,629.9213 629.92126,629.92126 0 0 1 -629.93,-629.9213 629.92126,629.92126 0 0 1 629.93,-629.9212 629.92126,629.92126 0 0 1 629.92,629.9212 z" />
    <path
       id="path4947"
       style="display:inline;fill:none;stroke:#ff0000;stroke-width:118.11;stroke-miterlimit:4;stroke-dasharray:none;stroke-opacity:1"
       d="m 93149.601,14566.929 a 629.92126,629.92126 0 0 1 -629.921,629.921 629.92126,629.92126 0 0 1 -629.922,-629.921 629.92126,629.92126 0 0 1 629.922,-629.922 629.92126,629.92126 0 0 1 629.921,629.922 z" />
    <path
       id="path4949"
       style="display:inline;fill:none;stroke:#ff0000;stroke-width:118.11;stroke-miterlimit:4;stroke-dasharray:none;stroke-opacity:1"
       d="m 65590.55,14566.929 a 629.92126,629.92126 0 0 1 -629.921,629.921 629.92126,629.92126 0 0 1 -629.921,-629.921 629.92126,629.92126 0 0 1 629.921,-629.922 629.92126,629.92126 0 0 1 629.921,629.922 z" />
    <path
       id="path4951"
       style="display:inline;fill:none;stroke:#ff0000;stroke-width:118.11;stroke-miterlimit:4;stroke-dasharray:none;stroke-opacity:1"
       d="m 79370.078,62992.125 a 629.92126,629.92126 0 0 1 -629.922,629.921 629.92126,629.92126 0 0 1 -629.921,-629.921 629.92126,629.92126 0 0 1 629.921,-629.921 629.92126,629.92126 0 0 1 629.922,629.921 z" />
    <path
       id="path4953"
       style="display:inline;fill:none;stroke:#ff0000;stroke-width:118.11;stroke-miterlimit:4;stroke-dasharray:none;stroke-opacity:1"
       d="m 151417.33,37401.574 a 629.92126,629.92126 0 0 1 -629.92,629.921 629.92126,629.92126 0 0 1 -629.93,-629.921 629.92126,629.92126 0 0 1 629.93,-629.921 629.92126,629.92126 0 0 1 629.92,629.921 z" />
    <path
       id="path4955"
       style="display:inline;fill:none;stroke:#ff0000;stroke-width:118.11;stroke-miterlimit:4;stroke-dasharray:none;stroke-opacity:1"
       d="m 146299.2,57086.613 a 629.92126,629.92126 0 0 1 -629.92,629.922 629.92126,629.92126 0 0 1 -629.92,-629.922 629.92126,629.92126 0 0 1 629.92,-629.921 629.92126,629.92126 0 0 1 629.92,629.921 z" />
    <path
       id="path4957"
       style="display:inline;fill:none;stroke:#ff0000;stroke-width:118.11;stroke-miterlimit:4;stroke-dasharray:none;stroke-opacity:1"
       d="m 106929.13,72834.641 a 629.92126,629.92126 0 0 1 -629.92,629.921 629.92126,629.92126 0 0 1 -629.92,-629.921 629.92126,629.92126 0 0 1 629.92,-629.922 629.92126,629.92126 0 0 1 629.92,629.922 z" />
    <path
       id="path4959"
       style="display:inline;fill:none;stroke:#ff0000;stroke-width:118.11;stroke-miterlimit:4;stroke-dasharray:none;stroke-opacity:1"
       d="m 49842.519,72834.641 a 629.92126,629.92126 0 0 1 -629.921,629.921 629.92126,629.92126 0 0 1 -629.922,-629.921 629.92126,629.92126 0 0 1 629.922,-629.922 629.92126,629.92126 0 0 1 629.921,629.922 z" />
    <path
       id="path4961"
       style="display:inline;fill:none;stroke:#ff0000;stroke-width:118.11;stroke-miterlimit:4;stroke-dasharray:none;stroke-opacity:1"
       d="m 12440.945,57086.613 a 629.92126,629.92126 0 0 1 -629.922,629.922 629.92126,629.92126 0 0 1 -629.921,-629.922 629.92126,629.92126 0 0 1 629.921,-629.921 629.92126,629.92126 0 0 1 629.922,629.921 z" />
    <path
       id="path474-5"
       style="fill:#008400;fill-opacity:0;stroke:#ff0000;stroke-width:118.11;stroke-linecap:round;stroke-linejoin:round;stroke-miterlimit:4;stroke-dasharray:none;stroke-opacity:1"
       d="m 62547.692,65976.931 268.66,-287.946 m -3723.473,-2933.792 864.06,805.003 m 3147.358,2397.448 3759.28,-4031.677 m -19.509,-555.63 -863.836,-805.978 m -4027.714,4318.648 -1727.893,-1610.981 m -1151.03,-1073.437 287.944,268.659 m 6350.034,-1614.944 -1727.894,-1610.981 m 1727.894,1610.981 268.659,-287.945 m 595.175,1093.924 268.661,-287.946 m -5160.21,3800.615 268.66,-287.945 m -1995.579,-1322.811 267.686,-288.17 m 2323.067,2704.905 -863.834,-805.979 m 5179.719,-3244.985 -288.17,-267.684 m -3186.902,-3510.881 863.833,805.976 m -1420.662,-785.716 -3758.081,4030.927 m 4910.084,-2957.266 268.659,-287.945 m -1132.493,-518.033 268.66,-287.943 m -556.829,20.26 288.169,267.683 m -15.548,7522.299 -287.945,-268.659 m -3723.473,-2933.792 268.66,-287.945" />
    <path
       id="path514-9"
       style="fill:#008400;fill-opacity:0;stroke:#ff0000;stroke-width:118.11;stroke-linecap:round;stroke-linejoin:round;stroke-miterlimit:4;stroke-dasharray:none;stroke-opacity:1"
       d="m 57077.042,60875.553 268.658,-287.945 m -3723.473,-2933.793 863.085,804.779 m 3148.334,2397.673 3759.279,-4031.678 m -19.286,-556.604 -864.059,-805.003 m -4027.715,4318.648 -1727.894,-1610.981 m -1152.004,-1073.662 287.946,268.66 m 6351.009,-1614.719 -1727.894,-1610.981 m 1727.894,1610.981 268.659,-287.945 m 595.399,1092.948 268.659,-287.945 m -5160.433,3801.589 268.659,-287.945 m -1996.553,-1323.036 268.659,-287.945 m 2323.071,2704.904 -863.836,-805.978 m 5179.719,-3244.985 -287.945,-268.659 m -3187.128,-3509.907 863.834,805.977 m -1420.438,-786.692 -3759.281,4031.677 m 4911.061,-2957.04 268.658,-287.945 m -1132.493,-518.033 268.659,-287.944 m -556.604,19.285 287.945,268.659 m -15.547,7522.299 -287.946,-268.659 m -3723.473,-2933.793 267.685,-288.169" />
    <path
       id="path554-4"
       style="fill:#008400;fill-opacity:0;stroke:#ff0000;stroke-width:118.11;stroke-linecap:round;stroke-linejoin:round;stroke-miterlimit:4;stroke-dasharray:none;stroke-opacity:1"
       d="m 63738.831,46227.706 286.971,268.435 m -4046.027,3762.269 3759.056,-4030.704 m -3471.111,4299.363 -268.658,287.945 m -19.287,-556.604 287.945,268.659 m 863.086,804.779 -267.686,288.17 m 1995.354,1323.785 -1727.668,-1611.955 m 1727.668,1611.955 -268.658,287.945 m 1132.719,517.058 -268.661,287.945 m 556.604,-19.286 -287.943,-268.659 m 2895.22,-4836.68 -1727.894,-1610.98 m 2879.674,2685.617 -287.945,-268.66 m 268.658,-287.945 -268.658,287.945 m -595.175,-1093.922 -268.66,287.945 m -1459.234,-1898.926 -268.66,287.946 m -595.4,-1092.95 -268.659,287.945 m 3724.446,2934.017 -863.833,-805.977 m -2591.954,-2415.985 864.06,805.004 m -5159.459,3801.814 864.058,805.004 m 2590.754,2416.733 -864.058,-805.003 m 5179.719,-3244.985 -3759.057,4030.702" />
    <path
       id="path594-9"
       style="fill:#008400;fill-opacity:0;stroke:#ff0000;stroke-width:118.11;stroke-linecap:round;stroke-linejoin:round;stroke-miterlimit:4;stroke-dasharray:none;stroke-opacity:1"
       d="m 48150.825,52551.24 268.661,-287.946 m 3743.506,3491.596 -287.944,-268.659 m 15.547,-7522.298 287.946,268.66 m 0,0 268.659,-287.945 m 595.175,1093.922 268.66,-287.945 m -1420.44,-786.692 -3759.279,4031.677 m 4315.883,-4050.963 863.836,805.977 m 2611.239,2972.589 -287.946,-268.66 m -4027.94,4319.623 -863.834,-805.979 m -1727.894,-1610.981 268.659,-287.944 m 1459.235,1898.925 268.659,-287.944 m 4623.115,-3225.7 267.686,-288.169 m -1131.745,-516.834 268.659,-287.945 m -268.659,287.945 -1727.894,-1610.981 m -4911.059,2957.04 288.17,267.685 m 2591.727,2416.959 -1727.894,-1610.981 m 6618.695,-1902.888 -863.086,-804.779 m -2875.935,5393.284 3759.281,-4031.676 m -7771.449,828.027 863.835,805.976 m 2591.728,2416.96 268.66,-287.946" />
    <path
       id="path634-0"
       style="fill:#008400;fill-opacity:0;stroke:#ff0000;stroke-width:118.11;stroke-linecap:round;stroke-linejoin:round;stroke-miterlimit:4;stroke-dasharray:none;stroke-opacity:1"
       d="m 59927.276,43426.499 88.406,-382.928 m -4986.825,-1151.299 383.901,88.631 m 6226.756,-4219.43 -383.902,-88.631 m 0,0 88.631,-383.902 m -1239.362,118.233 88.63,-383.901 m 1446.003,738.199 -1239.931,5370.729 m 944.659,-5843.261 -1150.732,-265.667 m -3924.725,-501.732 383.903,88.631 m -1328.336,5753.654 1150.731,265.668 m 2301.462,531.334 88.406,-382.928 m -2389.868,-148.406 88.406,-382.929 m 89.2,-5636.393 88.631,-383.903 m 1062.099,649.57 88.631,-383.903 m -88.631,383.903 2301.462,531.334 m 294.703,5725.026 -383.902,-88.631 m -3452.193,-797.001 2301.463,531.334 m -2123.632,-6551.631 1150.731,265.667 m -2863.194,5400.332 1239.93,-5370.728 m 3658.49,6904.955 -1150.731,-265.667 m -3452.193,-797.002 88.405,-382.927" />
    <path
       id="path674-9"
       style="fill:#008400;fill-opacity:0;stroke:#ff0000;stroke-width:118.11;stroke-linecap:round;stroke-linejoin:round;stroke-miterlimit:4;stroke-dasharray:none;stroke-opacity:1"
       d="m 62451.228,32494.067 88.631,-383.903 m -4986.827,-1151.3 383.903,88.631 m 6226.757,-4219.428 -383.903,-88.631 m 0,0 88.406,-382.927 m -1239.138,117.26 88.406,-382.928 m 1446.228,737.226 -1239.931,5370.728 m 944.435,-5842.286 -1150.732,-265.668 m -3924.501,-502.704 383.901,88.631 m -1328.561,5754.629 1150.731,265.668 m 2301.462,531.334 88.631,-383.903 m -2390.094,-147.433 88.631,-383.901 m 89.199,-5636.396 88.405,-382.927 m 1062.325,648.596 88.407,-382.929 m -88.407,382.929 2301.462,531.334 m 294.703,5725.026 -383.902,-88.631 m -3452.193,-797.002 2301.462,531.335 m -2123.857,-6550.657 1150.731,265.667 m -2862.97,5399.357 1239.93,-5370.727 m 3658.265,6905.93 -1150.731,-265.668 m -3452.193,-797.001 88.631,-383.902" />
    <path
       id="path714-1"
       style="fill:#008400;fill-opacity:0;stroke:#ff0000;stroke-width:118.11;stroke-linecap:round;stroke-linejoin:round;stroke-miterlimit:4;stroke-dasharray:none;stroke-opacity:1"
       d="m 8628.179,33301.199 381.9531,88.181 m 1151.5249,-4987.799 -88.631,383.901 m 4219.429,6226.756 88.406,-382.927 m 0,0 383.903,88.631 m -118.011,-1240.338 383.903,88.631 m -738.201,1446.002 -5370.7294,-1239.931 m 5843.0384,945.635 265.892,-1151.706 m 501.73,-3924.725 -88.631,383.902 m -5752.682,-1328.111 -265.6675,1150.732 m -531.3342,2301.461 381.953,88.181 m 149.3815,-2389.643 381.953,88.181 m 5636.3962,89.199 383.902,88.631 m -649.569,1062.099 383.902,88.631 m -383.902,-88.631 -531.335,2301.462 m -5725.0274,294.702 88.4058,-382.927 m 797.2265,-3453.167 -531.3346,2301.462 m 6551.6327,-2123.631 -265.668,1150.731 m -5400.331,-2863.194 5370.728,1239.93 m -6904.2067,3659.688 265.892,-1151.704 m 797.0017,-3452.194 381.953,88.181" />
    <path
       id="path754-7"
       style="fill:#008400;fill-opacity:0;stroke:#ff0000;stroke-width:118.11;stroke-linecap:round;stroke-linejoin:round;stroke-miterlimit:4;stroke-dasharray:none;stroke-opacity:1"
       d="m 10311.038,26011.936 381.955,88.181 m 1151.3,-4986.827 -88.631,383.902 m 4219.429,6226.755 88.631,-383.901 m 0,0 383.901,88.63 m -118.234,-1239.362 383.902,88.631 m -738.2,1446.001 -5370.73,-1239.93 m 5843.262,944.66 265.667,-1150.731 m 501.73,-3924.727 -88.631,383.903 m -5752.681,-1328.111 -265.667,1150.731 m -531.335,2301.462 381.953,88.181 m 149.382,-2389.643 381.953,88.181 m 5636.396,89.2 383.901,88.631 m -649.569,1062.1 383.902,88.631 m -383.902,-88.631 -531.334,2301.462 m -5725.028,294.702 88.631,-383.901 m 797.002,-3452.194 -531.335,2301.463 m 6551.632,-2123.632 -265.667,1150.731 m -5400.333,-2863.193 5370.729,1239.93 m -6903.981,3658.715 265.667,-1150.73 m 797.001,-3452.194 381.952,88.181" />
    <path
       id="path794-7"
       style="fill:#008400;fill-opacity:0;stroke:#ff0000;stroke-width:118.11;stroke-linecap:round;stroke-linejoin:round;stroke-miterlimit:4;stroke-dasharray:none;stroke-opacity:1"
       d="m 11993.674,18723.649 381.953,88.181 m 1151.299,-4986.826 -88.405,382.926 m 4219.204,6227.732 88.63,-383.901 m 0,0 383.902,88.63 m -118.233,-1239.362 383.901,88.63 m -738.199,1446.003 -5370.73,-1239.931 m 5843.261,944.66 265.668,-1150.732 m 501.731,-3924.725 -88.406,382.927 m -5752.68,-1328.111 -265.893,1151.706 m -531.334,2301.461 381.953,88.181 m 149.382,-2389.64 381.953,88.18 m 5636.62,88.225 383.903,88.63 m -649.794,1063.076 383.902,88.631 m -383.902,-88.631 -531.335,2301.461 m -5725.027,294.702 88.631,-383.902 m 797.001,-3452.193 -531.334,2301.461 m 6551.858,-2124.605 -265.892,1151.706 m -5400.333,-2863.193 5370.729,1239.93 m -6903.982,3658.716 265.667,-1150.731 m 797.227,-3453.169 381.953,88.181" />
    <path
       id="path834-1"
       style="fill:#008400;fill-opacity:0;stroke:#ff0000;stroke-width:118.11;stroke-linecap:round;stroke-linejoin:round;stroke-miterlimit:4;stroke-dasharray:none;stroke-opacity:1"
       d="m 13676.308,11435.362 381.953,88.181 m 1151.524,-4987.7985 -88.631,383.9028 m 4219.429,6226.7527 88.405,-382.927 m 0,0 383.902,88.631 m -118.009,-1240.336 383.901,88.631 m -738.198,1446.002 -5370.729,-1239.931 m 5843.035,945.634 265.892,-1151.705 m 501.732,-3924.7238 -88.631,383.9008 m -5752.681,-1328.1113 -265.667,1150.7291 m -531.334,2301.4612 381.953,88.181 m 149.381,-2389.6422 381.954,88.1808 m 5636.395,89.1997 383.902,88.6308 m -649.569,1062.1002 383.902,88.6308 m -383.902,-88.6308 -531.334,2301.4607 m -5725.026,294.703 88.406,-382.928 m 797.227,-3453.1661 -531.335,2301.4611 m 6551.632,-2123.6307 -265.667,1150.731 m -5400.332,-2863.1931 5370.728,1239.9305 m -6904.206,3659.6873 265.892,-1151.706 m 797.001,-3452.1901 381.953,88.1809" />
    <path
       id="path874-1"
       style="fill:#008400;fill-opacity:0;stroke:#ff0000;stroke-width:118.11;stroke-linecap:round;stroke-linejoin:round;stroke-miterlimit:4;stroke-dasharray:none;stroke-opacity:1"
       d="m 10300.871,36111.501 5370.727,1239.93 m 295.496,471.559 -265.892,1151.705 m -797.002,3452.194 265.667,-1150.73 m -6403.2248,-266.237 265.667,-1150.73 m 797.227,-3453.169 -265.8925,1151.707 m -797.0015,3452.192 382.9264,88.405 m -117.2601,-1239.136 382.9274,88.405 m 148.4071,-2389.868 382.9274,88.406 m -117.0352,-1240.111 382.9288,88.406 m 88.405,-382.927 -88.405,382.927 m -265.8924,1151.704 -531.3347,2301.464 m 6256.3611,-2596.166 -88.406,382.929 m 0,0 383.901,88.63 m -649.794,1063.075 383.902,88.631 m -383.902,-88.631 -531.334,2301.462 m 0,0 383.901,88.631 m -738.199,1446.001 88.631,-383.902 m 0,0 383.901,88.631 m -472.532,295.271 -5370.7298,-1239.931 m 0,0 88.6305,-383.901" />
    <path
       id="path914-5"
       style="fill:#008400;fill-opacity:0;stroke:#ff0000;stroke-width:118.11;stroke-linecap:round;stroke-linejoin:round;stroke-miterlimit:4;stroke-dasharray:none;stroke-opacity:1"
       d="m 24321.12,8639.2603 5370.727,1239.9305 m 294.297,472.3062 -265.667,1150.731 m -797.227,3453.168 265.893,-1151.705 m -6403.45,-265.262 265.892,-1151.705 m 797.002,-3452.1926 -265.667,1150.7306 m -797.227,3453.167 383.903,88.631 m -118.011,-1240.336 383.902,88.631 m 147.434,-2390.091 383.901,88.63 m -118.234,-1239.3604 383.901,88.6307 m 88.631,-383.9018 -88.631,383.9018 m -265.667,1150.7297 -531.334,2301.462 m 6256.36,-2596.163 -88.631,383.901 m 0,0 382.928,88.406 m -648.596,1062.325 382.929,88.406 m -382.929,-88.406 -531.334,2301.462 m 0,0 382.926,88.405 m -737.225,1446.227 88.406,-382.927 m 0,0 382.926,88.405 m -471.333,294.522 -5370.728,-1239.93 m 0,0 88.406,-382.928" />
    <path
       id="path954-97"
       style="fill:#008400;fill-opacity:0;stroke:#ff0000;stroke-width:118.11;stroke-linecap:round;stroke-linejoin:round;stroke-miterlimit:4;stroke-dasharray:none;stroke-opacity:1"
       d="m 22638.262,15928.521 5370.727,1239.93 m 294.521,471.333 -265.892,1151.706 m -797.002,3452.193 265.668,-1150.731 m -6403.226,-266.236 265.668,-1150.731 m 797.226,-3453.167 -265.892,1151.705 m -797.002,3452.193 383.902,88.63 m -118.234,-1239.361 383.901,88.63 m 147.433,-2390.092 383.903,88.631 m -118.011,-1240.336 383.902,88.631 m 88.406,-382.928 -88.406,382.928 m -265.892,1151.705 -531.335,2301.462 m 6256.36,-2596.164 -88.406,382.928 m 0,0 382.927,88.406 m -648.82,1063.3 382.928,88.405 m -382.928,-88.405 -531.334,2301.462 m 0,0 382.928,88.406 m -737.226,1446.226 88.63,-383.901 m 0,0 382.928,88.405 m -471.558,295.496 -5370.728,-1239.93 m 0,0 88.631,-383.903" />
    <path
       id="path994-7"
       style="fill:#008400;fill-opacity:0;stroke:#ff0000;stroke-width:118.11;stroke-linecap:round;stroke-linejoin:round;stroke-miterlimit:4;stroke-dasharray:none;stroke-opacity:1"
       d="m 20955.628,23216.809 5370.727,1239.93 m 294.296,472.309 -265.667,1150.731 m -797.002,3452.192 265.667,-1150.731 m -6403.225,-266.236 265.667,-1150.73 m 797.002,-3452.193 -265.667,1150.731 m -797.002,3452.192 383.902,88.63 m -118.234,-1239.361 383.901,88.63 m 147.433,-2390.092 383.903,88.631 m -118.236,-1239.362 383.903,88.631 m 88.631,-383.902 -88.631,383.902 m -265.667,1150.731 -531.335,2301.462 m 6256.361,-2596.165 -88.63,383.902 m 0,0 382.926,88.406 m -648.594,1062.325 382.928,88.406 m -382.928,-88.406 -531.334,2301.462 m 0,0 382.928,88.406 m -737.226,1446.227 88.63,-383.901 m 0,0 382.927,88.406 m -471.558,295.496 -5370.728,-1239.931 m 0,0 88.631,-383.901" />
    <path
       id="path1034-67"
       style="fill:#008400;fill-opacity:0;stroke:#ff0000;stroke-width:118.11;stroke-linecap:round;stroke-linejoin:round;stroke-miterlimit:4;stroke-dasharray:none;stroke-opacity:1"
       d="m 19272.992,30505.097 5370.729,1239.93 m 294.296,472.308 -265.667,1150.731 m -797.227,3453.167 265.892,-1151.705 m -6403.449,-265.262 265.892,-1151.705 m 797.002,-3452.193 -265.667,1150.731 m -797.227,3453.167 383.901,88.631 m -118.01,-1240.336 383.903,88.631 m 147.432,-2390.093 383.901,88.63 m -118.234,-1239.361 383.902,88.63 m 88.63,-383.901 -88.63,383.901 m -265.668,1150.731 -531.334,2301.462 m 6256.36,-2596.164 -88.631,383.902 m 0,0 382.928,88.406 m -648.594,1062.324 382.927,88.406 m -382.927,-88.406 -531.334,2301.462 m 0,0 382.928,88.406 m -737.226,1446.227 88.405,-382.926 m 0,0 382.929,88.406 m -471.334,294.521 -5370.727,-1239.93 m 0,0 88.406,-382.928" />
    <path
       id="path1074-3"
       style="fill:#008400;fill-opacity:0;stroke:#ff0000;stroke-width:118.11;stroke-linecap:round;stroke-linejoin:round;stroke-miterlimit:4;stroke-dasharray:none;stroke-opacity:1"
       d="m 17590.134,37794.361 5370.728,1239.93 m 294.52,471.333 -265.892,1151.705 m -797.002,3452.194 265.668,-1150.732 m -6403.224,-266.235 265.668,-1150.732 m 797.226,-3453.167 -265.892,1151.706 m -797.002,3452.193 383.901,88.631 m -118.233,-1239.363 383.9,88.631 m 147.433,-2390.091 383.901,88.631 m -118.009,-1240.337 383.902,88.63 m 88.405,-382.926 -88.405,382.926 m -265.893,1151.707 -531.334,2301.461 m 6256.361,-2596.163 -88.406,382.927 m 0,0 382.928,88.406 m -648.819,1063.3 382.927,88.405 m -382.927,-88.405 -531.334,2301.462 m 0,0 382.927,88.406 m -737.225,1446.228 88.631,-383.902 m 0,0 382.929,88.406 m -471.559,295.496 -5370.727,-1239.93 m 0,0 88.63,-383.901" />
    <path
       id="path1114-65"
       style="fill:#008400;fill-opacity:0;stroke:#ff0000;stroke-width:118.11;stroke-linecap:round;stroke-linejoin:round;stroke-miterlimit:4;stroke-dasharray:none;stroke-opacity:1"
       d="m 31875.076,9171.1638 5370.728,1239.9302 m 295.271,472.531 -265.667,1150.731 m -797.002,3452.192 265.668,-1150.731 m -6404.199,-266.46 265.667,-1150.731 m 797.002,-3452.1931 -265.667,1150.7311 m -797.002,3452.193 383.902,88.631 m -118.234,-1239.361 383.901,88.631 m 147.432,-2390.092 383.903,88.631 m -118.236,-1239.3621 383.902,88.6307 m 88.631,-383.9008 -88.631,383.9008 m -265.667,1150.7314 -531.334,2301.461 m 6256.36,-2596.163 -88.63,383.901 m 0,0 383.902,88.631 m -649.569,1062.1 383.9,88.631 m -383.9,-88.631 -531.335,2301.461 m 0,0 383.902,88.631 m -738.2,1446.002 88.631,-383.902 m 0,0 383.903,88.631 m -472.534,295.271 -5370.726,-1239.93 m 0,0 88.63,-383.902" />
    <path
       id="path1154-6"
       style="fill:#008400;fill-opacity:0;stroke:#ff0000;stroke-width:118.11;stroke-linecap:round;stroke-linejoin:round;stroke-miterlimit:4;stroke-dasharray:none;stroke-opacity:1"
       d="m 30192.217,16460.425 5370.728,1239.931 m 295.496,471.558 -265.668,1150.731 m -797.226,3453.167 265.667,-1150.73 m -6404.198,-266.461 265.668,-1150.731 m 797.226,-3453.168 -265.667,1150.732 m -797.227,3453.167 383.901,88.63 m -118.233,-1239.362 383.902,88.63 m 147.656,-2391.066 383.903,88.631 m -118.236,-1239.362 383.902,88.631 m 88.406,-382.928 -88.406,382.928 m -265.667,1150.731 -531.56,2302.436 m 6256.361,-2596.164 -88.406,382.927 m 0,0 383.903,88.631 m -649.569,1062.1 383.901,88.631 m -383.901,-88.631 -531.56,2302.437 m 0,0 383.902,88.631 m -737.975,1445.026 88.406,-382.927 m 0,0 383.903,88.631 m -472.309,294.296 -5370.726,-1239.93 m 0,0 88.405,-382.926" />
    <path
       id="path1194-3"
       style="fill:#008400;fill-opacity:0;stroke:#ff0000;stroke-width:118.11;stroke-linecap:round;stroke-linejoin:round;stroke-miterlimit:4;stroke-dasharray:none;stroke-opacity:1"
       d="m 28509.582,23748.712 5370.728,1239.93 m 295.27,472.534 -265.667,1150.731 m -797.001,3452.192 265.667,-1150.73 m -6404.198,-266.462 265.668,-1150.731 m 797.001,-3452.193 -265.667,1150.731 m -797.002,3452.193 383.901,88.631 m -118.234,-1239.362 383.902,88.631 m 147.432,-2390.093 383.902,88.631 m -118.234,-1239.363 383.901,88.631 m 88.631,-383.903 -88.631,383.903 m -265.667,1150.731 -531.334,2301.461 m 6256.359,-2596.165 -88.631,383.902 m 0,0 383.902,88.631 m -649.569,1062.099 383.903,88.631 m -383.903,-88.631 -531.334,2301.462 m 0,0 383.902,88.631 m -738.199,1446.001 88.631,-383.901 m 0,0 383.902,88.63 m -472.532,295.272 -5370.728,-1239.931 m 0,0 88.631,-383.903" />
    <path
       id="path1234-9"
       style="fill:#008400;fill-opacity:0;stroke:#ff0000;stroke-width:118.11;stroke-linecap:round;stroke-linejoin:round;stroke-miterlimit:4;stroke-dasharray:none;stroke-opacity:1"
       d="m 26824.477,31007.694 5369.754,1239.706 m 295.271,472.532 -265.667,1150.731 m -797.002,3452.193 265.667,-1150.731 m -6403.224,-266.236 265.667,-1150.731 m 797.002,-3452.193 -265.667,1150.731 m -797.002,3452.193 383.903,88.631 m -118.236,-1239.362 383.902,88.631 m 147.434,-2390.092 383.901,88.63 m -118.234,-1239.361 383.902,88.63 m 88.631,-383.902 -88.631,383.902 m -265.667,1150.731 -531.335,2301.462 m 6255.387,-2596.389 -88.631,383.902 m 0,0 383.903,88.631 m -649.569,1062.1 383.902,88.631 m -383.902,-88.631 -531.335,2301.462 m 0,0 383.901,88.631 m -738.199,1446.002 88.631,-383.902 m 0,0 383.902,88.631 m -472.532,295.271 -5369.754,-1239.705 m 0,0 88.631,-383.902" />
    <path
       id="path1274-4"
       style="fill:#008400;fill-opacity:0;stroke:#ff0000;stroke-width:118.11;stroke-linecap:round;stroke-linejoin:round;stroke-miterlimit:4;stroke-dasharray:none;stroke-opacity:1"
       d="m 25144.088,38326.262 5370.728,1239.931 m 295.496,471.557 -265.667,1150.731 m -797.227,3453.168 265.668,-1150.732 m -6404.2,-266.46 265.667,-1150.731 m 797.227,-3453.168 -265.667,1150.731 m -797.227,3453.168 383.902,88.631 m -118.235,-1239.361 383.902,88.631 m 147.658,-2391.067 383.901,88.631 m -118.233,-1239.362 383.901,88.631 m 88.406,-382.928 -88.406,382.928 m -265.667,1150.731 -531.559,2302.436 m 6256.36,-2596.163 -88.406,382.926 m 0,0 383.902,88.631 m -649.569,1062.1 383.902,88.631 m -383.902,-88.631 -531.56,2302.438 m 0,0 383.902,88.63 m -737.976,1445.028 88.406,-382.927 m 0,0 383.901,88.631 m -472.308,294.297 -5370.728,-1239.931 m 0,0 88.406,-382.927" />
    <path
       id="path1314-8"
       style="fill:#008400;fill-opacity:0;stroke:#ff0000;stroke-width:118.11;stroke-linecap:round;stroke-linejoin:round;stroke-miterlimit:4;stroke-dasharray:none;stroke-opacity:1"
       d="m 39296.085,10278.919 5370.728,1239.93 m 295.271,472.534 -265.667,1150.729 m -797.002,3452.193 265.667,-1150.73 m -6403.224,-266.237 265.668,-1150.731 m 797.001,-3452.192 -265.667,1150.731 m -797.002,3452.192 382.928,88.406 m -117.26,-1239.137 382.928,88.406 m 148.407,-2389.867 382.927,88.406 m -117.26,-1239.138 382.927,88.406 m 88.631,-383.903 -88.631,383.903 m -265.667,1150.73 -531.335,2301.461 m 6256.361,-2596.165 -88.631,383.902 m 0,0 383.903,88.631 m -649.57,1062.099 383.903,88.631 m -383.903,-88.631 -531.335,2301.462 m 0,0 383.902,88.631 m -738.198,1446.001 88.63,-383.901 m 0,0 383.902,88.63 m -472.531,295.272 -5370.728,-1239.931 m 0,0 88.63,-383.901" />
    <path
       id="path1354-1"
       style="fill:#008400;fill-opacity:0;stroke:#ff0000;stroke-width:118.11;stroke-linecap:round;stroke-linejoin:round;stroke-miterlimit:4;stroke-dasharray:none;stroke-opacity:1"
       d="m 37613.45,17567.206 5370.729,1239.93 m 295.27,472.533 -265.667,1150.73 m -797.002,3452.193 265.668,-1150.731 m -6403.225,-266.236 265.668,-1150.731 m 797.001,-3452.193 -265.667,1150.731 m -797.002,3452.193 382.929,88.406 m -117.261,-1239.137 382.928,88.406 m 148.407,-2389.868 382.927,88.405 m -117.261,-1239.136 382.928,88.405 m 88.631,-383.902 -88.631,383.902 m -265.667,1150.73 -531.335,2301.463 m 6256.359,-2596.165 -88.63,383.902 m 0,0 383.902,88.63 m -649.569,1062.1 383.902,88.631 m -383.902,-88.631 -531.335,2301.462 m 0,0 383.901,88.63 m -738.199,1446.003 88.631,-383.902 m 0,0 383.902,88.631 m -472.532,295.271 -5370.728,-1239.931 m 0,0 88.631,-383.9" />
    <path
       id="path1394-29"
       style="fill:#008400;fill-opacity:0;stroke:#ff0000;stroke-width:118.11;stroke-linecap:round;stroke-linejoin:round;stroke-miterlimit:4;stroke-dasharray:none;stroke-opacity:1"
       d="m 35930.816,24855.495 5370.728,1239.93 m 295.272,472.533 -265.667,1150.73 m -797.227,3453.168 265.892,-1151.706 m -6403.45,-265.26 265.893,-1151.707 m 797.002,-3452.192 -265.668,1150.731 m -797.227,3453.168 382.928,88.406 m -117.035,-1240.111 382.928,88.406 m 148.407,-2389.868 382.927,88.406 m -117.261,-1239.137 382.928,88.406 m 88.631,-383.902 -88.631,383.902 m -265.667,1150.731 -531.335,2301.462 m 6256.36,-2596.165 -88.63,383.902 m 0,0 383.902,88.631 m -649.57,1062.1 383.903,88.631 m -383.903,-88.631 -531.334,2301.462 m 0,0 383.901,88.631 m -738.199,1446.002 88.405,-382.927 m 0,0 383.902,88.631 m -472.306,294.296 -5370.729,-1239.931 m 0,0 88.406,-382.927" />
    <path
       id="path1434-3"
       style="fill:#008400;fill-opacity:0;stroke:#ff0000;stroke-width:118.11;stroke-linecap:round;stroke-linejoin:round;stroke-miterlimit:4;stroke-dasharray:none;stroke-opacity:1"
       d="m 34247.957,32144.756 5370.728,1239.93 m 295.496,471.558 -265.892,1151.705 m -797.002,3452.193 265.667,-1150.731 m -6403.225,-266.235 265.667,-1150.732 m 797.227,-3453.168 -265.893,1151.707 m -797.001,3452.193 382.927,88.406 m -117.259,-1239.137 382.926,88.406 m 148.407,-2389.867 382.928,88.405 m -117.036,-1240.111 382.929,88.406 m 88.406,-382.927 -88.406,382.927 m -265.893,1151.707 -531.334,2301.462 m 6256.36,-2596.164 -88.406,382.927 m 0,0 383.903,88.631 m -649.795,1063.074 383.902,88.631 m -383.902,-88.631 -531.334,2301.462 m 0,0 383.901,88.631 m -738.2,1446.002 88.63,-383.902 m 0,0 383.901,88.631 m -472.532,295.271 -5370.728,-1239.931 m 0,0 88.631,-383.902" />
    <path
       id="path1474-9"
       style="fill:#008400;fill-opacity:0;stroke:#ff0000;stroke-width:118.11;stroke-linecap:round;stroke-linejoin:round;stroke-miterlimit:4;stroke-dasharray:none;stroke-opacity:1"
       d="m 32565.322,39433.045 5370.728,1239.93 m 295.271,472.533 -265.667,1150.731 m -797.002,3452.193 265.667,-1150.731 m -6403.224,-266.235 265.667,-1150.732 m 797.002,-3452.192 -265.667,1150.731 m -797.002,3452.193 382.927,88.406 m -117.259,-1239.138 382.927,88.406 m 148.407,-2389.868 382.928,88.406 m -117.261,-1239.136 382.927,88.406 m 88.631,-383.901 -88.631,383.901 m -265.667,1150.731 -531.335,2301.463 m 6256.361,-2596.166 -88.631,383.903 m 0,0 383.901,88.631 m -649.57,1062.101 383.902,88.631 m -383.902,-88.631 -531.334,2301.461 m 0,0 383.902,88.631 m -738.2,1446.003 88.631,-383.903 m 0,0 383.902,88.631 m -472.534,295.272 -5370.728,-1239.931 m 0,0 88.631,-383.901" />
    <path
       id="path1514-0"
       style="fill:#008400;fill-opacity:0;stroke:#ff0000;stroke-width:118.11;stroke-linecap:round;stroke-linejoin:round;stroke-miterlimit:4;stroke-dasharray:none;stroke-opacity:1"
       d="m 46452.626,12536.656 5370.727,1239.931 m 294.298,472.307 -265.667,1150.731 m -797.002,3452.194 265.667,-1150.732 m -6403.224,-266.235 265.667,-1150.732 m 797.002,-3452.193 -265.667,1150.731 m -797.002,3452.194 383.903,88.63 m -118.236,-1239.362 383.903,88.631 m 147.433,-2390.092 383.901,88.63 m -118.234,-1239.361 383.902,88.63 m 88.63,-383.901 -88.63,383.901 m -265.668,1150.731 -531.334,2301.462 m 6256.359,-2596.164 -88.63,383.901 m 0,0 382.928,88.406 m -648.596,1062.325 382.929,88.406 m -382.929,-88.406 -531.334,2301.462 m 0,0 382.927,88.406 m -737.225,1446.227 88.631,-383.902 m 0,0 382.926,88.405 m -471.558,295.496 -5370.728,-1239.93 m 0,0 88.631,-383.902" />
    <path
       id="path1554-8"
       style="fill:#008400;fill-opacity:0;stroke:#ff0000;stroke-width:118.11;stroke-linecap:round;stroke-linejoin:round;stroke-miterlimit:4;stroke-dasharray:none;stroke-opacity:1"
       d="m 44769.767,19825.917 5370.727,1239.931 m 294.522,471.332 -265.667,1150.731 m -797.227,3453.168 265.667,-1150.731 m -6403.224,-266.236 265.667,-1150.73 m 797.227,-3453.169 -265.667,1150.731 m -797.227,3453.168 383.902,88.63 m -118.235,-1239.361 383.902,88.63 m 147.659,-2391.067 383.901,88.631 m -118.234,-1239.362 383.902,88.631 m 88.406,-382.927 -88.406,382.927 m -265.667,1150.731 -531.56,2302.437 m 6256.36,-2596.164 -88.405,382.927 m 0,0 382.928,88.406 m -648.596,1062.325 382.929,88.406 m -382.929,-88.406 -531.559,2302.437 m 0,0 382.926,88.406 m -736.999,1445.253 88.405,-382.928 m 0,0 382.927,88.406 m -471.332,294.522 -5370.729,-1239.931 m 0,0 88.406,-382.928" />
    <path
       id="path1594-8"
       style="fill:#008400;fill-opacity:0;stroke:#ff0000;stroke-width:118.11;stroke-linecap:round;stroke-linejoin:round;stroke-miterlimit:4;stroke-dasharray:none;stroke-opacity:1"
       d="m 43087.133,27114.207 5370.727,1239.93 m 294.297,472.307 -265.668,1150.731 m -797.002,3452.195 265.668,-1150.732 m -6403.225,-266.236 265.668,-1150.731 m 797.001,-3452.193 -265.667,1150.731 m -797.002,3452.193 383.903,88.631 m -118.235,-1239.363 383.902,88.63 m 147.434,-2390.093 383.901,88.631 m -118.235,-1239.36 383.901,88.63 m 88.631,-383.901 -88.631,383.901 m -265.667,1150.731 -531.335,2301.464 m 6256.361,-2596.165 -88.631,383.903 m 0,0 382.926,88.405 m -648.595,1062.326 382.929,88.406 m -382.929,-88.406 -531.334,2301.462 m 0,0 382.926,88.405 m -737.225,1446.228 88.631,-383.903 m 0,0 382.926,88.406 m -471.558,295.496 -5370.728,-1239.931 m 0,0 88.631,-383.9" />
    <path
       id="path1634-5"
       style="fill:#008400;fill-opacity:0;stroke:#ff0000;stroke-width:118.11;stroke-linecap:round;stroke-linejoin:round;stroke-miterlimit:4;stroke-dasharray:none;stroke-opacity:1"
       d="m 41404.499,34402.494 5370.727,1239.93 m 294.296,472.308 -265.667,1150.731 m -797.002,3452.195 265.667,-1150.731 m -6403.225,-266.238 265.667,-1150.731 m 797.002,-3452.193 -265.667,1150.731 m -797.002,3452.193 383.902,88.632 m -118.234,-1239.362 383.901,88.631 m 147.434,-2390.093 383.902,88.631 m -118.236,-1239.363 383.902,88.631 m 88.631,-383.902 -88.631,383.902 m -265.667,1150.731 -531.335,2301.462 m 6256.361,-2596.165 -88.631,383.902 m 0,0 382.926,88.405 m -648.593,1062.326 382.926,88.405 m -382.926,-88.405 -531.335,2301.462 m 0,0 382.929,88.406 m -737.227,1446.225 88.631,-383.902 m 0,0 382.928,88.406 m -471.558,295.495 -5370.728,-1239.931 m 0,0 88.631,-383.901" />
    <path
       id="path1674-0"
       style="fill:#008400;fill-opacity:0;stroke:#ff0000;stroke-width:118.11;stroke-linecap:round;stroke-linejoin:round;stroke-miterlimit:4;stroke-dasharray:none;stroke-opacity:1"
       d="m 39721.639,41691.756 5370.728,1239.931 m 294.521,471.334 -265.668,1150.732 m -797.226,3453.166 265.667,-1150.731 m -6403.224,-266.236 265.667,-1150.731 m 797.227,-3453.167 -265.667,1150.731 m -797.227,3453.167 383.901,88.631 m -118.234,-1239.362 383.902,88.631 m 147.657,-2391.068 383.902,88.632 m -118.235,-1239.363 383.903,88.632 m 88.406,-382.928 -88.406,382.928 m -265.668,1150.731 -531.559,2302.436 m 6256.36,-2596.165 -88.405,382.928 m 0,0 382.927,88.406 m -648.594,1062.323 382.927,88.406 m -382.927,-88.406 -531.56,2302.437 m 0,0 382.928,88.406 m -737.001,1445.253 88.406,-382.928 m 0,0 382.927,88.406 m -471.334,294.521 -5370.727,-1239.93 m 0,0 88.406,-382.928" />
    <path
       id="path1714-9"
       style="fill:#008400;fill-opacity:0;stroke:#ff0000;stroke-width:118.11;stroke-linecap:round;stroke-linejoin:round;stroke-miterlimit:4;stroke-dasharray:none;stroke-opacity:1"
       d="m 53607.967,14795.143 5370.728,1239.931 m 295.271,472.532 -265.667,1150.731 m -797.002,3452.194 265.667,-1150.732 m -6404.199,-266.461 265.667,-1150.731 m 797.002,-3452.193 -265.667,1150.731 m -797.002,3452.193 383.903,88.631 m -118.236,-1239.363 383.902,88.631 m 147.434,-2390.094 383.901,88.631 m -118.234,-1239.362 383.902,88.631 m 88.631,-383.901 -88.631,383.901 m -265.667,1150.731 -531.335,2301.463 m 6256.361,-2596.165 -88.631,383.902 m 0,0 383.901,88.631 m -649.569,1062.101 383.902,88.631 m -383.902,-88.631 -531.334,2301.461 m 0,0 383.902,88.631 m -738.2,1446.003 88.631,-383.903 m 0,0 383.9,88.631 m -472.531,295.271 -5370.729,-1239.93 m 0,0 88.631,-383.902" />
    <path
       id="path1754-6"
       style="fill:#008400;fill-opacity:0;stroke:#ff0000;stroke-width:118.11;stroke-linecap:round;stroke-linejoin:round;stroke-miterlimit:4;stroke-dasharray:none;stroke-opacity:1"
       d="m 51925.333,22083.431 5370.728,1239.931 m 295.271,472.532 -265.667,1150.731 m -797.002,3452.194 265.667,-1150.731 m -6404.2,-266.461 265.668,-1150.731 m 797.001,-3452.193 -265.667,1150.731 m -797.002,3452.193 383.902,88.631 m -118.234,-1239.362 383.901,88.631 m 147.434,-2390.094 383.901,88.631 m -118.234,-1239.363 383.903,88.631 m 88.63,-383.902 -88.63,383.902 m -265.667,1150.73 -531.335,2301.462 m 6256.361,-2596.165 -88.631,383.902 m 0,0 383.901,88.631 m -649.569,1062.1 383.902,88.631 m -383.902,-88.631 -531.334,2301.462 m 0,0 383.903,88.631 m -738.201,1446.001 88.631,-383.901 m 0,0 383.901,88.63 m -472.533,295.27 -5370.727,-1239.93 m 0,0 88.631,-383.903" />
    <path
       id="path1794-3"
       style="fill:#008400;fill-opacity:0;stroke:#ff0000;stroke-width:118.11;stroke-linecap:round;stroke-linejoin:round;stroke-miterlimit:4;stroke-dasharray:none;stroke-opacity:1"
       d="m 50242.475,29372.694 5370.727,1239.93 m 295.495,471.559 -265.667,1150.731 m -797.226,3453.167 265.667,-1150.731 m -6404.199,-266.461 265.668,-1150.731 m 797.226,-3453.168 -265.667,1150.731 m -797.227,3453.168 383.902,88.63 m -118.234,-1239.361 383.901,88.63 m 147.659,-2391.067 383.902,88.631 m -118.236,-1239.362 383.903,88.631 m 88.406,-382.927 -88.406,382.928 m -265.667,1150.729 -531.559,2302.437 m 6256.36,-2596.165 -88.406,382.928 m 0,0 383.901,88.63 m -649.569,1062.099 383.902,88.631 m -383.902,-88.631 -531.559,2302.437 m 0,0 383.901,88.631 m -737.974,1445.027 88.405,-382.927 m 0,0 383.903,88.631 m -472.308,294.296 -5370.728,-1239.93 m 0,0 88.406,-382.929" />
    <path
       id="path1834-8"
       style="fill:#008400;fill-opacity:0;stroke:#ff0000;stroke-width:118.11;stroke-linecap:round;stroke-linejoin:round;stroke-miterlimit:4;stroke-dasharray:none;stroke-opacity:1"
       d="m 48559.841,36660.982 5370.726,1239.93 m 295.272,472.533 -265.667,1150.731 m -797.002,3452.193 265.668,-1150.731 m -6404.2,-266.46 265.667,-1150.731 m 797.002,-3452.195 -265.667,1150.732 m -797.002,3452.194 383.902,88.629 m -118.234,-1239.361 383.901,88.63 m 147.433,-2390.092 383.903,88.63 m -118.236,-1239.362 383.903,88.631 m 88.631,-383.901 -88.631,383.901 m -265.667,1150.731 -531.335,2301.463 m 6256.36,-2596.165 -88.63,383.902 m 0,0 383.901,88.631 m -649.569,1062.1 383.901,88.63 m -383.901,-88.63 -531.334,2301.462 m 0,0 383.903,88.631 m -738.201,1446.002 88.631,-383.902 m 0,0 383.902,88.631 m -472.533,295.271 -5370.728,-1239.931 m 0,0 88.631,-383.901" />
    <path
       id="path1874-5"
       style="fill:#008400;fill-opacity:0;stroke:#ff0000;stroke-width:118.11;stroke-linecap:round;stroke-linejoin:round;stroke-miterlimit:4;stroke-dasharray:none;stroke-opacity:1"
       d="m 73240.186,55088.14 -3759.055,4030.703 m -556.604,19.286 -864.06,-805.004 m -2590.754,-2416.734 863.836,805.978 m 3431.564,-5412.795 864.06,805.004 m 2591.727,2416.958 -863.833,-805.977 m -2591.954,-2415.985 -267.684,288.17 m 1131.744,516.834 -267.686,288.169 m 1995.58,1322.812 -268.659,287.944 m 1132.492,518.033 -268.659,287.944 m 287.945,268.66 -287.945,-268.66 m -863.833,-805.977 -1726.921,-1610.756 m -880.356,6716.096 -287.944,-268.659 m 0,0 -268.66,287.945 m -595.401,-1092.949 -268.659,287.945 m 268.659,-287.945 -1726.918,-1610.756 m 0,0 -268.659,287.945 m -883.121,-1362.582 287.944,268.659 m 0,0 -268.659,287.945 m -19.285,-556.604 3759.056,-4030.703 m 0,0 287.945,268.66" />
    <path
       id="path1914-61"
       style="fill:#008400;fill-opacity:0;stroke:#ff0000;stroke-width:118.11;stroke-linecap:round;stroke-linejoin:round;stroke-miterlimit:4;stroke-dasharray:none;stroke-opacity:1"
       d="m 60896.255,16477.777 5370.728,1239.931 m 295.271,472.531 -265.667,1150.731 m -797.002,3452.194 265.668,-1150.732 m -6403.226,-266.235 265.668,-1150.732 m 797.001,-3452.192 -265.667,1150.731 m -797.002,3452.193 382.929,88.406 m -117.26,-1239.138 382.926,88.406 m 148.407,-2389.867 382.927,88.406 m -117.26,-1239.136 382.928,88.406 m 88.631,-383.901 -88.631,383.901 m -265.667,1150.731 -531.334,2301.462 m 6256.36,-2596.163 -88.631,383.902 m 0,0 383.902,88.63 m -649.57,1062.102 383.902,88.63 m -383.902,-88.63 -531.334,2301.462 m 0,0 383.902,88.63 m -738.201,1446.003 88.631,-383.903 m 0,0 383.901,88.631 m -472.533,295.272 -5370.728,-1239.931 m 0,0 88.631,-383.9" />
    <path
       id="path474-6-5"
       style="fill:#008400;fill-opacity:0;stroke:#ff0000;stroke-width:118.11;stroke-linecap:round;stroke-linejoin:round;stroke-miterlimit:4;stroke-dasharray:none;stroke-opacity:1"
       d="m 94848.391,65976.912 -268.659,-287.946 m 3723.471,-2933.791 -864.059,805.003 m -3147.357,2397.447 -3759.279,-4031.676 m 19.509,-555.629 863.835,-805.978 m 4027.713,4318.647 1727.893,-1610.981 m 1151.03,-1073.437 -287.945,268.659 m -6350.032,-1614.943 1727.894,-1610.981 m -1727.894,1610.981 -268.659,-287.945 m -595.175,1093.923 -268.66,-287.945 m 5160.208,3800.613 -268.66,-287.944 m 1995.579,-1322.811 -267.686,-288.17 m -2323.067,2704.904 863.834,-805.979 m -5179.717,-3244.984 288.169,-267.684 m 3186.902,-3510.88 -863.833,805.976 m 1420.662,-785.716 3758.08,4030.926 m -4910.083,-2957.265 -268.659,-287.945 m 1132.493,-518.032 -268.66,-287.944 m 556.829,20.26 -288.169,267.684 m 15.548,7522.296 287.945,-268.659 m 3723.471,-2933.791 -268.66,-287.945" />
    <path
       id="path514-7-9"
       style="fill:#008400;fill-opacity:0;stroke:#ff0000;stroke-width:118.11;stroke-linecap:round;stroke-linejoin:round;stroke-miterlimit:4;stroke-dasharray:none;stroke-opacity:1"
       d="m 100319.04,60875.535 -268.66,-287.945 m 3723.47,-2933.791 -863.08,804.778 m -3148.334,2397.672 -3759.278,-4031.676 m 19.286,-556.604 864.059,-805.003 m 4027.717,4318.647 1727.89,-1610.981 m 1152,-1073.661 -287.94,268.659 m -6351.009,-1614.718 1727.894,-1610.981 m -1727.894,1610.981 -268.659,-287.945 m -595.399,1092.948 -268.659,-287.945 m 5160.436,3801.587 -268.66,-287.944 m 1996.55,-1323.036 -268.66,-287.945 m -2323.07,2704.903 863.84,-805.978 m -5179.722,-3244.983 287.945,-268.659 m 3187.128,-3509.906 -863.835,805.976 m 1420.434,-786.691 3759.28,4031.676 m -4911.056,-2957.04 -268.658,-287.945 m 1132.494,-518.032 -268.659,-287.944 m 556.599,19.285 -287.94,268.659 m 15.546,7522.296 287.944,-268.659 m 3723.47,-2933.791 -267.68,-288.17" />
    <path
       id="path554-5-8"
       style="fill:#008400;fill-opacity:0;stroke:#ff0000;stroke-width:118.11;stroke-linecap:round;stroke-linejoin:round;stroke-miterlimit:4;stroke-dasharray:none;stroke-opacity:1"
       d="m 93657.253,46227.693 -286.971,268.435 m 4046.025,3762.267 -3759.054,-4030.702 m 3471.11,4299.362 268.658,287.945 m 19.286,-556.605 -287.944,268.66 m -863.086,804.778 267.686,288.17 m -1995.354,1323.785 1727.668,-1611.955 m -1727.668,1611.955 268.659,287.945 m -1132.719,517.058 268.66,287.944 m -556.604,-19.285 287.944,-268.659 m -2895.219,-4836.68 1727.894,-1610.979 m -2879.674,2685.616 287.945,-268.659 m -268.658,-287.945 268.658,287.945 m 595.175,-1093.922 268.66,287.944 m 1459.233,-1898.925 268.661,287.946 m 595.399,-1092.949 268.659,287.945 m -3724.445,2934.016 863.833,-805.977 m 2591.953,-2415.984 -864.06,805.003 m 5159.458,3801.814 -864.058,805.003 m -2590.754,2416.732 864.059,-805.002 m -5179.718,-3244.985 3759.055,4030.702" />
    <path
       id="path594-3-4"
       style="fill:#008400;fill-opacity:0;stroke:#ff0000;stroke-width:118.11;stroke-linecap:round;stroke-linejoin:round;stroke-miterlimit:4;stroke-dasharray:none;stroke-opacity:1"
       d="m 109245.25,52551.225 -268.66,-287.946 m -3743.5,3491.595 287.94,-268.659 m -15.54,-7522.296 -287.95,268.66 m 0,0 -268.66,-287.945 m -595.17,1093.921 -268.66,-287.944 m 1420.44,-786.692 3759.27,4031.676 m -4315.88,-4050.962 -863.83,805.977 m -2611.24,2972.588 287.94,-268.66 m 4027.94,4319.622 863.84,-805.978 m 1727.89,-1610.981 -268.66,-287.945 m -1459.23,1898.926 -268.66,-287.945 m -4623.12,-3225.699 -267.68,-288.168 m 1131.74,-516.835 -268.66,-287.945 m 268.66,287.945 1727.9,-1610.981 m 4911.05,2957.04 -288.17,267.685 m -2591.72,2416.958 1727.89,-1610.981 m -6618.69,-1902.886 863.08,-804.78 m 2875.94,5393.283 -3759.28,-4031.675 m 7771.44,828.027 -863.83,805.976 m -2591.73,2416.959 -268.66,-287.946" />
    <path
       id="path634-5-8"
       style="fill:#008400;fill-opacity:0;stroke:#ff0000;stroke-width:118.11;stroke-linecap:round;stroke-linejoin:round;stroke-miterlimit:4;stroke-dasharray:none;stroke-opacity:1"
       d="m 97468.807,43426.486 -88.406,-382.927 m 4986.819,-1151.3 -383.9,88.632 m -6226.751,-4219.429 383.902,-88.631 m 0,0 -88.631,-383.902 m 1239.362,118.233 -88.63,-383.901 m -1446.002,738.199 1239.93,5370.727 m -944.659,-5843.258 1150.731,-265.668 m 3924.728,-501.731 -383.91,88.631 m 1328.34,5753.652 -1150.73,265.667 m -2301.462,531.335 -88.406,-382.929 m 2389.868,-148.406 -88.41,-382.928 m -89.2,-5636.392 -88.63,-383.903 m -1062.097,649.57 -88.631,-383.903 m 88.631,383.903 -2301.461,531.334 m -294.703,5725.024 383.902,-88.63 m 3452.189,-797.002 -2301.459,531.335 m 2123.629,-6551.63 -1150.728,265.667 m 2863.188,5400.33 -1239.93,-5370.726 m -3658.484,6904.953 1150.731,-265.666 m 3452.193,-797.003 -88.41,-382.926" />
    <path
       id="path674-6-1"
       style="fill:#008400;fill-opacity:0;stroke:#ff0000;stroke-width:118.11;stroke-linecap:round;stroke-linejoin:round;stroke-miterlimit:4;stroke-dasharray:none;stroke-opacity:1"
       d="m 94944.855,32494.057 -88.631,-383.902 m 4986.826,-1151.3 -383.903,88.631 m -6226.755,-4219.427 383.903,-88.631 m 0,0 -88.406,-382.927 m 1239.138,117.26 -88.406,-382.928 m -1446.228,737.226 1239.931,5370.726 m -944.435,-5842.284 1150.732,-265.668 m 3924.5,-502.703 -383.902,88.63 m 1328.561,5754.628 -1150.731,265.667 m -2301.461,531.335 -88.631,-383.903 m 2390.093,-147.433 -88.631,-383.902 m -89.198,-5636.393 -88.406,-382.928 m -1062.325,648.596 -88.406,-382.928 m 88.406,382.928 -2301.46,531.334 m -294.703,5725.024 383.901,-88.63 m 3452.193,-797.002 -2301.462,531.335 m 2123.856,-6550.656 -1150.73,265.668 m 2862.969,5399.355 -1239.93,-5370.725 m -3658.264,6905.927 1150.731,-265.667 m 3452.192,-797.002 -88.631,-383.901" />
    <path
       id="path714-2-0"
       style="fill:#008400;fill-opacity:0;stroke:#ff0000;stroke-width:118.11;stroke-linecap:round;stroke-linejoin:round;stroke-miterlimit:4;stroke-dasharray:none;stroke-opacity:1"
       d="m 148767.89,33301.19 -381.95,88.18 m -1151.53,-4987.798 88.63,383.901 m -4219.43,6226.755 -88.4,-382.927 m 0,0 -383.9,88.631 m 118.01,-1240.337 -383.91,88.631 m 738.2,1446.001 5370.73,-1239.931 m -5843.03,945.635 -265.9,-1151.705 m -501.73,-3924.724 88.64,383.901 m 5752.68,-1328.111 265.66,1150.732 m 531.34,2301.46 -381.96,88.181 m -149.38,-2389.642 -381.95,88.181 m -5636.39,89.199 -383.91,88.631 m 649.57,1062.099 -383.9,88.631 m 383.9,-88.631 531.34,2301.462 m 5725.02,294.701 -88.4,-382.927 m -797.23,-3453.165 531.34,2301.461 m -6551.64,-2123.631 265.67,1150.731 m 5400.33,-2863.194 -5370.72,1239.931 m 6904.2,3659.686 -265.89,-1151.704 m -797,-3452.192 -381.96,88.181" />
    <path
       id="path754-9-3"
       style="fill:#008400;fill-opacity:0;stroke:#ff0000;stroke-width:118.11;stroke-linecap:round;stroke-linejoin:round;stroke-miterlimit:4;stroke-dasharray:none;stroke-opacity:1"
       d="m 147085.03,26011.928 -381.95,88.181 m -1151.3,-4986.825 88.63,383.901 m -4219.43,6226.754 -88.63,-383.901 m 0,0 -383.9,88.63 m 118.23,-1239.362 -383.9,88.632 m 738.2,1446 5370.73,-1239.93 m -5843.26,944.66 -265.67,-1150.731 m -501.73,-3924.725 88.63,383.902 m 5752.68,-1328.111 265.67,1150.731 m 531.33,2301.462 -381.95,88.18 m -149.38,-2389.642 -381.95,88.181 m -5636.4,89.201 -383.9,88.63 m 649.57,1062.1 -383.9,88.631 m 383.9,-88.631 531.33,2301.462 m 5725.03,294.702 -88.63,-383.901 m -797,-3452.193 531.33,2301.462 m -6551.63,-2123.632 265.67,1150.731 m 5400.33,-2863.193 -5370.73,1239.931 m 6903.98,3658.713 -265.67,-1150.73 m -797,-3452.192 -381.95,88.181" />
    <path
       id="path794-1-0"
       style="fill:#008400;fill-opacity:0;stroke:#ff0000;stroke-width:118.11;stroke-linecap:round;stroke-linejoin:round;stroke-miterlimit:4;stroke-dasharray:none;stroke-opacity:1"
       d="m 145402.4,18723.643 -381.96,88.181 m -1151.3,-4986.824 88.41,382.926 m -4219.2,6227.73 -88.63,-383.901 m 0,0 -383.91,88.63 m 118.24,-1239.362 -383.9,88.631 m 738.2,1446.002 5370.72,-1239.931 m -5843.26,944.66 -265.66,-1150.731 m -501.73,-3924.725 88.4,382.928 m 5752.68,-1328.111 265.89,1151.706 m 531.34,2301.46 -381.96,88.181 m -149.38,-2389.64 -381.95,88.181 m -5636.62,88.224 -383.9,88.631 m 649.79,1063.075 -383.9,88.631 m 383.9,-88.631 531.34,2301.461 m 5725.02,294.701 -88.63,-383.901 m -797,-3452.192 531.33,2301.46 m -6551.85,-2124.604 265.89,1151.705 m 5400.33,-2863.193 -5370.73,1239.931 m 6903.98,3658.714 -265.66,-1150.731 m -797.23,-3453.167 -381.95,88.181" />
    <path
       id="path834-2-4"
       style="fill:#008400;fill-opacity:0;stroke:#ff0000;stroke-width:118.11;stroke-linecap:round;stroke-linejoin:round;stroke-miterlimit:4;stroke-dasharray:none;stroke-opacity:1"
       d="m 143719.76,11435.359 -381.95,88.18 m -1151.52,-4987.7966 88.63,383.9026 m -4219.43,6226.751 -88.41,-382.927 m 0,0 -383.9,88.631 m 118.01,-1240.336 -383.9,88.631 m 738.2,1446.002 5370.73,-1239.93 m -5843.04,945.633 -265.89,-1151.705 m -501.73,-3924.7223 88.63,383.9007 m 5752.68,-1328.1109 265.66,1150.7288 m 531.34,2301.4607 -381.95,88.181 m -149.39,-2389.6417 -381.95,88.1808 m -5636.39,89.1996 -383.9,88.6307 m 649.56,1062.1 -383.9,88.6307 m 383.9,-88.6307 531.34,2301.4606 m 5725.02,294.702 -88.4,-382.927 m -797.23,-3453.1657 531.33,2301.4607 m -6551.63,-2123.6304 265.67,1150.7308 m 5400.33,-2863.1923 -5370.72,1239.9301 m 6904.2,3659.6868 -265.89,-1151.706 m -797,-3452.1893 -381.96,88.1808" />
    <path
       id="path874-7-4"
       style="fill:#008400;fill-opacity:0;stroke:#ff0000;stroke-width:118.11;stroke-linecap:round;stroke-linejoin:round;stroke-miterlimit:4;stroke-dasharray:none;stroke-opacity:1"
       d="m 147095.2,36111.49 -5370.73,1239.931 m -295.49,471.558 265.89,1151.705 m 797,3452.193 -265.67,-1150.73 m 6403.23,-266.237 -265.67,-1150.73 m -797.23,-3453.167 265.89,1151.706 m 797.01,3452.191 -382.93,88.405 m 117.26,-1239.136 -382.93,88.406 m -148.4,-2389.867 -382.93,88.405 m 117.03,-1240.11 -382.92,88.406 m -88.41,-382.928 88.41,382.928 m 265.89,1151.704 531.33,2301.462 m -6256.36,-2596.164 88.41,382.928 m 0,0 -383.9,88.63 m 649.79,1063.075 -383.9,88.63 m 383.9,-88.63 531.34,2301.461 m 0,0 -383.91,88.631 m 738.2,1446.001 -88.63,-383.902 m 0,0 -383.9,88.631 m 472.53,295.271 5370.73,-1239.931 m 0,0 -88.63,-383.901" />
    <path
       id="path914-0-4"
       style="fill:#008400;fill-opacity:0;stroke:#ff0000;stroke-width:118.11;stroke-linecap:round;stroke-linejoin:round;stroke-miterlimit:4;stroke-dasharray:none;stroke-opacity:1"
       d="m 133074.95,8639.2576 -5370.72,1239.9301 m -294.3,472.3063 265.67,1150.731 m 797.22,3453.166 -265.89,-1151.705 m 6403.45,-265.261 -265.89,-1151.704 m -797,-3452.1924 265.66,1150.7304 m 797.23,3453.166 -383.9,88.631 m 118.01,-1240.335 -383.9,88.63 m -147.44,-2390.091 -383.9,88.631 m 118.24,-1239.3603 -383.91,88.6307 m -88.63,-383.9016 88.63,383.9016 m 265.67,1150.7296 531.33,2301.462 m -6256.35,-2596.1631 88.63,383.9011 m 0,0 -382.93,88.405 m 648.6,1062.325 -382.93,88.406 m 382.93,-88.406 531.33,2301.462 m 0,0 -382.93,88.405 m 737.23,1446.227 -88.41,-382.928 m 0,0 -382.92,88.406 m 471.33,294.521 5370.73,-1239.93 m 0,0 -88.41,-382.927" />
    <path
       id="path954-9-4"
       style="fill:#008400;fill-opacity:0;stroke:#ff0000;stroke-width:118.11;stroke-linecap:round;stroke-linejoin:round;stroke-miterlimit:4;stroke-dasharray:none;stroke-opacity:1"
       d="m 134757.81,15928.516 -5370.72,1239.93 m -294.53,471.333 265.9,1151.705 m 797,3452.192 -265.67,-1150.73 m 6403.22,-266.236 -265.66,-1150.731 m -797.23,-3453.166 265.89,1151.704 m 797,3452.193 -383.9,88.63 m 118.24,-1239.361 -383.91,88.631 m -147.43,-2390.093 -383.9,88.631 m 118.01,-1240.335 -383.9,88.631 m -88.41,-382.927 88.41,382.927 m 265.89,1151.705 531.33,2301.462 m -6256.35,-2596.164 88.4,382.928 m 0,0 -382.92,88.406 m 648.82,1063.299 -382.93,88.406 m 382.93,-88.406 531.33,2301.461 m 0,0 -382.93,88.406 m 737.23,1446.227 -88.63,-383.902 m 0,0 -382.93,88.406 m 471.56,295.496 5370.72,-1239.93 m 0,0 -88.63,-383.903" />
    <path
       id="path994-3-7"
       style="fill:#008400;fill-opacity:0;stroke:#ff0000;stroke-width:118.11;stroke-linecap:round;stroke-linejoin:round;stroke-miterlimit:4;stroke-dasharray:none;stroke-opacity:1"
       d="m 136440.44,23216.802 -5370.72,1239.93 m -294.3,472.308 265.67,1150.731 m 797,3452.191 -265.67,-1150.73 m 6403.23,-266.236 -265.67,-1150.73 m -797,-3452.192 265.67,1150.73 m 797,3452.192 -383.9,88.63 m 118.23,-1239.361 -383.9,88.631 m -147.43,-2390.093 -383.91,88.631 m 118.24,-1239.361 -383.9,88.631 m -88.63,-383.902 88.63,383.902 m 265.66,1150.73 531.34,2301.462 m -6256.36,-2596.164 88.63,383.902 m 0,0 -382.93,88.405 m 648.6,1062.326 -382.93,88.405 m 382.93,-88.405 531.33,2301.461 m 0,0 -382.93,88.406 m 737.23,1446.226 -88.63,-383.9 m 0,0 -382.93,88.405 m 471.56,295.496 5370.73,-1239.93 m 0,0 -88.64,-383.902" />
    <path
       id="path1034-6-6"
       style="fill:#008400;fill-opacity:0;stroke:#ff0000;stroke-width:118.11;stroke-linecap:round;stroke-linejoin:round;stroke-miterlimit:4;stroke-dasharray:none;stroke-opacity:1"
       d="m 138123.08,30505.088 -5370.73,1239.93 m -294.29,472.307 265.66,1150.731 m 797.23,3453.167 -265.89,-1151.705 m 6403.45,-265.262 -265.9,-1151.705 m -797,-3452.192 265.67,1150.731 m 797.23,3453.166 -383.91,88.631 m 118.01,-1240.336 -383.9,88.631 m -147.43,-2390.093 -383.9,88.631 m 118.23,-1239.361 -383.9,88.63 m -88.63,-383.901 88.63,383.901 m 265.67,1150.731 531.33,2301.461 m -6256.36,-2596.163 88.63,383.901 m 0,0 -382.92,88.406 m 648.59,1062.324 -382.93,88.406 m 382.93,-88.406 531.33,2301.462 m 0,0 -382.92,88.406 m 737.22,1446.226 -88.4,-382.926 m 0,0 -382.93,88.406 m 471.33,294.521 5370.73,-1239.93 m 0,0 -88.41,-382.927" />
    <path
       id="path1074-0-3"
       style="fill:#008400;fill-opacity:0;stroke:#ff0000;stroke-width:118.11;stroke-linecap:round;stroke-linejoin:round;stroke-miterlimit:4;stroke-dasharray:none;stroke-opacity:1"
       d="m 139805.94,37794.35 -5370.73,1239.93 m -294.52,471.332 265.89,1151.705 m 797,3452.194 -265.66,-1150.732 m 6403.22,-266.236 -265.67,-1150.73 m -797.23,-3453.167 265.9,1151.706 m 797,3452.191 -383.9,88.632 m 118.23,-1239.362 -383.9,88.63 m -147.43,-2390.09 -383.9,88.631 m 118.01,-1240.337 -383.91,88.63 m -88.4,-382.926 88.4,382.926 m 265.9,1151.707 531.33,2301.46 m -6256.36,-2596.163 88.41,382.928 m 0,0 -382.93,88.406 m 648.82,1063.299 -382.93,88.406 m 382.93,-88.406 531.33,2301.462 m 0,0 -382.92,88.405 m 737.22,1446.228 -88.63,-383.902 m 0,0 -382.93,88.406 m 471.56,295.496 5370.72,-1239.93 m 0,0 -88.63,-383.901" />
    <path
       id="path1114-6-1"
       style="fill:#008400;fill-opacity:0;stroke:#ff0000;stroke-width:118.11;stroke-linecap:round;stroke-linejoin:round;stroke-miterlimit:4;stroke-dasharray:none;stroke-opacity:1"
       d="m 125521,9171.1609 -5370.73,1239.9301 m -295.27,472.53 265.67,1150.731 m 797,3452.191 -265.67,-1150.73 m 6404.2,-266.46 -265.67,-1150.731 m -797,-3452.1921 265.67,1150.7311 m 797,3452.192 -383.9,88.63 m 118.23,-1239.36 -383.9,88.631 m -147.43,-2390.091 -383.9,88.631 m 118.23,-1239.3621 -383.9,88.6307 m -88.63,-383.9008 88.63,383.9008 m 265.67,1150.7304 531.33,2301.461 m -6256.36,-2596.162 88.63,383.901 m 0,0 -383.9,88.631 m 649.57,1062.1 -383.9,88.63 m 383.9,-88.63 531.33,2301.46 m 0,0 -383.9,88.631 m 738.2,1446.001 -88.63,-383.901 m 0,0 -383.9,88.631 m 472.53,295.27 5370.73,-1239.929 m 0,0 -88.63,-383.902" />
    <path
       id="path1154-2-7"
       style="fill:#008400;fill-opacity:0;stroke:#ff0000;stroke-width:118.11;stroke-linecap:round;stroke-linejoin:round;stroke-miterlimit:4;stroke-dasharray:none;stroke-opacity:1"
       d="m 127203.86,16460.42 -5370.73,1239.93 m -295.49,471.558 265.66,1150.731 m 797.23,3453.167 -265.67,-1150.73 m 6404.2,-266.462 -265.67,-1150.73 m -797.23,-3453.167 265.67,1150.732 m 797.23,3453.165 -383.9,88.631 m 118.23,-1239.362 -383.9,88.63 m -147.66,-2391.065 -383.9,88.63 m 118.24,-1239.361 -383.91,88.631 m -88.4,-382.928 88.4,382.928 m 265.67,1150.73 531.56,2302.436 m -6256.36,-2596.164 88.41,382.928 m 0,0 -383.91,88.631 m 649.57,1062.1 -383.9,88.63 m 383.9,-88.63 531.56,2302.435 m 0,0 -383.9,88.631 m 737.98,1445.026 -88.41,-382.927 m 0,0 -383.9,88.631 m 472.31,294.296 5370.72,-1239.929 m 0,0 -88.4,-382.927" />
    <path
       id="path1194-6-5"
       style="fill:#008400;fill-opacity:0;stroke:#ff0000;stroke-width:118.11;stroke-linecap:round;stroke-linejoin:round;stroke-miterlimit:4;stroke-dasharray:none;stroke-opacity:1"
       d="m 128886.49,23748.705 -5370.72,1239.93 m -295.27,472.533 265.66,1150.731 m 797,3452.191 -265.66,-1150.729 m 6404.19,-266.462 -265.66,-1150.731 m -797.01,-3452.192 265.67,1150.731 m 797,3452.192 -383.9,88.631 m 118.24,-1239.362 -383.91,88.631 m -147.43,-2390.092 -383.9,88.63 m 118.23,-1239.362 -383.9,88.631 m -88.63,-383.903 88.63,383.903 m 265.67,1150.73 531.33,2301.461 m -6256.35,-2596.164 88.63,383.902 m 0,0 -383.9,88.63 m 649.56,1062.099 -383.9,88.631 m 383.9,-88.631 531.34,2301.462 m 0,0 -383.9,88.63 m 738.2,1446.001 -88.64,-383.901 m 0,0 -383.9,88.63 m 472.53,295.272 5370.73,-1239.93 m 0,0 -88.63,-383.903" />
    <path
       id="path1234-1-9"
       style="fill:#008400;fill-opacity:0;stroke:#ff0000;stroke-width:118.11;stroke-linecap:round;stroke-linejoin:round;stroke-miterlimit:4;stroke-dasharray:none;stroke-opacity:1"
       d="m 130571.6,31007.685 -5369.76,1239.705 m -295.27,472.533 265.67,1150.731 m 797,3452.192 -265.67,-1150.731 m 6403.23,-266.236 -265.67,-1150.731 m -797,-3452.192 265.67,1150.731 m 797,3452.192 -383.91,88.631 m 118.24,-1239.362 -383.9,88.631 m -147.44,-2390.092 -383.9,88.631 m 118.24,-1239.362 -383.9,88.631 m -88.64,-383.902 88.64,383.902 m 265.66,1150.731 531.34,2301.461 m -6255.39,-2596.388 88.63,383.902 m 0,0 -383.9,88.63 m 649.57,1062.1 -383.9,88.631 m 383.9,-88.631 531.33,2301.462 m 0,0 -383.9,88.63 m 738.2,1446.002 -88.63,-383.901 m 0,0 -383.9,88.63 m 472.53,295.272 5369.75,-1239.706 m 0,0 -88.63,-383.902" />
    <path
       id="path1274-8-6"
       style="fill:#008400;fill-opacity:0;stroke:#ff0000;stroke-width:118.11;stroke-linecap:round;stroke-linejoin:round;stroke-miterlimit:4;stroke-dasharray:none;stroke-opacity:1"
       d="m 132251.98,38326.251 -5370.72,1239.93 m -295.5,471.557 265.67,1150.731 m 797.23,3453.167 -265.67,-1150.731 m 6404.2,-266.46 -265.67,-1150.731 m -797.23,-3453.167 265.67,1150.73 m 797.23,3453.168 -383.91,88.631 m 118.24,-1239.361 -383.9,88.631 m -147.66,-2391.066 -383.9,88.63 m 118.23,-1239.361 -383.9,88.631 m -88.41,-382.928 88.41,382.928 m 265.67,1150.73 531.56,2302.436 m -6256.36,-2596.163 88.4,382.927 m 0,0 -383.9,88.63 m 649.57,1062.1 -383.9,88.631 m 383.9,-88.631 531.56,2302.437 m 0,0 -383.9,88.631 m 737.97,1445.027 -88.4,-382.926 m 0,0 -383.9,88.63 m 472.31,294.297 5370.72,-1239.93 m 0,0 -88.4,-382.928" />
    <path
       id="path1314-7-2"
       style="fill:#008400;fill-opacity:0;stroke:#ff0000;stroke-width:118.11;stroke-linecap:round;stroke-linejoin:round;stroke-miterlimit:4;stroke-dasharray:none;stroke-opacity:1"
       d="m 118099.99,10278.916 -5370.72,1239.93 m -295.28,472.533 265.67,1150.729 m 797,3452.192 -265.66,-1150.73 m 6403.22,-266.237 -265.67,-1150.73 m -797,-3452.192 265.67,1150.731 m 797,3452.191 -382.93,88.406 m 117.26,-1239.136 -382.93,88.406 m -148.4,-2389.867 -382.93,88.406 m 117.26,-1239.137 -382.93,88.405 m -88.63,-383.902 88.63,383.902 m 265.67,1150.73 531.33,2301.46 m -6256.36,-2596.163 88.64,383.901 m 0,0 -383.91,88.631 m 649.57,1062.099 -383.9,88.631 m 383.9,-88.631 531.34,2301.462 m 0,0 -383.9,88.63 m 738.19,1446.001 -88.63,-383.901 m 0,0 -383.9,88.63 m 472.53,295.271 5370.73,-1239.93 m 0,0 -88.63,-383.9" />
    <path
       id="path1354-9-1"
       style="fill:#008400;fill-opacity:0;stroke:#ff0000;stroke-width:118.11;stroke-linecap:round;stroke-linejoin:round;stroke-miterlimit:4;stroke-dasharray:none;stroke-opacity:1"
       d="m 119782.63,17567.2 -5370.73,1239.931 m -295.27,472.532 265.67,1150.73 m 797,3452.192 -265.67,-1150.731 m 6403.22,-266.236 -265.66,-1150.731 m -797.01,-3452.192 265.67,1150.731 m 797,3452.192 -382.93,88.406 m 117.27,-1239.137 -382.93,88.406 m -148.41,-2389.867 -382.93,88.406 m 117.26,-1239.137 -382.92,88.406 m -88.63,-383.903 88.63,383.903 m 265.66,1150.73 531.34,2301.461 m -6256.36,-2596.164 88.63,383.902 m 0,0 -383.9,88.631 m 649.57,1062.099 -383.9,88.631 m 383.9,-88.631 531.33,2301.461 m 0,0 -383.9,88.631 m 738.2,1446.001 -88.63,-383.901 m 0,0 -383.9,88.63 m 472.53,295.272 5370.73,-1239.93 m 0,0 -88.63,-383.901" />
    <path
       id="path1394-2-7"
       style="fill:#008400;fill-opacity:0;stroke:#ff0000;stroke-width:118.11;stroke-linecap:round;stroke-linejoin:round;stroke-miterlimit:4;stroke-dasharray:none;stroke-opacity:1"
       d="m 121465.26,24855.487 -5370.73,1239.931 m -295.27,472.532 265.67,1150.73 m 797.23,3453.167 -265.9,-1151.706 m 6403.45,-265.259 -265.89,-1151.707 m -797,-3452.192 265.66,1150.731 m 797.23,3453.168 -382.93,88.405 m 117.04,-1240.111 -382.93,88.406 m -148.41,-2389.867 -382.92,88.406 m 117.26,-1239.137 -382.93,88.406 m -88.63,-383.902 88.63,383.902 m 265.67,1150.731 531.33,2301.461 m -6256.36,-2596.163 88.63,383.901 m 0,0 -383.9,88.631 m 649.57,1062.1 -383.9,88.631 m 383.9,-88.631 531.34,2301.461 m 0,0 -383.91,88.631 m 738.2,1446.002 -88.4,-382.927 m 0,0 -383.9,88.631 m 472.3,294.296 5370.73,-1239.93 m 0,0 -88.41,-382.928" />
    <path
       id="path1434-0-8"
       style="fill:#008400;fill-opacity:0;stroke:#ff0000;stroke-width:118.11;stroke-linecap:round;stroke-linejoin:round;stroke-miterlimit:4;stroke-dasharray:none;stroke-opacity:1"
       d="m 123148.12,32144.747 -5370.73,1239.93 m -295.49,471.557 265.89,1151.705 m 797,3452.192 -265.67,-1150.731 m 6403.23,-266.235 -265.67,-1150.732 m -797.23,-3453.166 265.89,1151.706 m 797.01,3452.192 -382.93,88.406 m 117.26,-1239.136 -382.93,88.405 m -148.4,-2389.866 -382.93,88.406 m 117.03,-1240.111 -382.93,88.406 m -88.4,-382.927 88.4,382.927 m 265.9,1151.706 531.33,2301.461 m -6256.36,-2596.162 88.41,382.926 m 0,0 -383.9,88.631 m 649.79,1063.074 -383.9,88.631 m 383.9,-88.631 531.34,2301.461 m 0,0 -383.91,88.631 m 738.2,1446.002 -88.63,-383.902 m 0,0 -383.9,88.63 m 472.54,295.271 5370.72,-1239.93 m 0,0 -88.63,-383.901" />
    <path
       id="path1474-2-5"
       style="fill:#008400;fill-opacity:0;stroke:#ff0000;stroke-width:118.11;stroke-linecap:round;stroke-linejoin:round;stroke-miterlimit:4;stroke-dasharray:none;stroke-opacity:1"
       d="m 124830.75,39433.033 -5370.72,1239.931 m -295.27,472.532 265.66,1150.731 m 797,3452.192 -265.66,-1150.731 m 6403.22,-266.235 -265.67,-1150.731 m -797,-3452.192 265.67,1150.731 m 797,3452.192 -382.93,88.406 m 117.26,-1239.137 -382.92,88.405 m -148.41,-2389.867 -382.93,88.406 m 117.26,-1239.136 -382.93,88.406 m -88.63,-383.901 88.63,383.901 m 265.67,1150.731 531.34,2301.462 m -6256.36,-2596.164 88.63,383.902 m 0,0 -383.9,88.631 m 649.57,1062.101 -383.91,88.63 m 383.91,-88.63 531.33,2301.46 m 0,0 -383.9,88.631 m 738.2,1446.003 -88.63,-383.903 m 0,0 -383.9,88.631 m 472.53,295.271 5370.73,-1239.93 m 0,0 -88.63,-383.901" />
    <path
       id="path1514-3-7"
       style="fill:#008400;fill-opacity:0;stroke:#ff0000;stroke-width:118.11;stroke-linecap:round;stroke-linejoin:round;stroke-miterlimit:4;stroke-dasharray:none;stroke-opacity:1"
       d="m 110943.45,12536.652 -5370.72,1239.93 m -294.3,472.308 265.67,1150.731 m 797,3452.192 -265.67,-1150.731 m 6403.22,-266.236 -265.66,-1150.73 m -797.01,-3452.193 265.67,1150.731 m 797,3452.192 -383.9,88.631 m 118.24,-1239.361 -383.91,88.63 m -147.43,-2390.092 -383.9,88.631 m 118.23,-1239.361 -383.9,88.63 m -88.63,-383.901 88.63,383.901 m 265.67,1150.731 531.33,2301.461 m -6256.35,-2596.163 88.63,383.9 m 0,0 -382.93,88.406 m 648.59,1062.325 -382.92,88.406 m 382.92,-88.406 531.34,2301.461 m 0,0 -382.93,88.406 m 737.23,1446.227 -88.63,-383.902 m 0,0 -382.93,88.406 m 471.56,295.496 5370.72,-1239.931 m 0,0 -88.63,-383.901" />
    <path
       id="path1554-7-4"
       style="fill:#008400;fill-opacity:0;stroke:#ff0000;stroke-width:118.11;stroke-linecap:round;stroke-linejoin:round;stroke-miterlimit:4;stroke-dasharray:none;stroke-opacity:1"
       d="m 112626.31,19825.912 -5370.72,1239.93 m -294.53,471.332 265.67,1150.73 m 797.23,3453.167 -265.67,-1150.731 m 6403.22,-266.236 -265.66,-1150.729 m -797.23,-3453.168 265.67,1150.731 m 797.22,3453.166 -383.9,88.631 m 118.24,-1239.361 -383.91,88.63 m -147.65,-2391.066 -383.91,88.631 m 118.24,-1239.362 -383.9,88.631 m -88.41,-382.927 88.41,382.927 m 265.66,1150.731 531.56,2302.436 m -6256.36,-2596.163 88.41,382.926 m 0,0 -382.93,88.406 m 648.6,1062.325 -382.93,88.406 m 382.93,-88.406 531.56,2302.437 m 0,0 -382.93,88.405 m 737,1445.253 -88.41,-382.928 m 0,0 -382.92,88.406 m 471.33,294.522 5370.73,-1239.931 m 0,0 -88.41,-382.927" />
    <path
       id="path1594-5-1"
       style="fill:#008400;fill-opacity:0;stroke:#ff0000;stroke-width:118.11;stroke-linecap:round;stroke-linejoin:round;stroke-miterlimit:4;stroke-dasharray:none;stroke-opacity:1"
       d="m 114308.95,27114.199 -5370.73,1239.93 m -294.3,472.306 265.67,1150.731 m 797,3452.194 -265.67,-1150.732 m 6403.23,-266.236 -265.67,-1150.73 m -797,-3452.192 265.67,1150.73 m 797,3452.192 -383.91,88.631 m 118.24,-1239.362 -383.9,88.63 m -147.44,-2390.093 -383.9,88.631 m 118.24,-1239.359 -383.9,88.63 m -88.63,-383.901 88.63,383.901 m 265.66,1150.731 531.34,2301.463 m -6256.36,-2596.164 88.63,383.902 m 0,0 -382.93,88.406 m 648.6,1062.326 -382.93,88.406 m 382.93,-88.406 531.33,2301.46 m 0,0 -382.92,88.406 m 737.22,1446.227 -88.63,-383.902 m 0,0 -382.92,88.405 m 471.55,295.496 5370.73,-1239.93 m 0,0 -88.63,-383.901" />
    <path
       id="path1634-9-8"
       style="fill:#008400;fill-opacity:0;stroke:#ff0000;stroke-width:118.11;stroke-linecap:round;stroke-linejoin:round;stroke-miterlimit:4;stroke-dasharray:none;stroke-opacity:1"
       d="m 115991.58,34402.484 -5370.73,1239.93 m -294.29,472.307 265.66,1150.731 m 797.01,3452.194 -265.67,-1150.731 m 6403.22,-266.237 -265.67,-1150.731 m -797,-3452.192 265.67,1150.731 m 797,3452.192 -383.9,88.632 m 118.23,-1239.362 -383.9,88.631 m -147.43,-2390.093 -383.9,88.632 m 118.23,-1239.363 -383.9,88.631 m -88.63,-383.902 88.63,383.902 m 265.67,1150.731 531.33,2301.461 m -6256.36,-2596.165 88.64,383.902 m 0,0 -382.93,88.406 m 648.59,1062.325 -382.92,88.405 m 382.92,-88.405 531.34,2301.461 m 0,0 -382.93,88.406 m 737.22,1446.226 -88.63,-383.903 m 0,0 -382.92,88.406 m 471.55,295.495 5370.73,-1239.93 m 0,0 -88.63,-383.901" />
    <path
       id="path1674-2-5"
       style="fill:#008400;fill-opacity:0;stroke:#ff0000;stroke-width:118.11;stroke-linecap:round;stroke-linejoin:round;stroke-miterlimit:4;stroke-dasharray:none;stroke-opacity:1"
       d="m 117674.44,41691.744 -5370.73,1239.93 m -294.52,471.335 265.67,1150.731 m 797.22,3453.165 -265.66,-1150.731 m 6403.22,-266.235 -265.67,-1150.731 m -797.22,-3453.167 265.66,1150.731 m 797.23,3453.167 -383.9,88.63 m 118.23,-1239.361 -383.9,88.631 m -147.66,-2391.067 -383.9,88.632 m 118.24,-1239.363 -383.91,88.632 m -88.4,-382.928 88.4,382.928 m 265.67,1150.731 531.56,2302.435 m -6256.36,-2596.164 88.41,382.927 m 0,0 -382.93,88.406 m 648.59,1062.323 -382.92,88.406 m 382.92,-88.406 531.56,2302.437 m 0,0 -382.92,88.406 m 737,1445.252 -88.41,-382.928 m 0,0 -382.93,88.406 m 471.34,294.522 5370.72,-1239.93 m 0,0 -88.4,-382.929" />
    <path
       id="path1714-2-9"
       style="fill:#008400;fill-opacity:0;stroke:#ff0000;stroke-width:118.11;stroke-linecap:round;stroke-linejoin:round;stroke-miterlimit:4;stroke-dasharray:none;stroke-opacity:1"
       d="m 103788.11,14795.139 -5370.723,1239.93 m -295.271,472.532 265.668,1150.731 m 797.001,3452.193 -265.667,-1150.732 m 6404.202,-266.461 -265.67,-1150.731 m -797,-3452.192 265.66,1150.731 m 797.01,3452.192 -383.91,88.631 m 118.24,-1239.363 -383.9,88.631 m -147.44,-2390.093 -383.9,88.631 m 118.24,-1239.361 -383.91,88.63 m -88.63,-383.9 88.63,383.9 m 265.67,1150.731 531.34,2301.462 m -6256.363,-2596.164 88.631,383.902 m 0,0 -383.902,88.631 m 649.569,1062.101 -383.901,88.631 m 383.901,-88.631 531.334,2301.46 m 0,0 -383.901,88.631 m 738.2,1446.003 -88.631,-383.903 m 0,0 -383.901,88.631 m 472.531,295.271 5370.723,-1239.93 m 0,0 -88.63,-383.902" />
    <path
       id="path1754-8-7"
       style="fill:#008400;fill-opacity:0;stroke:#ff0000;stroke-width:118.11;stroke-linecap:round;stroke-linejoin:round;stroke-miterlimit:4;stroke-dasharray:none;stroke-opacity:1"
       d="m 105470.75,22083.424 -5370.73,1239.931 m -295.27,472.532 265.67,1150.731 m 797,3452.193 -265.67,-1150.731 m 6404.2,-266.461 -265.67,-1150.731 m -797,-3452.192 265.67,1150.731 m 797,3452.192 -383.9,88.631 m 118.23,-1239.362 -383.9,88.631 m -147.43,-2390.093 -383.9,88.631 m 118.23,-1239.363 -383.9,88.631 m -88.63,-383.902 88.63,383.902 m 265.66,1150.73 531.34,2301.461 m -6256.36,-2596.164 88.63,383.902 m 0,0 -383.9,88.631 m 649.57,1062.1 -383.9,88.631 m 383.9,-88.631 531.33,2301.461 m 0,0 -383.9,88.631 m 738.2,1446.001 -88.63,-383.902 m 0,0 -383.9,88.631 m 472.53,295.27 5370.73,-1239.93 m 0,0 -88.63,-383.903" />
    <path
       id="path1794-9-5"
       style="fill:#008400;fill-opacity:0;stroke:#ff0000;stroke-width:118.11;stroke-linecap:round;stroke-linejoin:round;stroke-miterlimit:4;stroke-dasharray:none;stroke-opacity:1"
       d="m 107153.61,29372.685 -5370.73,1239.93 m -295.5,471.559 265.67,1150.731 m 797.23,3453.165 -265.67,-1150.731 m 6404.2,-266.46 -265.67,-1150.731 m -797.23,-3453.167 265.67,1150.731 m 797.23,3453.167 -383.9,88.63 m 118.23,-1239.361 -383.9,88.631 m -147.66,-2391.067 -383.9,88.631 m 118.23,-1239.362 -383.9,88.631 m -88.4,-382.927 88.4,382.928 m 265.67,1150.729 531.56,2302.436 m -6256.36,-2596.164 88.4,382.927 m 0,0 -383.9,88.631 m 649.57,1062.099 -383.9,88.631 m 383.9,-88.631 531.56,2302.436 m 0,0 -383.9,88.63 m 737.97,1445.028 -88.4,-382.928 m 0,0 -383.9,88.631 m 472.3,294.297 5370.73,-1239.93 m 0,0 -88.41,-382.929" />
    <path
       id="path1834-7-3"
       style="fill:#008400;fill-opacity:0;stroke:#ff0000;stroke-width:118.11;stroke-linecap:round;stroke-linejoin:round;stroke-miterlimit:4;stroke-dasharray:none;stroke-opacity:1"
       d="m 108836.24,36660.971 -5370.73,1239.93 m -295.27,472.532 265.67,1150.731 m 797,3452.192 -265.67,-1150.73 m 6404.2,-266.46 -265.67,-1150.731 m -797,-3452.193 265.67,1150.73 m 797,3452.194 -383.9,88.629 m 118.23,-1239.361 -383.9,88.631 m -147.43,-2390.093 -383.9,88.631 m 118.23,-1239.361 -383.9,88.631 m -88.63,-383.902 88.63,383.902 m 265.67,1150.73 531.33,2301.462 m -6256.36,-2596.164 88.63,383.902 m 0,0 -383.9,88.63 m 649.57,1062.1 -383.9,88.631 m 383.9,-88.631 531.33,2301.462 m 0,0 -383.9,88.631 m 738.2,1446.001 -88.63,-383.901 m 0,0 -383.9,88.631 m 472.53,295.27 5370.73,-1239.93 m 0,0 -88.63,-383.902" />
    <path
       id="path1874-3-8"
       style="fill:#008400;fill-opacity:0;stroke:#ff0000;stroke-width:118.11;stroke-linecap:round;stroke-linejoin:round;stroke-miterlimit:4;stroke-dasharray:none;stroke-opacity:1"
       d="m 84155.9,55088.124 3759.054,4030.702 m 556.604,19.285 864.06,-805.003 m 2590.753,-2416.733 -863.835,805.978 m -3431.563,-5412.794 -864.06,805.004 m -2591.727,2416.957 863.834,-805.976 m 2591.953,-2415.985 267.684,288.17 m -1131.744,516.834 267.685,288.169 m -1995.578,1322.812 268.658,287.943 m -1132.492,518.033 268.659,287.945 m -287.945,268.659 287.945,-268.659 m 863.833,-805.978 1726.92,-1610.755 m 880.356,6716.094 287.945,-268.659 m 0,0 268.659,287.944 m 595.401,-1092.948 268.659,287.945 m -268.659,-287.945 1726.918,-1610.755 m 0,0 268.659,287.945 m 883.121,-1362.582 -287.945,268.659 m 0,0 268.659,287.945 m 19.286,-556.604 -3759.056,-4030.701 m 0,0 -287.944,268.659" />
    <path
       id="path1914-6-8"
       style="fill:#008400;fill-opacity:0;stroke:#ff0000;stroke-width:118.11;stroke-linecap:round;stroke-linejoin:round;stroke-miterlimit:4;stroke-dasharray:none;stroke-opacity:1"
       d="m 96499.828,16477.772 -5370.727,1239.93 m -295.271,472.532 265.667,1150.731 m 797.002,3452.192 -265.667,-1150.731 m 6403.223,-266.235 -265.667,-1150.732 m -797.001,-3452.191 265.667,1150.731 m 797.001,3452.192 -382.928,88.406 m 117.26,-1239.138 -382.926,88.406 m -148.407,-2389.866 -382.927,88.405 m 117.26,-1239.135 -382.928,88.406 m -88.631,-383.901 88.631,383.901 m 265.667,1150.731 531.334,2301.461 m -6256.358,-2596.163 88.631,383.902 m 0,0 -383.902,88.631 m 649.569,1062.101 -383.902,88.63 m 383.902,-88.63 531.334,2301.461 m 0,0 -383.901,88.631 m 738.2,1446.002 -88.63,-383.902 m 0,0 -383.901,88.63 m 472.532,295.272 5370.727,-1239.93 m 0,0 -88.631,-383.901" />
    <path
       id="path4951-3"
       style="display:inline;fill:none;stroke:#ff0000;stroke-width:118.11;stroke-miterlimit:4;stroke-dasharray:none;stroke-opacity:1"
       d="m 79370.078,34645.668 a 629.92126,629.92126 0 0 1 -629.922,629.921 629.92126,629.92126 0 0 1 -629.921,-629.921 629.92126,629.92126 0 0 1 629.921,-629.921 629.92126,629.92126 0 0 1 629.922,629.921 z" />
    <path
       id="path4951-1"
       style="display:inline;fill:none;stroke:#ff0000;stroke-width:118.11;stroke-miterlimit:4;stroke-dasharray:none;stroke-opacity:1"
       d="m 71496.062,22244.094 a 629.92126,629.92126 0 0 1 -629.922,629.921 629.92126,629.92126 0 0 1 -629.921,-629.921 629.92126,629.92126 0 0 1 629.921,-629.921 629.92126,629.92126 0 0 1 629.922,629.921 z" />
    <path
       id="path4951-8"
       style="display:inline;fill:none;stroke:#ff0000;stroke-width:118.11;stroke-miterlimit:4;stroke-dasharray:none;stroke-opacity:1"
       d="m 87244.093,22244.094 a 629.92126,629.92126 0 0 1 -629.922,629.921 629.92126,629.92126 0 0 1 -629.921,-629.921 629.92126,629.92126 0 0 1 629.921,-629.921 629.92126,629.92126 0 0 1 629.922,629.921 z" />
    <path
       id="path4852-3"
       style="display:inline;fill:none;stroke:#ff0000;stroke-width:118.11;stroke-linecap:butt;stroke-linejoin:miter;stroke-miterlimit:4;stroke-dasharray:none;stroke-opacity:0.960784"
       d="m 75196.849,28051.181 c 0,393.701 0,393.701 393.701,393.701 h 6299.211 c 393.7,0 393.703,0 393.703,-393.701 v -12696.85 c 8267.716,0 8267.715,-7480.3154 61417.326,-12204.7248 1574.8,0 2755.9,0 3149.6,1968.504 l 5118.11,22440.9448 c 787.4,3937.007 1574.81,7874.015 1574.81,11811.023 0,20221.454 -16451.74,37342.574 -36673.19,37342.571 -20221.454,10e-4 -24350.436,-10767.768 -35177.207,-10767.768 h -5905.512 c -10826.772,0 -14955.798,10767.771 -35177.252,10767.768 -20221.453,0 -36673.1441,-17121.118 -36673.1412,-37342.571 0,-3937.008 787.4015,-7874.016 1689.6821,-11811.023 L 10629.921,5118.1102 c 393.701,-1968.504 1574.803,-1968.504 3149.607,-1968.504 C 66929.132,7874.0156 66929.133,15354.331 75196.85,15354.331 Z"
       sodipodi:nodetypes="ccccccccccccccccccc" />
    <path
       style="fill:none;stroke:#ff0000;stroke-width:104.167px;stroke-linecap:butt;stroke-linejoin:miter;stroke-opacity:0.945098"
       d="m 58764.53,69104.525 c 0,-2362.208 -5905.515,-13779.531 -23622.05,-17716.539 -29527.5578,-7874.015 -31496.0617,-1968.504 -21653.542,3937.01 5905.511,3937.006 2019.287,6345.254 6029.193,9432.821 4175.206,3214.845 19561.357,16157.728 25466.869,5671.013 1968.504,-3409.548 13779.527,2612.699 13779.53,-1324.305 z"
       id="path5390-0"
       sodipodi:nodetypes="cccscc" />
    <path
       style="fill:none;stroke:#ff0000;stroke-width:104.167px;stroke-linecap:butt;stroke-linejoin:miter;stroke-opacity:0.945098"
       d="m 98715.782,69104.524 c 0,-2362.208 5905.518,-13779.53 23622.058,-17716.538 29527.55,-7874.015 31496.05,-1968.504 21653.54,3937.01 -5905.51,3937.005 -2019.29,6345.253 -6029.2,9432.82 -4175.2,3214.846 -19561.35,16157.728 -25466.87,5671.013 -1968.5,-3409.548 -13779.528,2612.699 -13779.528,-1324.305 z"
       id="path5390-6-9"
       sodipodi:nodetypes="cccscc" />
  </g>
</svg>
