  0
SECTION
  2
HEADER
  9
$ACADVER
  1
AC1014
  9
$HANDSEED
  5
FFFF
  9
$MEASUREMENT
 70
     1
  0
ENDSEC
  0
SECTION
  2
TABLES
  0
TABLE
  2
VPORT
  5
8
330
0
100
AcDbSymbolTable
 70
     4
  0
VPORT
  5
2E
330
8
100
AcDbSymbolTableRecord
100
AcDbViewportTableRecord
  2
*ACTIVE
 70
     0
 10
0.0
 20
0.0
 11
1.0
 21
1.0
 12
210.0
 22
148.5
 13
0.0
 23
0.0
 14
10.0
 24
10.0
 15
10.0
 25
10.0
 16
0.0
 26
0.0
 36
1.0
 17
0.0
 27
0.0
 37
0.0
 40
341.0
 41
1.24
 42
50.0
 43
0.0
 44
0.0
 50
0.0
 51
0.0
 71
     0
 72
   100
 73
     1
 74
     3
 75
     0
 76
     0
 77
     0
 78
     0
  0
ENDTAB
  0
TABLE
  2
LTYPE
  5
5
330
0
100
AcDbSymbolTable
 70
     1
  0
LTYPE
  5
14
330
5
100
AcDbSymbolTableRecord
100
AcDbLinetypeTableRecord
  2
BYBLOCK
 70
     0
  3

 72
    65
 73
     0
 40
0.0
  0
LTYPE
  5
15
330
5
100
AcDbSymbolTableRecord
100
AcDbLinetypeTableRecord
  2
BYLAYER
 70
     0
  3

 72
    65
 73
     0
 40
0.0
  0
LTYPE
  5
16
330
5
100
AcDbSymbolTableRecord
100
AcDbLinetypeTableRecord
  2
CONTINUOUS
 70
     0
  3
Solid line
 72
    65
 73
     0
 40
0.0
  0
ENDTAB
  0
TABLE
  2
LAYER
  5
2
100
AcDbSymbolTable
 70
2
  0
LAYER
  5
50
100
AcDbSymbolTableRecord
100
AcDbLayerTableRecord
  2
0
 70
0
  6
CONTINUOUS
  0
LAYER
  5
51
100
AcDbSymbolTableRecord
100
AcDbLayerTableRecord
  2
cut.innerBottom1
 70
0
  6
CONTINUOUS
  0
ENDTAB
  0
TABLE
  2
STYLE
  5
3
330
0
100
AcDbSymbolTable
 70
     1
  0
STYLE
  5
11
330
3
100
AcDbSymbolTableRecord
100
AcDbTextStyleTableRecord
  2
STANDARD
 70
     0
 40
0.0
 41
1.0
 50
0.0
 71
     0
 42
2.5
  3
txt
  4

  0
ENDTAB
  0
TABLE
  2
VIEW
  5
6
330
0
100
AcDbSymbolTable
 70
     0
  0
ENDTAB
  0
TABLE
  2
UCS
  5
7
330
0
100
AcDbSymbolTable
 70
     0
  0
ENDTAB
  0
TABLE
  2
APPID
  5
9
330
0
100
AcDbSymbolTable
 70
     2
  0
APPID
  5
12
330
9
100
AcDbSymbolTableRecord
100
AcDbRegAppTableRecord
  2
ACAD
 70
     0
  0
ENDTAB
  0
TABLE
  2
DIMSTYLE
  5
A
330
0
100
AcDbSymbolTable
 70
     1
  0
DIMSTYLE
105
27
330
A
100
AcDbSymbolTableRecord
100
AcDbDimStyleTableRecord
  2
ISO-25
 70
     0
  3

  4

  5

  6

  7

 40
1.0
 41
2.5
 42
0.625
 43
3.75
 44
1.25
 45
0.0
 46
0.0
 47
0.0
 48
0.0
140
2.5
141
2.5
142
0.0
143
0.03937007874016
144
1.0
145
0.0
146
1.0
147
0.625
 71
     0
 72
     0
 73
     0
 74
     0
 75
     0
 76
     0
 77
     1
 78
     8
170
     0
171
     3
172
     1
173
     0
174
     0
175
     0
176
     0
177
     0
178
     0
270
     2
271
     2
272
     2
273
     2
274
     3
340
11
275
     0
280
     0
281
     0
282
     0
283
     0
284
     8
285
     0
286
     0
287
     3
288
     0
  0
ENDTAB
  0
TABLE
  2
BLOCK_RECORD
  5
1
330
0
100
AcDbSymbolTable
 70
     1
  0
BLOCK_RECORD
  5
1F
330
1
100
AcDbSymbolTableRecord
100
AcDbBlockTableRecord
  2
*MODEL_SPACE
  0
BLOCK_RECORD
  5
1B
330
1
100
AcDbSymbolTableRecord
100
AcDbBlockTableRecord
  2
*PAPER_SPACE
  0
ENDTAB
  0
ENDSEC
  0
SECTION
  2
BLOCKS
  0
BLOCK
  5
20
330
1F
100
AcDbEntity
  8
0
100
AcDbBlockBegin
  2
*MODEL_SPACE
 70
     0
 10
0.0
 20
0.0
 30
0.0
  3
*MODEL_SPACE
  1

  0
ENDBLK
  5
21
330
1F
100
AcDbEntity
  8
0
100
AcDbBlockEnd
  0
BLOCK
  5
1C
330
1B
100
AcDbEntity
 67
     1
  8
0
100
AcDbBlockBegin
  2
*PAPER_SPACE
  1

  0
ENDBLK
  5
1D
330
1B
100
AcDbEntity
 67
     1
  8
0
100
AcDbBlockEnd
  0
ENDSEC
  0
SECTION
  2
ENTITIES
  0
SPLINE
  5
100
100
AcDbEntity
  8
cut.innerBottom1
 62
1
100
AcDbSpline
 70
8
 71
3
 72
8
 73
4
 74
0
 40
0
 40
0
 40
0
 40
0
 40
1
 40
1
 40
1
 40
1
 10
18.599984
 20
-93.079922
 30
0.0
 10
18.599984
 20
-93.963577
 30
0.0
 10
17.883640
 20
-94.679919
 30
0.0
 10
16.999985
 20
-94.679919
 30
0.0
  0
SPLINE
  5
101
100
AcDbEntity
  8
cut.innerBottom1
 62
1
100
AcDbSpline
 70
8
 71
3
 72
8
 73
4
 74
0
 40
0
 40
0
 40
0
 40
0
 40
1
 40
1
 40
1
 40
1
 10
16.999985
 20
-94.679919
 30
0.0
 10
16.116330
 20
-94.679919
 30
0.0
 10
15.399987
 20
-93.963577
 30
0.0
 10
15.399987
 20
-93.079922
 30
0.0
  0
SPLINE
  5
102
100
AcDbEntity
  8
cut.innerBottom1
 62
1
100
AcDbSpline
 70
8
 71
3
 72
8
 73
4
 74
0
 40
0
 40
0
 40
0
 40
0
 40
1
 40
1
 40
1
 40
1
 10
15.399987
 20
-93.079922
 30
0.0
 10
15.399987
 20
-92.196267
 30
0.0
 10
16.116330
 20
-91.479923
 30
0.0
 10
16.999985
 20
-91.479923
 30
0.0
  0
SPLINE
  5
103
100
AcDbEntity
  8
cut.innerBottom1
 62
1
100
AcDbSpline
 70
8
 71
3
 72
8
 73
4
 74
0
 40
0
 40
0
 40
0
 40
0
 40
1
 40
1
 40
1
 40
1
 10
16.999985
 20
-91.479923
 30
0.0
 10
17.883640
 20
-91.479923
 30
0.0
 10
18.599984
 20
-92.196267
 30
0.0
 10
18.599984
 20
-93.079922
 30
0.0
  0
SPLINE
  5
104
100
AcDbEntity
  8
cut.innerBottom1
 62
1
100
AcDbSpline
 70
8
 71
3
 72
8
 73
4
 74
0
 40
0
 40
0
 40
0
 40
0
 40
1
 40
1
 40
1
 40
1
 10
61.599948
 20
-13.079989
 30
0.0
 10
61.599949
 20
-13.963644
 30
0.0
 10
60.883605
 20
-14.679988
 30
0.0
 10
59.999950
 20
-14.679988
 30
0.0
  0
SPLINE
  5
105
100
AcDbEntity
  8
cut.innerBottom1
 62
1
100
AcDbSpline
 70
8
 71
3
 72
8
 73
4
 74
0
 40
0
 40
0
 40
0
 40
0
 40
1
 40
1
 40
1
 40
1
 10
59.999950
 20
-14.679988
 30
0.0
 10
59.116295
 20
-14.679988
 30
0.0
 10
58.399952
 20
-13.963644
 30
0.0
 10
58.399953
 20
-13.079989
 30
0.0
  0
SPLINE
  5
106
100
AcDbEntity
  8
cut.innerBottom1
 62
1
100
AcDbSpline
 70
8
 71
3
 72
8
 73
4
 74
0
 40
0
 40
0
 40
0
 40
0
 40
1
 40
1
 40
1
 40
1
 10
58.399953
 20
-13.079989
 30
0.0
 10
58.399953
 20
-12.196335
 30
0.0
 10
59.116295
 20
-11.479991
 30
0.0
 10
59.999950
 20
-11.479991
 30
0.0
  0
SPLINE
  5
107
100
AcDbEntity
  8
cut.innerBottom1
 62
1
100
AcDbSpline
 70
8
 71
3
 72
8
 73
4
 74
0
 40
0
 40
0
 40
0
 40
0
 40
1
 40
1
 40
1
 40
1
 10
59.999950
 20
-11.479991
 30
0.0
 10
60.883605
 20
-11.479991
 30
0.0
 10
61.599948
 20
-12.196335
 30
0.0
 10
61.599948
 20
-13.079989
 30
0.0
  0
SPLINE
  5
108
100
AcDbEntity
  8
cut.innerBottom1
 62
1
100
AcDbSpline
 70
8
 71
3
 72
8
 73
4
 74
0
 40
0
 40
0
 40
0
 40
0
 40
1
 40
1
 40
1
 40
1
 10
341.599722
 20
-13.079989
 30
0.0
 10
341.599722
 20
-13.963643
 30
0.0
 10
340.883380
 20
-14.679986
 30
0.0
 10
339.999727
 20
-14.679988
 30
0.0
  0
SPLINE
  5
109
100
AcDbEntity
  8
cut.innerBottom1
 62
1
100
AcDbSpline
 70
8
 71
3
 72
8
 73
4
 74
0
 40
0
 40
0
 40
0
 40
0
 40
1
 40
1
 40
1
 40
1
 10
339.999727
 20
-14.679988
 30
0.0
 10
339.575377
 20
-14.679994
 30
0.0
 10
339.168405
 20
-14.511426
 30
0.0
 10
338.868343
 20
-14.211367
 30
0.0
  0
SPLINE
  5
10a
100
AcDbEntity
  8
cut.innerBottom1
 62
1
100
AcDbSpline
 70
8
 71
3
 72
8
 73
4
 74
0
 40
0
 40
0
 40
0
 40
0
 40
1
 40
1
 40
1
 40
1
 10
338.868343
 20
-14.211367
 30
0.0
 10
338.568280
 20
-13.911308
 30
0.0
 10
338.399706
 20
-13.504339
 30
0.0
 10
338.399706
 20
-13.079989
 30
0.0
  0
SPLINE
  5
10b
100
AcDbEntity
  8
cut.innerBottom1
 62
1
100
AcDbSpline
 70
8
 71
3
 72
8
 73
4
 74
0
 40
0
 40
0
 40
0
 40
0
 40
1
 40
1
 40
1
 40
1
 10
338.399706
 20
-13.079989
 30
0.0
 10
338.399706
 20
-12.655640
 30
0.0
 10
338.568280
 20
-12.248670
 30
0.0
 10
338.868343
 20
-11.948612
 30
0.0
  0
SPLINE
  5
10c
100
AcDbEntity
  8
cut.innerBottom1
 62
1
100
AcDbSpline
 70
8
 71
3
 72
8
 73
4
 74
0
 40
0
 40
0
 40
0
 40
0
 40
1
 40
1
 40
1
 40
1
 10
338.868343
 20
-11.948612
 30
0.0
 10
339.168406
 20
-11.648553
 30
0.0
 10
339.575377
 20
-11.479985
 30
0.0
 10
339.999727
 20
-11.479991
 30
0.0
  0
SPLINE
  5
10d
100
AcDbEntity
  8
cut.innerBottom1
 62
1
100
AcDbSpline
 70
8
 71
3
 72
8
 73
4
 74
0
 40
0
 40
0
 40
0
 40
0
 40
1
 40
1
 40
1
 40
1
 10
339.999727
 20
-11.479991
 30
0.0
 10
340.883380
 20
-11.479992
 30
0.0
 10
341.599722
 20
-12.196335
 30
0.0
 10
341.599722
 20
-13.079989
 30
0.0
  0
SPLINE
  5
10e
100
AcDbEntity
  8
cut.innerBottom1
 62
1
100
AcDbSpline
 70
8
 71
3
 72
8
 73
4
 74
0
 40
0
 40
0
 40
0
 40
0
 40
1
 40
1
 40
1
 40
1
 10
236.599793
 20
-35.079971
 30
0.0
 10
236.599792
 20
-35.963625
 30
0.0
 10
235.883449
 20
-36.679969
 30
0.0
 10
234.999794
 20
-36.679969
 30
0.0
  0
SPLINE
  5
10f
100
AcDbEntity
  8
cut.innerBottom1
 62
1
100
AcDbSpline
 70
8
 71
3
 72
8
 73
4
 74
0
 40
0
 40
0
 40
0
 40
0
 40
1
 40
1
 40
1
 40
1
 10
234.999794
 20
-36.679969
 30
0.0
 10
234.575448
 20
-36.679970
 30
0.0
 10
234.168482
 20
-36.511399
 30
0.0
 10
233.868423
 20
-36.211341
 30
0.0
  0
SPLINE
  5
110
100
AcDbEntity
  8
cut.innerBottom1
 62
1
100
AcDbSpline
 70
8
 71
3
 72
8
 73
4
 74
0
 40
0
 40
0
 40
0
 40
0
 40
1
 40
1
 40
1
 40
1
 10
233.868423
 20
-36.211341
 30
0.0
 10
233.568365
 20
-35.911283
 30
0.0
 10
233.399793
 20
-35.504317
 30
0.0
 10
233.399793
 20
-35.079971
 30
0.0
  0
SPLINE
  5
111
100
AcDbEntity
  8
cut.innerBottom1
 62
1
100
AcDbSpline
 70
8
 71
3
 72
8
 73
4
 74
0
 40
0
 40
0
 40
0
 40
0
 40
1
 40
1
 40
1
 40
1
 10
233.399793
 20
-35.079971
 30
0.0
 10
233.399793
 20
-34.655624
 30
0.0
 10
233.568364
 20
-34.248657
 30
0.0
 10
233.868422
 20
-33.948599
 30
0.0
  0
SPLINE
  5
112
100
AcDbEntity
  8
cut.innerBottom1
 62
1
100
AcDbSpline
 70
8
 71
3
 72
8
 73
4
 74
0
 40
0
 40
0
 40
0
 40
0
 40
1
 40
1
 40
1
 40
1
 10
233.868422
 20
-33.948599
 30
0.0
 10
234.168481
 20
-33.648541
 30
0.0
 10
234.575447
 20
-33.479970
 30
0.0
 10
234.999794
 20
-33.479971
 30
0.0
  0
SPLINE
  5
113
100
AcDbEntity
  8
cut.innerBottom1
 62
1
100
AcDbSpline
 70
8
 71
3
 72
8
 73
4
 74
0
 40
0
 40
0
 40
0
 40
0
 40
1
 40
1
 40
1
 40
1
 10
234.999794
 20
-33.479971
 30
0.0
 10
235.424141
 20
-33.479971
 30
0.0
 10
235.831107
 20
-33.648542
 30
0.0
 10
236.131165
 20
-33.948599
 30
0.0
  0
SPLINE
  5
114
100
AcDbEntity
  8
cut.innerBottom1
 62
1
100
AcDbSpline
 70
8
 71
3
 72
8
 73
4
 74
0
 40
0
 40
0
 40
0
 40
0
 40
1
 40
1
 40
1
 40
1
 10
236.131165
 20
-33.948599
 30
0.0
 10
236.431223
 20
-34.248658
 30
0.0
 10
236.599793
 20
-34.655624
 30
0.0
 10
236.599793
 20
-35.079971
 30
0.0
  0
SPLINE
  5
115
100
AcDbEntity
  8
cut.innerBottom1
 62
1
100
AcDbSpline
 70
8
 71
3
 72
8
 73
4
 74
0
 40
0
 40
0
 40
0
 40
0
 40
1
 40
1
 40
1
 40
1
 10
166.599860
 20
-35.079971
 30
0.0
 10
166.599860
 20
-35.963625
 30
0.0
 10
165.883516
 20
-36.679969
 30
0.0
 10
164.999863
 20
-36.679969
 30
0.0
  0
SPLINE
  5
116
100
AcDbEntity
  8
cut.innerBottom1
 62
1
100
AcDbSpline
 70
8
 71
3
 72
8
 73
4
 74
0
 40
0
 40
0
 40
0
 40
0
 40
1
 40
1
 40
1
 40
1
 10
164.999863
 20
-36.679969
 30
0.0
 10
164.116208
 20
-36.679969
 30
0.0
 10
163.399864
 20
-35.963625
 30
0.0
 10
163.399864
 20
-35.079971
 30
0.0
  0
SPLINE
  5
117
100
AcDbEntity
  8
cut.innerBottom1
 62
1
100
AcDbSpline
 70
8
 71
3
 72
8
 73
4
 74
0
 40
0
 40
0
 40
0
 40
0
 40
1
 40
1
 40
1
 40
1
 10
163.399864
 20
-35.079971
 30
0.0
 10
163.399864
 20
-34.655624
 30
0.0
 10
163.568434
 20
-34.248658
 30
0.0
 10
163.868492
 20
-33.948599
 30
0.0
  0
SPLINE
  5
118
100
AcDbEntity
  8
cut.innerBottom1
 62
1
100
AcDbSpline
 70
8
 71
3
 72
8
 73
4
 74
0
 40
0
 40
0
 40
0
 40
0
 40
1
 40
1
 40
1
 40
1
 10
163.868492
 20
-33.948599
 30
0.0
 10
164.168550
 20
-33.648542
 30
0.0
 10
164.575516
 20
-33.479971
 30
0.0
 10
164.999863
 20
-33.479971
 30
0.0
  0
SPLINE
  5
119
100
AcDbEntity
  8
cut.innerBottom1
 62
1
100
AcDbSpline
 70
8
 71
3
 72
8
 73
4
 74
0
 40
0
 40
0
 40
0
 40
0
 40
1
 40
1
 40
1
 40
1
 10
164.999863
 20
-33.479971
 30
0.0
 10
165.424209
 20
-33.479971
 30
0.0
 10
165.831174
 20
-33.648542
 30
0.0
 10
166.131232
 20
-33.948599
 30
0.0
  0
SPLINE
  5
11a
100
AcDbEntity
  8
cut.innerBottom1
 62
1
100
AcDbSpline
 70
8
 71
3
 72
8
 73
4
 74
0
 40
0
 40
0
 40
0
 40
0
 40
1
 40
1
 40
1
 40
1
 10
166.131232
 20
-33.948599
 30
0.0
 10
166.431290
 20
-34.248658
 30
0.0
 10
166.599861
 20
-34.655624
 30
0.0
 10
166.599860
 20
-35.079971
 30
0.0
  0
SPLINE
  5
11b
100
AcDbEntity
  8
cut.innerBottom1
 62
1
100
AcDbSpline
 70
8
 71
3
 72
8
 73
4
 74
0
 40
0
 40
0
 40
0
 40
0
 40
1
 40
1
 40
1
 40
1
 10
201.599832
 20
-158.079868
 30
0.0
 10
201.599832
 20
-158.504214
 30
0.0
 10
201.431262
 20
-158.911180
 30
0.0
 10
201.131202
 20
-159.211238
 30
0.0
  0
SPLINE
  5
11c
100
AcDbEntity
  8
cut.innerBottom1
 62
1
100
AcDbSpline
 70
8
 71
3
 72
8
 73
4
 74
0
 40
0
 40
0
 40
0
 40
0
 40
1
 40
1
 40
1
 40
1
 10
201.131202
 20
-159.211238
 30
0.0
 10
200.831145
 20
-159.511296
 30
0.0
 10
200.424179
 20
-159.679866
 30
0.0
 10
199.999832
 20
-159.679866
 30
0.0
  0
SPLINE
  5
11d
100
AcDbEntity
  8
cut.innerBottom1
 62
1
100
AcDbSpline
 70
8
 71
3
 72
8
 73
4
 74
0
 40
0
 40
0
 40
0
 40
0
 40
1
 40
1
 40
1
 40
1
 10
199.999832
 20
-159.679866
 30
0.0
 10
199.116178
 20
-159.679865
 30
0.0
 10
198.399834
 20
-158.963522
 30
0.0
 10
198.399834
 20
-158.079868
 30
0.0
  0
SPLINE
  5
11e
100
AcDbEntity
  8
cut.innerBottom1
 62
1
100
AcDbSpline
 70
8
 71
3
 72
8
 73
4
 74
0
 40
0
 40
0
 40
0
 40
0
 40
1
 40
1
 40
1
 40
1
 10
198.399834
 20
-158.079868
 30
0.0
 10
198.399834
 20
-157.196214
 30
0.0
 10
199.116178
 20
-156.479870
 30
0.0
 10
199.999832
 20
-156.479870
 30
0.0
  0
SPLINE
  5
11f
100
AcDbEntity
  8
cut.innerBottom1
 62
1
100
AcDbSpline
 70
8
 71
3
 72
8
 73
4
 74
0
 40
0
 40
0
 40
0
 40
0
 40
1
 40
1
 40
1
 40
1
 10
199.999832
 20
-156.479870
 30
0.0
 10
200.424179
 20
-156.479869
 30
0.0
 10
200.831145
 20
-156.648440
 30
0.0
 10
201.131202
 20
-156.948498
 30
0.0
  0
SPLINE
  5
120
100
AcDbEntity
  8
cut.innerBottom1
 62
1
100
AcDbSpline
 70
8
 71
3
 72
8
 73
4
 74
0
 40
0
 40
0
 40
0
 40
0
 40
1
 40
1
 40
1
 40
1
 10
201.131202
 20
-156.948498
 30
0.0
 10
201.431262
 20
-157.248556
 30
0.0
 10
201.599832
 20
-157.655522
 30
0.0
 10
201.599832
 20
-158.079868
 30
0.0
  0
SPLINE
  5
121
100
AcDbEntity
  8
cut.innerBottom1
 62
1
100
AcDbSpline
 70
8
 71
3
 72
8
 73
4
 74
0
 40
0
 40
0
 40
0
 40
0
 40
1
 40
1
 40
1
 40
1
 10
384.599703
 20
-93.079922
 30
0.0
 10
384.599702
 20
-93.963575
 30
0.0
 10
383.883360
 20
-94.679918
 30
0.0
 10
382.999708
 20
-94.679919
 30
0.0
  0
SPLINE
  5
122
100
AcDbEntity
  8
cut.innerBottom1
 62
1
100
AcDbSpline
 70
8
 71
3
 72
8
 73
4
 74
0
 40
0
 40
0
 40
0
 40
0
 40
1
 40
1
 40
1
 40
1
 10
382.999708
 20
-94.679919
 30
0.0
 10
382.575358
 20
-94.679925
 30
0.0
 10
382.168386
 20
-94.511358
 30
0.0
 10
381.868323
 20
-94.211298
 30
0.0
  0
SPLINE
  5
123
100
AcDbEntity
  8
cut.innerBottom1
 62
1
100
AcDbSpline
 70
8
 71
3
 72
8
 73
4
 74
0
 40
0
 40
0
 40
0
 40
0
 40
1
 40
1
 40
1
 40
1
 10
381.868323
 20
-94.211298
 30
0.0
 10
381.568260
 20
-93.911241
 30
0.0
 10
381.399686
 20
-93.504272
 30
0.0
 10
381.399686
 20
-93.079922
 30
0.0
  0
SPLINE
  5
124
100
AcDbEntity
  8
cut.innerBottom1
 62
1
100
AcDbSpline
 70
8
 71
3
 72
8
 73
4
 74
0
 40
0
 40
0
 40
0
 40
0
 40
1
 40
1
 40
1
 40
1
 10
381.399686
 20
-93.079922
 30
0.0
 10
381.399686
 20
-92.655572
 30
0.0
 10
381.568260
 20
-92.248603
 30
0.0
 10
381.868323
 20
-91.948544
 30
0.0
  0
SPLINE
  5
125
100
AcDbEntity
  8
cut.innerBottom1
 62
1
100
AcDbSpline
 70
8
 71
3
 72
8
 73
4
 74
0
 40
0
 40
0
 40
0
 40
0
 40
1
 40
1
 40
1
 40
1
 10
381.868323
 20
-91.948544
 30
0.0
 10
382.168386
 20
-91.648485
 30
0.0
 10
382.575358
 20
-91.479917
 30
0.0
 10
382.999708
 20
-91.479923
 30
0.0
  0
SPLINE
  5
126
100
AcDbEntity
  8
cut.innerBottom1
 62
1
100
AcDbSpline
 70
8
 71
3
 72
8
 73
4
 74
0
 40
0
 40
0
 40
0
 40
0
 40
1
 40
1
 40
1
 40
1
 10
382.999708
 20
-91.479923
 30
0.0
 10
383.883360
 20
-91.479925
 30
0.0
 10
384.599702
 20
-92.196268
 30
0.0
 10
384.599703
 20
-93.079922
 30
0.0
  0
SPLINE
  5
127
100
AcDbEntity
  8
cut.innerBottom1
 62
1
100
AcDbSpline
 70
8
 71
3
 72
8
 73
4
 74
0
 40
0
 40
0
 40
0
 40
0
 40
1
 40
1
 40
1
 40
1
 10
371.599663
 20
-143.079880
 30
0.0
 10
371.599664
 20
-143.963533
 30
0.0
 10
370.883322
 20
-144.679878
 30
0.0
 10
369.999667
 20
-144.679880
 30
0.0
  0
SPLINE
  5
128
100
AcDbEntity
  8
cut.innerBottom1
 62
1
100
AcDbSpline
 70
8
 71
3
 72
8
 73
4
 74
0
 40
0
 40
0
 40
0
 40
0
 40
1
 40
1
 40
1
 40
1
 10
369.999667
 20
-144.679880
 30
0.0
 10
369.116014
 20
-144.679878
 30
0.0
 10
368.399671
 20
-143.963533
 30
0.0
 10
368.399672
 20
-143.079880
 30
0.0
  0
SPLINE
  5
129
100
AcDbEntity
  8
cut.innerBottom1
 62
1
100
AcDbSpline
 70
8
 71
3
 72
8
 73
4
 74
0
 40
0
 40
0
 40
0
 40
0
 40
1
 40
1
 40
1
 40
1
 10
368.399672
 20
-143.079880
 30
0.0
 10
368.399673
 20
-142.196226
 30
0.0
 10
369.116014
 20
-141.479883
 30
0.0
 10
369.999667
 20
-141.479881
 30
0.0
  0
SPLINE
  5
12a
100
AcDbEntity
  8
cut.innerBottom1
 62
1
100
AcDbSpline
 70
8
 71
3
 72
8
 73
4
 74
0
 40
0
 40
0
 40
0
 40
0
 40
1
 40
1
 40
1
 40
1
 10
369.999667
 20
-141.479881
 30
0.0
 10
370.883321
 20
-141.479883
 30
0.0
 10
371.599663
 20
-142.196226
 30
0.0
 10
371.599663
 20
-143.079880
 30
0.0
  0
SPLINE
  5
12b
100
AcDbEntity
  8
cut.innerBottom1
 62
1
100
AcDbSpline
 70
8
 71
3
 72
8
 73
4
 74
0
 40
0
 40
0
 40
0
 40
0
 40
1
 40
1
 40
1
 40
1
 10
271.599768
 20
-183.079838
 30
0.0
 10
271.599767
 20
-183.963491
 30
0.0
 10
270.883425
 20
-184.679834
 30
0.0
 10
269.999772
 20
-184.679836
 30
0.0
  0
SPLINE
  5
12c
100
AcDbEntity
  8
cut.innerBottom1
 62
1
100
AcDbSpline
 70
8
 71
3
 72
8
 73
4
 74
0
 40
0
 40
0
 40
0
 40
0
 40
1
 40
1
 40
1
 40
1
 10
269.999772
 20
-184.679836
 30
0.0
 10
269.116119
 20
-184.679834
 30
0.0
 10
268.399777
 20
-183.963491
 30
0.0
 10
268.399777
 20
-183.079838
 30
0.0
  0
SPLINE
  5
12d
100
AcDbEntity
  8
cut.innerBottom1
 62
1
100
AcDbSpline
 70
8
 71
3
 72
8
 73
4
 74
0
 40
0
 40
0
 40
0
 40
0
 40
1
 40
1
 40
1
 40
1
 10
268.399777
 20
-183.079838
 30
0.0
 10
268.399776
 20
-182.196184
 30
0.0
 10
269.116117
 20
-181.479839
 30
0.0
 10
269.999772
 20
-181.479837
 30
0.0
  0
SPLINE
  5
12e
100
AcDbEntity
  8
cut.innerBottom1
 62
1
100
AcDbSpline
 70
8
 71
3
 72
8
 73
4
 74
0
 40
0
 40
0
 40
0
 40
0
 40
1
 40
1
 40
1
 40
1
 10
269.999772
 20
-181.479837
 30
0.0
 10
270.883426
 20
-181.479839
 30
0.0
 10
271.599769
 20
-182.196184
 30
0.0
 10
271.599768
 20
-183.079838
 30
0.0
  0
SPLINE
  5
12f
100
AcDbEntity
  8
cut.innerBottom1
 62
1
100
AcDbSpline
 70
8
 71
3
 72
8
 73
4
 74
0
 40
0
 40
0
 40
0
 40
0
 40
1
 40
1
 40
1
 40
1
 10
126.599894
 20
-183.079838
 30
0.0
 10
126.599894
 20
-183.963492
 30
0.0
 10
125.883551
 20
-184.679835
 30
0.0
 10
124.999896
 20
-184.679836
 30
0.0
  0
SPLINE
  5
130
100
AcDbEntity
  8
cut.innerBottom1
 62
1
100
AcDbSpline
 70
8
 71
3
 72
8
 73
4
 74
0
 40
0
 40
0
 40
0
 40
0
 40
1
 40
1
 40
1
 40
1
 10
124.999896
 20
-184.679836
 30
0.0
 10
124.575550
 20
-184.679836
 30
0.0
 10
124.168584
 20
-184.511266
 30
0.0
 10
123.868525
 20
-184.211208
 30
0.0
  0
SPLINE
  5
131
100
AcDbEntity
  8
cut.innerBottom1
 62
1
100
AcDbSpline
 70
8
 71
3
 72
8
 73
4
 74
0
 40
0
 40
0
 40
0
 40
0
 40
1
 40
1
 40
1
 40
1
 10
123.868525
 20
-184.211208
 30
0.0
 10
123.568467
 20
-183.911150
 30
0.0
 10
123.399896
 20
-183.504184
 30
0.0
 10
123.399895
 20
-183.079838
 30
0.0
  0
SPLINE
  5
132
100
AcDbEntity
  8
cut.innerBottom1
 62
1
100
AcDbSpline
 70
8
 71
3
 72
8
 73
4
 74
0
 40
0
 40
0
 40
0
 40
0
 40
1
 40
1
 40
1
 40
1
 10
123.399895
 20
-183.079838
 30
0.0
 10
123.399895
 20
-182.655491
 30
0.0
 10
123.568466
 20
-182.248525
 30
0.0
 10
123.868524
 20
-181.948466
 30
0.0
  0
SPLINE
  5
133
100
AcDbEntity
  8
cut.innerBottom1
 62
1
100
AcDbSpline
 70
8
 71
3
 72
8
 73
4
 74
0
 40
0
 40
0
 40
0
 40
0
 40
1
 40
1
 40
1
 40
1
 10
123.868524
 20
-181.948466
 30
0.0
 10
124.168583
 20
-181.648408
 30
0.0
 10
124.575550
 20
-181.479837
 30
0.0
 10
124.999896
 20
-181.479837
 30
0.0
  0
SPLINE
  5
134
100
AcDbEntity
  8
cut.innerBottom1
 62
1
100
AcDbSpline
 70
8
 71
3
 72
8
 73
4
 74
0
 40
0
 40
0
 40
0
 40
0
 40
1
 40
1
 40
1
 40
1
 10
124.999896
 20
-181.479837
 30
0.0
 10
125.424243
 20
-181.479837
 30
0.0
 10
125.831209
 20
-181.648409
 30
0.0
 10
126.131267
 20
-181.948467
 30
0.0
  0
SPLINE
  5
135
100
AcDbEntity
  8
cut.innerBottom1
 62
1
100
AcDbSpline
 70
8
 71
3
 72
8
 73
4
 74
0
 40
0
 40
0
 40
0
 40
0
 40
1
 40
1
 40
1
 40
1
 10
126.131267
 20
-181.948467
 30
0.0
 10
126.431324
 20
-182.248525
 30
0.0
 10
126.599894
 20
-182.655492
 30
0.0
 10
126.599894
 20
-183.079838
 30
0.0
  0
SPLINE
  5
136
100
AcDbEntity
  8
cut.innerBottom1
 62
1
100
AcDbSpline
 70
8
 71
3
 72
8
 73
4
 74
0
 40
0
 40
0
 40
0
 40
0
 40
1
 40
1
 40
1
 40
1
 10
31.599974
 20
-143.079880
 30
0.0
 10
31.599975
 20
-143.504227
 30
0.0
 10
31.431404
 20
-143.911193
 30
0.0
 10
31.131345
 20
-144.211251
 30
0.0
  0
SPLINE
  5
137
100
AcDbEntity
  8
cut.innerBottom1
 62
1
100
AcDbSpline
 70
8
 71
3
 72
8
 73
4
 74
0
 40
0
 40
0
 40
0
 40
0
 40
1
 40
1
 40
1
 40
1
 10
31.131345
 20
-144.211251
 30
0.0
 10
30.831287
 20
-144.511309
 30
0.0
 10
30.424320
 20
-144.679880
 30
0.0
 10
29.999974
 20
-144.679880
 30
0.0
  0
SPLINE
  5
138
100
AcDbEntity
  8
cut.innerBottom1
 62
1
100
AcDbSpline
 70
8
 71
3
 72
8
 73
4
 74
0
 40
0
 40
0
 40
0
 40
0
 40
1
 40
1
 40
1
 40
1
 10
29.999974
 20
-144.679880
 30
0.0
 10
29.575628
 20
-144.679880
 30
0.0
 10
29.168662
 20
-144.511308
 30
0.0
 10
28.868604
 20
-144.211251
 30
0.0
  0
SPLINE
  5
139
100
AcDbEntity
  8
cut.innerBottom1
 62
1
100
AcDbSpline
 70
8
 71
3
 72
8
 73
4
 74
0
 40
0
 40
0
 40
0
 40
0
 40
1
 40
1
 40
1
 40
1
 10
28.868604
 20
-144.211251
 30
0.0
 10
28.568546
 20
-143.911193
 30
0.0
 10
28.399975
 20
-143.504226
 30
0.0
 10
28.399976
 20
-143.079880
 30
0.0
  0
SPLINE
  5
13a
100
AcDbEntity
  8
cut.innerBottom1
 62
1
100
AcDbSpline
 70
8
 71
3
 72
8
 73
4
 74
0
 40
0
 40
0
 40
0
 40
0
 40
1
 40
1
 40
1
 40
1
 10
28.399976
 20
-143.079880
 30
0.0
 10
28.399976
 20
-142.196225
 30
0.0
 10
29.116320
 20
-141.479882
 30
0.0
 10
29.999974
 20
-141.479881
 30
0.0
  0
SPLINE
  5
13b
100
AcDbEntity
  8
cut.innerBottom1
 62
1
100
AcDbSpline
 70
8
 71
3
 72
8
 73
4
 74
0
 40
0
 40
0
 40
0
 40
0
 40
1
 40
1
 40
1
 40
1
 10
29.999974
 20
-141.479881
 30
0.0
 10
30.424320
 20
-141.479881
 30
0.0
 10
30.831286
 20
-141.648451
 30
0.0
 10
31.131344
 20
-141.948509
 30
0.0
  0
SPLINE
  5
13c
100
AcDbEntity
  8
cut.innerBottom1
 62
1
100
AcDbSpline
 70
8
 71
3
 72
8
 73
4
 74
0
 40
0
 40
0
 40
0
 40
0
 40
1
 40
1
 40
1
 40
1
 10
31.131344
 20
-141.948509
 30
0.0
 10
31.431403
 20
-142.248567
 30
0.0
 10
31.599974
 20
-142.655533
 30
0.0
 10
31.599974
 20
-143.079880
 30
0.0
  0
SPLINE
  5
13d
100
AcDbEntity
  8
cut.innerBottom1
 62
1
100
AcDbSpline
 70
8
 71
3
 72
8
 73
4
 74
0
 40
0
 40
0
 40
0
 40
0
 40
1
 40
1
 40
1
 40
1
 10
234.446468
 20
-75.342004
 30
0.0
 10
234.671421
 20
-76.316370
 30
0.0
 10
234.352943
 20
-77.159611
 30
0.0
 10
233.134977
 20
-77.440801
 30
0.0
  0
SPLINE
  5
13e
100
AcDbEntity
  8
cut.innerBottom1
 62
1
100
AcDbSpline
 70
8
 71
3
 72
8
 73
4
 74
0
 40
0
 40
0
 40
0
 40
0
 40
1
 40
1
 40
1
 40
1
 10
229.102930
 20
-42.194492
 30
0.0
 10
227.884983
 20
-42.475680
 30
0.0
 10
227.191800
 20
-43.918590
 30
0.0
 10
227.472993
 20
-45.136551
 30
0.0
  0
SPLINE
  5
13f
100
AcDbEntity
  8
cut.innerBottom1
 62
1
100
AcDbSpline
 70
8
 71
3
 72
8
 73
4
 74
0
 40
0
 40
0
 40
0
 40
0
 40
1
 40
1
 40
1
 40
1
 10
211.123156
 20
-137.686438
 30
0.0
 10
209.999827
 20
-136.579888
 30
0.0
 10
210.249826
 20
-135.579888
 30
0.0
 10
210.749825
 20
-133.079890
 30
0.0
  0
SPLINE
  5
140
100
AcDbEntity
  8
cut.innerBottom1
 62
1
100
AcDbSpline
 70
8
 71
3
 72
8
 73
4
 74
0
 40
0
 40
0
 40
0
 40
0
 40
1
 40
1
 40
1
 40
1
 10
210.749825
 20
-133.079890
 30
0.0
 10
211.499825
 20
-129.079894
 30
0.0
 10
219.911013
 20
-86.907331
 30
0.0
 10
220.999816
 20
-83.079932
 30
0.0
  0
SPLINE
  5
141
100
AcDbEntity
  8
cut.innerBottom1
 62
1
100
AcDbSpline
 70
8
 71
3
 72
8
 73
4
 74
0
 40
0
 40
0
 40
0
 40
0
 40
1
 40
1
 40
1
 40
1
 10
220.999816
 20
-83.079932
 30
0.0
 10
221.999816
 20
-80.079933
 30
0.0
 10
224.999813
 20
-79.329935
 30
0.0
 10
225.583616
 20
-79.184167
 30
0.0
  0
SPLINE
  5
142
100
AcDbEntity
  8
cut.innerBottom1
 62
1
100
AcDbSpline
 70
8
 71
3
 72
8
 73
4
 74
0
 40
0
 40
0
 40
0
 40
0
 40
1
 40
1
 40
1
 40
1
 10
240.751036
 20
-165.997184
 30
0.0
 10
239.889143
 20
-166.709317
 30
0.0
 10
238.371354
 20
-166.803163
 30
0.0
 10
237.715456
 20
-166.184851
 30
0.0
  0
SPLINE
  5
143
100
AcDbEntity
  8
cut.innerBottom1
 62
1
100
AcDbSpline
 70
8
 71
3
 72
8
 73
4
 74
0
 40
0
 40
0
 40
0
 40
0
 40
1
 40
1
 40
1
 40
1
 10
343.488237
 20
-115.337982
 30
0.0
 10
342.270282
 20
-115.619168
 30
0.0
 10
341.127181
 20
-115.113334
 30
0.0
 10
340.902213
 20
-114.138968
 30
0.0
  0
SPLINE
  5
144
100
AcDbEntity
  8
cut.innerBottom1
 62
1
100
AcDbSpline
 70
8
 71
3
 72
8
 73
4
 74
0
 40
0
 40
0
 40
0
 40
0
 40
1
 40
1
 40
1
 40
1
 10
340.902213
 20
-114.138968
 30
0.0
 10
340.677296
 20
-113.164602
 30
0.0
 10
339.777808
 20
-112.602521
 30
0.0
 10
338.559827
 20
-112.883739
 30
0.0
  0
SPLINE
  5
145
100
AcDbEntity
  8
cut.innerBottom1
 62
1
100
AcDbSpline
 70
8
 71
3
 72
8
 73
4
 74
0
 40
0
 40
0
 40
0
 40
0
 40
1
 40
1
 40
1
 40
1
 10
378.490347
 20
-104.691357
 30
0.0
 10
378.771551
 20
-105.909301
 30
0.0
 10
378.321971
 20
-107.295983
 30
0.0
 10
376.373208
 20
-107.745893
 30
0.0
  0
SPLINE
  5
146
100
AcDbEntity
  8
cut.innerBottom1
 62
1
100
AcDbSpline
 70
8
 71
3
 72
8
 73
4
 74
0
 40
0
 40
0
 40
0
 40
0
 40
1
 40
1
 40
1
 40
1
 10
376.483799
 20
-88.220578
 30
0.0
 10
375.265820
 20
-88.501771
 30
0.0
 10
374.947355
 20
-89.345033
 30
0.0
 10
375.228533
 20
-90.562980
 30
0.0
  0
SPLINE
  5
147
100
AcDbEntity
  8
cut.innerBottom1
 62
1
100
AcDbSpline
 70
8
 71
3
 72
8
 73
4
 74
0
 40
0
 40
0
 40
0
 40
0
 40
1
 40
1
 40
1
 40
1
 10
378.713385
 20
-85.653234
 30
0.0
 10
378.882117
 20
-86.384022
 30
0.0
 10
378.188926
 20
-87.826919
 30
0.0
 10
376.727411
 20
-88.164347
 30
0.0
  0
SPLINE
  5
148
100
AcDbEntity
  8
cut.innerBottom1
 62
1
100
AcDbSpline
 70
8
 71
3
 72
8
 73
4
 74
0
 40
0
 40
0
 40
0
 40
0
 40
1
 40
1
 40
1
 40
1
 10
360.249428
 20
-13.456390
 30
0.0
 10
361.223823
 20
-13.231440
 30
0.0
 10
362.179522
 20
-14.037097
 30
0.0
 10
362.404489
 20
-15.011466
 30
0.0
  0
LWPOLYLINE
  5
149
100
AcDbEntity
  8
cut.innerBottom1
 62
1
100
AcDbPolyline
 90
10
 70
0
 10
229.102951
 20
-42.194482
 30
0.0
 10
264.911013
 20
-33.927540
 30
0.0
 10
264.573575
 20
-32.465988
 30
0.0
 10
283.086578
 20
-28.191918
 30
0.0
 10
282.749165
 20
-26.730365
 30
0.0
 10
302.967319
 20
-22.062637
 30
0.0
 10
303.327262
 20
-23.621623
 30
0.0
 10
321.820835
 20
-19.388982
 30
0.0
 10
322.492613
 20
-22.173236
 30
0.0
 10
360.249428
 20
-13.456387
 30
0.0
  0
LWPOLYLINE
  5
14a
100
AcDbEntity
  8
cut.innerBottom1
 62
1
100
AcDbPolyline
 90
2
 70
0
 10
362.404489
 20
-15.011463
 30
0.0
 10
378.713385
 20
-85.653234
 30
0.0
  0
LWPOLYLINE
  5
14b
100
AcDbEntity
  8
cut.innerBottom1
 62
1
100
AcDbPolyline
 90
2
 70
0
 10
375.228533
 20
-90.562980
 30
0.0
 10
378.490322
 20
-104.691332
 30
0.0
  0
LWPOLYLINE
  5
14c
100
AcDbEntity
  8
cut.innerBottom1
 62
1
100
AcDbPolyline
 90
2
 70
0
 10
376.373208
 20
-107.745893
 30
0.0
 10
343.488237
 20
-115.337982
 30
0.0
  0
LWPOLYLINE
  5
14d
100
AcDbEntity
  8
cut.innerBottom1
 62
1
100
AcDbPolyline
 90
2
 70
0
 10
227.472990
 20
-45.136549
 30
0.0
 10
234.446468
 20
-75.342004
 30
0.0
  0
LWPOLYLINE
  5
14e
100
AcDbEntity
  8
cut.innerBottom1
 62
1
100
AcDbPolyline
 90
2
 70
0
 10
233.134977
 20
-77.440801
 30
0.0
 10
225.583616
 20
-79.184167
 30
0.0
  0
LWPOLYLINE
  5
14f
100
AcDbEntity
  8
cut.innerBottom1
 62
1
100
AcDbPolyline
 90
2
 70
0
 10
376.727411
 20
-88.164347
 30
0.0
 10
376.483799
 20
-88.220578
 30
0.0
  0
LWPOLYLINE
  5
150
100
AcDbEntity
  8
cut.innerBottom1
 62
1
100
AcDbPolyline
 90
2
 70
0
 10
284.238771
 20
-125.424718
 30
0.0
 10
240.751036
 20
-165.997184
 30
0.0
  0
SPLINE
  5
151
100
AcDbEntity
  8
cut.innerBottom1
 62
1
100
AcDbSpline
 70
8
 71
3
 72
8
 73
4
 74
0
 40
0
 40
0
 40
0
 40
0
 40
1
 40
1
 40
1
 40
1
 10
165.339318
 20
-75.342004
 30
0.0
 10
165.114366
 20
-76.316370
 30
0.0
 10
165.432831
 20
-77.159621
 30
0.0
 10
166.650797
 20
-77.440811
 30
0.0
  0
SPLINE
  5
152
100
AcDbEntity
  8
cut.innerBottom1
 62
1
100
AcDbSpline
 70
8
 71
3
 72
8
 73
4
 74
0
 40
0
 40
0
 40
0
 40
0
 40
1
 40
1
 40
1
 40
1
 10
170.682841
 20
-42.194492
 30
0.0
 10
171.900793
 20
-42.475683
 30
0.0
 10
172.593976
 20
-43.918592
 30
0.0
 10
172.312796
 20
-45.136556
 30
0.0
  0
SPLINE
  5
153
100
AcDbEntity
  8
cut.innerBottom1
 62
1
100
AcDbSpline
 70
8
 71
3
 72
8
 73
4
 74
0
 40
0
 40
0
 40
0
 40
0
 40
1
 40
1
 40
1
 40
1
 10
188.662610
 20
-137.686443
 30
0.0
 10
189.749843
 20
-136.579888
 30
0.0
 10
189.499844
 20
-135.329889
 30
0.0
 10
188.999843
 20
-133.079890
 30
0.0
  0
SPLINE
  5
154
100
AcDbEntity
  8
cut.innerBottom1
 62
1
100
AcDbSpline
 70
8
 71
3
 72
8
 73
4
 74
0
 40
0
 40
0
 40
0
 40
0
 40
1
 40
1
 40
1
 40
1
 10
188.999843
 20
-133.079890
 30
0.0
 10
185.946793
 20
-119.353812
 30
0.0
 10
179.999850
 20
-87.079929
 30
0.0
 10
178.999851
 20
-83.079932
 30
0.0
  0
SPLINE
  5
155
100
AcDbEntity
  8
cut.innerBottom1
 62
1
100
AcDbSpline
 70
8
 71
3
 72
8
 73
4
 74
0
 40
0
 40
0
 40
0
 40
0
 40
1
 40
1
 40
1
 40
1
 10
178.999851
 20
-83.079932
 30
0.0
 10
177.999853
 20
-80.079933
 30
0.0
 10
174.999854
 20
-79.329935
 30
0.0
 10
174.202158
 20
-79.184182
 30
0.0
  0
SPLINE
  5
156
100
AcDbEntity
  8
cut.innerBottom1
 62
1
100
AcDbSpline
 70
8
 71
3
 72
8
 73
4
 74
0
 40
0
 40
0
 40
0
 40
0
 40
1
 40
1
 40
1
 40
1
 10
159.034735
 20
-165.997197
 30
0.0
 10
159.896623
 20
-166.709325
 30
0.0
 10
161.414417
 20
-166.803155
 30
0.0
 10
162.070321
 20
-166.184864
 30
0.0
  0
SPLINE
  5
157
100
AcDbEntity
  8
cut.innerBottom1
 62
1
100
AcDbSpline
 70
8
 71
3
 72
8
 73
4
 74
0
 40
0
 40
0
 40
0
 40
0
 40
1
 40
1
 40
1
 40
1
 10
56.297519
 20
-115.337974
 30
0.0
 10
57.515482
 20
-115.619162
 30
0.0
 10
58.658564
 20
-115.113334
 30
0.0
 10
58.883512
 20
-114.138973
 30
0.0
  0
SPLINE
  5
158
100
AcDbEntity
  8
cut.innerBottom1
 62
1
100
AcDbSpline
 70
8
 71
3
 72
8
 73
4
 74
0
 40
0
 40
0
 40
0
 40
0
 40
1
 40
1
 40
1
 40
1
 10
58.883512
 20
-114.138973
 30
0.0
 10
59.108466
 20
-113.164602
 30
0.0
 10
60.007956
 20
-112.602533
 30
0.0
 10
61.225918
 20
-112.883726
 30
0.0
  0
SPLINE
  5
159
100
AcDbEntity
  8
cut.innerBottom1
 62
1
100
AcDbSpline
 70
8
 71
3
 72
8
 73
4
 74
0
 40
0
 40
0
 40
0
 40
0
 40
1
 40
1
 40
1
 40
1
 10
21.295420
 20
-104.691352
 30
0.0
 10
21.014232
 20
-105.909306
 30
0.0
 10
21.463817
 20
-107.295980
 30
0.0
 10
23.412556
 20
-107.745890
 30
0.0
  0
SPLINE
  5
15a
100
AcDbEntity
  8
cut.innerBottom1
 62
1
100
AcDbSpline
 70
8
 71
3
 72
8
 73
4
 74
0
 40
0
 40
0
 40
0
 40
0
 40
1
 40
1
 40
1
 40
1
 10
23.301960
 20
-88.220593
 30
0.0
 10
24.519919
 20
-88.501783
 30
0.0
 10
24.838394
 20
-89.345027
 30
0.0
 10
24.557206
 20
-90.562997
 30
0.0
  0
SPLINE
  5
15b
100
AcDbEntity
  8
cut.innerBottom1
 62
1
100
AcDbSpline
 70
8
 71
3
 72
8
 73
4
 74
0
 40
0
 40
0
 40
0
 40
0
 40
1
 40
1
 40
1
 40
1
 10
21.072347
 20
-85.653239
 30
0.0
 10
20.903635
 20
-86.384012
 30
0.0
 10
21.596814
 20
-87.826924
 30
0.0
 10
23.058370
 20
-88.164357
 30
0.0
  0
SPLINE
  5
15c
100
AcDbEntity
  8
cut.innerBottom1
 62
1
100
AcDbSpline
 70
8
 71
3
 72
8
 73
4
 74
0
 40
0
 40
0
 40
0
 40
0
 40
1
 40
1
 40
1
 40
1
 10
39.536338
 20
-13.456392
 30
0.0
 10
38.561964
 20
-13.231442
 30
0.0
 10
37.606236
 20
-14.037094
 30
0.0
 10
37.381290
 20
-15.011466
 30
0.0
  0
LWPOLYLINE
  5
15d
100
AcDbEntity
  8
cut.innerBottom1
 62
1
100
AcDbPolyline
 90
2
 70
0
 10
237.715456
 20
-166.184851
 30
0.0
 10
211.123179
 20
-137.686430
 30
0.0
  0
LWPOLYLINE
  5
15e
100
AcDbEntity
  8
cut.innerBottom1
 62
1
100
AcDbPolyline
 90
2
 70
0
 10
338.559827
 20
-112.883714
 30
0.0
 10
284.238771
 20
-125.424718
 30
0.0
  0
LWPOLYLINE
  5
15f
100
AcDbEntity
  8
cut.innerBottom1
 62
1
100
AcDbPolyline
 90
10
 70
0
 10
170.682833
 20
-42.194490
 30
0.0
 10
134.874763
 20
-33.927544
 30
0.0
 10
135.212189
 20
-32.465988
 30
0.0
 10
116.699173
 20
-28.191921
 30
0.0
 10
117.036599
 20
-26.730367
 30
0.0
 10
96.818437
 20
-22.062640
 30
0.0
 10
96.458514
 20
-23.621626
 30
0.0
 10
77.964941
 20
-19.388985
 30
0.0
 10
77.293142
 20
-22.173236
 30
0.0
 10
39.536335
 20
-13.456390
 30
0.0
  0
LWPOLYLINE
  5
160
100
AcDbEntity
  8
cut.innerBottom1
 62
1
100
AcDbPolyline
 90
2
 70
0
 10
37.381286
 20
-15.011463
 30
0.0
 10
21.072347
 20
-85.653232
 30
0.0
  0
LWPOLYLINE
  5
161
100
AcDbEntity
  8
cut.innerBottom1
 62
1
100
AcDbPolyline
 90
2
 70
0
 10
24.557206
 20
-90.562992
 30
0.0
 10
21.295417
 20
-104.691345
 30
0.0
  0
LWPOLYLINE
  5
162
100
AcDbEntity
  8
cut.innerBottom1
 62
1
100
AcDbPolyline
 90
2
 70
0
 10
23.412556
 20
-107.745882
 30
0.0
 10
56.297519
 20
-115.337974
 30
0.0
  0
LWPOLYLINE
  5
163
100
AcDbEntity
  8
cut.innerBottom1
 62
1
100
AcDbPolyline
 90
2
 70
0
 10
172.312786
 20
-45.136551
 30
0.0
 10
165.339311
 20
-75.342001
 30
0.0
  0
LWPOLYLINE
  5
164
100
AcDbEntity
  8
cut.innerBottom1
 62
1
100
AcDbPolyline
 90
2
 70
0
 10
166.650792
 20
-77.440806
 30
0.0
 10
174.202153
 20
-79.184180
 30
0.0
  0
LWPOLYLINE
  5
165
100
AcDbEntity
  8
cut.innerBottom1
 62
1
100
AcDbPolyline
 90
2
 70
0
 10
23.058366
 20
-88.164352
 30
0.0
 10
23.301960
 20
-88.220588
 30
0.0
  0
LWPOLYLINE
  5
166
100
AcDbEntity
  8
cut.innerBottom1
 62
1
100
AcDbPolyline
 90
2
 70
0
 10
115.547000
 20
-125.424733
 30
0.0
 10
159.034733
 20
-165.997188
 30
0.0
  0
LWPOLYLINE
  5
167
100
AcDbEntity
  8
cut.innerBottom1
 62
1
100
AcDbPolyline
 90
2
 70
0
 10
162.070316
 20
-166.184856
 30
0.0
 10
188.662607
 20
-137.686438
 30
0.0
  0
SPLINE
  5
168
100
AcDbEntity
  8
cut.innerBottom1
 62
1
100
AcDbSpline
 70
8
 71
3
 72
8
 73
4
 74
0
 40
0
 40
0
 40
0
 40
0
 40
1
 40
1
 40
1
 40
1
 10
210.279808
 20
-39.329967
 30
0.0
 10
211.279806
 20
-39.329967
 30
0.0
 10
211.736713
 20
-39.829970
 30
0.0
 10
211.749265
 20
-40.579968
 30
0.0
  0
LWPOLYLINE
  5
169
100
AcDbEntity
  8
cut.innerBottom1
 62
1
100
AcDbPolyline
 90
2
 70
0
 10
61.225918
 20
-112.883721
 30
0.0
 10
115.547000
 20
-125.424733
 30
0.0
  0
SPLINE
  5
16a
100
AcDbEntity
  8
cut.innerBottom1
 62
1
100
AcDbSpline
 70
8
 71
3
 72
8
 73
4
 74
0
 40
0
 40
0
 40
0
 40
0
 40
1
 40
1
 40
1
 40
1
 10
211.749794
 20
-44.429965
 30
0.0
 10
211.749794
 20
-46.179962
 30
0.0
 10
213.499779
 20
-49.179961
 30
0.0
 10
216.249781
 20
-49.179961
 30
0.0
  0
LWPOLYLINE
  5
16b
100
AcDbEntity
  8
cut.innerBottom1
 62
1
100
AcDbPolyline
 90
2
 70
0
 10
208.999824
 20
-39.329967
 30
0.0
 10
210.279808
 20
-39.329967
 30
0.0
  0
SPLINE
  5
16c
100
AcDbEntity
  8
cut.innerBottom1
 62
1
100
AcDbSpline
 70
8
 71
3
 72
8
 73
4
 74
0
 40
0
 40
0
 40
0
 40
0
 40
1
 40
1
 40
1
 40
1
 10
220.249648
 20
-49.179961
 30
0.0
 10
223.249665
 20
-49.179961
 30
0.0
 10
225.664238
 20
-51.857241
 30
0.0
 10
225.664238
 20
-54.357240
 30
0.0
  0
LWPOLYLINE
  5
16d
100
AcDbEntity
  8
cut.innerBottom1
 62
1
100
AcDbPolyline
 90
2
 70
0
 10
211.749265
 20
-40.579968
 30
0.0
 10
211.749794
 20
-44.429965
 30
0.0
  0
SPLINE
  5
16e
100
AcDbEntity
  8
cut.innerBottom1
 62
1
100
AcDbSpline
 70
8
 71
3
 72
8
 73
4
 74
0
 40
0
 40
0
 40
0
 40
0
 40
1
 40
1
 40
1
 40
1
 10
174.249707
 20
-54.429957
 30
0.0
 10
174.249707
 20
-51.554957
 30
0.0
 10
176.661330
 20
-49.179961
 30
0.0
 10
179.749692
 20
-49.179961
 30
0.0
  0
LWPOLYLINE
  5
16f
100
AcDbEntity
  8
cut.innerBottom1
 62
1
100
AcDbPolyline
 90
2
 70
0
 10
216.249781
 20
-49.179961
 30
0.0
 10
220.249648
 20
-49.179961
 30
0.0
  0
SPLINE
  5
170
100
AcDbEntity
  8
cut.innerBottom1
 62
1
100
AcDbSpline
 70
8
 71
3
 72
8
 73
4
 74
0
 40
0
 40
0
 40
0
 40
0
 40
1
 40
1
 40
1
 40
1
 10
183.499691
 20
-49.179961
 30
0.0
 10
186.749672
 20
-49.179961
 30
0.0
 10
188.249690
 20
-46.429962
 30
0.0
 10
188.249690
 20
-44.429968
 30
0.0
  0
LWPOLYLINE
  5
171
100
AcDbEntity
  8
cut.innerBottom1
 62
1
100
AcDbPolyline
 90
8
 70
0
 10
225.664238
 20
-54.357240
 30
0.0
 10
225.749661
 20
-71.929941
 30
0.0
 10
226.749812
 20
-73.079940
 30
0.0
 10
209.499828
 20
-90.579927
 30
0.0
 10
190.499844
 20
-90.579927
 30
0.0
 10
173.249859
 20
-73.079940
 30
0.0
 10
174.249707
 20
-71.929941
 30
0.0
 10
174.249707
 20
-54.429957
 30
0.0
  0
SPLINE
  5
172
100
AcDbEntity
  8
cut.innerBottom1
 62
1
100
AcDbSpline
 70
8
 71
3
 72
8
 73
4
 74
0
 40
0
 40
0
 40
0
 40
0
 40
1
 40
1
 40
1
 40
1
 10
188.249690
 20
-40.579968
 30
0.0
 10
188.240907
 20
-39.829970
 30
0.0
 10
188.747192
 20
-39.329967
 30
0.0
 10
189.497177
 20
-39.329967
 30
0.0
  0
LWPOLYLINE
  5
173
100
AcDbEntity
  8
cut.innerBottom1
 62
1
100
AcDbPolyline
 90
2
 70
0
 10
179.749692
 20
-49.179961
 30
0.0
 10
183.499691
 20
-49.179961
 30
0.0
  0
SPLINE
  5
174
100
AcDbEntity
  8
cut.innerBottom1
 62
1
100
AcDbSpline
 70
8
 71
3
 72
8
 73
4
 74
0
 40
0
 40
0
 40
0
 40
0
 40
1
 40
1
 40
1
 40
1
 10
190.999842
 20
-37.079971
 30
0.0
 10
169.999858
 20
-37.079971
 30
0.0
 10
169.999858
 20
-18.079985
 30
0.0
 10
34.999975
 20
-6.079994
 30
0.0
  0
SPLINE
  5
175
100
AcDbEntity
  8
cut.innerBottom1
 62
1
100
AcDbSpline
 70
8
 71
3
 72
8
 73
4
 74
0
 40
0
 40
0
 40
0
 40
0
 40
1
 40
1
 40
1
 40
1
 10
34.999975
 20
-6.079994
 30
0.0
 10
30.999976
 20
-6.079994
 30
0.0
 10
27.999979
 20
-6.079994
 30
0.0
 10
26.999979
 20
-11.079991
 30
0.0
  0
LWPOLYLINE
  5
176
100
AcDbEntity
  8
cut.innerBottom1
 62
1
100
AcDbPolyline
 90
2
 70
0
 10
188.249690
 20
-44.429968
 30
0.0
 10
188.249690
 20
-40.579968
 30
0.0
  0
SPLINE
  5
177
100
AcDbEntity
  8
cut.innerBottom1
 62
1
100
AcDbSpline
 70
8
 71
3
 72
8
 73
4
 74
0
 40
0
 40
0
 40
0
 40
0
 40
1
 40
1
 40
1
 40
1
 10
14.291781
 20
-68.079944
 30
0.0
 10
11.999990
 20
-78.079933
 30
0.0
 10
9.999991
 20
-88.079925
 30
0.0
 10
9.999991
 20
-98.079917
 30
0.0
  0
SPLINE
  5
178
100
AcDbEntity
  8
cut.innerBottom1
 62
1
100
AcDbSpline
 70
8
 71
3
 72
8
 73
4
 74
0
 40
0
 40
0
 40
0
 40
0
 40
1
 40
1
 40
1
 40
1
 10
9.999991
 20
-98.079917
 30
0.0
 10
9.999991
 20
-149.442366
 30
0.0
 10
51.787245
 20
-192.929975
 30
0.0
 10
103.149694
 20
-192.929970
 30
0.0
  0
SPLINE
  5
179
100
AcDbEntity
  8
cut.innerBottom1
 62
1
100
AcDbSpline
 70
8
 71
3
 72
8
 73
4
 74
0
 40
0
 40
0
 40
0
 40
0
 40
1
 40
1
 40
1
 40
1
 10
103.149694
 20
-192.929970
 30
0.0
 10
154.512145
 20
-192.929970
 30
0.0
 10
164.999863
 20
-165.579862
 30
0.0
 10
192.499841
 20
-165.579862
 30
0.0
  0
LWPOLYLINE
  5
17a
100
AcDbEntity
  8
cut.innerBottom1
 62
1
100
AcDbPolyline
 90
3
 70
0
 10
189.497177
 20
-39.329967
 30
0.0
 10
190.999842
 20
-39.329967
 30
0.0
 10
190.999842
 20
-37.079971
 30
0.0
  0
SPLINE
  5
17b
100
AcDbEntity
  8
cut.innerBottom1
 62
1
100
AcDbSpline
 70
8
 71
3
 72
8
 73
4
 74
0
 40
0
 40
0
 40
0
 40
0
 40
1
 40
1
 40
1
 40
1
 10
207.499829
 20
-165.579862
 30
0.0
 10
234.999804
 20
-165.579862
 30
0.0
 10
245.487410
 20
-192.929973
 30
0.0
 10
296.849862
 20
-192.929970
 30
0.0
  0
SPLINE
  5
17c
100
AcDbEntity
  8
cut.innerBottom1
 62
1
100
AcDbSpline
 70
8
 71
3
 72
8
 73
4
 74
0
 40
0
 40
0
 40
0
 40
0
 40
1
 40
1
 40
1
 40
1
 10
296.849862
 20
-192.929970
 30
0.0
 10
348.212302
 20
-192.929970
 30
0.0
 10
389.999688
 20
-149.442369
 30
0.0
 10
389.999688
 20
-98.079917
 30
0.0
  0
SPLINE
  5
17d
100
AcDbEntity
  8
cut.innerBottom1
 62
1
100
AcDbSpline
 70
8
 71
3
 72
8
 73
4
 74
0
 40
0
 40
0
 40
0
 40
0
 40
1
 40
1
 40
1
 40
1
 10
389.999688
 20
-98.079917
 30
0.0
 10
389.999688
 20
-88.079925
 30
0.0
 10
387.999667
 20
-78.079933
 30
0.0
 10
385.999674
 20
-68.079944
 30
0.0
  0
LWPOLYLINE
  5
17e
100
AcDbEntity
  8
cut.innerBottom1
 62
1
100
AcDbPolyline
 90
2
 70
0
 10
26.999979
 20
-11.079991
 30
0.0
 10
14.291781
 20
-68.079944
 30
0.0
  0
SPLINE
  5
17f
100
AcDbEntity
  8
cut.innerBottom1
 62
1
100
AcDbSpline
 70
8
 71
3
 72
8
 73
4
 74
0
 40
0
 40
0
 40
0
 40
0
 40
1
 40
1
 40
1
 40
1
 10
372.999684
 20
-11.079991
 30
0.0
 10
371.999688
 20
-6.079994
 30
0.0
 10
368.999696
 20
-6.079994
 30
0.0
 10
364.999708
 20
-6.079994
 30
0.0
  0
SPLINE
  5
180
100
AcDbEntity
  8
cut.innerBottom1
 62
1
100
AcDbSpline
 70
8
 71
3
 72
8
 73
4
 74
0
 40
0
 40
0
 40
0
 40
0
 40
1
 40
1
 40
1
 40
1
 10
364.999708
 20
-6.079994
 30
0.0
 10
229.999805
 20
-18.079985
 30
0.0
 10
230.069963
 20
-37.079971
 30
0.0
 10
208.999824
 20
-37.079968
 30
0.0
  0
LWPOLYLINE
  5
181
100
AcDbEntity
  8
cut.innerBottom1
 62
1
100
AcDbPolyline
 90
2
 70
0
 10
192.499841
 20
-165.579862
 30
0.0
 10
207.499829
 20
-165.579862
 30
0.0
  0
LWPOLYLINE
  5
182
100
AcDbEntity
  8
cut.innerBottom1
 62
1
100
AcDbPolyline
 90
2
 70
0
 10
385.999674
 20
-68.079944
 30
0.0
 10
372.999684
 20
-11.079991
 30
0.0
  0
SPLINE
  5
183
100
AcDbEntity
  8
cut.innerBottom1
 62
1
100
AcDbSpline
 70
8
 71
3
 72
8
 73
4
 74
0
 40
0
 40
0
 40
0
 40
0
 40
1
 40
1
 40
1
 40
1
 10
149.261784
 20
-173.605351
 30
0.0
 10
149.261784
 20
-167.605348
 30
0.0
 10
134.261788
 20
-138.605371
 30
0.0
 10
89.261826
 20
-128.605379
 30
0.0
  0
SPLINE
  5
184
100
AcDbEntity
  8
cut.innerBottom1
 62
1
100
AcDbSpline
 70
8
 71
3
 72
8
 73
4
 74
0
 40
0
 40
0
 40
0
 40
0
 40
1
 40
1
 40
1
 40
1
 10
89.261826
 20
-128.605379
 30
0.0
 10
14.261891
 20
-108.605397
 30
0.0
 10
9.261894
 20
-123.605383
 30
0.0
 10
34.261874
 20
-138.605376
 30
0.0
  0
SPLINE
  5
185
100
AcDbEntity
  8
cut.innerBottom1
 62
1
100
AcDbSpline
 70
8
 71
3
 72
8
 73
4
 74
0
 40
0
 40
0
 40
0
 40
0
 40
1
 40
1
 40
1
 40
1
 10
34.261874
 20
-138.605376
 30
0.0
 10
49.261860
 20
-148.605363
 30
0.0
 10
39.390859
 20
-154.722308
 30
0.0
 10
49.576012
 20
-162.564721
 30
0.0
  0
SPLINE
  5
186
100
AcDbEntity
  8
cut.innerBottom1
 62
1
100
AcDbSpline
 70
8
 71
3
 72
8
 73
4
 74
0
 40
0
 40
0
 40
0
 40
0
 40
1
 40
1
 40
1
 40
1
 10
49.576012
 20
-162.564721
 30
0.0
 10
60.181026
 20
-170.730421
 30
0.0
 10
99.261818
 20
-203.605317
 30
0.0
 10
114.261806
 20
-176.969083
 30
0.0
  0
SPLINE
  5
187
100
AcDbEntity
  8
cut.innerBottom1
 62
1
100
AcDbSpline
 70
8
 71
3
 72
8
 73
4
 74
0
 40
0
 40
0
 40
0
 40
0
 40
1
 40
1
 40
1
 40
1
 10
114.261806
 20
-176.969083
 30
0.0
 10
119.261803
 20
-168.308838
 30
0.0
 10
149.261776
 20
-183.605334
 30
0.0
 10
149.261784
 20
-173.605351
 30
0.0
  0
SPLINE
  5
188
100
AcDbEntity
  8
cut.innerBottom1
 62
1
100
AcDbSpline
 70
8
 71
3
 72
8
 73
4
 74
0
 40
0
 40
0
 40
0
 40
0
 40
1
 40
1
 40
1
 40
1
 10
250.737881
 20
-173.605348
 30
0.0
 10
250.737881
 20
-167.605345
 30
0.0
 10
265.737885
 20
-138.605371
 30
0.0
 10
310.737859
 20
-128.605379
 30
0.0
  0
SPLINE
  5
189
100
AcDbEntity
  8
cut.innerBottom1
 62
1
100
AcDbSpline
 70
8
 71
3
 72
8
 73
4
 74
0
 40
0
 40
0
 40
0
 40
0
 40
1
 40
1
 40
1
 40
1
 10
310.737859
 20
-128.605379
 30
0.0
 10
385.737774
 20
-108.605397
 30
0.0
 10
390.737760
 20
-123.605383
 30
0.0
 10
365.737805
 20
-138.605376
 30
0.0
  0
SPLINE
  5
18a
100
AcDbEntity
  8
cut.innerBottom1
 62
1
100
AcDbSpline
 70
8
 71
3
 72
8
 73
4
 74
0
 40
0
 40
0
 40
0
 40
0
 40
1
 40
1
 40
1
 40
1
 10
365.737805
 20
-138.605376
 30
0.0
 10
350.737822
 20
-148.605360
 30
0.0
 10
360.608813
 20
-154.722306
 30
0.0
 10
350.423650
 20
-162.564719
 30
0.0
  0
SPLINE
  5
18b
100
AcDbEntity
  8
cut.innerBottom1
 62
1
100
AcDbSpline
 70
8
 71
3
 72
8
 73
4
 74
0
 40
0
 40
0
 40
0
 40
0
 40
1
 40
1
 40
1
 40
1
 10
350.423650
 20
-162.564719
 30
0.0
 10
339.818651
 20
-170.730421
 30
0.0
 10
300.737862
 20
-203.605315
 30
0.0
 10
285.737853
 20
-176.969080
 30
0.0
  0
SPLINE
  5
18c
100
AcDbEntity
  8
cut.innerBottom1
 62
1
100
AcDbSpline
 70
8
 71
3
 72
8
 73
4
 74
0
 40
0
 40
0
 40
0
 40
0
 40
1
 40
1
 40
1
 40
1
 10
285.737853
 20
-176.969080
 30
0.0
 10
280.737867
 20
-168.308836
 30
0.0
 10
250.737881
 20
-183.605330
 30
0.0
 10
250.737881
 20
-173.605348
 30
0.0
  0
LWPOLYLINE
  5
18d
100
AcDbEntity
  8
cut.innerBottom1
 62
1
100
AcDbPolyline
 90
2
 70
0
 10
208.999824
 20
-37.079968
 30
0.0
 10
208.999824
 20
-39.329967
 30
0.0
  0
ENDSEC
  0
SECTION
  2
OBJECTS
  0
DICTIONARY
  5
C
330
0
100
AcDbDictionary
  3
ACAD_GROUP
350
D
  3
ACAD_MLINESTYLE
350
17
  0
DICTIONARY
  5
D
330
C
100
AcDbDictionary
  0
DICTIONARY
  5
1A
330
C
100
AcDbDictionary
  0
DICTIONARY
  5
17
330
C
100
AcDbDictionary
  3
STANDARD
350
18
  0
DICTIONARY
  5
19
330
C
100
AcDbDictionary
  0
ENDSEC
  0
EOF
