  0
SECTION
  2
HEADER
  9
$ACADVER
  1
AC1009
  9
$EXTMIN
 10
0.0
 20
0.0
 30
0.0
  9
$EXTMAX
 10
100.0
 20
100.0
 30
0.0
  9
$INSBASE
 10
0.0
 20
0.0
 30
0.0
  0
ENDSEC
  0
SECTION
  2
TABLES
  0
TABLE
  2
LTYPE
 70
19
  0
LTYPE
  2
PHANTOM
 70
0
  3
Phantom ______  __  __  ______  __  __  ______
 72
65
 73
6
 40
2.5
 49
1.25
 49
-0.25
 49
0.25
 49
-0.25
 49
0.25
 49
-0.25
  0
LTYPE
  2
DOT2
 70
0
  3
Dot (.5) . . . . . . . . . . . . . . . . . . . 
 72
65
 73
2
 40
0.1
 49
0.0
 49
-0.1
  0
LTYPE
  2
DIVIDE
 70
0
  3
Divide __ . . __ . . __ . . __ . . __ . . __
 72
65
 73
6
 40
1.6
 49
1.0
 49
-0.2
 49
0.0
 49
-0.2
 49
0.0
 49
-0.2
  0
LTYPE
  2
DIVIDEX2
 70
0
  3
Divide (2x) ____  . .  ____  . .  ____  . .  ____
 72
65
 73
6
 40
2.6
 49
2.0
 49
-0.2
 49
0.0
 49
-0.2
 49
0.0
 49
-0.2
  0
LTYPE
  2
CENTER
 70
0
  3
Center ____ _ ____ _ ____ _ ____ _ ____ _ ____
 72
65
 73
4
 40
2.0
 49
1.25
 49
-0.25
 49
0.25
 49
-0.25
  0
LTYPE
  2
DASHDOT
 70
0
  3
Dash dot __ . __ . __ . __ . __ . __ . __ . __
 72
65
 73
4
 40
1.4
 49
1.0
 49
-0.2
 49
0.0
 49
-0.2
  0
LTYPE
  2
CENTERX2
 70
0
  3
Center (2x) ________  __  ________  __  ________
 72
65
 73
4
 40
3.5
 49
2.5
 49
-0.25
 49
0.5
 49
-0.25
  0
LTYPE
  2
PHANTOMX2
 70
0
  3
Phantom (2x)____________    ____    ____    ____________
 72
65
 73
6
 40
4.25
 49
2.5
 49
-0.25
 49
0.5
 49
-0.25
 49
0.5
 49
-0.25
  0
LTYPE
  2
CONTINUOUS
 70
0
  3
Solid
 72
65
 73
0
 40
0.0
  0
LTYPE
  2
PHANTOM2
 70
0
  3
Phantom (.5x) ___ _ _ ___ _ _ ___ _ _ ___ _ _ ___
 72
65
 73
6
 40
1.25
 49
0.625
 49
-0.125
 49
0.125
 49
-0.125
 49
0.125
 49
-0.125
  0
LTYPE
  2
DASHED
 70
0
  3
Dashed __ __ __ __ __ __ __ __ __ __ __ __ __ _
 72
65
 73
2
 40
0.6
 49
0.5
 49
-0.1
  0
LTYPE
  2
DASHED2
 70
0
  3
Dashed (.5x) _ _ _ _ _ _ _ _ _ _ _ _ _ _
 72
65
 73
2
 40
0.3
 49
0.25
 49
-0.05
  0
LTYPE
  2
DASHDOT2
 70
0
  3
Dash dot (.5x) _ . _ . _ . _ . _ . _ . _ . _
 72
65
 73
4
 40
0.7
 49
0.5
 49
-0.1
 49
0.0
 49
-0.1
  0
LTYPE
  2
DOTX2
 70
0
  3
Dot (2x) .    .    .    .    .    .    .    . 
 72
65
 73
2
 40
0.4
 49
0.0
 49
-0.4
  0
LTYPE
  2
DIVIDE2
 70
0
  3
Divide(.5x) _ . _ . _ . _ . _ . _ . _ . _
 72
65
 73
6
 40
0.8
 49
0.5
 49
-0.1
 49
0.0
 49
-0.1
 49
0.0
 49
-0.1
  0
LTYPE
  2
CENTER2
 70
0
  3
Center (.5x) ____ _ ____ _ ____ _ ____ _ ____
 72
65
 73
4
 40
1.0
 49
0.625
 49
-0.125
 49
0.125
 49
-0.125
  0
LTYPE
  2
DASHDOTX2
 70
0
  3
Dash dot (2x) ____  .  ____  .  ____  .  ____
 72
65
 73
4
 40
2.4
 49
2.0
 49
-0.2
 49
0.0
 49
-0.2
  0
LTYPE
  2
DOT
 70
0
  3
Dot .  .  .  .  .  .  .  .  .  .  .  .  .  .  .  .
 72
65
 73
2
 40
0.2
 49
0.0
 49
-0.2
  0
LTYPE
  2
DASHEDX2
 70
0
  3
Dashed (2x) ____  ____  ____  ____  ____  ____
 72
65
 73
2
 40
1.2
 49
1.0
 49
-0.2
  0
ENDTAB
  0
TABLE
  2
LAYER
 70
5
  0
LAYER
  2
VIEWPORTS
 70
0
 62
7
  6
CONTINUOUS
  0
LAYER
  2
TABLEGRID
 70
0
 62
1
  6
CONTINUOUS
  0
LAYER
  2
TABLECONTENT
 70
0
 62
1
  6
CONTINUOUS
  0
LAYER
  2
DIMENSIONS
 70
0
 62
1
  6
CONTINUOUS
  0
LAYER
  2
TABLEBACKGROUND
 70
0
 62
1
  6
CONTINUOUS
  0
ENDTAB
  0
TABLE
  2
STYLE
 70
12
  0
STYLE
  2
TIMES
 70
0
 40
0.0
 41
1.0
 42
1.0
 50
0.0
 71
0
  3
times.ttf
  4

  0
STYLE
  2
ARIAL
 70
0
 40
0.0
 41
1.0
 42
1.0
 50
0.0
 71
0
  3
arial.ttf
  4

  0
STYLE
  2
TIMES_BOLD
 70
0
 40
0.0
 41
1.0
 42
1.0
 50
0.0
 71
0
  3
timesbd.ttf
  4

  0
STYLE
  2
ARIAL_BLACK
 70
0
 40
0.0
 41
1.0
 42
1.0
 50
0.0
 71
0
  3
ariblk.ttf
  4

  0
STYLE
  2
TIMES_ITALIC
 70
0
 40
0.0
 41
1.0
 42
1.0
 50
0.0
 71
0
  3
timesi.ttf
  4

  0
STYLE
  2
ISOCPEUR
 70
0
 40
0.0
 41
1.0
 42
1.0
 50
0.0
 71
0
  3
isocpeur.ttf
  4

  0
STYLE
  2
ARIAL_BOLD
 70
0
 40
0.0
 41
1.0
 42
1.0
 50
0.0
 71
0
  3
arialbd.ttf
  4

  0
STYLE
  2
ARIAL_ITALIC
 70
0
 40
0.0
 41
1.0
 42
1.0
 50
0.0
 71
0
  3
ariali.ttf
  4

  0
STYLE
  2
ARIAL_BOLD_ITALIC
 70
0
 40
0.0
 41
1.0
 42
1.0
 50
0.0
 71
0
  3
arialbi.ttf
  4

  0
STYLE
  2
TIMES_BOLD_ITALIC
 70
0
 40
0.0
 41
1.0
 42
1.0
 50
0.0
 71
0
  3
timesbi.ttf
  4

  0
STYLE
  2
ISOCPEUR_ITALIC
 70
0
 40
0.0
 41
1.0
 42
1.0
 50
0.0
 71
0
  3
isocpeui.ttf
  4

  0
STYLE
  2
STANDARD
 70
0
 40
0.0
 41
1.0
 42
1.0
 50
0.0
 71
0
  3
arial.ttf
  4

  0
ENDTAB
  0
TABLE
  2
VIEW
 70
0
  0
ENDTAB
  0
TABLE
  2
APPID
 70
1
  0
APPID
  2
DXFWRITE
 70
0
  0
ENDTAB
  0
TABLE
  2
VPORT
 70
0
  0
ENDTAB
  0
TABLE
  2
UCS
 70
0
  0
ENDTAB
  0
ENDSEC
  0
SECTION
  2
BLOCKS
  0
BLOCK
  8
0
  2
cherry_8
  3
cherry_8
 70
0
 10
0.0
 20
0.0
 30
0.0
  0
POLYLINE
  8
0
 66
1
 10
0.0
 20
0.0
 30
0.0
 70
8
  0
VERTEX
  8
0
 10
-7.0
 20
3.3
 30
0.0
  0
VERTEX
  8
0
 10
-8.0
 20
3.3
 30
0.0
  0
VERTEX
  8
0
 10
-8.0
 20
7.0
 30
0.0
  0
VERTEX
  8
0
 10
8.0
 20
7.0
 30
0.0
  0
VERTEX
  8
0
 10
8.0
 20
3.3
 30
0.0
  0
VERTEX
  8
0
 10
7.0
 20
3.3
 30
0.0
  0
VERTEX
  8
0
 10
7.0
 20
-3.3
 30
0.0
  0
VERTEX
  8
0
 10
8.0
 20
-3.3
 30
0.0
  0
VERTEX
  8
0
 10
8.0
 20
-7.0
 30
0.0
  0
VERTEX
  8
0
 10
-8.0
 20
-7.0
 30
0.0
  0
VERTEX
  8
0
 10
-8.0
 20
-3.3
 30
0.0
  0
VERTEX
  8
0
 10
-7.0
 20
-3.3
 30
0.0
  0
VERTEX
  8
0
 10
-7.0
 20
3.3
 30
0.0
  0
SEQEND
  0
ENDBLK
  0
BLOCK
  8
0
  2
cherry_9
  3
cherry_9
 70
0
 10
0.0
 20
0.0
 30
0.0
  0
POLYLINE
  8
0
 66
1
 10
0.0
 20
0.0
 30
0.0
 70
8
  0
VERTEX
  8
0
 10
-7.05
 20
3.35
 30
0.0
  0
VERTEX
  8
0
 10
-8.05
 20
3.35
 30
0.0
  0
VERTEX
  8
0
 10
-8.05
 20
7.05
 30
0.0
  0
VERTEX
  8
0
 10
8.05
 20
7.05
 30
0.0
  0
VERTEX
  8
0
 10
8.05
 20
3.35
 30
0.0
  0
VERTEX
  8
0
 10
7.05
 20
3.35
 30
0.0
  0
VERTEX
  8
0
 10
7.05
 20
-3.35
 30
0.0
  0
VERTEX
  8
0
 10
8.05
 20
-3.35
 30
0.0
  0
VERTEX
  8
0
 10
8.05
 20
-7.05
 30
0.0
  0
VERTEX
  8
0
 10
-8.05
 20
-7.05
 30
0.0
  0
VERTEX
  8
0
 10
-8.05
 20
-3.35
 30
0.0
  0
VERTEX
  8
0
 10
-7.05
 20
-3.35
 30
0.0
  0
VERTEX
  8
0
 10
-7.05
 20
3.35
 30
0.0
  0
SEQEND
  0
ENDBLK
  0
BLOCK
  8
0
  2
cherry_6
  3
cherry_6
 70
0
 10
0.0
 20
0.0
 30
0.0
  0
POLYLINE
  8
0
 66
1
 10
0.0
 20
0.0
 30
0.0
 70
8
  0
VERTEX
  8
0
 10
-6.9
 20
3.2
 30
0.0
  0
VERTEX
  8
0
 10
-7.9
 20
3.2
 30
0.0
  0
VERTEX
  8
0
 10
-7.9
 20
6.9
 30
0.0
  0
VERTEX
  8
0
 10
7.9
 20
6.9
 30
0.0
  0
VERTEX
  8
0
 10
7.9
 20
3.2
 30
0.0
  0
VERTEX
  8
0
 10
6.9
 20
3.2
 30
0.0
  0
VERTEX
  8
0
 10
6.9
 20
-3.2
 30
0.0
  0
VERTEX
  8
0
 10
7.9
 20
-3.2
 30
0.0
  0
VERTEX
  8
0
 10
7.9
 20
-6.9
 30
0.0
  0
VERTEX
  8
0
 10
-7.9
 20
-6.9
 30
0.0
  0
VERTEX
  8
0
 10
-7.9
 20
-3.2
 30
0.0
  0
VERTEX
  8
0
 10
-6.9
 20
-3.2
 30
0.0
  0
VERTEX
  8
0
 10
-6.9
 20
3.2
 30
0.0
  0
SEQEND
  0
ENDBLK
  0
BLOCK
  8
0
  2
cherry_7
  3
cherry_7
 70
0
 10
0.0
 20
0.0
 30
0.0
  0
POLYLINE
  8
0
 66
1
 10
0.0
 20
0.0
 30
0.0
 70
8
  0
VERTEX
  8
0
 10
-6.95
 20
3.25
 30
0.0
  0
VERTEX
  8
0
 10
-7.95
 20
3.25
 30
0.0
  0
VERTEX
  8
0
 10
-7.95
 20
6.95
 30
0.0
  0
VERTEX
  8
0
 10
7.95
 20
6.95
 30
0.0
  0
VERTEX
  8
0
 10
7.95
 20
3.25
 30
0.0
  0
VERTEX
  8
0
 10
6.95
 20
3.25
 30
0.0
  0
VERTEX
  8
0
 10
6.95
 20
-3.25
 30
0.0
  0
VERTEX
  8
0
 10
7.95
 20
-3.25
 30
0.0
  0
VERTEX
  8
0
 10
7.95
 20
-6.95
 30
0.0
  0
VERTEX
  8
0
 10
-7.95
 20
-6.95
 30
0.0
  0
VERTEX
  8
0
 10
-7.95
 20
-3.25
 30
0.0
  0
VERTEX
  8
0
 10
-6.95
 20
-3.25
 30
0.0
  0
VERTEX
  8
0
 10
-6.95
 20
3.25
 30
0.0
  0
SEQEND
  0
ENDBLK
  0
BLOCK
  8
0
  2
cherry_4
  3
cherry_4
 70
0
 10
0.0
 20
0.0
 30
0.0
  0
POLYLINE
  8
0
 66
1
 10
0.0
 20
0.0
 30
0.0
 70
8
  0
VERTEX
  8
0
 10
-6.8
 20
3.1
 30
0.0
  0
VERTEX
  8
0
 10
-7.8
 20
3.1
 30
0.0
  0
VERTEX
  8
0
 10
-7.8
 20
6.8
 30
0.0
  0
VERTEX
  8
0
 10
7.8
 20
6.8
 30
0.0
  0
VERTEX
  8
0
 10
7.8
 20
3.1
 30
0.0
  0
VERTEX
  8
0
 10
6.8
 20
3.1
 30
0.0
  0
VERTEX
  8
0
 10
6.8
 20
-3.1
 30
0.0
  0
VERTEX
  8
0
 10
7.8
 20
-3.1
 30
0.0
  0
VERTEX
  8
0
 10
7.8
 20
-6.8
 30
0.0
  0
VERTEX
  8
0
 10
-7.8
 20
-6.8
 30
0.0
  0
VERTEX
  8
0
 10
-7.8
 20
-3.1
 30
0.0
  0
VERTEX
  8
0
 10
-6.8
 20
-3.1
 30
0.0
  0
VERTEX
  8
0
 10
-6.8
 20
3.1
 30
0.0
  0
SEQEND
  0
ENDBLK
  0
BLOCK
  8
0
  2
cherry_5
  3
cherry_5
 70
0
 10
0.0
 20
0.0
 30
0.0
  0
POLYLINE
  8
0
 66
1
 10
0.0
 20
0.0
 30
0.0
 70
8
  0
VERTEX
  8
0
 10
-6.85
 20
3.15
 30
0.0
  0
VERTEX
  8
0
 10
-7.85
 20
3.15
 30
0.0
  0
VERTEX
  8
0
 10
-7.85
 20
6.85
 30
0.0
  0
VERTEX
  8
0
 10
7.85
 20
6.85
 30
0.0
  0
VERTEX
  8
0
 10
7.85
 20
3.15
 30
0.0
  0
VERTEX
  8
0
 10
6.85
 20
3.15
 30
0.0
  0
VERTEX
  8
0
 10
6.85
 20
-3.15
 30
0.0
  0
VERTEX
  8
0
 10
7.85
 20
-3.15
 30
0.0
  0
VERTEX
  8
0
 10
7.85
 20
-6.85
 30
0.0
  0
VERTEX
  8
0
 10
-7.85
 20
-6.85
 30
0.0
  0
VERTEX
  8
0
 10
-7.85
 20
-3.15
 30
0.0
  0
VERTEX
  8
0
 10
-6.85
 20
-3.15
 30
0.0
  0
VERTEX
  8
0
 10
-6.85
 20
3.15
 30
0.0
  0
SEQEND
  0
ENDBLK
  0
BLOCK
  8
0
  2
cherry_2
  3
cherry_2
 70
0
 10
0.0
 20
0.0
 30
0.0
  0
POLYLINE
  8
0
 66
1
 10
0.0
 20
0.0
 30
0.0
 70
8
  0
VERTEX
  8
0
 10
-6.7
 20
3.0
 30
0.0
  0
VERTEX
  8
0
 10
-7.7
 20
3.0
 30
0.0
  0
VERTEX
  8
0
 10
-7.7
 20
6.7
 30
0.0
  0
VERTEX
  8
0
 10
7.7
 20
6.7
 30
0.0
  0
VERTEX
  8
0
 10
7.7
 20
3.0
 30
0.0
  0
VERTEX
  8
0
 10
6.7
 20
3.0
 30
0.0
  0
VERTEX
  8
0
 10
6.7
 20
-3.0
 30
0.0
  0
VERTEX
  8
0
 10
7.7
 20
-3.0
 30
0.0
  0
VERTEX
  8
0
 10
7.7
 20
-6.7
 30
0.0
  0
VERTEX
  8
0
 10
-7.7
 20
-6.7
 30
0.0
  0
VERTEX
  8
0
 10
-7.7
 20
-3.0
 30
0.0
  0
VERTEX
  8
0
 10
-6.7
 20
-3.0
 30
0.0
  0
VERTEX
  8
0
 10
-6.7
 20
3.0
 30
0.0
  0
SEQEND
  0
ENDBLK
  0
BLOCK
  8
0
  2
cherry_3
  3
cherry_3
 70
0
 10
0.0
 20
0.0
 30
0.0
  0
POLYLINE
  8
0
 66
1
 10
0.0
 20
0.0
 30
0.0
 70
8
  0
VERTEX
  8
0
 10
-6.75
 20
3.05
 30
0.0
  0
VERTEX
  8
0
 10
-7.75
 20
3.05
 30
0.0
  0
VERTEX
  8
0
 10
-7.75
 20
6.75
 30
0.0
  0
VERTEX
  8
0
 10
7.75
 20
6.75
 30
0.0
  0
VERTEX
  8
0
 10
7.75
 20
3.05
 30
0.0
  0
VERTEX
  8
0
 10
6.75
 20
3.05
 30
0.0
  0
VERTEX
  8
0
 10
6.75
 20
-3.05
 30
0.0
  0
VERTEX
  8
0
 10
7.75
 20
-3.05
 30
0.0
  0
VERTEX
  8
0
 10
7.75
 20
-6.75
 30
0.0
  0
VERTEX
  8
0
 10
-7.75
 20
-6.75
 30
0.0
  0
VERTEX
  8
0
 10
-7.75
 20
-3.05
 30
0.0
  0
VERTEX
  8
0
 10
-6.75
 20
-3.05
 30
0.0
  0
VERTEX
  8
0
 10
-6.75
 20
3.05
 30
0.0
  0
SEQEND
  0
ENDBLK
  0
BLOCK
  8
0
  2
cherry_0
  3
cherry_0
 70
0
 10
0.0
 20
0.0
 30
0.0
  0
POLYLINE
  8
0
 66
1
 10
0.0
 20
0.0
 30
0.0
 70
8
  0
VERTEX
  8
0
 10
-6.6
 20
2.9
 30
0.0
  0
VERTEX
  8
0
 10
-7.6
 20
2.9
 30
0.0
  0
VERTEX
  8
0
 10
-7.6
 20
6.6
 30
0.0
  0
VERTEX
  8
0
 10
7.6
 20
6.6
 30
0.0
  0
VERTEX
  8
0
 10
7.6
 20
2.9
 30
0.0
  0
VERTEX
  8
0
 10
6.6
 20
2.9
 30
0.0
  0
VERTEX
  8
0
 10
6.6
 20
-2.9
 30
0.0
  0
VERTEX
  8
0
 10
7.6
 20
-2.9
 30
0.0
  0
VERTEX
  8
0
 10
7.6
 20
-6.6
 30
0.0
  0
VERTEX
  8
0
 10
-7.6
 20
-6.6
 30
0.0
  0
VERTEX
  8
0
 10
-7.6
 20
-2.9
 30
0.0
  0
VERTEX
  8
0
 10
-6.6
 20
-2.9
 30
0.0
  0
VERTEX
  8
0
 10
-6.6
 20
2.9
 30
0.0
  0
SEQEND
  0
ENDBLK
  0
BLOCK
  8
0
  2
cherry_1
  3
cherry_1
 70
0
 10
0.0
 20
0.0
 30
0.0
  0
POLYLINE
  8
0
 66
1
 10
0.0
 20
0.0
 30
0.0
 70
8
  0
VERTEX
  8
0
 10
-6.65
 20
2.95
 30
0.0
  0
VERTEX
  8
0
 10
-7.65
 20
2.95
 30
0.0
  0
VERTEX
  8
0
 10
-7.65
 20
6.65
 30
0.0
  0
VERTEX
  8
0
 10
7.65
 20
6.65
 30
0.0
  0
VERTEX
  8
0
 10
7.65
 20
2.95
 30
0.0
  0
VERTEX
  8
0
 10
6.65
 20
2.95
 30
0.0
  0
VERTEX
  8
0
 10
6.65
 20
-2.95
 30
0.0
  0
VERTEX
  8
0
 10
7.65
 20
-2.95
 30
0.0
  0
VERTEX
  8
0
 10
7.65
 20
-6.65
 30
0.0
  0
VERTEX
  8
0
 10
-7.65
 20
-6.65
 30
0.0
  0
VERTEX
  8
0
 10
-7.65
 20
-2.95
 30
0.0
  0
VERTEX
  8
0
 10
-6.65
 20
-2.95
 30
0.0
  0
VERTEX
  8
0
 10
-6.65
 20
2.95
 30
0.0
  0
SEQEND
  0
ENDBLK
  0
BLOCK
  8
0
  2
m7_9
  3
m7_9
 70
0
 10
0.0
 20
0.0
 30
0.0
  0
CIRCLE
  8
0
 10
0.0
 20
0.0
 30
0.0
 40
4.1
  0
ENDBLK
  0
BLOCK
  8
0
  2
m7_8
  3
m7_8
 70
0
 10
0.0
 20
0.0
 30
0.0
  0
CIRCLE
  8
0
 10
0.0
 20
0.0
 30
0.0
 40
3.95
  0
ENDBLK
  0
BLOCK
  8
0
  2
m7_1
  3
m7_1
 70
0
 10
0.0
 20
0.0
 30
0.0
  0
CIRCLE
  8
0
 10
0.0
 20
0.0
 30
0.0
 40
2.9
  0
ENDBLK
  0
BLOCK
  8
0
  2
m7_0
  3
m7_0
 70
0
 10
0.0
 20
0.0
 30
0.0
  0
CIRCLE
  8
0
 10
0.0
 20
0.0
 30
0.0
 40
2.75
  0
ENDBLK
  0
BLOCK
  8
0
  2
m7_3
  3
m7_3
 70
0
 10
0.0
 20
0.0
 30
0.0
  0
CIRCLE
  8
0
 10
0.0
 20
0.0
 30
0.0
 40
3.2
  0
ENDBLK
  0
BLOCK
  8
0
  2
m7_2
  3
m7_2
 70
0
 10
0.0
 20
0.0
 30
0.0
  0
CIRCLE
  8
0
 10
0.0
 20
0.0
 30
0.0
 40
3.05
  0
ENDBLK
  0
BLOCK
  8
0
  2
m7_5
  3
m7_5
 70
0
 10
0.0
 20
0.0
 30
0.0
  0
CIRCLE
  8
0
 10
0.0
 20
0.0
 30
0.0
 40
3.5
  0
ENDBLK
  0
BLOCK
  8
0
  2
m7_4
  3
m7_4
 70
0
 10
0.0
 20
0.0
 30
0.0
  0
CIRCLE
  8
0
 10
0.0
 20
0.0
 30
0.0
 40
3.35
  0
ENDBLK
  0
BLOCK
  8
0
  2
m7_7
  3
m7_7
 70
0
 10
0.0
 20
0.0
 30
0.0
  0
CIRCLE
  8
0
 10
0.0
 20
0.0
 30
0.0
 40
3.8
  0
ENDBLK
  0
BLOCK
  8
0
  2
m7_6
  3
m7_6
 70
0
 10
0.0
 20
0.0
 30
0.0
  0
CIRCLE
  8
0
 10
0.0
 20
0.0
 30
0.0
 40
3.65
  0
ENDBLK
  0
BLOCK
  8
0
  2
alps_9
  3
alps_9
 70
0
 10
0.0
 20
0.0
 30
0.0
  0
POLYLINE
  8
0
 66
1
 10
0.0
 20
0.0
 30
0.0
 70
8
  0
VERTEX
  8
0
 10
-7.7
 20
-6.35
 30
0.0
  0
VERTEX
  8
0
 10
7.7
 20
-6.35
 30
0.0
  0
VERTEX
  8
0
 10
7.7
 20
6.35
 30
0.0
  0
VERTEX
  8
0
 10
-7.7
 20
6.35
 30
0.0
  0
VERTEX
  8
0
 10
-7.7
 20
-6.35
 30
0.0
  0
SEQEND
  0
ENDBLK
  0
BLOCK
  8
0
  2
alps_8
  3
alps_8
 70
0
 10
0.0
 20
0.0
 30
0.0
  0
POLYLINE
  8
0
 66
1
 10
0.0
 20
0.0
 30
0.0
 70
8
  0
VERTEX
  8
0
 10
-7.65
 20
-6.3
 30
0.0
  0
VERTEX
  8
0
 10
7.65
 20
-6.3
 30
0.0
  0
VERTEX
  8
0
 10
7.65
 20
6.3
 30
0.0
  0
VERTEX
  8
0
 10
-7.65
 20
6.3
 30
0.0
  0
VERTEX
  8
0
 10
-7.65
 20
-6.3
 30
0.0
  0
SEQEND
  0
ENDBLK
  0
BLOCK
  8
0
  2
alps_7
  3
alps_7
 70
0
 10
0.0
 20
0.0
 30
0.0
  0
POLYLINE
  8
0
 66
1
 10
0.0
 20
0.0
 30
0.0
 70
8
  0
VERTEX
  8
0
 10
-7.6
 20
-6.25
 30
0.0
  0
VERTEX
  8
0
 10
7.6
 20
-6.25
 30
0.0
  0
VERTEX
  8
0
 10
7.6
 20
6.25
 30
0.0
  0
VERTEX
  8
0
 10
-7.6
 20
6.25
 30
0.0
  0
VERTEX
  8
0
 10
-7.6
 20
-6.25
 30
0.0
  0
SEQEND
  0
ENDBLK
  0
BLOCK
  8
0
  2
alps_6
  3
alps_6
 70
0
 10
0.0
 20
0.0
 30
0.0
  0
POLYLINE
  8
0
 66
1
 10
0.0
 20
0.0
 30
0.0
 70
8
  0
VERTEX
  8
0
 10
-7.55
 20
-6.2
 30
0.0
  0
VERTEX
  8
0
 10
7.55
 20
-6.2
 30
0.0
  0
VERTEX
  8
0
 10
7.55
 20
6.2
 30
0.0
  0
VERTEX
  8
0
 10
-7.55
 20
6.2
 30
0.0
  0
VERTEX
  8
0
 10
-7.55
 20
-6.2
 30
0.0
  0
SEQEND
  0
ENDBLK
  0
BLOCK
  8
0
  2
alps_5
  3
alps_5
 70
0
 10
0.0
 20
0.0
 30
0.0
  0
POLYLINE
  8
0
 66
1
 10
0.0
 20
0.0
 30
0.0
 70
8
  0
VERTEX
  8
0
 10
-7.5
 20
-6.15
 30
0.0
  0
VERTEX
  8
0
 10
7.5
 20
-6.15
 30
0.0
  0
VERTEX
  8
0
 10
7.5
 20
6.15
 30
0.0
  0
VERTEX
  8
0
 10
-7.5
 20
6.15
 30
0.0
  0
VERTEX
  8
0
 10
-7.5
 20
-6.15
 30
0.0
  0
SEQEND
  0
ENDBLK
  0
BLOCK
  8
0
  2
alps_4
  3
alps_4
 70
0
 10
0.0
 20
0.0
 30
0.0
  0
POLYLINE
  8
0
 66
1
 10
0.0
 20
0.0
 30
0.0
 70
8
  0
VERTEX
  8
0
 10
-7.45
 20
-6.1
 30
0.0
  0
VERTEX
  8
0
 10
7.45
 20
-6.1
 30
0.0
  0
VERTEX
  8
0
 10
7.45
 20
6.1
 30
0.0
  0
VERTEX
  8
0
 10
-7.45
 20
6.1
 30
0.0
  0
VERTEX
  8
0
 10
-7.45
 20
-6.1
 30
0.0
  0
SEQEND
  0
ENDBLK
  0
BLOCK
  8
0
  2
alps_3
  3
alps_3
 70
0
 10
0.0
 20
0.0
 30
0.0
  0
POLYLINE
  8
0
 66
1
 10
0.0
 20
0.0
 30
0.0
 70
8
  0
VERTEX
  8
0
 10
-7.4
 20
-6.05
 30
0.0
  0
VERTEX
  8
0
 10
7.4
 20
-6.05
 30
0.0
  0
VERTEX
  8
0
 10
7.4
 20
6.05
 30
0.0
  0
VERTEX
  8
0
 10
-7.4
 20
6.05
 30
0.0
  0
VERTEX
  8
0
 10
-7.4
 20
-6.05
 30
0.0
  0
SEQEND
  0
ENDBLK
  0
BLOCK
  8
0
  2
alps_2
  3
alps_2
 70
0
 10
0.0
 20
0.0
 30
0.0
  0
POLYLINE
  8
0
 66
1
 10
0.0
 20
0.0
 30
0.0
 70
8
  0
VERTEX
  8
0
 10
-7.35
 20
-6.0
 30
0.0
  0
VERTEX
  8
0
 10
7.35
 20
-6.0
 30
0.0
  0
VERTEX
  8
0
 10
7.35
 20
6.0
 30
0.0
  0
VERTEX
  8
0
 10
-7.35
 20
6.0
 30
0.0
  0
VERTEX
  8
0
 10
-7.35
 20
-6.0
 30
0.0
  0
SEQEND
  0
ENDBLK
  0
BLOCK
  8
0
  2
alps_1
  3
alps_1
 70
0
 10
0.0
 20
0.0
 30
0.0
  0
POLYLINE
  8
0
 66
1
 10
0.0
 20
0.0
 30
0.0
 70
8
  0
VERTEX
  8
0
 10
-7.3
 20
-5.95
 30
0.0
  0
VERTEX
  8
0
 10
7.3
 20
-5.95
 30
0.0
  0
VERTEX
  8
0
 10
7.3
 20
5.95
 30
0.0
  0
VERTEX
  8
0
 10
-7.3
 20
5.95
 30
0.0
  0
VERTEX
  8
0
 10
-7.3
 20
-5.95
 30
0.0
  0
SEQEND
  0
ENDBLK
  0
BLOCK
  8
0
  2
alps_0
  3
alps_0
 70
0
 10
0.0
 20
0.0
 30
0.0
  0
POLYLINE
  8
0
 66
1
 10
0.0
 20
0.0
 30
0.0
 70
8
  0
VERTEX
  8
0
 10
-7.25
 20
-5.9
 30
0.0
  0
VERTEX
  8
0
 10
7.25
 20
-5.9
 30
0.0
  0
VERTEX
  8
0
 10
7.25
 20
5.9
 30
0.0
  0
VERTEX
  8
0
 10
-7.25
 20
5.9
 30
0.0
  0
VERTEX
  8
0
 10
-7.25
 20
-5.9
 30
0.0
  0
SEQEND
  0
ENDBLK
  0
BLOCK
  8
0
  2
m3_9
  3
m3_9
 70
0
 10
0.0
 20
0.0
 30
0.0
  0
CIRCLE
  8
0
 10
0.0
 20
0.0
 30
0.0
 40
1.8
  0
ENDBLK
  0
BLOCK
  8
0
  2
m3_8
  3
m3_8
 70
0
 10
0.0
 20
0.0
 30
0.0
  0
CIRCLE
  8
0
 10
0.0
 20
0.0
 30
0.0
 40
1.75
  0
ENDBLK
  0
BLOCK
  8
0
  2
m3_5
  3
m3_5
 70
0
 10
0.0
 20
0.0
 30
0.0
  0
CIRCLE
  8
0
 10
0.0
 20
0.0
 30
0.0
 40
1.6
  0
ENDBLK
  0
BLOCK
  8
0
  2
m3_4
  3
m3_4
 70
0
 10
0.0
 20
0.0
 30
0.0
  0
CIRCLE
  8
0
 10
0.0
 20
0.0
 30
0.0
 40
1.55
  0
ENDBLK
  0
BLOCK
  8
0
  2
m3_7
  3
m3_7
 70
0
 10
0.0
 20
0.0
 30
0.0
  0
CIRCLE
  8
0
 10
0.0
 20
0.0
 30
0.0
 40
1.7
  0
ENDBLK
  0
BLOCK
  8
0
  2
m3_6
  3
m3_6
 70
0
 10
0.0
 20
0.0
 30
0.0
  0
CIRCLE
  8
0
 10
0.0
 20
0.0
 30
0.0
 40
1.65
  0
ENDBLK
  0
BLOCK
  8
0
  2
m3_1
  3
m3_1
 70
0
 10
0.0
 20
0.0
 30
0.0
  0
CIRCLE
  8
0
 10
0.0
 20
0.0
 30
0.0
 40
1.4
  0
ENDBLK
  0
BLOCK
  8
0
  2
m3_0
  3
m3_0
 70
0
 10
0.0
 20
0.0
 30
0.0
  0
CIRCLE
  8
0
 10
0.0
 20
0.0
 30
0.0
 40
1.35
  0
ENDBLK
  0
BLOCK
  8
0
  2
m3_3
  3
m3_3
 70
0
 10
0.0
 20
0.0
 30
0.0
  0
CIRCLE
  8
0
 10
0.0
 20
0.0
 30
0.0
 40
1.5
  0
ENDBLK
  0
BLOCK
  8
0
  2
m3_2
  3
m3_2
 70
0
 10
0.0
 20
0.0
 30
0.0
  0
CIRCLE
  8
0
 10
0.0
 20
0.0
 30
0.0
 40
1.45
  0
ENDBLK
  0
ENDSEC
  0
SECTION
  2
ENTITIES
  0
VIEWPORT
  8
VIEWPORTS
 67
1
 10
0.0
 20
0.0
 30
0.0
 40
1.0
 41
1.0
 68
1
 69
1
1001
ACAD
1000
MVIEW
1002
{
1070
16
1010
0.0
1020
0.0
1030
0.0
1010
0.0
1020
0.0
1030
0.0
1040
0.0
1040
1.0
1040
0.0
1040
0.0
1040
50.0
1040
0.0
1040
0.0
1070
0
1070
100
1070
1
1070
3
1070
0
1070
0
1070
0
1070
0
1040
0.0
1040
0.0
1040
0.0
1040
0.1
1040
0.1
1040
0.1
1040
0.1
1070
0
1002
{
1002
}
1002
}
  0
INSERT
 62
256
  8
0
  2
cherry_0
 10
10.0
 20
10.0
 30
0.0
 50
0.0
  0
INSERT
 62
256
  8
0
  2
cherry_1
 10
10.0
 20
28.0
 30
0.0
 50
0.0
  0
INSERT
 62
256
  8
0
  2
cherry_2
 10
10.0
 20
46.0
 30
0.0
 50
0.0
  0
INSERT
 62
256
  8
0
  2
cherry_3
 10
10.0
 20
64.0
 30
0.0
 50
0.0
  0
INSERT
 62
256
  8
0
  2
cherry_4
 10
10.0
 20
82.0
 30
0.0
 50
0.0
  0
INSERT
 62
256
  8
0
  2
cherry_5
 10
10.0
 20
100.0
 30
0.0
 50
0.0
  0
INSERT
 62
256
  8
0
  2
cherry_6
 10
10.0
 20
118.0
 30
0.0
 50
0.0
  0
INSERT
 62
256
  8
0
  2
cherry_7
 10
10.0
 20
136.0
 30
0.0
 50
0.0
  0
INSERT
 62
256
  8
0
  2
cherry_8
 10
10.0
 20
154.0
 30
0.0
 50
0.0
  0
INSERT
 62
256
  8
0
  2
cherry_9
 10
10.0
 20
172.0
 30
0.0
 50
0.0
  0
INSERT
 62
256
  8
0
  2
alps_0
 10
30.0
 20
10.0
 30
0.0
 50
0.0
  0
INSERT
 62
256
  8
0
  2
alps_1
 10
30.0
 20
28.0
 30
0.0
 50
0.0
  0
INSERT
 62
256
  8
0
  2
alps_2
 10
30.0
 20
46.0
 30
0.0
 50
0.0
  0
INSERT
 62
256
  8
0
  2
alps_3
 10
30.0
 20
64.0
 30
0.0
 50
0.0
  0
INSERT
 62
256
  8
0
  2
alps_4
 10
30.0
 20
82.0
 30
0.0
 50
0.0
  0
INSERT
 62
256
  8
0
  2
alps_5
 10
30.0
 20
100.0
 30
0.0
 50
0.0
  0
INSERT
 62
256
  8
0
  2
alps_6
 10
30.0
 20
118.0
 30
0.0
 50
0.0
  0
INSERT
 62
256
  8
0
  2
alps_7
 10
30.0
 20
136.0
 30
0.0
 50
0.0
  0
INSERT
 62
256
  8
0
  2
alps_8
 10
30.0
 20
154.0
 30
0.0
 50
0.0
  0
INSERT
 62
256
  8
0
  2
alps_9
 10
30.0
 20
172.0
 30
0.0
 50
0.0
  0
INSERT
 62
256
  8
0
  2
m7_0
 10
45.0
 20
10.0
 30
0.0
 50
0.0
  0
INSERT
 62
256
  8
0
  2
m7_1
 10
45.0
 20
28.0
 30
0.0
 50
0.0
  0
INSERT
 62
256
  8
0
  2
m7_2
 10
45.0
 20
46.0
 30
0.0
 50
0.0
  0
INSERT
 62
256
  8
0
  2
m7_3
 10
45.0
 20
64.0
 30
0.0
 50
0.0
  0
INSERT
 62
256
  8
0
  2
m7_4
 10
45.0
 20
82.0
 30
0.0
 50
0.0
  0
INSERT
 62
256
  8
0
  2
m7_5
 10
45.0
 20
100.0
 30
0.0
 50
0.0
  0
INSERT
 62
256
  8
0
  2
m7_6
 10
45.0
 20
118.0
 30
0.0
 50
0.0
  0
INSERT
 62
256
  8
0
  2
m7_7
 10
45.0
 20
136.0
 30
0.0
 50
0.0
  0
INSERT
 62
256
  8
0
  2
m7_8
 10
45.0
 20
154.0
 30
0.0
 50
0.0
  0
INSERT
 62
256
  8
0
  2
m7_9
 10
45.0
 20
172.0
 30
0.0
 50
0.0
  0
INSERT
 62
256
  8
0
  2
m3_0
 10
55.0
 20
10.0
 30
0.0
 50
0.0
  0
INSERT
 62
256
  8
0
  2
m3_1
 10
55.0
 20
28.0
 30
0.0
 50
0.0
  0
INSERT
 62
256
  8
0
  2
m3_2
 10
55.0
 20
46.0
 30
0.0
 50
0.0
  0
INSERT
 62
256
  8
0
  2
m3_3
 10
55.0
 20
64.0
 30
0.0
 50
0.0
  0
INSERT
 62
256
  8
0
  2
m3_4
 10
55.0
 20
82.0
 30
0.0
 50
0.0
  0
INSERT
 62
256
  8
0
  2
m3_5
 10
55.0
 20
100.0
 30
0.0
 50
0.0
  0
INSERT
 62
256
  8
0
  2
m3_6
 10
55.0
 20
118.0
 30
0.0
 50
0.0
  0
INSERT
 62
256
  8
0
  2
m3_7
 10
55.0
 20
136.0
 30
0.0
 50
0.0
  0
INSERT
 62
256
  8
0
  2
m3_8
 10
55.0
 20
154.0
 30
0.0
 50
0.0
  0
INSERT
 62
256
  8
0
  2
m3_9
 10
55.0
 20
172.0
 30
0.0
 50
0.0
  0
ENDSEC
  0
EOF
