  0
SECTION
  2
HEADER
  9
$ACADVER
  1
AC1009
  9
$EXTMIN
 10
0.0
 20
0.0
 30
0.0
  9
$EXTMAX
 10
100.0
 20
100.0
 30
0.0
  9
$INSBASE
 10
0.0
 20
0.0
 30
0.0
  0
ENDSEC
  0
SECTION
  2
TABLES
  0
TABLE
  2
LTYPE
 70
19
  0
LTYPE
  2
PHANTOM
 70
0
  3
Phantom ______  __  __  ______  __  __  ______
 72
65
 73
6
 40
2.5
 49
1.25
 49
-0.25
 49
0.25
 49
-0.25
 49
0.25
 49
-0.25
  0
LTYPE
  2
DOT2
 70
0
  3
Dot (.5) . . . . . . . . . . . . . . . . . . . 
 72
65
 73
2
 40
0.1
 49
0.0
 49
-0.1
  0
LTYPE
  2
DIVIDE
 70
0
  3
Divide __ . . __ . . __ . . __ . . __ . . __
 72
65
 73
6
 40
1.6
 49
1.0
 49
-0.2
 49
0.0
 49
-0.2
 49
0.0
 49
-0.2
  0
LTYPE
  2
DIVIDEX2
 70
0
  3
Divide (2x) ____  . .  ____  . .  ____  . .  ____
 72
65
 73
6
 40
2.6
 49
2.0
 49
-0.2
 49
0.0
 49
-0.2
 49
0.0
 49
-0.2
  0
LTYPE
  2
CENTER
 70
0
  3
Center ____ _ ____ _ ____ _ ____ _ ____ _ ____
 72
65
 73
4
 40
2.0
 49
1.25
 49
-0.25
 49
0.25
 49
-0.25
  0
LTYPE
  2
DASHDOT
 70
0
  3
Dash dot __ . __ . __ . __ . __ . __ . __ . __
 72
65
 73
4
 40
1.4
 49
1.0
 49
-0.2
 49
0.0
 49
-0.2
  0
LTYPE
  2
CENTERX2
 70
0
  3
Center (2x) ________  __  ________  __  ________
 72
65
 73
4
 40
3.5
 49
2.5
 49
-0.25
 49
0.5
 49
-0.25
  0
LTYPE
  2
PHANTOMX2
 70
0
  3
Phantom (2x)____________    ____    ____    ____________
 72
65
 73
6
 40
4.25
 49
2.5
 49
-0.25
 49
0.5
 49
-0.25
 49
0.5
 49
-0.25
  0
LTYPE
  2
CONTINUOUS
 70
0
  3
Solid
 72
65
 73
0
 40
0.0
  0
LTYPE
  2
PHANTOM2
 70
0
  3
Phantom (.5x) ___ _ _ ___ _ _ ___ _ _ ___ _ _ ___
 72
65
 73
6
 40
1.25
 49
0.625
 49
-0.125
 49
0.125
 49
-0.125
 49
0.125
 49
-0.125
  0
LTYPE
  2
DASHED
 70
0
  3
Dashed __ __ __ __ __ __ __ __ __ __ __ __ __ _
 72
65
 73
2
 40
0.6
 49
0.5
 49
-0.1
  0
LTYPE
  2
DASHED2
 70
0
  3
Dashed (.5x) _ _ _ _ _ _ _ _ _ _ _ _ _ _
 72
65
 73
2
 40
0.3
 49
0.25
 49
-0.05
  0
LTYPE
  2
DASHDOT2
 70
0
  3
Dash dot (.5x) _ . _ . _ . _ . _ . _ . _ . _
 72
65
 73
4
 40
0.7
 49
0.5
 49
-0.1
 49
0.0
 49
-0.1
  0
LTYPE
  2
DOTX2
 70
0
  3
Dot (2x) .    .    .    .    .    .    .    . 
 72
65
 73
2
 40
0.4
 49
0.0
 49
-0.4
  0
LTYPE
  2
DIVIDE2
 70
0
  3
Divide(.5x) _ . _ . _ . _ . _ . _ . _ . _
 72
65
 73
6
 40
0.8
 49
0.5
 49
-0.1
 49
0.0
 49
-0.1
 49
0.0
 49
-0.1
  0
LTYPE
  2
CENTER2
 70
0
  3
Center (.5x) ____ _ ____ _ ____ _ ____ _ ____
 72
65
 73
4
 40
1.0
 49
0.625
 49
-0.125
 49
0.125
 49
-0.125
  0
LTYPE
  2
DASHDOTX2
 70
0
  3
Dash dot (2x) ____  .  ____  .  ____  .  ____
 72
65
 73
4
 40
2.4
 49
2.0
 49
-0.2
 49
0.0
 49
-0.2
  0
LTYPE
  2
DOT
 70
0
  3
Dot .  .  .  .  .  .  .  .  .  .  .  .  .  .  .  .
 72
65
 73
2
 40
0.2
 49
0.0
 49
-0.2
  0
LTYPE
  2
DASHEDX2
 70
0
  3
Dashed (2x) ____  ____  ____  ____  ____  ____
 72
65
 73
2
 40
1.2
 49
1.0
 49
-0.2
  0
ENDTAB
  0
TABLE
  2
LAYER
 70
5
  0
LAYER
  2
VIEWPORTS
 70
0
 62
7
  6
CONTINUOUS
  0
LAYER
  2
TABLEGRID
 70
0
 62
1
  6
CONTINUOUS
  0
LAYER
  2
TABLECONTENT
 70
0
 62
1
  6
CONTINUOUS
  0
LAYER
  2
DIMENSIONS
 70
0
 62
1
  6
CONTINUOUS
  0
LAYER
  2
TABLEBACKGROUND
 70
0
 62
1
  6
CONTINUOUS
  0
ENDTAB
  0
TABLE
  2
STYLE
 70
12
  0
STYLE
  2
TIMES
 70
0
 40
0.0
 41
1.0
 42
1.0
 50
0.0
 71
0
  3
times.ttf
  4

  0
STYLE
  2
ARIAL
 70
0
 40
0.0
 41
1.0
 42
1.0
 50
0.0
 71
0
  3
arial.ttf
  4

  0
STYLE
  2
TIMES_BOLD
 70
0
 40
0.0
 41
1.0
 42
1.0
 50
0.0
 71
0
  3
timesbd.ttf
  4

  0
STYLE
  2
ARIAL_BLACK
 70
0
 40
0.0
 41
1.0
 42
1.0
 50
0.0
 71
0
  3
ariblk.ttf
  4

  0
STYLE
  2
TIMES_ITALIC
 70
0
 40
0.0
 41
1.0
 42
1.0
 50
0.0
 71
0
  3
timesi.ttf
  4

  0
STYLE
  2
ISOCPEUR
 70
0
 40
0.0
 41
1.0
 42
1.0
 50
0.0
 71
0
  3
isocpeur.ttf
  4

  0
STYLE
  2
ARIAL_BOLD
 70
0
 40
0.0
 41
1.0
 42
1.0
 50
0.0
 71
0
  3
arialbd.ttf
  4

  0
STYLE
  2
ARIAL_ITALIC
 70
0
 40
0.0
 41
1.0
 42
1.0
 50
0.0
 71
0
  3
ariali.ttf
  4

  0
STYLE
  2
ARIAL_BOLD_ITALIC
 70
0
 40
0.0
 41
1.0
 42
1.0
 50
0.0
 71
0
  3
arialbi.ttf
  4

  0
STYLE
  2
TIMES_BOLD_ITALIC
 70
0
 40
0.0
 41
1.0
 42
1.0
 50
0.0
 71
0
  3
timesbi.ttf
  4

  0
STYLE
  2
ISOCPEUR_ITALIC
 70
0
 40
0.0
 41
1.0
 42
1.0
 50
0.0
 71
0
  3
isocpeui.ttf
  4

  0
STYLE
  2
STANDARD
 70
0
 40
0.0
 41
1.0
 42
1.0
 50
0.0
 71
0
  3
arial.ttf
  4

  0
ENDTAB
  0
TABLE
  2
VIEW
 70
0
  0
ENDTAB
  0
TABLE
  2
APPID
 70
1
  0
APPID
  2
DXFWRITE
 70
0
  0
ENDTAB
  0
TABLE
  2
VPORT
 70
0
  0
ENDTAB
  0
TABLE
  2
UCS
 70
0
  0
ENDTAB
  0
ENDSEC
  0
SECTION
  2
BLOCKS
  0
BLOCK
  8
0
  2
sw_mnt
  3
sw_mnt
 70
0
 10
0.0
 20
0.0
 30
0.0
  0
POLYLINE
  8
0
 66
1
 10
0.0
 20
0.0
 30
0.0
 70
8
  0
VERTEX
  8
0
 10
-7.65
 20
-6.35
 30
0.0
  0
VERTEX
  8
0
 10
7.65
 20
-6.35
 30
0.0
  0
VERTEX
  8
0
 10
7.65
 20
6.35
 30
0.0
  0
VERTEX
  8
0
 10
-7.65
 20
6.35
 30
0.0
  0
VERTEX
  8
0
 10
-7.65
 20
-6.35
 30
0.0
  0
SEQEND
  0
ATTDEF
 62
3
  8
0
 10
0.0
 20
-0.3
 30
0.0
 40
2.0
  1
Attrib
  3
Input:
  2
NAME
 70
0
  0
ENDBLK
  0
BLOCK
  8
0
  2
drill_7mm
  3
drill_7mm
 70
0
 10
0.0
 20
0.0
 30
0.0
  0
CIRCLE
  8
0
 10
0.0
 20
0.0
 30
0.0
 40
3.0
  0
ENDBLK
  0
BLOCK
  8
0
  2
drill_m3
  3
drill_m3
 70
0
 10
0.0
 20
0.0
 30
0.0
  0
CIRCLE
  8
0
 10
0.0
 20
0.0
 30
0.0
 40
1.45
  0
ENDBLK
  0
ENDSEC
  0
SECTION
  2
ENTITIES
  0
VIEWPORT
  8
VIEWPORTS
 67
1
 10
0.0
 20
0.0
 30
0.0
 40
1.0
 41
1.0
 68
1
 69
1
1001
ACAD
1000
MVIEW
1002
{
1070
16
1010
0.0
1020
0.0
1030
0.0
1010
0.0
1020
0.0
1030
0.0
1040
0.0
1040
1.0
1040
0.0
1040
0.0
1040
50.0
1040
0.0
1040
0.0
1070
0
1070
100
1070
1
1070
3
1070
0
1070
0
1070
0
1070
0
1040
0.0
1040
0.0
1040
0.0
1040
0.1
1040
0.1
1040
0.1
1040
0.1
1070
0
1002
{
1002
}
1002
}
  0
INSERT
 62
256
  8
0
 66
1
  2
sw_mnt
 10
129.321336062
 20
71.7857574968
 30
0.0
 50
52.0
  0
ATTRIB
 62
3
  8
0
 10
129.557739288
 20
71.6010590542
 30
0.0
 40
2.0
  1
0
  2
NAME
 70
0
 50
52.0
 11
129.557739288
 21
71.6010590542
 31
0.0
  0
SEQEND
  0
INSERT
 62
256
  8
0
 66
1
  2
sw_mnt
 10
144.29354038
 20
60.0881894656
 30
0.0
 50
52.0
  0
ATTRIB
 62
3
  8
0
 10
144.529943606
 20
59.903491023
 30
0.0
 40
2.0
  1
1
  2
NAME
 70
0
 50
52.0
 11
144.529943606
 21
59.903491023
 31
0.0
  0
SEQEND
  0
INSERT
 62
256
  8
0
 66
1
  2
sw_mnt
 10
153.416960683
 20
40.9045192752
 30
0.0
 50
-38.0
  0
ATTRIB
 62
3
  8
0
 10
153.23226224
 20
40.6681160491
 30
0.0
 40
2.0
  1
2
  2
NAME
 70
0
 50
-38.0
 11
153.23226224
 21
40.6681160491
 31
0.0
  0
SEQEND
  0
INSERT
 62
256
  8
0
 66
1
  2
sw_mnt
 10
165.114528714
 20
55.8767235937
 30
0.0
 50
-38.0
  0
ATTRIB
 62
3
  8
0
 10
164.929830272
 20
55.6403203676
 30
0.0
 40
2.0
  1
3
  2
NAME
 70
0
 50
-38.0
 11
164.929830272
 21
55.6403203676
 31
0.0
  0
SEQEND
  0
INSERT
 62
256
  8
0
 66
1
  2
sw_mnt
 10
176.812096745
 20
70.8489279122
 30
0.0
 50
-38.0
  0
ATTRIB
 62
3
  8
0
 10
176.627398303
 20
70.6125246861
 30
0.0
 40
2.0
  1
4
  2
NAME
 70
0
 50
-38.0
 11
176.627398303
 21
70.6125246861
 31
0.0
  0
SEQEND
  0
INSERT
 62
256
  8
0
 66
1
  2
sw_mnt
 10
161.839892427
 20
82.5464959434
 30
0.0
 50
-38.0
  0
ATTRIB
 62
3
  8
0
 10
161.655193984
 20
82.3100927173
 30
0.0
 40
2.0
  1
5
  2
NAME
 70
0
 50
-38.0
 11
161.655193984
 21
82.3100927173
 31
0.0
  0
SEQEND
  0
INSERT
 62
256
  8
0
 66
1
  2
sw_mnt
 10
157.361891471
 20
157.679454893
 30
0.0
 50
-13.0
  0
ATTRIB
 62
3
  8
0
 10
157.294406154
 20
157.387143873
 30
0.0
 40
2.0
  1
6
  2
NAME
 70
0
 50
-13.0
 11
157.294406154
 21
157.387143873
 31
0.0
  0
SEQEND
  0
INSERT
 62
256
  8
0
 66
1
  2
sw_mnt
 10
152.01930393
 20
134.538165854
 30
0.0
 50
77.0
  0
ATTRIB
 62
3
  8
0
 10
152.31161495
 20
134.470680538
 30
0.0
 40
2.0
  1
7
  2
NAME
 70
0
 50
77.0
 11
152.31161495
 21
134.470680538
 31
0.0
  0
SEQEND
  0
INSERT
 62
256
  8
0
 66
1
  2
sw_mnt
 10
145.608198881
 20
106.768619008
 30
0.0
 50
77.0
  0
ATTRIB
 62
3
  8
0
 10
145.900509901
 20
106.701133691
 30
0.0
 40
2.0
  1
8
  2
NAME
 70
0
 50
77.0
 11
145.900509901
 21
106.701133691
 31
0.0
  0
SEQEND
  0
INSERT
 62
256
  8
0
 66
1
  2
sw_mnt
 10
138.84886024
 20
161.953524925
 30
0.0
 50
-13.0
  0
ATTRIB
 62
3
  8
0
 10
138.781374924
 20
161.661213906
 30
0.0
 40
2.0
  1
9
  2
NAME
 70
0
 50
-13.0
 11
138.781374924
 21
161.661213906
 31
0.0
  0
SEQEND
  0
INSERT
 62
256
  8
0
 66
1
  2
sw_mnt
 10
134.574790207
 20
143.440493694
 30
0.0
 50
-13.0
  0
ATTRIB
 62
3
  8
0
 10
134.507304891
 20
143.148182675
 30
0.0
 40
2.0
  1
10
  2
NAME
 70
0
 50
-13.0
 11
134.507304891
 21
143.148182675
 31
0.0
  0
SEQEND
  0
INSERT
 62
256
  8
0
 66
1
  2
sw_mnt
 10
130.300720175
 20
124.927462463
 30
0.0
 50
-13.0
  0
ATTRIB
 62
3
  8
0
 10
130.233234858
 20
124.635151444
 30
0.0
 40
2.0
  1
11
  2
NAME
 70
0
 50
-13.0
 11
130.233234858
 21
124.635151444
 31
0.0
  0
SEQEND
  0
INSERT
 62
256
  8
0
 66
1
  2
sw_mnt
 10
126.026650142
 20
106.414431232
 30
0.0
 50
-13.0
  0
ATTRIB
 62
3
  8
0
 10
125.959164826
 20
106.122120213
 30
0.0
 40
2.0
  1
12
  2
NAME
 70
0
 50
-13.0
 11
125.959164826
 21
106.122120213
 31
0.0
  0
SEQEND
  0
INSERT
 62
256
  8
0
 66
1
  2
sw_mnt
 10
120.67325559
 20
167.689150055
 30
0.0
 50
-13.0
  0
ATTRIB
 62
3
  8
0
 10
120.605770274
 20
167.396839036
 30
0.0
 40
2.0
  1
13
  2
NAME
 70
0
 50
-13.0
 11
120.605770274
 21
167.396839036
 31
0.0
  0
SEQEND
  0
INSERT
 62
256
  8
0
 66
1
  2
sw_mnt
 10
116.399185558
 20
149.176118824
 30
0.0
 50
-13.0
  0
ATTRIB
 62
3
  8
0
 10
116.331700242
 20
148.883807805
 30
0.0
 40
2.0
  1
14
  2
NAME
 70
0
 50
-13.0
 11
116.331700242
 21
148.883807805
 31
0.0
  0
SEQEND
  0
INSERT
 62
256
  8
0
 66
1
  2
sw_mnt
 10
112.125115525
 20
130.663087593
 30
0.0
 50
-13.0
  0
ATTRIB
 62
3
  8
0
 10
112.057630209
 20
130.370776574
 30
0.0
 40
2.0
  1
15
  2
NAME
 70
0
 50
-13.0
 11
112.057630209
 21
130.370776574
 31
0.0
  0
SEQEND
  0
INSERT
 62
256
  8
0
 66
1
  2
sw_mnt
 10
107.851045493
 20
112.150056362
 30
0.0
 50
-13.0
  0
ATTRIB
 62
3
  8
0
 10
107.783560177
 20
111.857745343
 30
0.0
 40
2.0
  1
16
  2
NAME
 70
0
 50
-13.0
 11
107.783560177
 21
111.857745343
 31
0.0
  0
SEQEND
  0
INSERT
 62
256
  8
0
 66
1
  2
sw_mnt
 10
103.57697546
 20
93.6370251313
 30
0.0
 50
-13.0
  0
ATTRIB
 62
3
  8
0
 10
103.509490144
 20
93.3447141118
 30
0.0
 40
2.0
  1
17
  2
NAME
 70
0
 50
-13.0
 11
103.509490144
 21
93.3447141118
 31
0.0
  0
SEQEND
  0
INSERT
 62
256
  8
0
 66
1
  2
sw_mnt
 10
102.497650941
 20
173.424775185
 30
0.0
 50
-13.0
  0
ATTRIB
 62
3
  8
0
 10
102.430165625
 20
173.132464165
 30
0.0
 40
2.0
  1
18
  2
NAME
 70
0
 50
-13.0
 11
102.430165625
 21
173.132464165
 31
0.0
  0
SEQEND
  0
INSERT
 62
256
  8
0
 66
1
  2
sw_mnt
 10
98.2235809085
 20
154.911743954
 30
0.0
 50
-13.0
  0
ATTRIB
 62
3
  8
0
 10
98.1560955922
 20
154.619432934
 30
0.0
 40
2.0
  1
19
  2
NAME
 70
0
 50
-13.0
 11
98.1560955922
 21
154.619432934
 31
0.0
  0
SEQEND
  0
INSERT
 62
256
  8
0
 66
1
  2
sw_mnt
 10
93.949510876
 20
136.398712723
 30
0.0
 50
-13.0
  0
ATTRIB
 62
3
  8
0
 10
93.8820255597
 20
136.106401703
 30
0.0
 40
2.0
  1
20
  2
NAME
 70
0
 50
-13.0
 11
93.8820255597
 21
136.106401703
 31
0.0
  0
SEQEND
  0
INSERT
 62
256
  8
0
 66
1
  2
sw_mnt
 10
89.6754408434
 20
117.885681492
 30
0.0
 50
-13.0
  0
ATTRIB
 62
3
  8
0
 10
89.6079555271
 20
117.593370472
 30
0.0
 40
2.0
  1
21
  2
NAME
 70
0
 50
-13.0
 11
89.6079555271
 21
117.593370472
 31
0.0
  0
SEQEND
  0
INSERT
 62
256
  8
0
 66
1
  2
sw_mnt
 10
85.4013708109
 20
99.372650261
 30
0.0
 50
-13.0
  0
ATTRIB
 62
3
  8
0
 10
85.3338854946
 20
99.0803392416
 30
0.0
 40
2.0
  1
22
  2
NAME
 70
0
 50
-13.0
 11
85.3338854946
 21
99.0803392416
 31
0.0
  0
SEQEND
  0
INSERT
 62
256
  8
0
 66
1
  2
sw_mnt
 10
83.6471931286
 20
176.23729012
 30
0.0
 50
-13.0
  0
ATTRIB
 62
3
  8
0
 10
83.5797078123
 20
175.944979101
 30
0.0
 40
2.0
  1
23
  2
NAME
 70
0
 50
-13.0
 11
83.5797078123
 21
175.944979101
 31
0.0
  0
SEQEND
  0
INSERT
 62
256
  8
0
 66
1
  2
sw_mnt
 10
79.3731230961
 20
157.724258889
 30
0.0
 50
-13.0
  0
ATTRIB
 62
3
  8
0
 10
79.3056377798
 20
157.43194787
 30
0.0
 40
2.0
  1
24
  2
NAME
 70
0
 50
-13.0
 11
79.3056377798
 21
157.43194787
 31
0.0
  0
SEQEND
  0
INSERT
 62
256
  8
0
 66
1
  2
sw_mnt
 10
75.0990530635
 20
139.211227658
 30
0.0
 50
-13.0
  0
ATTRIB
 62
3
  8
0
 10
75.0315677472
 20
138.918916639
 30
0.0
 40
2.0
  1
25
  2
NAME
 70
0
 50
-13.0
 11
75.0315677472
 21
138.918916639
 31
0.0
  0
SEQEND
  0
INSERT
 62
256
  8
0
 66
1
  2
sw_mnt
 10
70.824983031
 20
120.698196427
 30
0.0
 50
-13.0
  0
ATTRIB
 62
3
  8
0
 10
70.7574977147
 20
120.405885408
 30
0.0
 40
2.0
  1
26
  2
NAME
 70
0
 50
-13.0
 11
70.7574977147
 21
120.405885408
 31
0.0
  0
SEQEND
  0
INSERT
 62
256
  8
0
 66
1
  2
sw_mnt
 10
66.5509129985
 20
102.185165196
 30
0.0
 50
-13.0
  0
ATTRIB
 62
3
  8
0
 10
66.4834276822
 20
101.892854177
 30
0.0
 40
2.0
  1
27
  2
NAME
 70
0
 50
-13.0
 11
66.4834276822
 21
101.892854177
 31
0.0
  0
SEQEND
  0
INSERT
 62
256
  8
0
 66
1
  2
sw_mnt
 10
64.4593087347
 20
177.588249958
 30
0.0
 50
-13.0
  0
ATTRIB
 62
3
  8
0
 10
64.3918234184
 20
177.295938939
 30
0.0
 40
2.0
  1
28
  2
NAME
 70
0
 50
-13.0
 11
64.3918234184
 21
177.295938939
 31
0.0
  0
SEQEND
  0
INSERT
 62
256
  8
0
 66
1
  2
sw_mnt
 10
60.1852387021
 20
159.075218727
 30
0.0
 50
-13.0
  0
ATTRIB
 62
3
  8
0
 10
60.1177533858
 20
158.782907708
 30
0.0
 40
2.0
  1
29
  2
NAME
 70
0
 50
-13.0
 11
60.1177533858
 21
158.782907708
 31
0.0
  0
SEQEND
  0
INSERT
 62
256
  8
0
 66
1
  2
sw_mnt
 10
55.9111686696
 20
140.562187496
 30
0.0
 50
-13.0
  0
ATTRIB
 62
3
  8
0
 10
55.8436833533
 20
140.269876477
 30
0.0
 40
2.0
  1
30
  2
NAME
 70
0
 50
-13.0
 11
55.8436833533
 21
140.269876477
 31
0.0
  0
SEQEND
  0
INSERT
 62
256
  8
0
 66
1
  2
sw_mnt
 10
51.6370986371
 20
122.049156265
 30
0.0
 50
-13.0
  0
ATTRIB
 62
3
  8
0
 10
51.5696133208
 20
121.756845246
 30
0.0
 40
2.0
  1
31
  2
NAME
 70
0
 50
-13.0
 11
51.5696133208
 21
121.756845246
 31
0.0
  0
SEQEND
  0
INSERT
 62
256
  8
0
 66
1
  2
sw_mnt
 10
47.3630286045
 20
103.536125035
 30
0.0
 50
-13.0
  0
ATTRIB
 62
3
  8
0
 10
47.2955432882
 20
103.243814015
 30
0.0
 40
2.0
  1
32
  2
NAME
 70
0
 50
-13.0
 11
47.2955432882
 21
103.243814015
 31
0.0
  0
SEQEND
  0
INSERT
 62
256
  8
0
 66
1
  2
sw_mnt
 10
41.318019696
 20
182.930837499
 30
0.0
 50
-13.0
  0
ATTRIB
 62
3
  8
0
 10
41.2505343797
 20
182.638526479
 30
0.0
 40
2.0
  1
33
  2
NAME
 70
0
 50
-13.0
 11
41.2505343797
 21
182.638526479
 31
0.0
  0
SEQEND
  0
INSERT
 62
256
  8
0
 66
1
  2
sw_mnt
 10
37.0439496635
 20
164.417806268
 30
0.0
 50
-13.0
  0
ATTRIB
 62
3
  8
0
 10
36.9764643472
 20
164.125495249
 30
0.0
 40
2.0
  1
34
  2
NAME
 70
0
 50
-13.0
 11
36.9764643472
 21
164.125495249
 31
0.0
  0
SEQEND
  0
INSERT
 62
256
  8
0
 66
1
  2
sw_mnt
 10
32.7698796309
 20
145.904775037
 30
0.0
 50
-13.0
  0
ATTRIB
 62
3
  8
0
 10
32.7023943146
 20
145.612464018
 30
0.0
 40
2.0
  1
35
  2
NAME
 70
0
 50
-13.0
 11
32.7023943146
 21
145.612464018
 31
0.0
  0
SEQEND
  0
INSERT
 62
256
  8
0
 66
1
  2
sw_mnt
 10
28.4958095984
 20
127.391743806
 30
0.0
 50
-13.0
  0
ATTRIB
 62
3
  8
0
 10
28.4283242821
 20
127.099432787
 30
0.0
 40
2.0
  1
36
  2
NAME
 70
0
 50
-13.0
 11
28.4283242821
 21
127.099432787
 31
0.0
  0
SEQEND
  0
INSERT
 62
256
  8
0
 66
1
  2
sw_mnt
 10
28.8499973736
 20
107.810195067
 30
0.0
 50
-13.0
  0
ATTRIB
 62
3
  8
0
 10
28.7825120573
 20
107.517884048
 30
0.0
 40
2.0
  1
37
  2
NAME
 70
0
 50
-13.0
 11
28.7825120573
 21
107.517884048
 31
0.0
  0
SEQEND
  0
INSERT
 62
256
  8
0
 66
1
  2
sw_mnt
 10
273.678663938
 20
71.7857574968
 30
0.0
 50
-52.0
  0
ATTRIB
 62
3
  8
0
 10
273.442260712
 20
71.6010590542
 30
0.0
 40
2.0
  1
38
  2
NAME
 70
0
 50
-52.0
 11
273.442260712
 21
71.6010590542
 31
0.0
  0
SEQEND
  0
INSERT
 62
256
  8
0
 66
1
  2
sw_mnt
 10
258.70645962
 20
60.0881894656
 30
0.0
 50
-52.0
  0
ATTRIB
 62
3
  8
0
 10
258.470056394
 20
59.903491023
 30
0.0
 40
2.0
  1
39
  2
NAME
 70
0
 50
-52.0
 11
258.470056394
 21
59.903491023
 31
0.0
  0
SEQEND
  0
INSERT
 62
256
  8
0
 66
1
  2
sw_mnt
 10
249.583039317
 20
40.9045192752
 30
0.0
 50
38.0
  0
ATTRIB
 62
3
  8
0
 10
249.76773776
 20
40.6681160491
 30
0.0
 40
2.0
  1
40
  2
NAME
 70
0
 50
38.0
 11
249.76773776
 21
40.6681160491
 31
0.0
  0
SEQEND
  0
INSERT
 62
256
  8
0
 66
1
  2
sw_mnt
 10
237.885471286
 20
55.8767235937
 30
0.0
 50
38.0
  0
ATTRIB
 62
3
  8
0
 10
238.070169728
 20
55.6403203676
 30
0.0
 40
2.0
  1
41
  2
NAME
 70
0
 50
38.0
 11
238.070169728
 21
55.6403203676
 31
0.0
  0
SEQEND
  0
INSERT
 62
256
  8
0
 66
1
  2
sw_mnt
 10
226.187903255
 20
70.8489279122
 30
0.0
 50
38.0
  0
ATTRIB
 62
3
  8
0
 10
226.372601697
 20
70.6125246861
 30
0.0
 40
2.0
  1
42
  2
NAME
 70
0
 50
38.0
 11
226.372601697
 21
70.6125246861
 31
0.0
  0
SEQEND
  0
INSERT
 62
256
  8
0
 66
1
  2
sw_mnt
 10
241.160107573
 20
82.5464959434
 30
0.0
 50
38.0
  0
ATTRIB
 62
3
  8
0
 10
241.344806016
 20
82.3100927173
 30
0.0
 40
2.0
  1
43
  2
NAME
 70
0
 50
38.0
 11
241.344806016
 21
82.3100927173
 31
0.0
  0
SEQEND
  0
INSERT
 62
256
  8
0
 66
1
  2
sw_mnt
 10
245.638108529
 20
157.679454893
 30
0.0
 50
13.0
  0
ATTRIB
 62
3
  8
0
 10
245.705593846
 20
157.387143873
 30
0.0
 40
2.0
  1
44
  2
NAME
 70
0
 50
13.0
 11
245.705593846
 21
157.387143873
 31
0.0
  0
SEQEND
  0
INSERT
 62
256
  8
0
 66
1
  2
sw_mnt
 10
250.98069607
 20
134.538165854
 30
0.0
 50
-77.0
  0
ATTRIB
 62
3
  8
0
 10
250.68838505
 20
134.470680538
 30
0.0
 40
2.0
  1
45
  2
NAME
 70
0
 50
-77.0
 11
250.68838505
 21
134.470680538
 31
0.0
  0
SEQEND
  0
INSERT
 62
256
  8
0
 66
1
  2
sw_mnt
 10
257.391801119
 20
106.768619008
 30
0.0
 50
-77.0
  0
ATTRIB
 62
3
  8
0
 10
257.099490099
 20
106.701133691
 30
0.0
 40
2.0
  1
46
  2
NAME
 70
0
 50
-77.0
 11
257.099490099
 21
106.701133691
 31
0.0
  0
SEQEND
  0
INSERT
 62
256
  8
0
 66
1
  2
sw_mnt
 10
264.15113976
 20
161.953524925
 30
0.0
 50
13.0
  0
ATTRIB
 62
3
  8
0
 10
264.218625076
 20
161.661213906
 30
0.0
 40
2.0
  1
47
  2
NAME
 70
0
 50
13.0
 11
264.218625076
 21
161.661213906
 31
0.0
  0
SEQEND
  0
INSERT
 62
256
  8
0
 66
1
  2
sw_mnt
 10
268.425209793
 20
143.440493694
 30
0.0
 50
13.0
  0
ATTRIB
 62
3
  8
0
 10
268.492695109
 20
143.148182675
 30
0.0
 40
2.0
  1
48
  2
NAME
 70
0
 50
13.0
 11
268.492695109
 21
143.148182675
 31
0.0
  0
SEQEND
  0
INSERT
 62
256
  8
0
 66
1
  2
sw_mnt
 10
272.699279825
 20
124.927462463
 30
0.0
 50
13.0
  0
ATTRIB
 62
3
  8
0
 10
272.766765142
 20
124.635151444
 30
0.0
 40
2.0
  1
49
  2
NAME
 70
0
 50
13.0
 11
272.766765142
 21
124.635151444
 31
0.0
  0
SEQEND
  0
INSERT
 62
256
  8
0
 66
1
  2
sw_mnt
 10
276.973349858
 20
106.414431232
 30
0.0
 50
13.0
  0
ATTRIB
 62
3
  8
0
 10
277.040835174
 20
106.122120213
 30
0.0
 40
2.0
  1
50
  2
NAME
 70
0
 50
13.0
 11
277.040835174
 21
106.122120213
 31
0.0
  0
SEQEND
  0
INSERT
 62
256
  8
0
 66
1
  2
sw_mnt
 10
282.32674441
 20
167.689150055
 30
0.0
 50
13.0
  0
ATTRIB
 62
3
  8
0
 10
282.394229726
 20
167.396839036
 30
0.0
 40
2.0
  1
51
  2
NAME
 70
0
 50
13.0
 11
282.394229726
 21
167.396839036
 31
0.0
  0
SEQEND
  0
INSERT
 62
256
  8
0
 66
1
  2
sw_mnt
 10
286.600814442
 20
149.176118824
 30
0.0
 50
13.0
  0
ATTRIB
 62
3
  8
0
 10
286.668299758
 20
148.883807805
 30
0.0
 40
2.0
  1
52
  2
NAME
 70
0
 50
13.0
 11
286.668299758
 21
148.883807805
 31
0.0
  0
SEQEND
  0
INSERT
 62
256
  8
0
 66
1
  2
sw_mnt
 10
290.874884475
 20
130.663087593
 30
0.0
 50
13.0
  0
ATTRIB
 62
3
  8
0
 10
290.942369791
 20
130.370776574
 30
0.0
 40
2.0
  1
53
  2
NAME
 70
0
 50
13.0
 11
290.942369791
 21
130.370776574
 31
0.0
  0
SEQEND
  0
INSERT
 62
256
  8
0
 66
1
  2
sw_mnt
 10
295.148954507
 20
112.150056362
 30
0.0
 50
13.0
  0
ATTRIB
 62
3
  8
0
 10
295.216439823
 20
111.857745343
 30
0.0
 40
2.0
  1
54
  2
NAME
 70
0
 50
13.0
 11
295.216439823
 21
111.857745343
 31
0.0
  0
SEQEND
  0
INSERT
 62
256
  8
0
 66
1
  2
sw_mnt
 10
299.42302454
 20
93.6370251313
 30
0.0
 50
13.0
  0
ATTRIB
 62
3
  8
0
 10
299.490509856
 20
93.3447141118
 30
0.0
 40
2.0
  1
55
  2
NAME
 70
0
 50
13.0
 11
299.490509856
 21
93.3447141118
 31
0.0
  0
SEQEND
  0
INSERT
 62
256
  8
0
 66
1
  2
sw_mnt
 10
300.502349059
 20
173.424775185
 30
0.0
 50
13.0
  0
ATTRIB
 62
3
  8
0
 10
300.569834375
 20
173.132464165
 30
0.0
 40
2.0
  1
56
  2
NAME
 70
0
 50
13.0
 11
300.569834375
 21
173.132464165
 31
0.0
  0
SEQEND
  0
INSERT
 62
256
  8
0
 66
1
  2
sw_mnt
 10
304.776419091
 20
154.911743954
 30
0.0
 50
13.0
  0
ATTRIB
 62
3
  8
0
 10
304.843904408
 20
154.619432934
 30
0.0
 40
2.0
  1
57
  2
NAME
 70
0
 50
13.0
 11
304.843904408
 21
154.619432934
 31
0.0
  0
SEQEND
  0
INSERT
 62
256
  8
0
 66
1
  2
sw_mnt
 10
309.050489124
 20
136.398712723
 30
0.0
 50
13.0
  0
ATTRIB
 62
3
  8
0
 10
309.11797444
 20
136.106401703
 30
0.0
 40
2.0
  1
58
  2
NAME
 70
0
 50
13.0
 11
309.11797444
 21
136.106401703
 31
0.0
  0
SEQEND
  0
INSERT
 62
256
  8
0
 66
1
  2
sw_mnt
 10
313.324559157
 20
117.885681492
 30
0.0
 50
13.0
  0
ATTRIB
 62
3
  8
0
 10
313.392044473
 20
117.593370472
 30
0.0
 40
2.0
  1
59
  2
NAME
 70
0
 50
13.0
 11
313.392044473
 21
117.593370472
 31
0.0
  0
SEQEND
  0
INSERT
 62
256
  8
0
 66
1
  2
sw_mnt
 10
317.598629189
 20
99.372650261
 30
0.0
 50
13.0
  0
ATTRIB
 62
3
  8
0
 10
317.666114505
 20
99.0803392416
 30
0.0
 40
2.0
  1
60
  2
NAME
 70
0
 50
13.0
 11
317.666114505
 21
99.0803392416
 31
0.0
  0
SEQEND
  0
INSERT
 62
256
  8
0
 66
1
  2
sw_mnt
 10
319.352806871
 20
176.23729012
 30
0.0
 50
13.0
  0
ATTRIB
 62
3
  8
0
 10
319.420292188
 20
175.944979101
 30
0.0
 40
2.0
  1
61
  2
NAME
 70
0
 50
13.0
 11
319.420292188
 21
175.944979101
 31
0.0
  0
SEQEND
  0
INSERT
 62
256
  8
0
 66
1
  2
sw_mnt
 10
323.626876904
 20
157.724258889
 30
0.0
 50
13.0
  0
ATTRIB
 62
3
  8
0
 10
323.69436222
 20
157.43194787
 30
0.0
 40
2.0
  1
62
  2
NAME
 70
0
 50
13.0
 11
323.69436222
 21
157.43194787
 31
0.0
  0
SEQEND
  0
INSERT
 62
256
  8
0
 66
1
  2
sw_mnt
 10
327.900946936
 20
139.211227658
 30
0.0
 50
13.0
  0
ATTRIB
 62
3
  8
0
 10
327.968432253
 20
138.918916639
 30
0.0
 40
2.0
  1
63
  2
NAME
 70
0
 50
13.0
 11
327.968432253
 21
138.918916639
 31
0.0
  0
SEQEND
  0
INSERT
 62
256
  8
0
 66
1
  2
sw_mnt
 10
332.175016969
 20
120.698196427
 30
0.0
 50
13.0
  0
ATTRIB
 62
3
  8
0
 10
332.242502285
 20
120.405885408
 30
0.0
 40
2.0
  1
64
  2
NAME
 70
0
 50
13.0
 11
332.242502285
 21
120.405885408
 31
0.0
  0
SEQEND
  0
INSERT
 62
256
  8
0
 66
1
  2
sw_mnt
 10
336.449087002
 20
102.185165196
 30
0.0
 50
13.0
  0
ATTRIB
 62
3
  8
0
 10
336.516572318
 20
101.892854177
 30
0.0
 40
2.0
  1
65
  2
NAME
 70
0
 50
13.0
 11
336.516572318
 21
101.892854177
 31
0.0
  0
SEQEND
  0
INSERT
 62
256
  8
0
 66
1
  2
sw_mnt
 10
338.540691265
 20
177.588249958
 30
0.0
 50
13.0
  0
ATTRIB
 62
3
  8
0
 10
338.608176582
 20
177.295938939
 30
0.0
 40
2.0
  1
66
  2
NAME
 70
0
 50
13.0
 11
338.608176582
 21
177.295938939
 31
0.0
  0
SEQEND
  0
INSERT
 62
256
  8
0
 66
1
  2
sw_mnt
 10
342.814761298
 20
159.075218727
 30
0.0
 50
13.0
  0
ATTRIB
 62
3
  8
0
 10
342.882246614
 20
158.782907708
 30
0.0
 40
2.0
  1
67
  2
NAME
 70
0
 50
13.0
 11
342.882246614
 21
158.782907708
 31
0.0
  0
SEQEND
  0
INSERT
 62
256
  8
0
 66
1
  2
sw_mnt
 10
347.08883133
 20
140.562187496
 30
0.0
 50
13.0
  0
ATTRIB
 62
3
  8
0
 10
347.156316647
 20
140.269876477
 30
0.0
 40
2.0
  1
68
  2
NAME
 70
0
 50
13.0
 11
347.156316647
 21
140.269876477
 31
0.0
  0
SEQEND
  0
INSERT
 62
256
  8
0
 66
1
  2
sw_mnt
 10
351.362901363
 20
122.049156265
 30
0.0
 50
13.0
  0
ATTRIB
 62
3
  8
0
 10
351.430386679
 20
121.756845246
 30
0.0
 40
2.0
  1
69
  2
NAME
 70
0
 50
13.0
 11
351.430386679
 21
121.756845246
 31
0.0
  0
SEQEND
  0
INSERT
 62
256
  8
0
 66
1
  2
sw_mnt
 10
355.636971395
 20
103.536125035
 30
0.0
 50
13.0
  0
ATTRIB
 62
3
  8
0
 10
355.704456712
 20
103.243814015
 30
0.0
 40
2.0
  1
70
  2
NAME
 70
0
 50
13.0
 11
355.704456712
 21
103.243814015
 31
0.0
  0
SEQEND
  0
INSERT
 62
256
  8
0
 66
1
  2
sw_mnt
 10
361.681980304
 20
182.930837499
 30
0.0
 50
13.0
  0
ATTRIB
 62
3
  8
0
 10
361.74946562
 20
182.638526479
 30
0.0
 40
2.0
  1
71
  2
NAME
 70
0
 50
13.0
 11
361.74946562
 21
182.638526479
 31
0.0
  0
SEQEND
  0
INSERT
 62
256
  8
0
 66
1
  2
sw_mnt
 10
365.956050337
 20
164.417806268
 30
0.0
 50
13.0
  0
ATTRIB
 62
3
  8
0
 10
366.023535653
 20
164.125495249
 30
0.0
 40
2.0
  1
72
  2
NAME
 70
0
 50
13.0
 11
366.023535653
 21
164.125495249
 31
0.0
  0
SEQEND
  0
INSERT
 62
256
  8
0
 66
1
  2
sw_mnt
 10
370.230120369
 20
145.904775037
 30
0.0
 50
13.0
  0
ATTRIB
 62
3
  8
0
 10
370.297605685
 20
145.612464018
 30
0.0
 40
2.0
  1
73
  2
NAME
 70
0
 50
13.0
 11
370.297605685
 21
145.612464018
 31
0.0
  0
SEQEND
  0
INSERT
 62
256
  8
0
 66
1
  2
sw_mnt
 10
374.504190402
 20
127.391743806
 30
0.0
 50
13.0
  0
ATTRIB
 62
3
  8
0
 10
374.571675718
 20
127.099432787
 30
0.0
 40
2.0
  1
74
  2
NAME
 70
0
 50
13.0
 11
374.571675718
 21
127.099432787
 31
0.0
  0
SEQEND
  0
INSERT
 62
256
  8
0
 66
1
  2
sw_mnt
 10
374.150002626
 20
107.810195067
 30
0.0
 50
13.0
  0
ATTRIB
 62
3
  8
0
 10
374.217487943
 20
107.517884048
 30
0.0
 40
2.0
  1
75
  2
NAME
 70
0
 50
13.0
 11
374.217487943
 21
107.517884048
 31
0.0
  0
SEQEND
  0
INSERT
 62
256
  8
0
  2
drill_m3
 10
191.784301064
 20
59.151359881
 30
0.0
 50
0.0
  0
INSERT
 62
256
  8
0
  2
drill_m3
 10
157.361891471
 20
193.392905639
 30
0.0
 50
0.0
  0
INSERT
 62
256
  8
0
  2
drill_m3
 10
64.4593087347
 20
193.392905639
 30
0.0
 50
0.0
  0
INSERT
 62
256
  8
0
  2
drill_m3
 10
12.1732307451
 20
111.147177959
 30
0.0
 50
0.0
  0
INSERT
 62
256
  8
0
  2
drill_m3
 10
126.18330291
 20
15.1269225808
 30
0.0
 50
0.0
  0
INSERT
 62
256
  8
0
  2
drill_m3
 10
23.3775245206
 20
51.2649892288
 30
0.0
 50
0.0
  0
INSERT
 62
256
  8
0
  2
drill_m3
 10
379.622475479
 20
51.2649892288
 30
0.0
 50
0.0
  0
INSERT
 62
256
  8
0
  2
drill_m3
 10
276.81669709
 20
15.1269225808
 30
0.0
 50
0.0
  0
INSERT
 62
256
  8
0
  2
drill_m3
 10
390.826769255
 20
111.147177959
 30
0.0
 50
0.0
  0
INSERT
 62
256
  8
0
  2
drill_m3
 10
338.540691265
 20
193.392905639
 30
0.0
 50
0.0
  0
INSERT
 62
256
  8
0
  2
drill_m3
 10
245.638108529
 20
193.392905639
 30
0.0
 50
0.0
  0
INSERT
 62
256
  8
0
  2
drill_m3
 10
211.215698936
 20
59.151359881
 30
0.0
 50
0.0
  0
INSERT
 62
256
  8
0
  2
drill_m3
 10
181.5
 20
149.392905639
 30
0.0
 50
0.0
  0
INSERT
 62
256
  8
0
  2
drill_m3
 10
221.5
 20
149.392905639
 30
0.0
 50
0.0
  0
INSERT
 62
256
  8
0
  2
drill_m3
 10
181.5
 20
189.392905639
 30
0.0
 50
0.0
  0
INSERT
 62
256
  8
0
  2
drill_m3
 10
221.5
 20
189.392905639
 30
0.0
 50
0.0
  0
POLYLINE
  8
0
 66
1
 10
0.0
 20
0.0
 30
0.0
 70
8
  0
VERTEX
  8
0
 10
6.4773955633
 20
117.593685663
 30
0.0
  0
VERTEX
  8
0
 10
24.6984309652
 20
196.51766091
 30
0.0
  0
SEQEND
  0
ARC
  8
0
 10
29.5702812891
 20
195.392905639
 30
0.0
 40
5.0
 50
90.0
 51
167.0
  0
POLYLINE
  8
0
 66
1
 10
0.0
 20
0.0
 30
0.0
 70
8
  0
VERTEX
  8
0
 10
29.5702812891
 20
200.392905639
 30
0.0
  0
VERTEX
  8
0
 10
373.429718711
 20
200.392905639
 30
0.0
  0
SEQEND
  0
ARC
  8
0
 10
373.429718711
 20
195.392905639
 30
0.0
 40
5.0
 50
13.0
 51
90.0
  0
POLYLINE
  8
0
 66
1
 10
0.0
 20
0.0
 30
0.0
 70
8
  0
VERTEX
  8
0
 10
378.301569035
 20
196.51766091
 30
0.0
  0
VERTEX
  8
0
 10
396.522604437
 20
117.593685663
 30
0.0
  0
SEQEND
  0
ARC
  8
0
 10
305.906188412
 20
96.6732376089
 30
0.0
 40
93.0
 50
223.67929137
 51
13.0
  0
ARC
  8
0
 10
201.5
 20
-3.02731131191
 30
0.0
 40
51.3636091048
 50
43.6792913704
 51
-223.67929137
  0
ARC
  8
0
 10
97.0938115883
 20
96.6732376089
 30
0.0
 40
93.0
 50
167.0
 51
-43.6792913704
  0
ENDSEC
  0
EOF
