  0
SECTION
  2
HEADER
  9
$ACADVER
  1
AC1009
  9
$EXTMIN
 10
0.0
 20
0.0
 30
0.0
  9
$EXTMAX
 10
100.0
 20
100.0
 30
0.0
  9
$INSBASE
 10
0.0
 20
0.0
 30
0.0
  0
ENDSEC
  0
SECTION
  2
TABLES
  0
TABLE
  2
LTYPE
 70
19
  0
LTYPE
  2
PHANTOM
 70
0
  3
Phantom ______  __  __  ______  __  __  ______
 72
65
 73
6
 40
2.5
 49
1.25
 49
-0.25
 49
0.25
 49
-0.25
 49
0.25
 49
-0.25
  0
LTYPE
  2
DOT2
 70
0
  3
Dot (.5) . . . . . . . . . . . . . . . . . . . 
 72
65
 73
2
 40
0.1
 49
0.0
 49
-0.1
  0
LTYPE
  2
DIVIDE
 70
0
  3
Divide __ . . __ . . __ . . __ . . __ . . __
 72
65
 73
6
 40
1.6
 49
1.0
 49
-0.2
 49
0.0
 49
-0.2
 49
0.0
 49
-0.2
  0
LTYPE
  2
DIVIDEX2
 70
0
  3
Divide (2x) ____  . .  ____  . .  ____  . .  ____
 72
65
 73
6
 40
2.6
 49
2.0
 49
-0.2
 49
0.0
 49
-0.2
 49
0.0
 49
-0.2
  0
LTYPE
  2
CENTER
 70
0
  3
Center ____ _ ____ _ ____ _ ____ _ ____ _ ____
 72
65
 73
4
 40
2.0
 49
1.25
 49
-0.25
 49
0.25
 49
-0.25
  0
LTYPE
  2
DASHDOT
 70
0
  3
Dash dot __ . __ . __ . __ . __ . __ . __ . __
 72
65
 73
4
 40
1.4
 49
1.0
 49
-0.2
 49
0.0
 49
-0.2
  0
LTYPE
  2
CENTERX2
 70
0
  3
Center (2x) ________  __  ________  __  ________
 72
65
 73
4
 40
3.5
 49
2.5
 49
-0.25
 49
0.5
 49
-0.25
  0
LTYPE
  2
PHANTOMX2
 70
0
  3
Phantom (2x)____________    ____    ____    ____________
 72
65
 73
6
 40
4.25
 49
2.5
 49
-0.25
 49
0.5
 49
-0.25
 49
0.5
 49
-0.25
  0
LTYPE
  2
CONTINUOUS
 70
0
  3
Solid
 72
65
 73
0
 40
0.0
  0
LTYPE
  2
PHANTOM2
 70
0
  3
Phantom (.5x) ___ _ _ ___ _ _ ___ _ _ ___ _ _ ___
 72
65
 73
6
 40
1.25
 49
0.625
 49
-0.125
 49
0.125
 49
-0.125
 49
0.125
 49
-0.125
  0
LTYPE
  2
DASHED
 70
0
  3
Dashed __ __ __ __ __ __ __ __ __ __ __ __ __ _
 72
65
 73
2
 40
0.6
 49
0.5
 49
-0.1
  0
LTYPE
  2
DASHED2
 70
0
  3
Dashed (.5x) _ _ _ _ _ _ _ _ _ _ _ _ _ _
 72
65
 73
2
 40
0.3
 49
0.25
 49
-0.05
  0
LTYPE
  2
DASHDOT2
 70
0
  3
Dash dot (.5x) _ . _ . _ . _ . _ . _ . _ . _
 72
65
 73
4
 40
0.7
 49
0.5
 49
-0.1
 49
0.0
 49
-0.1
  0
LTYPE
  2
DOTX2
 70
0
  3
Dot (2x) .    .    .    .    .    .    .    . 
 72
65
 73
2
 40
0.4
 49
0.0
 49
-0.4
  0
LTYPE
  2
DIVIDE2
 70
0
  3
Divide(.5x) _ . _ . _ . _ . _ . _ . _ . _
 72
65
 73
6
 40
0.8
 49
0.5
 49
-0.1
 49
0.0
 49
-0.1
 49
0.0
 49
-0.1
  0
LTYPE
  2
CENTER2
 70
0
  3
Center (.5x) ____ _ ____ _ ____ _ ____ _ ____
 72
65
 73
4
 40
1.0
 49
0.625
 49
-0.125
 49
0.125
 49
-0.125
  0
LTYPE
  2
DASHDOTX2
 70
0
  3
Dash dot (2x) ____  .  ____  .  ____  .  ____
 72
65
 73
4
 40
2.4
 49
2.0
 49
-0.2
 49
0.0
 49
-0.2
  0
LTYPE
  2
DOT
 70
0
  3
Dot .  .  .  .  .  .  .  .  .  .  .  .  .  .  .  .
 72
65
 73
2
 40
0.2
 49
0.0
 49
-0.2
  0
LTYPE
  2
DASHEDX2
 70
0
  3
Dashed (2x) ____  ____  ____  ____  ____  ____
 72
65
 73
2
 40
1.2
 49
1.0
 49
-0.2
  0
ENDTAB
  0
TABLE
  2
LAYER
 70
5
  0
LAYER
  2
VIEWPORTS
 70
0
 62
7
  6
CONTINUOUS
  0
LAYER
  2
TABLEGRID
 70
0
 62
1
  6
CONTINUOUS
  0
LAYER
  2
TABLECONTENT
 70
0
 62
1
  6
CONTINUOUS
  0
LAYER
  2
DIMENSIONS
 70
0
 62
1
  6
CONTINUOUS
  0
LAYER
  2
TABLEBACKGROUND
 70
0
 62
1
  6
CONTINUOUS
  0
ENDTAB
  0
TABLE
  2
STYLE
 70
12
  0
STYLE
  2
TIMES
 70
0
 40
0.0
 41
1.0
 42
1.0
 50
0.0
 71
0
  3
times.ttf
  4

  0
STYLE
  2
ARIAL
 70
0
 40
0.0
 41
1.0
 42
1.0
 50
0.0
 71
0
  3
arial.ttf
  4

  0
STYLE
  2
TIMES_BOLD
 70
0
 40
0.0
 41
1.0
 42
1.0
 50
0.0
 71
0
  3
timesbd.ttf
  4

  0
STYLE
  2
ARIAL_BLACK
 70
0
 40
0.0
 41
1.0
 42
1.0
 50
0.0
 71
0
  3
ariblk.ttf
  4

  0
STYLE
  2
TIMES_ITALIC
 70
0
 40
0.0
 41
1.0
 42
1.0
 50
0.0
 71
0
  3
timesi.ttf
  4

  0
STYLE
  2
ISOCPEUR
 70
0
 40
0.0
 41
1.0
 42
1.0
 50
0.0
 71
0
  3
isocpeur.ttf
  4

  0
STYLE
  2
ARIAL_BOLD
 70
0
 40
0.0
 41
1.0
 42
1.0
 50
0.0
 71
0
  3
arialbd.ttf
  4

  0
STYLE
  2
ARIAL_ITALIC
 70
0
 40
0.0
 41
1.0
 42
1.0
 50
0.0
 71
0
  3
ariali.ttf
  4

  0
STYLE
  2
ARIAL_BOLD_ITALIC
 70
0
 40
0.0
 41
1.0
 42
1.0
 50
0.0
 71
0
  3
arialbi.ttf
  4

  0
STYLE
  2
TIMES_BOLD_ITALIC
 70
0
 40
0.0
 41
1.0
 42
1.0
 50
0.0
 71
0
  3
timesbi.ttf
  4

  0
STYLE
  2
ISOCPEUR_ITALIC
 70
0
 40
0.0
 41
1.0
 42
1.0
 50
0.0
 71
0
  3
isocpeui.ttf
  4

  0
STYLE
  2
STANDARD
 70
0
 40
0.0
 41
1.0
 42
1.0
 50
0.0
 71
0
  3
arial.ttf
  4

  0
ENDTAB
  0
TABLE
  2
VIEW
 70
0
  0
ENDTAB
  0
TABLE
  2
APPID
 70
1
  0
APPID
  2
DXFWRITE
 70
0
  0
ENDTAB
  0
TABLE
  2
VPORT
 70
0
  0
ENDTAB
  0
TABLE
  2
UCS
 70
0
  0
ENDTAB
  0
ENDSEC
  0
SECTION
  2
BLOCKS
  0
BLOCK
  8
0
  2
drill_7mm
  3
drill_7mm
 70
0
 10
0.0
 20
0.0
 30
0.0
  0
CIRCLE
  8
0
 10
0.0
 20
0.0
 30
0.0
 40
3.0
  0
ENDBLK
  0
BLOCK
  8
0
  2
cap_20
  3
cap_20
 70
0
 10
0.0
 20
0.0
 30
0.0
  0
POLYLINE
  8
0
 66
1
 10
0.0
 20
0.0
 30
0.0
 70
8
  0
VERTEX
  8
0
 10
1.4
 20
1.075
 30
0.0
  0
VERTEX
  8
0
 10
-1.4
 20
1.075
 30
0.0
  0
VERTEX
  8
0
 10
-1.4
 20
-1.075
 30
0.0
  0
VERTEX
  8
0
 10
1.4
 20
-1.075
 30
0.0
  0
VERTEX
  8
0
 10
1.4
 20
1.075
 30
0.0
  0
SEQEND
  0
POLYLINE
  8
0
 66
1
 10
0.0
 20
0.0
 30
0.0
 70
8
  0
VERTEX
  8
0
 10
-18.0
 20
-7.2
 30
0.0
  0
VERTEX
  8
0
 10
-18.0
 20
7.2
 30
0.0
  0
SEQEND
  0
POLYLINE
  8
0
 66
1
 10
0.0
 20
0.0
 30
0.0
 70
8
  0
VERTEX
  8
0
 10
-16.2
 20
9.0
 30
0.0
  0
VERTEX
  8
0
 10
16.2
 20
9.0
 30
0.0
  0
SEQEND
  0
POLYLINE
  8
0
 66
1
 10
0.0
 20
0.0
 30
0.0
 70
8
  0
VERTEX
  8
0
 10
18.0
 20
-7.2
 30
0.0
  0
VERTEX
  8
0
 10
18.0
 20
7.2
 30
0.0
  0
SEQEND
  0
POLYLINE
  8
0
 66
1
 10
0.0
 20
0.0
 30
0.0
 70
8
  0
VERTEX
  8
0
 10
16.2
 20
-9.0
 30
0.0
  0
VERTEX
  8
0
 10
-16.2
 20
-9.0
 30
0.0
  0
SEQEND
  0
ARC
  8
0
 10
-16.2
 20
7.2
 30
0.0
 40
1.8
 50
90.0
 51
180.0
  0
ARC
  8
0
 10
16.2
 20
7.2
 30
0.0
 40
1.8
 50
0.0
 51
90.0
  0
ARC
  8
0
 10
16.2
 20
-7.2
 30
0.0
 40
1.8
 50
270.0
 51
0.0
  0
ARC
  8
0
 10
-16.2
 20
-7.2
 30
0.0
 40
1.8
 50
180.0
 51
270.0
  0
ENDBLK
  0
BLOCK
  8
0
  2
drill_m3
  3
drill_m3
 70
0
 10
0.0
 20
0.0
 30
0.0
  0
CIRCLE
  8
0
 10
0.0
 20
0.0
 30
0.0
 40
1.45
  0
ENDBLK
  0
BLOCK
  8
0
  2
sw_mnt
  3
sw_mnt
 70
0
 10
0.0
 20
0.0
 30
0.0
  0
POLYLINE
  8
0
 66
1
 10
0.0
 20
0.0
 30
0.0
 70
8
  0
VERTEX
  8
0
 10
-7.65
 20
-6.35
 30
0.0
  0
VERTEX
  8
0
 10
7.65
 20
-6.35
 30
0.0
  0
VERTEX
  8
0
 10
7.65
 20
6.35
 30
0.0
  0
VERTEX
  8
0
 10
-7.65
 20
6.35
 30
0.0
  0
VERTEX
  8
0
 10
-7.65
 20
-6.35
 30
0.0
  0
SEQEND
  0
ATTDEF
 62
3
  8
0
 10
0.0
 20
-0.3
 30
0.0
 40
2.0
  1
Attrib
  3
Input:
  2
NAME
 70
0
  0
ENDBLK
  0
BLOCK
  8
0
  2
cap_10
  3
cap_10
 70
0
 10
0.0
 20
0.0
 30
0.0
  0
POLYLINE
  8
0
 66
1
 10
0.0
 20
0.0
 30
0.0
 70
8
  0
VERTEX
  8
0
 10
1.4
 20
1.075
 30
0.0
  0
VERTEX
  8
0
 10
-1.4
 20
1.075
 30
0.0
  0
VERTEX
  8
0
 10
-1.4
 20
-1.075
 30
0.0
  0
VERTEX
  8
0
 10
1.4
 20
-1.075
 30
0.0
  0
VERTEX
  8
0
 10
1.4
 20
1.075
 30
0.0
  0
SEQEND
  0
POLYLINE
  8
0
 66
1
 10
0.0
 20
0.0
 30
0.0
 70
8
  0
VERTEX
  8
0
 10
-9.0
 20
-7.2
 30
0.0
  0
VERTEX
  8
0
 10
-9.0
 20
7.2
 30
0.0
  0
SEQEND
  0
POLYLINE
  8
0
 66
1
 10
0.0
 20
0.0
 30
0.0
 70
8
  0
VERTEX
  8
0
 10
-7.2
 20
9.0
 30
0.0
  0
VERTEX
  8
0
 10
7.2
 20
9.0
 30
0.0
  0
SEQEND
  0
POLYLINE
  8
0
 66
1
 10
0.0
 20
0.0
 30
0.0
 70
8
  0
VERTEX
  8
0
 10
9.0
 20
-7.2
 30
0.0
  0
VERTEX
  8
0
 10
9.0
 20
7.2
 30
0.0
  0
SEQEND
  0
POLYLINE
  8
0
 66
1
 10
0.0
 20
0.0
 30
0.0
 70
8
  0
VERTEX
  8
0
 10
7.2
 20
-9.0
 30
0.0
  0
VERTEX
  8
0
 10
-7.2
 20
-9.0
 30
0.0
  0
SEQEND
  0
ARC
  8
0
 10
-7.2
 20
7.2
 30
0.0
 40
1.8
 50
90.0
 51
180.0
  0
ARC
  8
0
 10
7.2
 20
7.2
 30
0.0
 40
1.8
 50
0.0
 51
90.0
  0
ARC
  8
0
 10
7.2
 20
-7.2
 30
0.0
 40
1.8
 50
270.0
 51
0.0
  0
ARC
  8
0
 10
-7.2
 20
-7.2
 30
0.0
 40
1.8
 50
180.0
 51
270.0
  0
ENDBLK
  0
BLOCK
  8
0
  2
cap_15
  3
cap_15
 70
0
 10
0.0
 20
0.0
 30
0.0
  0
POLYLINE
  8
0
 66
1
 10
0.0
 20
0.0
 30
0.0
 70
8
  0
VERTEX
  8
0
 10
1.4
 20
1.075
 30
0.0
  0
VERTEX
  8
0
 10
-1.4
 20
1.075
 30
0.0
  0
VERTEX
  8
0
 10
-1.4
 20
-1.075
 30
0.0
  0
VERTEX
  8
0
 10
1.4
 20
-1.075
 30
0.0
  0
VERTEX
  8
0
 10
1.4
 20
1.075
 30
0.0
  0
SEQEND
  0
POLYLINE
  8
0
 66
1
 10
0.0
 20
0.0
 30
0.0
 70
8
  0
VERTEX
  8
0
 10
-13.5
 20
-7.2
 30
0.0
  0
VERTEX
  8
0
 10
-13.5
 20
7.2
 30
0.0
  0
SEQEND
  0
POLYLINE
  8
0
 66
1
 10
0.0
 20
0.0
 30
0.0
 70
8
  0
VERTEX
  8
0
 10
-11.7
 20
9.0
 30
0.0
  0
VERTEX
  8
0
 10
11.7
 20
9.0
 30
0.0
  0
SEQEND
  0
POLYLINE
  8
0
 66
1
 10
0.0
 20
0.0
 30
0.0
 70
8
  0
VERTEX
  8
0
 10
13.5
 20
-7.2
 30
0.0
  0
VERTEX
  8
0
 10
13.5
 20
7.2
 30
0.0
  0
SEQEND
  0
POLYLINE
  8
0
 66
1
 10
0.0
 20
0.0
 30
0.0
 70
8
  0
VERTEX
  8
0
 10
11.7
 20
-9.0
 30
0.0
  0
VERTEX
  8
0
 10
-11.7
 20
-9.0
 30
0.0
  0
SEQEND
  0
ARC
  8
0
 10
-11.7
 20
7.2
 30
0.0
 40
1.8
 50
90.0
 51
180.0
  0
ARC
  8
0
 10
11.7
 20
7.2
 30
0.0
 40
1.8
 50
0.0
 51
90.0
  0
ARC
  8
0
 10
11.7
 20
-7.2
 30
0.0
 40
1.8
 50
270.0
 51
0.0
  0
ARC
  8
0
 10
-11.7
 20
-7.2
 30
0.0
 40
1.8
 50
180.0
 51
270.0
  0
ENDBLK
  0
ENDSEC
  0
SECTION
  2
ENTITIES
  0
VIEWPORT
  8
VIEWPORTS
 67
1
 10
0.0
 20
0.0
 30
0.0
 40
1.0
 41
1.0
 68
1
 69
1
1001
ACAD
1000
MVIEW
1002
{
1070
16
1010
0.0
1020
0.0
1030
0.0
1010
0.0
1020
0.0
1030
0.0
1040
0.0
1040
1.0
1040
0.0
1040
0.0
1040
50.0
1040
0.0
1040
0.0
1070
0
1070
100
1070
1
1070
3
1070
0
1070
0
1070
0
1070
0
1040
0.0
1040
0.0
1040
0.0
1040
0.1
1040
0.1
1040
0.1
1040
0.1
1070
0
1002
{
1002
}
1002
}
  0
INSERT
 62
256
  8
0
  2
drill_m3
 10
191.784301064
 20
59.151359881
 30
0.0
 50
0.0
  0
INSERT
 62
256
  8
0
  2
drill_m3
 10
157.361891471
 20
193.392905639
 30
0.0
 50
0.0
  0
INSERT
 62
256
  8
0
  2
drill_m3
 10
64.4593087347
 20
193.392905639
 30
0.0
 50
0.0
  0
INSERT
 62
256
  8
0
  2
drill_m3
 10
12.1732307451
 20
111.147177959
 30
0.0
 50
0.0
  0
INSERT
 62
256
  8
0
  2
drill_m3
 10
126.18330291
 20
15.1269225808
 30
0.0
 50
0.0
  0
INSERT
 62
256
  8
0
  2
drill_m3
 10
23.3775245206
 20
51.2649892288
 30
0.0
 50
0.0
  0
INSERT
 62
256
  8
0
  2
drill_m3
 10
377.622475479
 20
51.2649892288
 30
0.0
 50
0.0
  0
INSERT
 62
256
  8
0
  2
drill_m3
 10
274.81669709
 20
15.1269225808
 30
0.0
 50
0.0
  0
INSERT
 62
256
  8
0
  2
drill_m3
 10
388.826769255
 20
111.147177959
 30
0.0
 50
0.0
  0
INSERT
 62
256
  8
0
  2
drill_m3
 10
336.540691265
 20
193.392905639
 30
0.0
 50
0.0
  0
INSERT
 62
256
  8
0
  2
drill_m3
 10
243.638108529
 20
193.392905639
 30
0.0
 50
0.0
  0
INSERT
 62
256
  8
0
  2
drill_m3
 10
209.215698936
 20
59.151359881
 30
0.0
 50
0.0
  0
POLYLINE
  8
0
 66
1
 10
0.0
 20
0.0
 30
0.0
 70
8
  0
VERTEX
  8
0
 10
29.5702812891
 20
195.392905639
 30
0.0
  0
VERTEX
  8
0
 10
12.474001159
 20
121.340780715
 30
0.0
  0
VERTEX
  8
0
 10
21.7305167744
 20
119.203745699
 30
0.0
  0
VERTEX
  8
0
 10
17.4564467419
 20
100.690714468
 30
0.0
  0
VERTEX
  8
0
 10
54.4825092037
 20
92.1425744028
 30
0.0
  0
VERTEX
  8
0
 10
55.1573623667
 20
95.0656845972
 30
0.0
  0
VERTEX
  8
0
 10
73.6703935977
 20
90.7916145646
 30
0.0
  0
VERTEX
  8
0
 10
74.0078201792
 20
92.2531696618
 30
0.0
  0
VERTEX
  8
0
 10
92.5208514101
 20
87.9790996293
 30
0.0
  0
VERTEX
  8
0
 10
92.1834248286
 20
86.5175445321
 30
0.0
  0
VERTEX
  8
0
 10
110.69645606
 20
82.2434744996
 30
0.0
  0
VERTEX
  8
0
 10
114.633099511
 20
99.2949506333
 30
0.0
  0
VERTEX
  8
0
 10
133.146130741
 20
95.0208806008
 30
0.0
  0
VERTEX
  8
0
 10
151.659161972
 20
90.7468105682
 30
0.0
  0
VERTEX
  8
0
 10
158.070267021
 20
118.516357415
 30
0.0
  0
VERTEX
  8
0
 10
168.755442102
 20
164.798935492
 30
0.0
  0
VERTEX
  8
0
 10
131.729379641
 20
173.347075557
 30
0.0
  0
VERTEX
  8
0
 10
132.066806222
 20
174.808630654
 30
0.0
  0
VERTEX
  8
0
 10
113.553774991
 20
179.082700687
 30
0.0
  0
VERTEX
  8
0
 10
113.891201573
 20
180.544255784
 30
0.0
  0
VERTEX
  8
0
 10
95.3781703418
 20
184.818325816
 30
0.0
  0
VERTEX
  8
0
 10
95.0407437603
 20
183.356770719
 30
0.0
  0
VERTEX
  8
0
 10
76.5277125294
 20
187.630840752
 30
0.0
  0
VERTEX
  8
0
 10
75.8528593664
 20
184.707730557
 30
0.0
  0
VERTEX
  8
0
 10
29.5702812891
 20
195.392905639
 30
0.0
  0
SEQEND
  0
POLYLINE
  8
0
 66
1
 10
0.0
 20
0.0
 30
0.0
 70
8
  0
VERTEX
  8
0
 10
371.429718711
 20
195.392905639
 30
0.0
  0
VERTEX
  8
0
 10
388.525998841
 20
121.340780715
 30
0.0
  0
VERTEX
  8
0
 10
379.269483226
 20
119.203745699
 30
0.0
  0
VERTEX
  8
0
 10
383.543553258
 20
100.690714468
 30
0.0
  0
VERTEX
  8
0
 10
346.517490796
 20
92.1425744028
 30
0.0
  0
VERTEX
  8
0
 10
345.842637633
 20
95.0656845972
 30
0.0
  0
VERTEX
  8
0
 10
327.329606402
 20
90.7916145646
 30
0.0
  0
VERTEX
  8
0
 10
326.992179821
 20
92.2531696618
 30
0.0
  0
VERTEX
  8
0
 10
308.47914859
 20
87.9790996293
 30
0.0
  0
VERTEX
  8
0
 10
308.816575171
 20
86.5175445321
 30
0.0
  0
VERTEX
  8
0
 10
290.30354394
 20
82.2434744996
 30
0.0
  0
VERTEX
  8
0
 10
286.366900489
 20
99.2949506333
 30
0.0
  0
VERTEX
  8
0
 10
267.853869259
 20
95.0208806008
 30
0.0
  0
VERTEX
  8
0
 10
249.340838028
 20
90.7468105682
 30
0.0
  0
VERTEX
  8
0
 10
242.929732979
 20
118.516357415
 30
0.0
  0
VERTEX
  8
0
 10
232.244557898
 20
164.798935492
 30
0.0
  0
VERTEX
  8
0
 10
269.270620359
 20
173.347075557
 30
0.0
  0
VERTEX
  8
0
 10
268.933193778
 20
174.808630654
 30
0.0
  0
VERTEX
  8
0
 10
287.446225009
 20
179.082700687
 30
0.0
  0
VERTEX
  8
0
 10
287.108798427
 20
180.544255784
 30
0.0
  0
VERTEX
  8
0
 10
305.621829658
 20
184.818325816
 30
0.0
  0
VERTEX
  8
0
 10
305.95925624
 20
183.356770719
 30
0.0
  0
VERTEX
  8
0
 10
324.472287471
 20
187.630840752
 30
0.0
  0
VERTEX
  8
0
 10
325.147140634
 20
184.707730557
 30
0.0
  0
VERTEX
  8
0
 10
371.429718711
 20
195.392905639
 30
0.0
  0
SEQEND
  0
POLYLINE
  8
0
 66
1
 10
0.0
 20
0.0
 30
0.0
 70
8
  0
VERTEX
  8
0
 10
110.137665871
 20
62.6623371939
 30
0.0
  0
VERTEX
  8
0
 10
155.054278827
 20
27.5696331003
 30
0.0
  0
VERTEX
  8
0
 10
190.14698292
 20
72.4862460559
 30
0.0
  0
VERTEX
  8
0
 10
160.202574283
 20
95.8813821183
 30
0.0
  0
VERTEX
  8
0
 10
148.505006252
 20
80.9091777997
 30
0.0
  0
VERTEX
  8
0
 10
133.532801933
 20
92.6067458309
 30
0.0
  0
VERTEX
  8
0
 10
110.137665871
 20
62.6623371939
 30
0.0
  0
SEQEND
  0
POLYLINE
  8
0
 66
1
 10
0.0
 20
0.0
 30
0.0
 70
8
  0
VERTEX
  8
0
 10
290.862334129
 20
62.6623371939
 30
0.0
  0
VERTEX
  8
0
 10
245.945721173
 20
27.5696331003
 30
0.0
  0
VERTEX
  8
0
 10
210.85301708
 20
72.4862460559
 30
0.0
  0
VERTEX
  8
0
 10
240.797425717
 20
95.8813821183
 30
0.0
  0
VERTEX
  8
0
 10
252.494993748
 20
80.9091777997
 30
0.0
  0
VERTEX
  8
0
 10
267.467198067
 20
92.6067458309
 30
0.0
  0
VERTEX
  8
0
 10
290.862334129
 20
62.6623371939
 30
0.0
  0
SEQEND
  0
POLYLINE
  8
0
 66
1
 10
0.0
 20
0.0
 30
0.0
 70
8
  0
VERTEX
  8
0
 10
6.4773955633
 20
117.593685663
 30
0.0
  0
VERTEX
  8
0
 10
24.6984309652
 20
196.51766091
 30
0.0
  0
SEQEND
  0
ARC
  8
0
 10
29.5702812891
 20
195.392905639
 30
0.0
 40
5.0
 50
90.0
 51
167.0
  0
POLYLINE
  8
0
 66
1
 10
0.0
 20
0.0
 30
0.0
 70
8
  0
VERTEX
  8
0
 10
29.5702812891
 20
200.392905639
 30
0.0
  0
VERTEX
  8
0
 10
371.429718711
 20
200.392905639
 30
0.0
  0
SEQEND
  0
ARC
  8
0
 10
371.429718711
 20
195.392905639
 30
0.0
 40
5.0
 50
13.0
 51
90.0
  0
POLYLINE
  8
0
 66
1
 10
0.0
 20
0.0
 30
0.0
 70
8
  0
VERTEX
  8
0
 10
376.301569035
 20
196.51766091
 30
0.0
  0
VERTEX
  8
0
 10
394.522604437
 20
117.593685663
 30
0.0
  0
SEQEND
  0
ARC
  8
0
 10
303.906188412
 20
96.6732376089
 30
0.0
 40
93.0
 50
223.67929137
 51
13.0
  0
ARC
  8
0
 10
200.5
 20
-2.07238181551
 30
0.0
 40
49.9808978757
 50
43.6792913704
 51
-223.67929137
  0
ARC
  8
0
 10
97.0938115883
 20
96.6732376089
 30
0.0
 40
93.0
 50
167.0
 51
-43.6792913704
  0
INSERT
 62
256
  8
0
  2
cap_20
 10
129.321336062
 20
71.7857574968
 30
0.0
 50
52.0
  0
INSERT
 62
256
  8
0
  2
cap_20
 10
144.29354038
 20
60.0881894656
 30
0.0
 50
52.0
  0
INSERT
 62
256
  8
0
  2
cap_10
 10
153.416960683
 20
40.9045192752
 30
0.0
 50
-38.0
  0
INSERT
 62
256
  8
0
  2
cap_10
 10
165.114528714
 20
55.8767235937
 30
0.0
 50
-38.0
  0
INSERT
 62
256
  8
0
  2
cap_10
 10
176.812096745
 20
70.8489279122
 30
0.0
 50
-38.0
  0
INSERT
 62
256
  8
0
  2
cap_10
 10
161.839892427
 20
82.5464959434
 30
0.0
 50
-38.0
  0
INSERT
 62
256
  8
0
  2
cap_10
 10
157.361891471
 20
157.679454893
 30
0.0
 50
-13.0
  0
INSERT
 62
256
  8
0
  2
cap_15
 10
152.01930393
 20
134.538165854
 30
0.0
 50
77.0
  0
INSERT
 62
256
  8
0
  2
cap_15
 10
145.608198881
 20
106.768619008
 30
0.0
 50
77.0
  0
INSERT
 62
256
  8
0
  2
cap_10
 10
138.84886024
 20
161.953524925
 30
0.0
 50
-13.0
  0
INSERT
 62
256
  8
0
  2
cap_10
 10
134.574790207
 20
143.440493694
 30
0.0
 50
-13.0
  0
INSERT
 62
256
  8
0
  2
cap_10
 10
130.300720175
 20
124.927462463
 30
0.0
 50
-13.0
  0
INSERT
 62
256
  8
0
  2
cap_10
 10
126.026650142
 20
106.414431232
 30
0.0
 50
-13.0
  0
INSERT
 62
256
  8
0
  2
cap_10
 10
120.67325559
 20
167.689150055
 30
0.0
 50
-13.0
  0
INSERT
 62
256
  8
0
  2
cap_10
 10
116.399185558
 20
149.176118824
 30
0.0
 50
-13.0
  0
INSERT
 62
256
  8
0
  2
cap_10
 10
112.125115525
 20
130.663087593
 30
0.0
 50
-13.0
  0
INSERT
 62
256
  8
0
  2
cap_10
 10
107.851045493
 20
112.150056362
 30
0.0
 50
-13.0
  0
INSERT
 62
256
  8
0
  2
cap_10
 10
103.57697546
 20
93.6370251313
 30
0.0
 50
-13.0
  0
INSERT
 62
256
  8
0
  2
cap_10
 10
102.497650941
 20
173.424775185
 30
0.0
 50
-13.0
  0
INSERT
 62
256
  8
0
  2
cap_10
 10
98.2235809085
 20
154.911743954
 30
0.0
 50
-13.0
  0
INSERT
 62
256
  8
0
  2
cap_10
 10
93.949510876
 20
136.398712723
 30
0.0
 50
-13.0
  0
INSERT
 62
256
  8
0
  2
cap_10
 10
89.6754408434
 20
117.885681492
 30
0.0
 50
-13.0
  0
INSERT
 62
256
  8
0
  2
cap_10
 10
85.4013708109
 20
99.372650261
 30
0.0
 50
-13.0
  0
INSERT
 62
256
  8
0
  2
cap_10
 10
83.6471931286
 20
176.23729012
 30
0.0
 50
-13.0
  0
INSERT
 62
256
  8
0
  2
cap_10
 10
79.3731230961
 20
157.724258889
 30
0.0
 50
-13.0
  0
INSERT
 62
256
  8
0
  2
cap_10
 10
75.0990530635
 20
139.211227658
 30
0.0
 50
-13.0
  0
INSERT
 62
256
  8
0
  2
cap_10
 10
70.824983031
 20
120.698196427
 30
0.0
 50
-13.0
  0
INSERT
 62
256
  8
0
  2
cap_10
 10
66.5509129985
 20
102.185165196
 30
0.0
 50
-13.0
  0
INSERT
 62
256
  8
0
  2
cap_10
 10
64.4593087347
 20
177.588249958
 30
0.0
 50
-13.0
  0
INSERT
 62
256
  8
0
  2
cap_10
 10
60.1852387021
 20
159.075218727
 30
0.0
 50
-13.0
  0
INSERT
 62
256
  8
0
  2
cap_10
 10
55.9111686696
 20
140.562187496
 30
0.0
 50
-13.0
  0
INSERT
 62
256
  8
0
  2
cap_10
 10
51.6370986371
 20
122.049156265
 30
0.0
 50
-13.0
  0
INSERT
 62
256
  8
0
  2
cap_10
 10
47.3630286045
 20
103.536125035
 30
0.0
 50
-13.0
  0
INSERT
 62
256
  8
0
  2
cap_15
 10
41.318019696
 20
182.930837499
 30
0.0
 50
-13.0
  0
INSERT
 62
256
  8
0
  2
cap_15
 10
37.0439496635
 20
164.417806268
 30
0.0
 50
-13.0
  0
INSERT
 62
256
  8
0
  2
cap_15
 10
32.7698796309
 20
145.904775037
 30
0.0
 50
-13.0
  0
INSERT
 62
256
  8
0
  2
cap_15
 10
28.4958095984
 20
127.391743806
 30
0.0
 50
-13.0
  0
INSERT
 62
256
  8
0
  2
cap_10
 10
28.8499973736
 20
107.810195067
 30
0.0
 50
-13.0
  0
INSERT
 62
256
  8
0
  2
cap_20
 10
271.678663938
 20
71.7857574968
 30
0.0
 50
-52.0
  0
INSERT
 62
256
  8
0
  2
cap_20
 10
256.70645962
 20
60.0881894656
 30
0.0
 50
-52.0
  0
INSERT
 62
256
  8
0
  2
cap_10
 10
247.583039317
 20
40.9045192752
 30
0.0
 50
38.0
  0
INSERT
 62
256
  8
0
  2
cap_10
 10
235.885471286
 20
55.8767235937
 30
0.0
 50
38.0
  0
INSERT
 62
256
  8
0
  2
cap_10
 10
224.187903255
 20
70.8489279122
 30
0.0
 50
38.0
  0
INSERT
 62
256
  8
0
  2
cap_10
 10
239.160107573
 20
82.5464959434
 30
0.0
 50
38.0
  0
INSERT
 62
256
  8
0
  2
cap_10
 10
243.638108529
 20
157.679454893
 30
0.0
 50
13.0
  0
INSERT
 62
256
  8
0
  2
cap_15
 10
248.98069607
 20
134.538165854
 30
0.0
 50
-77.0
  0
INSERT
 62
256
  8
0
  2
cap_15
 10
255.391801119
 20
106.768619008
 30
0.0
 50
-77.0
  0
INSERT
 62
256
  8
0
  2
cap_10
 10
262.15113976
 20
161.953524925
 30
0.0
 50
13.0
  0
INSERT
 62
256
  8
0
  2
cap_10
 10
266.425209793
 20
143.440493694
 30
0.0
 50
13.0
  0
INSERT
 62
256
  8
0
  2
cap_10
 10
270.699279825
 20
124.927462463
 30
0.0
 50
13.0
  0
INSERT
 62
256
  8
0
  2
cap_10
 10
274.973349858
 20
106.414431232
 30
0.0
 50
13.0
  0
INSERT
 62
256
  8
0
  2
cap_10
 10
280.32674441
 20
167.689150055
 30
0.0
 50
13.0
  0
INSERT
 62
256
  8
0
  2
cap_10
 10
284.600814442
 20
149.176118824
 30
0.0
 50
13.0
  0
INSERT
 62
256
  8
0
  2
cap_10
 10
288.874884475
 20
130.663087593
 30
0.0
 50
13.0
  0
INSERT
 62
256
  8
0
  2
cap_10
 10
293.148954507
 20
112.150056362
 30
0.0
 50
13.0
  0
INSERT
 62
256
  8
0
  2
cap_10
 10
297.42302454
 20
93.6370251313
 30
0.0
 50
13.0
  0
INSERT
 62
256
  8
0
  2
cap_10
 10
298.502349059
 20
173.424775185
 30
0.0
 50
13.0
  0
INSERT
 62
256
  8
0
  2
cap_10
 10
302.776419091
 20
154.911743954
 30
0.0
 50
13.0
  0
INSERT
 62
256
  8
0
  2
cap_10
 10
307.050489124
 20
136.398712723
 30
0.0
 50
13.0
  0
INSERT
 62
256
  8
0
  2
cap_10
 10
311.324559157
 20
117.885681492
 30
0.0
 50
13.0
  0
INSERT
 62
256
  8
0
  2
cap_10
 10
315.598629189
 20
99.372650261
 30
0.0
 50
13.0
  0
INSERT
 62
256
  8
0
  2
cap_10
 10
317.352806871
 20
176.23729012
 30
0.0
 50
13.0
  0
INSERT
 62
256
  8
0
  2
cap_10
 10
321.626876904
 20
157.724258889
 30
0.0
 50
13.0
  0
INSERT
 62
256
  8
0
  2
cap_10
 10
325.900946936
 20
139.211227658
 30
0.0
 50
13.0
  0
INSERT
 62
256
  8
0
  2
cap_10
 10
330.175016969
 20
120.698196427
 30
0.0
 50
13.0
  0
INSERT
 62
256
  8
0
  2
cap_10
 10
334.449087002
 20
102.185165196
 30
0.0
 50
13.0
  0
INSERT
 62
256
  8
0
  2
cap_10
 10
336.540691265
 20
177.588249958
 30
0.0
 50
13.0
  0
INSERT
 62
256
  8
0
  2
cap_10
 10
340.814761298
 20
159.075218727
 30
0.0
 50
13.0
  0
INSERT
 62
256
  8
0
  2
cap_10
 10
345.08883133
 20
140.562187496
 30
0.0
 50
13.0
  0
INSERT
 62
256
  8
0
  2
cap_10
 10
349.362901363
 20
122.049156265
 30
0.0
 50
13.0
  0
INSERT
 62
256
  8
0
  2
cap_10
 10
353.636971395
 20
103.536125035
 30
0.0
 50
13.0
  0
INSERT
 62
256
  8
0
  2
cap_15
 10
359.681980304
 20
182.930837499
 30
0.0
 50
13.0
  0
INSERT
 62
256
  8
0
  2
cap_15
 10
363.956050337
 20
164.417806268
 30
0.0
 50
13.0
  0
INSERT
 62
256
  8
0
  2
cap_15
 10
368.230120369
 20
145.904775037
 30
0.0
 50
13.0
  0
INSERT
 62
256
  8
0
  2
cap_15
 10
372.504190402
 20
127.391743806
 30
0.0
 50
13.0
  0
INSERT
 62
256
  8
0
  2
cap_10
 10
372.150002626
 20
107.810195067
 30
0.0
 50
13.0
  0
ENDSEC
  0
EOF
