  0
SECTION
  2
HEADER
  9
$ACADVER
  1
AC1009
  9
$EXTMIN
 10
0.0
 20
0.0
 30
0.0
  9
$EXTMAX
 10
100.0
 20
100.0
 30
0.0
  9
$INSBASE
 10
0.0
 20
0.0
 30
0.0
  0
ENDSEC
  0
SECTION
  2
TABLES
  0
TABLE
  2
LTYPE
 70
19
  0
LTYPE
  2
PHANTOM
 70
0
  3
Phantom ______  __  __  ______  __  __  ______
 72
65
 73
6
 40
2.5
 49
1.25
 49
-0.25
 49
0.25
 49
-0.25
 49
0.25
 49
-0.25
  0
LTYPE
  2
DOT2
 70
0
  3
Dot (.5) . . . . . . . . . . . . . . . . . . . 
 72
65
 73
2
 40
0.1
 49
0.0
 49
-0.1
  0
LTYPE
  2
DIVIDE
 70
0
  3
Divide __ . . __ . . __ . . __ . . __ . . __
 72
65
 73
6
 40
1.6
 49
1.0
 49
-0.2
 49
0.0
 49
-0.2
 49
0.0
 49
-0.2
  0
LTYPE
  2
DIVIDEX2
 70
0
  3
Divide (2x) ____  . .  ____  . .  ____  . .  ____
 72
65
 73
6
 40
2.6
 49
2.0
 49
-0.2
 49
0.0
 49
-0.2
 49
0.0
 49
-0.2
  0
LTYPE
  2
CENTER
 70
0
  3
Center ____ _ ____ _ ____ _ ____ _ ____ _ ____
 72
65
 73
4
 40
2.0
 49
1.25
 49
-0.25
 49
0.25
 49
-0.25
  0
LTYPE
  2
DASHDOT
 70
0
  3
Dash dot __ . __ . __ . __ . __ . __ . __ . __
 72
65
 73
4
 40
1.4
 49
1.0
 49
-0.2
 49
0.0
 49
-0.2
  0
LTYPE
  2
CENTERX2
 70
0
  3
Center (2x) ________  __  ________  __  ________
 72
65
 73
4
 40
3.5
 49
2.5
 49
-0.25
 49
0.5
 49
-0.25
  0
LTYPE
  2
PHANTOMX2
 70
0
  3
Phantom (2x)____________    ____    ____    ____________
 72
65
 73
6
 40
4.25
 49
2.5
 49
-0.25
 49
0.5
 49
-0.25
 49
0.5
 49
-0.25
  0
LTYPE
  2
CONTINUOUS
 70
0
  3
Solid
 72
65
 73
0
 40
0.0
  0
LTYPE
  2
PHANTOM2
 70
0
  3
Phantom (.5x) ___ _ _ ___ _ _ ___ _ _ ___ _ _ ___
 72
65
 73
6
 40
1.25
 49
0.625
 49
-0.125
 49
0.125
 49
-0.125
 49
0.125
 49
-0.125
  0
LTYPE
  2
DASHED
 70
0
  3
Dashed __ __ __ __ __ __ __ __ __ __ __ __ __ _
 72
65
 73
2
 40
0.6
 49
0.5
 49
-0.1
  0
LTYPE
  2
DASHED2
 70
0
  3
Dashed (.5x) _ _ _ _ _ _ _ _ _ _ _ _ _ _
 72
65
 73
2
 40
0.3
 49
0.25
 49
-0.05
  0
LTYPE
  2
DASHDOT2
 70
0
  3
Dash dot (.5x) _ . _ . _ . _ . _ . _ . _ . _
 72
65
 73
4
 40
0.7
 49
0.5
 49
-0.1
 49
0.0
 49
-0.1
  0
LTYPE
  2
DOTX2
 70
0
  3
Dot (2x) .    .    .    .    .    .    .    . 
 72
65
 73
2
 40
0.4
 49
0.0
 49
-0.4
  0
LTYPE
  2
DIVIDE2
 70
0
  3
Divide(.5x) _ . _ . _ . _ . _ . _ . _ . _
 72
65
 73
6
 40
0.8
 49
0.5
 49
-0.1
 49
0.0
 49
-0.1
 49
0.0
 49
-0.1
  0
LTYPE
  2
CENTER2
 70
0
  3
Center (.5x) ____ _ ____ _ ____ _ ____ _ ____
 72
65
 73
4
 40
1.0
 49
0.625
 49
-0.125
 49
0.125
 49
-0.125
  0
LTYPE
  2
DASHDOTX2
 70
0
  3
Dash dot (2x) ____  .  ____  .  ____  .  ____
 72
65
 73
4
 40
2.4
 49
2.0
 49
-0.2
 49
0.0
 49
-0.2
  0
LTYPE
  2
DOT
 70
0
  3
Dot .  .  .  .  .  .  .  .  .  .  .  .  .  .  .  .
 72
65
 73
2
 40
0.2
 49
0.0
 49
-0.2
  0
LTYPE
  2
DASHEDX2
 70
0
  3
Dashed (2x) ____  ____  ____  ____  ____  ____
 72
65
 73
2
 40
1.2
 49
1.0
 49
-0.2
  0
ENDTAB
  0
TABLE
  2
LAYER
 70
5
  0
LAYER
  2
VIEWPORTS
 70
0
 62
7
  6
CONTINUOUS
  0
LAYER
  2
TABLEGRID
 70
0
 62
1
  6
CONTINUOUS
  0
LAYER
  2
TABLECONTENT
 70
0
 62
1
  6
CONTINUOUS
  0
LAYER
  2
DIMENSIONS
 70
0
 62
1
  6
CONTINUOUS
  0
LAYER
  2
TABLEBACKGROUND
 70
0
 62
1
  6
CONTINUOUS
  0
ENDTAB
  0
TABLE
  2
STYLE
 70
12
  0
STYLE
  2
TIMES
 70
0
 40
0.0
 41
1.0
 42
1.0
 50
0.0
 71
0
  3
times.ttf
  4

  0
STYLE
  2
ARIAL
 70
0
 40
0.0
 41
1.0
 42
1.0
 50
0.0
 71
0
  3
arial.ttf
  4

  0
STYLE
  2
TIMES_BOLD
 70
0
 40
0.0
 41
1.0
 42
1.0
 50
0.0
 71
0
  3
timesbd.ttf
  4

  0
STYLE
  2
ARIAL_BLACK
 70
0
 40
0.0
 41
1.0
 42
1.0
 50
0.0
 71
0
  3
ariblk.ttf
  4

  0
STYLE
  2
TIMES_ITALIC
 70
0
 40
0.0
 41
1.0
 42
1.0
 50
0.0
 71
0
  3
timesi.ttf
  4

  0
STYLE
  2
ISOCPEUR
 70
0
 40
0.0
 41
1.0
 42
1.0
 50
0.0
 71
0
  3
isocpeur.ttf
  4

  0
STYLE
  2
ARIAL_BOLD
 70
0
 40
0.0
 41
1.0
 42
1.0
 50
0.0
 71
0
  3
arialbd.ttf
  4

  0
STYLE
  2
ARIAL_ITALIC
 70
0
 40
0.0
 41
1.0
 42
1.0
 50
0.0
 71
0
  3
ariali.ttf
  4

  0
STYLE
  2
ARIAL_BOLD_ITALIC
 70
0
 40
0.0
 41
1.0
 42
1.0
 50
0.0
 71
0
  3
arialbi.ttf
  4

  0
STYLE
  2
TIMES_BOLD_ITALIC
 70
0
 40
0.0
 41
1.0
 42
1.0
 50
0.0
 71
0
  3
timesbi.ttf
  4

  0
STYLE
  2
ISOCPEUR_ITALIC
 70
0
 40
0.0
 41
1.0
 42
1.0
 50
0.0
 71
0
  3
isocpeui.ttf
  4

  0
STYLE
  2
STANDARD
 70
0
 40
0.0
 41
1.0
 42
1.0
 50
0.0
 71
0
  3
arial.ttf
  4

  0
ENDTAB
  0
TABLE
  2
VIEW
 70
0
  0
ENDTAB
  0
TABLE
  2
APPID
 70
1
  0
APPID
  2
DXFWRITE
 70
0
  0
ENDTAB
  0
TABLE
  2
VPORT
 70
0
  0
ENDTAB
  0
TABLE
  2
UCS
 70
0
  0
ENDTAB
  0
ENDSEC
  0
SECTION
  2
BLOCKS
  0
BLOCK
  8
0
  2
sw_mnt
  3
sw_mnt
 70
0
 10
0.0
 20
0.0
 30
0.0
  0
POLYLINE
  8
0
 66
1
 10
0.0
 20
0.0
 30
0.0
 70
8
  0
VERTEX
  8
0
 10
-7.65
 20
-6.35
 30
0.0
  0
VERTEX
  8
0
 10
7.65
 20
-6.35
 30
0.0
  0
VERTEX
  8
0
 10
7.65
 20
6.35
 30
0.0
  0
VERTEX
  8
0
 10
-7.65
 20
6.35
 30
0.0
  0
VERTEX
  8
0
 10
-7.65
 20
-6.35
 30
0.0
  0
SEQEND
  0
ATTDEF
 62
3
  8
0
 10
0.0
 20
-0.3
 30
0.0
 40
2.0
  1
Attrib
  3
Input:
  2
NAME
 70
0
  0
ENDBLK
  0
BLOCK
  8
0
  2
drill_7mm
  3
drill_7mm
 70
0
 10
0.0
 20
0.0
 30
0.0
  0
CIRCLE
  8
0
 10
0.0
 20
0.0
 30
0.0
 40
3.0
  0
ENDBLK
  0
BLOCK
  8
0
  2
drill_m3
  3
drill_m3
 70
0
 10
0.0
 20
0.0
 30
0.0
  0
CIRCLE
  8
0
 10
0.0
 20
0.0
 30
0.0
 40
1.45
  0
ENDBLK
  0
ENDSEC
  0
SECTION
  2
ENTITIES
  0
VIEWPORT
  8
VIEWPORTS
 67
1
 10
0.0
 20
0.0
 30
0.0
 40
1.0
 41
1.0
 68
1
 69
1
1001
ACAD
1000
MVIEW
1002
{
1070
16
1010
0.0
1020
0.0
1030
0.0
1010
0.0
1020
0.0
1030
0.0
1040
0.0
1040
1.0
1040
0.0
1040
0.0
1040
50.0
1040
0.0
1040
0.0
1070
0
1070
100
1070
1
1070
3
1070
0
1070
0
1070
0
1070
0
1040
0.0
1040
0.0
1040
0.0
1040
0.1
1040
0.1
1040
0.1
1040
0.1
1070
0
1002
{
1002
}
1002
}
  0
INSERT
 62
256
  8
0
 66
1
  2
sw_mnt
 10
140.746732316
 20
66.4127085227
 30
0.0
 50
52.0
  0
ATTRIB
 62
3
  8
0
 10
140.983135542
 20
66.2280100801
 30
0.0
 40
2.0
  1
0
  2
NAME
 70
0
 50
52.0
 11
140.983135542
 21
66.2280100801
 31
0.0
  0
SEQEND
  0
INSERT
 62
256
  8
0
 66
1
  2
sw_mnt
 10
155.718936635
 20
54.7151404915
 30
0.0
 50
52.0
  0
ATTRIB
 62
3
  8
0
 10
155.955339861
 20
54.5304420489
 30
0.0
 40
2.0
  1
1
  2
NAME
 70
0
 50
52.0
 11
155.955339861
 21
54.5304420489
 31
0.0
  0
SEQEND
  0
INSERT
 62
256
  8
0
 66
1
  2
sw_mnt
 10
164.842356938
 20
35.531470301
 30
0.0
 50
-38.0
  0
ATTRIB
 62
3
  8
0
 10
164.657658495
 20
35.295067075
 30
0.0
 40
2.0
  1
2
  2
NAME
 70
0
 50
-38.0
 11
164.657658495
 21
35.295067075
 31
0.0
  0
SEQEND
  0
INSERT
 62
256
  8
0
 66
1
  2
sw_mnt
 10
176.539924969
 20
50.5036746196
 30
0.0
 50
-38.0
  0
ATTRIB
 62
3
  8
0
 10
176.355226526
 20
50.2672713935
 30
0.0
 40
2.0
  1
3
  2
NAME
 70
0
 50
-38.0
 11
176.355226526
 21
50.2672713935
 31
0.0
  0
SEQEND
  0
INSERT
 62
256
  8
0
 66
1
  2
sw_mnt
 10
188.237493
 20
65.4758789381
 30
0.0
 50
-38.0
  0
ATTRIB
 62
3
  8
0
 10
188.052794558
 20
65.239475712
 30
0.0
 40
2.0
  1
4
  2
NAME
 70
0
 50
-38.0
 11
188.052794558
 21
65.239475712
 31
0.0
  0
SEQEND
  0
INSERT
 62
256
  8
0
 66
1
  2
sw_mnt
 10
173.265288682
 20
77.1734469693
 30
0.0
 50
-38.0
  0
ATTRIB
 62
3
  8
0
 10
173.080590239
 20
76.9370437432
 30
0.0
 40
2.0
  1
5
  2
NAME
 70
0
 50
-38.0
 11
173.080590239
 21
76.9370437432
 31
0.0
  0
SEQEND
  0
INSERT
 62
256
  8
0
 66
1
  2
sw_mnt
 10
168.787287725
 20
152.306405919
 30
0.0
 50
-13.0
  0
ATTRIB
 62
3
  8
0
 10
168.719802409
 20
152.014094899
 30
0.0
 40
2.0
  1
6
  2
NAME
 70
0
 50
-13.0
 11
168.719802409
 21
152.014094899
 31
0.0
  0
SEQEND
  0
INSERT
 62
256
  8
0
 66
1
  2
sw_mnt
 10
163.444700185
 20
129.16511688
 30
0.0
 50
77.0
  0
ATTRIB
 62
3
  8
0
 10
163.737011204
 20
129.097631564
 30
0.0
 40
2.0
  1
7
  2
NAME
 70
0
 50
77.0
 11
163.737011204
 21
129.097631564
 31
0.0
  0
SEQEND
  0
INSERT
 62
256
  8
0
 66
1
  2
sw_mnt
 10
157.033595136
 20
101.395570034
 30
0.0
 50
77.0
  0
ATTRIB
 62
3
  8
0
 10
157.325906155
 20
101.328084717
 30
0.0
 40
2.0
  1
8
  2
NAME
 70
0
 50
77.0
 11
157.325906155
 21
101.328084717
 31
0.0
  0
SEQEND
  0
INSERT
 62
256
  8
0
 66
1
  2
sw_mnt
 10
150.274256495
 20
156.580475951
 30
0.0
 50
-13.0
  0
ATTRIB
 62
3
  8
0
 10
150.206771178
 20
156.288164932
 30
0.0
 40
2.0
  1
9
  2
NAME
 70
0
 50
-13.0
 11
150.206771178
 21
156.288164932
 31
0.0
  0
SEQEND
  0
INSERT
 62
256
  8
0
 66
1
  2
sw_mnt
 10
146.000186462
 20
138.06744472
 30
0.0
 50
-13.0
  0
ATTRIB
 62
3
  8
0
 10
145.932701146
 20
137.775133701
 30
0.0
 40
2.0
  1
10
  2
NAME
 70
0
 50
-13.0
 11
145.932701146
 21
137.775133701
 31
0.0
  0
SEQEND
  0
INSERT
 62
256
  8
0
 66
1
  2
sw_mnt
 10
141.72611643
 20
119.554413489
 30
0.0
 50
-13.0
  0
ATTRIB
 62
3
  8
0
 10
141.658631113
 20
119.26210247
 30
0.0
 40
2.0
  1
11
  2
NAME
 70
0
 50
-13.0
 11
141.658631113
 21
119.26210247
 31
0.0
  0
SEQEND
  0
INSERT
 62
256
  8
0
 66
1
  2
sw_mnt
 10
137.452046397
 20
101.041382258
 30
0.0
 50
-13.0
  0
ATTRIB
 62
3
  8
0
 10
137.384561081
 20
100.749071239
 30
0.0
 40
2.0
  1
12
  2
NAME
 70
0
 50
-13.0
 11
137.384561081
 21
100.749071239
 31
0.0
  0
SEQEND
  0
INSERT
 62
256
  8
0
 66
1
  2
sw_mnt
 10
132.098651845
 20
162.316101081
 30
0.0
 50
-13.0
  0
ATTRIB
 62
3
  8
0
 10
132.031166529
 20
162.023790061
 30
0.0
 40
2.0
  1
13
  2
NAME
 70
0
 50
-13.0
 11
132.031166529
 21
162.023790061
 31
0.0
  0
SEQEND
  0
INSERT
 62
256
  8
0
 66
1
  2
sw_mnt
 10
127.824581813
 20
143.80306985
 30
0.0
 50
-13.0
  0
ATTRIB
 62
3
  8
0
 10
127.757096496
 20
143.51075883
 30
0.0
 40
2.0
  1
14
  2
NAME
 70
0
 50
-13.0
 11
127.757096496
 21
143.51075883
 31
0.0
  0
SEQEND
  0
INSERT
 62
256
  8
0
 66
1
  2
sw_mnt
 10
123.55051178
 20
125.290038619
 30
0.0
 50
-13.0
  0
ATTRIB
 62
3
  8
0
 10
123.483026464
 20
124.9977276
 30
0.0
 40
2.0
  1
15
  2
NAME
 70
0
 50
-13.0
 11
123.483026464
 21
124.9977276
 31
0.0
  0
SEQEND
  0
INSERT
 62
256
  8
0
 66
1
  2
sw_mnt
 10
119.276441748
 20
106.777007388
 30
0.0
 50
-13.0
  0
ATTRIB
 62
3
  8
0
 10
119.208956431
 20
106.484696369
 30
0.0
 40
2.0
  1
16
  2
NAME
 70
0
 50
-13.0
 11
119.208956431
 21
106.484696369
 31
0.0
  0
SEQEND
  0
INSERT
 62
256
  8
0
 66
1
  2
sw_mnt
 10
115.002371715
 20
88.2639761572
 30
0.0
 50
-13.0
  0
ATTRIB
 62
3
  8
0
 10
114.934886399
 20
87.9716651377
 30
0.0
 40
2.0
  1
17
  2
NAME
 70
0
 50
-13.0
 11
114.934886399
 21
87.9716651377
 31
0.0
  0
SEQEND
  0
INSERT
 62
256
  8
0
 66
1
  2
sw_mnt
 10
113.923047196
 20
168.051726211
 30
0.0
 50
-13.0
  0
ATTRIB
 62
3
  8
0
 10
113.855561879
 20
167.759415191
 30
0.0
 40
2.0
  1
18
  2
NAME
 70
0
 50
-13.0
 11
113.855561879
 21
167.759415191
 31
0.0
  0
SEQEND
  0
INSERT
 62
256
  8
0
 66
1
  2
sw_mnt
 10
109.648977163
 20
149.53869498
 30
0.0
 50
-13.0
  0
ATTRIB
 62
3
  8
0
 10
109.581491847
 20
149.24638396
 30
0.0
 40
2.0
  1
19
  2
NAME
 70
0
 50
-13.0
 11
109.581491847
 21
149.24638396
 31
0.0
  0
SEQEND
  0
INSERT
 62
256
  8
0
 66
1
  2
sw_mnt
 10
105.374907131
 20
131.025663749
 30
0.0
 50
-13.0
  0
ATTRIB
 62
3
  8
0
 10
105.307421814
 20
130.733352729
 30
0.0
 40
2.0
  1
20
  2
NAME
 70
0
 50
-13.0
 11
105.307421814
 21
130.733352729
 31
0.0
  0
SEQEND
  0
INSERT
 62
256
  8
0
 66
1
  2
sw_mnt
 10
101.100837098
 20
112.512632518
 30
0.0
 50
-13.0
  0
ATTRIB
 62
3
  8
0
 10
101.033351782
 20
112.220321498
 30
0.0
 40
2.0
  1
21
  2
NAME
 70
0
 50
-13.0
 11
101.033351782
 21
112.220321498
 31
0.0
  0
SEQEND
  0
INSERT
 62
256
  8
0
 66
1
  2
sw_mnt
 10
96.8267670656
 20
93.9996012869
 30
0.0
 50
-13.0
  0
ATTRIB
 62
3
  8
0
 10
96.7592817493
 20
93.7072902675
 30
0.0
 40
2.0
  1
22
  2
NAME
 70
0
 50
-13.0
 11
96.7592817493
 21
93.7072902675
 31
0.0
  0
SEQEND
  0
INSERT
 62
256
  8
0
 66
1
  2
sw_mnt
 10
95.0725893833
 20
170.864241146
 30
0.0
 50
-13.0
  0
ATTRIB
 62
3
  8
0
 10
95.005104067
 20
170.571930126
 30
0.0
 40
2.0
  1
23
  2
NAME
 70
0
 50
-13.0
 11
95.005104067
 21
170.571930126
 31
0.0
  0
SEQEND
  0
INSERT
 62
256
  8
0
 66
1
  2
sw_mnt
 10
90.7985193508
 20
152.351209915
 30
0.0
 50
-13.0
  0
ATTRIB
 62
3
  8
0
 10
90.7310340345
 20
152.058898896
 30
0.0
 40
2.0
  1
24
  2
NAME
 70
0
 50
-13.0
 11
90.7310340345
 21
152.058898896
 31
0.0
  0
SEQEND
  0
INSERT
 62
256
  8
0
 66
1
  2
sw_mnt
 10
86.5244493183
 20
133.838178684
 30
0.0
 50
-13.0
  0
ATTRIB
 62
3
  8
0
 10
86.456964002
 20
133.545867665
 30
0.0
 40
2.0
  1
25
  2
NAME
 70
0
 50
-13.0
 11
86.456964002
 21
133.545867665
 31
0.0
  0
SEQEND
  0
INSERT
 62
256
  8
0
 66
1
  2
sw_mnt
 10
82.2503792857
 20
115.325147453
 30
0.0
 50
-13.0
  0
ATTRIB
 62
3
  8
0
 10
82.1828939694
 20
115.032836434
 30
0.0
 40
2.0
  1
26
  2
NAME
 70
0
 50
-13.0
 11
82.1828939694
 21
115.032836434
 31
0.0
  0
SEQEND
  0
INSERT
 62
256
  8
0
 66
1
  2
sw_mnt
 10
77.9763092532
 20
96.8121162222
 30
0.0
 50
-13.0
  0
ATTRIB
 62
3
  8
0
 10
77.9088239369
 20
96.5198052028
 30
0.0
 40
2.0
  1
27
  2
NAME
 70
0
 50
-13.0
 11
77.9088239369
 21
96.5198052028
 31
0.0
  0
SEQEND
  0
INSERT
 62
256
  8
0
 66
1
  2
sw_mnt
 10
75.8847049894
 20
172.215200984
 30
0.0
 50
-13.0
  0
ATTRIB
 62
3
  8
0
 10
75.8172196731
 20
171.922889965
 30
0.0
 40
2.0
  1
28
  2
NAME
 70
0
 50
-13.0
 11
75.8172196731
 21
171.922889965
 31
0.0
  0
SEQEND
  0
INSERT
 62
256
  8
0
 66
1
  2
sw_mnt
 10
71.6106349568
 20
153.702169753
 30
0.0
 50
-13.0
  0
ATTRIB
 62
3
  8
0
 10
71.5431496405
 20
153.409858734
 30
0.0
 40
2.0
  1
29
  2
NAME
 70
0
 50
-13.0
 11
71.5431496405
 21
153.409858734
 31
0.0
  0
SEQEND
  0
INSERT
 62
256
  8
0
 66
1
  2
sw_mnt
 10
67.3365649243
 20
135.189138522
 30
0.0
 50
-13.0
  0
ATTRIB
 62
3
  8
0
 10
67.269079608
 20
134.896827503
 30
0.0
 40
2.0
  1
30
  2
NAME
 70
0
 50
-13.0
 11
67.269079608
 21
134.896827503
 31
0.0
  0
SEQEND
  0
INSERT
 62
256
  8
0
 66
1
  2
sw_mnt
 10
63.0624948918
 20
116.676107291
 30
0.0
 50
-13.0
  0
ATTRIB
 62
3
  8
0
 10
62.9950095755
 20
116.383796272
 30
0.0
 40
2.0
  1
31
  2
NAME
 70
0
 50
-13.0
 11
62.9950095755
 21
116.383796272
 31
0.0
  0
SEQEND
  0
INSERT
 62
256
  8
0
 66
1
  2
sw_mnt
 10
58.7884248592
 20
98.1630760604
 30
0.0
 50
-13.0
  0
ATTRIB
 62
3
  8
0
 10
58.7209395429
 20
97.870765041
 30
0.0
 40
2.0
  1
32
  2
NAME
 70
0
 50
-13.0
 11
58.7209395429
 21
97.870765041
 31
0.0
  0
SEQEND
  0
INSERT
 62
256
  8
0
 66
1
  2
sw_mnt
 10
52.7434159507
 20
177.557788525
 30
0.0
 50
-13.0
  0
ATTRIB
 62
3
  8
0
 10
52.6759306344
 20
177.265477505
 30
0.0
 40
2.0
  1
33
  2
NAME
 70
0
 50
-13.0
 11
52.6759306344
 21
177.265477505
 31
0.0
  0
SEQEND
  0
INSERT
 62
256
  8
0
 66
1
  2
sw_mnt
 10
48.4693459182
 20
159.044757294
 30
0.0
 50
-13.0
  0
ATTRIB
 62
3
  8
0
 10
48.4018606019
 20
158.752446274
 30
0.0
 40
2.0
  1
34
  2
NAME
 70
0
 50
-13.0
 11
48.4018606019
 21
158.752446274
 31
0.0
  0
SEQEND
  0
INSERT
 62
256
  8
0
 66
1
  2
sw_mnt
 10
44.1952758857
 20
140.531726063
 30
0.0
 50
-13.0
  0
ATTRIB
 62
3
  8
0
 10
44.1277905694
 20
140.239415043
 30
0.0
 40
2.0
  1
35
  2
NAME
 70
0
 50
-13.0
 11
44.1277905694
 21
140.239415043
 31
0.0
  0
SEQEND
  0
INSERT
 62
256
  8
0
 66
1
  2
sw_mnt
 10
39.9212058531
 20
122.018694832
 30
0.0
 50
-13.0
  0
ATTRIB
 62
3
  8
0
 10
39.8537205368
 20
121.726383813
 30
0.0
 40
2.0
  1
36
  2
NAME
 70
0
 50
-13.0
 11
39.8537205368
 21
121.726383813
 31
0.0
  0
SEQEND
  0
INSERT
 62
256
  8
0
 66
1
  2
sw_mnt
 10
40.2753936283
 20
102.437146093
 30
0.0
 50
-13.0
  0
ATTRIB
 62
3
  8
0
 10
40.207908312
 20
102.144835074
 30
0.0
 40
2.0
  1
37
  2
NAME
 70
0
 50
-13.0
 11
40.207908312
 21
102.144835074
 31
0.0
  0
SEQEND
  0
INSERT
 62
256
  8
0
 66
1
  2
sw_mnt
 10
285.124226113
 20
66.4127085227
 30
0.0
 50
-52.0
  0
ATTRIB
 62
3
  8
0
 10
284.887822887
 20
66.2280100801
 30
0.0
 40
2.0
  1
38
  2
NAME
 70
0
 50
-52.0
 11
284.887822887
 21
66.2280100801
 31
0.0
  0
SEQEND
  0
INSERT
 62
256
  8
0
 66
1
  2
sw_mnt
 10
270.152021794
 20
54.7151404915
 30
0.0
 50
-52.0
  0
ATTRIB
 62
3
  8
0
 10
269.915618568
 20
54.5304420489
 30
0.0
 40
2.0
  1
39
  2
NAME
 70
0
 50
-52.0
 11
269.915618568
 21
54.5304420489
 31
0.0
  0
SEQEND
  0
INSERT
 62
256
  8
0
 66
1
  2
sw_mnt
 10
261.028601491
 20
35.531470301
 30
0.0
 50
38.0
  0
ATTRIB
 62
3
  8
0
 10
261.213299934
 20
35.295067075
 30
0.0
 40
2.0
  1
40
  2
NAME
 70
0
 50
38.0
 11
261.213299934
 21
35.295067075
 31
0.0
  0
SEQEND
  0
INSERT
 62
256
  8
0
 66
1
  2
sw_mnt
 10
249.33103346
 20
50.5036746196
 30
0.0
 50
38.0
  0
ATTRIB
 62
3
  8
0
 10
249.515731903
 20
50.2672713935
 30
0.0
 40
2.0
  1
41
  2
NAME
 70
0
 50
38.0
 11
249.515731903
 21
50.2672713935
 31
0.0
  0
SEQEND
  0
INSERT
 62
256
  8
0
 66
1
  2
sw_mnt
 10
237.633465429
 20
65.4758789381
 30
0.0
 50
38.0
  0
ATTRIB
 62
3
  8
0
 10
237.818163872
 20
65.239475712
 30
0.0
 40
2.0
  1
42
  2
NAME
 70
0
 50
38.0
 11
237.818163872
 21
65.239475712
 31
0.0
  0
SEQEND
  0
INSERT
 62
256
  8
0
 66
1
  2
sw_mnt
 10
252.605669747
 20
77.1734469693
 30
0.0
 50
38.0
  0
ATTRIB
 62
3
  8
0
 10
252.79036819
 20
76.9370437432
 30
0.0
 40
2.0
  1
43
  2
NAME
 70
0
 50
38.0
 11
252.79036819
 21
76.9370437432
 31
0.0
  0
SEQEND
  0
INSERT
 62
256
  8
0
 66
1
  2
sw_mnt
 10
257.083670704
 20
152.306405919
 30
0.0
 50
13.0
  0
ATTRIB
 62
3
  8
0
 10
257.15115602
 20
152.014094899
 30
0.0
 40
2.0
  1
44
  2
NAME
 70
0
 50
13.0
 11
257.15115602
 21
152.014094899
 31
0.0
  0
SEQEND
  0
INSERT
 62
256
  8
0
 66
1
  2
sw_mnt
 10
262.426258244
 20
129.16511688
 30
0.0
 50
-77.0
  0
ATTRIB
 62
3
  8
0
 10
262.133947225
 20
129.097631564
 30
0.0
 40
2.0
  1
45
  2
NAME
 70
0
 50
-77.0
 11
262.133947225
 21
129.097631564
 31
0.0
  0
SEQEND
  0
INSERT
 62
256
  8
0
 66
1
  2
sw_mnt
 10
268.837363293
 20
101.395570034
 30
0.0
 50
-77.0
  0
ATTRIB
 62
3
  8
0
 10
268.545052274
 20
101.328084717
 30
0.0
 40
2.0
  1
46
  2
NAME
 70
0
 50
-77.0
 11
268.545052274
 21
101.328084717
 31
0.0
  0
SEQEND
  0
INSERT
 62
256
  8
0
 66
1
  2
sw_mnt
 10
275.596701934
 20
156.580475951
 30
0.0
 50
13.0
  0
ATTRIB
 62
3
  8
0
 10
275.664187251
 20
156.288164932
 30
0.0
 40
2.0
  1
47
  2
NAME
 70
0
 50
13.0
 11
275.664187251
 21
156.288164932
 31
0.0
  0
SEQEND
  0
INSERT
 62
256
  8
0
 66
1
  2
sw_mnt
 10
279.870771967
 20
138.06744472
 30
0.0
 50
13.0
  0
ATTRIB
 62
3
  8
0
 10
279.938257283
 20
137.775133701
 30
0.0
 40
2.0
  1
48
  2
NAME
 70
0
 50
13.0
 11
279.938257283
 21
137.775133701
 31
0.0
  0
SEQEND
  0
INSERT
 62
256
  8
0
 66
1
  2
sw_mnt
 10
284.144842
 20
119.554413489
 30
0.0
 50
13.0
  0
ATTRIB
 62
3
  8
0
 10
284.212327316
 20
119.26210247
 30
0.0
 40
2.0
  1
49
  2
NAME
 70
0
 50
13.0
 11
284.212327316
 21
119.26210247
 31
0.0
  0
SEQEND
  0
INSERT
 62
256
  8
0
 66
1
  2
sw_mnt
 10
288.418912032
 20
101.041382258
 30
0.0
 50
13.0
  0
ATTRIB
 62
3
  8
0
 10
288.486397348
 20
100.749071239
 30
0.0
 40
2.0
  1
50
  2
NAME
 70
0
 50
13.0
 11
288.486397348
 21
100.749071239
 31
0.0
  0
SEQEND
  0
INSERT
 62
256
  8
0
 66
1
  2
sw_mnt
 10
293.772306584
 20
162.316101081
 30
0.0
 50
13.0
  0
ATTRIB
 62
3
  8
0
 10
293.8397919
 20
162.023790061
 30
0.0
 40
2.0
  1
51
  2
NAME
 70
0
 50
13.0
 11
293.8397919
 21
162.023790061
 31
0.0
  0
SEQEND
  0
INSERT
 62
256
  8
0
 66
1
  2
sw_mnt
 10
298.046376616
 20
143.80306985
 30
0.0
 50
13.0
  0
ATTRIB
 62
3
  8
0
 10
298.113861933
 20
143.51075883
 30
0.0
 40
2.0
  1
52
  2
NAME
 70
0
 50
13.0
 11
298.113861933
 21
143.51075883
 31
0.0
  0
SEQEND
  0
INSERT
 62
256
  8
0
 66
1
  2
sw_mnt
 10
302.320446649
 20
125.290038619
 30
0.0
 50
13.0
  0
ATTRIB
 62
3
  8
0
 10
302.387931965
 20
124.9977276
 30
0.0
 40
2.0
  1
53
  2
NAME
 70
0
 50
13.0
 11
302.387931965
 21
124.9977276
 31
0.0
  0
SEQEND
  0
INSERT
 62
256
  8
0
 66
1
  2
sw_mnt
 10
306.594516681
 20
106.777007388
 30
0.0
 50
13.0
  0
ATTRIB
 62
3
  8
0
 10
306.662001998
 20
106.484696369
 30
0.0
 40
2.0
  1
54
  2
NAME
 70
0
 50
13.0
 11
306.662001998
 21
106.484696369
 31
0.0
  0
SEQEND
  0
INSERT
 62
256
  8
0
 66
1
  2
sw_mnt
 10
310.868586714
 20
88.2639761572
 30
0.0
 50
13.0
  0
ATTRIB
 62
3
  8
0
 10
310.93607203
 20
87.9716651377
 30
0.0
 40
2.0
  1
55
  2
NAME
 70
0
 50
13.0
 11
310.93607203
 21
87.9716651377
 31
0.0
  0
SEQEND
  0
INSERT
 62
256
  8
0
 66
1
  2
sw_mnt
 10
311.947911233
 20
168.051726211
 30
0.0
 50
13.0
  0
ATTRIB
 62
3
  8
0
 10
312.01539655
 20
167.759415191
 30
0.0
 40
2.0
  1
56
  2
NAME
 70
0
 50
13.0
 11
312.01539655
 21
167.759415191
 31
0.0
  0
SEQEND
  0
INSERT
 62
256
  8
0
 66
1
  2
sw_mnt
 10
316.221981266
 20
149.53869498
 30
0.0
 50
13.0
  0
ATTRIB
 62
3
  8
0
 10
316.289466582
 20
149.24638396
 30
0.0
 40
2.0
  1
57
  2
NAME
 70
0
 50
13.0
 11
316.289466582
 21
149.24638396
 31
0.0
  0
SEQEND
  0
INSERT
 62
256
  8
0
 66
1
  2
sw_mnt
 10
320.496051298
 20
131.025663749
 30
0.0
 50
13.0
  0
ATTRIB
 62
3
  8
0
 10
320.563536615
 20
130.733352729
 30
0.0
 40
2.0
  1
58
  2
NAME
 70
0
 50
13.0
 11
320.563536615
 21
130.733352729
 31
0.0
  0
SEQEND
  0
INSERT
 62
256
  8
0
 66
1
  2
sw_mnt
 10
324.770121331
 20
112.512632518
 30
0.0
 50
13.0
  0
ATTRIB
 62
3
  8
0
 10
324.837606647
 20
112.220321498
 30
0.0
 40
2.0
  1
59
  2
NAME
 70
0
 50
13.0
 11
324.837606647
 21
112.220321498
 31
0.0
  0
SEQEND
  0
INSERT
 62
256
  8
0
 66
1
  2
sw_mnt
 10
329.044191363
 20
93.9996012869
 30
0.0
 50
13.0
  0
ATTRIB
 62
3
  8
0
 10
329.11167668
 20
93.7072902675
 30
0.0
 40
2.0
  1
60
  2
NAME
 70
0
 50
13.0
 11
329.11167668
 21
93.7072902675
 31
0.0
  0
SEQEND
  0
INSERT
 62
256
  8
0
 66
1
  2
sw_mnt
 10
330.798369046
 20
170.864241146
 30
0.0
 50
13.0
  0
ATTRIB
 62
3
  8
0
 10
330.865854362
 20
170.571930126
 30
0.0
 40
2.0
  1
61
  2
NAME
 70
0
 50
13.0
 11
330.865854362
 21
170.571930126
 31
0.0
  0
SEQEND
  0
INSERT
 62
256
  8
0
 66
1
  2
sw_mnt
 10
335.072439078
 20
152.351209915
 30
0.0
 50
13.0
  0
ATTRIB
 62
3
  8
0
 10
335.139924395
 20
152.058898896
 30
0.0
 40
2.0
  1
62
  2
NAME
 70
0
 50
13.0
 11
335.139924395
 21
152.058898896
 31
0.0
  0
SEQEND
  0
INSERT
 62
256
  8
0
 66
1
  2
sw_mnt
 10
339.346509111
 20
133.838178684
 30
0.0
 50
13.0
  0
ATTRIB
 62
3
  8
0
 10
339.413994427
 20
133.545867665
 30
0.0
 40
2.0
  1
63
  2
NAME
 70
0
 50
13.0
 11
339.413994427
 21
133.545867665
 31
0.0
  0
SEQEND
  0
INSERT
 62
256
  8
0
 66
1
  2
sw_mnt
 10
343.620579143
 20
115.325147453
 30
0.0
 50
13.0
  0
ATTRIB
 62
3
  8
0
 10
343.68806446
 20
115.032836434
 30
0.0
 40
2.0
  1
64
  2
NAME
 70
0
 50
13.0
 11
343.68806446
 21
115.032836434
 31
0.0
  0
SEQEND
  0
INSERT
 62
256
  8
0
 66
1
  2
sw_mnt
 10
347.894649176
 20
96.8121162222
 30
0.0
 50
13.0
  0
ATTRIB
 62
3
  8
0
 10
347.962134492
 20
96.5198052028
 30
0.0
 40
2.0
  1
65
  2
NAME
 70
0
 50
13.0
 11
347.962134492
 21
96.5198052028
 31
0.0
  0
SEQEND
  0
INSERT
 62
256
  8
0
 66
1
  2
sw_mnt
 10
349.98625344
 20
172.215200984
 30
0.0
 50
13.0
  0
ATTRIB
 62
3
  8
0
 10
350.053738756
 20
171.922889965
 30
0.0
 40
2.0
  1
66
  2
NAME
 70
0
 50
13.0
 11
350.053738756
 21
171.922889965
 31
0.0
  0
SEQEND
  0
INSERT
 62
256
  8
0
 66
1
  2
sw_mnt
 10
354.260323472
 20
153.702169753
 30
0.0
 50
13.0
  0
ATTRIB
 62
3
  8
0
 10
354.327808789
 20
153.409858734
 30
0.0
 40
2.0
  1
67
  2
NAME
 70
0
 50
13.0
 11
354.327808789
 21
153.409858734
 31
0.0
  0
SEQEND
  0
INSERT
 62
256
  8
0
 66
1
  2
sw_mnt
 10
358.534393505
 20
135.189138522
 30
0.0
 50
13.0
  0
ATTRIB
 62
3
  8
0
 10
358.601878821
 20
134.896827503
 30
0.0
 40
2.0
  1
68
  2
NAME
 70
0
 50
13.0
 11
358.601878821
 21
134.896827503
 31
0.0
  0
SEQEND
  0
INSERT
 62
256
  8
0
 66
1
  2
sw_mnt
 10
362.808463537
 20
116.676107291
 30
0.0
 50
13.0
  0
ATTRIB
 62
3
  8
0
 10
362.875948854
 20
116.383796272
 30
0.0
 40
2.0
  1
69
  2
NAME
 70
0
 50
13.0
 11
362.875948854
 21
116.383796272
 31
0.0
  0
SEQEND
  0
INSERT
 62
256
  8
0
 66
1
  2
sw_mnt
 10
367.08253357
 20
98.1630760604
 30
0.0
 50
13.0
  0
ATTRIB
 62
3
  8
0
 10
367.150018886
 20
97.870765041
 30
0.0
 40
2.0
  1
70
  2
NAME
 70
0
 50
13.0
 11
367.150018886
 21
97.870765041
 31
0.0
  0
SEQEND
  0
INSERT
 62
256
  8
0
 66
1
  2
sw_mnt
 10
373.127542478
 20
177.557788525
 30
0.0
 50
13.0
  0
ATTRIB
 62
3
  8
0
 10
373.195027795
 20
177.265477505
 30
0.0
 40
2.0
  1
71
  2
NAME
 70
0
 50
13.0
 11
373.195027795
 21
177.265477505
 31
0.0
  0
SEQEND
  0
INSERT
 62
256
  8
0
 66
1
  2
sw_mnt
 10
377.401612511
 20
159.044757294
 30
0.0
 50
13.0
  0
ATTRIB
 62
3
  8
0
 10
377.469097827
 20
158.752446274
 30
0.0
 40
2.0
  1
72
  2
NAME
 70
0
 50
13.0
 11
377.469097827
 21
158.752446274
 31
0.0
  0
SEQEND
  0
INSERT
 62
256
  8
0
 66
1
  2
sw_mnt
 10
381.675682543
 20
140.531726063
 30
0.0
 50
13.0
  0
ATTRIB
 62
3
  8
0
 10
381.74316786
 20
140.239415043
 30
0.0
 40
2.0
  1
73
  2
NAME
 70
0
 50
13.0
 11
381.74316786
 21
140.239415043
 31
0.0
  0
SEQEND
  0
INSERT
 62
256
  8
0
 66
1
  2
sw_mnt
 10
385.949752576
 20
122.018694832
 30
0.0
 50
13.0
  0
ATTRIB
 62
3
  8
0
 10
386.017237892
 20
121.726383813
 30
0.0
 40
2.0
  1
74
  2
NAME
 70
0
 50
13.0
 11
386.017237892
 21
121.726383813
 31
0.0
  0
SEQEND
  0
INSERT
 62
256
  8
0
 66
1
  2
sw_mnt
 10
385.595564801
 20
102.437146093
 30
0.0
 50
13.0
  0
ATTRIB
 62
3
  8
0
 10
385.663050117
 20
102.144835074
 30
0.0
 40
2.0
  1
75
  2
NAME
 70
0
 50
13.0
 11
385.663050117
 21
102.144835074
 31
0.0
  0
SEQEND
  0
INSERT
 62
256
  8
0
  2
drill_m3
 10
203.209697319
 20
53.7783109069
 30
0.0
 50
0.0
  0
INSERT
 62
256
  8
0
  2
drill_m3
 10
168.787287725
 20
188.019856665
 30
0.0
 50
0.0
  0
INSERT
 62
256
  8
0
  2
drill_m3
 10
75.8847049894
 20
188.019856665
 30
0.0
 50
0.0
  0
INSERT
 62
256
  8
0
  2
drill_m3
 10
23.5986269998
 20
105.774128984
 30
0.0
 50
0.0
  0
INSERT
 62
256
  8
0
  2
drill_m3
 10
137.608699164
 20
9.75387360667
 30
0.0
 50
0.0
  0
INSERT
 62
256
  8
0
  2
drill_m3
 10
34.8029207753
 20
45.8919402547
 30
0.0
 50
0.0
  0
INSERT
 62
256
  8
0
  2
drill_m3
 10
391.068037654
 20
45.8919402547
 30
0.0
 50
0.0
  0
INSERT
 62
256
  8
0
  2
drill_m3
 10
288.262259265
 20
9.75387360667
 30
0.0
 50
0.0
  0
INSERT
 62
256
  8
0
  2
drill_m3
 10
402.272331429
 20
105.774128984
 30
0.0
 50
0.0
  0
INSERT
 62
256
  8
0
  2
drill_m3
 10
349.98625344
 20
188.019856665
 30
0.0
 50
0.0
  0
INSERT
 62
256
  8
0
  2
drill_m3
 10
257.083670704
 20
188.019856665
 30
0.0
 50
0.0
  0
INSERT
 62
256
  8
0
  2
drill_m3
 10
222.66126111
 20
53.7783109069
 30
0.0
 50
0.0
  0
INSERT
 62
256
  8
0
  2
drill_m3
 10
192.935479215
 20
144.019856665
 30
0.0
 50
0.0
  0
INSERT
 62
256
  8
0
  2
drill_m3
 10
232.935479215
 20
144.019856665
 30
0.0
 50
0.0
  0
INSERT
 62
256
  8
0
  2
drill_m3
 10
192.935479215
 20
184.019856665
 30
0.0
 50
0.0
  0
INSERT
 62
256
  8
0
  2
drill_m3
 10
232.935479215
 20
184.019856665
 30
0.0
 50
0.0
  0
POLYLINE
  8
0
 66
1
 10
0.0
 20
0.0
 30
0.0
 70
8
  0
VERTEX
  8
0
 10
17.902791818
 20
112.220636689
 30
0.0
  0
VERTEX
  8
0
 10
36.1238272199
 20
191.144611936
 30
0.0
  0
SEQEND
  0
ARC
  8
0
 10
40.9956775438
 20
190.019856665
 30
0.0
 40
5.0
 50
90.0
 51
167.0
  0
POLYLINE
  8
0
 66
1
 10
0.0
 20
0.0
 30
0.0
 70
8
  0
VERTEX
  8
0
 10
40.9956775438
 20
195.019856665
 30
0.0
  0
VERTEX
  8
0
 10
384.875280885
 20
195.019856665
 30
0.0
  0
SEQEND
  0
ARC
  8
0
 10
384.875280885
 20
190.019856665
 30
0.0
 40
5.0
 50
13.0
 51
90.0
  0
POLYLINE
  8
0
 66
1
 10
0.0
 20
0.0
 30
0.0
 70
8
  0
VERTEX
  8
0
 10
389.747131209
 20
191.144611936
 30
0.0
  0
VERTEX
  8
0
 10
407.968166611
 20
112.220636689
 30
0.0
  0
SEQEND
  0
ARC
  8
0
 10
317.351750586
 20
91.3001886348
 30
0.0
 40
93.0
 50
223.67929137
 51
13.0
  0
ARC
  8
0
 10
212.935479215
 20
-8.40998880174
 30
0.0
 40
51.3775509265
 50
43.6792913704
 51
-223.67929137
  0
ARC
  8
0
 10
108.519207843
 20
91.3001886348
 30
0.0
 40
93.0
 50
167.0
 51
-43.6792913704
  0
ENDSEC
  0
EOF
