  0
SECTION
  2
HEADER
  9
$ACADVER
  1
AC1009
  9
$EXTMIN
 10
0.0
 20
0.0
 30
0.0
  9
$EXTMAX
 10
100.0
 20
100.0
 30
0.0
  9
$INSBASE
 10
0.0
 20
0.0
 30
0.0
  0
ENDSEC
  0
SECTION
  2
TABLES
  0
TABLE
  2
LTYPE
 70
19
  0
LTYPE
  2
PHANTOM
 70
0
  3
Phantom ______  __  __  ______  __  __  ______
 72
65
 73
6
 40
2.5
 49
1.25
 49
-0.25
 49
0.25
 49
-0.25
 49
0.25
 49
-0.25
  0
LTYPE
  2
DOT2
 70
0
  3
Dot (.5) . . . . . . . . . . . . . . . . . . . 
 72
65
 73
2
 40
0.1
 49
0.0
 49
-0.1
  0
LTYPE
  2
DIVIDE
 70
0
  3
Divide __ . . __ . . __ . . __ . . __ . . __
 72
65
 73
6
 40
1.6
 49
1.0
 49
-0.2
 49
0.0
 49
-0.2
 49
0.0
 49
-0.2
  0
LTYPE
  2
DIVIDEX2
 70
0
  3
Divide (2x) ____  . .  ____  . .  ____  . .  ____
 72
65
 73
6
 40
2.6
 49
2.0
 49
-0.2
 49
0.0
 49
-0.2
 49
0.0
 49
-0.2
  0
LTYPE
  2
CENTER
 70
0
  3
Center ____ _ ____ _ ____ _ ____ _ ____ _ ____
 72
65
 73
4
 40
2.0
 49
1.25
 49
-0.25
 49
0.25
 49
-0.25
  0
LTYPE
  2
DASHDOT
 70
0
  3
Dash dot __ . __ . __ . __ . __ . __ . __ . __
 72
65
 73
4
 40
1.4
 49
1.0
 49
-0.2
 49
0.0
 49
-0.2
  0
LTYPE
  2
CENTERX2
 70
0
  3
Center (2x) ________  __  ________  __  ________
 72
65
 73
4
 40
3.5
 49
2.5
 49
-0.25
 49
0.5
 49
-0.25
  0
LTYPE
  2
PHANTOMX2
 70
0
  3
Phantom (2x)____________    ____    ____    ____________
 72
65
 73
6
 40
4.25
 49
2.5
 49
-0.25
 49
0.5
 49
-0.25
 49
0.5
 49
-0.25
  0
LTYPE
  2
CONTINUOUS
 70
0
  3
Solid
 72
65
 73
0
 40
0.0
  0
LTYPE
  2
PHANTOM2
 70
0
  3
Phantom (.5x) ___ _ _ ___ _ _ ___ _ _ ___ _ _ ___
 72
65
 73
6
 40
1.25
 49
0.625
 49
-0.125
 49
0.125
 49
-0.125
 49
0.125
 49
-0.125
  0
LTYPE
  2
DASHED
 70
0
  3
Dashed __ __ __ __ __ __ __ __ __ __ __ __ __ _
 72
65
 73
2
 40
0.6
 49
0.5
 49
-0.1
  0
LTYPE
  2
DASHED2
 70
0
  3
Dashed (.5x) _ _ _ _ _ _ _ _ _ _ _ _ _ _
 72
65
 73
2
 40
0.3
 49
0.25
 49
-0.05
  0
LTYPE
  2
DASHDOT2
 70
0
  3
Dash dot (.5x) _ . _ . _ . _ . _ . _ . _ . _
 72
65
 73
4
 40
0.7
 49
0.5
 49
-0.1
 49
0.0
 49
-0.1
  0
LTYPE
  2
DOTX2
 70
0
  3
Dot (2x) .    .    .    .    .    .    .    . 
 72
65
 73
2
 40
0.4
 49
0.0
 49
-0.4
  0
LTYPE
  2
DIVIDE2
 70
0
  3
Divide(.5x) _ . _ . _ . _ . _ . _ . _ . _
 72
65
 73
6
 40
0.8
 49
0.5
 49
-0.1
 49
0.0
 49
-0.1
 49
0.0
 49
-0.1
  0
LTYPE
  2
CENTER2
 70
0
  3
Center (.5x) ____ _ ____ _ ____ _ ____ _ ____
 72
65
 73
4
 40
1.0
 49
0.625
 49
-0.125
 49
0.125
 49
-0.125
  0
LTYPE
  2
DASHDOTX2
 70
0
  3
Dash dot (2x) ____  .  ____  .  ____  .  ____
 72
65
 73
4
 40
2.4
 49
2.0
 49
-0.2
 49
0.0
 49
-0.2
  0
LTYPE
  2
DOT
 70
0
  3
Dot .  .  .  .  .  .  .  .  .  .  .  .  .  .  .  .
 72
65
 73
2
 40
0.2
 49
0.0
 49
-0.2
  0
LTYPE
  2
DASHEDX2
 70
0
  3
Dashed (2x) ____  ____  ____  ____  ____  ____
 72
65
 73
2
 40
1.2
 49
1.0
 49
-0.2
  0
ENDTAB
  0
TABLE
  2
LAYER
 70
12
  0
LAYER
  2
DIMENSIONS
 70
0
 62
1
  6
CONTINUOUS
  0
LAYER
  2
TABLECONTENT
 70
0
 62
1
  6
CONTINUOUS
  0
LAYER
  2
MNT
 70
0
 62
1
  6
CONTINUOUS
  0
LAYER
  2
TOP2
 70
0
 62
1
  6
CONTINUOUS
  0
LAYER
  2
TOP1
 70
0
 62
1
  6
CONTINUOUS
  0
LAYER
  2
TABLEBACKGROUND
 70
0
 62
1
  6
CONTINUOUS
  0
LAYER
  2
BASE0
 70
0
 62
1
  6
CONTINUOUS
  0
LAYER
  2
BASE1
 70
0
 62
1
  6
CONTINUOUS
  0
LAYER
  2
BASE2
 70
0
 62
1
  6
CONTINUOUS
  0
LAYER
  2
TABLEGRID
 70
0
 62
1
  6
CONTINUOUS
  0
LAYER
  2
VIEWPORTS
 70
0
 62
7
  6
CONTINUOUS
  0
LAYER
  2
TOP0
 70
0
 62
1
  6
CONTINUOUS
  0
ENDTAB
  0
TABLE
  2
STYLE
 70
12
  0
STYLE
  2
TIMES
 70
0
 40
0.0
 41
1.0
 42
1.0
 50
0.0
 71
0
  3
times.ttf
  4

  0
STYLE
  2
ARIAL
 70
0
 40
0.0
 41
1.0
 42
1.0
 50
0.0
 71
0
  3
arial.ttf
  4

  0
STYLE
  2
TIMES_BOLD
 70
0
 40
0.0
 41
1.0
 42
1.0
 50
0.0
 71
0
  3
timesbd.ttf
  4

  0
STYLE
  2
ARIAL_BLACK
 70
0
 40
0.0
 41
1.0
 42
1.0
 50
0.0
 71
0
  3
ariblk.ttf
  4

  0
STYLE
  2
TIMES_ITALIC
 70
0
 40
0.0
 41
1.0
 42
1.0
 50
0.0
 71
0
  3
timesi.ttf
  4

  0
STYLE
  2
ISOCPEUR
 70
0
 40
0.0
 41
1.0
 42
1.0
 50
0.0
 71
0
  3
isocpeur.ttf
  4

  0
STYLE
  2
ARIAL_BOLD
 70
0
 40
0.0
 41
1.0
 42
1.0
 50
0.0
 71
0
  3
arialbd.ttf
  4

  0
STYLE
  2
ARIAL_ITALIC
 70
0
 40
0.0
 41
1.0
 42
1.0
 50
0.0
 71
0
  3
ariali.ttf
  4

  0
STYLE
  2
ARIAL_BOLD_ITALIC
 70
0
 40
0.0
 41
1.0
 42
1.0
 50
0.0
 71
0
  3
arialbi.ttf
  4

  0
STYLE
  2
TIMES_BOLD_ITALIC
 70
0
 40
0.0
 41
1.0
 42
1.0
 50
0.0
 71
0
  3
timesbi.ttf
  4

  0
STYLE
  2
ISOCPEUR_ITALIC
 70
0
 40
0.0
 41
1.0
 42
1.0
 50
0.0
 71
0
  3
isocpeui.ttf
  4

  0
STYLE
  2
STANDARD
 70
0
 40
0.0
 41
1.0
 42
1.0
 50
0.0
 71
0
  3
arial.ttf
  4

  0
ENDTAB
  0
TABLE
  2
VIEW
 70
0
  0
ENDTAB
  0
TABLE
  2
APPID
 70
1
  0
APPID
  2
DXFWRITE
 70
0
  0
ENDTAB
  0
TABLE
  2
VPORT
 70
0
  0
ENDTAB
  0
TABLE
  2
UCS
 70
0
  0
ENDTAB
  0
ENDSEC
  0
SECTION
  2
BLOCKS
  0
BLOCK
  8
0
  2
drill_7mm
  3
drill_7mm
 70
0
 10
0.0
 20
0.0
 30
0.0
  0
CIRCLE
  8
0
 10
0.0
 20
0.0
 30
0.0
 40
3.0
  0
ENDBLK
  0
BLOCK
  8
0
  2
cap_20
  3
cap_20
 70
0
 10
0.0
 20
0.0
 30
0.0
  0
POLYLINE
  8
0
 66
1
 10
0.0
 20
0.0
 30
0.0
 70
8
  0
VERTEX
  8
0
 10
1.375
 20
0.875
 30
0.0
  0
VERTEX
  8
0
 10
-1.375
 20
0.875
 30
0.0
  0
VERTEX
  8
0
 10
-1.375
 20
-0.875
 30
0.0
  0
VERTEX
  8
0
 10
1.375
 20
-0.875
 30
0.0
  0
VERTEX
  8
0
 10
1.375
 20
0.875
 30
0.0
  0
SEQEND
  0
LINE
  8
0
 10
-18.0
 20
-7.2
 30
0.0
 11
-18.0
 21
7.2
 31
0.0
  0
LINE
  8
0
 10
-16.2
 20
9.0
 30
0.0
 11
16.2
 21
9.0
 31
0.0
  0
LINE
  8
0
 10
18.0
 20
-7.2
 30
0.0
 11
18.0
 21
7.2
 31
0.0
  0
LINE
  8
0
 10
16.2
 20
-9.0
 30
0.0
 11
-16.2
 21
-9.0
 31
0.0
  0
ARC
  8
0
 10
-16.2
 20
7.2
 30
0.0
 40
1.8
 50
90.0
 51
180.0
  0
ARC
  8
0
 10
16.2
 20
7.2
 30
0.0
 40
1.8
 50
0.0
 51
90.0
  0
ARC
  8
0
 10
16.2
 20
-7.2
 30
0.0
 40
1.8
 50
270.0
 51
0.0
  0
ARC
  8
0
 10
-16.2
 20
-7.2
 30
0.0
 40
1.8
 50
180.0
 51
270.0
  0
ENDBLK
  0
BLOCK
  8
0
  2
drill_m3
  3
drill_m3
 70
0
 10
0.0
 20
0.0
 30
0.0
  0
CIRCLE
  8
0
 10
0.0
 20
0.0
 30
0.0
 40
1.45
  0
ENDBLK
  0
BLOCK
  8
0
  2
sw_mnt
  3
sw_mnt
 70
0
 10
0.0
 20
0.0
 30
0.0
  0
POLYLINE
  8
0
 66
1
 10
0.0
 20
0.0
 30
0.0
 70
8
  0
VERTEX
  8
0
 10
-7.65
 20
-6.35
 30
0.0
  0
VERTEX
  8
0
 10
7.65
 20
-6.35
 30
0.0
  0
VERTEX
  8
0
 10
7.65
 20
6.35
 30
0.0
  0
VERTEX
  8
0
 10
-7.65
 20
6.35
 30
0.0
  0
VERTEX
  8
0
 10
-7.65
 20
-6.35
 30
0.0
  0
SEQEND
  0
ATTDEF
 62
3
  8
0
 10
0.0
 20
-0.3
 30
0.0
 40
2.0
  1
Attrib
  3
Input:
  2
NAME
 70
0
  0
ENDBLK
  0
BLOCK
  8
0
  2
cap_10
  3
cap_10
 70
0
 10
0.0
 20
0.0
 30
0.0
  0
POLYLINE
  8
0
 66
1
 10
0.0
 20
0.0
 30
0.0
 70
8
  0
VERTEX
  8
0
 10
1.375
 20
0.875
 30
0.0
  0
VERTEX
  8
0
 10
-1.375
 20
0.875
 30
0.0
  0
VERTEX
  8
0
 10
-1.375
 20
-0.875
 30
0.0
  0
VERTEX
  8
0
 10
1.375
 20
-0.875
 30
0.0
  0
VERTEX
  8
0
 10
1.375
 20
0.875
 30
0.0
  0
SEQEND
  0
LINE
  8
0
 10
-9.0
 20
-7.2
 30
0.0
 11
-9.0
 21
7.2
 31
0.0
  0
LINE
  8
0
 10
-7.2
 20
9.0
 30
0.0
 11
7.2
 21
9.0
 31
0.0
  0
LINE
  8
0
 10
9.0
 20
-7.2
 30
0.0
 11
9.0
 21
7.2
 31
0.0
  0
LINE
  8
0
 10
7.2
 20
-9.0
 30
0.0
 11
-7.2
 21
-9.0
 31
0.0
  0
ARC
  8
0
 10
-7.2
 20
7.2
 30
0.0
 40
1.8
 50
90.0
 51
180.0
  0
ARC
  8
0
 10
7.2
 20
7.2
 30
0.0
 40
1.8
 50
0.0
 51
90.0
  0
ARC
  8
0
 10
7.2
 20
-7.2
 30
0.0
 40
1.8
 50
270.0
 51
0.0
  0
ARC
  8
0
 10
-7.2
 20
-7.2
 30
0.0
 40
1.8
 50
180.0
 51
270.0
  0
ENDBLK
  0
BLOCK
  8
0
  2
cap_15
  3
cap_15
 70
0
 10
0.0
 20
0.0
 30
0.0
  0
POLYLINE
  8
0
 66
1
 10
0.0
 20
0.0
 30
0.0
 70
8
  0
VERTEX
  8
0
 10
1.375
 20
0.875
 30
0.0
  0
VERTEX
  8
0
 10
-1.375
 20
0.875
 30
0.0
  0
VERTEX
  8
0
 10
-1.375
 20
-0.875
 30
0.0
  0
VERTEX
  8
0
 10
1.375
 20
-0.875
 30
0.0
  0
VERTEX
  8
0
 10
1.375
 20
0.875
 30
0.0
  0
SEQEND
  0
LINE
  8
0
 10
-13.5
 20
-7.2
 30
0.0
 11
-13.5
 21
7.2
 31
0.0
  0
LINE
  8
0
 10
-11.7
 20
9.0
 30
0.0
 11
11.7
 21
9.0
 31
0.0
  0
LINE
  8
0
 10
13.5
 20
-7.2
 30
0.0
 11
13.5
 21
7.2
 31
0.0
  0
LINE
  8
0
 10
11.7
 20
-9.0
 30
0.0
 11
-11.7
 21
-9.0
 31
0.0
  0
ARC
  8
0
 10
-11.7
 20
7.2
 30
0.0
 40
1.8
 50
90.0
 51
180.0
  0
ARC
  8
0
 10
11.7
 20
7.2
 30
0.0
 40
1.8
 50
0.0
 51
90.0
  0
ARC
  8
0
 10
11.7
 20
-7.2
 30
0.0
 40
1.8
 50
270.0
 51
0.0
  0
ARC
  8
0
 10
-11.7
 20
-7.2
 30
0.0
 40
1.8
 50
180.0
 51
270.0
  0
ENDBLK
  0
ENDSEC
  0
SECTION
  2
ENTITIES
  0
VIEWPORT
  8
VIEWPORTS
 67
1
 10
0.0
 20
0.0
 30
0.0
 40
1.0
 41
1.0
 68
1
 69
1
1001
ACAD
1000
MVIEW
1002
{
1070
16
1010
0.0
1020
0.0
1030
0.0
1010
0.0
1020
0.0
1030
0.0
1040
0.0
1040
1.0
1040
0.0
1040
0.0
1040
50.0
1040
0.0
1040
0.0
1070
0
1070
100
1070
1
1070
3
1070
0
1070
0
1070
0
1070
0
1040
0.0
1040
0.0
1040
0.0
1040
0.1
1040
0.1
1040
0.1
1040
0.1
1070
0
1002
{
1002
}
1002
}
  0
INSERT
 62
256
  8
MNT
 66
1
  2
sw_mnt
 10
140.746732316
 20
66.4127085227
 30
0.0
 50
52.0
  0
ATTRIB
 62
3
  8
0
 10
140.983135542
 20
66.2280100801
 30
0.0
 40
2.0
  1
0
  2
NAME
 70
0
 50
52.0
 11
140.983135542
 21
66.2280100801
 31
0.0
  0
SEQEND
  0
INSERT
 62
256
  8
MNT
 66
1
  2
sw_mnt
 10
155.718936635
 20
54.7151404915
 30
0.0
 50
52.0
  0
ATTRIB
 62
3
  8
0
 10
155.955339861
 20
54.5304420489
 30
0.0
 40
2.0
  1
1
  2
NAME
 70
0
 50
52.0
 11
155.955339861
 21
54.5304420489
 31
0.0
  0
SEQEND
  0
INSERT
 62
256
  8
MNT
 66
1
  2
sw_mnt
 10
164.842356938
 20
35.531470301
 30
0.0
 50
-38.0
  0
ATTRIB
 62
3
  8
0
 10
164.657658495
 20
35.295067075
 30
0.0
 40
2.0
  1
2
  2
NAME
 70
0
 50
-38.0
 11
164.657658495
 21
35.295067075
 31
0.0
  0
SEQEND
  0
INSERT
 62
256
  8
MNT
 66
1
  2
sw_mnt
 10
176.539924969
 20
50.5036746196
 30
0.0
 50
-38.0
  0
ATTRIB
 62
3
  8
0
 10
176.355226526
 20
50.2672713935
 30
0.0
 40
2.0
  1
3
  2
NAME
 70
0
 50
-38.0
 11
176.355226526
 21
50.2672713935
 31
0.0
  0
SEQEND
  0
INSERT
 62
256
  8
MNT
 66
1
  2
sw_mnt
 10
188.237493
 20
65.4758789381
 30
0.0
 50
-38.0
  0
ATTRIB
 62
3
  8
0
 10
188.052794558
 20
65.239475712
 30
0.0
 40
2.0
  1
4
  2
NAME
 70
0
 50
-38.0
 11
188.052794558
 21
65.239475712
 31
0.0
  0
SEQEND
  0
INSERT
 62
256
  8
MNT
 66
1
  2
sw_mnt
 10
170.340896674
 20
73.4303958897
 30
0.0
 50
-38.0
  0
ATTRIB
 62
3
  8
0
 10
170.156198231
 20
73.1939926636
 30
0.0
 40
2.0
  1
5
  2
NAME
 70
0
 50
-38.0
 11
170.156198231
 21
73.1939926636
 31
0.0
  0
SEQEND
  0
INSERT
 62
256
  8
MNT
 66
1
  2
sw_mnt
 10
168.787287725
 20
152.306405919
 30
0.0
 50
-13.0
  0
ATTRIB
 62
3
  8
0
 10
168.719802409
 20
152.014094899
 30
0.0
 40
2.0
  1
6
  2
NAME
 70
0
 50
-13.0
 11
168.719802409
 21
152.014094899
 31
0.0
  0
SEQEND
  0
INSERT
 62
256
  8
MNT
 66
1
  2
sw_mnt
 10
163.444700185
 20
129.16511688
 30
0.0
 50
77.0
  0
ATTRIB
 62
3
  8
0
 10
163.737011204
 20
129.097631564
 30
0.0
 40
2.0
  1
7
  2
NAME
 70
0
 50
77.0
 11
163.737011204
 21
129.097631564
 31
0.0
  0
SEQEND
  0
INSERT
 62
256
  8
MNT
 66
1
  2
sw_mnt
 10
157.033595136
 20
101.395570034
 30
0.0
 50
77.0
  0
ATTRIB
 62
3
  8
0
 10
157.325906155
 20
101.328084717
 30
0.0
 40
2.0
  1
8
  2
NAME
 70
0
 50
77.0
 11
157.325906155
 21
101.328084717
 31
0.0
  0
SEQEND
  0
INSERT
 62
256
  8
MNT
 66
1
  2
sw_mnt
 10
150.274256495
 20
156.580475951
 30
0.0
 50
-13.0
  0
ATTRIB
 62
3
  8
0
 10
150.206771178
 20
156.288164932
 30
0.0
 40
2.0
  1
9
  2
NAME
 70
0
 50
-13.0
 11
150.206771178
 21
156.288164932
 31
0.0
  0
SEQEND
  0
INSERT
 62
256
  8
MNT
 66
1
  2
sw_mnt
 10
146.000186462
 20
138.06744472
 30
0.0
 50
-13.0
  0
ATTRIB
 62
3
  8
0
 10
145.932701146
 20
137.775133701
 30
0.0
 40
2.0
  1
10
  2
NAME
 70
0
 50
-13.0
 11
145.932701146
 21
137.775133701
 31
0.0
  0
SEQEND
  0
INSERT
 62
256
  8
MNT
 66
1
  2
sw_mnt
 10
141.72611643
 20
119.554413489
 30
0.0
 50
-13.0
  0
ATTRIB
 62
3
  8
0
 10
141.658631113
 20
119.26210247
 30
0.0
 40
2.0
  1
11
  2
NAME
 70
0
 50
-13.0
 11
141.658631113
 21
119.26210247
 31
0.0
  0
SEQEND
  0
INSERT
 62
256
  8
MNT
 66
1
  2
sw_mnt
 10
137.452046397
 20
101.041382258
 30
0.0
 50
-13.0
  0
ATTRIB
 62
3
  8
0
 10
137.384561081
 20
100.749071239
 30
0.0
 40
2.0
  1
12
  2
NAME
 70
0
 50
-13.0
 11
137.384561081
 21
100.749071239
 31
0.0
  0
SEQEND
  0
INSERT
 62
256
  8
MNT
 66
1
  2
sw_mnt
 10
132.098651845
 20
162.316101081
 30
0.0
 50
-13.0
  0
ATTRIB
 62
3
  8
0
 10
132.031166529
 20
162.023790061
 30
0.0
 40
2.0
  1
13
  2
NAME
 70
0
 50
-13.0
 11
132.031166529
 21
162.023790061
 31
0.0
  0
SEQEND
  0
INSERT
 62
256
  8
MNT
 66
1
  2
sw_mnt
 10
127.824581813
 20
143.80306985
 30
0.0
 50
-13.0
  0
ATTRIB
 62
3
  8
0
 10
127.757096496
 20
143.51075883
 30
0.0
 40
2.0
  1
14
  2
NAME
 70
0
 50
-13.0
 11
127.757096496
 21
143.51075883
 31
0.0
  0
SEQEND
  0
INSERT
 62
256
  8
MNT
 66
1
  2
sw_mnt
 10
123.55051178
 20
125.290038619
 30
0.0
 50
-13.0
  0
ATTRIB
 62
3
  8
0
 10
123.483026464
 20
124.9977276
 30
0.0
 40
2.0
  1
15
  2
NAME
 70
0
 50
-13.0
 11
123.483026464
 21
124.9977276
 31
0.0
  0
SEQEND
  0
INSERT
 62
256
  8
MNT
 66
1
  2
sw_mnt
 10
119.276441748
 20
106.777007388
 30
0.0
 50
-13.0
  0
ATTRIB
 62
3
  8
0
 10
119.208956431
 20
106.484696369
 30
0.0
 40
2.0
  1
16
  2
NAME
 70
0
 50
-13.0
 11
119.208956431
 21
106.484696369
 31
0.0
  0
SEQEND
  0
INSERT
 62
256
  8
MNT
 66
1
  2
sw_mnt
 10
115.002371715
 20
88.2639761572
 30
0.0
 50
-13.0
  0
ATTRIB
 62
3
  8
0
 10
114.934886399
 20
87.9716651377
 30
0.0
 40
2.0
  1
17
  2
NAME
 70
0
 50
-13.0
 11
114.934886399
 21
87.9716651377
 31
0.0
  0
SEQEND
  0
INSERT
 62
256
  8
MNT
 66
1
  2
sw_mnt
 10
113.923047196
 20
168.051726211
 30
0.0
 50
-13.0
  0
ATTRIB
 62
3
  8
0
 10
113.855561879
 20
167.759415191
 30
0.0
 40
2.0
  1
18
  2
NAME
 70
0
 50
-13.0
 11
113.855561879
 21
167.759415191
 31
0.0
  0
SEQEND
  0
INSERT
 62
256
  8
MNT
 66
1
  2
sw_mnt
 10
109.648977163
 20
149.53869498
 30
0.0
 50
-13.0
  0
ATTRIB
 62
3
  8
0
 10
109.581491847
 20
149.24638396
 30
0.0
 40
2.0
  1
19
  2
NAME
 70
0
 50
-13.0
 11
109.581491847
 21
149.24638396
 31
0.0
  0
SEQEND
  0
INSERT
 62
256
  8
MNT
 66
1
  2
sw_mnt
 10
105.374907131
 20
131.025663749
 30
0.0
 50
-13.0
  0
ATTRIB
 62
3
  8
0
 10
105.307421814
 20
130.733352729
 30
0.0
 40
2.0
  1
20
  2
NAME
 70
0
 50
-13.0
 11
105.307421814
 21
130.733352729
 31
0.0
  0
SEQEND
  0
INSERT
 62
256
  8
MNT
 66
1
  2
sw_mnt
 10
101.100837098
 20
112.512632518
 30
0.0
 50
-13.0
  0
ATTRIB
 62
3
  8
0
 10
101.033351782
 20
112.220321498
 30
0.0
 40
2.0
  1
21
  2
NAME
 70
0
 50
-13.0
 11
101.033351782
 21
112.220321498
 31
0.0
  0
SEQEND
  0
INSERT
 62
256
  8
MNT
 66
1
  2
sw_mnt
 10
96.8267670656
 20
93.9996012869
 30
0.0
 50
-13.0
  0
ATTRIB
 62
3
  8
0
 10
96.7592817493
 20
93.7072902675
 30
0.0
 40
2.0
  1
22
  2
NAME
 70
0
 50
-13.0
 11
96.7592817493
 21
93.7072902675
 31
0.0
  0
SEQEND
  0
INSERT
 62
256
  8
MNT
 66
1
  2
sw_mnt
 10
95.0725893833
 20
170.864241146
 30
0.0
 50
-13.0
  0
ATTRIB
 62
3
  8
0
 10
95.005104067
 20
170.571930126
 30
0.0
 40
2.0
  1
23
  2
NAME
 70
0
 50
-13.0
 11
95.005104067
 21
170.571930126
 31
0.0
  0
SEQEND
  0
INSERT
 62
256
  8
MNT
 66
1
  2
sw_mnt
 10
90.7985193508
 20
152.351209915
 30
0.0
 50
-13.0
  0
ATTRIB
 62
3
  8
0
 10
90.7310340345
 20
152.058898896
 30
0.0
 40
2.0
  1
24
  2
NAME
 70
0
 50
-13.0
 11
90.7310340345
 21
152.058898896
 31
0.0
  0
SEQEND
  0
INSERT
 62
256
  8
MNT
 66
1
  2
sw_mnt
 10
86.5244493183
 20
133.838178684
 30
0.0
 50
-13.0
  0
ATTRIB
 62
3
  8
0
 10
86.456964002
 20
133.545867665
 30
0.0
 40
2.0
  1
25
  2
NAME
 70
0
 50
-13.0
 11
86.456964002
 21
133.545867665
 31
0.0
  0
SEQEND
  0
INSERT
 62
256
  8
MNT
 66
1
  2
sw_mnt
 10
82.2503792857
 20
115.325147453
 30
0.0
 50
-13.0
  0
ATTRIB
 62
3
  8
0
 10
82.1828939694
 20
115.032836434
 30
0.0
 40
2.0
  1
26
  2
NAME
 70
0
 50
-13.0
 11
82.1828939694
 21
115.032836434
 31
0.0
  0
SEQEND
  0
INSERT
 62
256
  8
MNT
 66
1
  2
sw_mnt
 10
77.9763092532
 20
96.8121162222
 30
0.0
 50
-13.0
  0
ATTRIB
 62
3
  8
0
 10
77.9088239369
 20
96.5198052028
 30
0.0
 40
2.0
  1
27
  2
NAME
 70
0
 50
-13.0
 11
77.9088239369
 21
96.5198052028
 31
0.0
  0
SEQEND
  0
INSERT
 62
256
  8
MNT
 66
1
  2
sw_mnt
 10
75.8847049894
 20
172.215200984
 30
0.0
 50
-13.0
  0
ATTRIB
 62
3
  8
0
 10
75.8172196731
 20
171.922889965
 30
0.0
 40
2.0
  1
28
  2
NAME
 70
0
 50
-13.0
 11
75.8172196731
 21
171.922889965
 31
0.0
  0
SEQEND
  0
INSERT
 62
256
  8
MNT
 66
1
  2
sw_mnt
 10
71.6106349568
 20
153.702169753
 30
0.0
 50
-13.0
  0
ATTRIB
 62
3
  8
0
 10
71.5431496405
 20
153.409858734
 30
0.0
 40
2.0
  1
29
  2
NAME
 70
0
 50
-13.0
 11
71.5431496405
 21
153.409858734
 31
0.0
  0
SEQEND
  0
INSERT
 62
256
  8
MNT
 66
1
  2
sw_mnt
 10
67.3365649243
 20
135.189138522
 30
0.0
 50
-13.0
  0
ATTRIB
 62
3
  8
0
 10
67.269079608
 20
134.896827503
 30
0.0
 40
2.0
  1
30
  2
NAME
 70
0
 50
-13.0
 11
67.269079608
 21
134.896827503
 31
0.0
  0
SEQEND
  0
INSERT
 62
256
  8
MNT
 66
1
  2
sw_mnt
 10
63.0624948918
 20
116.676107291
 30
0.0
 50
-13.0
  0
ATTRIB
 62
3
  8
0
 10
62.9950095755
 20
116.383796272
 30
0.0
 40
2.0
  1
31
  2
NAME
 70
0
 50
-13.0
 11
62.9950095755
 21
116.383796272
 31
0.0
  0
SEQEND
  0
INSERT
 62
256
  8
MNT
 66
1
  2
sw_mnt
 10
58.7884248592
 20
98.1630760604
 30
0.0
 50
-13.0
  0
ATTRIB
 62
3
  8
0
 10
58.7209395429
 20
97.870765041
 30
0.0
 40
2.0
  1
32
  2
NAME
 70
0
 50
-13.0
 11
58.7209395429
 21
97.870765041
 31
0.0
  0
SEQEND
  0
INSERT
 62
256
  8
MNT
 66
1
  2
sw_mnt
 10
52.7434159507
 20
177.557788525
 30
0.0
 50
-13.0
  0
ATTRIB
 62
3
  8
0
 10
52.6759306344
 20
177.265477505
 30
0.0
 40
2.0
  1
33
  2
NAME
 70
0
 50
-13.0
 11
52.6759306344
 21
177.265477505
 31
0.0
  0
SEQEND
  0
INSERT
 62
256
  8
MNT
 66
1
  2
sw_mnt
 10
48.4693459182
 20
159.044757294
 30
0.0
 50
-13.0
  0
ATTRIB
 62
3
  8
0
 10
48.4018606019
 20
158.752446274
 30
0.0
 40
2.0
  1
34
  2
NAME
 70
0
 50
-13.0
 11
48.4018606019
 21
158.752446274
 31
0.0
  0
SEQEND
  0
INSERT
 62
256
  8
MNT
 66
1
  2
sw_mnt
 10
44.1952758857
 20
140.531726063
 30
0.0
 50
-13.0
  0
ATTRIB
 62
3
  8
0
 10
44.1277905694
 20
140.239415043
 30
0.0
 40
2.0
  1
35
  2
NAME
 70
0
 50
-13.0
 11
44.1277905694
 21
140.239415043
 31
0.0
  0
SEQEND
  0
INSERT
 62
256
  8
MNT
 66
1
  2
sw_mnt
 10
39.9212058531
 20
122.018694832
 30
0.0
 50
-13.0
  0
ATTRIB
 62
3
  8
0
 10
39.8537205368
 20
121.726383813
 30
0.0
 40
2.0
  1
36
  2
NAME
 70
0
 50
-13.0
 11
39.8537205368
 21
121.726383813
 31
0.0
  0
SEQEND
  0
INSERT
 62
256
  8
MNT
 66
1
  2
sw_mnt
 10
40.2753936283
 20
102.437146093
 30
0.0
 50
-13.0
  0
ATTRIB
 62
3
  8
0
 10
40.207908312
 20
102.144835074
 30
0.0
 40
2.0
  1
37
  2
NAME
 70
0
 50
-13.0
 11
40.207908312
 21
102.144835074
 31
0.0
  0
SEQEND
  0
INSERT
 62
256
  8
MNT
 66
1
  2
sw_mnt
 10
317.124226113
 20
66.4127085227
 30
0.0
 50
-52.0
  0
ATTRIB
 62
3
  8
0
 10
316.887822887
 20
66.2280100801
 30
0.0
 40
2.0
  1
38
  2
NAME
 70
0
 50
-52.0
 11
316.887822887
 21
66.2280100801
 31
0.0
  0
SEQEND
  0
INSERT
 62
256
  8
MNT
 66
1
  2
sw_mnt
 10
302.152021794
 20
54.7151404915
 30
0.0
 50
-52.0
  0
ATTRIB
 62
3
  8
0
 10
301.915618568
 20
54.5304420489
 30
0.0
 40
2.0
  1
39
  2
NAME
 70
0
 50
-52.0
 11
301.915618568
 21
54.5304420489
 31
0.0
  0
SEQEND
  0
INSERT
 62
256
  8
MNT
 66
1
  2
sw_mnt
 10
293.028601491
 20
35.531470301
 30
0.0
 50
38.0
  0
ATTRIB
 62
3
  8
0
 10
293.213299934
 20
35.295067075
 30
0.0
 40
2.0
  1
40
  2
NAME
 70
0
 50
38.0
 11
293.213299934
 21
35.295067075
 31
0.0
  0
SEQEND
  0
INSERT
 62
256
  8
MNT
 66
1
  2
sw_mnt
 10
281.33103346
 20
50.5036746196
 30
0.0
 50
38.0
  0
ATTRIB
 62
3
  8
0
 10
281.515731903
 20
50.2672713935
 30
0.0
 40
2.0
  1
41
  2
NAME
 70
0
 50
38.0
 11
281.515731903
 21
50.2672713935
 31
0.0
  0
SEQEND
  0
INSERT
 62
256
  8
MNT
 66
1
  2
sw_mnt
 10
269.633465429
 20
65.4758789381
 30
0.0
 50
38.0
  0
ATTRIB
 62
3
  8
0
 10
269.818163872
 20
65.239475712
 30
0.0
 40
2.0
  1
42
  2
NAME
 70
0
 50
38.0
 11
269.818163872
 21
65.239475712
 31
0.0
  0
SEQEND
  0
INSERT
 62
256
  8
MNT
 66
1
  2
sw_mnt
 10
287.530061755
 20
73.4303958897
 30
0.0
 50
38.0
  0
ATTRIB
 62
3
  8
0
 10
287.714760198
 20
73.1939926636
 30
0.0
 40
2.0
  1
43
  2
NAME
 70
0
 50
38.0
 11
287.714760198
 21
73.1939926636
 31
0.0
  0
SEQEND
  0
INSERT
 62
256
  8
MNT
 66
1
  2
sw_mnt
 10
289.083670704
 20
152.306405919
 30
0.0
 50
13.0
  0
ATTRIB
 62
3
  8
0
 10
289.15115602
 20
152.014094899
 30
0.0
 40
2.0
  1
44
  2
NAME
 70
0
 50
13.0
 11
289.15115602
 21
152.014094899
 31
0.0
  0
SEQEND
  0
INSERT
 62
256
  8
MNT
 66
1
  2
sw_mnt
 10
294.426258244
 20
129.16511688
 30
0.0
 50
-77.0
  0
ATTRIB
 62
3
  8
0
 10
294.133947225
 20
129.097631564
 30
0.0
 40
2.0
  1
45
  2
NAME
 70
0
 50
-77.0
 11
294.133947225
 21
129.097631564
 31
0.0
  0
SEQEND
  0
INSERT
 62
256
  8
MNT
 66
1
  2
sw_mnt
 10
300.837363293
 20
101.395570034
 30
0.0
 50
-77.0
  0
ATTRIB
 62
3
  8
0
 10
300.545052274
 20
101.328084717
 30
0.0
 40
2.0
  1
46
  2
NAME
 70
0
 50
-77.0
 11
300.545052274
 21
101.328084717
 31
0.0
  0
SEQEND
  0
INSERT
 62
256
  8
MNT
 66
1
  2
sw_mnt
 10
307.596701934
 20
156.580475951
 30
0.0
 50
13.0
  0
ATTRIB
 62
3
  8
0
 10
307.664187251
 20
156.288164932
 30
0.0
 40
2.0
  1
47
  2
NAME
 70
0
 50
13.0
 11
307.664187251
 21
156.288164932
 31
0.0
  0
SEQEND
  0
INSERT
 62
256
  8
MNT
 66
1
  2
sw_mnt
 10
311.870771967
 20
138.06744472
 30
0.0
 50
13.0
  0
ATTRIB
 62
3
  8
0
 10
311.938257283
 20
137.775133701
 30
0.0
 40
2.0
  1
48
  2
NAME
 70
0
 50
13.0
 11
311.938257283
 21
137.775133701
 31
0.0
  0
SEQEND
  0
INSERT
 62
256
  8
MNT
 66
1
  2
sw_mnt
 10
316.144842
 20
119.554413489
 30
0.0
 50
13.0
  0
ATTRIB
 62
3
  8
0
 10
316.212327316
 20
119.26210247
 30
0.0
 40
2.0
  1
49
  2
NAME
 70
0
 50
13.0
 11
316.212327316
 21
119.26210247
 31
0.0
  0
SEQEND
  0
INSERT
 62
256
  8
MNT
 66
1
  2
sw_mnt
 10
320.418912032
 20
101.041382258
 30
0.0
 50
13.0
  0
ATTRIB
 62
3
  8
0
 10
320.486397348
 20
100.749071239
 30
0.0
 40
2.0
  1
50
  2
NAME
 70
0
 50
13.0
 11
320.486397348
 21
100.749071239
 31
0.0
  0
SEQEND
  0
INSERT
 62
256
  8
MNT
 66
1
  2
sw_mnt
 10
325.772306584
 20
162.316101081
 30
0.0
 50
13.0
  0
ATTRIB
 62
3
  8
0
 10
325.8397919
 20
162.023790061
 30
0.0
 40
2.0
  1
51
  2
NAME
 70
0
 50
13.0
 11
325.8397919
 21
162.023790061
 31
0.0
  0
SEQEND
  0
INSERT
 62
256
  8
MNT
 66
1
  2
sw_mnt
 10
330.046376616
 20
143.80306985
 30
0.0
 50
13.0
  0
ATTRIB
 62
3
  8
0
 10
330.113861933
 20
143.51075883
 30
0.0
 40
2.0
  1
52
  2
NAME
 70
0
 50
13.0
 11
330.113861933
 21
143.51075883
 31
0.0
  0
SEQEND
  0
INSERT
 62
256
  8
MNT
 66
1
  2
sw_mnt
 10
334.320446649
 20
125.290038619
 30
0.0
 50
13.0
  0
ATTRIB
 62
3
  8
0
 10
334.387931965
 20
124.9977276
 30
0.0
 40
2.0
  1
53
  2
NAME
 70
0
 50
13.0
 11
334.387931965
 21
124.9977276
 31
0.0
  0
SEQEND
  0
INSERT
 62
256
  8
MNT
 66
1
  2
sw_mnt
 10
338.594516681
 20
106.777007388
 30
0.0
 50
13.0
  0
ATTRIB
 62
3
  8
0
 10
338.662001998
 20
106.484696369
 30
0.0
 40
2.0
  1
54
  2
NAME
 70
0
 50
13.0
 11
338.662001998
 21
106.484696369
 31
0.0
  0
SEQEND
  0
INSERT
 62
256
  8
MNT
 66
1
  2
sw_mnt
 10
342.868586714
 20
88.2639761572
 30
0.0
 50
13.0
  0
ATTRIB
 62
3
  8
0
 10
342.93607203
 20
87.9716651377
 30
0.0
 40
2.0
  1
55
  2
NAME
 70
0
 50
13.0
 11
342.93607203
 21
87.9716651377
 31
0.0
  0
SEQEND
  0
INSERT
 62
256
  8
MNT
 66
1
  2
sw_mnt
 10
343.947911233
 20
168.051726211
 30
0.0
 50
13.0
  0
ATTRIB
 62
3
  8
0
 10
344.01539655
 20
167.759415191
 30
0.0
 40
2.0
  1
56
  2
NAME
 70
0
 50
13.0
 11
344.01539655
 21
167.759415191
 31
0.0
  0
SEQEND
  0
INSERT
 62
256
  8
MNT
 66
1
  2
sw_mnt
 10
348.221981266
 20
149.53869498
 30
0.0
 50
13.0
  0
ATTRIB
 62
3
  8
0
 10
348.289466582
 20
149.24638396
 30
0.0
 40
2.0
  1
57
  2
NAME
 70
0
 50
13.0
 11
348.289466582
 21
149.24638396
 31
0.0
  0
SEQEND
  0
INSERT
 62
256
  8
MNT
 66
1
  2
sw_mnt
 10
352.496051298
 20
131.025663749
 30
0.0
 50
13.0
  0
ATTRIB
 62
3
  8
0
 10
352.563536615
 20
130.733352729
 30
0.0
 40
2.0
  1
58
  2
NAME
 70
0
 50
13.0
 11
352.563536615
 21
130.733352729
 31
0.0
  0
SEQEND
  0
INSERT
 62
256
  8
MNT
 66
1
  2
sw_mnt
 10
356.770121331
 20
112.512632518
 30
0.0
 50
13.0
  0
ATTRIB
 62
3
  8
0
 10
356.837606647
 20
112.220321498
 30
0.0
 40
2.0
  1
59
  2
NAME
 70
0
 50
13.0
 11
356.837606647
 21
112.220321498
 31
0.0
  0
SEQEND
  0
INSERT
 62
256
  8
MNT
 66
1
  2
sw_mnt
 10
361.044191363
 20
93.9996012869
 30
0.0
 50
13.0
  0
ATTRIB
 62
3
  8
0
 10
361.11167668
 20
93.7072902675
 30
0.0
 40
2.0
  1
60
  2
NAME
 70
0
 50
13.0
 11
361.11167668
 21
93.7072902675
 31
0.0
  0
SEQEND
  0
INSERT
 62
256
  8
MNT
 66
1
  2
sw_mnt
 10
362.798369046
 20
170.864241146
 30
0.0
 50
13.0
  0
ATTRIB
 62
3
  8
0
 10
362.865854362
 20
170.571930126
 30
0.0
 40
2.0
  1
61
  2
NAME
 70
0
 50
13.0
 11
362.865854362
 21
170.571930126
 31
0.0
  0
SEQEND
  0
INSERT
 62
256
  8
MNT
 66
1
  2
sw_mnt
 10
367.072439078
 20
152.351209915
 30
0.0
 50
13.0
  0
ATTRIB
 62
3
  8
0
 10
367.139924395
 20
152.058898896
 30
0.0
 40
2.0
  1
62
  2
NAME
 70
0
 50
13.0
 11
367.139924395
 21
152.058898896
 31
0.0
  0
SEQEND
  0
INSERT
 62
256
  8
MNT
 66
1
  2
sw_mnt
 10
371.346509111
 20
133.838178684
 30
0.0
 50
13.0
  0
ATTRIB
 62
3
  8
0
 10
371.413994427
 20
133.545867665
 30
0.0
 40
2.0
  1
63
  2
NAME
 70
0
 50
13.0
 11
371.413994427
 21
133.545867665
 31
0.0
  0
SEQEND
  0
INSERT
 62
256
  8
MNT
 66
1
  2
sw_mnt
 10
375.620579143
 20
115.325147453
 30
0.0
 50
13.0
  0
ATTRIB
 62
3
  8
0
 10
375.68806446
 20
115.032836434
 30
0.0
 40
2.0
  1
64
  2
NAME
 70
0
 50
13.0
 11
375.68806446
 21
115.032836434
 31
0.0
  0
SEQEND
  0
INSERT
 62
256
  8
MNT
 66
1
  2
sw_mnt
 10
379.894649176
 20
96.8121162222
 30
0.0
 50
13.0
  0
ATTRIB
 62
3
  8
0
 10
379.962134492
 20
96.5198052028
 30
0.0
 40
2.0
  1
65
  2
NAME
 70
0
 50
13.0
 11
379.962134492
 21
96.5198052028
 31
0.0
  0
SEQEND
  0
INSERT
 62
256
  8
MNT
 66
1
  2
sw_mnt
 10
381.98625344
 20
172.215200984
 30
0.0
 50
13.0
  0
ATTRIB
 62
3
  8
0
 10
382.053738756
 20
171.922889965
 30
0.0
 40
2.0
  1
66
  2
NAME
 70
0
 50
13.0
 11
382.053738756
 21
171.922889965
 31
0.0
  0
SEQEND
  0
INSERT
 62
256
  8
MNT
 66
1
  2
sw_mnt
 10
386.260323472
 20
153.702169753
 30
0.0
 50
13.0
  0
ATTRIB
 62
3
  8
0
 10
386.327808789
 20
153.409858734
 30
0.0
 40
2.0
  1
67
  2
NAME
 70
0
 50
13.0
 11
386.327808789
 21
153.409858734
 31
0.0
  0
SEQEND
  0
INSERT
 62
256
  8
MNT
 66
1
  2
sw_mnt
 10
390.534393505
 20
135.189138522
 30
0.0
 50
13.0
  0
ATTRIB
 62
3
  8
0
 10
390.601878821
 20
134.896827503
 30
0.0
 40
2.0
  1
68
  2
NAME
 70
0
 50
13.0
 11
390.601878821
 21
134.896827503
 31
0.0
  0
SEQEND
  0
INSERT
 62
256
  8
MNT
 66
1
  2
sw_mnt
 10
394.808463537
 20
116.676107291
 30
0.0
 50
13.0
  0
ATTRIB
 62
3
  8
0
 10
394.875948854
 20
116.383796272
 30
0.0
 40
2.0
  1
69
  2
NAME
 70
0
 50
13.0
 11
394.875948854
 21
116.383796272
 31
0.0
  0
SEQEND
  0
INSERT
 62
256
  8
MNT
 66
1
  2
sw_mnt
 10
399.08253357
 20
98.1630760604
 30
0.0
 50
13.0
  0
ATTRIB
 62
3
  8
0
 10
399.150018886
 20
97.870765041
 30
0.0
 40
2.0
  1
70
  2
NAME
 70
0
 50
13.0
 11
399.150018886
 21
97.870765041
 31
0.0
  0
SEQEND
  0
INSERT
 62
256
  8
MNT
 66
1
  2
sw_mnt
 10
405.127542478
 20
177.557788525
 30
0.0
 50
13.0
  0
ATTRIB
 62
3
  8
0
 10
405.195027795
 20
177.265477505
 30
0.0
 40
2.0
  1
71
  2
NAME
 70
0
 50
13.0
 11
405.195027795
 21
177.265477505
 31
0.0
  0
SEQEND
  0
INSERT
 62
256
  8
MNT
 66
1
  2
sw_mnt
 10
409.401612511
 20
159.044757294
 30
0.0
 50
13.0
  0
ATTRIB
 62
3
  8
0
 10
409.469097827
 20
158.752446274
 30
0.0
 40
2.0
  1
72
  2
NAME
 70
0
 50
13.0
 11
409.469097827
 21
158.752446274
 31
0.0
  0
SEQEND
  0
INSERT
 62
256
  8
MNT
 66
1
  2
sw_mnt
 10
413.675682543
 20
140.531726063
 30
0.0
 50
13.0
  0
ATTRIB
 62
3
  8
0
 10
413.74316786
 20
140.239415043
 30
0.0
 40
2.0
  1
73
  2
NAME
 70
0
 50
13.0
 11
413.74316786
 21
140.239415043
 31
0.0
  0
SEQEND
  0
INSERT
 62
256
  8
MNT
 66
1
  2
sw_mnt
 10
417.949752576
 20
122.018694832
 30
0.0
 50
13.0
  0
ATTRIB
 62
3
  8
0
 10
418.017237892
 20
121.726383813
 30
0.0
 40
2.0
  1
74
  2
NAME
 70
0
 50
13.0
 11
418.017237892
 21
121.726383813
 31
0.0
  0
SEQEND
  0
INSERT
 62
256
  8
MNT
 66
1
  2
sw_mnt
 10
417.595564801
 20
102.437146093
 30
0.0
 50
13.0
  0
ATTRIB
 62
3
  8
0
 10
417.663050117
 20
102.144835074
 30
0.0
 40
2.0
  1
75
  2
NAME
 70
0
 50
13.0
 11
417.663050117
 21
102.144835074
 31
0.0
  0
SEQEND
  0
INSERT
 62
256
  8
MNT
  2
drill_m3
 10
206.873312525
 20
86.9798911822
 30
0.0
 50
0.0
  0
INSERT
 62
256
  8
MNT
  2
drill_m3
 10
177.645574079
 20
182.579516012
 30
0.0
 50
0.0
  0
INSERT
 62
256
  8
MNT
  2
drill_m3
 10
80.240001161
 20
205.067364437
 30
0.0
 50
0.0
  0
INSERT
 62
256
  8
MNT
  2
drill_m3
 10
12.0621666897
 20
131.955588032
 30
0.0
 50
0.0
  0
INSERT
 62
256
  8
MNT
  2
drill_m3
 10
41.289905136
 20
36.355963203
 30
0.0
 50
0.0
  0
INSERT
 62
256
  8
MNT
  2
drill_m3
 10
138.695478054
 20
13.868114778
 30
0.0
 50
0.0
  0
INSERT
 62
256
  8
MNT
  2
drill_m3
 10
250.997645904
 20
86.9798911822
 30
0.0
 50
0.0
  0
INSERT
 62
256
  8
MNT
  2
drill_m3
 10
280.22538435
 20
182.579516012
 30
0.0
 50
0.0
  0
INSERT
 62
256
  8
MNT
  2
drill_m3
 10
377.630957268
 20
205.067364437
 30
0.0
 50
0.0
  0
INSERT
 62
256
  8
MNT
  2
drill_m3
 10
445.808791739
 20
131.955588032
 30
0.0
 50
0.0
  0
INSERT
 62
256
  8
MNT
  2
drill_m3
 10
416.581053293
 20
36.355963203
 30
0.0
 50
0.0
  0
INSERT
 62
256
  8
MNT
  2
drill_m3
 10
319.175480376
 20
13.868114778
 30
0.0
 50
0.0
  0
INSERT
 62
256
  8
MNT
  2
drill_m3
 10
208.935479215
 20
143.391119395
 30
0.0
 50
0.0
  0
INSERT
 62
256
  8
MNT
  2
drill_m3
 10
248.935479215
 20
143.391119395
 30
0.0
 50
0.0
  0
INSERT
 62
256
  8
MNT
  2
drill_m3
 10
208.935479215
 20
183.391119395
 30
0.0
 50
0.0
  0
INSERT
 62
256
  8
MNT
  2
drill_m3
 10
248.935479215
 20
183.391119395
 30
0.0
 50
0.0
  0
ARC
  8
MNT
 10
109.467739607
 20
109.467739607
 30
0.0
 40
109.467739607
 50
63.1245576434
 51
-50.2604561977
  0
ARC
  8
MNT
 10
228.935479215
 20
-34.229937471
 30
0.0
 40
77.4053809975
 50
50.2604561977
 51
129.739543802
  0
ARC
  8
MNT
 10
348.403218822
 20
109.467739607
 30
0.0
 40
109.467739607
 50
230.260456198
 51
116.875442357
  0
ARC
  8
MNT
 10
228.935479215
 20
345.20188139
 30
0.0
 40
154.810761995
 50
243.124557643
 51
-63.1245576434
  0
INSERT
 62
256
  8
TOP0
  2
drill_m3
 10
206.873312525
 20
86.9798911822
 30
0.0
 50
0.0
  0
INSERT
 62
256
  8
TOP0
  2
drill_m3
 10
177.645574079
 20
182.579516012
 30
0.0
 50
0.0
  0
INSERT
 62
256
  8
TOP0
  2
drill_m3
 10
80.240001161
 20
205.067364437
 30
0.0
 50
0.0
  0
INSERT
 62
256
  8
TOP0
  2
drill_m3
 10
12.0621666897
 20
131.955588032
 30
0.0
 50
0.0
  0
INSERT
 62
256
  8
TOP0
  2
drill_m3
 10
41.289905136
 20
36.355963203
 30
0.0
 50
0.0
  0
INSERT
 62
256
  8
TOP0
  2
drill_m3
 10
138.695478054
 20
13.868114778
 30
0.0
 50
0.0
  0
INSERT
 62
256
  8
TOP0
  2
drill_m3
 10
250.997645904
 20
86.9798911822
 30
0.0
 50
0.0
  0
INSERT
 62
256
  8
TOP0
  2
drill_m3
 10
280.22538435
 20
182.579516012
 30
0.0
 50
0.0
  0
INSERT
 62
256
  8
TOP0
  2
drill_m3
 10
377.630957268
 20
205.067364437
 30
0.0
 50
0.0
  0
INSERT
 62
256
  8
TOP0
  2
drill_m3
 10
445.808791739
 20
131.955588032
 30
0.0
 50
0.0
  0
INSERT
 62
256
  8
TOP0
  2
drill_m3
 10
416.581053293
 20
36.355963203
 30
0.0
 50
0.0
  0
INSERT
 62
256
  8
TOP0
  2
drill_m3
 10
319.175480376
 20
13.868114778
 30
0.0
 50
0.0
  0
INSERT
 62
256
  8
TOP0
  2
drill_7mm
 10
208.935479215
 20
143.391119395
 30
0.0
 50
0.0
  0
INSERT
 62
256
  8
TOP0
  2
drill_7mm
 10
248.935479215
 20
143.391119395
 30
0.0
 50
0.0
  0
INSERT
 62
256
  8
TOP0
  2
drill_7mm
 10
208.935479215
 20
183.391119395
 30
0.0
 50
0.0
  0
INSERT
 62
256
  8
TOP0
  2
drill_7mm
 10
248.935479215
 20
183.391119395
 30
0.0
 50
0.0
  0
POLYLINE
  8
TOP0
 66
1
 10
0.0
 20
0.0
 30
0.0
 70
8
  0
VERTEX
  8
0
 10
40.6209680386
 20
190.619517224
 30
0.0
  0
VERTEX
  8
0
 10
23.2997368541
 20
115.593022236
 30
0.0
  0
VERTEX
  8
0
 10
32.5562524696
 20
113.455987219
 30
0.0
  0
VERTEX
  8
0
 10
28.282182437
 20
94.9429559885
 30
0.0
  0
VERTEX
  8
0
 10
66.2826149637
 20
86.1698648691
 30
0.0
  0
VERTEX
  8
0
 10
66.9574681267
 20
89.0929750635
 30
0.0
  0
VERTEX
  8
0
 10
85.4704993576
 20
84.818905031
 30
0.0
  0
VERTEX
  8
0
 10
85.8079259391
 20
86.2804601281
 30
0.0
  0
VERTEX
  8
0
 10
103.346587105
 20
82.2313411499
 30
0.0
  0
VERTEX
  8
0
 10
103.009160524
 20
80.7697860528
 30
0.0
  0
VERTEX
  8
0
 10
122.496561819
 20
76.2707649659
 30
0.0
  0
VERTEX
  8
0
 10
126.43320527
 20
93.3222410996
 30
0.0
  0
VERTEX
  8
0
 10
144.946236501
 20
89.0481710671
 30
0.0
  0
VERTEX
  8
0
 10
163.459267732
 20
84.7741010346
 30
0.0
  0
VERTEX
  8
0
 10
170.095323835
 20
113.518017946
 30
0.0
  0
VERTEX
  8
0
 10
180.780498917
 20
159.800596023
 30
0.0
  0
VERTEX
  8
0
 10
143.754436455
 20
168.348736088
 30
0.0
  0
VERTEX
  8
0
 10
144.091863036
 20
169.810291185
 30
0.0
  0
VERTEX
  8
0
 10
125.578831806
 20
174.084361218
 30
0.0
  0
VERTEX
  8
0
 10
125.916258387
 20
175.545916315
 30
0.0
  0
VERTEX
  8
0
 10
106.428857091
 20
180.044937402
 30
0.0
  0
VERTEX
  8
0
 10
106.09143051
 20
178.583382305
 30
0.0
  0
VERTEX
  8
0
 10
87.5783992789
 20
182.857452337
 30
0.0
  0
VERTEX
  8
0
 10
86.9035461159
 20
179.934342143
 30
0.0
  0
VERTEX
  8
0
 10
40.6209680386
 20
190.619517224
 30
0.0
  0
SEQEND
  0
POLYLINE
  8
TOP0
 66
1
 10
0.0
 20
0.0
 30
0.0
 70
8
  0
VERTEX
  8
0
 10
123.785618019
 20
60.9461646602
 30
0.0
  0
VERTEX
  8
0
 10
153.730026656
 20
37.5510285979
 30
0.0
  0
VERTEX
  8
0
 10
150.805634648
 20
33.8079775182
 30
0.0
  0
VERTEX
  8
0
 10
166.565849721
 20
21.4947480117
 30
0.0
  0
VERTEX
  8
0
 10
202.274215289
 20
67.1993717209
 30
0.0
  0
VERTEX
  8
0
 10
186.514000217
 20
79.5126012274
 30
0.0
  0
VERTEX
  8
0
 10
183.589608209
 20
75.7695501478
 30
0.0
  0
VERTEX
  8
0
 10
168.617403891
 20
87.467118179
 30
0.0
  0
VERTEX
  8
0
 10
156.91983586
 20
72.4949138605
 30
0.0
  0
VERTEX
  8
0
 10
141.947631541
 20
84.1924818916
 30
0.0
  0
VERTEX
  8
0
 10
123.785618019
 20
60.9461646602
 30
0.0
  0
SEQEND
  0
POLYLINE
  8
TOP0
 66
1
 10
0.0
 20
0.0
 30
0.0
 70
8
  0
VERTEX
  8
0
 10
417.24999039
 20
190.619517224
 30
0.0
  0
VERTEX
  8
0
 10
434.571221575
 20
115.593022236
 30
0.0
  0
VERTEX
  8
0
 10
425.314705959
 20
113.455987219
 30
0.0
  0
VERTEX
  8
0
 10
429.588775992
 20
94.9429559885
 30
0.0
  0
VERTEX
  8
0
 10
391.588343465
 20
86.1698648691
 30
0.0
  0
VERTEX
  8
0
 10
390.913490302
 20
89.0929750635
 30
0.0
  0
VERTEX
  8
0
 10
372.400459071
 20
84.818905031
 30
0.0
  0
VERTEX
  8
0
 10
372.06303249
 20
86.2804601281
 30
0.0
  0
VERTEX
  8
0
 10
354.524371324
 20
82.2313411499
 30
0.0
  0
VERTEX
  8
0
 10
354.861797905
 20
80.7697860528
 30
0.0
  0
VERTEX
  8
0
 10
335.37439661
 20
76.2707649659
 30
0.0
  0
VERTEX
  8
0
 10
331.437753159
 20
93.3222410996
 30
0.0
  0
VERTEX
  8
0
 10
312.924721928
 20
89.0481710671
 30
0.0
  0
VERTEX
  8
0
 10
294.411690697
 20
84.7741010346
 30
0.0
  0
VERTEX
  8
0
 10
287.775634594
 20
113.518017946
 30
0.0
  0
VERTEX
  8
0
 10
277.090459512
 20
159.800596023
 30
0.0
  0
VERTEX
  8
0
 10
314.116521974
 20
168.348736088
 30
0.0
  0
VERTEX
  8
0
 10
313.779095393
 20
169.810291185
 30
0.0
  0
VERTEX
  8
0
 10
332.292126624
 20
174.084361218
 30
0.0
  0
VERTEX
  8
0
 10
331.954700042
 20
175.545916315
 30
0.0
  0
VERTEX
  8
0
 10
351.442101338
 20
180.044937402
 30
0.0
  0
VERTEX
  8
0
 10
351.779527919
 20
178.583382305
 30
0.0
  0
VERTEX
  8
0
 10
370.29255915
 20
182.857452337
 30
0.0
  0
VERTEX
  8
0
 10
370.967412313
 20
179.934342143
 30
0.0
  0
VERTEX
  8
0
 10
417.24999039
 20
190.619517224
 30
0.0
  0
SEQEND
  0
POLYLINE
  8
TOP0
 66
1
 10
0.0
 20
0.0
 30
0.0
 70
8
  0
VERTEX
  8
0
 10
334.08534041
 20
60.9461646602
 30
0.0
  0
VERTEX
  8
0
 10
304.140931773
 20
37.5510285979
 30
0.0
  0
VERTEX
  8
0
 10
307.065323781
 20
33.8079775182
 30
0.0
  0
VERTEX
  8
0
 10
291.305108709
 20
21.4947480117
 30
0.0
  0
VERTEX
  8
0
 10
255.59674314
 20
67.1993717209
 30
0.0
  0
VERTEX
  8
0
 10
271.356958212
 20
79.5126012274
 30
0.0
  0
VERTEX
  8
0
 10
274.28135022
 20
75.7695501478
 30
0.0
  0
VERTEX
  8
0
 10
289.253554538
 20
87.467118179
 30
0.0
  0
VERTEX
  8
0
 10
300.951122569
 20
72.4949138605
 30
0.0
  0
VERTEX
  8
0
 10
315.923326888
 20
84.1924818916
 30
0.0
  0
VERTEX
  8
0
 10
334.08534041
 20
60.9461646602
 30
0.0
  0
SEQEND
  0
ARC
  8
TOP0
 10
109.467739607
 20
109.467739607
 30
0.0
 40
109.467739607
 50
63.1245576434
 51
-50.2604561977
  0
ARC
  8
TOP0
 10
228.935479215
 20
-34.229937471
 30
0.0
 40
77.4053809975
 50
50.2604561977
 51
129.739543802
  0
ARC
  8
TOP0
 10
348.403218822
 20
109.467739607
 30
0.0
 40
109.467739607
 50
230.260456198
 51
116.875442357
  0
ARC
  8
TOP0
 10
228.935479215
 20
345.20188139
 30
0.0
 40
154.810761995
 50
243.124557643
 51
-63.1245576434
  0
INSERT
 62
256
  8
TOP1
  2
drill_m3
 10
206.873312525
 20
86.9798911822
 30
0.0
 50
0.0
  0
INSERT
 62
256
  8
TOP1
  2
drill_m3
 10
177.645574079
 20
182.579516012
 30
0.0
 50
0.0
  0
INSERT
 62
256
  8
TOP1
  2
drill_m3
 10
80.240001161
 20
205.067364437
 30
0.0
 50
0.0
  0
INSERT
 62
256
  8
TOP1
  2
drill_m3
 10
12.0621666897
 20
131.955588032
 30
0.0
 50
0.0
  0
INSERT
 62
256
  8
TOP1
  2
drill_m3
 10
41.289905136
 20
36.355963203
 30
0.0
 50
0.0
  0
INSERT
 62
256
  8
TOP1
  2
drill_m3
 10
138.695478054
 20
13.868114778
 30
0.0
 50
0.0
  0
INSERT
 62
256
  8
TOP1
  2
drill_m3
 10
250.997645904
 20
86.9798911822
 30
0.0
 50
0.0
  0
INSERT
 62
256
  8
TOP1
  2
drill_m3
 10
280.22538435
 20
182.579516012
 30
0.0
 50
0.0
  0
INSERT
 62
256
  8
TOP1
  2
drill_m3
 10
377.630957268
 20
205.067364437
 30
0.0
 50
0.0
  0
INSERT
 62
256
  8
TOP1
  2
drill_m3
 10
445.808791739
 20
131.955588032
 30
0.0
 50
0.0
  0
INSERT
 62
256
  8
TOP1
  2
drill_m3
 10
416.581053293
 20
36.355963203
 30
0.0
 50
0.0
  0
INSERT
 62
256
  8
TOP1
  2
drill_m3
 10
319.175480376
 20
13.868114778
 30
0.0
 50
0.0
  0
POLYLINE
  8
TOP1
 66
1
 10
0.0
 20
0.0
 30
0.0
 70
8
  0
VERTEX
  8
0
 10
40.6209680386
 20
190.619517224
 30
0.0
  0
VERTEX
  8
0
 10
23.2997368541
 20
115.593022236
 30
0.0
  0
VERTEX
  8
0
 10
32.5562524696
 20
113.455987219
 30
0.0
  0
VERTEX
  8
0
 10
28.282182437
 20
94.9429559885
 30
0.0
  0
VERTEX
  8
0
 10
66.2826149637
 20
86.1698648691
 30
0.0
  0
VERTEX
  8
0
 10
66.9574681267
 20
89.0929750635
 30
0.0
  0
VERTEX
  8
0
 10
85.4704993576
 20
84.818905031
 30
0.0
  0
VERTEX
  8
0
 10
85.8079259391
 20
86.2804601281
 30
0.0
  0
VERTEX
  8
0
 10
103.346587105
 20
82.2313411499
 30
0.0
  0
VERTEX
  8
0
 10
103.009160524
 20
80.7697860528
 30
0.0
  0
VERTEX
  8
0
 10
122.496561819
 20
76.2707649659
 30
0.0
  0
VERTEX
  8
0
 10
126.43320527
 20
93.3222410996
 30
0.0
  0
VERTEX
  8
0
 10
144.946236501
 20
89.0481710671
 30
0.0
  0
VERTEX
  8
0
 10
163.459267732
 20
84.7741010346
 30
0.0
  0
VERTEX
  8
0
 10
170.095323835
 20
113.518017946
 30
0.0
  0
VERTEX
  8
0
 10
180.780498917
 20
159.800596023
 30
0.0
  0
VERTEX
  8
0
 10
143.754436455
 20
168.348736088
 30
0.0
  0
VERTEX
  8
0
 10
144.091863036
 20
169.810291185
 30
0.0
  0
VERTEX
  8
0
 10
125.578831806
 20
174.084361218
 30
0.0
  0
VERTEX
  8
0
 10
125.916258387
 20
175.545916315
 30
0.0
  0
VERTEX
  8
0
 10
106.428857091
 20
180.044937402
 30
0.0
  0
VERTEX
  8
0
 10
106.09143051
 20
178.583382305
 30
0.0
  0
VERTEX
  8
0
 10
87.5783992789
 20
182.857452337
 30
0.0
  0
VERTEX
  8
0
 10
86.9035461159
 20
179.934342143
 30
0.0
  0
VERTEX
  8
0
 10
40.6209680386
 20
190.619517224
 30
0.0
  0
SEQEND
  0
POLYLINE
  8
TOP1
 66
1
 10
0.0
 20
0.0
 30
0.0
 70
8
  0
VERTEX
  8
0
 10
123.785618019
 20
60.9461646602
 30
0.0
  0
VERTEX
  8
0
 10
153.730026656
 20
37.5510285979
 30
0.0
  0
VERTEX
  8
0
 10
150.805634648
 20
33.8079775182
 30
0.0
  0
VERTEX
  8
0
 10
166.565849721
 20
21.4947480117
 30
0.0
  0
VERTEX
  8
0
 10
202.274215289
 20
67.1993717209
 30
0.0
  0
VERTEX
  8
0
 10
186.514000217
 20
79.5126012274
 30
0.0
  0
VERTEX
  8
0
 10
183.589608209
 20
75.7695501478
 30
0.0
  0
VERTEX
  8
0
 10
168.617403891
 20
87.467118179
 30
0.0
  0
VERTEX
  8
0
 10
156.91983586
 20
72.4949138605
 30
0.0
  0
VERTEX
  8
0
 10
141.947631541
 20
84.1924818916
 30
0.0
  0
VERTEX
  8
0
 10
123.785618019
 20
60.9461646602
 30
0.0
  0
SEQEND
  0
POLYLINE
  8
TOP1
 66
1
 10
0.0
 20
0.0
 30
0.0
 70
8
  0
VERTEX
  8
0
 10
417.24999039
 20
190.619517224
 30
0.0
  0
VERTEX
  8
0
 10
434.571221575
 20
115.593022236
 30
0.0
  0
VERTEX
  8
0
 10
425.314705959
 20
113.455987219
 30
0.0
  0
VERTEX
  8
0
 10
429.588775992
 20
94.9429559885
 30
0.0
  0
VERTEX
  8
0
 10
391.588343465
 20
86.1698648691
 30
0.0
  0
VERTEX
  8
0
 10
390.913490302
 20
89.0929750635
 30
0.0
  0
VERTEX
  8
0
 10
372.400459071
 20
84.818905031
 30
0.0
  0
VERTEX
  8
0
 10
372.06303249
 20
86.2804601281
 30
0.0
  0
VERTEX
  8
0
 10
354.524371324
 20
82.2313411499
 30
0.0
  0
VERTEX
  8
0
 10
354.861797905
 20
80.7697860528
 30
0.0
  0
VERTEX
  8
0
 10
335.37439661
 20
76.2707649659
 30
0.0
  0
VERTEX
  8
0
 10
331.437753159
 20
93.3222410996
 30
0.0
  0
VERTEX
  8
0
 10
312.924721928
 20
89.0481710671
 30
0.0
  0
VERTEX
  8
0
 10
294.411690697
 20
84.7741010346
 30
0.0
  0
VERTEX
  8
0
 10
287.775634594
 20
113.518017946
 30
0.0
  0
VERTEX
  8
0
 10
277.090459512
 20
159.800596023
 30
0.0
  0
VERTEX
  8
0
 10
314.116521974
 20
168.348736088
 30
0.0
  0
VERTEX
  8
0
 10
313.779095393
 20
169.810291185
 30
0.0
  0
VERTEX
  8
0
 10
332.292126624
 20
174.084361218
 30
0.0
  0
VERTEX
  8
0
 10
331.954700042
 20
175.545916315
 30
0.0
  0
VERTEX
  8
0
 10
351.442101338
 20
180.044937402
 30
0.0
  0
VERTEX
  8
0
 10
351.779527919
 20
178.583382305
 30
0.0
  0
VERTEX
  8
0
 10
370.29255915
 20
182.857452337
 30
0.0
  0
VERTEX
  8
0
 10
370.967412313
 20
179.934342143
 30
0.0
  0
VERTEX
  8
0
 10
417.24999039
 20
190.619517224
 30
0.0
  0
SEQEND
  0
POLYLINE
  8
TOP1
 66
1
 10
0.0
 20
0.0
 30
0.0
 70
8
  0
VERTEX
  8
0
 10
334.08534041
 20
60.9461646602
 30
0.0
  0
VERTEX
  8
0
 10
304.140931773
 20
37.5510285979
 30
0.0
  0
VERTEX
  8
0
 10
307.065323781
 20
33.8079775182
 30
0.0
  0
VERTEX
  8
0
 10
291.305108709
 20
21.4947480117
 30
0.0
  0
VERTEX
  8
0
 10
255.59674314
 20
67.1993717209
 30
0.0
  0
VERTEX
  8
0
 10
271.356958212
 20
79.5126012274
 30
0.0
  0
VERTEX
  8
0
 10
274.28135022
 20
75.7695501478
 30
0.0
  0
VERTEX
  8
0
 10
289.253554538
 20
87.467118179
 30
0.0
  0
VERTEX
  8
0
 10
300.951122569
 20
72.4949138605
 30
0.0
  0
VERTEX
  8
0
 10
315.923326888
 20
84.1924818916
 30
0.0
  0
VERTEX
  8
0
 10
334.08534041
 20
60.9461646602
 30
0.0
  0
SEQEND
  0
ARC
  8
TOP1
 10
109.467739607
 20
109.467739607
 30
0.0
 40
109.467739607
 50
63.1245576434
 51
-50.2604561977
  0
ARC
  8
TOP1
 10
228.935479215
 20
-34.229937471
 30
0.0
 40
77.4053809975
 50
50.2604561977
 51
129.739543802
  0
ARC
  8
TOP1
 10
348.403218822
 20
109.467739607
 30
0.0
 40
109.467739607
 50
230.260456198
 51
116.875442357
  0
ARC
  8
TOP1
 10
228.935479215
 20
345.20188139
 30
0.0
 40
154.810761995
 50
243.124557643
 51
-63.1245576434
  0
INSERT
 62
256
  8
TOP2
  2
drill_m3
 10
206.873312525
 20
86.9798911822
 30
0.0
 50
0.0
  0
INSERT
 62
256
  8
TOP2
  2
drill_m3
 10
177.645574079
 20
182.579516012
 30
0.0
 50
0.0
  0
INSERT
 62
256
  8
TOP2
  2
drill_m3
 10
80.240001161
 20
205.067364437
 30
0.0
 50
0.0
  0
INSERT
 62
256
  8
TOP2
  2
drill_m3
 10
12.0621666897
 20
131.955588032
 30
0.0
 50
0.0
  0
INSERT
 62
256
  8
TOP2
  2
drill_m3
 10
41.289905136
 20
36.355963203
 30
0.0
 50
0.0
  0
INSERT
 62
256
  8
TOP2
  2
drill_m3
 10
138.695478054
 20
13.868114778
 30
0.0
 50
0.0
  0
INSERT
 62
256
  8
TOP2
  2
drill_m3
 10
250.997645904
 20
86.9798911822
 30
0.0
 50
0.0
  0
INSERT
 62
256
  8
TOP2
  2
drill_m3
 10
280.22538435
 20
182.579516012
 30
0.0
 50
0.0
  0
INSERT
 62
256
  8
TOP2
  2
drill_m3
 10
377.630957268
 20
205.067364437
 30
0.0
 50
0.0
  0
INSERT
 62
256
  8
TOP2
  2
drill_m3
 10
445.808791739
 20
131.955588032
 30
0.0
 50
0.0
  0
INSERT
 62
256
  8
TOP2
  2
drill_m3
 10
416.581053293
 20
36.355963203
 30
0.0
 50
0.0
  0
INSERT
 62
256
  8
TOP2
  2
drill_m3
 10
319.175480376
 20
13.868114778
 30
0.0
 50
0.0
  0
POLYLINE
  8
TOP2
 66
1
 10
0.0
 20
0.0
 30
0.0
 70
8
  0
VERTEX
  8
0
 10
40.6209680386
 20
190.619517224
 30
0.0
  0
VERTEX
  8
0
 10
23.2997368541
 20
115.593022236
 30
0.0
  0
VERTEX
  8
0
 10
32.5562524696
 20
113.455987219
 30
0.0
  0
VERTEX
  8
0
 10
28.282182437
 20
94.9429559885
 30
0.0
  0
VERTEX
  8
0
 10
66.2826149637
 20
86.1698648691
 30
0.0
  0
VERTEX
  8
0
 10
66.9574681267
 20
89.0929750635
 30
0.0
  0
VERTEX
  8
0
 10
85.4704993576
 20
84.818905031
 30
0.0
  0
VERTEX
  8
0
 10
85.8079259391
 20
86.2804601281
 30
0.0
  0
VERTEX
  8
0
 10
103.346587105
 20
82.2313411499
 30
0.0
  0
VERTEX
  8
0
 10
103.009160524
 20
80.7697860528
 30
0.0
  0
VERTEX
  8
0
 10
122.496561819
 20
76.2707649659
 30
0.0
  0
VERTEX
  8
0
 10
126.43320527
 20
93.3222410996
 30
0.0
  0
VERTEX
  8
0
 10
144.946236501
 20
89.0481710671
 30
0.0
  0
VERTEX
  8
0
 10
163.459267732
 20
84.7741010346
 30
0.0
  0
VERTEX
  8
0
 10
170.095323835
 20
113.518017946
 30
0.0
  0
VERTEX
  8
0
 10
180.780498917
 20
159.800596023
 30
0.0
  0
VERTEX
  8
0
 10
143.754436455
 20
168.348736088
 30
0.0
  0
VERTEX
  8
0
 10
144.091863036
 20
169.810291185
 30
0.0
  0
VERTEX
  8
0
 10
125.578831806
 20
174.084361218
 30
0.0
  0
VERTEX
  8
0
 10
125.916258387
 20
175.545916315
 30
0.0
  0
VERTEX
  8
0
 10
106.428857091
 20
180.044937402
 30
0.0
  0
VERTEX
  8
0
 10
106.09143051
 20
178.583382305
 30
0.0
  0
VERTEX
  8
0
 10
87.5783992789
 20
182.857452337
 30
0.0
  0
VERTEX
  8
0
 10
86.9035461159
 20
179.934342143
 30
0.0
  0
VERTEX
  8
0
 10
40.6209680386
 20
190.619517224
 30
0.0
  0
SEQEND
  0
POLYLINE
  8
TOP2
 66
1
 10
0.0
 20
0.0
 30
0.0
 70
8
  0
VERTEX
  8
0
 10
123.785618019
 20
60.9461646602
 30
0.0
  0
VERTEX
  8
0
 10
153.730026656
 20
37.5510285979
 30
0.0
  0
VERTEX
  8
0
 10
150.805634648
 20
33.8079775182
 30
0.0
  0
VERTEX
  8
0
 10
166.565849721
 20
21.4947480117
 30
0.0
  0
VERTEX
  8
0
 10
202.274215289
 20
67.1993717209
 30
0.0
  0
VERTEX
  8
0
 10
186.514000217
 20
79.5126012274
 30
0.0
  0
VERTEX
  8
0
 10
183.589608209
 20
75.7695501478
 30
0.0
  0
VERTEX
  8
0
 10
168.617403891
 20
87.467118179
 30
0.0
  0
VERTEX
  8
0
 10
156.91983586
 20
72.4949138605
 30
0.0
  0
VERTEX
  8
0
 10
141.947631541
 20
84.1924818916
 30
0.0
  0
VERTEX
  8
0
 10
123.785618019
 20
60.9461646602
 30
0.0
  0
SEQEND
  0
POLYLINE
  8
TOP2
 66
1
 10
0.0
 20
0.0
 30
0.0
 70
8
  0
VERTEX
  8
0
 10
417.24999039
 20
190.619517224
 30
0.0
  0
VERTEX
  8
0
 10
434.571221575
 20
115.593022236
 30
0.0
  0
VERTEX
  8
0
 10
425.314705959
 20
113.455987219
 30
0.0
  0
VERTEX
  8
0
 10
429.588775992
 20
94.9429559885
 30
0.0
  0
VERTEX
  8
0
 10
391.588343465
 20
86.1698648691
 30
0.0
  0
VERTEX
  8
0
 10
390.913490302
 20
89.0929750635
 30
0.0
  0
VERTEX
  8
0
 10
372.400459071
 20
84.818905031
 30
0.0
  0
VERTEX
  8
0
 10
372.06303249
 20
86.2804601281
 30
0.0
  0
VERTEX
  8
0
 10
354.524371324
 20
82.2313411499
 30
0.0
  0
VERTEX
  8
0
 10
354.861797905
 20
80.7697860528
 30
0.0
  0
VERTEX
  8
0
 10
335.37439661
 20
76.2707649659
 30
0.0
  0
VERTEX
  8
0
 10
331.437753159
 20
93.3222410996
 30
0.0
  0
VERTEX
  8
0
 10
312.924721928
 20
89.0481710671
 30
0.0
  0
VERTEX
  8
0
 10
294.411690697
 20
84.7741010346
 30
0.0
  0
VERTEX
  8
0
 10
287.775634594
 20
113.518017946
 30
0.0
  0
VERTEX
  8
0
 10
277.090459512
 20
159.800596023
 30
0.0
  0
VERTEX
  8
0
 10
314.116521974
 20
168.348736088
 30
0.0
  0
VERTEX
  8
0
 10
313.779095393
 20
169.810291185
 30
0.0
  0
VERTEX
  8
0
 10
332.292126624
 20
174.084361218
 30
0.0
  0
VERTEX
  8
0
 10
331.954700042
 20
175.545916315
 30
0.0
  0
VERTEX
  8
0
 10
351.442101338
 20
180.044937402
 30
0.0
  0
VERTEX
  8
0
 10
351.779527919
 20
178.583382305
 30
0.0
  0
VERTEX
  8
0
 10
370.29255915
 20
182.857452337
 30
0.0
  0
VERTEX
  8
0
 10
370.967412313
 20
179.934342143
 30
0.0
  0
VERTEX
  8
0
 10
417.24999039
 20
190.619517224
 30
0.0
  0
SEQEND
  0
POLYLINE
  8
TOP2
 66
1
 10
0.0
 20
0.0
 30
0.0
 70
8
  0
VERTEX
  8
0
 10
334.08534041
 20
60.9461646602
 30
0.0
  0
VERTEX
  8
0
 10
304.140931773
 20
37.5510285979
 30
0.0
  0
VERTEX
  8
0
 10
307.065323781
 20
33.8079775182
 30
0.0
  0
VERTEX
  8
0
 10
291.305108709
 20
21.4947480117
 30
0.0
  0
VERTEX
  8
0
 10
255.59674314
 20
67.1993717209
 30
0.0
  0
VERTEX
  8
0
 10
271.356958212
 20
79.5126012274
 30
0.0
  0
VERTEX
  8
0
 10
274.28135022
 20
75.7695501478
 30
0.0
  0
VERTEX
  8
0
 10
289.253554538
 20
87.467118179
 30
0.0
  0
VERTEX
  8
0
 10
300.951122569
 20
72.4949138605
 30
0.0
  0
VERTEX
  8
0
 10
315.923326888
 20
84.1924818916
 30
0.0
  0
VERTEX
  8
0
 10
334.08534041
 20
60.9461646602
 30
0.0
  0
SEQEND
  0
ARC
  8
TOP2
 10
109.467739607
 20
109.467739607
 30
0.0
 40
109.467739607
 50
63.1245576434
 51
-50.2604561977
  0
ARC
  8
TOP2
 10
228.935479215
 20
-34.229937471
 30
0.0
 40
77.4053809975
 50
50.2604561977
 51
129.739543802
  0
ARC
  8
TOP2
 10
348.403218822
 20
109.467739607
 30
0.0
 40
109.467739607
 50
230.260456198
 51
116.875442357
  0
ARC
  8
TOP2
 10
228.935479215
 20
345.20188139
 30
0.0
 40
154.810761995
 50
243.124557643
 51
-63.1245576434
  0
INSERT
 62
256
  8
TOP2
  2
cap_15
 10
140.746732316
 20
66.4127085227
 30
0.0
 50
52.0
  0
INSERT
 62
256
  8
TOP2
  2
cap_15
 10
155.718936635
 20
54.7151404915
 30
0.0
 50
52.0
  0
INSERT
 62
256
  8
TOP2
  2
cap_10
 10
164.842356938
 20
35.531470301
 30
0.0
 50
-38.0
  0
INSERT
 62
256
  8
TOP2
  2
cap_10
 10
176.539924969
 20
50.5036746196
 30
0.0
 50
-38.0
  0
INSERT
 62
256
  8
TOP2
  2
cap_10
 10
188.237493
 20
65.4758789381
 30
0.0
 50
-38.0
  0
INSERT
 62
256
  8
TOP2
  2
cap_10
 10
170.340896674
 20
73.4303958897
 30
0.0
 50
-38.0
  0
INSERT
 62
256
  8
TOP2
  2
cap_10
 10
168.787287725
 20
152.306405919
 30
0.0
 50
-13.0
  0
INSERT
 62
256
  8
TOP2
  2
cap_15
 10
163.444700185
 20
129.16511688
 30
0.0
 50
77.0
  0
INSERT
 62
256
  8
TOP2
  2
cap_15
 10
157.033595136
 20
101.395570034
 30
0.0
 50
77.0
  0
INSERT
 62
256
  8
TOP2
  2
cap_10
 10
150.274256495
 20
156.580475951
 30
0.0
 50
-13.0
  0
INSERT
 62
256
  8
TOP2
  2
cap_10
 10
146.000186462
 20
138.06744472
 30
0.0
 50
-13.0
  0
INSERT
 62
256
  8
TOP2
  2
cap_10
 10
141.72611643
 20
119.554413489
 30
0.0
 50
-13.0
  0
INSERT
 62
256
  8
TOP2
  2
cap_10
 10
137.452046397
 20
101.041382258
 30
0.0
 50
-13.0
  0
INSERT
 62
256
  8
TOP2
  2
cap_10
 10
132.098651845
 20
162.316101081
 30
0.0
 50
-13.0
  0
INSERT
 62
256
  8
TOP2
  2
cap_10
 10
127.824581813
 20
143.80306985
 30
0.0
 50
-13.0
  0
INSERT
 62
256
  8
TOP2
  2
cap_10
 10
123.55051178
 20
125.290038619
 30
0.0
 50
-13.0
  0
INSERT
 62
256
  8
TOP2
  2
cap_10
 10
119.276441748
 20
106.777007388
 30
0.0
 50
-13.0
  0
INSERT
 62
256
  8
TOP2
  2
cap_10
 10
115.002371715
 20
88.2639761572
 30
0.0
 50
-13.0
  0
INSERT
 62
256
  8
TOP2
  2
cap_10
 10
113.923047196
 20
168.051726211
 30
0.0
 50
-13.0
  0
INSERT
 62
256
  8
TOP2
  2
cap_10
 10
109.648977163
 20
149.53869498
 30
0.0
 50
-13.0
  0
INSERT
 62
256
  8
TOP2
  2
cap_10
 10
105.374907131
 20
131.025663749
 30
0.0
 50
-13.0
  0
INSERT
 62
256
  8
TOP2
  2
cap_10
 10
101.100837098
 20
112.512632518
 30
0.0
 50
-13.0
  0
INSERT
 62
256
  8
TOP2
  2
cap_10
 10
96.8267670656
 20
93.9996012869
 30
0.0
 50
-13.0
  0
INSERT
 62
256
  8
TOP2
  2
cap_10
 10
95.0725893833
 20
170.864241146
 30
0.0
 50
-13.0
  0
INSERT
 62
256
  8
TOP2
  2
cap_10
 10
90.7985193508
 20
152.351209915
 30
0.0
 50
-13.0
  0
INSERT
 62
256
  8
TOP2
  2
cap_10
 10
86.5244493183
 20
133.838178684
 30
0.0
 50
-13.0
  0
INSERT
 62
256
  8
TOP2
  2
cap_10
 10
82.2503792857
 20
115.325147453
 30
0.0
 50
-13.0
  0
INSERT
 62
256
  8
TOP2
  2
cap_10
 10
77.9763092532
 20
96.8121162222
 30
0.0
 50
-13.0
  0
INSERT
 62
256
  8
TOP2
  2
cap_10
 10
75.8847049894
 20
172.215200984
 30
0.0
 50
-13.0
  0
INSERT
 62
256
  8
TOP2
  2
cap_10
 10
71.6106349568
 20
153.702169753
 30
0.0
 50
-13.0
  0
INSERT
 62
256
  8
TOP2
  2
cap_10
 10
67.3365649243
 20
135.189138522
 30
0.0
 50
-13.0
  0
INSERT
 62
256
  8
TOP2
  2
cap_10
 10
63.0624948918
 20
116.676107291
 30
0.0
 50
-13.0
  0
INSERT
 62
256
  8
TOP2
  2
cap_10
 10
58.7884248592
 20
98.1630760604
 30
0.0
 50
-13.0
  0
INSERT
 62
256
  8
TOP2
  2
cap_15
 10
52.7434159507
 20
177.557788525
 30
0.0
 50
-13.0
  0
INSERT
 62
256
  8
TOP2
  2
cap_15
 10
48.4693459182
 20
159.044757294
 30
0.0
 50
-13.0
  0
INSERT
 62
256
  8
TOP2
  2
cap_15
 10
44.1952758857
 20
140.531726063
 30
0.0
 50
-13.0
  0
INSERT
 62
256
  8
TOP2
  2
cap_15
 10
39.9212058531
 20
122.018694832
 30
0.0
 50
-13.0
  0
INSERT
 62
256
  8
TOP2
  2
cap_10
 10
40.2753936283
 20
102.437146093
 30
0.0
 50
-13.0
  0
INSERT
 62
256
  8
TOP2
  2
cap_15
 10
317.124226113
 20
66.4127085227
 30
0.0
 50
-52.0
  0
INSERT
 62
256
  8
TOP2
  2
cap_15
 10
302.152021794
 20
54.7151404915
 30
0.0
 50
-52.0
  0
INSERT
 62
256
  8
TOP2
  2
cap_10
 10
293.028601491
 20
35.531470301
 30
0.0
 50
38.0
  0
INSERT
 62
256
  8
TOP2
  2
cap_10
 10
281.33103346
 20
50.5036746196
 30
0.0
 50
38.0
  0
INSERT
 62
256
  8
TOP2
  2
cap_10
 10
269.633465429
 20
65.4758789381
 30
0.0
 50
38.0
  0
INSERT
 62
256
  8
TOP2
  2
cap_10
 10
287.530061755
 20
73.4303958897
 30
0.0
 50
38.0
  0
INSERT
 62
256
  8
TOP2
  2
cap_10
 10
289.083670704
 20
152.306405919
 30
0.0
 50
13.0
  0
INSERT
 62
256
  8
TOP2
  2
cap_15
 10
294.426258244
 20
129.16511688
 30
0.0
 50
-77.0
  0
INSERT
 62
256
  8
TOP2
  2
cap_15
 10
300.837363293
 20
101.395570034
 30
0.0
 50
-77.0
  0
INSERT
 62
256
  8
TOP2
  2
cap_10
 10
307.596701934
 20
156.580475951
 30
0.0
 50
13.0
  0
INSERT
 62
256
  8
TOP2
  2
cap_10
 10
311.870771967
 20
138.06744472
 30
0.0
 50
13.0
  0
INSERT
 62
256
  8
TOP2
  2
cap_10
 10
316.144842
 20
119.554413489
 30
0.0
 50
13.0
  0
INSERT
 62
256
  8
TOP2
  2
cap_10
 10
320.418912032
 20
101.041382258
 30
0.0
 50
13.0
  0
INSERT
 62
256
  8
TOP2
  2
cap_10
 10
325.772306584
 20
162.316101081
 30
0.0
 50
13.0
  0
INSERT
 62
256
  8
TOP2
  2
cap_10
 10
330.046376616
 20
143.80306985
 30
0.0
 50
13.0
  0
INSERT
 62
256
  8
TOP2
  2
cap_10
 10
334.320446649
 20
125.290038619
 30
0.0
 50
13.0
  0
INSERT
 62
256
  8
TOP2
  2
cap_10
 10
338.594516681
 20
106.777007388
 30
0.0
 50
13.0
  0
INSERT
 62
256
  8
TOP2
  2
cap_10
 10
342.868586714
 20
88.2639761572
 30
0.0
 50
13.0
  0
INSERT
 62
256
  8
TOP2
  2
cap_10
 10
343.947911233
 20
168.051726211
 30
0.0
 50
13.0
  0
INSERT
 62
256
  8
TOP2
  2
cap_10
 10
348.221981266
 20
149.53869498
 30
0.0
 50
13.0
  0
INSERT
 62
256
  8
TOP2
  2
cap_10
 10
352.496051298
 20
131.025663749
 30
0.0
 50
13.0
  0
INSERT
 62
256
  8
TOP2
  2
cap_10
 10
356.770121331
 20
112.512632518
 30
0.0
 50
13.0
  0
INSERT
 62
256
  8
TOP2
  2
cap_10
 10
361.044191363
 20
93.9996012869
 30
0.0
 50
13.0
  0
INSERT
 62
256
  8
TOP2
  2
cap_10
 10
362.798369046
 20
170.864241146
 30
0.0
 50
13.0
  0
INSERT
 62
256
  8
TOP2
  2
cap_10
 10
367.072439078
 20
152.351209915
 30
0.0
 50
13.0
  0
INSERT
 62
256
  8
TOP2
  2
cap_10
 10
371.346509111
 20
133.838178684
 30
0.0
 50
13.0
  0
INSERT
 62
256
  8
TOP2
  2
cap_10
 10
375.620579143
 20
115.325147453
 30
0.0
 50
13.0
  0
INSERT
 62
256
  8
TOP2
  2
cap_10
 10
379.894649176
 20
96.8121162222
 30
0.0
 50
13.0
  0
INSERT
 62
256
  8
TOP2
  2
cap_10
 10
381.98625344
 20
172.215200984
 30
0.0
 50
13.0
  0
INSERT
 62
256
  8
TOP2
  2
cap_10
 10
386.260323472
 20
153.702169753
 30
0.0
 50
13.0
  0
INSERT
 62
256
  8
TOP2
  2
cap_10
 10
390.534393505
 20
135.189138522
 30
0.0
 50
13.0
  0
INSERT
 62
256
  8
TOP2
  2
cap_10
 10
394.808463537
 20
116.676107291
 30
0.0
 50
13.0
  0
INSERT
 62
256
  8
TOP2
  2
cap_10
 10
399.08253357
 20
98.1630760604
 30
0.0
 50
13.0
  0
INSERT
 62
256
  8
TOP2
  2
cap_15
 10
405.127542478
 20
177.557788525
 30
0.0
 50
13.0
  0
INSERT
 62
256
  8
TOP2
  2
cap_15
 10
409.401612511
 20
159.044757294
 30
0.0
 50
13.0
  0
INSERT
 62
256
  8
TOP2
  2
cap_15
 10
413.675682543
 20
140.531726063
 30
0.0
 50
13.0
  0
INSERT
 62
256
  8
TOP2
  2
cap_15
 10
417.949752576
 20
122.018694832
 30
0.0
 50
13.0
  0
INSERT
 62
256
  8
TOP2
  2
cap_10
 10
417.595564801
 20
102.437146093
 30
0.0
 50
13.0
  0
INSERT
 62
256
  8
BASE0
  2
drill_m3
 10
206.873312525
 20
86.9798911822
 30
0.0
 50
0.0
  0
INSERT
 62
256
  8
BASE0
  2
drill_m3
 10
177.645574079
 20
182.579516012
 30
0.0
 50
0.0
  0
INSERT
 62
256
  8
BASE0
  2
drill_m3
 10
80.240001161
 20
205.067364437
 30
0.0
 50
0.0
  0
INSERT
 62
256
  8
BASE0
  2
drill_m3
 10
12.0621666897
 20
131.955588032
 30
0.0
 50
0.0
  0
INSERT
 62
256
  8
BASE0
  2
drill_m3
 10
41.289905136
 20
36.355963203
 30
0.0
 50
0.0
  0
INSERT
 62
256
  8
BASE0
  2
drill_m3
 10
138.695478054
 20
13.868114778
 30
0.0
 50
0.0
  0
INSERT
 62
256
  8
BASE0
  2
drill_m3
 10
250.997645904
 20
86.9798911822
 30
0.0
 50
0.0
  0
INSERT
 62
256
  8
BASE0
  2
drill_m3
 10
280.22538435
 20
182.579516012
 30
0.0
 50
0.0
  0
INSERT
 62
256
  8
BASE0
  2
drill_m3
 10
377.630957268
 20
205.067364437
 30
0.0
 50
0.0
  0
INSERT
 62
256
  8
BASE0
  2
drill_m3
 10
445.808791739
 20
131.955588032
 30
0.0
 50
0.0
  0
INSERT
 62
256
  8
BASE0
  2
drill_m3
 10
416.581053293
 20
36.355963203
 30
0.0
 50
0.0
  0
INSERT
 62
256
  8
BASE0
  2
drill_m3
 10
319.175480376
 20
13.868114778
 30
0.0
 50
0.0
  0
ARC
  8
BASE0
 10
109.467739607
 20
109.467739607
 30
0.0
 40
109.467739607
 50
63.1245576434
 51
-50.2604561977
  0
ARC
  8
BASE0
 10
228.935479215
 20
-34.229937471
 30
0.0
 40
77.4053809975
 50
50.2604561977
 51
129.739543802
  0
ARC
  8
BASE0
 10
348.403218822
 20
109.467739607
 30
0.0
 40
109.467739607
 50
230.260456198
 51
116.875442357
  0
ARC
  8
BASE0
 10
228.935479215
 20
345.20188139
 30
0.0
 40
154.810761995
 50
-86.6672024703
 51
-63.1245576434
  0
POLYLINE
  8
BASE0
 66
1
 10
0.0
 20
0.0
 30
0.0
 70
8
  0
VERTEX
  8
0
 10
219.935479215
 20
190.652950532
 30
0.0
  0
VERTEX
  8
0
 10
219.935479215
 20
158.391119395
 30
0.0
  0
VERTEX
  8
0
 10
237.935479215
 20
158.391119395
 30
0.0
  0
VERTEX
  8
0
 10
237.935479215
 20
190.652950532
 30
0.0
  0
SEQEND
  0
ARC
  8
BASE0
 10
228.935479215
 20
345.20188139
 30
0.0
 40
154.810761995
 50
243.124557643
 51
266.66720247
  0
INSERT
 62
256
  8
BASE1
  2
drill_m3
 10
206.873312525
 20
86.9798911822
 30
0.0
 50
0.0
  0
INSERT
 62
256
  8
BASE1
  2
drill_m3
 10
177.645574079
 20
182.579516012
 30
0.0
 50
0.0
  0
INSERT
 62
256
  8
BASE1
  2
drill_m3
 10
80.240001161
 20
205.067364437
 30
0.0
 50
0.0
  0
INSERT
 62
256
  8
BASE1
  2
drill_m3
 10
12.0621666897
 20
131.955588032
 30
0.0
 50
0.0
  0
INSERT
 62
256
  8
BASE1
  2
drill_m3
 10
41.289905136
 20
36.355963203
 30
0.0
 50
0.0
  0
INSERT
 62
256
  8
BASE1
  2
drill_m3
 10
138.695478054
 20
13.868114778
 30
0.0
 50
0.0
  0
INSERT
 62
256
  8
BASE1
  2
drill_m3
 10
250.997645904
 20
86.9798911822
 30
0.0
 50
0.0
  0
INSERT
 62
256
  8
BASE1
  2
drill_m3
 10
280.22538435
 20
182.579516012
 30
0.0
 50
0.0
  0
INSERT
 62
256
  8
BASE1
  2
drill_m3
 10
377.630957268
 20
205.067364437
 30
0.0
 50
0.0
  0
INSERT
 62
256
  8
BASE1
  2
drill_m3
 10
445.808791739
 20
131.955588032
 30
0.0
 50
0.0
  0
INSERT
 62
256
  8
BASE1
  2
drill_m3
 10
416.581053293
 20
36.355963203
 30
0.0
 50
0.0
  0
INSERT
 62
256
  8
BASE1
  2
drill_m3
 10
319.175480376
 20
13.868114778
 30
0.0
 50
0.0
  0
ARC
  8
BASE1
 10
109.467739607
 20
109.467739607
 30
0.0
 40
109.467739607
 50
63.1245576434
 51
-50.2604561977
  0
ARC
  8
BASE1
 10
228.935479215
 20
-34.229937471
 30
0.0
 40
77.4053809975
 50
50.2604561977
 51
129.739543802
  0
ARC
  8
BASE1
 10
348.403218822
 20
109.467739607
 30
0.0
 40
109.467739607
 50
230.260456198
 51
116.875442357
  0
ARC
  8
BASE1
 10
228.935479215
 20
345.20188139
 30
0.0
 40
154.810761995
 50
-86.6672024703
 51
-63.1245576434
  0
POLYLINE
  8
BASE1
 66
1
 10
0.0
 20
0.0
 30
0.0
 70
8
  0
VERTEX
  8
0
 10
237.935479215
 20
190.652950532
 30
0.0
  0
VERTEX
  8
0
 10
237.935479215
 20
188.391119395
 30
0.0
  0
VERTEX
  8
0
 10
254.935479215
 20
188.391119395
 30
0.0
  0
VERTEX
  8
0
 10
254.935479215
 20
136.391119395
 30
0.0
  0
VERTEX
  8
0
 10
277.090459512
 20
159.800596023
 30
0.0
  0
VERTEX
  8
0
 10
314.116521974
 20
168.348736088
 30
0.0
  0
VERTEX
  8
0
 10
313.779095393
 20
169.810291185
 30
0.0
  0
VERTEX
  8
0
 10
332.292126624
 20
174.084361218
 30
0.0
  0
VERTEX
  8
0
 10
331.954700042
 20
175.545916315
 30
0.0
  0
VERTEX
  8
0
 10
351.442101338
 20
180.044937402
 30
0.0
  0
VERTEX
  8
0
 10
351.779527919
 20
178.583382305
 30
0.0
  0
VERTEX
  8
0
 10
370.29255915
 20
182.857452337
 30
0.0
  0
VERTEX
  8
0
 10
370.967412313
 20
179.934342143
 30
0.0
  0
VERTEX
  8
0
 10
412.621732583
 20
189.550999716
 30
0.0
  0
VERTEX
  8
0
 10
429.942963767
 20
114.524504728
 30
0.0
  0
VERTEX
  8
0
 10
429.588775992
 20
94.9429559885
 30
0.0
  0
VERTEX
  8
0
 10
337.009732418
 20
57.2031135806
 30
0.0
  0
VERTEX
  8
0
 10
291.305108709
 20
21.4947480117
 30
0.0
  0
VERTEX
  8
0
 10
255.59674314
 20
67.1993717209
 30
0.0
  0
VERTEX
  8
0
 10
255.59674314
 20
92.1993717209
 30
0.0
  0
VERTEX
  8
0
 10
202.274215289
 20
92.1993717209
 30
0.0
  0
VERTEX
  8
0
 10
202.274215289
 20
67.1993717209
 30
0.0
  0
VERTEX
  8
0
 10
166.565849721
 20
21.4947480117
 30
0.0
  0
VERTEX
  8
0
 10
120.861226011
 20
57.2031135806
 30
0.0
  0
VERTEX
  8
0
 10
28.282182437
 20
94.9429559885
 30
0.0
  0
VERTEX
  8
0
 10
27.9279946618
 20
114.524504728
 30
0.0
  0
VERTEX
  8
0
 10
45.2492258463
 20
189.550999716
 30
0.0
  0
VERTEX
  8
0
 10
86.9035461159
 20
179.934342143
 30
0.0
  0
VERTEX
  8
0
 10
87.5783992789
 20
182.857452337
 30
0.0
  0
VERTEX
  8
0
 10
106.09143051
 20
178.583382305
 30
0.0
  0
VERTEX
  8
0
 10
106.428857091
 20
180.044937402
 30
0.0
  0
VERTEX
  8
0
 10
125.916258387
 20
175.545916315
 30
0.0
  0
VERTEX
  8
0
 10
125.578831806
 20
174.084361218
 30
0.0
  0
VERTEX
  8
0
 10
144.091863036
 20
169.810291185
 30
0.0
  0
VERTEX
  8
0
 10
143.754436455
 20
168.348736088
 30
0.0
  0
VERTEX
  8
0
 10
180.780498917
 20
159.800596023
 30
0.0
  0
VERTEX
  8
0
 10
202.935479215
 20
136.391119395
 30
0.0
  0
VERTEX
  8
0
 10
202.935479215
 20
188.391119395
 30
0.0
  0
VERTEX
  8
0
 10
219.935479215
 20
188.391119395
 30
0.0
  0
VERTEX
  8
0
 10
219.935479215
 20
190.652950532
 30
0.0
  0
SEQEND
  0
ARC
  8
BASE1
 10
228.935479215
 20
345.20188139
 30
0.0
 40
154.810761995
 50
243.124557643
 51
266.66720247
  0
INSERT
 62
256
  8
BASE2
  2
drill_m3
 10
206.873312525
 20
86.9798911822
 30
0.0
 50
0.0
  0
INSERT
 62
256
  8
BASE2
  2
drill_m3
 10
177.645574079
 20
182.579516012
 30
0.0
 50
0.0
  0
INSERT
 62
256
  8
BASE2
  2
drill_m3
 10
80.240001161
 20
205.067364437
 30
0.0
 50
0.0
  0
INSERT
 62
256
  8
BASE2
  2
drill_m3
 10
12.0621666897
 20
131.955588032
 30
0.0
 50
0.0
  0
INSERT
 62
256
  8
BASE2
  2
drill_m3
 10
41.289905136
 20
36.355963203
 30
0.0
 50
0.0
  0
INSERT
 62
256
  8
BASE2
  2
drill_m3
 10
138.695478054
 20
13.868114778
 30
0.0
 50
0.0
  0
INSERT
 62
256
  8
BASE2
  2
drill_m3
 10
250.997645904
 20
86.9798911822
 30
0.0
 50
0.0
  0
INSERT
 62
256
  8
BASE2
  2
drill_m3
 10
280.22538435
 20
182.579516012
 30
0.0
 50
0.0
  0
INSERT
 62
256
  8
BASE2
  2
drill_m3
 10
377.630957268
 20
205.067364437
 30
0.0
 50
0.0
  0
INSERT
 62
256
  8
BASE2
  2
drill_m3
 10
445.808791739
 20
131.955588032
 30
0.0
 50
0.0
  0
INSERT
 62
256
  8
BASE2
  2
drill_m3
 10
416.581053293
 20
36.355963203
 30
0.0
 50
0.0
  0
INSERT
 62
256
  8
BASE2
  2
drill_m3
 10
319.175480376
 20
13.868114778
 30
0.0
 50
0.0
  0
POLYLINE
  8
BASE2
 66
1
 10
0.0
 20
0.0
 30
0.0
 70
8
  0
VERTEX
  8
0
 10
202.274215289
 20
67.1993717209
 30
0.0
  0
VERTEX
  8
0
 10
166.565849721
 20
21.4947480117
 30
0.0
  0
VERTEX
  8
0
 10
120.861226011
 20
57.2031135806
 30
0.0
  0
VERTEX
  8
0
 10
28.282182437
 20
94.9429559885
 30
0.0
  0
VERTEX
  8
0
 10
27.9279946618
 20
114.524504728
 30
0.0
  0
VERTEX
  8
0
 10
45.2492258463
 20
189.550999716
 30
0.0
  0
VERTEX
  8
0
 10
86.9035461159
 20
179.934342143
 30
0.0
  0
VERTEX
  8
0
 10
87.5783992789
 20
182.857452337
 30
0.0
  0
VERTEX
  8
0
 10
106.09143051
 20
178.583382305
 30
0.0
  0
VERTEX
  8
0
 10
106.428857091
 20
180.044937402
 30
0.0
  0
VERTEX
  8
0
 10
125.916258387
 20
175.545916315
 30
0.0
  0
VERTEX
  8
0
 10
125.578831806
 20
174.084361218
 30
0.0
  0
VERTEX
  8
0
 10
144.091863036
 20
169.810291185
 30
0.0
  0
VERTEX
  8
0
 10
143.754436455
 20
168.348736088
 30
0.0
  0
VERTEX
  8
0
 10
180.780498917
 20
159.800596023
 30
0.0
  0
VERTEX
  8
0
 10
202.935479215
 20
136.391119395
 30
0.0
  0
VERTEX
  8
0
 10
202.935479215
 20
188.391119395
 30
0.0
  0
VERTEX
  8
0
 10
254.935479215
 20
188.391119395
 30
0.0
  0
VERTEX
  8
0
 10
254.935479215
 20
136.391119395
 30
0.0
  0
VERTEX
  8
0
 10
277.090459512
 20
159.800596023
 30
0.0
  0
VERTEX
  8
0
 10
314.116521974
 20
168.348736088
 30
0.0
  0
VERTEX
  8
0
 10
313.779095393
 20
169.810291185
 30
0.0
  0
VERTEX
  8
0
 10
332.292126624
 20
174.084361218
 30
0.0
  0
VERTEX
  8
0
 10
331.954700042
 20
175.545916315
 30
0.0
  0
VERTEX
  8
0
 10
351.442101338
 20
180.044937402
 30
0.0
  0
VERTEX
  8
0
 10
351.779527919
 20
178.583382305
 30
0.0
  0
VERTEX
  8
0
 10
370.29255915
 20
182.857452337
 30
0.0
  0
VERTEX
  8
0
 10
370.967412313
 20
179.934342143
 30
0.0
  0
VERTEX
  8
0
 10
412.621732583
 20
189.550999716
 30
0.0
  0
VERTEX
  8
0
 10
429.942963767
 20
114.524504728
 30
0.0
  0
VERTEX
  8
0
 10
429.588775992
 20
94.9429559885
 30
0.0
  0
VERTEX
  8
0
 10
337.009732418
 20
57.2031135806
 30
0.0
  0
VERTEX
  8
0
 10
291.305108709
 20
21.4947480117
 30
0.0
  0
VERTEX
  8
0
 10
255.59674314
 20
67.1993717209
 30
0.0
  0
VERTEX
  8
0
 10
255.59674314
 20
92.1993717209
 30
0.0
  0
VERTEX
  8
0
 10
202.274215289
 20
92.1993717209
 30
0.0
  0
VERTEX
  8
0
 10
202.274215289
 20
67.1993717209
 30
0.0
  0
SEQEND
  0
ARC
  8
BASE2
 10
109.467739607
 20
109.467739607
 30
0.0
 40
109.467739607
 50
63.1245576434
 51
-50.2604561977
  0
ARC
  8
BASE2
 10
228.935479215
 20
-34.229937471
 30
0.0
 40
77.4053809975
 50
50.2604561977
 51
129.739543802
  0
ARC
  8
BASE2
 10
348.403218822
 20
109.467739607
 30
0.0
 40
109.467739607
 50
230.260456198
 51
116.875442357
  0
ARC
  8
BASE2
 10
228.935479215
 20
345.20188139
 30
0.0
 40
154.810761995
 50
243.124557643
 51
-63.1245576434
  0
ENDSEC
  0
EOF
