  0
SECTION
  2
HEADER
  9
$ACADVER
  1
AC1009
  9
$EXTMIN
 10
0.0
 20
0.0
 30
0.0
  9
$EXTMAX
 10
100.0
 20
100.0
 30
0.0
  9
$INSBASE
 10
0.0
 20
0.0
 30
0.0
  0
ENDSEC
  0
SECTION
  2
TABLES
  0
TABLE
  2
LTYPE
 70
19
  0
LTYPE
  2
PHANTOM
 70
0
  3
Phantom ______  __  __  ______  __  __  ______
 72
65
 73
6
 40
2.5
 49
1.25
 49
-0.25
 49
0.25
 49
-0.25
 49
0.25
 49
-0.25
  0
LTYPE
  2
DOT2
 70
0
  3
Dot (.5) . . . . . . . . . . . . . . . . . . . 
 72
65
 73
2
 40
0.1
 49
0.0
 49
-0.1
  0
LTYPE
  2
DIVIDE
 70
0
  3
Divide __ . . __ . . __ . . __ . . __ . . __
 72
65
 73
6
 40
1.6
 49
1.0
 49
-0.2
 49
0.0
 49
-0.2
 49
0.0
 49
-0.2
  0
LTYPE
  2
DIVIDEX2
 70
0
  3
Divide (2x) ____  . .  ____  . .  ____  . .  ____
 72
65
 73
6
 40
2.6
 49
2.0
 49
-0.2
 49
0.0
 49
-0.2
 49
0.0
 49
-0.2
  0
LTYPE
  2
CENTER
 70
0
  3
Center ____ _ ____ _ ____ _ ____ _ ____ _ ____
 72
65
 73
4
 40
2.0
 49
1.25
 49
-0.25
 49
0.25
 49
-0.25
  0
LTYPE
  2
DASHDOT
 70
0
  3
Dash dot __ . __ . __ . __ . __ . __ . __ . __
 72
65
 73
4
 40
1.4
 49
1.0
 49
-0.2
 49
0.0
 49
-0.2
  0
LTYPE
  2
CENTERX2
 70
0
  3
Center (2x) ________  __  ________  __  ________
 72
65
 73
4
 40
3.5
 49
2.5
 49
-0.25
 49
0.5
 49
-0.25
  0
LTYPE
  2
PHANTOMX2
 70
0
  3
Phantom (2x)____________    ____    ____    ____________
 72
65
 73
6
 40
4.25
 49
2.5
 49
-0.25
 49
0.5
 49
-0.25
 49
0.5
 49
-0.25
  0
LTYPE
  2
CONTINUOUS
 70
0
  3
Solid
 72
65
 73
0
 40
0.0
  0
LTYPE
  2
PHANTOM2
 70
0
  3
Phantom (.5x) ___ _ _ ___ _ _ ___ _ _ ___ _ _ ___
 72
65
 73
6
 40
1.25
 49
0.625
 49
-0.125
 49
0.125
 49
-0.125
 49
0.125
 49
-0.125
  0
LTYPE
  2
DASHED
 70
0
  3
Dashed __ __ __ __ __ __ __ __ __ __ __ __ __ _
 72
65
 73
2
 40
0.6
 49
0.5
 49
-0.1
  0
LTYPE
  2
DASHED2
 70
0
  3
Dashed (.5x) _ _ _ _ _ _ _ _ _ _ _ _ _ _
 72
65
 73
2
 40
0.3
 49
0.25
 49
-0.05
  0
LTYPE
  2
DASHDOT2
 70
0
  3
Dash dot (.5x) _ . _ . _ . _ . _ . _ . _ . _
 72
65
 73
4
 40
0.7
 49
0.5
 49
-0.1
 49
0.0
 49
-0.1
  0
LTYPE
  2
DOTX2
 70
0
  3
Dot (2x) .    .    .    .    .    .    .    . 
 72
65
 73
2
 40
0.4
 49
0.0
 49
-0.4
  0
LTYPE
  2
DIVIDE2
 70
0
  3
Divide(.5x) _ . _ . _ . _ . _ . _ . _ . _
 72
65
 73
6
 40
0.8
 49
0.5
 49
-0.1
 49
0.0
 49
-0.1
 49
0.0
 49
-0.1
  0
LTYPE
  2
CENTER2
 70
0
  3
Center (.5x) ____ _ ____ _ ____ _ ____ _ ____
 72
65
 73
4
 40
1.0
 49
0.625
 49
-0.125
 49
0.125
 49
-0.125
  0
LTYPE
  2
DASHDOTX2
 70
0
  3
Dash dot (2x) ____  .  ____  .  ____  .  ____
 72
65
 73
4
 40
2.4
 49
2.0
 49
-0.2
 49
0.0
 49
-0.2
  0
LTYPE
  2
DOT
 70
0
  3
Dot .  .  .  .  .  .  .  .  .  .  .  .  .  .  .  .
 72
65
 73
2
 40
0.2
 49
0.0
 49
-0.2
  0
LTYPE
  2
DASHEDX2
 70
0
  3
Dashed (2x) ____  ____  ____  ____  ____  ____
 72
65
 73
2
 40
1.2
 49
1.0
 49
-0.2
  0
ENDTAB
  0
TABLE
  2
LAYER
 70
5
  0
LAYER
  2
VIEWPORTS
 70
0
 62
7
  6
CONTINUOUS
  0
LAYER
  2
TABLEGRID
 70
0
 62
1
  6
CONTINUOUS
  0
LAYER
  2
TABLECONTENT
 70
0
 62
1
  6
CONTINUOUS
  0
LAYER
  2
DIMENSIONS
 70
0
 62
1
  6
CONTINUOUS
  0
LAYER
  2
TABLEBACKGROUND
 70
0
 62
1
  6
CONTINUOUS
  0
ENDTAB
  0
TABLE
  2
STYLE
 70
12
  0
STYLE
  2
TIMES
 70
0
 40
0.0
 41
1.0
 42
1.0
 50
0.0
 71
0
  3
times.ttf
  4

  0
STYLE
  2
ARIAL
 70
0
 40
0.0
 41
1.0
 42
1.0
 50
0.0
 71
0
  3
arial.ttf
  4

  0
STYLE
  2
TIMES_BOLD
 70
0
 40
0.0
 41
1.0
 42
1.0
 50
0.0
 71
0
  3
timesbd.ttf
  4

  0
STYLE
  2
ARIAL_BLACK
 70
0
 40
0.0
 41
1.0
 42
1.0
 50
0.0
 71
0
  3
ariblk.ttf
  4

  0
STYLE
  2
TIMES_ITALIC
 70
0
 40
0.0
 41
1.0
 42
1.0
 50
0.0
 71
0
  3
timesi.ttf
  4

  0
STYLE
  2
ISOCPEUR
 70
0
 40
0.0
 41
1.0
 42
1.0
 50
0.0
 71
0
  3
isocpeur.ttf
  4

  0
STYLE
  2
ARIAL_BOLD
 70
0
 40
0.0
 41
1.0
 42
1.0
 50
0.0
 71
0
  3
arialbd.ttf
  4

  0
STYLE
  2
ARIAL_ITALIC
 70
0
 40
0.0
 41
1.0
 42
1.0
 50
0.0
 71
0
  3
ariali.ttf
  4

  0
STYLE
  2
ARIAL_BOLD_ITALIC
 70
0
 40
0.0
 41
1.0
 42
1.0
 50
0.0
 71
0
  3
arialbi.ttf
  4

  0
STYLE
  2
TIMES_BOLD_ITALIC
 70
0
 40
0.0
 41
1.0
 42
1.0
 50
0.0
 71
0
  3
timesbi.ttf
  4

  0
STYLE
  2
ISOCPEUR_ITALIC
 70
0
 40
0.0
 41
1.0
 42
1.0
 50
0.0
 71
0
  3
isocpeui.ttf
  4

  0
STYLE
  2
STANDARD
 70
0
 40
0.0
 41
1.0
 42
1.0
 50
0.0
 71
0
  3
arial.ttf
  4

  0
ENDTAB
  0
TABLE
  2
VIEW
 70
0
  0
ENDTAB
  0
TABLE
  2
APPID
 70
1
  0
APPID
  2
DXFWRITE
 70
0
  0
ENDTAB
  0
TABLE
  2
VPORT
 70
0
  0
ENDTAB
  0
TABLE
  2
UCS
 70
0
  0
ENDTAB
  0
ENDSEC
  0
SECTION
  2
BLOCKS
  0
BLOCK
  8
0
  2
sw_mnt
  3
sw_mnt
 70
0
 10
0.0
 20
0.0
 30
0.0
  0
POLYLINE
  8
0
 66
1
 10
0.0
 20
0.0
 30
0.0
 70
8
  0
VERTEX
  8
0
 10
-6.75
 20
2.75
 30
0.0
  0
VERTEX
  8
0
 10
-8.25
 20
2.75
 30
0.0
  0
VERTEX
  8
0
 10
-8.25
 20
6.75
 30
0.0
  0
VERTEX
  8
0
 10
8.25
 20
6.75
 30
0.0
  0
VERTEX
  8
0
 10
8.25
 20
2.75
 30
0.0
  0
VERTEX
  8
0
 10
6.75
 20
2.75
 30
0.0
  0
VERTEX
  8
0
 10
6.75
 20
-2.75
 30
0.0
  0
VERTEX
  8
0
 10
8.25
 20
-2.75
 30
0.0
  0
VERTEX
  8
0
 10
8.25
 20
-6.75
 30
0.0
  0
VERTEX
  8
0
 10
-8.25
 20
-6.75
 30
0.0
  0
VERTEX
  8
0
 10
-8.25
 20
-2.75
 30
0.0
  0
VERTEX
  8
0
 10
-6.75
 20
-2.75
 30
0.0
  0
VERTEX
  8
0
 10
-6.75
 20
2.75
 30
0.0
  0
SEQEND
  0
ATTDEF
 62
3
  8
0
 10
0.0
 20
-0.3
 30
0.0
 40
2.0
  1
Attrib
  3
Input:
  2
NAME
 70
0
  0
ENDBLK
  0
BLOCK
  8
0
  2
drill_7mm
  3
drill_7mm
 70
0
 10
0.0
 20
0.0
 30
0.0
  0
CIRCLE
  8
0
 10
0.0
 20
0.0
 30
0.0
 40
3.5
  0
ENDBLK
  0
BLOCK
  8
0
  2
drill_m3
  3
drill_m3
 70
0
 10
0.0
 20
0.0
 30
0.0
  0
CIRCLE
  8
0
 10
0.0
 20
0.0
 30
0.0
 40
1.6
  0
ENDBLK
  0
ENDSEC
  0
SECTION
  2
ENTITIES
  0
VIEWPORT
  8
VIEWPORTS
 67
1
 10
0.0
 20
0.0
 30
0.0
 40
1.0
 41
1.0
 68
1
 69
1
1001
ACAD
1000
MVIEW
1002
{
1070
16
1010
0.0
1020
0.0
1030
0.0
1010
0.0
1020
0.0
1030
0.0
1040
0.0
1040
1.0
1040
0.0
1040
0.0
1040
50.0
1040
0.0
1040
0.0
1070
0
1070
100
1070
1
1070
3
1070
0
1070
0
1070
0
1070
0
1040
0.0
1040
0.0
1040
0.0
1040
0.1
1040
0.1
1040
0.1
1040
0.1
1070
0
1002
{
1002
}
1002
}
  0
INSERT
 62
256
  8
0
  2
drill_m3
 10
206.873312525
 20
86.9798911822
 30
0.0
 50
0.0
  0
INSERT
 62
256
  8
0
  2
drill_m3
 10
177.645574079
 20
182.579516012
 30
0.0
 50
0.0
  0
INSERT
 62
256
  8
0
  2
drill_m3
 10
80.240001161
 20
205.067364437
 30
0.0
 50
0.0
  0
INSERT
 62
256
  8
0
  2
drill_m3
 10
12.0621666897
 20
131.955588032
 30
0.0
 50
0.0
  0
INSERT
 62
256
  8
0
  2
drill_m3
 10
41.289905136
 20
36.355963203
 30
0.0
 50
0.0
  0
INSERT
 62
256
  8
0
  2
drill_m3
 10
138.695478054
 20
13.868114778
 30
0.0
 50
0.0
  0
INSERT
 62
256
  8
0
  2
drill_m3
 10
250.997645904
 20
86.9798911822
 30
0.0
 50
0.0
  0
INSERT
 62
256
  8
0
  2
drill_m3
 10
280.22538435
 20
182.579516012
 30
0.0
 50
0.0
  0
INSERT
 62
256
  8
0
  2
drill_m3
 10
377.630957268
 20
205.067364437
 30
0.0
 50
0.0
  0
INSERT
 62
256
  8
0
  2
drill_m3
 10
445.808791739
 20
131.955588032
 30
0.0
 50
0.0
  0
INSERT
 62
256
  8
0
  2
drill_m3
 10
416.581053293
 20
36.355963203
 30
0.0
 50
0.0
  0
INSERT
 62
256
  8
0
  2
drill_m3
 10
319.175480376
 20
13.868114778
 30
0.0
 50
0.0
  0
POLYLINE
  8
0
 66
1
 10
0.0
 20
0.0
 30
0.0
 70
8
  0
VERTEX
  8
0
 10
201.572379175
 20
67.1131970818
 30
0.0
  0
VERTEX
  8
0
 10
166.479675081
 20
22.1965841262
 30
0.0
  0
VERTEX
  8
0
 10
121.563062126
 20
57.2892882198
 30
0.0
  0
VERTEX
  8
0
 10
122.121852314
 20
76.8704255254
 30
0.0
  0
VERTEX
  8
0
 10
103.608821083
 20
81.144495558
 30
0.0
  0
VERTEX
  8
0
 10
103.946247665
 20
82.6060506552
 30
0.0
  0
VERTEX
  8
0
 10
85.4332164339
 20
86.8801206877
 30
0.0
  0
VERTEX
  8
0
 10
85.0957898524
 20
85.4185655905
 30
0.0
  0
VERTEX
  8
0
 10
66.5827586215
 20
89.692635623
 30
0.0
  0
VERTEX
  8
0
 10
65.9079054584
 20
86.7695254287
 30
0.0
  0
VERTEX
  8
0
 10
28.8818429966
 20
95.3176654938
 30
0.0
  0
VERTEX
  8
0
 10
33.1559130291
 20
113.830696725
 30
0.0
  0
VERTEX
  8
0
 10
23.8993974137
 20
115.967731741
 30
0.0
  0
VERTEX
  8
0
 10
40.9956775438
 20
190.019856665
 30
0.0
  0
VERTEX
  8
0
 10
87.2782556211
 20
179.334681583
 30
0.0
  0
VERTEX
  8
0
 10
87.9531087841
 20
182.257791778
 30
0.0
  0
VERTEX
  8
0
 10
106.466140015
 20
177.983721745
 30
0.0
  0
VERTEX
  8
0
 10
106.803566597
 20
179.445276842
 30
0.0
  0
VERTEX
  8
0
 10
125.316597827
 20
175.17120681
 30
0.0
  0
VERTEX
  8
0
 10
124.979171246
 20
173.709651713
 30
0.0
  0
VERTEX
  8
0
 10
143.492202477
 20
169.43558168
 30
0.0
  0
VERTEX
  8
0
 10
143.154775895
 20
167.974026583
 30
0.0
  0
VERTEX
  8
0
 10
180.180838357
 20
159.425886518
 30
0.0
  0
VERTEX
  8
0
 10
202.935479215
 20
136.391119395
 30
0.0
  0
VERTEX
  8
0
 10
202.935479215
 20
188.391119395
 30
0.0
  0
VERTEX
  8
0
 10
254.935479215
 20
188.391119395
 30
0.0
  0
VERTEX
  8
0
 10
254.935479215
 20
136.391119395
 30
0.0
  0
VERTEX
  8
0
 10
277.690120072
 20
159.425886518
 30
0.0
  0
VERTEX
  8
0
 10
314.716182534
 20
167.974026583
 30
0.0
  0
VERTEX
  8
0
 10
314.378755952
 20
169.43558168
 30
0.0
  0
VERTEX
  8
0
 10
332.891787183
 20
173.709651713
 30
0.0
  0
VERTEX
  8
0
 10
332.554360602
 20
175.17120681
 30
0.0
  0
VERTEX
  8
0
 10
351.067391832
 20
179.445276842
 30
0.0
  0
VERTEX
  8
0
 10
351.404818414
 20
177.983721745
 30
0.0
  0
VERTEX
  8
0
 10
369.917849645
 20
182.257791778
 30
0.0
  0
VERTEX
  8
0
 10
370.592702808
 20
179.334681583
 30
0.0
  0
VERTEX
  8
0
 10
416.875280885
 20
190.019856665
 30
0.0
  0
VERTEX
  8
0
 10
433.971561015
 20
115.967731741
 30
0.0
  0
VERTEX
  8
0
 10
424.7150454
 20
113.830696725
 30
0.0
  0
VERTEX
  8
0
 10
428.989115432
 20
95.3176654938
 30
0.0
  0
VERTEX
  8
0
 10
391.963052971
 20
86.7695254287
 30
0.0
  0
VERTEX
  8
0
 10
391.288199808
 20
89.692635623
 30
0.0
  0
VERTEX
  8
0
 10
372.775168577
 20
85.4185655905
 30
0.0
  0
VERTEX
  8
0
 10
372.437741995
 20
86.8801206877
 30
0.0
  0
VERTEX
  8
0
 10
353.924710764
 20
82.6060506552
 30
0.0
  0
VERTEX
  8
0
 10
354.262137346
 20
81.144495558
 30
0.0
  0
VERTEX
  8
0
 10
335.749106115
 20
76.8704255254
 30
0.0
  0
VERTEX
  8
0
 10
336.307896303
 20
57.2892882198
 30
0.0
  0
VERTEX
  8
0
 10
291.391283348
 20
22.1965841262
 30
0.0
  0
VERTEX
  8
0
 10
256.298579254
 20
67.1131970818
 30
0.0
  0
VERTEX
  8
0
 10
256.298579254
 20
92.1131970818
 30
0.0
  0
VERTEX
  8
0
 10
201.572379175
 20
92.1131970818
 30
0.0
  0
VERTEX
  8
0
 10
201.572379175
 20
67.1131970818
 30
0.0
  0
SEQEND
  0
ARC
  8
0
 10
109.467739607
 20
109.467739607
 30
0.0
 40
109.467739607
 50
63.1245576434
 51
-50.2604561977
  0
ARC
  8
0
 10
228.935479215
 20
-34.229937471
 30
0.0
 40
77.4053809975
 50
50.2604561977
 51
129.739543802
  0
ARC
  8
0
 10
348.403218822
 20
109.467739607
 30
0.0
 40
109.467739607
 50
230.260456198
 51
116.875442357
  0
ARC
  8
0
 10
228.935479215
 20
345.20188139
 30
0.0
 40
154.810761995
 50
243.124557643
 51
-63.1245576434
  0
ENDSEC
  0
EOF
