  0
SECTION
  2
HEADER
  9
$ACADVER
  1
AC1009
  9
$EXTMIN
 10
0.0
 20
0.0
 30
0.0
  9
$EXTMAX
 10
100.0
 20
100.0
 30
0.0
  9
$INSBASE
 10
0.0
 20
0.0
 30
0.0
  0
ENDSEC
  0
SECTION
  2
TABLES
  0
TABLE
  2
LTYPE
 70
19
  0
LTYPE
  2
PHANTOM
 70
0
  3
Phantom ______  __  __  ______  __  __  ______
 72
65
 73
6
 40
2.5
 49
1.25
 49
-0.25
 49
0.25
 49
-0.25
 49
0.25
 49
-0.25
  0
LTYPE
  2
DOT2
 70
0
  3
Dot (.5) . . . . . . . . . . . . . . . . . . . 
 72
65
 73
2
 40
0.1
 49
0.0
 49
-0.1
  0
LTYPE
  2
DIVIDE
 70
0
  3
Divide __ . . __ . . __ . . __ . . __ . . __
 72
65
 73
6
 40
1.6
 49
1.0
 49
-0.2
 49
0.0
 49
-0.2
 49
0.0
 49
-0.2
  0
LTYPE
  2
DIVIDEX2
 70
0
  3
Divide (2x) ____  . .  ____  . .  ____  . .  ____
 72
65
 73
6
 40
2.6
 49
2.0
 49
-0.2
 49
0.0
 49
-0.2
 49
0.0
 49
-0.2
  0
LTYPE
  2
CENTER
 70
0
  3
Center ____ _ ____ _ ____ _ ____ _ ____ _ ____
 72
65
 73
4
 40
2.0
 49
1.25
 49
-0.25
 49
0.25
 49
-0.25
  0
LTYPE
  2
DASHDOT
 70
0
  3
Dash dot __ . __ . __ . __ . __ . __ . __ . __
 72
65
 73
4
 40
1.4
 49
1.0
 49
-0.2
 49
0.0
 49
-0.2
  0
LTYPE
  2
CENTERX2
 70
0
  3
Center (2x) ________  __  ________  __  ________
 72
65
 73
4
 40
3.5
 49
2.5
 49
-0.25
 49
0.5
 49
-0.25
  0
LTYPE
  2
PHANTOMX2
 70
0
  3
Phantom (2x)____________    ____    ____    ____________
 72
65
 73
6
 40
4.25
 49
2.5
 49
-0.25
 49
0.5
 49
-0.25
 49
0.5
 49
-0.25
  0
LTYPE
  2
CONTINUOUS
 70
0
  3
Solid
 72
65
 73
0
 40
0.0
  0
LTYPE
  2
PHANTOM2
 70
0
  3
Phantom (.5x) ___ _ _ ___ _ _ ___ _ _ ___ _ _ ___
 72
65
 73
6
 40
1.25
 49
0.625
 49
-0.125
 49
0.125
 49
-0.125
 49
0.125
 49
-0.125
  0
LTYPE
  2
DASHED
 70
0
  3
Dashed __ __ __ __ __ __ __ __ __ __ __ __ __ _
 72
65
 73
2
 40
0.6
 49
0.5
 49
-0.1
  0
LTYPE
  2
DASHED2
 70
0
  3
Dashed (.5x) _ _ _ _ _ _ _ _ _ _ _ _ _ _
 72
65
 73
2
 40
0.3
 49
0.25
 49
-0.05
  0
LTYPE
  2
DASHDOT2
 70
0
  3
Dash dot (.5x) _ . _ . _ . _ . _ . _ . _ . _
 72
65
 73
4
 40
0.7
 49
0.5
 49
-0.1
 49
0.0
 49
-0.1
  0
LTYPE
  2
DOTX2
 70
0
  3
Dot (2x) .    .    .    .    .    .    .    . 
 72
65
 73
2
 40
0.4
 49
0.0
 49
-0.4
  0
LTYPE
  2
DIVIDE2
 70
0
  3
Divide(.5x) _ . _ . _ . _ . _ . _ . _ . _
 72
65
 73
6
 40
0.8
 49
0.5
 49
-0.1
 49
0.0
 49
-0.1
 49
0.0
 49
-0.1
  0
LTYPE
  2
CENTER2
 70
0
  3
Center (.5x) ____ _ ____ _ ____ _ ____ _ ____
 72
65
 73
4
 40
1.0
 49
0.625
 49
-0.125
 49
0.125
 49
-0.125
  0
LTYPE
  2
DASHDOTX2
 70
0
  3
Dash dot (2x) ____  .  ____  .  ____  .  ____
 72
65
 73
4
 40
2.4
 49
2.0
 49
-0.2
 49
0.0
 49
-0.2
  0
LTYPE
  2
DOT
 70
0
  3
Dot .  .  .  .  .  .  .  .  .  .  .  .  .  .  .  .
 72
65
 73
2
 40
0.2
 49
0.0
 49
-0.2
  0
LTYPE
  2
DASHEDX2
 70
0
  3
Dashed (2x) ____  ____  ____  ____  ____  ____
 72
65
 73
2
 40
1.2
 49
1.0
 49
-0.2
  0
ENDTAB
  0
TABLE
  2
LAYER
 70
5
  0
LAYER
  2
VIEWPORTS
 70
0
 62
7
  6
CONTINUOUS
  0
LAYER
  2
TABLEGRID
 70
0
 62
1
  6
CONTINUOUS
  0
LAYER
  2
TABLECONTENT
 70
0
 62
1
  6
CONTINUOUS
  0
LAYER
  2
DIMENSIONS
 70
0
 62
1
  6
CONTINUOUS
  0
LAYER
  2
TABLEBACKGROUND
 70
0
 62
1
  6
CONTINUOUS
  0
ENDTAB
  0
TABLE
  2
STYLE
 70
12
  0
STYLE
  2
TIMES
 70
0
 40
0.0
 41
1.0
 42
1.0
 50
0.0
 71
0
  3
times.ttf
  4

  0
STYLE
  2
ARIAL
 70
0
 40
0.0
 41
1.0
 42
1.0
 50
0.0
 71
0
  3
arial.ttf
  4

  0
STYLE
  2
TIMES_BOLD
 70
0
 40
0.0
 41
1.0
 42
1.0
 50
0.0
 71
0
  3
timesbd.ttf
  4

  0
STYLE
  2
ARIAL_BLACK
 70
0
 40
0.0
 41
1.0
 42
1.0
 50
0.0
 71
0
  3
ariblk.ttf
  4

  0
STYLE
  2
TIMES_ITALIC
 70
0
 40
0.0
 41
1.0
 42
1.0
 50
0.0
 71
0
  3
timesi.ttf
  4

  0
STYLE
  2
ISOCPEUR
 70
0
 40
0.0
 41
1.0
 42
1.0
 50
0.0
 71
0
  3
isocpeur.ttf
  4

  0
STYLE
  2
ARIAL_BOLD
 70
0
 40
0.0
 41
1.0
 42
1.0
 50
0.0
 71
0
  3
arialbd.ttf
  4

  0
STYLE
  2
ARIAL_ITALIC
 70
0
 40
0.0
 41
1.0
 42
1.0
 50
0.0
 71
0
  3
ariali.ttf
  4

  0
STYLE
  2
ARIAL_BOLD_ITALIC
 70
0
 40
0.0
 41
1.0
 42
1.0
 50
0.0
 71
0
  3
arialbi.ttf
  4

  0
STYLE
  2
TIMES_BOLD_ITALIC
 70
0
 40
0.0
 41
1.0
 42
1.0
 50
0.0
 71
0
  3
timesbi.ttf
  4

  0
STYLE
  2
ISOCPEUR_ITALIC
 70
0
 40
0.0
 41
1.0
 42
1.0
 50
0.0
 71
0
  3
isocpeui.ttf
  4

  0
STYLE
  2
STANDARD
 70
0
 40
0.0
 41
1.0
 42
1.0
 50
0.0
 71
0
  3
arial.ttf
  4

  0
ENDTAB
  0
TABLE
  2
VIEW
 70
0
  0
ENDTAB
  0
TABLE
  2
APPID
 70
1
  0
APPID
  2
DXFWRITE
 70
0
  0
ENDTAB
  0
TABLE
  2
VPORT
 70
0
  0
ENDTAB
  0
TABLE
  2
UCS
 70
0
  0
ENDTAB
  0
ENDSEC
  0
SECTION
  2
BLOCKS
  0
BLOCK
  8
0
  2
sw_mnt
  3
sw_mnt
 70
0
 10
0.0
 20
0.0
 30
0.0
  0
POLYLINE
  8
0
 66
1
 10
0.0
 20
0.0
 30
0.0
 70
8
  0
VERTEX
  8
0
 10
-7.65
 20
-6.35
 30
0.0
  0
VERTEX
  8
0
 10
7.65
 20
-6.35
 30
0.0
  0
VERTEX
  8
0
 10
7.65
 20
6.35
 30
0.0
  0
VERTEX
  8
0
 10
-7.65
 20
6.35
 30
0.0
  0
VERTEX
  8
0
 10
-7.65
 20
-6.35
 30
0.0
  0
SEQEND
  0
ATTDEF
 62
3
  8
0
 10
0.0
 20
-0.3
 30
0.0
 40
2.0
  1
Attrib
  3
Input:
  2
NAME
 70
0
  0
ENDBLK
  0
BLOCK
  8
0
  2
drill_7mm
  3
drill_7mm
 70
0
 10
0.0
 20
0.0
 30
0.0
  0
CIRCLE
  8
0
 10
0.0
 20
0.0
 30
0.0
 40
3.0
  0
ENDBLK
  0
BLOCK
  8
0
  2
drill_m3
  3
drill_m3
 70
0
 10
0.0
 20
0.0
 30
0.0
  0
CIRCLE
  8
0
 10
0.0
 20
0.0
 30
0.0
 40
1.45
  0
ENDBLK
  0
ENDSEC
  0
SECTION
  2
ENTITIES
  0
VIEWPORT
  8
VIEWPORTS
 67
1
 10
0.0
 20
0.0
 30
0.0
 40
1.0
 41
1.0
 68
1
 69
1
1001
ACAD
1000
MVIEW
1002
{
1070
16
1010
0.0
1020
0.0
1030
0.0
1010
0.0
1020
0.0
1030
0.0
1040
0.0
1040
1.0
1040
0.0
1040
0.0
1040
50.0
1040
0.0
1040
0.0
1070
0
1070
100
1070
1
1070
3
1070
0
1070
0
1070
0
1070
0
1040
0.0
1040
0.0
1040
0.0
1040
0.1
1040
0.1
1040
0.1
1040
0.1
1070
0
1002
{
1002
}
1002
}
  0
INSERT
 62
256
  8
0
  2
drill_m3
 10
203.209697319
 20
53.7783109069
 30
0.0
 50
0.0
  0
INSERT
 62
256
  8
0
  2
drill_m3
 10
168.787287725
 20
188.019856665
 30
0.0
 50
0.0
  0
INSERT
 62
256
  8
0
  2
drill_m3
 10
75.8847049894
 20
188.019856665
 30
0.0
 50
0.0
  0
INSERT
 62
256
  8
0
  2
drill_m3
 10
23.5986269998
 20
105.774128984
 30
0.0
 50
0.0
  0
INSERT
 62
256
  8
0
  2
drill_m3
 10
137.608699164
 20
9.75387360667
 30
0.0
 50
0.0
  0
INSERT
 62
256
  8
0
  2
drill_m3
 10
34.8029207753
 20
45.8919402547
 30
0.0
 50
0.0
  0
INSERT
 62
256
  8
0
  2
drill_m3
 10
391.068037654
 20
45.8919402547
 30
0.0
 50
0.0
  0
INSERT
 62
256
  8
0
  2
drill_m3
 10
288.262259265
 20
9.75387360667
 30
0.0
 50
0.0
  0
INSERT
 62
256
  8
0
  2
drill_m3
 10
402.272331429
 20
105.774128984
 30
0.0
 50
0.0
  0
INSERT
 62
256
  8
0
  2
drill_m3
 10
349.98625344
 20
188.019856665
 30
0.0
 50
0.0
  0
INSERT
 62
256
  8
0
  2
drill_m3
 10
257.083670704
 20
188.019856665
 30
0.0
 50
0.0
  0
INSERT
 62
256
  8
0
  2
drill_m3
 10
222.66126111
 20
53.7783109069
 30
0.0
 50
0.0
  0
POLYLINE
  8
0
 66
1
 10
0.0
 20
0.0
 30
0.0
 70
8
  0
VERTEX
  8
0
 10
40.9956775438
 20
190.019856665
 30
0.0
  0
VERTEX
  8
0
 10
23.8993974137
 20
115.967731741
 30
0.0
  0
VERTEX
  8
0
 10
33.1559130291
 20
113.830696725
 30
0.0
  0
VERTEX
  8
0
 10
28.8818429966
 20
95.3176654938
 30
0.0
  0
VERTEX
  8
0
 10
65.9079054584
 20
86.7695254287
 30
0.0
  0
VERTEX
  8
0
 10
66.5827586215
 20
89.692635623
 30
0.0
  0
VERTEX
  8
0
 10
85.0957898524
 20
85.4185655905
 30
0.0
  0
VERTEX
  8
0
 10
85.4332164339
 20
86.8801206877
 30
0.0
  0
VERTEX
  8
0
 10
103.946247665
 20
82.6060506552
 30
0.0
  0
VERTEX
  8
0
 10
103.608821083
 20
81.144495558
 30
0.0
  0
VERTEX
  8
0
 10
122.121852314
 20
76.8704255254
 30
0.0
  0
VERTEX
  8
0
 10
126.058495765
 20
93.9219016592
 30
0.0
  0
VERTEX
  8
0
 10
144.571526996
 20
89.6478316267
 30
0.0
  0
VERTEX
  8
0
 10
163.084558227
 20
85.3737615941
 30
0.0
  0
VERTEX
  8
0
 10
169.495663276
 20
113.143308441
 30
0.0
  0
VERTEX
  8
0
 10
180.180838357
 20
159.425886518
 30
0.0
  0
VERTEX
  8
0
 10
143.154775895
 20
167.974026583
 30
0.0
  0
VERTEX
  8
0
 10
143.492202477
 20
169.43558168
 30
0.0
  0
VERTEX
  8
0
 10
124.979171246
 20
173.709651713
 30
0.0
  0
VERTEX
  8
0
 10
125.316597827
 20
175.17120681
 30
0.0
  0
VERTEX
  8
0
 10
106.803566597
 20
179.445276842
 30
0.0
  0
VERTEX
  8
0
 10
106.466140015
 20
177.983721745
 30
0.0
  0
VERTEX
  8
0
 10
87.9531087841
 20
182.257791778
 30
0.0
  0
VERTEX
  8
0
 10
87.2782556211
 20
179.334681583
 30
0.0
  0
VERTEX
  8
0
 10
40.9956775438
 20
190.019856665
 30
0.0
  0
SEQEND
  0
POLYLINE
  8
0
 66
1
 10
0.0
 20
0.0
 30
0.0
 70
8
  0
VERTEX
  8
0
 10
384.875280885
 20
190.019856665
 30
0.0
  0
VERTEX
  8
0
 10
401.971561015
 20
115.967731741
 30
0.0
  0
VERTEX
  8
0
 10
392.7150454
 20
113.830696725
 30
0.0
  0
VERTEX
  8
0
 10
396.989115432
 20
95.3176654938
 30
0.0
  0
VERTEX
  8
0
 10
359.963052971
 20
86.7695254287
 30
0.0
  0
VERTEX
  8
0
 10
359.288199808
 20
89.692635623
 30
0.0
  0
VERTEX
  8
0
 10
340.775168577
 20
85.4185655905
 30
0.0
  0
VERTEX
  8
0
 10
340.437741995
 20
86.8801206877
 30
0.0
  0
VERTEX
  8
0
 10
321.924710764
 20
82.6060506552
 30
0.0
  0
VERTEX
  8
0
 10
322.262137346
 20
81.144495558
 30
0.0
  0
VERTEX
  8
0
 10
303.749106115
 20
76.8704255254
 30
0.0
  0
VERTEX
  8
0
 10
299.812462664
 20
93.9219016592
 30
0.0
  0
VERTEX
  8
0
 10
281.299431433
 20
89.6478316267
 30
0.0
  0
VERTEX
  8
0
 10
262.786400202
 20
85.3737615941
 30
0.0
  0
VERTEX
  8
0
 10
256.375295153
 20
113.143308441
 30
0.0
  0
VERTEX
  8
0
 10
245.690120072
 20
159.425886518
 30
0.0
  0
VERTEX
  8
0
 10
282.716182534
 20
167.974026583
 30
0.0
  0
VERTEX
  8
0
 10
282.378755952
 20
169.43558168
 30
0.0
  0
VERTEX
  8
0
 10
300.891787183
 20
173.709651713
 30
0.0
  0
VERTEX
  8
0
 10
300.554360602
 20
175.17120681
 30
0.0
  0
VERTEX
  8
0
 10
319.067391832
 20
179.445276842
 30
0.0
  0
VERTEX
  8
0
 10
319.404818414
 20
177.983721745
 30
0.0
  0
VERTEX
  8
0
 10
337.917849645
 20
182.257791778
 30
0.0
  0
VERTEX
  8
0
 10
338.592702808
 20
179.334681583
 30
0.0
  0
VERTEX
  8
0
 10
384.875280885
 20
190.019856665
 30
0.0
  0
SEQEND
  0
POLYLINE
  8
0
 66
1
 10
0.0
 20
0.0
 30
0.0
 70
8
  0
VERTEX
  8
0
 10
121.563062126
 20
57.2892882198
 30
0.0
  0
VERTEX
  8
0
 10
166.479675081
 20
22.1965841262
 30
0.0
  0
VERTEX
  8
0
 10
201.572379175
 20
67.1131970818
 30
0.0
  0
VERTEX
  8
0
 10
171.627970538
 20
90.5083331441
 30
0.0
  0
VERTEX
  8
0
 10
159.930402507
 20
75.5361288256
 30
0.0
  0
VERTEX
  8
0
 10
144.958198188
 20
87.2336968568
 30
0.0
  0
VERTEX
  8
0
 10
121.563062126
 20
57.2892882198
 30
0.0
  0
SEQEND
  0
POLYLINE
  8
0
 66
1
 10
0.0
 20
0.0
 30
0.0
 70
8
  0
VERTEX
  8
0
 10
304.307896303
 20
57.2892882198
 30
0.0
  0
VERTEX
  8
0
 10
259.391283348
 20
22.1965841262
 30
0.0
  0
VERTEX
  8
0
 10
224.298579254
 20
67.1131970818
 30
0.0
  0
VERTEX
  8
0
 10
254.242987891
 20
90.5083331441
 30
0.0
  0
VERTEX
  8
0
 10
265.940555922
 20
75.5361288256
 30
0.0
  0
VERTEX
  8
0
 10
280.912760241
 20
87.2336968568
 30
0.0
  0
VERTEX
  8
0
 10
304.307896303
 20
57.2892882198
 30
0.0
  0
SEQEND
  0
POLYLINE
  8
0
 66
1
 10
0.0
 20
0.0
 30
0.0
 70
8
  0
VERTEX
  8
0
 10
17.902791818
 20
112.220636689
 30
0.0
  0
VERTEX
  8
0
 10
36.1238272199
 20
191.144611936
 30
0.0
  0
SEQEND
  0
ARC
  8
0
 10
40.9956775438
 20
190.019856665
 30
0.0
 40
5.0
 50
90.0
 51
167.0
  0
POLYLINE
  8
0
 66
1
 10
0.0
 20
0.0
 30
0.0
 70
8
  0
VERTEX
  8
0
 10
40.9956775438
 20
195.019856665
 30
0.0
  0
VERTEX
  8
0
 10
384.875280885
 20
195.019856665
 30
0.0
  0
SEQEND
  0
ARC
  8
0
 10
384.875280885
 20
190.019856665
 30
0.0
 40
5.0
 50
13.0
 51
90.0
  0
POLYLINE
  8
0
 66
1
 10
0.0
 20
0.0
 30
0.0
 70
8
  0
VERTEX
  8
0
 10
389.747131209
 20
191.144611936
 30
0.0
  0
VERTEX
  8
0
 10
407.968166611
 20
112.220636689
 30
0.0
  0
SEQEND
  0
ARC
  8
0
 10
317.351750586
 20
91.3001886348
 30
0.0
 40
93.0
 50
223.67929137
 51
13.0
  0
ARC
  8
0
 10
212.935479215
 20
-8.40998880174
 30
0.0
 40
51.3775509265
 50
43.6792913704
 51
-223.67929137
  0
ARC
  8
0
 10
108.519207843
 20
91.3001886348
 30
0.0
 40
93.0
 50
167.0
 51
-43.6792913704
  0
ENDSEC
  0
EOF
