  0
SECTION
  2
HEADER
  9
$ACADVER
  1
AC1014
  9
$HANDSEED
  5
FFFF
  9
$MEASUREMENT
 70
     1
  0
ENDSEC
  0
SECTION
  2
TABLES
  0
TABLE
  2
VPORT
  5
8
330
0
100
AcDbSymbolTable
 70
     4
  0
VPORT
  5
2E
330
8
100
AcDbSymbolTableRecord
100
AcDbViewportTableRecord
  2
*ACTIVE
 70
     0
 10
0.0
 20
0.0
 11
1.0
 21
1.0
 12
210.0
 22
148.5
 13
0.0
 23
0.0
 14
10.0
 24
10.0
 15
10.0
 25
10.0
 16
0.0
 26
0.0
 36
1.0
 17
0.0
 27
0.0
 37
0.0
 40
341.0
 41
1.24
 42
50.0
 43
0.0
 44
0.0
 50
0.0
 51
0.0
 71
     0
 72
   100
 73
     1
 74
     3
 75
     0
 76
     0
 77
     0
 78
     0
  0
ENDTAB
  0
TABLE
  2
LTYPE
  5
5
330
0
100
AcDbSymbolTable
 70
     1
  0
LTYPE
  5
14
330
5
100
AcDbSymbolTableRecord
100
AcDbLinetypeTableRecord
  2
BYBLOCK
 70
     0
  3

 72
    65
 73
     0
 40
0.0
  0
LTYPE
  5
15
330
5
100
AcDbSymbolTableRecord
100
AcDbLinetypeTableRecord
  2
BYLAYER
 70
     0
  3

 72
    65
 73
     0
 40
0.0
  0
LTYPE
  5
16
330
5
100
AcDbSymbolTableRecord
100
AcDbLinetypeTableRecord
  2
CONTINUOUS
 70
     0
  3
Solid line
 72
    65
 73
     0
 40
0.0
  0
ENDTAB
  0
TABLE
  2
LAYER
  5
2
100
AcDbSymbolTable
 70
2
  0
LAYER
  5
50
100
AcDbSymbolTableRecord
100
AcDbLayerTableRecord
  2
0
 70
0
  6
CONTINUOUS
  0
LAYER
  5
51
100
AcDbSymbolTableRecord
100
AcDbLayerTableRecord
  2
cut.innerBottom1
 70
0
  6
CONTINUOUS
  0
ENDTAB
  0
TABLE
  2
STYLE
  5
3
330
0
100
AcDbSymbolTable
 70
     1
  0
STYLE
  5
11
330
3
100
AcDbSymbolTableRecord
100
AcDbTextStyleTableRecord
  2
STANDARD
 70
     0
 40
0.0
 41
1.0
 50
0.0
 71
     0
 42
2.5
  3
txt
  4

  0
ENDTAB
  0
TABLE
  2
VIEW
  5
6
330
0
100
AcDbSymbolTable
 70
     0
  0
ENDTAB
  0
TABLE
  2
UCS
  5
7
330
0
100
AcDbSymbolTable
 70
     0
  0
ENDTAB
  0
TABLE
  2
APPID
  5
9
330
0
100
AcDbSymbolTable
 70
     2
  0
APPID
  5
12
330
9
100
AcDbSymbolTableRecord
100
AcDbRegAppTableRecord
  2
ACAD
 70
     0
  0
ENDTAB
  0
TABLE
  2
DIMSTYLE
  5
A
330
0
100
AcDbSymbolTable
 70
     1
  0
DIMSTYLE
105
27
330
A
100
AcDbSymbolTableRecord
100
AcDbDimStyleTableRecord
  2
ISO-25
 70
     0
  3

  4

  5

  6

  7

 40
1.0
 41
2.5
 42
0.625
 43
3.75
 44
1.25
 45
0.0
 46
0.0
 47
0.0
 48
0.0
140
2.5
141
2.5
142
0.0
143
0.03937007874016
144
1.0
145
0.0
146
1.0
147
0.625
 71
     0
 72
     0
 73
     0
 74
     0
 75
     0
 76
     0
 77
     1
 78
     8
170
     0
171
     3
172
     1
173
     0
174
     0
175
     0
176
     0
177
     0
178
     0
270
     2
271
     2
272
     2
273
     2
274
     3
340
11
275
     0
280
     0
281
     0
282
     0
283
     0
284
     8
285
     0
286
     0
287
     3
288
     0
  0
ENDTAB
  0
TABLE
  2
BLOCK_RECORD
  5
1
330
0
100
AcDbSymbolTable
 70
     1
  0
BLOCK_RECORD
  5
1F
330
1
100
AcDbSymbolTableRecord
100
AcDbBlockTableRecord
  2
*MODEL_SPACE
  0
BLOCK_RECORD
  5
1B
330
1
100
AcDbSymbolTableRecord
100
AcDbBlockTableRecord
  2
*PAPER_SPACE
  0
ENDTAB
  0
ENDSEC
  0
SECTION
  2
BLOCKS
  0
BLOCK
  5
20
330
1F
100
AcDbEntity
  8
0
100
AcDbBlockBegin
  2
*MODEL_SPACE
 70
     0
 10
0.0
 20
0.0
 30
0.0
  3
*MODEL_SPACE
  1

  0
ENDBLK
  5
21
330
1F
100
AcDbEntity
  8
0
100
AcDbBlockEnd
  0
BLOCK
  5
1C
330
1B
100
AcDbEntity
 67
     1
  8
0
100
AcDbBlockBegin
  2
*PAPER_SPACE
  1

  0
ENDBLK
  5
1D
330
1B
100
AcDbEntity
 67
     1
  8
0
100
AcDbBlockEnd
  0
ENDSEC
  0
SECTION
  2
ENTITIES
  0
SPLINE
  5
100
100
AcDbEntity
  8
cut.innerBottom1
 62
1
100
AcDbSpline
 70
8
 71
3
 72
8
 73
4
 74
0
 40
0
 40
0
 40
0
 40
0
 40
1
 40
1
 40
1
 40
1
 10
19.194782
 20
105.490096
 30
0.0
 10
19.194782
 20
104.606441
 30
0.0
 10
18.478439
 20
103.890082
 30
0.0
 10
17.594785
 20
103.890082
 30
0.0
  0
SPLINE
  5
101
100
AcDbEntity
  8
cut.innerBottom1
 62
1
100
AcDbSpline
 70
8
 71
3
 72
8
 73
4
 74
0
 40
0
 40
0
 40
0
 40
0
 40
1
 40
1
 40
1
 40
1
 10
17.594785
 20
103.890082
 30
0.0
 10
16.711130
 20
103.890082
 30
0.0
 10
15.994786
 20
104.606441
 30
0.0
 10
15.994786
 20
105.490096
 30
0.0
  0
SPLINE
  5
102
100
AcDbEntity
  8
cut.innerBottom1
 62
1
100
AcDbSpline
 70
8
 71
3
 72
8
 73
4
 74
0
 40
0
 40
0
 40
0
 40
0
 40
1
 40
1
 40
1
 40
1
 10
15.994786
 20
105.490096
 30
0.0
 10
15.994786
 20
106.373751
 30
0.0
 10
16.711130
 20
107.090083
 30
0.0
 10
17.594785
 20
107.090083
 30
0.0
  0
SPLINE
  5
103
100
AcDbEntity
  8
cut.innerBottom1
 62
1
100
AcDbSpline
 70
8
 71
3
 72
8
 73
4
 74
0
 40
0
 40
0
 40
0
 40
0
 40
1
 40
1
 40
1
 40
1
 10
17.594785
 20
107.090083
 30
0.0
 10
18.478439
 20
107.090083
 30
0.0
 10
19.194782
 20
106.373751
 30
0.0
 10
19.194782
 20
105.490096
 30
0.0
  0
SPLINE
  5
104
100
AcDbEntity
  8
cut.innerBottom1
 62
1
100
AcDbSpline
 70
8
 71
3
 72
8
 73
4
 74
0
 40
0
 40
0
 40
0
 40
0
 40
1
 40
1
 40
1
 40
1
 10
62.194731
 20
185.489990
 30
0.0
 10
62.194731
 20
184.606335
 30
0.0
 10
61.478388
 20
183.890003
 30
0.0
 10
60.594733
 20
183.890003
 30
0.0
  0
SPLINE
  5
105
100
AcDbEntity
  8
cut.innerBottom1
 62
1
100
AcDbSpline
 70
8
 71
3
 72
8
 73
4
 74
0
 40
0
 40
0
 40
0
 40
0
 40
1
 40
1
 40
1
 40
1
 10
60.594733
 20
183.890003
 30
0.0
 10
59.711078
 20
183.890003
 30
0.0
 10
58.994735
 20
184.606335
 30
0.0
 10
58.994735
 20
185.489990
 30
0.0
  0
SPLINE
  5
106
100
AcDbEntity
  8
cut.innerBottom1
 62
1
100
AcDbSpline
 70
8
 71
3
 72
8
 73
4
 74
0
 40
0
 40
0
 40
0
 40
0
 40
1
 40
1
 40
1
 40
1
 10
58.994735
 20
185.489990
 30
0.0
 10
58.994735
 20
186.373645
 30
0.0
 10
59.711078
 20
187.090004
 30
0.0
 10
60.594733
 20
187.090004
 30
0.0
  0
SPLINE
  5
107
100
AcDbEntity
  8
cut.innerBottom1
 62
1
100
AcDbSpline
 70
8
 71
3
 72
8
 73
4
 74
0
 40
0
 40
0
 40
0
 40
0
 40
1
 40
1
 40
1
 40
1
 10
60.594733
 20
187.090004
 30
0.0
 10
61.478388
 20
187.090004
 30
0.0
 10
62.194731
 20
186.373645
 30
0.0
 10
62.194731
 20
185.489990
 30
0.0
  0
SPLINE
  5
108
100
AcDbEntity
  8
cut.innerBottom1
 62
1
100
AcDbSpline
 70
8
 71
3
 72
8
 73
4
 74
0
 40
0
 40
0
 40
0
 40
0
 40
1
 40
1
 40
1
 40
1
 10
342.194400
 20
185.489990
 30
0.0
 10
342.194400
 20
184.606335
 30
0.0
 10
341.478067
 20
183.890003
 30
0.0
 10
340.594413
 20
183.890003
 30
0.0
  0
SPLINE
  5
109
100
AcDbEntity
  8
cut.innerBottom1
 62
1
100
AcDbSpline
 70
8
 71
3
 72
8
 73
4
 74
0
 40
0
 40
0
 40
0
 40
0
 40
1
 40
1
 40
1
 40
1
 10
340.594413
 20
183.890003
 30
0.0
 10
340.170074
 20
183.890003
 30
0.0
 10
339.763092
 20
184.058569
 30
0.0
 10
339.463028
 20
184.358606
 30
0.0
  0
SPLINE
  5
10a
100
AcDbEntity
  8
cut.innerBottom1
 62
1
100
AcDbSpline
 70
8
 71
3
 72
8
 73
4
 74
0
 40
0
 40
0
 40
0
 40
0
 40
1
 40
1
 40
1
 40
1
 10
339.463028
 20
184.358606
 30
0.0
 10
339.162965
 20
184.658670
 30
0.0
 10
338.994399
 20
185.065651
 30
0.0
 10
338.994399
 20
185.489990
 30
0.0
  0
SPLINE
  5
10b
100
AcDbEntity
  8
cut.innerBottom1
 62
1
100
AcDbSpline
 70
8
 71
3
 72
8
 73
4
 74
0
 40
0
 40
0
 40
0
 40
0
 40
1
 40
1
 40
1
 40
1
 10
338.994399
 20
185.489990
 30
0.0
 10
338.994399
 20
185.914355
 30
0.0
 10
339.162965
 20
186.321310
 30
0.0
 10
339.463028
 20
186.621374
 30
0.0
  0
SPLINE
  5
10c
100
AcDbEntity
  8
cut.innerBottom1
 62
1
100
AcDbSpline
 70
8
 71
3
 72
8
 73
4
 74
0
 40
0
 40
0
 40
0
 40
0
 40
1
 40
1
 40
1
 40
1
 10
339.463028
 20
186.621374
 30
0.0
 10
339.763092
 20
186.921438
 30
0.0
 10
340.170074
 20
187.090004
 30
0.0
 10
340.594413
 20
187.090004
 30
0.0
  0
SPLINE
  5
10d
100
AcDbEntity
  8
cut.innerBottom1
 62
1
100
AcDbSpline
 70
8
 71
3
 72
8
 73
4
 74
0
 40
0
 40
0
 40
0
 40
0
 40
1
 40
1
 40
1
 40
1
 10
340.594413
 20
187.090004
 30
0.0
 10
341.478067
 20
187.090004
 30
0.0
 10
342.194400
 20
186.373645
 30
0.0
 10
342.194400
 20
185.489990
 30
0.0
  0
SPLINE
  5
10e
100
AcDbEntity
  8
cut.innerBottom1
 62
1
100
AcDbSpline
 70
8
 71
3
 72
8
 73
4
 74
0
 40
0
 40
0
 40
0
 40
0
 40
1
 40
1
 40
1
 40
1
 10
237.194511
 20
163.490032
 30
0.0
 10
237.194508
 20
162.606377
 30
0.0
 10
236.478168
 20
161.890019
 30
0.0
 10
235.594513
 20
161.890019
 30
0.0
  0
SPLINE
  5
10f
100
AcDbEntity
  8
cut.innerBottom1
 62
1
100
AcDbSpline
 70
8
 71
3
 72
8
 73
4
 74
0
 40
0
 40
0
 40
0
 40
0
 40
1
 40
1
 40
1
 40
1
 10
235.594513
 20
161.890019
 30
0.0
 10
235.170167
 20
161.890019
 30
0.0
 10
234.763201
 20
162.058584
 30
0.0
 10
234.463142
 20
162.358648
 30
0.0
  0
SPLINE
  5
110
100
AcDbEntity
  8
cut.innerBottom1
 62
1
100
AcDbSpline
 70
8
 71
3
 72
8
 73
4
 74
0
 40
0
 40
0
 40
0
 40
0
 40
1
 40
1
 40
1
 40
1
 10
234.463142
 20
162.358648
 30
0.0
 10
234.163084
 20
162.658712
 30
0.0
 10
233.994513
 20
163.065667
 30
0.0
 10
233.994513
 20
163.490032
 30
0.0
  0
SPLINE
  5
111
100
AcDbEntity
  8
cut.innerBottom1
 62
1
100
AcDbSpline
 70
8
 71
3
 72
8
 73
4
 74
0
 40
0
 40
0
 40
0
 40
0
 40
1
 40
1
 40
1
 40
1
 10
233.994513
 20
163.490032
 30
0.0
 10
233.994513
 20
163.914371
 30
0.0
 10
234.163084
 20
164.321326
 30
0.0
 10
234.463142
 20
164.621390
 30
0.0
  0
SPLINE
  5
112
100
AcDbEntity
  8
cut.innerBottom1
 62
1
100
AcDbSpline
 70
8
 71
3
 72
8
 73
4
 74
0
 40
0
 40
0
 40
0
 40
0
 40
1
 40
1
 40
1
 40
1
 10
234.463142
 20
164.621390
 30
0.0
 10
234.763201
 20
164.921454
 30
0.0
 10
235.170167
 20
165.090020
 30
0.0
 10
235.594513
 20
165.090020
 30
0.0
  0
SPLINE
  5
113
100
AcDbEntity
  8
cut.innerBottom1
 62
1
100
AcDbSpline
 70
8
 71
3
 72
8
 73
4
 74
0
 40
0
 40
0
 40
0
 40
0
 40
1
 40
1
 40
1
 40
1
 10
235.594513
 20
165.090020
 30
0.0
 10
236.018859
 20
165.090020
 30
0.0
 10
236.425825
 20
164.921454
 30
0.0
 10
236.725884
 20
164.621390
 30
0.0
  0
SPLINE
  5
114
100
AcDbEntity
  8
cut.innerBottom1
 62
1
100
AcDbSpline
 70
8
 71
3
 72
8
 73
4
 74
0
 40
0
 40
0
 40
0
 40
0
 40
1
 40
1
 40
1
 40
1
 10
236.725884
 20
164.621390
 30
0.0
 10
237.025940
 20
164.321326
 30
0.0
 10
237.194511
 20
163.914371
 30
0.0
 10
237.194511
 20
163.490032
 30
0.0
  0
SPLINE
  5
115
100
AcDbEntity
  8
cut.innerBottom1
 62
1
100
AcDbSpline
 70
8
 71
3
 72
8
 73
4
 74
0
 40
0
 40
0
 40
0
 40
0
 40
1
 40
1
 40
1
 40
1
 10
167.194604
 20
163.490032
 30
0.0
 10
167.194604
 20
162.606377
 30
0.0
 10
166.478261
 20
161.890019
 30
0.0
 10
165.594606
 20
161.890019
 30
0.0
  0
SPLINE
  5
116
100
AcDbEntity
  8
cut.innerBottom1
 62
1
100
AcDbSpline
 70
8
 71
3
 72
8
 73
4
 74
0
 40
0
 40
0
 40
0
 40
0
 40
1
 40
1
 40
1
 40
1
 10
165.594606
 20
161.890019
 30
0.0
 10
164.710953
 20
161.890019
 30
0.0
 10
163.994608
 20
162.606377
 30
0.0
 10
163.994608
 20
163.490032
 30
0.0
  0
SPLINE
  5
117
100
AcDbEntity
  8
cut.innerBottom1
 62
1
100
AcDbSpline
 70
8
 71
3
 72
8
 73
4
 74
0
 40
0
 40
0
 40
0
 40
0
 40
1
 40
1
 40
1
 40
1
 10
163.994608
 20
163.490032
 30
0.0
 10
163.994608
 20
163.914371
 30
0.0
 10
164.163179
 20
164.321326
 30
0.0
 10
164.463235
 20
164.621390
 30
0.0
  0
SPLINE
  5
118
100
AcDbEntity
  8
cut.innerBottom1
 62
1
100
AcDbSpline
 70
8
 71
3
 72
8
 73
4
 74
0
 40
0
 40
0
 40
0
 40
0
 40
1
 40
1
 40
1
 40
1
 10
164.463235
 20
164.621390
 30
0.0
 10
164.763293
 20
164.921454
 30
0.0
 10
165.170259
 20
165.090020
 30
0.0
 10
165.594606
 20
165.090020
 30
0.0
  0
SPLINE
  5
119
100
AcDbEntity
  8
cut.innerBottom1
 62
1
100
AcDbSpline
 70
8
 71
3
 72
8
 73
4
 74
0
 40
0
 40
0
 40
0
 40
0
 40
1
 40
1
 40
1
 40
1
 10
165.594606
 20
165.090020
 30
0.0
 10
166.018952
 20
165.090020
 30
0.0
 10
166.425918
 20
164.921454
 30
0.0
 10
166.725977
 20
164.621390
 30
0.0
  0
SPLINE
  5
11a
100
AcDbEntity
  8
cut.innerBottom1
 62
1
100
AcDbSpline
 70
8
 71
3
 72
8
 73
4
 74
0
 40
0
 40
0
 40
0
 40
0
 40
1
 40
1
 40
1
 40
1
 10
166.725977
 20
164.621390
 30
0.0
 10
167.026035
 20
164.321326
 30
0.0
 10
167.194604
 20
163.914371
 30
0.0
 10
167.194604
 20
163.490032
 30
0.0
  0
SPLINE
  5
11b
100
AcDbEntity
  8
cut.innerBottom1
 62
1
100
AcDbSpline
 70
8
 71
3
 72
8
 73
4
 74
0
 40
0
 40
0
 40
0
 40
0
 40
1
 40
1
 40
1
 40
1
 10
202.194564
 20
40.490162
 30
0.0
 10
202.194564
 20
40.065823
 30
0.0
 10
202.025993
 20
39.658868
 30
0.0
 10
201.725934
 20
39.358804
 30
0.0
  0
SPLINE
  5
11c
100
AcDbEntity
  8
cut.innerBottom1
 62
1
100
AcDbSpline
 70
8
 71
3
 72
8
 73
4
 74
0
 40
0
 40
0
 40
0
 40
0
 40
1
 40
1
 40
1
 40
1
 10
201.725934
 20
39.358804
 30
0.0
 10
201.425876
 20
39.058741
 30
0.0
 10
201.018910
 20
38.890175
 30
0.0
 10
200.594563
 20
38.890175
 30
0.0
  0
SPLINE
  5
11d
100
AcDbEntity
  8
cut.innerBottom1
 62
1
100
AcDbSpline
 70
8
 71
3
 72
8
 73
4
 74
0
 40
0
 40
0
 40
0
 40
0
 40
1
 40
1
 40
1
 40
1
 10
200.594563
 20
38.890175
 30
0.0
 10
199.710908
 20
38.890175
 30
0.0
 10
198.994565
 20
39.606507
 30
0.0
 10
198.994565
 20
40.490162
 30
0.0
  0
SPLINE
  5
11e
100
AcDbEntity
  8
cut.innerBottom1
 62
1
100
AcDbSpline
 70
8
 71
3
 72
8
 73
4
 74
0
 40
0
 40
0
 40
0
 40
0
 40
1
 40
1
 40
1
 40
1
 10
198.994565
 20
40.490162
 30
0.0
 10
198.994565
 20
41.373817
 30
0.0
 10
199.710908
 20
42.090176
 30
0.0
 10
200.594563
 20
42.090176
 30
0.0
  0
SPLINE
  5
11f
100
AcDbEntity
  8
cut.innerBottom1
 62
1
100
AcDbSpline
 70
8
 71
3
 72
8
 73
4
 74
0
 40
0
 40
0
 40
0
 40
0
 40
1
 40
1
 40
1
 40
1
 10
200.594563
 20
42.090176
 30
0.0
 10
201.018910
 20
42.090176
 30
0.0
 10
201.425876
 20
41.921610
 30
0.0
 10
201.725934
 20
41.621546
 30
0.0
  0
SPLINE
  5
120
100
AcDbEntity
  8
cut.innerBottom1
 62
1
100
AcDbSpline
 70
8
 71
3
 72
8
 73
4
 74
0
 40
0
 40
0
 40
0
 40
0
 40
1
 40
1
 40
1
 40
1
 10
201.725934
 20
41.621546
 30
0.0
 10
202.025993
 20
41.321482
 30
0.0
 10
202.194564
 20
40.914527
 30
0.0
 10
202.194564
 20
40.490162
 30
0.0
  0
SPLINE
  5
121
100
AcDbEntity
  8
cut.innerBottom1
 62
1
100
AcDbSpline
 70
8
 71
3
 72
8
 73
4
 74
0
 40
0
 40
0
 40
0
 40
0
 40
1
 40
1
 40
1
 40
1
 10
385.194376
 20
105.490096
 30
0.0
 10
385.194376
 20
104.606441
 30
0.0
 10
384.478017
 20
103.890109
 30
0.0
 10
383.594389
 20
103.890082
 30
0.0
  0
SPLINE
  5
122
100
AcDbEntity
  8
cut.innerBottom1
 62
1
100
AcDbSpline
 70
8
 71
3
 72
8
 73
4
 74
0
 40
0
 40
0
 40
0
 40
0
 40
1
 40
1
 40
1
 40
1
 10
383.594389
 20
103.890082
 30
0.0
 10
383.170024
 20
103.890082
 30
0.0
 10
382.763068
 20
104.058648
 30
0.0
 10
382.463005
 20
104.358712
 30
0.0
  0
SPLINE
  5
123
100
AcDbEntity
  8
cut.innerBottom1
 62
1
100
AcDbSpline
 70
8
 71
3
 72
8
 73
4
 74
0
 40
0
 40
0
 40
0
 40
0
 40
1
 40
1
 40
1
 40
1
 10
382.463005
 20
104.358712
 30
0.0
 10
382.162941
 20
104.658776
 30
0.0
 10
381.994349
 20
105.065731
 30
0.0
 10
381.994349
 20
105.490096
 30
0.0
  0
SPLINE
  5
124
100
AcDbEntity
  8
cut.innerBottom1
 62
1
100
AcDbSpline
 70
8
 71
3
 72
8
 73
4
 74
0
 40
0
 40
0
 40
0
 40
0
 40
1
 40
1
 40
1
 40
1
 10
381.994349
 20
105.490096
 30
0.0
 10
381.994349
 20
105.914434
 30
0.0
 10
382.162941
 20
106.321416
 30
0.0
 10
382.463005
 20
106.621480
 30
0.0
  0
SPLINE
  5
125
100
AcDbEntity
  8
cut.innerBottom1
 62
1
100
AcDbSpline
 70
8
 71
3
 72
8
 73
4
 74
0
 40
0
 40
0
 40
0
 40
0
 40
1
 40
1
 40
1
 40
1
 10
382.463005
 20
106.621480
 30
0.0
 10
382.763068
 20
106.921517
 30
0.0
 10
383.170024
 20
107.090083
 30
0.0
 10
383.594389
 20
107.090083
 30
0.0
  0
SPLINE
  5
126
100
AcDbEntity
  8
cut.innerBottom1
 62
1
100
AcDbSpline
 70
8
 71
3
 72
8
 73
4
 74
0
 40
0
 40
0
 40
0
 40
0
 40
1
 40
1
 40
1
 40
1
 10
383.594389
 20
107.090083
 30
0.0
 10
384.478017
 20
107.090083
 30
0.0
 10
385.194376
 20
106.373751
 30
0.0
 10
385.194376
 20
105.490096
 30
0.0
  0
SPLINE
  5
127
100
AcDbEntity
  8
cut.innerBottom1
 62
1
100
AcDbSpline
 70
8
 71
3
 72
8
 73
4
 74
0
 40
0
 40
0
 40
0
 40
0
 40
1
 40
1
 40
1
 40
1
 10
372.194347
 20
55.490149
 30
0.0
 10
372.194347
 20
54.606494
 30
0.0
 10
371.477988
 20
53.890161
 30
0.0
 10
370.594333
 20
53.890161
 30
0.0
  0
SPLINE
  5
128
100
AcDbEntity
  8
cut.innerBottom1
 62
1
100
AcDbSpline
 70
8
 71
3
 72
8
 73
4
 74
0
 40
0
 40
0
 40
0
 40
0
 40
1
 40
1
 40
1
 40
1
 10
370.594333
 20
53.890161
 30
0.0
 10
369.710678
 20
53.890161
 30
0.0
 10
368.994346
 20
54.606494
 30
0.0
 10
368.994346
 20
55.490149
 30
0.0
  0
SPLINE
  5
129
100
AcDbEntity
  8
cut.innerBottom1
 62
1
100
AcDbSpline
 70
8
 71
3
 72
8
 73
4
 74
0
 40
0
 40
0
 40
0
 40
0
 40
1
 40
1
 40
1
 40
1
 10
368.994346
 20
55.490149
 30
0.0
 10
368.994346
 20
56.373804
 30
0.0
 10
369.710678
 20
57.090136
 30
0.0
 10
370.594333
 20
57.090162
 30
0.0
  0
SPLINE
  5
12a
100
AcDbEntity
  8
cut.innerBottom1
 62
1
100
AcDbSpline
 70
8
 71
3
 72
8
 73
4
 74
0
 40
0
 40
0
 40
0
 40
0
 40
1
 40
1
 40
1
 40
1
 10
370.594333
 20
57.090162
 30
0.0
 10
371.477988
 20
57.090136
 30
0.0
 10
372.194347
 20
56.373804
 30
0.0
 10
372.194347
 20
55.490149
 30
0.0
  0
SPLINE
  5
12b
100
AcDbEntity
  8
cut.innerBottom1
 62
1
100
AcDbSpline
 70
8
 71
3
 72
8
 73
4
 74
0
 40
0
 40
0
 40
0
 40
0
 40
1
 40
1
 40
1
 40
1
 10
272.194479
 20
15.490202
 30
0.0
 10
272.194479
 20
14.606547
 30
0.0
 10
271.478147
 20
13.890214
 30
0.0
 10
270.594492
 20
13.890214
 30
0.0
  0
SPLINE
  5
12c
100
AcDbEntity
  8
cut.innerBottom1
 62
1
100
AcDbSpline
 70
8
 71
3
 72
8
 73
4
 74
0
 40
0
 40
0
 40
0
 40
0
 40
1
 40
1
 40
1
 40
1
 10
270.594492
 20
13.890214
 30
0.0
 10
269.710837
 20
13.890214
 30
0.0
 10
268.994478
 20
14.606547
 30
0.0
 10
268.994478
 20
15.490202
 30
0.0
  0
SPLINE
  5
12d
100
AcDbEntity
  8
cut.innerBottom1
 62
1
100
AcDbSpline
 70
8
 71
3
 72
8
 73
4
 74
0
 40
0
 40
0
 40
0
 40
0
 40
1
 40
1
 40
1
 40
1
 10
268.994478
 20
15.490202
 30
0.0
 10
268.994478
 20
16.373856
 30
0.0
 10
269.710837
 20
17.090215
 30
0.0
 10
270.594492
 20
17.090215
 30
0.0
  0
SPLINE
  5
12e
100
AcDbEntity
  8
cut.innerBottom1
 62
1
100
AcDbSpline
 70
8
 71
3
 72
8
 73
4
 74
0
 40
0
 40
0
 40
0
 40
0
 40
1
 40
1
 40
1
 40
1
 10
270.594492
 20
17.090215
 30
0.0
 10
271.478147
 20
17.090215
 30
0.0
 10
272.194479
 20
16.373856
 30
0.0
 10
272.194479
 20
15.490202
 30
0.0
  0
SPLINE
  5
12f
100
AcDbEntity
  8
cut.innerBottom1
 62
1
100
AcDbSpline
 70
8
 71
3
 72
8
 73
4
 74
0
 40
0
 40
0
 40
0
 40
0
 40
1
 40
1
 40
1
 40
1
 10
132.194646
 20
15.490202
 30
0.0
 10
132.194646
 20
14.606547
 30
0.0
 10
131.478303
 20
13.890214
 30
0.0
 10
130.594648
 20
13.890214
 30
0.0
  0
SPLINE
  5
130
100
AcDbEntity
  8
cut.innerBottom1
 62
1
100
AcDbSpline
 70
8
 71
3
 72
8
 73
4
 74
0
 40
0
 40
0
 40
0
 40
0
 40
1
 40
1
 40
1
 40
1
 10
130.594648
 20
13.890214
 30
0.0
 10
130.170304
 20
13.890214
 30
0.0
 10
129.763336
 20
14.058780
 30
0.0
 10
129.463280
 20
14.358818
 30
0.0
  0
SPLINE
  5
131
100
AcDbEntity
  8
cut.innerBottom1
 62
1
100
AcDbSpline
 70
8
 71
3
 72
8
 73
4
 74
0
 40
0
 40
0
 40
0
 40
0
 40
1
 40
1
 40
1
 40
1
 10
129.463280
 20
14.358818
 30
0.0
 10
129.163219
 20
14.658881
 30
0.0
 10
128.994650
 20
15.065863
 30
0.0
 10
128.994650
 20
15.490202
 30
0.0
  0
SPLINE
  5
132
100
AcDbEntity
  8
cut.innerBottom1
 62
1
100
AcDbSpline
 70
8
 71
3
 72
8
 73
4
 74
0
 40
0
 40
0
 40
0
 40
0
 40
1
 40
1
 40
1
 40
1
 10
128.994650
 20
15.490202
 30
0.0
 10
128.994647
 20
15.914540
 30
0.0
 10
129.163219
 20
16.321522
 30
0.0
 10
129.463277
 20
16.621559
 30
0.0
  0
SPLINE
  5
133
100
AcDbEntity
  8
cut.innerBottom1
 62
1
100
AcDbSpline
 70
8
 71
3
 72
8
 73
4
 74
0
 40
0
 40
0
 40
0
 40
0
 40
1
 40
1
 40
1
 40
1
 10
129.463277
 20
16.621559
 30
0.0
 10
129.763336
 20
16.921623
 30
0.0
 10
130.170302
 20
17.090189
 30
0.0
 10
130.594648
 20
17.090189
 30
0.0
  0
SPLINE
  5
134
100
AcDbEntity
  8
cut.innerBottom1
 62
1
100
AcDbSpline
 70
8
 71
3
 72
8
 73
4
 74
0
 40
0
 40
0
 40
0
 40
0
 40
1
 40
1
 40
1
 40
1
 10
130.594648
 20
17.090189
 30
0.0
 10
131.018994
 20
17.090189
 30
0.0
 10
131.425960
 20
16.921623
 30
0.0
 10
131.726019
 20
16.621559
 30
0.0
  0
SPLINE
  5
135
100
AcDbEntity
  8
cut.innerBottom1
 62
1
100
AcDbSpline
 70
8
 71
3
 72
8
 73
4
 74
0
 40
0
 40
0
 40
0
 40
0
 40
1
 40
1
 40
1
 40
1
 10
131.726019
 20
16.621559
 30
0.0
 10
132.026077
 20
16.321522
 30
0.0
 10
132.194646
 20
15.914540
 30
0.0
 10
132.194646
 20
15.490202
 30
0.0
  0
SPLINE
  5
136
100
AcDbEntity
  8
cut.innerBottom1
 62
1
100
AcDbSpline
 70
8
 71
3
 72
8
 73
4
 74
0
 40
0
 40
0
 40
0
 40
0
 40
1
 40
1
 40
1
 40
1
 10
32.194768
 20
55.490149
 30
0.0
 10
32.194768
 20
55.065810
 30
0.0
 10
32.026196
 20
54.658828
 30
0.0
 10
31.726138
 20
54.358791
 30
0.0
  0
SPLINE
  5
137
100
AcDbEntity
  8
cut.innerBottom1
 62
1
100
AcDbSpline
 70
8
 71
3
 72
8
 73
4
 74
0
 40
0
 40
0
 40
0
 40
0
 40
1
 40
1
 40
1
 40
1
 10
31.726138
 20
54.358791
 30
0.0
 10
31.426079
 20
54.058727
 30
0.0
 10
31.019113
 20
53.890161
 30
0.0
 10
30.594767
 20
53.890161
 30
0.0
  0
SPLINE
  5
138
100
AcDbEntity
  8
cut.innerBottom1
 62
1
100
AcDbSpline
 70
8
 71
3
 72
8
 73
4
 74
0
 40
0
 40
0
 40
0
 40
0
 40
1
 40
1
 40
1
 40
1
 10
30.594767
 20
53.890161
 30
0.0
 10
30.170421
 20
53.890161
 30
0.0
 10
29.763455
 20
54.058727
 30
0.0
 10
29.463396
 20
54.358791
 30
0.0
  0
SPLINE
  5
139
100
AcDbEntity
  8
cut.innerBottom1
 62
1
100
AcDbSpline
 70
8
 71
3
 72
8
 73
4
 74
0
 40
0
 40
0
 40
0
 40
0
 40
1
 40
1
 40
1
 40
1
 10
29.463396
 20
54.358791
 30
0.0
 10
29.163340
 20
54.658828
 30
0.0
 10
28.994769
 20
55.065810
 30
0.0
 10
28.994769
 20
55.490149
 30
0.0
  0
SPLINE
  5
13a
100
AcDbEntity
  8
cut.innerBottom1
 62
1
100
AcDbSpline
 70
8
 71
3
 72
8
 73
4
 74
0
 40
0
 40
0
 40
0
 40
0
 40
1
 40
1
 40
1
 40
1
 10
28.994769
 20
55.490149
 30
0.0
 10
28.994769
 20
56.373804
 30
0.0
 10
29.711112
 20
57.090162
 30
0.0
 10
30.594767
 20
57.090162
 30
0.0
  0
SPLINE
  5
13b
100
AcDbEntity
  8
cut.innerBottom1
 62
1
100
AcDbSpline
 70
8
 71
3
 72
8
 73
4
 74
0
 40
0
 40
0
 40
0
 40
0
 40
1
 40
1
 40
1
 40
1
 10
30.594767
 20
57.090162
 30
0.0
 10
31.019113
 20
57.090162
 30
0.0
 10
31.426079
 20
56.921570
 30
0.0
 10
31.726138
 20
56.621533
 30
0.0
  0
SPLINE
  5
13c
100
AcDbEntity
  8
cut.innerBottom1
 62
1
100
AcDbSpline
 70
8
 71
3
 72
8
 73
4
 74
0
 40
0
 40
0
 40
0
 40
0
 40
1
 40
1
 40
1
 40
1
 10
31.726138
 20
56.621533
 30
0.0
 10
32.026196
 20
56.321469
 30
0.0
 10
32.194768
 20
55.914487
 30
0.0
 10
32.194768
 20
55.490149
 30
0.0
  0
SPLINE
  5
13d
100
AcDbEntity
  8
cut.innerBottom1
 62
1
100
AcDbSpline
 70
8
 71
3
 72
8
 73
4
 74
0
 40
0
 40
0
 40
0
 40
0
 40
1
 40
1
 40
1
 40
1
 10
235.041188
 20
123.228016
 30
0.0
 10
235.266139
 20
122.253635
 30
0.0
 10
234.947663
 20
121.410409
 30
0.0
 10
233.729697
 20
121.129210
 30
0.0
  0
SPLINE
  5
13e
100
AcDbEntity
  8
cut.innerBottom1
 62
1
100
AcDbSpline
 70
8
 71
3
 72
8
 73
4
 74
0
 40
0
 40
0
 40
0
 40
0
 40
1
 40
1
 40
1
 40
1
 10
229.697650
 20
156.375497
 30
0.0
 10
228.479705
 20
156.094324
 30
0.0
 10
227.786521
 20
154.651394
 30
0.0
 10
228.067715
 20
153.433438
 30
0.0
  0
SPLINE
  5
13f
100
AcDbEntity
  8
cut.innerBottom1
 62
1
100
AcDbSpline
 70
8
 71
3
 72
8
 73
4
 74
0
 40
0
 40
0
 40
0
 40
0
 40
1
 40
1
 40
1
 40
1
 10
211.717883
 20
60.883597
 30
0.0
 10
210.594555
 20
61.990137
 30
0.0
 10
210.844552
 20
62.990129
 30
0.0
 10
211.344551
 20
65.490149
 30
0.0
  0
SPLINE
  5
140
100
AcDbEntity
  8
cut.innerBottom1
 62
1
100
AcDbSpline
 70
8
 71
3
 72
8
 73
4
 74
0
 40
0
 40
0
 40
0
 40
0
 40
1
 40
1
 40
1
 40
1
 10
211.344551
 20
65.490149
 30
0.0
 10
212.094551
 20
69.490143
 30
0.0
 10
220.505737
 20
111.662689
 30
0.0
 10
221.594540
 20
115.490069
 30
0.0
  0
SPLINE
  5
141
100
AcDbEntity
  8
cut.innerBottom1
 62
1
100
AcDbSpline
 70
8
 71
3
 72
8
 73
4
 74
0
 40
0
 40
0
 40
0
 40
0
 40
1
 40
1
 40
1
 40
1
 10
221.594540
 20
115.490069
 30
0.0
 10
222.594540
 20
118.490072
 30
0.0
 10
225.594534
 20
119.240086
 30
0.0
 10
226.178337
 20
119.385845
 30
0.0
  0
SPLINE
  5
142
100
AcDbEntity
  8
cut.innerBottom1
 62
1
100
AcDbSpline
 70
8
 71
3
 72
8
 73
4
 74
0
 40
0
 40
0
 40
0
 40
0
 40
1
 40
1
 40
1
 40
1
 10
241.345752
 20
32.572855
 30
0.0
 10
240.483859
 20
31.860729
 30
0.0
 10
238.966073
 20
31.766882
 30
0.0
 10
238.310173
 20
32.385186
 30
0.0
  0
SPLINE
  5
143
100
AcDbEntity
  8
cut.innerBottom1
 62
1
100
AcDbSpline
 70
8
 71
3
 72
8
 73
4
 74
0
 40
0
 40
0
 40
0
 40
0
 40
1
 40
1
 40
1
 40
1
 10
344.082915
 20
83.232037
 30
0.0
 10
342.864959
 20
82.950865
 30
0.0
 10
341.721854
 20
83.456695
 30
0.0
 10
341.496906
 20
84.431049
 30
0.0
  0
SPLINE
  5
144
100
AcDbEntity
  8
cut.innerBottom1
 62
1
100
AcDbSpline
 70
8
 71
3
 72
8
 73
4
 74
0
 40
0
 40
0
 40
0
 40
0
 40
1
 40
1
 40
1
 40
1
 10
341.496906
 20
84.431049
 30
0.0
 10
341.271984
 20
85.405429
 30
0.0
 10
340.372480
 20
85.967510
 30
0.0
 10
339.154525
 20
85.686284
 30
0.0
  0
SPLINE
  5
145
100
AcDbEntity
  8
cut.innerBottom1
 62
1
100
AcDbSpline
 70
8
 71
3
 72
8
 73
4
 74
0
 40
0
 40
0
 40
0
 40
0
 40
1
 40
1
 40
1
 40
1
 10
379.085019
 20
93.878652
 30
0.0
 10
379.366217
 20
92.660723
 30
0.0
 10
378.916638
 20
91.274042
 30
0.0
 10
376.967877
 20
90.824119
 30
0.0
  0
SPLINE
  5
146
100
AcDbEntity
  8
cut.innerBottom1
 62
1
100
AcDbSpline
 70
8
 71
3
 72
8
 73
4
 74
0
 40
0
 40
0
 40
0
 40
0
 40
1
 40
1
 40
1
 40
1
 10
377.078473
 20
110.349430
 30
0.0
 10
375.860491
 20
110.068231
 30
0.0
 10
375.542038
 20
109.224978
 30
0.0
 10
375.823211
 20
108.007023
 30
0.0
  0
SPLINE
  5
147
100
AcDbEntity
  8
cut.innerBottom1
 62
1
100
AcDbSpline
 70
8
 71
3
 72
8
 73
4
 74
0
 40
0
 40
0
 40
0
 40
0
 40
1
 40
1
 40
1
 40
1
 10
379.308062
 20
112.916786
 30
0.0
 10
379.476787
 20
112.185981
 30
0.0
 10
378.783605
 20
110.743103
 30
0.0
 10
377.322074
 20
110.405654
 30
0.0
  0
SPLINE
  5
148
100
AcDbEntity
  8
cut.innerBottom1
 62
1
100
AcDbSpline
 70
8
 71
3
 72
8
 73
4
 74
0
 40
0
 40
0
 40
0
 40
0
 40
1
 40
1
 40
1
 40
1
 10
360.844100
 20
185.113594
 30
0.0
 10
361.818507
 20
185.338543
 30
0.0
 10
362.774207
 20
184.532887
 30
0.0
 10
362.999156
 20
183.558506
 30
0.0
  0
LWPOLYLINE
  5
149
100
AcDbEntity
  8
cut.innerBottom1
 62
1
100
AcDbPolyline
 90
10
 70
0
 10
229.697671
 20
156.375523
 30
0.0
 10
265.505737
 20
164.642451
 30
0.0
 10
265.168288
 20
166.104008
 30
0.0
 10
283.681278
 20
170.378085
 30
0.0
 10
283.343881
 20
171.839615
 30
0.0
 10
303.562030
 20
176.507339
 30
0.0
 10
303.921969
 20
174.948362
 30
0.0
 10
322.415538
 20
179.181004
 30
0.0
 10
323.087315
 20
176.396743
 30
0.0
 10
360.844100
 20
185.113594
 30
0.0
  0
LWPOLYLINE
  5
14a
100
AcDbEntity
  8
cut.innerBottom1
 62
1
100
AcDbPolyline
 90
2
 70
0
 10
362.999156
 20
183.558533
 30
0.0
 10
379.308062
 20
112.916786
 30
0.0
  0
LWPOLYLINE
  5
14b
100
AcDbEntity
  8
cut.innerBottom1
 62
1
100
AcDbPolyline
 90
2
 70
0
 10
375.823211
 20
108.007023
 30
0.0
 10
379.084992
 20
93.878679
 30
0.0
  0
LWPOLYLINE
  5
14c
100
AcDbEntity
  8
cut.innerBottom1
 62
1
100
AcDbPolyline
 90
2
 70
0
 10
376.967877
 20
90.824119
 30
0.0
 10
344.082915
 20
83.232037
 30
0.0
  0
LWPOLYLINE
  5
14d
100
AcDbEntity
  8
cut.innerBottom1
 62
1
100
AcDbPolyline
 90
2
 70
0
 10
228.067712
 20
153.433438
 30
0.0
 10
235.041188
 20
123.228016
 30
0.0
  0
LWPOLYLINE
  5
14e
100
AcDbEntity
  8
cut.innerBottom1
 62
1
100
AcDbPolyline
 90
2
 70
0
 10
233.729697
 20
121.129210
 30
0.0
 10
226.178337
 20
119.385845
 30
0.0
  0
LWPOLYLINE
  5
14f
100
AcDbEntity
  8
cut.innerBottom1
 62
1
100
AcDbPolyline
 90
2
 70
0
 10
377.322074
 20
110.405654
 30
0.0
 10
377.078473
 20
110.349430
 30
0.0
  0
LWPOLYLINE
  5
150
100
AcDbEntity
  8
cut.innerBottom1
 62
1
100
AcDbPolyline
 90
2
 70
0
 10
284.833485
 20
73.145307
 30
0.0
 10
241.345752
 20
32.572855
 30
0.0
  0
SPLINE
  5
151
100
AcDbEntity
  8
cut.innerBottom1
 62
1
100
AcDbSpline
 70
8
 71
3
 72
8
 73
4
 74
0
 40
0
 40
0
 40
0
 40
0
 40
1
 40
1
 40
1
 40
1
 10
165.934061
 20
123.228016
 30
0.0
 10
165.709109
 20
122.253635
 30
0.0
 10
166.027575
 20
121.410382
 30
0.0
 10
167.245541
 20
121.129210
 30
0.0
  0
SPLINE
  5
152
100
AcDbEntity
  8
cut.innerBottom1
 62
1
100
AcDbSpline
 70
8
 71
3
 72
8
 73
4
 74
0
 40
0
 40
0
 40
0
 40
0
 40
1
 40
1
 40
1
 40
1
 10
171.277582
 20
156.375497
 30
0.0
 10
172.495535
 20
156.094324
 30
0.0
 10
173.188717
 20
154.651394
 30
0.0
 10
172.907536
 20
153.433438
 30
0.0
  0
SPLINE
  5
153
100
AcDbEntity
  8
cut.innerBottom1
 62
1
100
AcDbSpline
 70
8
 71
3
 72
8
 73
4
 74
0
 40
0
 40
0
 40
0
 40
0
 40
1
 40
1
 40
1
 40
1
 10
189.257344
 20
60.883597
 30
0.0
 10
190.344577
 20
61.990137
 30
0.0
 10
190.094578
 20
63.240134
 30
0.0
 10
189.594579
 20
65.490149
 30
0.0
  0
SPLINE
  5
154
100
AcDbEntity
  8
cut.innerBottom1
 62
1
100
AcDbSpline
 70
8
 71
3
 72
8
 73
4
 74
0
 40
0
 40
0
 40
0
 40
0
 40
1
 40
1
 40
1
 40
1
 10
189.594579
 20
65.490149
 30
0.0
 10
186.541530
 20
79.216220
 30
0.0
 10
180.594590
 20
111.490075
 30
0.0
 10
179.594590
 20
115.490069
 30
0.0
  0
SPLINE
  5
155
100
AcDbEntity
  8
cut.innerBottom1
 62
1
100
AcDbSpline
 70
8
 71
3
 72
8
 73
4
 74
0
 40
0
 40
0
 40
0
 40
0
 40
1
 40
1
 40
1
 40
1
 10
179.594590
 20
115.490069
 30
0.0
 10
178.594592
 20
118.490072
 30
0.0
 10
175.594595
 20
119.240086
 30
0.0
 10
174.796898
 20
119.385818
 30
0.0
  0
SPLINE
  5
156
100
AcDbEntity
  8
cut.innerBottom1
 62
1
100
AcDbSpline
 70
8
 71
3
 72
8
 73
4
 74
0
 40
0
 40
0
 40
0
 40
0
 40
1
 40
1
 40
1
 40
1
 10
159.629480
 20
32.572855
 30
0.0
 10
160.491368
 20
31.860703
 30
0.0
 10
162.009163
 20
31.766882
 30
0.0
 10
162.665064
 20
32.385186
 30
0.0
  0
SPLINE
  5
157
100
AcDbEntity
  8
cut.innerBottom1
 62
1
100
AcDbSpline
 70
8
 71
3
 72
8
 73
4
 74
0
 40
0
 40
0
 40
0
 40
0
 40
1
 40
1
 40
1
 40
1
 10
56.892301
 20
83.232037
 30
0.0
 10
58.110265
 20
82.950865
 30
0.0
 10
59.253346
 20
83.456695
 30
0.0
 10
59.478295
 20
84.431049
 30
0.0
  0
SPLINE
  5
158
100
AcDbEntity
  8
cut.innerBottom1
 62
1
100
AcDbSpline
 70
8
 71
3
 72
8
 73
4
 74
0
 40
0
 40
0
 40
0
 40
0
 40
1
 40
1
 40
1
 40
1
 10
59.478295
 20
84.431049
 30
0.0
 10
59.703249
 20
85.405429
 30
0.0
 10
60.602739
 20
85.967483
 30
0.0
 10
61.820700
 20
85.686284
 30
0.0
  0
SPLINE
  5
159
100
AcDbEntity
  8
cut.innerBottom1
 62
1
100
AcDbSpline
 70
8
 71
3
 72
8
 73
4
 74
0
 40
0
 40
0
 40
0
 40
0
 40
1
 40
1
 40
1
 40
1
 10
21.890218
 20
93.878679
 30
0.0
 10
21.609030
 20
92.660723
 30
0.0
 10
22.058615
 20
91.274042
 30
0.0
 10
24.007353
 20
90.824119
 30
0.0
  0
SPLINE
  5
15a
100
AcDbEntity
  8
cut.innerBottom1
 62
1
100
AcDbSpline
 70
8
 71
3
 72
8
 73
4
 74
0
 40
0
 40
0
 40
0
 40
0
 40
1
 40
1
 40
1
 40
1
 10
23.896756
 20
110.349430
 30
0.0
 10
25.114716
 20
110.068231
 30
0.0
 10
25.433190
 20
109.224978
 30
0.0
 10
25.152002
 20
108.007023
 30
0.0
  0
SPLINE
  5
15b
100
AcDbEntity
  8
cut.innerBottom1
 62
1
100
AcDbSpline
 70
8
 71
3
 72
8
 73
4
 74
0
 40
0
 40
0
 40
0
 40
0
 40
1
 40
1
 40
1
 40
1
 10
21.667145
 20
112.916760
 30
0.0
 10
21.498433
 20
112.186008
 30
0.0
 10
22.191611
 20
110.743077
 30
0.0
 10
23.653167
 20
110.405654
 30
0.0
  0
SPLINE
  5
15c
100
AcDbEntity
  8
cut.innerBottom1
 62
1
100
AcDbSpline
 70
8
 71
3
 72
8
 73
4
 74
0
 40
0
 40
0
 40
0
 40
0
 40
1
 40
1
 40
1
 40
1
 10
40.131127
 20
185.113594
 30
0.0
 10
39.156755
 20
185.338543
 30
0.0
 10
38.201028
 20
184.532887
 30
0.0
 10
37.976079
 20
183.558506
 30
0.0
  0
LWPOLYLINE
  5
15d
100
AcDbEntity
  8
cut.innerBottom1
 62
1
100
AcDbPolyline
 90
2
 70
0
 10
238.310173
 20
32.385186
 30
0.0
 10
211.717907
 20
60.883597
 30
0.0
  0
LWPOLYLINE
  5
15e
100
AcDbEntity
  8
cut.innerBottom1
 62
1
100
AcDbPolyline
 90
2
 70
0
 10
339.154525
 20
85.686311
 30
0.0
 10
284.833485
 20
73.145307
 30
0.0
  0
LWPOLYLINE
  5
15f
100
AcDbEntity
  8
cut.innerBottom1
 62
1
100
AcDbPolyline
 90
10
 70
0
 10
171.277574
 20
156.375497
 30
0.0
 10
135.469519
 20
164.642451
 30
0.0
 10
135.806944
 20
166.104008
 30
0.0
 10
117.293933
 20
170.378058
 30
0.0
 10
117.631362
 20
171.839615
 30
0.0
 10
97.413205
 20
176.507339
 30
0.0
 10
97.053282
 20
174.948362
 30
0.0
 10
78.559718
 20
179.181004
 30
0.0
 10
77.887917
 20
176.396743
 30
0.0
 10
40.131125
 20
185.113594
 30
0.0
  0
LWPOLYLINE
  5
160
100
AcDbEntity
  8
cut.innerBottom1
 62
1
100
AcDbPolyline
 90
2
 70
0
 10
37.976076
 20
183.558533
 30
0.0
 10
21.667145
 20
112.916786
 30
0.0
  0
LWPOLYLINE
  5
161
100
AcDbEntity
  8
cut.innerBottom1
 62
1
100
AcDbPolyline
 90
2
 70
0
 10
25.152002
 20
108.007023
 30
0.0
 10
21.890215
 20
93.878679
 30
0.0
  0
LWPOLYLINE
  5
162
100
AcDbEntity
  8
cut.innerBottom1
 62
1
100
AcDbPolyline
 90
2
 70
0
 10
24.007353
 20
90.824145
 30
0.0
 10
56.892301
 20
83.232037
 30
0.0
  0
LWPOLYLINE
  5
163
100
AcDbEntity
  8
cut.innerBottom1
 62
1
100
AcDbPolyline
 90
2
 70
0
 10
172.907528
 20
153.433438
 30
0.0
 10
165.934055
 20
123.228016
 30
0.0
  0
LWPOLYLINE
  5
164
100
AcDbEntity
  8
cut.innerBottom1
 62
1
100
AcDbPolyline
 90
2
 70
0
 10
167.245536
 20
121.129210
 30
0.0
 10
174.796893
 20
119.385818
 30
0.0
  0
LWPOLYLINE
  5
165
100
AcDbEntity
  8
cut.innerBottom1
 62
1
100
AcDbPolyline
 90
2
 70
0
 10
23.653163
 20
110.405654
 30
0.0
 10
23.896756
 20
110.349430
 30
0.0
  0
LWPOLYLINE
  5
166
100
AcDbEntity
  8
cut.innerBottom1
 62
1
100
AcDbPolyline
 90
2
 70
0
 10
116.141761
 20
73.145280
 30
0.0
 10
159.629480
 20
32.572855
 30
0.0
  0
LWPOLYLINE
  5
167
100
AcDbEntity
  8
cut.innerBottom1
 62
1
100
AcDbPolyline
 90
2
 70
0
 10
162.665062
 20
32.385186
 30
0.0
 10
189.257342
 20
60.883597
 30
0.0
  0
SPLINE
  5
168
100
AcDbEntity
  8
cut.innerBottom1
 62
1
100
AcDbSpline
 70
8
 71
3
 72
8
 73
4
 74
0
 40
0
 40
0
 40
0
 40
0
 40
1
 40
1
 40
1
 40
1
 10
210.844552
 20
159.490038
 30
0.0
 10
211.844549
 20
159.490038
 30
0.0
 10
212.331999
 20
158.990028
 30
0.0
 10
212.344551
 20
158.240041
 30
0.0
  0
LWPOLYLINE
  5
169
100
AcDbEntity
  8
cut.innerBottom1
 62
1
100
AcDbPolyline
 90
2
 70
0
 10
61.820700
 20
85.686311
 30
0.0
 10
116.141761
 20
73.145280
 30
0.0
  0
SPLINE
  5
16a
100
AcDbEntity
  8
cut.innerBottom1
 62
1
100
AcDbSpline
 70
8
 71
3
 72
8
 73
4
 74
0
 40
0
 40
0
 40
0
 40
0
 40
1
 40
1
 40
1
 40
1
 10
212.344524
 20
154.140034
 30
0.0
 10
212.344524
 20
152.390028
 30
0.0
 10
214.094509
 20
149.390025
 30
0.0
 10
216.844512
 20
149.390025
 30
0.0
  0
LWPOLYLINE
  5
16b
100
AcDbEntity
  8
cut.innerBottom1
 62
1
100
AcDbPolyline
 90
2
 70
0
 10
210.094551
 20
159.490038
 30
0.0
 10
210.844552
 20
159.490038
 30
0.0
  0
SPLINE
  5
16c
100
AcDbEntity
  8
cut.innerBottom1
 62
1
100
AcDbSpline
 70
8
 71
3
 72
8
 73
4
 74
0
 40
0
 40
0
 40
0
 40
0
 40
1
 40
1
 40
1
 40
1
 10
220.844377
 20
149.390025
 30
0.0
 10
223.844393
 20
149.390025
 30
0.0
 10
226.258963
 20
146.712761
 30
0.0
 10
226.258963
 20
144.212768
 30
0.0
  0
LWPOLYLINE
  5
16d
100
AcDbEntity
  8
cut.innerBottom1
 62
1
100
AcDbPolyline
 90
2
 70
0
 10
212.344551
 20
158.240041
 30
0.0
 10
212.344524
 20
154.140034
 30
0.0
  0
SPLINE
  5
16e
100
AcDbEntity
  8
cut.innerBottom1
 62
1
100
AcDbSpline
 70
8
 71
3
 72
8
 73
4
 74
0
 40
0
 40
0
 40
0
 40
0
 40
1
 40
1
 40
1
 40
1
 10
174.844449
 20
144.140034
 30
0.0
 10
174.844449
 20
147.015047
 30
0.0
 10
177.256069
 20
149.390025
 30
0.0
 10
180.344429
 20
149.390025
 30
0.0
  0
LWPOLYLINE
  5
16f
100
AcDbEntity
  8
cut.innerBottom1
 62
1
100
AcDbPolyline
 90
2
 70
0
 10
216.844512
 20
149.390025
 30
0.0
 10
220.844377
 20
149.390025
 30
0.0
  0
SPLINE
  5
170
100
AcDbEntity
  8
cut.innerBottom1
 62
1
100
AcDbSpline
 70
8
 71
3
 72
8
 73
4
 74
0
 40
0
 40
0
 40
0
 40
0
 40
1
 40
1
 40
1
 40
1
 10
184.094427
 20
149.390025
 30
0.0
 10
187.344408
 20
149.390025
 30
0.0
 10
188.844425
 20
152.140023
 30
0.0
 10
188.844425
 20
154.140034
 30
0.0
  0
LWPOLYLINE
  5
171
100
AcDbEntity
  8
cut.innerBottom1
 62
1
100
AcDbPolyline
 90
8
 70
0
 10
226.258963
 20
144.212768
 30
0.0
 10
226.344387
 20
126.640054
 30
0.0
 10
227.344538
 20
125.490069
 30
0.0
 10
210.094559
 20
107.990089
 30
0.0
 10
191.094578
 20
107.990089
 30
0.0
 10
173.844600
 20
125.490069
 30
0.0
 10
174.844449
 20
126.640054
 30
0.0
 10
174.844449
 20
144.140034
 30
0.0
  0
SPLINE
  5
172
100
AcDbEntity
  8
cut.innerBottom1
 62
1
100
AcDbSpline
 70
8
 71
3
 72
8
 73
4
 74
0
 40
0
 40
0
 40
0
 40
0
 40
1
 40
1
 40
1
 40
1
 10
188.844579
 20
158.240041
 30
0.0
 10
188.835794
 20
158.990028
 30
0.0
 10
189.344590
 20
159.490038
 30
0.0
 10
190.094573
 20
159.490038
 30
0.0
  0
LWPOLYLINE
  5
173
100
AcDbEntity
  8
cut.innerBottom1
 62
1
100
AcDbPolyline
 90
2
 70
0
 10
180.344429
 20
149.390025
 30
0.0
 10
184.094427
 20
149.390025
 30
0.0
  0
SPLINE
  5
174
100
AcDbEntity
  8
cut.innerBottom1
 62
1
100
AcDbSpline
 70
8
 71
3
 72
8
 73
4
 74
0
 40
0
 40
0
 40
0
 40
0
 40
1
 40
1
 40
1
 40
1
 10
191.094573
 20
161.490022
 30
0.0
 10
170.594598
 20
161.490022
 30
0.0
 10
170.594598
 20
180.490003
 30
0.0
 10
35.594764
 20
192.489987
 30
0.0
  0
SPLINE
  5
175
100
AcDbEntity
  8
cut.innerBottom1
 62
1
100
AcDbSpline
 70
8
 71
3
 72
8
 73
4
 74
0
 40
0
 40
0
 40
0
 40
0
 40
1
 40
1
 40
1
 40
1
 10
35.594764
 20
192.489987
 30
0.0
 10
31.594767
 20
192.489987
 30
0.0
 10
28.594770
 20
192.489987
 30
0.0
 10
27.594772
 20
187.490001
 30
0.0
  0
LWPOLYLINE
  5
176
100
AcDbEntity
  8
cut.innerBottom1
 62
1
100
AcDbPolyline
 90
2
 70
0
 10
188.844425
 20
154.140034
 30
0.0
 10
188.844579
 20
158.240041
 30
0.0
  0
SPLINE
  5
177
100
AcDbEntity
  8
cut.innerBottom1
 62
1
100
AcDbSpline
 70
8
 71
3
 72
8
 73
4
 74
0
 40
0
 40
0
 40
0
 40
0
 40
1
 40
1
 40
1
 40
1
 10
14.886581
 20
130.490056
 30
0.0
 10
12.594791
 20
120.490083
 30
0.0
 10
10.594793
 20
110.490083
 30
0.0
 10
10.594793
 20
100.490109
 30
0.0
  0
SPLINE
  5
178
100
AcDbEntity
  8
cut.innerBottom1
 62
1
100
AcDbSpline
 70
8
 71
3
 72
8
 73
4
 74
0
 40
0
 40
0
 40
0
 40
0
 40
1
 40
1
 40
1
 40
1
 10
10.594793
 20
100.490109
 30
0.0
 10
10.594793
 20
49.127665
 30
0.0
 10
52.382032
 20
5.640088
 30
0.0
 10
103.744460
 20
5.640088
 30
0.0
  0
SPLINE
  5
179
100
AcDbEntity
  8
cut.innerBottom1
 62
1
100
AcDbSpline
 70
8
 71
3
 72
8
 73
4
 74
0
 40
0
 40
0
 40
0
 40
0
 40
1
 40
1
 40
1
 40
1
 10
103.744460
 20
5.640088
 30
0.0
 10
155.106892
 20
5.640088
 30
0.0
 10
165.594606
 20
32.990182
 30
0.0
 10
193.094575
 20
32.990182
 30
0.0
  0
LWPOLYLINE
  5
17a
100
AcDbEntity
  8
cut.innerBottom1
 62
1
100
AcDbPolyline
 90
3
 70
0
 10
190.094573
 20
159.490038
 30
0.0
 10
191.094573
 20
159.490038
 30
0.0
 10
191.094573
 20
161.490022
 30
0.0
  0
SPLINE
  5
17b
100
AcDbEntity
  8
cut.innerBottom1
 62
1
100
AcDbSpline
 70
8
 71
3
 72
8
 73
4
 74
0
 40
0
 40
0
 40
0
 40
0
 40
1
 40
1
 40
1
 40
1
 10
208.094557
 20
32.990182
 30
0.0
 10
235.594524
 20
32.990182
 30
0.0
 10
246.082124
 20
5.640088
 30
0.0
 10
297.444550
 20
5.640088
 30
0.0
  0
SPLINE
  5
17c
100
AcDbEntity
  8
cut.innerBottom1
 62
1
100
AcDbSpline
 70
8
 71
3
 72
8
 73
4
 74
0
 40
0
 40
0
 40
0
 40
0
 40
1
 40
1
 40
1
 40
1
 10
297.444550
 20
5.640088
 30
0.0
 10
348.806995
 20
5.640088
 30
0.0
 10
390.594360
 20
49.127665
 30
0.0
 10
390.594360
 20
100.490109
 30
0.0
  0
SPLINE
  5
17d
100
AcDbEntity
  8
cut.innerBottom1
 62
1
100
AcDbSpline
 70
8
 71
3
 72
8
 73
4
 74
0
 40
0
 40
0
 40
0
 40
0
 40
1
 40
1
 40
1
 40
1
 10
390.594360
 20
100.490109
 30
0.0
 10
390.594360
 20
110.490083
 30
0.0
 10
388.594323
 20
120.490083
 30
0.0
 10
386.594338
 20
130.490056
 30
0.0
  0
LWPOLYLINE
  5
17e
100
AcDbEntity
  8
cut.innerBottom1
 62
1
100
AcDbPolyline
 90
2
 70
0
 10
27.594772
 20
187.490001
 30
0.0
 10
14.886581
 20
130.490056
 30
0.0
  0
SPLINE
  5
17f
100
AcDbEntity
  8
cut.innerBottom1
 62
1
100
AcDbSpline
 70
8
 71
3
 72
8
 73
4
 74
0
 40
0
 40
0
 40
0
 40
0
 40
1
 40
1
 40
1
 40
1
 10
373.594362
 20
187.490001
 30
0.0
 10
372.594370
 20
192.489987
 30
0.0
 10
369.594368
 20
192.489987
 30
0.0
 10
365.594373
 20
192.489987
 30
0.0
  0
SPLINE
  5
180
100
AcDbEntity
  8
cut.innerBottom1
 62
1
100
AcDbSpline
 70
8
 71
3
 72
8
 73
4
 74
0
 40
0
 40
0
 40
0
 40
0
 40
1
 40
1
 40
1
 40
1
 10
365.594373
 20
192.489987
 30
0.0
 10
230.594526
 20
180.490003
 30
0.0
 10
230.594526
 20
161.490022
 30
0.0
 10
210.094551
 20
161.490022
 30
0.0
  0
LWPOLYLINE
  5
181
100
AcDbEntity
  8
cut.innerBottom1
 62
1
100
AcDbPolyline
 90
2
 70
0
 10
193.094575
 20
32.990182
 30
0.0
 10
208.094557
 20
32.990182
 30
0.0
  0
LWPOLYLINE
  5
182
100
AcDbEntity
  8
cut.innerBottom1
 62
1
100
AcDbPolyline
 90
2
 70
0
 10
386.594338
 20
130.490056
 30
0.0
 10
373.594362
 20
187.490001
 30
0.0
  0
SPLINE
  5
183
100
AcDbEntity
  8
cut.innerBottom1
 62
1
100
AcDbSpline
 70
8
 71
3
 72
8
 73
4
 74
0
 40
0
 40
0
 40
0
 40
0
 40
1
 40
1
 40
1
 40
1
 10
149.856532
 20
24.964687
 30
0.0
 10
149.856532
 20
30.964692
 30
0.0
 10
134.856543
 20
59.964647
 30
0.0
 10
89.856599
 20
69.964647
 30
0.0
  0
SPLINE
  5
184
100
AcDbEntity
  8
cut.innerBottom1
 62
1
100
AcDbSpline
 70
8
 71
3
 72
8
 73
4
 74
0
 40
0
 40
0
 40
0
 40
0
 40
1
 40
1
 40
1
 40
1
 10
89.856599
 20
69.964647
 30
0.0
 10
14.856691
 20
89.964620
 30
0.0
 10
9.856696
 20
74.964634
 30
0.0
 10
34.856665
 20
59.964647
 30
0.0
  0
SPLINE
  5
185
100
AcDbEntity
  8
cut.innerBottom1
 62
1
100
AcDbSpline
 70
8
 71
3
 72
8
 73
4
 74
0
 40
0
 40
0
 40
0
 40
0
 40
1
 40
1
 40
1
 40
1
 10
34.856665
 20
59.964647
 30
0.0
 10
49.856646
 20
49.964673
 30
0.0
 10
39.985649
 20
43.847722
 30
0.0
 10
50.170799
 20
36.005319
 30
0.0
  0
SPLINE
  5
186
100
AcDbEntity
  8
cut.innerBottom1
 62
1
100
AcDbSpline
 70
8
 71
3
 72
8
 73
4
 74
0
 40
0
 40
0
 40
0
 40
0
 40
1
 40
1
 40
1
 40
1
 10
50.170799
 20
36.005319
 30
0.0
 10
60.775808
 20
27.839621
 30
0.0
 10
99.856585
 20
-5.035261
 30
0.0
 10
114.856569
 20
21.600961
 30
0.0
  0
SPLINE
  5
187
100
AcDbEntity
  8
cut.innerBottom1
 62
1
100
AcDbSpline
 70
8
 71
3
 72
8
 73
4
 74
0
 40
0
 40
0
 40
0
 40
0
 40
1
 40
1
 40
1
 40
1
 10
114.856569
 20
21.600961
 30
0.0
 10
119.856564
 20
30.261192
 30
0.0
 10
149.856524
 20
14.964713
 30
0.0
 10
149.856532
 20
24.964687
 30
0.0
  0
SPLINE
  5
188
100
AcDbEntity
  8
cut.innerBottom1
 62
1
100
AcDbSpline
 70
8
 71
3
 72
8
 73
4
 74
0
 40
0
 40
0
 40
0
 40
0
 40
1
 40
1
 40
1
 40
1
 10
251.332594
 20
24.964687
 30
0.0
 10
251.332594
 20
30.964692
 30
0.0
 10
266.332586
 20
59.964647
 30
0.0
 10
311.332547
 20
69.964647
 30
0.0
  0
SPLINE
  5
189
100
AcDbEntity
  8
cut.innerBottom1
 62
1
100
AcDbSpline
 70
8
 71
3
 72
8
 73
4
 74
0
 40
0
 40
0
 40
0
 40
0
 40
1
 40
1
 40
1
 40
1
 10
311.332547
 20
69.964647
 30
0.0
 10
386.332454
 20
89.964620
 30
0.0
 10
391.332414
 20
74.964634
 30
0.0
 10
366.332480
 20
59.964647
 30
0.0
  0
SPLINE
  5
18a
100
AcDbEntity
  8
cut.innerBottom1
 62
1
100
AcDbSpline
 70
8
 71
3
 72
8
 73
4
 74
0
 40
0
 40
0
 40
0
 40
0
 40
1
 40
1
 40
1
 40
1
 10
366.332480
 20
59.964647
 30
0.0
 10
351.332494
 20
49.964673
 30
0.0
 10
361.203483
 20
43.847722
 30
0.0
 10
351.018328
 20
36.005319
 30
0.0
  0
SPLINE
  5
18b
100
AcDbEntity
  8
cut.innerBottom1
 62
1
100
AcDbSpline
 70
8
 71
3
 72
8
 73
4
 74
0
 40
0
 40
0
 40
0
 40
0
 40
1
 40
1
 40
1
 40
1
 10
351.018328
 20
36.005319
 30
0.0
 10
340.413332
 20
27.839621
 30
0.0
 10
301.332573
 20
-5.035261
 30
0.0
 10
286.332560
 20
21.600961
 30
0.0
  0
SPLINE
  5
18c
100
AcDbEntity
  8
cut.innerBottom1
 62
1
100
AcDbSpline
 70
8
 71
3
 72
8
 73
4
 74
0
 40
0
 40
0
 40
0
 40
0
 40
1
 40
1
 40
1
 40
1
 10
286.332560
 20
21.600961
 30
0.0
 10
281.332573
 20
30.261218
 30
0.0
 10
251.332594
 20
14.964713
 30
0.0
 10
251.332594
 20
24.964687
 30
0.0
  0
LWPOLYLINE
  5
18d
100
AcDbEntity
  8
cut.innerBottom1
 62
1
100
AcDbPolyline
 90
2
 70
0
 10
210.094551
 20
161.490022
 30
0.0
 10
210.094551
 20
159.490038
 30
0.0
  0
ENDSEC
  0
SECTION
  2
OBJECTS
  0
DICTIONARY
  5
C
330
0
100
AcDbDictionary
  3
ACAD_GROUP
350
D
  3
ACAD_MLINESTYLE
350
17
  0
DICTIONARY
  5
D
330
C
100
AcDbDictionary
  0
DICTIONARY
  5
1A
330
C
100
AcDbDictionary
  0
DICTIONARY
  5
17
330
C
100
AcDbDictionary
  3
STANDARD
350
18
  0
DICTIONARY
  5
19
330
C
100
AcDbDictionary
  0
ENDSEC
  0
EOF
