  0
SECTION
  2
HEADER
  9
$ACADVER
  1
AC1014
  9
$HANDSEED
  5
FFFF
  9
$MEASUREMENT
 70
     1
  0
ENDSEC
  0
SECTION
  2
TABLES
  0
TABLE
  2
VPORT
  5
8
330
0
100
AcDbSymbolTable
 70
     4
  0
VPORT
  5
2E
330
8
100
AcDbSymbolTableRecord
100
AcDbViewportTableRecord
  2
*ACTIVE
 70
     0
 10
0.0
 20
0.0
 11
1.0
 21
1.0
 12
210.0
 22
148.5
 13
0.0
 23
0.0
 14
10.0
 24
10.0
 15
10.0
 25
10.0
 16
0.0
 26
0.0
 36
1.0
 17
0.0
 27
0.0
 37
0.0
 40
341.0
 41
1.24
 42
50.0
 43
0.0
 44
0.0
 50
0.0
 51
0.0
 71
     0
 72
   100
 73
     1
 74
     3
 75
     0
 76
     0
 77
     0
 78
     0
  0
ENDTAB
  0
TABLE
  2
LTYPE
  5
5
330
0
100
AcDbSymbolTable
 70
     1
  0
LTYPE
  5
14
330
5
100
AcDbSymbolTableRecord
100
AcDbLinetypeTableRecord
  2
BYBLOCK
 70
     0
  3

 72
    65
 73
     0
 40
0.0
  0
LTYPE
  5
15
330
5
100
AcDbSymbolTableRecord
100
AcDbLinetypeTableRecord
  2
BYLAYER
 70
     0
  3

 72
    65
 73
     0
 40
0.0
  0
LTYPE
  5
16
330
5
100
AcDbSymbolTableRecord
100
AcDbLinetypeTableRecord
  2
CONTINUOUS
 70
     0
  3
Solid line
 72
    65
 73
     0
 40
0.0
  0
ENDTAB
  0
TABLE
  2
LAYER
  5
2
100
AcDbSymbolTable
 70
2
  0
LAYER
  5
50
100
AcDbSymbolTableRecord
100
AcDbLayerTableRecord
  2
0
 70
0
  6
CONTINUOUS
  0
LAYER
  5
51
100
AcDbSymbolTableRecord
100
AcDbLayerTableRecord
  2
cut.coverBottom
 70
0
  6
CONTINUOUS
  0
ENDTAB
  0
TABLE
  2
STYLE
  5
3
330
0
100
AcDbSymbolTable
 70
     1
  0
STYLE
  5
11
330
3
100
AcDbSymbolTableRecord
100
AcDbTextStyleTableRecord
  2
STANDARD
 70
     0
 40
0.0
 41
1.0
 50
0.0
 71
     0
 42
2.5
  3
txt
  4

  0
ENDTAB
  0
TABLE
  2
VIEW
  5
6
330
0
100
AcDbSymbolTable
 70
     0
  0
ENDTAB
  0
TABLE
  2
UCS
  5
7
330
0
100
AcDbSymbolTable
 70
     0
  0
ENDTAB
  0
TABLE
  2
APPID
  5
9
330
0
100
AcDbSymbolTable
 70
     2
  0
APPID
  5
12
330
9
100
AcDbSymbolTableRecord
100
AcDbRegAppTableRecord
  2
ACAD
 70
     0
  0
ENDTAB
  0
TABLE
  2
DIMSTYLE
  5
A
330
0
100
AcDbSymbolTable
 70
     1
  0
DIMSTYLE
105
27
330
A
100
AcDbSymbolTableRecord
100
AcDbDimStyleTableRecord
  2
ISO-25
 70
     0
  3

  4

  5

  6

  7

 40
1.0
 41
2.5
 42
0.625
 43
3.75
 44
1.25
 45
0.0
 46
0.0
 47
0.0
 48
0.0
140
2.5
141
2.5
142
0.0
143
0.03937007874016
144
1.0
145
0.0
146
1.0
147
0.625
 71
     0
 72
     0
 73
     0
 74
     0
 75
     0
 76
     0
 77
     1
 78
     8
170
     0
171
     3
172
     1
173
     0
174
     0
175
     0
176
     0
177
     0
178
     0
270
     2
271
     2
272
     2
273
     2
274
     3
340
11
275
     0
280
     0
281
     0
282
     0
283
     0
284
     8
285
     0
286
     0
287
     3
288
     0
  0
ENDTAB
  0
TABLE
  2
BLOCK_RECORD
  5
1
330
0
100
AcDbSymbolTable
 70
     1
  0
BLOCK_RECORD
  5
1F
330
1
100
AcDbSymbolTableRecord
100
AcDbBlockTableRecord
  2
*MODEL_SPACE
  0
BLOCK_RECORD
  5
1B
330
1
100
AcDbSymbolTableRecord
100
AcDbBlockTableRecord
  2
*PAPER_SPACE
  0
ENDTAB
  0
ENDSEC
  0
SECTION
  2
BLOCKS
  0
BLOCK
  5
20
330
1F
100
AcDbEntity
  8
0
100
AcDbBlockBegin
  2
*MODEL_SPACE
 70
     0
 10
0.0
 20
0.0
 30
0.0
  3
*MODEL_SPACE
  1

  0
ENDBLK
  5
21
330
1F
100
AcDbEntity
  8
0
100
AcDbBlockEnd
  0
BLOCK
  5
1C
330
1B
100
AcDbEntity
 67
     1
  8
0
100
AcDbBlockBegin
  2
*PAPER_SPACE
  1

  0
ENDBLK
  5
1D
330
1B
100
AcDbEntity
 67
     1
  8
0
100
AcDbBlockEnd
  0
ENDSEC
  0
SECTION
  2
ENTITIES
  0
SPLINE
  5
100
100
AcDbEntity
  8
cut.coverBottom
 62
1
100
AcDbSpline
 70
8
 71
3
 72
8
 73
4
 74
0
 40
0
 40
0
 40
0
 40
0
 40
1
 40
1
 40
1
 40
1
 10
18.517261
 20
107.235003
 30
0.0
 10
18.517261
 20
106.351348
 30
0.0
 10
17.800918
 20
105.634989
 30
0.0
 10
16.917264
 20
105.634989
 30
0.0
  0
SPLINE
  5
101
100
AcDbEntity
  8
cut.coverBottom
 62
1
100
AcDbSpline
 70
8
 71
3
 72
8
 73
4
 74
0
 40
0
 40
0
 40
0
 40
0
 40
1
 40
1
 40
1
 40
1
 10
16.917264
 20
105.634989
 30
0.0
 10
16.033609
 20
105.634989
 30
0.0
 10
15.317265
 20
106.351348
 30
0.0
 10
15.317265
 20
107.235003
 30
0.0
  0
SPLINE
  5
102
100
AcDbEntity
  8
cut.coverBottom
 62
1
100
AcDbSpline
 70
8
 71
3
 72
8
 73
4
 74
0
 40
0
 40
0
 40
0
 40
0
 40
1
 40
1
 40
1
 40
1
 10
15.317265
 20
107.235003
 30
0.0
 10
15.317265
 20
108.118658
 30
0.0
 10
16.033609
 20
108.834991
 30
0.0
 10
16.917264
 20
108.834991
 30
0.0
  0
SPLINE
  5
103
100
AcDbEntity
  8
cut.coverBottom
 62
1
100
AcDbSpline
 70
8
 71
3
 72
8
 73
4
 74
0
 40
0
 40
0
 40
0
 40
0
 40
1
 40
1
 40
1
 40
1
 10
16.917264
 20
108.834991
 30
0.0
 10
17.800918
 20
108.834991
 30
0.0
 10
18.517261
 20
108.118658
 30
0.0
 10
18.517261
 20
107.235003
 30
0.0
  0
SPLINE
  5
104
100
AcDbEntity
  8
cut.coverBottom
 62
1
100
AcDbSpline
 70
8
 71
3
 72
8
 73
4
 74
0
 40
0
 40
0
 40
0
 40
0
 40
1
 40
1
 40
1
 40
1
 10
61.517210
 20
187.234900
 30
0.0
 10
61.517210
 20
186.351245
 30
0.0
 10
60.800867
 20
185.634912
 30
0.0
 10
59.917212
 20
185.634912
 30
0.0
  0
SPLINE
  5
105
100
AcDbEntity
  8
cut.coverBottom
 62
1
100
AcDbSpline
 70
8
 71
3
 72
8
 73
4
 74
0
 40
0
 40
0
 40
0
 40
0
 40
1
 40
1
 40
1
 40
1
 10
59.917212
 20
185.634912
 30
0.0
 10
59.033557
 20
185.634912
 30
0.0
 10
58.317214
 20
186.351245
 30
0.0
 10
58.317214
 20
187.234900
 30
0.0
  0
SPLINE
  5
106
100
AcDbEntity
  8
cut.coverBottom
 62
1
100
AcDbSpline
 70
8
 71
3
 72
8
 73
4
 74
0
 40
0
 40
0
 40
0
 40
0
 40
1
 40
1
 40
1
 40
1
 10
58.317214
 20
187.234900
 30
0.0
 10
58.317214
 20
188.118554
 30
0.0
 10
59.033557
 20
188.834913
 30
0.0
 10
59.917212
 20
188.834913
 30
0.0
  0
SPLINE
  5
107
100
AcDbEntity
  8
cut.coverBottom
 62
1
100
AcDbSpline
 70
8
 71
3
 72
8
 73
4
 74
0
 40
0
 40
0
 40
0
 40
0
 40
1
 40
1
 40
1
 40
1
 10
59.917212
 20
188.834913
 30
0.0
 10
60.800867
 20
188.834913
 30
0.0
 10
61.517210
 20
188.118554
 30
0.0
 10
61.517210
 20
187.234900
 30
0.0
  0
SPLINE
  5
108
100
AcDbEntity
  8
cut.coverBottom
 62
1
100
AcDbSpline
 70
8
 71
3
 72
8
 73
4
 74
0
 40
0
 40
0
 40
0
 40
0
 40
1
 40
1
 40
1
 40
1
 10
341.516882
 20
187.234900
 30
0.0
 10
341.516882
 20
186.351245
 30
0.0
 10
340.800549
 20
185.634912
 30
0.0
 10
339.916894
 20
185.634912
 30
0.0
  0
SPLINE
  5
109
100
AcDbEntity
  8
cut.coverBottom
 62
1
100
AcDbSpline
 70
8
 71
3
 72
8
 73
4
 74
0
 40
0
 40
0
 40
0
 40
0
 40
1
 40
1
 40
1
 40
1
 10
339.916894
 20
185.634912
 30
0.0
 10
339.492556
 20
185.634912
 30
0.0
 10
339.085574
 20
185.803478
 30
0.0
 10
338.785510
 20
186.103515
 30
0.0
  0
SPLINE
  5
10a
100
AcDbEntity
  8
cut.coverBottom
 62
1
100
AcDbSpline
 70
8
 71
3
 72
8
 73
4
 74
0
 40
0
 40
0
 40
0
 40
0
 40
1
 40
1
 40
1
 40
1
 10
338.785510
 20
186.103515
 30
0.0
 10
338.485447
 20
186.403579
 30
0.0
 10
338.316881
 20
186.810561
 30
0.0
 10
338.316881
 20
187.234900
 30
0.0
  0
SPLINE
  5
10b
100
AcDbEntity
  8
cut.coverBottom
 62
1
100
AcDbSpline
 70
8
 71
3
 72
8
 73
4
 74
0
 40
0
 40
0
 40
0
 40
0
 40
1
 40
1
 40
1
 40
1
 10
338.316881
 20
187.234900
 30
0.0
 10
338.316881
 20
187.659264
 30
0.0
 10
338.485447
 20
188.066220
 30
0.0
 10
338.785510
 20
188.366284
 30
0.0
  0
SPLINE
  5
10c
100
AcDbEntity
  8
cut.coverBottom
 62
1
100
AcDbSpline
 70
8
 71
3
 72
8
 73
4
 74
0
 40
0
 40
0
 40
0
 40
0
 40
1
 40
1
 40
1
 40
1
 10
338.785510
 20
188.366284
 30
0.0
 10
339.085574
 20
188.666347
 30
0.0
 10
339.492556
 20
188.834913
 30
0.0
 10
339.916894
 20
188.834913
 30
0.0
  0
SPLINE
  5
10d
100
AcDbEntity
  8
cut.coverBottom
 62
1
100
AcDbSpline
 70
8
 71
3
 72
8
 73
4
 74
0
 40
0
 40
0
 40
0
 40
0
 40
1
 40
1
 40
1
 40
1
 10
339.916894
 20
188.834913
 30
0.0
 10
340.800549
 20
188.834913
 30
0.0
 10
341.516882
 20
188.118554
 30
0.0
 10
341.516882
 20
187.234900
 30
0.0
  0
SPLINE
  5
10e
100
AcDbEntity
  8
cut.coverBottom
 62
1
100
AcDbSpline
 70
8
 71
3
 72
8
 73
4
 74
0
 40
0
 40
0
 40
0
 40
0
 40
1
 40
1
 40
1
 40
1
 10
236.516990
 20
165.234940
 30
0.0
 10
236.516988
 20
164.351285
 30
0.0
 10
235.800647
 20
163.634926
 30
0.0
 10
234.916992
 20
163.634926
 30
0.0
  0
SPLINE
  5
10f
100
AcDbEntity
  8
cut.coverBottom
 62
1
100
AcDbSpline
 70
8
 71
3
 72
8
 73
4
 74
0
 40
0
 40
0
 40
0
 40
0
 40
1
 40
1
 40
1
 40
1
 10
234.916992
 20
163.634926
 30
0.0
 10
234.492646
 20
163.634926
 30
0.0
 10
234.085680
 20
163.803492
 30
0.0
 10
233.785621
 20
164.103556
 30
0.0
  0
SPLINE
  5
110
100
AcDbEntity
  8
cut.coverBottom
 62
1
100
AcDbSpline
 70
8
 71
3
 72
8
 73
4
 74
0
 40
0
 40
0
 40
0
 40
0
 40
1
 40
1
 40
1
 40
1
 10
233.785621
 20
164.103556
 30
0.0
 10
233.485563
 20
164.403619
 30
0.0
 10
233.316992
 20
164.810575
 30
0.0
 10
233.316992
 20
165.234940
 30
0.0
  0
SPLINE
  5
111
100
AcDbEntity
  8
cut.coverBottom
 62
1
100
AcDbSpline
 70
8
 71
3
 72
8
 73
4
 74
0
 40
0
 40
0
 40
0
 40
0
 40
1
 40
1
 40
1
 40
1
 10
233.316992
 20
165.234940
 30
0.0
 10
233.316992
 20
165.659278
 30
0.0
 10
233.485563
 20
166.066234
 30
0.0
 10
233.785621
 20
166.366297
 30
0.0
  0
SPLINE
  5
112
100
AcDbEntity
  8
cut.coverBottom
 62
1
100
AcDbSpline
 70
8
 71
3
 72
8
 73
4
 74
0
 40
0
 40
0
 40
0
 40
0
 40
1
 40
1
 40
1
 40
1
 10
233.785621
 20
166.366297
 30
0.0
 10
234.085680
 20
166.666361
 30
0.0
 10
234.492646
 20
166.834927
 30
0.0
 10
234.916992
 20
166.834927
 30
0.0
  0
SPLINE
  5
113
100
AcDbEntity
  8
cut.coverBottom
 62
1
100
AcDbSpline
 70
8
 71
3
 72
8
 73
4
 74
0
 40
0
 40
0
 40
0
 40
0
 40
1
 40
1
 40
1
 40
1
 10
234.916992
 20
166.834927
 30
0.0
 10
235.341339
 20
166.834927
 30
0.0
 10
235.748305
 20
166.666361
 30
0.0
 10
236.048363
 20
166.366297
 30
0.0
  0
SPLINE
  5
114
100
AcDbEntity
  8
cut.coverBottom
 62
1
100
AcDbSpline
 70
8
 71
3
 72
8
 73
4
 74
0
 40
0
 40
0
 40
0
 40
0
 40
1
 40
1
 40
1
 40
1
 10
236.048363
 20
166.366297
 30
0.0
 10
236.348419
 20
166.066234
 30
0.0
 10
236.516990
 20
165.659278
 30
0.0
 10
236.516990
 20
165.234940
 30
0.0
  0
SPLINE
  5
115
100
AcDbEntity
  8
cut.coverBottom
 62
1
100
AcDbSpline
 70
8
 71
3
 72
8
 73
4
 74
0
 40
0
 40
0
 40
0
 40
0
 40
1
 40
1
 40
1
 40
1
 10
166.517083
 20
165.234940
 30
0.0
 10
166.517083
 20
164.351285
 30
0.0
 10
165.800740
 20
163.634926
 30
0.0
 10
164.917085
 20
163.634926
 30
0.0
  0
SPLINE
  5
116
100
AcDbEntity
  8
cut.coverBottom
 62
1
100
AcDbSpline
 70
8
 71
3
 72
8
 73
4
 74
0
 40
0
 40
0
 40
0
 40
0
 40
1
 40
1
 40
1
 40
1
 10
164.917085
 20
163.634926
 30
0.0
 10
164.033433
 20
163.634926
 30
0.0
 10
163.317087
 20
164.351285
 30
0.0
 10
163.317087
 20
165.234940
 30
0.0
  0
SPLINE
  5
117
100
AcDbEntity
  8
cut.coverBottom
 62
1
100
AcDbSpline
 70
8
 71
3
 72
8
 73
4
 74
0
 40
0
 40
0
 40
0
 40
0
 40
1
 40
1
 40
1
 40
1
 10
163.317087
 20
165.234940
 30
0.0
 10
163.317087
 20
165.659278
 30
0.0
 10
163.485658
 20
166.066234
 30
0.0
 10
163.785714
 20
166.366297
 30
0.0
  0
SPLINE
  5
118
100
AcDbEntity
  8
cut.coverBottom
 62
1
100
AcDbSpline
 70
8
 71
3
 72
8
 73
4
 74
0
 40
0
 40
0
 40
0
 40
0
 40
1
 40
1
 40
1
 40
1
 10
163.785714
 20
166.366297
 30
0.0
 10
164.085773
 20
166.666361
 30
0.0
 10
164.492739
 20
166.834927
 30
0.0
 10
164.917085
 20
166.834927
 30
0.0
  0
SPLINE
  5
119
100
AcDbEntity
  8
cut.coverBottom
 62
1
100
AcDbSpline
 70
8
 71
3
 72
8
 73
4
 74
0
 40
0
 40
0
 40
0
 40
0
 40
1
 40
1
 40
1
 40
1
 10
164.917085
 20
166.834927
 30
0.0
 10
165.341431
 20
166.834927
 30
0.0
 10
165.748397
 20
166.666361
 30
0.0
 10
166.048456
 20
166.366297
 30
0.0
  0
SPLINE
  5
11a
100
AcDbEntity
  8
cut.coverBottom
 62
1
100
AcDbSpline
 70
8
 71
3
 72
8
 73
4
 74
0
 40
0
 40
0
 40
0
 40
0
 40
1
 40
1
 40
1
 40
1
 10
166.048456
 20
166.366297
 30
0.0
 10
166.348514
 20
166.066234
 30
0.0
 10
166.517083
 20
165.659278
 30
0.0
 10
166.517083
 20
165.234940
 30
0.0
  0
SPLINE
  5
11b
100
AcDbEntity
  8
cut.coverBottom
 62
1
100
AcDbSpline
 70
8
 71
3
 72
8
 73
4
 74
0
 40
0
 40
0
 40
0
 40
0
 40
1
 40
1
 40
1
 40
1
 10
201.517043
 20
42.235069
 30
0.0
 10
201.517043
 20
41.810731
 30
0.0
 10
201.348472
 20
41.403776
 30
0.0
 10
201.048413
 20
41.103712
 30
0.0
  0
SPLINE
  5
11c
100
AcDbEntity
  8
cut.coverBottom
 62
1
100
AcDbSpline
 70
8
 71
3
 72
8
 73
4
 74
0
 40
0
 40
0
 40
0
 40
0
 40
1
 40
1
 40
1
 40
1
 10
201.048413
 20
41.103712
 30
0.0
 10
200.748355
 20
40.803648
 30
0.0
 10
200.341389
 20
40.635082
 30
0.0
 10
199.917043
 20
40.635082
 30
0.0
  0
SPLINE
  5
11d
100
AcDbEntity
  8
cut.coverBottom
 62
1
100
AcDbSpline
 70
8
 71
3
 72
8
 73
4
 74
0
 40
0
 40
0
 40
0
 40
0
 40
1
 40
1
 40
1
 40
1
 10
199.917043
 20
40.635082
 30
0.0
 10
199.033388
 20
40.635082
 30
0.0
 10
198.317045
 20
41.351415
 30
0.0
 10
198.317045
 20
42.235069
 30
0.0
  0
SPLINE
  5
11e
100
AcDbEntity
  8
cut.coverBottom
 62
1
100
AcDbSpline
 70
8
 71
3
 72
8
 73
4
 74
0
 40
0
 40
0
 40
0
 40
0
 40
1
 40
1
 40
1
 40
1
 10
198.317045
 20
42.235069
 30
0.0
 10
198.317045
 20
43.118724
 30
0.0
 10
199.033388
 20
43.835083
 30
0.0
 10
199.917043
 20
43.835083
 30
0.0
  0
SPLINE
  5
11f
100
AcDbEntity
  8
cut.coverBottom
 62
1
100
AcDbSpline
 70
8
 71
3
 72
8
 73
4
 74
0
 40
0
 40
0
 40
0
 40
0
 40
1
 40
1
 40
1
 40
1
 10
199.917043
 20
43.835083
 30
0.0
 10
200.341389
 20
43.835083
 30
0.0
 10
200.748355
 20
43.666517
 30
0.0
 10
201.048413
 20
43.366453
 30
0.0
  0
SPLINE
  5
120
100
AcDbEntity
  8
cut.coverBottom
 62
1
100
AcDbSpline
 70
8
 71
3
 72
8
 73
4
 74
0
 40
0
 40
0
 40
0
 40
0
 40
1
 40
1
 40
1
 40
1
 10
201.048413
 20
43.366453
 30
0.0
 10
201.348472
 20
43.066390
 30
0.0
 10
201.517043
 20
42.659434
 30
0.0
 10
201.517043
 20
42.235069
 30
0.0
  0
SPLINE
  5
121
100
AcDbEntity
  8
cut.coverBottom
 62
1
100
AcDbSpline
 70
8
 71
3
 72
8
 73
4
 74
0
 40
0
 40
0
 40
0
 40
0
 40
1
 40
1
 40
1
 40
1
 10
384.516858
 20
107.235003
 30
0.0
 10
384.516858
 20
106.351348
 30
0.0
 10
383.800499
 20
105.635016
 30
0.0
 10
382.916871
 20
105.634989
 30
0.0
  0
SPLINE
  5
122
100
AcDbEntity
  8
cut.coverBottom
 62
1
100
AcDbSpline
 70
8
 71
3
 72
8
 73
4
 74
0
 40
0
 40
0
 40
0
 40
0
 40
1
 40
1
 40
1
 40
1
 10
382.916871
 20
105.634989
 30
0.0
 10
382.492506
 20
105.634989
 30
0.0
 10
382.085550
 20
105.803555
 30
0.0
 10
381.785487
 20
106.103619
 30
0.0
  0
SPLINE
  5
123
100
AcDbEntity
  8
cut.coverBottom
 62
1
100
AcDbSpline
 70
8
 71
3
 72
8
 73
4
 74
0
 40
0
 40
0
 40
0
 40
0
 40
1
 40
1
 40
1
 40
1
 10
381.785487
 20
106.103619
 30
0.0
 10
381.485423
 20
106.403683
 30
0.0
 10
381.316830
 20
106.810638
 30
0.0
 10
381.316830
 20
107.235003
 30
0.0
  0
SPLINE
  5
124
100
AcDbEntity
  8
cut.coverBottom
 62
1
100
AcDbSpline
 70
8
 71
3
 72
8
 73
4
 74
0
 40
0
 40
0
 40
0
 40
0
 40
1
 40
1
 40
1
 40
1
 10
381.316830
 20
107.235003
 30
0.0
 10
381.316830
 20
107.659342
 30
0.0
 10
381.485423
 20
108.066324
 30
0.0
 10
381.785487
 20
108.366387
 30
0.0
  0
SPLINE
  5
125
100
AcDbEntity
  8
cut.coverBottom
 62
1
100
AcDbSpline
 70
8
 71
3
 72
8
 73
4
 74
0
 40
0
 40
0
 40
0
 40
0
 40
1
 40
1
 40
1
 40
1
 10
381.785487
 20
108.366387
 30
0.0
 10
382.085550
 20
108.666425
 30
0.0
 10
382.492506
 20
108.834991
 30
0.0
 10
382.916871
 20
108.834991
 30
0.0
  0
SPLINE
  5
126
100
AcDbEntity
  8
cut.coverBottom
 62
1
100
AcDbSpline
 70
8
 71
3
 72
8
 73
4
 74
0
 40
0
 40
0
 40
0
 40
0
 40
1
 40
1
 40
1
 40
1
 10
382.916871
 20
108.834991
 30
0.0
 10
383.800499
 20
108.834991
 30
0.0
 10
384.516858
 20
108.118658
 30
0.0
 10
384.516858
 20
107.235003
 30
0.0
  0
SPLINE
  5
127
100
AcDbEntity
  8
cut.coverBottom
 62
1
100
AcDbSpline
 70
8
 71
3
 72
8
 73
4
 74
0
 40
0
 40
0
 40
0
 40
0
 40
1
 40
1
 40
1
 40
1
 10
371.516829
 20
57.235056
 30
0.0
 10
371.516829
 20
56.351401
 30
0.0
 10
370.800470
 20
55.635069
 30
0.0
 10
369.916815
 20
55.635069
 30
0.0
  0
SPLINE
  5
128
100
AcDbEntity
  8
cut.coverBottom
 62
1
100
AcDbSpline
 70
8
 71
3
 72
8
 73
4
 74
0
 40
0
 40
0
 40
0
 40
0
 40
1
 40
1
 40
1
 40
1
 10
369.916815
 20
55.635069
 30
0.0
 10
369.033160
 20
55.635069
 30
0.0
 10
368.316828
 20
56.351401
 30
0.0
 10
368.316828
 20
57.235056
 30
0.0
  0
SPLINE
  5
129
100
AcDbEntity
  8
cut.coverBottom
 62
1
100
AcDbSpline
 70
8
 71
3
 72
8
 73
4
 74
0
 40
0
 40
0
 40
0
 40
0
 40
1
 40
1
 40
1
 40
1
 10
368.316828
 20
57.235056
 30
0.0
 10
368.316828
 20
58.118711
 30
0.0
 10
369.033160
 20
58.835043
 30
0.0
 10
369.916815
 20
58.835070
 30
0.0
  0
SPLINE
  5
12a
100
AcDbEntity
  8
cut.coverBottom
 62
1
100
AcDbSpline
 70
8
 71
3
 72
8
 73
4
 74
0
 40
0
 40
0
 40
0
 40
0
 40
1
 40
1
 40
1
 40
1
 10
369.916815
 20
58.835070
 30
0.0
 10
370.800470
 20
58.835043
 30
0.0
 10
371.516829
 20
58.118711
 30
0.0
 10
371.516829
 20
57.235056
 30
0.0
  0
SPLINE
  5
12b
100
AcDbEntity
  8
cut.coverBottom
 62
1
100
AcDbSpline
 70
8
 71
3
 72
8
 73
4
 74
0
 40
0
 40
0
 40
0
 40
0
 40
1
 40
1
 40
1
 40
1
 10
271.516961
 20
17.235109
 30
0.0
 10
271.516961
 20
16.351454
 30
0.0
 10
270.800629
 20
15.635122
 30
0.0
 10
269.916974
 20
15.635122
 30
0.0
  0
SPLINE
  5
12c
100
AcDbEntity
  8
cut.coverBottom
 62
1
100
AcDbSpline
 70
8
 71
3
 72
8
 73
4
 74
0
 40
0
 40
0
 40
0
 40
0
 40
1
 40
1
 40
1
 40
1
 10
269.916974
 20
15.635122
 30
0.0
 10
269.033319
 20
15.635122
 30
0.0
 10
268.316960
 20
16.351454
 30
0.0
 10
268.316960
 20
17.235109
 30
0.0
  0
SPLINE
  5
12d
100
AcDbEntity
  8
cut.coverBottom
 62
1
100
AcDbSpline
 70
8
 71
3
 72
8
 73
4
 74
0
 40
0
 40
0
 40
0
 40
0
 40
1
 40
1
 40
1
 40
1
 10
268.316960
 20
17.235109
 30
0.0
 10
268.316960
 20
18.118764
 30
0.0
 10
269.033319
 20
18.835123
 30
0.0
 10
269.916974
 20
18.835123
 30
0.0
  0
SPLINE
  5
12e
100
AcDbEntity
  8
cut.coverBottom
 62
1
100
AcDbSpline
 70
8
 71
3
 72
8
 73
4
 74
0
 40
0
 40
0
 40
0
 40
0
 40
1
 40
1
 40
1
 40
1
 10
269.916974
 20
18.835123
 30
0.0
 10
270.800629
 20
18.835123
 30
0.0
 10
271.516961
 20
18.118764
 30
0.0
 10
271.516961
 20
17.235109
 30
0.0
  0
SPLINE
  5
12f
100
AcDbEntity
  8
cut.coverBottom
 62
1
100
AcDbSpline
 70
8
 71
3
 72
8
 73
4
 74
0
 40
0
 40
0
 40
0
 40
0
 40
1
 40
1
 40
1
 40
1
 10
131.517125
 20
17.235109
 30
0.0
 10
131.517125
 20
16.351454
 30
0.0
 10
130.800782
 20
15.635122
 30
0.0
 10
129.917127
 20
15.635122
 30
0.0
  0
SPLINE
  5
130
100
AcDbEntity
  8
cut.coverBottom
 62
1
100
AcDbSpline
 70
8
 71
3
 72
8
 73
4
 74
0
 40
0
 40
0
 40
0
 40
0
 40
1
 40
1
 40
1
 40
1
 10
129.917127
 20
15.635122
 30
0.0
 10
129.492783
 20
15.635122
 30
0.0
 10
129.085815
 20
15.803688
 30
0.0
 10
128.785759
 20
16.103725
 30
0.0
  0
SPLINE
  5
131
100
AcDbEntity
  8
cut.coverBottom
 62
1
100
AcDbSpline
 70
8
 71
3
 72
8
 73
4
 74
0
 40
0
 40
0
 40
0
 40
0
 40
1
 40
1
 40
1
 40
1
 10
128.785759
 20
16.103725
 30
0.0
 10
128.485698
 20
16.403789
 30
0.0
 10
128.317129
 20
16.810771
 30
0.0
 10
128.317129
 20
17.235109
 30
0.0
  0
SPLINE
  5
132
100
AcDbEntity
  8
cut.coverBottom
 62
1
100
AcDbSpline
 70
8
 71
3
 72
8
 73
4
 74
0
 40
0
 40
0
 40
0
 40
0
 40
1
 40
1
 40
1
 40
1
 10
128.317129
 20
17.235109
 30
0.0
 10
128.317127
 20
17.659448
 30
0.0
 10
128.485698
 20
18.066429
 30
0.0
 10
128.785756
 20
18.366467
 30
0.0
  0
SPLINE
  5
133
100
AcDbEntity
  8
cut.coverBottom
 62
1
100
AcDbSpline
 70
8
 71
3
 72
8
 73
4
 74
0
 40
0
 40
0
 40
0
 40
0
 40
1
 40
1
 40
1
 40
1
 10
128.785756
 20
18.366467
 30
0.0
 10
129.085815
 20
18.666530
 30
0.0
 10
129.492781
 20
18.835096
 30
0.0
 10
129.917127
 20
18.835096
 30
0.0
  0
SPLINE
  5
134
100
AcDbEntity
  8
cut.coverBottom
 62
1
100
AcDbSpline
 70
8
 71
3
 72
8
 73
4
 74
0
 40
0
 40
0
 40
0
 40
0
 40
1
 40
1
 40
1
 40
1
 10
129.917127
 20
18.835096
 30
0.0
 10
130.341474
 20
18.835096
 30
0.0
 10
130.748440
 20
18.666530
 30
0.0
 10
131.048498
 20
18.366467
 30
0.0
  0
SPLINE
  5
135
100
AcDbEntity
  8
cut.coverBottom
 62
1
100
AcDbSpline
 70
8
 71
3
 72
8
 73
4
 74
0
 40
0
 40
0
 40
0
 40
0
 40
1
 40
1
 40
1
 40
1
 10
131.048498
 20
18.366467
 30
0.0
 10
131.348557
 20
18.066429
 30
0.0
 10
131.517125
 20
17.659448
 30
0.0
 10
131.517125
 20
17.235109
 30
0.0
  0
SPLINE
  5
136
100
AcDbEntity
  8
cut.coverBottom
 62
1
100
AcDbSpline
 70
8
 71
3
 72
8
 73
4
 74
0
 40
0
 40
0
 40
0
 40
0
 40
1
 40
1
 40
1
 40
1
 10
31.517247
 20
57.235056
 30
0.0
 10
31.517247
 20
56.810718
 30
0.0
 10
31.348676
 20
56.403736
 30
0.0
 10
31.048617
 20
56.103699
 30
0.0
  0
SPLINE
  5
137
100
AcDbEntity
  8
cut.coverBottom
 62
1
100
AcDbSpline
 70
8
 71
3
 72
8
 73
4
 74
0
 40
0
 40
0
 40
0
 40
0
 40
1
 40
1
 40
1
 40
1
 10
31.048617
 20
56.103699
 30
0.0
 10
30.748559
 20
55.803635
 30
0.0
 10
30.341593
 20
55.635069
 30
0.0
 10
29.917246
 20
55.635069
 30
0.0
  0
SPLINE
  5
138
100
AcDbEntity
  8
cut.coverBottom
 62
1
100
AcDbSpline
 70
8
 71
3
 72
8
 73
4
 74
0
 40
0
 40
0
 40
0
 40
0
 40
1
 40
1
 40
1
 40
1
 10
29.917246
 20
55.635069
 30
0.0
 10
29.492900
 20
55.635069
 30
0.0
 10
29.085934
 20
55.803635
 30
0.0
 10
28.785875
 20
56.103699
 30
0.0
  0
SPLINE
  5
139
100
AcDbEntity
  8
cut.coverBottom
 62
1
100
AcDbSpline
 70
8
 71
3
 72
8
 73
4
 74
0
 40
0
 40
0
 40
0
 40
0
 40
1
 40
1
 40
1
 40
1
 10
28.785875
 20
56.103699
 30
0.0
 10
28.485820
 20
56.403736
 30
0.0
 10
28.317248
 20
56.810718
 30
0.0
 10
28.317248
 20
57.235056
 30
0.0
  0
SPLINE
  5
13a
100
AcDbEntity
  8
cut.coverBottom
 62
1
100
AcDbSpline
 70
8
 71
3
 72
8
 73
4
 74
0
 40
0
 40
0
 40
0
 40
0
 40
1
 40
1
 40
1
 40
1
 10
28.317248
 20
57.235056
 30
0.0
 10
28.317248
 20
58.118711
 30
0.0
 10
29.033591
 20
58.835070
 30
0.0
 10
29.917246
 20
58.835070
 30
0.0
  0
SPLINE
  5
13b
100
AcDbEntity
  8
cut.coverBottom
 62
1
100
AcDbSpline
 70
8
 71
3
 72
8
 73
4
 74
0
 40
0
 40
0
 40
0
 40
0
 40
1
 40
1
 40
1
 40
1
 10
29.917246
 20
58.835070
 30
0.0
 10
30.341593
 20
58.835070
 30
0.0
 10
30.748559
 20
58.666478
 30
0.0
 10
31.048617
 20
58.366440
 30
0.0
  0
SPLINE
  5
13c
100
AcDbEntity
  8
cut.coverBottom
 62
1
100
AcDbSpline
 70
8
 71
3
 72
8
 73
4
 74
0
 40
0
 40
0
 40
0
 40
0
 40
1
 40
1
 40
1
 40
1
 10
31.048617
 20
58.366440
 30
0.0
 10
31.348676
 20
58.066376
 30
0.0
 10
31.517247
 20
57.659395
 30
0.0
 10
31.517247
 20
57.235056
 30
0.0
  0
SPLINE
  5
13d
100
AcDbEntity
  8
cut.coverBottom
 62
1
100
AcDbSpline
 70
8
 71
3
 72
8
 73
4
 74
0
 40
0
 40
0
 40
0
 40
0
 40
1
 40
1
 40
1
 40
1
 10
14.209060
 20
132.234964
 30
0.0
 10
11.917270
 20
122.234990
 30
0.0
 10
9.917272
 20
112.234990
 30
0.0
 10
9.917272
 20
102.235016
 30
0.0
  0
SPLINE
  5
13e
100
AcDbEntity
  8
cut.coverBottom
 62
1
100
AcDbSpline
 70
8
 71
3
 72
8
 73
4
 74
0
 40
0
 40
0
 40
0
 40
0
 40
1
 40
1
 40
1
 40
1
 10
9.917272
 20
102.235016
 30
0.0
 10
9.917265
 20
50.872572
 30
0.0
 10
51.704511
 20
7.384969
 30
0.0
 10
103.066940
 20
7.384995
 30
0.0
  0
SPLINE
  5
13f
100
AcDbEntity
  8
cut.coverBottom
 62
1
100
AcDbSpline
 70
8
 71
3
 72
8
 73
4
 74
0
 40
0
 40
0
 40
0
 40
0
 40
1
 40
1
 40
1
 40
1
 10
103.066940
 20
7.384995
 30
0.0
 10
154.429371
 20
7.384969
 30
0.0
 10
164.917085
 20
34.735089
 30
0.0
 10
192.417055
 20
34.735089
 30
0.0
  0
SPLINE
  5
140
100
AcDbEntity
  8
cut.coverBottom
 62
1
100
AcDbSpline
 70
8
 71
3
 72
8
 73
4
 74
0
 40
0
 40
0
 40
0
 40
0
 40
1
 40
1
 40
1
 40
1
 10
207.417036
 20
34.735089
 30
0.0
 10
234.917003
 20
34.735089
 30
0.0
 10
245.404603
 20
7.384995
 30
0.0
 10
296.767032
 20
7.384995
 30
0.0
  0
SPLINE
  5
141
100
AcDbEntity
  8
cut.coverBottom
 62
1
100
AcDbSpline
 70
8
 71
3
 72
8
 73
4
 74
0
 40
0
 40
0
 40
0
 40
0
 40
1
 40
1
 40
1
 40
1
 10
296.767032
 20
7.384995
 30
0.0
 10
348.129450
 20
7.384969
 30
0.0
 10
389.916842
 20
50.872572
 30
0.0
 10
389.916842
 20
102.235016
 30
0.0
  0
SPLINE
  5
142
100
AcDbEntity
  8
cut.coverBottom
 62
1
100
AcDbSpline
 70
8
 71
3
 72
8
 73
4
 74
0
 40
0
 40
0
 40
0
 40
0
 40
1
 40
1
 40
1
 40
1
 10
389.916842
 20
102.235016
 30
0.0
 10
389.916842
 20
112.234990
 30
0.0
 10
387.916831
 20
122.234990
 30
0.0
 10
385.916847
 20
132.234964
 30
0.0
  0
LWPOLYLINE
  5
143
100
AcDbEntity
  8
cut.coverBottom
 62
1
100
AcDbPolyline
 90
2
 70
0
 10
26.917252
 20
189.234910
 30
0.0
 10
14.209060
 20
132.234964
 30
0.0
  0
SPLINE
  5
144
100
AcDbEntity
  8
cut.coverBottom
 62
1
100
AcDbSpline
 70
8
 71
3
 72
8
 73
4
 74
0
 40
0
 40
0
 40
0
 40
0
 40
1
 40
1
 40
1
 40
1
 10
372.916844
 20
189.234910
 30
0.0
 10
371.916852
 20
194.234897
 30
0.0
 10
368.916849
 20
194.234897
 30
0.0
 10
364.916855
 20
194.234897
 30
0.0
  0
SPLINE
  5
145
100
AcDbEntity
  8
cut.coverBottom
 62
1
100
AcDbSpline
 70
8
 71
3
 72
8
 73
4
 74
0
 40
0
 40
0
 40
0
 40
0
 40
1
 40
1
 40
1
 40
1
 10
364.916855
 20
194.234897
 30
0.0
 10
229.917006
 20
182.234913
 30
0.0
 10
229.917006
 20
163.234929
 30
0.0
 10
209.417031
 20
163.234929
 30
0.0
  0
LWPOLYLINE
  5
146
100
AcDbEntity
  8
cut.coverBottom
 62
1
100
AcDbPolyline
 90
2
 70
0
 10
192.417055
 20
34.735089
 30
0.0
 10
207.417036
 20
34.735089
 30
0.0
  0
SPLINE
  5
147
100
AcDbEntity
  8
cut.coverBottom
 62
1
100
AcDbSpline
 70
8
 71
3
 72
8
 73
4
 74
0
 40
0
 40
0
 40
0
 40
0
 40
1
 40
1
 40
1
 40
1
 10
190.417055
 20
163.234929
 30
0.0
 10
169.917077
 20
163.234929
 30
0.0
 10
169.917077
 20
182.234913
 30
0.0
 10
34.917241
 20
194.234897
 30
0.0
  0
SPLINE
  5
148
100
AcDbEntity
  8
cut.coverBottom
 62
1
100
AcDbSpline
 70
8
 71
3
 72
8
 73
4
 74
0
 40
0
 40
0
 40
0
 40
0
 40
1
 40
1
 40
1
 40
1
 10
34.917241
 20
194.234897
 30
0.0
 10
30.917246
 20
194.234897
 30
0.0
 10
27.917249
 20
194.234897
 30
0.0
 10
26.917252
 20
189.234910
 30
0.0
  0
LWPOLYLINE
  5
149
100
AcDbEntity
  8
cut.coverBottom
 62
1
100
AcDbPolyline
 90
2
 70
0
 10
385.916847
 20
132.234964
 30
0.0
 10
372.916844
 20
189.234910
 30
0.0
  0
LWPOLYLINE
  5
14a
100
AcDbEntity
  8
cut.coverBottom
 62
1
100
AcDbPolyline
 90
2
 70
0
 10
209.417031
 20
163.234929
 30
0.0
 10
190.417055
 20
163.234929
 30
0.0
  0
ENDSEC
  0
SECTION
  2
OBJECTS
  0
DICTIONARY
  5
C
330
0
100
AcDbDictionary
  3
ACAD_GROUP
350
D
  3
ACAD_MLINESTYLE
350
17
  0
DICTIONARY
  5
D
330
C
100
AcDbDictionary
  0
DICTIONARY
  5
1A
330
C
100
AcDbDictionary
  0
DICTIONARY
  5
17
330
C
100
AcDbDictionary
  3
STANDARD
350
18
  0
DICTIONARY
  5
19
330
C
100
AcDbDictionary
  0
ENDSEC
  0
EOF
