  0
SECTION
  2
HEADER
  9
$ACADVER
  1
AC1014
  9
$HANDSEED
  5
FFFF
  9
$MEASUREMENT
 70
     1
  0
ENDSEC
  0
SECTION
  2
TABLES
  0
TABLE
  2
VPORT
  5
8
330
0
100
AcDbSymbolTable
 70
     4
  0
VPORT
  5
2E
330
8
100
AcDbSymbolTableRecord
100
AcDbViewportTableRecord
  2
*ACTIVE
 70
     0
 10
0.0
 20
0.0
 11
1.0
 21
1.0
 12
210.0
 22
148.5
 13
0.0
 23
0.0
 14
10.0
 24
10.0
 15
10.0
 25
10.0
 16
0.0
 26
0.0
 36
1.0
 17
0.0
 27
0.0
 37
0.0
 40
341.0
 41
1.24
 42
50.0
 43
0.0
 44
0.0
 50
0.0
 51
0.0
 71
     0
 72
   100
 73
     1
 74
     3
 75
     0
 76
     0
 77
     0
 78
     0
  0
ENDTAB
  0
TABLE
  2
LTYPE
  5
5
330
0
100
AcDbSymbolTable
 70
     1
  0
LTYPE
  5
14
330
5
100
AcDbSymbolTableRecord
100
AcDbLinetypeTableRecord
  2
BYBLOCK
 70
     0
  3

 72
    65
 73
     0
 40
0.0
  0
LTYPE
  5
15
330
5
100
AcDbSymbolTableRecord
100
AcDbLinetypeTableRecord
  2
BYLAYER
 70
     0
  3

 72
    65
 73
     0
 40
0.0
  0
LTYPE
  5
16
330
5
100
AcDbSymbolTableRecord
100
AcDbLinetypeTableRecord
  2
CONTINUOUS
 70
     0
  3
Solid line
 72
    65
 73
     0
 40
0.0
  0
ENDTAB
  0
TABLE
  2
LAYER
  5
2
100
AcDbSymbolTable
 70
2
  0
LAYER
  5
50
100
AcDbSymbolTableRecord
100
AcDbLayerTableRecord
  2
0
 70
0
  6
CONTINUOUS
  0
LAYER
  5
51
100
AcDbSymbolTableRecord
100
AcDbLayerTableRecord
  2
cut.innerTop
 70
0
  6
CONTINUOUS
  0
ENDTAB
  0
TABLE
  2
STYLE
  5
3
330
0
100
AcDbSymbolTable
 70
     1
  0
STYLE
  5
11
330
3
100
AcDbSymbolTableRecord
100
AcDbTextStyleTableRecord
  2
STANDARD
 70
     0
 40
0.0
 41
1.0
 50
0.0
 71
     0
 42
2.5
  3
txt
  4

  0
ENDTAB
  0
TABLE
  2
VIEW
  5
6
330
0
100
AcDbSymbolTable
 70
     0
  0
ENDTAB
  0
TABLE
  2
UCS
  5
7
330
0
100
AcDbSymbolTable
 70
     0
  0
ENDTAB
  0
TABLE
  2
APPID
  5
9
330
0
100
AcDbSymbolTable
 70
     2
  0
APPID
  5
12
330
9
100
AcDbSymbolTableRecord
100
AcDbRegAppTableRecord
  2
ACAD
 70
     0
  0
ENDTAB
  0
TABLE
  2
DIMSTYLE
  5
A
330
0
100
AcDbSymbolTable
 70
     1
  0
DIMSTYLE
105
27
330
A
100
AcDbSymbolTableRecord
100
AcDbDimStyleTableRecord
  2
ISO-25
 70
     0
  3

  4

  5

  6

  7

 40
1.0
 41
2.5
 42
0.625
 43
3.75
 44
1.25
 45
0.0
 46
0.0
 47
0.0
 48
0.0
140
2.5
141
2.5
142
0.0
143
0.03937007874016
144
1.0
145
0.0
146
1.0
147
0.625
 71
     0
 72
     0
 73
     0
 74
     0
 75
     0
 76
     0
 77
     1
 78
     8
170
     0
171
     3
172
     1
173
     0
174
     0
175
     0
176
     0
177
     0
178
     0
270
     2
271
     2
272
     2
273
     2
274
     3
340
11
275
     0
280
     0
281
     0
282
     0
283
     0
284
     8
285
     0
286
     0
287
     3
288
     0
  0
ENDTAB
  0
TABLE
  2
BLOCK_RECORD
  5
1
330
0
100
AcDbSymbolTable
 70
     1
  0
BLOCK_RECORD
  5
1F
330
1
100
AcDbSymbolTableRecord
100
AcDbBlockTableRecord
  2
*MODEL_SPACE
  0
BLOCK_RECORD
  5
1B
330
1
100
AcDbSymbolTableRecord
100
AcDbBlockTableRecord
  2
*PAPER_SPACE
  0
ENDTAB
  0
ENDSEC
  0
SECTION
  2
BLOCKS
  0
BLOCK
  5
20
330
1F
100
AcDbEntity
  8
0
100
AcDbBlockBegin
  2
*MODEL_SPACE
 70
     0
 10
0.0
 20
0.0
 30
0.0
  3
*MODEL_SPACE
  1

  0
ENDBLK
  5
21
330
1F
100
AcDbEntity
  8
0
100
AcDbBlockEnd
  0
BLOCK
  5
1C
330
1B
100
AcDbEntity
 67
     1
  8
0
100
AcDbBlockBegin
  2
*PAPER_SPACE
  1

  0
ENDBLK
  5
1D
330
1B
100
AcDbEntity
 67
     1
  8
0
100
AcDbBlockEnd
  0
ENDSEC
  0
SECTION
  2
ENTITIES
  0
SPLINE
  5
100
100
AcDbEntity
  8
cut.innerTop
 62
1
100
AcDbSpline
 70
8
 71
3
 72
8
 73
4
 74
0
 40
0
 40
0
 40
0
 40
0
 40
1
 40
1
 40
1
 40
1
 10
18.635561
 20
106.660204
 30
0.0
 10
18.635561
 20
105.776549
 30
0.0
 10
17.919217
 20
105.060191
 30
0.0
 10
17.035563
 20
105.060191
 30
0.0
  0
SPLINE
  5
101
100
AcDbEntity
  8
cut.innerTop
 62
1
100
AcDbSpline
 70
8
 71
3
 72
8
 73
4
 74
0
 40
0
 40
0
 40
0
 40
0
 40
1
 40
1
 40
1
 40
1
 10
17.035563
 20
105.060191
 30
0.0
 10
16.151909
 20
105.060191
 30
0.0
 10
15.435565
 20
105.776549
 30
0.0
 10
15.435565
 20
106.660204
 30
0.0
  0
SPLINE
  5
102
100
AcDbEntity
  8
cut.innerTop
 62
1
100
AcDbSpline
 70
8
 71
3
 72
8
 73
4
 74
0
 40
0
 40
0
 40
0
 40
0
 40
1
 40
1
 40
1
 40
1
 10
15.435565
 20
106.660204
 30
0.0
 10
15.435565
 20
107.543859
 30
0.0
 10
16.151909
 20
108.260192
 30
0.0
 10
17.035563
 20
108.260192
 30
0.0
  0
SPLINE
  5
103
100
AcDbEntity
  8
cut.innerTop
 62
1
100
AcDbSpline
 70
8
 71
3
 72
8
 73
4
 74
0
 40
0
 40
0
 40
0
 40
0
 40
1
 40
1
 40
1
 40
1
 10
17.035563
 20
108.260192
 30
0.0
 10
17.919217
 20
108.260192
 30
0.0
 10
18.635561
 20
107.543859
 30
0.0
 10
18.635561
 20
106.660204
 30
0.0
  0
SPLINE
  5
104
100
AcDbEntity
  8
cut.innerTop
 62
1
100
AcDbSpline
 70
8
 71
3
 72
8
 73
4
 74
0
 40
0
 40
0
 40
0
 40
0
 40
1
 40
1
 40
1
 40
1
 10
61.635510
 20
186.660098
 30
0.0
 10
61.635510
 20
185.776443
 30
0.0
 10
60.919167
 20
185.060111
 30
0.0
 10
60.035512
 20
185.060111
 30
0.0
  0
SPLINE
  5
105
100
AcDbEntity
  8
cut.innerTop
 62
1
100
AcDbSpline
 70
8
 71
3
 72
8
 73
4
 74
0
 40
0
 40
0
 40
0
 40
0
 40
1
 40
1
 40
1
 40
1
 10
60.035512
 20
185.060111
 30
0.0
 10
59.151858
 20
185.060111
 30
0.0
 10
58.435514
 20
185.776443
 30
0.0
 10
58.435514
 20
186.660098
 30
0.0
  0
SPLINE
  5
106
100
AcDbEntity
  8
cut.innerTop
 62
1
100
AcDbSpline
 70
8
 71
3
 72
8
 73
4
 74
0
 40
0
 40
0
 40
0
 40
0
 40
1
 40
1
 40
1
 40
1
 10
58.435514
 20
186.660098
 30
0.0
 10
58.435514
 20
187.543753
 30
0.0
 10
59.151858
 20
188.260112
 30
0.0
 10
60.035512
 20
188.260112
 30
0.0
  0
SPLINE
  5
107
100
AcDbEntity
  8
cut.innerTop
 62
1
100
AcDbSpline
 70
8
 71
3
 72
8
 73
4
 74
0
 40
0
 40
0
 40
0
 40
0
 40
1
 40
1
 40
1
 40
1
 10
60.035512
 20
188.260112
 30
0.0
 10
60.919167
 20
188.260112
 30
0.0
 10
61.635510
 20
187.543753
 30
0.0
 10
61.635510
 20
186.660098
 30
0.0
  0
SPLINE
  5
108
100
AcDbEntity
  8
cut.innerTop
 62
1
100
AcDbSpline
 70
8
 71
3
 72
8
 73
4
 74
0
 40
0
 40
0
 40
0
 40
0
 40
1
 40
1
 40
1
 40
1
 10
341.635177
 20
186.660098
 30
0.0
 10
341.635177
 20
185.776443
 30
0.0
 10
340.918844
 20
185.060111
 30
0.0
 10
340.035190
 20
185.060111
 30
0.0
  0
SPLINE
  5
109
100
AcDbEntity
  8
cut.innerTop
 62
1
100
AcDbSpline
 70
8
 71
3
 72
8
 73
4
 74
0
 40
0
 40
0
 40
0
 40
0
 40
1
 40
1
 40
1
 40
1
 10
340.035190
 20
185.060111
 30
0.0
 10
339.610851
 20
185.060111
 30
0.0
 10
339.203869
 20
185.228677
 30
0.0
 10
338.903805
 20
185.528714
 30
0.0
  0
SPLINE
  5
10a
100
AcDbEntity
  8
cut.innerTop
 62
1
100
AcDbSpline
 70
8
 71
3
 72
8
 73
4
 74
0
 40
0
 40
0
 40
0
 40
0
 40
1
 40
1
 40
1
 40
1
 10
338.903805
 20
185.528714
 30
0.0
 10
338.603742
 20
185.828778
 30
0.0
 10
338.435176
 20
186.235760
 30
0.0
 10
338.435176
 20
186.660098
 30
0.0
  0
SPLINE
  5
10b
100
AcDbEntity
  8
cut.innerTop
 62
1
100
AcDbSpline
 70
8
 71
3
 72
8
 73
4
 74
0
 40
0
 40
0
 40
0
 40
0
 40
1
 40
1
 40
1
 40
1
 10
338.435176
 20
186.660098
 30
0.0
 10
338.435176
 20
187.084463
 30
0.0
 10
338.603742
 20
187.491418
 30
0.0
 10
338.903805
 20
187.791482
 30
0.0
  0
SPLINE
  5
10c
100
AcDbEntity
  8
cut.innerTop
 62
1
100
AcDbSpline
 70
8
 71
3
 72
8
 73
4
 74
0
 40
0
 40
0
 40
0
 40
0
 40
1
 40
1
 40
1
 40
1
 10
338.903805
 20
187.791482
 30
0.0
 10
339.203869
 20
188.091546
 30
0.0
 10
339.610851
 20
188.260112
 30
0.0
 10
340.035190
 20
188.260112
 30
0.0
  0
SPLINE
  5
10d
100
AcDbEntity
  8
cut.innerTop
 62
1
100
AcDbSpline
 70
8
 71
3
 72
8
 73
4
 74
0
 40
0
 40
0
 40
0
 40
0
 40
1
 40
1
 40
1
 40
1
 10
340.035190
 20
188.260112
 30
0.0
 10
340.918844
 20
188.260112
 30
0.0
 10
341.635177
 20
187.543753
 30
0.0
 10
341.635177
 20
186.660098
 30
0.0
  0
SPLINE
  5
10e
100
AcDbEntity
  8
cut.innerTop
 62
1
100
AcDbSpline
 70
8
 71
3
 72
8
 73
4
 74
0
 40
0
 40
0
 40
0
 40
0
 40
1
 40
1
 40
1
 40
1
 10
236.635291
 20
164.660141
 30
0.0
 10
236.635288
 20
163.776486
 30
0.0
 10
235.918948
 20
163.060127
 30
0.0
 10
235.035293
 20
163.060127
 30
0.0
  0
SPLINE
  5
10f
100
AcDbEntity
  8
cut.innerTop
 62
1
100
AcDbSpline
 70
8
 71
3
 72
8
 73
4
 74
0
 40
0
 40
0
 40
0
 40
0
 40
1
 40
1
 40
1
 40
1
 10
235.035293
 20
163.060127
 30
0.0
 10
234.610946
 20
163.060127
 30
0.0
 10
234.203980
 20
163.228693
 30
0.0
 10
233.903922
 20
163.528757
 30
0.0
  0
SPLINE
  5
110
100
AcDbEntity
  8
cut.innerTop
 62
1
100
AcDbSpline
 70
8
 71
3
 72
8
 73
4
 74
0
 40
0
 40
0
 40
0
 40
0
 40
1
 40
1
 40
1
 40
1
 10
233.903922
 20
163.528757
 30
0.0
 10
233.603863
 20
163.828820
 30
0.0
 10
233.435292
 20
164.235776
 30
0.0
 10
233.435292
 20
164.660141
 30
0.0
  0
SPLINE
  5
111
100
AcDbEntity
  8
cut.innerTop
 62
1
100
AcDbSpline
 70
8
 71
3
 72
8
 73
4
 74
0
 40
0
 40
0
 40
0
 40
0
 40
1
 40
1
 40
1
 40
1
 10
233.435292
 20
164.660141
 30
0.0
 10
233.435292
 20
165.084479
 30
0.0
 10
233.603863
 20
165.491435
 30
0.0
 10
233.903922
 20
165.791498
 30
0.0
  0
SPLINE
  5
112
100
AcDbEntity
  8
cut.innerTop
 62
1
100
AcDbSpline
 70
8
 71
3
 72
8
 73
4
 74
0
 40
0
 40
0
 40
0
 40
0
 40
1
 40
1
 40
1
 40
1
 10
233.903922
 20
165.791498
 30
0.0
 10
234.203980
 20
166.091562
 30
0.0
 10
234.610946
 20
166.260128
 30
0.0
 10
235.035293
 20
166.260128
 30
0.0
  0
SPLINE
  5
113
100
AcDbEntity
  8
cut.innerTop
 62
1
100
AcDbSpline
 70
8
 71
3
 72
8
 73
4
 74
0
 40
0
 40
0
 40
0
 40
0
 40
1
 40
1
 40
1
 40
1
 10
235.035293
 20
166.260128
 30
0.0
 10
235.459639
 20
166.260128
 30
0.0
 10
235.866605
 20
166.091562
 30
0.0
 10
236.166664
 20
165.791498
 30
0.0
  0
SPLINE
  5
114
100
AcDbEntity
  8
cut.innerTop
 62
1
100
AcDbSpline
 70
8
 71
3
 72
8
 73
4
 74
0
 40
0
 40
0
 40
0
 40
0
 40
1
 40
1
 40
1
 40
1
 10
236.166664
 20
165.791498
 30
0.0
 10
236.466719
 20
165.491435
 30
0.0
 10
236.635291
 20
165.084479
 30
0.0
 10
236.635291
 20
164.660141
 30
0.0
  0
SPLINE
  5
115
100
AcDbEntity
  8
cut.innerTop
 62
1
100
AcDbSpline
 70
8
 71
3
 72
8
 73
4
 74
0
 40
0
 40
0
 40
0
 40
0
 40
1
 40
1
 40
1
 40
1
 10
166.635383
 20
164.660141
 30
0.0
 10
166.635383
 20
163.776486
 30
0.0
 10
165.919040
 20
163.060127
 30
0.0
 10
165.035385
 20
163.060127
 30
0.0
  0
SPLINE
  5
116
100
AcDbEntity
  8
cut.innerTop
 62
1
100
AcDbSpline
 70
8
 71
3
 72
8
 73
4
 74
0
 40
0
 40
0
 40
0
 40
0
 40
1
 40
1
 40
1
 40
1
 10
165.035385
 20
163.060127
 30
0.0
 10
164.151733
 20
163.060127
 30
0.0
 10
163.435387
 20
163.776486
 30
0.0
 10
163.435387
 20
164.660141
 30
0.0
  0
SPLINE
  5
117
100
AcDbEntity
  8
cut.innerTop
 62
1
100
AcDbSpline
 70
8
 71
3
 72
8
 73
4
 74
0
 40
0
 40
0
 40
0
 40
0
 40
1
 40
1
 40
1
 40
1
 10
163.435387
 20
164.660141
 30
0.0
 10
163.435387
 20
165.084479
 30
0.0
 10
163.603959
 20
165.491435
 30
0.0
 10
163.904015
 20
165.791498
 30
0.0
  0
SPLINE
  5
118
100
AcDbEntity
  8
cut.innerTop
 62
1
100
AcDbSpline
 70
8
 71
3
 72
8
 73
4
 74
0
 40
0
 40
0
 40
0
 40
0
 40
1
 40
1
 40
1
 40
1
 10
163.904015
 20
165.791498
 30
0.0
 10
164.204073
 20
166.091562
 30
0.0
 10
164.611039
 20
166.260128
 30
0.0
 10
165.035385
 20
166.260128
 30
0.0
  0
SPLINE
  5
119
100
AcDbEntity
  8
cut.innerTop
 62
1
100
AcDbSpline
 70
8
 71
3
 72
8
 73
4
 74
0
 40
0
 40
0
 40
0
 40
0
 40
1
 40
1
 40
1
 40
1
 10
165.035385
 20
166.260128
 30
0.0
 10
165.459732
 20
166.260128
 30
0.0
 10
165.866698
 20
166.091562
 30
0.0
 10
166.166756
 20
165.791498
 30
0.0
  0
SPLINE
  5
11a
100
AcDbEntity
  8
cut.innerTop
 62
1
100
AcDbSpline
 70
8
 71
3
 72
8
 73
4
 74
0
 40
0
 40
0
 40
0
 40
0
 40
1
 40
1
 40
1
 40
1
 10
166.166756
 20
165.791498
 30
0.0
 10
166.466815
 20
165.491435
 30
0.0
 10
166.635383
 20
165.084479
 30
0.0
 10
166.635383
 20
164.660141
 30
0.0
  0
SPLINE
  5
11b
100
AcDbEntity
  8
cut.innerTop
 62
1
100
AcDbSpline
 70
8
 71
3
 72
8
 73
4
 74
0
 40
0
 40
0
 40
0
 40
0
 40
1
 40
1
 40
1
 40
1
 10
201.635344
 20
41.660270
 30
0.0
 10
201.635344
 20
41.235932
 30
0.0
 10
201.466772
 20
40.828977
 30
0.0
 10
201.166714
 20
40.528913
 30
0.0
  0
SPLINE
  5
11c
100
AcDbEntity
  8
cut.innerTop
 62
1
100
AcDbSpline
 70
8
 71
3
 72
8
 73
4
 74
0
 40
0
 40
0
 40
0
 40
0
 40
1
 40
1
 40
1
 40
1
 10
201.166714
 20
40.528913
 30
0.0
 10
200.866655
 20
40.228849
 30
0.0
 10
200.459689
 20
40.060283
 30
0.0
 10
200.035343
 20
40.060283
 30
0.0
  0
SPLINE
  5
11d
100
AcDbEntity
  8
cut.innerTop
 62
1
100
AcDbSpline
 70
8
 71
3
 72
8
 73
4
 74
0
 40
0
 40
0
 40
0
 40
0
 40
1
 40
1
 40
1
 40
1
 10
200.035343
 20
40.060283
 30
0.0
 10
199.151688
 20
40.060283
 30
0.0
 10
198.435345
 20
40.776616
 30
0.0
 10
198.435345
 20
41.660270
 30
0.0
  0
SPLINE
  5
11e
100
AcDbEntity
  8
cut.innerTop
 62
1
100
AcDbSpline
 70
8
 71
3
 72
8
 73
4
 74
0
 40
0
 40
0
 40
0
 40
0
 40
1
 40
1
 40
1
 40
1
 10
198.435345
 20
41.660270
 30
0.0
 10
198.435345
 20
42.543925
 30
0.0
 10
199.151688
 20
43.260284
 30
0.0
 10
200.035343
 20
43.260284
 30
0.0
  0
SPLINE
  5
11f
100
AcDbEntity
  8
cut.innerTop
 62
1
100
AcDbSpline
 70
8
 71
3
 72
8
 73
4
 74
0
 40
0
 40
0
 40
0
 40
0
 40
1
 40
1
 40
1
 40
1
 10
200.035343
 20
43.260284
 30
0.0
 10
200.459689
 20
43.260284
 30
0.0
 10
200.866655
 20
43.091718
 30
0.0
 10
201.166714
 20
42.791654
 30
0.0
  0
SPLINE
  5
120
100
AcDbEntity
  8
cut.innerTop
 62
1
100
AcDbSpline
 70
8
 71
3
 72
8
 73
4
 74
0
 40
0
 40
0
 40
0
 40
0
 40
1
 40
1
 40
1
 40
1
 10
201.166714
 20
42.791654
 30
0.0
 10
201.466772
 20
42.491591
 30
0.0
 10
201.635344
 20
42.084635
 30
0.0
 10
201.635344
 20
41.660270
 30
0.0
  0
SPLINE
  5
121
100
AcDbEntity
  8
cut.innerTop
 62
1
100
AcDbSpline
 70
8
 71
3
 72
8
 73
4
 74
0
 40
0
 40
0
 40
0
 40
0
 40
1
 40
1
 40
1
 40
1
 10
384.635153
 20
106.660204
 30
0.0
 10
384.635153
 20
105.776549
 30
0.0
 10
383.918794
 20
105.060217
 30
0.0
 10
383.035166
 20
105.060191
 30
0.0
  0
SPLINE
  5
122
100
AcDbEntity
  8
cut.innerTop
 62
1
100
AcDbSpline
 70
8
 71
3
 72
8
 73
4
 74
0
 40
0
 40
0
 40
0
 40
0
 40
1
 40
1
 40
1
 40
1
 10
383.035166
 20
105.060191
 30
0.0
 10
382.610801
 20
105.060191
 30
0.0
 10
382.203845
 20
105.228756
 30
0.0
 10
381.903782
 20
105.528820
 30
0.0
  0
SPLINE
  5
123
100
AcDbEntity
  8
cut.innerTop
 62
1
100
AcDbSpline
 70
8
 71
3
 72
8
 73
4
 74
0
 40
0
 40
0
 40
0
 40
0
 40
1
 40
1
 40
1
 40
1
 10
381.903782
 20
105.528820
 30
0.0
 10
381.603718
 20
105.828884
 30
0.0
 10
381.435126
 20
106.235839
 30
0.0
 10
381.435126
 20
106.660204
 30
0.0
  0
SPLINE
  5
124
100
AcDbEntity
  8
cut.innerTop
 62
1
100
AcDbSpline
 70
8
 71
3
 72
8
 73
4
 74
0
 40
0
 40
0
 40
0
 40
0
 40
1
 40
1
 40
1
 40
1
 10
381.435126
 20
106.660204
 30
0.0
 10
381.435126
 20
107.084543
 30
0.0
 10
381.603718
 20
107.491525
 30
0.0
 10
381.903782
 20
107.791588
 30
0.0
  0
SPLINE
  5
125
100
AcDbEntity
  8
cut.innerTop
 62
1
100
AcDbSpline
 70
8
 71
3
 72
8
 73
4
 74
0
 40
0
 40
0
 40
0
 40
0
 40
1
 40
1
 40
1
 40
1
 10
381.903782
 20
107.791588
 30
0.0
 10
382.203845
 20
108.091626
 30
0.0
 10
382.610801
 20
108.260192
 30
0.0
 10
383.035166
 20
108.260192
 30
0.0
  0
SPLINE
  5
126
100
AcDbEntity
  8
cut.innerTop
 62
1
100
AcDbSpline
 70
8
 71
3
 72
8
 73
4
 74
0
 40
0
 40
0
 40
0
 40
0
 40
1
 40
1
 40
1
 40
1
 10
383.035166
 20
108.260192
 30
0.0
 10
383.918794
 20
108.260192
 30
0.0
 10
384.635153
 20
107.543859
 30
0.0
 10
384.635153
 20
106.660204
 30
0.0
  0
SPLINE
  5
127
100
AcDbEntity
  8
cut.innerTop
 62
1
100
AcDbSpline
 70
8
 71
3
 72
8
 73
4
 74
0
 40
0
 40
0
 40
0
 40
0
 40
1
 40
1
 40
1
 40
1
 10
371.635124
 20
56.660257
 30
0.0
 10
371.635124
 20
55.776602
 30
0.0
 10
370.918765
 20
55.060270
 30
0.0
 10
370.035110
 20
55.060270
 30
0.0
  0
SPLINE
  5
128
100
AcDbEntity
  8
cut.innerTop
 62
1
100
AcDbSpline
 70
8
 71
3
 72
8
 73
4
 74
0
 40
0
 40
0
 40
0
 40
0
 40
1
 40
1
 40
1
 40
1
 10
370.035110
 20
55.060270
 30
0.0
 10
369.151455
 20
55.060270
 30
0.0
 10
368.435123
 20
55.776602
 30
0.0
 10
368.435123
 20
56.660257
 30
0.0
  0
SPLINE
  5
129
100
AcDbEntity
  8
cut.innerTop
 62
1
100
AcDbSpline
 70
8
 71
3
 72
8
 73
4
 74
0
 40
0
 40
0
 40
0
 40
0
 40
1
 40
1
 40
1
 40
1
 10
368.435123
 20
56.660257
 30
0.0
 10
368.435123
 20
57.543912
 30
0.0
 10
369.151455
 20
58.260244
 30
0.0
 10
370.035110
 20
58.260271
 30
0.0
  0
SPLINE
  5
12a
100
AcDbEntity
  8
cut.innerTop
 62
1
100
AcDbSpline
 70
8
 71
3
 72
8
 73
4
 74
0
 40
0
 40
0
 40
0
 40
0
 40
1
 40
1
 40
1
 40
1
 10
370.035110
 20
58.260271
 30
0.0
 10
370.918765
 20
58.260244
 30
0.0
 10
371.635124
 20
57.543912
 30
0.0
 10
371.635124
 20
56.660257
 30
0.0
  0
SPLINE
  5
12b
100
AcDbEntity
  8
cut.innerTop
 62
1
100
AcDbSpline
 70
8
 71
3
 72
8
 73
4
 74
0
 40
0
 40
0
 40
0
 40
0
 40
1
 40
1
 40
1
 40
1
 10
271.635256
 20
16.660310
 30
0.0
 10
271.635256
 20
15.776655
 30
0.0
 10
270.918924
 20
15.060323
 30
0.0
 10
270.035269
 20
15.060323
 30
0.0
  0
SPLINE
  5
12c
100
AcDbEntity
  8
cut.innerTop
 62
1
100
AcDbSpline
 70
8
 71
3
 72
8
 73
4
 74
0
 40
0
 40
0
 40
0
 40
0
 40
1
 40
1
 40
1
 40
1
 10
270.035269
 20
15.060323
 30
0.0
 10
269.151614
 20
15.060323
 30
0.0
 10
268.435255
 20
15.776655
 30
0.0
 10
268.435255
 20
16.660310
 30
0.0
  0
SPLINE
  5
12d
100
AcDbEntity
  8
cut.innerTop
 62
1
100
AcDbSpline
 70
8
 71
3
 72
8
 73
4
 74
0
 40
0
 40
0
 40
0
 40
0
 40
1
 40
1
 40
1
 40
1
 10
268.435255
 20
16.660310
 30
0.0
 10
268.435255
 20
17.543965
 30
0.0
 10
269.151614
 20
18.260324
 30
0.0
 10
270.035269
 20
18.260324
 30
0.0
  0
SPLINE
  5
12e
100
AcDbEntity
  8
cut.innerTop
 62
1
100
AcDbSpline
 70
8
 71
3
 72
8
 73
4
 74
0
 40
0
 40
0
 40
0
 40
0
 40
1
 40
1
 40
1
 40
1
 10
270.035269
 20
18.260324
 30
0.0
 10
270.918924
 20
18.260324
 30
0.0
 10
271.635256
 20
17.543965
 30
0.0
 10
271.635256
 20
16.660310
 30
0.0
  0
SPLINE
  5
12f
100
AcDbEntity
  8
cut.innerTop
 62
1
100
AcDbSpline
 70
8
 71
3
 72
8
 73
4
 74
0
 40
0
 40
0
 40
0
 40
0
 40
1
 40
1
 40
1
 40
1
 10
131.635426
 20
16.660310
 30
0.0
 10
131.635426
 20
15.776655
 30
0.0
 10
130.919083
 20
15.060323
 30
0.0
 10
130.035428
 20
15.060323
 30
0.0
  0
SPLINE
  5
130
100
AcDbEntity
  8
cut.innerTop
 62
1
100
AcDbSpline
 70
8
 71
3
 72
8
 73
4
 74
0
 40
0
 40
0
 40
0
 40
0
 40
1
 40
1
 40
1
 40
1
 10
130.035428
 20
15.060323
 30
0.0
 10
129.611084
 20
15.060323
 30
0.0
 10
129.204115
 20
15.228889
 30
0.0
 10
128.904059
 20
15.528926
 30
0.0
  0
SPLINE
  5
131
100
AcDbEntity
  8
cut.innerTop
 62
1
100
AcDbSpline
 70
8
 71
3
 72
8
 73
4
 74
0
 40
0
 40
0
 40
0
 40
0
 40
1
 40
1
 40
1
 40
1
 10
128.904059
 20
15.528926
 30
0.0
 10
128.603998
 20
15.828990
 30
0.0
 10
128.435430
 20
16.235972
 30
0.0
 10
128.435430
 20
16.660310
 30
0.0
  0
SPLINE
  5
132
100
AcDbEntity
  8
cut.innerTop
 62
1
100
AcDbSpline
 70
8
 71
3
 72
8
 73
4
 74
0
 40
0
 40
0
 40
0
 40
0
 40
1
 40
1
 40
1
 40
1
 10
128.435430
 20
16.660310
 30
0.0
 10
128.435427
 20
17.084649
 30
0.0
 10
128.603998
 20
17.491630
 30
0.0
 10
128.904057
 20
17.791668
 30
0.0
  0
SPLINE
  5
133
100
AcDbEntity
  8
cut.innerTop
 62
1
100
AcDbSpline
 70
8
 71
3
 72
8
 73
4
 74
0
 40
0
 40
0
 40
0
 40
0
 40
1
 40
1
 40
1
 40
1
 10
128.904057
 20
17.791668
 30
0.0
 10
129.204115
 20
18.091731
 30
0.0
 10
129.611081
 20
18.260297
 30
0.0
 10
130.035428
 20
18.260297
 30
0.0
  0
SPLINE
  5
134
100
AcDbEntity
  8
cut.innerTop
 62
1
100
AcDbSpline
 70
8
 71
3
 72
8
 73
4
 74
0
 40
0
 40
0
 40
0
 40
0
 40
1
 40
1
 40
1
 40
1
 10
130.035428
 20
18.260297
 30
0.0
 10
130.459774
 20
18.260297
 30
0.0
 10
130.866740
 20
18.091731
 30
0.0
 10
131.166799
 20
17.791668
 30
0.0
  0
SPLINE
  5
135
100
AcDbEntity
  8
cut.innerTop
 62
1
100
AcDbSpline
 70
8
 71
3
 72
8
 73
4
 74
0
 40
0
 40
0
 40
0
 40
0
 40
1
 40
1
 40
1
 40
1
 10
131.166799
 20
17.791668
 30
0.0
 10
131.466857
 20
17.491630
 30
0.0
 10
131.635426
 20
17.084649
 30
0.0
 10
131.635426
 20
16.660310
 30
0.0
  0
SPLINE
  5
136
100
AcDbEntity
  8
cut.innerTop
 62
1
100
AcDbSpline
 70
8
 71
3
 72
8
 73
4
 74
0
 40
0
 40
0
 40
0
 40
0
 40
1
 40
1
 40
1
 40
1
 10
31.635547
 20
56.660257
 30
0.0
 10
31.635547
 20
56.235919
 30
0.0
 10
31.466976
 20
55.828937
 30
0.0
 10
31.166918
 20
55.528900
 30
0.0
  0
SPLINE
  5
137
100
AcDbEntity
  8
cut.innerTop
 62
1
100
AcDbSpline
 70
8
 71
3
 72
8
 73
4
 74
0
 40
0
 40
0
 40
0
 40
0
 40
1
 40
1
 40
1
 40
1
 10
31.166918
 20
55.528900
 30
0.0
 10
30.866859
 20
55.228836
 30
0.0
 10
30.459893
 20
55.060270
 30
0.0
 10
30.035547
 20
55.060270
 30
0.0
  0
SPLINE
  5
138
100
AcDbEntity
  8
cut.innerTop
 62
1
100
AcDbSpline
 70
8
 71
3
 72
8
 73
4
 74
0
 40
0
 40
0
 40
0
 40
0
 40
1
 40
1
 40
1
 40
1
 10
30.035547
 20
55.060270
 30
0.0
 10
29.611200
 20
55.060270
 30
0.0
 10
29.204234
 20
55.228836
 30
0.0
 10
28.904176
 20
55.528900
 30
0.0
  0
SPLINE
  5
139
100
AcDbEntity
  8
cut.innerTop
 62
1
100
AcDbSpline
 70
8
 71
3
 72
8
 73
4
 74
0
 40
0
 40
0
 40
0
 40
0
 40
1
 40
1
 40
1
 40
1
 10
28.904176
 20
55.528900
 30
0.0
 10
28.604120
 20
55.828937
 30
0.0
 10
28.435549
 20
56.235919
 30
0.0
 10
28.435549
 20
56.660257
 30
0.0
  0
SPLINE
  5
13a
100
AcDbEntity
  8
cut.innerTop
 62
1
100
AcDbSpline
 70
8
 71
3
 72
8
 73
4
 74
0
 40
0
 40
0
 40
0
 40
0
 40
1
 40
1
 40
1
 40
1
 10
28.435549
 20
56.660257
 30
0.0
 10
28.435549
 20
57.543912
 30
0.0
 10
29.151892
 20
58.260271
 30
0.0
 10
30.035547
 20
58.260271
 30
0.0
  0
SPLINE
  5
13b
100
AcDbEntity
  8
cut.innerTop
 62
1
100
AcDbSpline
 70
8
 71
3
 72
8
 73
4
 74
0
 40
0
 40
0
 40
0
 40
0
 40
1
 40
1
 40
1
 40
1
 10
30.035547
 20
58.260271
 30
0.0
 10
30.459893
 20
58.260271
 30
0.0
 10
30.866859
 20
58.091679
 30
0.0
 10
31.166918
 20
57.791641
 30
0.0
  0
SPLINE
  5
13c
100
AcDbEntity
  8
cut.innerTop
 62
1
100
AcDbSpline
 70
8
 71
3
 72
8
 73
4
 74
0
 40
0
 40
0
 40
0
 40
0
 40
1
 40
1
 40
1
 40
1
 10
31.166918
 20
57.791641
 30
0.0
 10
31.466976
 20
57.491577
 30
0.0
 10
31.635547
 20
57.084596
 30
0.0
 10
31.635547
 20
56.660257
 30
0.0
  0
SPLINE
  5
13d
100
AcDbEntity
  8
cut.innerTop
 62
1
100
AcDbSpline
 70
8
 71
3
 72
8
 73
4
 74
0
 40
0
 40
0
 40
0
 40
0
 40
1
 40
1
 40
1
 40
1
 10
14.327360
 20
131.660165
 30
0.0
 10
12.035569
 20
121.660191
 30
0.0
 10
10.035572
 20
111.660191
 30
0.0
 10
10.035572
 20
101.660217
 30
0.0
  0
SPLINE
  5
13e
100
AcDbEntity
  8
cut.innerTop
 62
1
100
AcDbSpline
 70
8
 71
3
 72
8
 73
4
 74
0
 40
0
 40
0
 40
0
 40
0
 40
1
 40
1
 40
1
 40
1
 10
10.035572
 20
101.660217
 30
0.0
 10
10.035564
 20
50.297773
 30
0.0
 10
51.822811
 20
6.810170
 30
0.0
 10
103.185240
 20
6.810196
 30
0.0
  0
SPLINE
  5
13f
100
AcDbEntity
  8
cut.innerTop
 62
1
100
AcDbSpline
 70
8
 71
3
 72
8
 73
4
 74
0
 40
0
 40
0
 40
0
 40
0
 40
1
 40
1
 40
1
 40
1
 10
103.185240
 20
6.810196
 30
0.0
 10
154.547671
 20
6.810170
 30
0.0
 10
165.035385
 20
34.160290
 30
0.0
 10
192.535355
 20
34.160290
 30
0.0
  0
SPLINE
  5
140
100
AcDbEntity
  8
cut.innerTop
 62
1
100
AcDbSpline
 70
8
 71
3
 72
8
 73
4
 74
0
 40
0
 40
0
 40
0
 40
0
 40
1
 40
1
 40
1
 40
1
 10
207.535336
 20
34.160290
 30
0.0
 10
235.035303
 20
34.160290
 30
0.0
 10
245.522904
 20
6.810196
 30
0.0
 10
296.885327
 20
6.810196
 30
0.0
  0
SPLINE
  5
141
100
AcDbEntity
  8
cut.innerTop
 62
1
100
AcDbSpline
 70
8
 71
3
 72
8
 73
4
 74
0
 40
0
 40
0
 40
0
 40
0
 40
1
 40
1
 40
1
 40
1
 10
296.885327
 20
6.810196
 30
0.0
 10
348.247745
 20
6.810170
 30
0.0
 10
390.035137
 20
50.297773
 30
0.0
 10
390.035137
 20
101.660217
 30
0.0
  0
SPLINE
  5
142
100
AcDbEntity
  8
cut.innerTop
 62
1
100
AcDbSpline
 70
8
 71
3
 72
8
 73
4
 74
0
 40
0
 40
0
 40
0
 40
0
 40
1
 40
1
 40
1
 40
1
 10
390.035137
 20
101.660217
 30
0.0
 10
390.035137
 20
111.660191
 30
0.0
 10
388.035126
 20
121.660191
 30
0.0
 10
386.035142
 20
131.660165
 30
0.0
  0
LWPOLYLINE
  5
143
100
AcDbEntity
  8
cut.innerTop
 62
1
100
AcDbPolyline
 90
2
 70
0
 10
27.035552
 20
188.660109
 30
0.0
 10
14.327360
 20
131.660165
 30
0.0
  0
SPLINE
  5
144
100
AcDbEntity
  8
cut.innerTop
 62
1
100
AcDbSpline
 70
8
 71
3
 72
8
 73
4
 74
0
 40
0
 40
0
 40
0
 40
0
 40
1
 40
1
 40
1
 40
1
 10
373.035139
 20
188.660109
 30
0.0
 10
372.035147
 20
193.660096
 30
0.0
 10
369.035145
 20
193.660096
 30
0.0
 10
365.035150
 20
193.660096
 30
0.0
  0
SPLINE
  5
145
100
AcDbEntity
  8
cut.innerTop
 62
1
100
AcDbSpline
 70
8
 71
3
 72
8
 73
4
 74
0
 40
0
 40
0
 40
0
 40
0
 40
1
 40
1
 40
1
 40
1
 10
365.035150
 20
193.660096
 30
0.0
 10
230.035306
 20
181.660111
 30
0.0
 10
230.035306
 20
162.660130
 30
0.0
 10
209.535331
 20
162.660130
 30
0.0
  0
LWPOLYLINE
  5
146
100
AcDbEntity
  8
cut.innerTop
 62
1
100
AcDbPolyline
 90
2
 70
0
 10
192.535355
 20
34.160290
 30
0.0
 10
207.535336
 20
34.160290
 30
0.0
  0
SPLINE
  5
147
100
AcDbEntity
  8
cut.innerTop
 62
1
100
AcDbSpline
 70
8
 71
3
 72
8
 73
4
 74
0
 40
0
 40
0
 40
0
 40
0
 40
1
 40
1
 40
1
 40
1
 10
190.535355
 20
162.660130
 30
0.0
 10
170.035377
 20
162.660130
 30
0.0
 10
170.035377
 20
181.660111
 30
0.0
 10
35.035541
 20
193.660096
 30
0.0
  0
SPLINE
  5
148
100
AcDbEntity
  8
cut.innerTop
 62
1
100
AcDbSpline
 70
8
 71
3
 72
8
 73
4
 74
0
 40
0
 40
0
 40
0
 40
0
 40
1
 40
1
 40
1
 40
1
 10
35.035541
 20
193.660096
 30
0.0
 10
31.035547
 20
193.660096
 30
0.0
 10
28.035549
 20
193.660096
 30
0.0
 10
27.035552
 20
188.660109
 30
0.0
  0
LWPOLYLINE
  5
149
100
AcDbEntity
  8
cut.innerTop
 62
1
100
AcDbPolyline
 90
2
 70
0
 10
386.035142
 20
131.660165
 30
0.0
 10
373.035139
 20
188.660109
 30
0.0
  0
LWPOLYLINE
  5
14a
100
AcDbEntity
  8
cut.innerTop
 62
1
100
AcDbPolyline
 90
2
 70
0
 10
209.535331
 20
162.660130
 30
0.0
 10
190.535355
 20
162.660130
 30
0.0
  0
LWPOLYLINE
  5
14b
100
AcDbEntity
  8
cut.innerTop
 62
1
100
AcDbPolyline
 90
22
 70
1
 10
384.662855
 20
115.144196
 30
0.0
 10
367.611581
 20
189.001368
 30
0.0
 10
321.329054
 20
178.316204
 30
0.0
 10
320.654208
 20
181.239318
 30
0.0
 10
302.141192
 20
176.965242
 30
0.0
 10
301.803769
 20
178.426799
 30
0.0
 10
283.485645
 20
174.197729
 30
0.0
 10
283.823068
 20
172.736171
 30
0.0
 10
265.310052
 20
168.462095
 30
0.0
 10
265.647475
 20
167.000564
 30
0.0
 10
228.621461
 20
158.452438
 30
0.0
 10
245.672727
 20
84.595265
 30
0.0
 10
282.698748
 20
93.143391
 30
0.0
 10
286.635375
 20
76.091933
 30
0.0
 10
304.953526
 20
80.321003
 30
0.0
 10
304.616103
 20
81.782561
 30
0.0
 10
323.323985
 20
86.101616
 30
0.0
 10
323.661408
 20
84.640059
 30
0.0
 10
342.174397
 20
88.914135
 30
0.0
 10
342.849270
 20
85.991021
 30
0.0
 10
379.680410
 20
94.494168
 30
0.0
 10
375.406334
 20
113.007157
 30
0.0
  0
LWPOLYLINE
  5
14c
100
AcDbEntity
  8
cut.innerTop
 62
1
100
AcDbPolyline
 90
6
 70
1
 10
242.694986
 20
27.255887
 30
0.0
 10
210.436491
 20
61.848865
 30
0.0
 10
238.081616
 20
87.628367
 30
0.0
 10
251.039574
 20
73.732671
 30
0.0
 10
264.935270
 20
86.690631
 30
0.0
 10
284.235818
 20
65.993349
 30
0.0
  0
SPLINE
  5
14d
100
AcDbEntity
  8
cut.innerTop
 62
1
100
AcDbSpline
 70
8
 71
3
 72
8
 73
4
 74
0
 40
0
 40
0
 40
0
 40
0
 40
1
 40
1
 40
1
 40
1
 10
200.035343
 20
116.660178
 30
0.0
 10
198.821957
 20
116.660178
 30
0.0
 10
197.728051
 20
115.929267
 30
0.0
 10
197.263707
 20
114.808254
 30
0.0
  0
SPLINE
  5
14e
100
AcDbEntity
  8
cut.innerTop
 62
1
100
AcDbSpline
 70
8
 71
3
 72
8
 73
4
 74
0
 40
0
 40
0
 40
0
 40
0
 40
1
 40
1
 40
1
 40
1
 10
197.263707
 20
114.808254
 30
0.0
 10
196.799364
 20
113.687216
 30
0.0
 10
197.056031
 20
112.396870
 30
0.0
 10
197.914026
 20
111.538880
 30
0.0
  0
SPLINE
  5
14f
100
AcDbEntity
  8
cut.innerTop
 62
1
100
AcDbSpline
 70
8
 71
3
 72
8
 73
4
 74
0
 40
0
 40
0
 40
0
 40
0
 40
1
 40
1
 40
1
 40
1
 10
197.914026
 20
111.538880
 30
0.0
 10
198.772019
 20
110.680889
 30
0.0
 10
200.062370
 20
110.424217
 30
0.0
 10
201.183393
 20
110.888561
 30
0.0
  0
SPLINE
  5
150
100
AcDbEntity
  8
cut.innerTop
 62
1
100
AcDbSpline
 70
8
 71
3
 72
8
 73
4
 74
0
 40
0
 40
0
 40
0
 40
0
 40
1
 40
1
 40
1
 40
1
 10
201.183393
 20
110.888561
 30
0.0
 10
202.304414
 20
111.352904
 30
0.0
 10
203.035340
 20
112.446797
 30
0.0
 10
203.035340
 20
113.660202
 30
0.0
  0
SPLINE
  5
151
100
AcDbEntity
  8
cut.innerTop
 62
1
100
AcDbSpline
 70
8
 71
3
 72
8
 73
4
 74
0
 40
0
 40
0
 40
0
 40
0
 40
1
 40
1
 40
1
 40
1
 10
203.035340
 20
113.660202
 30
0.0
 10
203.035340
 20
114.455830
 30
0.0
 10
202.719269
 20
115.218914
 30
0.0
 10
202.156662
 20
115.781524
 30
0.0
  0
SPLINE
  5
152
100
AcDbEntity
  8
cut.innerTop
 62
1
100
AcDbSpline
 70
8
 71
3
 72
8
 73
4
 74
0
 40
0
 40
0
 40
0
 40
0
 40
1
 40
1
 40
1
 40
1
 10
202.156662
 20
115.781524
 30
0.0
 10
201.594053
 20
116.344133
 30
0.0
 10
200.830992
 20
116.660178
 30
0.0
 10
200.035343
 20
116.660178
 30
0.0
  0
LWPOLYLINE
  5
153
100
AcDbEntity
  8
cut.innerTop
 62
1
100
AcDbPolyline
 90
22
 70
1
 10
15.194173
 20
115.144196
 30
0.0
 10
32.245438
 20
189.001368
 30
0.0
 10
78.527957
 20
178.316204
 30
0.0
 10
79.202811
 20
181.239318
 30
0.0
 10
97.715822
 20
176.965242
 30
0.0
 10
98.053247
 20
178.426799
 30
0.0
 10
116.371380
 20
174.197729
 30
0.0
 10
116.033954
 20
172.736171
 30
0.0
 10
134.546965
 20
168.462095
 30
0.0
 10
134.209539
 20
167.000564
 30
0.0
 10
171.235553
 20
158.452438
 30
0.0
 10
154.184290
 20
84.595265
 30
0.0
 10
117.158271
 20
93.143391
 30
0.0
 10
113.221633
 20
76.091933
 30
0.0
 10
94.903499
 20
80.321003
 30
0.0
 10
95.240927
 20
81.782561
 30
0.0
 10
76.533045
 20
86.101616
 30
0.0
 10
76.195617
 20
84.640059
 30
0.0
 10
57.682609
 20
88.914135
 30
0.0
 10
57.007758
 20
85.991021
 30
0.0
 10
20.176615
 20
94.494168
 30
0.0
 10
24.450679
 20
113.007157
 30
0.0
  0
SPLINE
  5
154
100
AcDbEntity
  8
cut.innerTop
 62
1
100
AcDbSpline
 70
8
 71
3
 72
8
 73
4
 74
0
 40
0
 40
0
 40
0
 40
0
 40
1
 40
1
 40
1
 40
1
 10
180.035369
 20
148.160153
 30
0.0
 10
178.821983
 20
148.160153
 30
0.0
 10
177.728077
 20
147.429215
 30
0.0
 10
177.263734
 20
146.308203
 30
0.0
  0
SPLINE
  5
155
100
AcDbEntity
  8
cut.innerTop
 62
1
100
AcDbSpline
 70
8
 71
3
 72
8
 73
4
 74
0
 40
0
 40
0
 40
0
 40
0
 40
1
 40
1
 40
1
 40
1
 10
177.263734
 20
146.308203
 30
0.0
 10
176.799390
 20
145.187190
 30
0.0
 10
177.056057
 20
143.896818
 30
0.0
 10
177.914050
 20
143.038828
 30
0.0
  0
SPLINE
  5
156
100
AcDbEntity
  8
cut.innerTop
 62
1
100
AcDbSpline
 70
8
 71
3
 72
8
 73
4
 74
0
 40
0
 40
0
 40
0
 40
0
 40
1
 40
1
 40
1
 40
1
 10
177.914050
 20
143.038828
 30
0.0
 10
178.772043
 20
142.180838
 30
0.0
 10
180.062397
 20
141.924166
 30
0.0
 10
181.183417
 20
142.388509
 30
0.0
  0
SPLINE
  5
157
100
AcDbEntity
  8
cut.innerTop
 62
1
100
AcDbSpline
 70
8
 71
3
 72
8
 73
4
 74
0
 40
0
 40
0
 40
0
 40
0
 40
1
 40
1
 40
1
 40
1
 10
181.183417
 20
142.388509
 30
0.0
 10
182.304440
 20
142.852853
 30
0.0
 10
183.035364
 20
143.946772
 30
0.0
 10
183.035364
 20
145.160150
 30
0.0
  0
SPLINE
  5
158
100
AcDbEntity
  8
cut.innerTop
 62
1
100
AcDbSpline
 70
8
 71
3
 72
8
 73
4
 74
0
 40
0
 40
0
 40
0
 40
0
 40
1
 40
1
 40
1
 40
1
 10
183.035364
 20
145.160150
 30
0.0
 10
183.035364
 20
145.955805
 30
0.0
 10
182.719296
 20
146.718862
 30
0.0
 10
182.156686
 20
147.281472
 30
0.0
  0
SPLINE
  5
159
100
AcDbEntity
  8
cut.innerTop
 62
1
100
AcDbSpline
 70
8
 71
3
 72
8
 73
4
 74
0
 40
0
 40
0
 40
0
 40
0
 40
1
 40
1
 40
1
 40
1
 10
182.156686
 20
147.281472
 30
0.0
 10
181.594077
 20
147.844082
 30
0.0
 10
180.831016
 20
148.160153
 30
0.0
 10
180.035369
 20
148.160153
 30
0.0
  0
SPLINE
  5
15a
100
AcDbEntity
  8
cut.innerTop
 62
1
100
AcDbSpline
 70
8
 71
3
 72
8
 73
4
 74
0
 40
0
 40
0
 40
0
 40
0
 40
1
 40
1
 40
1
 40
1
 10
220.035319
 20
148.160153
 30
0.0
 10
218.821936
 20
148.160153
 30
0.0
 10
217.728027
 20
147.429215
 30
0.0
 10
217.263684
 20
146.308203
 30
0.0
  0
SPLINE
  5
15b
100
AcDbEntity
  8
cut.innerTop
 62
1
100
AcDbSpline
 70
8
 71
3
 72
8
 73
4
 74
0
 40
0
 40
0
 40
0
 40
0
 40
1
 40
1
 40
1
 40
1
 10
217.263684
 20
146.308203
 30
0.0
 10
216.799343
 20
145.187190
 30
0.0
 10
217.056010
 20
143.896818
 30
0.0
 10
217.914003
 20
143.038828
 30
0.0
  0
SPLINE
  5
15c
100
AcDbEntity
  8
cut.innerTop
 62
1
100
AcDbSpline
 70
8
 71
3
 72
8
 73
4
 74
0
 40
0
 40
0
 40
0
 40
0
 40
1
 40
1
 40
1
 40
1
 10
217.914003
 20
143.038828
 30
0.0
 10
218.771995
 20
142.180838
 30
0.0
 10
220.062346
 20
141.924166
 30
0.0
 10
221.183369
 20
142.388509
 30
0.0
  0
SPLINE
  5
15d
100
AcDbEntity
  8
cut.innerTop
 62
1
100
AcDbSpline
 70
8
 71
3
 72
8
 73
4
 74
0
 40
0
 40
0
 40
0
 40
0
 40
1
 40
1
 40
1
 40
1
 10
221.183369
 20
142.388509
 30
0.0
 10
222.304390
 20
142.852853
 30
0.0
 10
223.035317
 20
143.946772
 30
0.0
 10
223.035317
 20
145.160150
 30
0.0
  0
SPLINE
  5
15e
100
AcDbEntity
  8
cut.innerTop
 62
1
100
AcDbSpline
 70
8
 71
3
 72
8
 73
4
 74
0
 40
0
 40
0
 40
0
 40
0
 40
1
 40
1
 40
1
 40
1
 10
223.035317
 20
145.160150
 30
0.0
 10
223.035317
 20
145.955805
 30
0.0
 10
222.719246
 20
146.718862
 30
0.0
 10
222.156639
 20
147.281472
 30
0.0
  0
SPLINE
  5
15f
100
AcDbEntity
  8
cut.innerTop
 62
1
100
AcDbSpline
 70
8
 71
3
 72
8
 73
4
 74
0
 40
0
 40
0
 40
0
 40
0
 40
1
 40
1
 40
1
 40
1
 10
222.156639
 20
147.281472
 30
0.0
 10
221.594029
 20
147.844082
 30
0.0
 10
220.830968
 20
148.160153
 30
0.0
 10
220.035319
 20
148.160153
 30
0.0
  0
LWPOLYLINE
  5
160
100
AcDbEntity
  8
cut.innerTop
 62
1
100
AcDbPolyline
 90
6
 70
1
 10
157.162031
 20
27.255887
 30
0.0
 10
189.420526
 20
61.848865
 30
0.0
 10
161.775398
 20
87.628367
 30
0.0
 10
148.817443
 20
73.732671
 30
0.0
 10
134.921747
 20
86.690631
 30
0.0
 10
115.621212
 20
65.993349
 30
0.0
  0
ENDSEC
  0
SECTION
  2
OBJECTS
  0
DICTIONARY
  5
C
330
0
100
AcDbDictionary
  3
ACAD_GROUP
350
D
  3
ACAD_MLINESTYLE
350
17
  0
DICTIONARY
  5
D
330
C
100
AcDbDictionary
  0
DICTIONARY
  5
1A
330
C
100
AcDbDictionary
  0
DICTIONARY
  5
17
330
C
100
AcDbDictionary
  3
STANDARD
350
18
  0
DICTIONARY
  5
19
330
C
100
AcDbDictionary
  0
ENDSEC
  0
EOF
