  0
SECTION
  2
HEADER
  9
$ACADVER
  1
AC1014
  9
$HANDSEED
  5
FFFF
  9
$MEASUREMENT
 70
     1
  0
ENDSEC
  0
SECTION
  2
TABLES
  0
TABLE
  2
VPORT
  5
8
330
0
100
AcDbSymbolTable
 70
     4
  0
VPORT
  5
2E
330
8
100
AcDbSymbolTableRecord
100
AcDbViewportTableRecord
  2
*ACTIVE
 70
     0
 10
0.0
 20
0.0
 11
1.0
 21
1.0
 12
210.0
 22
148.5
 13
0.0
 23
0.0
 14
10.0
 24
10.0
 15
10.0
 25
10.0
 16
0.0
 26
0.0
 36
1.0
 17
0.0
 27
0.0
 37
0.0
 40
341.0
 41
1.24
 42
50.0
 43
0.0
 44
0.0
 50
0.0
 51
0.0
 71
     0
 72
   100
 73
     1
 74
     3
 75
     0
 76
     0
 77
     0
 78
     0
  0
ENDTAB
  0
TABLE
  2
LTYPE
  5
5
330
0
100
AcDbSymbolTable
 70
     1
  0
LTYPE
  5
14
330
5
100
AcDbSymbolTableRecord
100
AcDbLinetypeTableRecord
  2
BYBLOCK
 70
     0
  3

 72
    65
 73
     0
 40
0.0
  0
LTYPE
  5
15
330
5
100
AcDbSymbolTableRecord
100
AcDbLinetypeTableRecord
  2
BYLAYER
 70
     0
  3

 72
    65
 73
     0
 40
0.0
  0
LTYPE
  5
16
330
5
100
AcDbSymbolTableRecord
100
AcDbLinetypeTableRecord
  2
CONTINUOUS
 70
     0
  3
Solid line
 72
    65
 73
     0
 40
0.0
  0
ENDTAB
  0
TABLE
  2
LAYER
  5
2
100
AcDbSymbolTable
 70
2
  0
LAYER
  5
50
100
AcDbSymbolTableRecord
100
AcDbLayerTableRecord
  2
0
 70
0
  6
CONTINUOUS
  0
LAYER
  5
51
100
AcDbSymbolTableRecord
100
AcDbLayerTableRecord
  2
cut.coverTop
 70
0
  6
CONTINUOUS
  0
ENDTAB
  0
TABLE
  2
STYLE
  5
3
330
0
100
AcDbSymbolTable
 70
     1
  0
STYLE
  5
11
330
3
100
AcDbSymbolTableRecord
100
AcDbTextStyleTableRecord
  2
STANDARD
 70
     0
 40
0.0
 41
1.0
 50
0.0
 71
     0
 42
2.5
  3
txt
  4

  0
ENDTAB
  0
TABLE
  2
VIEW
  5
6
330
0
100
AcDbSymbolTable
 70
     0
  0
ENDTAB
  0
TABLE
  2
UCS
  5
7
330
0
100
AcDbSymbolTable
 70
     0
  0
ENDTAB
  0
TABLE
  2
APPID
  5
9
330
0
100
AcDbSymbolTable
 70
     2
  0
APPID
  5
12
330
9
100
AcDbSymbolTableRecord
100
AcDbRegAppTableRecord
  2
ACAD
 70
     0
  0
ENDTAB
  0
TABLE
  2
DIMSTYLE
  5
A
330
0
100
AcDbSymbolTable
 70
     1
  0
DIMSTYLE
105
27
330
A
100
AcDbSymbolTableRecord
100
AcDbDimStyleTableRecord
  2
ISO-25
 70
     0
  3

  4

  5

  6

  7

 40
1.0
 41
2.5
 42
0.625
 43
3.75
 44
1.25
 45
0.0
 46
0.0
 47
0.0
 48
0.0
140
2.5
141
2.5
142
0.0
143
0.03937007874016
144
1.0
145
0.0
146
1.0
147
0.625
 71
     0
 72
     0
 73
     0
 74
     0
 75
     0
 76
     0
 77
     1
 78
     8
170
     0
171
     3
172
     1
173
     0
174
     0
175
     0
176
     0
177
     0
178
     0
270
     2
271
     2
272
     2
273
     2
274
     3
340
11
275
     0
280
     0
281
     0
282
     0
283
     0
284
     8
285
     0
286
     0
287
     3
288
     0
  0
ENDTAB
  0
TABLE
  2
BLOCK_RECORD
  5
1
330
0
100
AcDbSymbolTable
 70
     1
  0
BLOCK_RECORD
  5
1F
330
1
100
AcDbSymbolTableRecord
100
AcDbBlockTableRecord
  2
*MODEL_SPACE
  0
BLOCK_RECORD
  5
1B
330
1
100
AcDbSymbolTableRecord
100
AcDbBlockTableRecord
  2
*PAPER_SPACE
  0
ENDTAB
  0
ENDSEC
  0
SECTION
  2
BLOCKS
  0
BLOCK
  5
20
330
1F
100
AcDbEntity
  8
0
100
AcDbBlockBegin
  2
*MODEL_SPACE
 70
     0
 10
0.0
 20
0.0
 30
0.0
  3
*MODEL_SPACE
  1

  0
ENDBLK
  5
21
330
1F
100
AcDbEntity
  8
0
100
AcDbBlockEnd
  0
BLOCK
  5
1C
330
1B
100
AcDbEntity
 67
     1
  8
0
100
AcDbBlockBegin
  2
*PAPER_SPACE
  1

  0
ENDBLK
  5
1D
330
1B
100
AcDbEntity
 67
     1
  8
0
100
AcDbBlockEnd
  0
ENDSEC
  0
SECTION
  2
ENTITIES
  0
SPLINE
  5
100
100
AcDbEntity
  8
cut.coverTop
 62
1
100
AcDbSpline
 70
8
 71
3
 72
8
 73
4
 74
0
 40
0
 40
0
 40
0
 40
0
 40
1
 40
1
 40
1
 40
1
 10
16.850578
 20
106.518038
 30
0.0
 10
16.850578
 20
105.634384
 30
0.0
 10
16.134234
 20
104.918025
 30
0.0
 10
15.250580
 20
104.918025
 30
0.0
  0
SPLINE
  5
101
100
AcDbEntity
  8
cut.coverTop
 62
1
100
AcDbSpline
 70
8
 71
3
 72
8
 73
4
 74
0
 40
0
 40
0
 40
0
 40
0
 40
1
 40
1
 40
1
 40
1
 10
15.250580
 20
104.918025
 30
0.0
 10
14.366926
 20
104.918025
 30
0.0
 10
13.650582
 20
105.634384
 30
0.0
 10
13.650582
 20
106.518038
 30
0.0
  0
SPLINE
  5
102
100
AcDbEntity
  8
cut.coverTop
 62
1
100
AcDbSpline
 70
8
 71
3
 72
8
 73
4
 74
0
 40
0
 40
0
 40
0
 40
0
 40
1
 40
1
 40
1
 40
1
 10
13.650582
 20
106.518038
 30
0.0
 10
13.650582
 20
107.401693
 30
0.0
 10
14.366926
 20
108.118026
 30
0.0
 10
15.250580
 20
108.118026
 30
0.0
  0
SPLINE
  5
103
100
AcDbEntity
  8
cut.coverTop
 62
1
100
AcDbSpline
 70
8
 71
3
 72
8
 73
4
 74
0
 40
0
 40
0
 40
0
 40
0
 40
1
 40
1
 40
1
 40
1
 10
15.250580
 20
108.118026
 30
0.0
 10
16.134234
 20
108.118026
 30
0.0
 10
16.850578
 20
107.401693
 30
0.0
 10
16.850578
 20
106.518038
 30
0.0
  0
SPLINE
  5
104
100
AcDbEntity
  8
cut.coverTop
 62
1
100
AcDbSpline
 70
8
 71
3
 72
8
 73
4
 74
0
 40
0
 40
0
 40
0
 40
0
 40
1
 40
1
 40
1
 40
1
 10
59.850529
 20
186.517932
 30
0.0
 10
59.850529
 20
185.634277
 30
0.0
 10
59.134186
 20
184.917945
 30
0.0
 10
58.250531
 20
184.917945
 30
0.0
  0
SPLINE
  5
105
100
AcDbEntity
  8
cut.coverTop
 62
1
100
AcDbSpline
 70
8
 71
3
 72
8
 73
4
 74
0
 40
0
 40
0
 40
0
 40
0
 40
1
 40
1
 40
1
 40
1
 10
58.250531
 20
184.917945
 30
0.0
 10
57.366876
 20
184.917945
 30
0.0
 10
56.650533
 20
185.634277
 30
0.0
 10
56.650533
 20
186.517932
 30
0.0
  0
SPLINE
  5
106
100
AcDbEntity
  8
cut.coverTop
 62
1
100
AcDbSpline
 70
8
 71
3
 72
8
 73
4
 74
0
 40
0
 40
0
 40
0
 40
0
 40
1
 40
1
 40
1
 40
1
 10
56.650533
 20
186.517932
 30
0.0
 10
56.650533
 20
187.401587
 30
0.0
 10
57.366876
 20
188.117946
 30
0.0
 10
58.250531
 20
188.117946
 30
0.0
  0
SPLINE
  5
107
100
AcDbEntity
  8
cut.coverTop
 62
1
100
AcDbSpline
 70
8
 71
3
 72
8
 73
4
 74
0
 40
0
 40
0
 40
0
 40
0
 40
1
 40
1
 40
1
 40
1
 10
58.250531
 20
188.117946
 30
0.0
 10
59.134186
 20
188.117946
 30
0.0
 10
59.850529
 20
187.401587
 30
0.0
 10
59.850529
 20
186.517932
 30
0.0
  0
SPLINE
  5
108
100
AcDbEntity
  8
cut.coverTop
 62
1
100
AcDbSpline
 70
8
 71
3
 72
8
 73
4
 74
0
 40
0
 40
0
 40
0
 40
0
 40
1
 40
1
 40
1
 40
1
 10
339.850193
 20
186.517932
 30
0.0
 10
339.850193
 20
185.634277
 30
0.0
 10
339.133861
 20
184.917945
 30
0.0
 10
338.250206
 20
184.917945
 30
0.0
  0
SPLINE
  5
109
100
AcDbEntity
  8
cut.coverTop
 62
1
100
AcDbSpline
 70
8
 71
3
 72
8
 73
4
 74
0
 40
0
 40
0
 40
0
 40
0
 40
1
 40
1
 40
1
 40
1
 10
338.250206
 20
184.917945
 30
0.0
 10
337.825867
 20
184.917945
 30
0.0
 10
337.418885
 20
185.086511
 30
0.0
 10
337.118822
 20
185.386548
 30
0.0
  0
SPLINE
  5
10a
100
AcDbEntity
  8
cut.coverTop
 62
1
100
AcDbSpline
 70
8
 71
3
 72
8
 73
4
 74
0
 40
0
 40
0
 40
0
 40
0
 40
1
 40
1
 40
1
 40
1
 10
337.118822
 20
185.386548
 30
0.0
 10
336.818758
 20
185.686612
 30
0.0
 10
336.650192
 20
186.093594
 30
0.0
 10
336.650192
 20
186.517932
 30
0.0
  0
SPLINE
  5
10b
100
AcDbEntity
  8
cut.coverTop
 62
1
100
AcDbSpline
 70
8
 71
3
 72
8
 73
4
 74
0
 40
0
 40
0
 40
0
 40
0
 40
1
 40
1
 40
1
 40
1
 10
336.650192
 20
186.517932
 30
0.0
 10
336.650192
 20
186.942297
 30
0.0
 10
336.818758
 20
187.349253
 30
0.0
 10
337.118822
 20
187.649316
 30
0.0
  0
SPLINE
  5
10c
100
AcDbEntity
  8
cut.coverTop
 62
1
100
AcDbSpline
 70
8
 71
3
 72
8
 73
4
 74
0
 40
0
 40
0
 40
0
 40
0
 40
1
 40
1
 40
1
 40
1
 10
337.118822
 20
187.649316
 30
0.0
 10
337.418885
 20
187.949380
 30
0.0
 10
337.825867
 20
188.117946
 30
0.0
 10
338.250206
 20
188.117946
 30
0.0
  0
SPLINE
  5
10d
100
AcDbEntity
  8
cut.coverTop
 62
1
100
AcDbSpline
 70
8
 71
3
 72
8
 73
4
 74
0
 40
0
 40
0
 40
0
 40
0
 40
1
 40
1
 40
1
 40
1
 10
338.250206
 20
188.117946
 30
0.0
 10
339.133861
 20
188.117946
 30
0.0
 10
339.850193
 20
187.401587
 30
0.0
 10
339.850193
 20
186.517932
 30
0.0
  0
SPLINE
  5
10e
100
AcDbEntity
  8
cut.coverTop
 62
1
100
AcDbSpline
 70
8
 71
3
 72
8
 73
4
 74
0
 40
0
 40
0
 40
0
 40
0
 40
1
 40
1
 40
1
 40
1
 10
234.850309
 20
164.517975
 30
0.0
 10
234.850307
 20
163.634320
 30
0.0
 10
234.133966
 20
162.917961
 30
0.0
 10
233.250312
 20
162.917961
 30
0.0
  0
SPLINE
  5
10f
100
AcDbEntity
  8
cut.coverTop
 62
1
100
AcDbSpline
 70
8
 71
3
 72
8
 73
4
 74
0
 40
0
 40
0
 40
0
 40
0
 40
1
 40
1
 40
1
 40
1
 10
233.250312
 20
162.917961
 30
0.0
 10
232.825965
 20
162.917961
 30
0.0
 10
232.418999
 20
163.086527
 30
0.0
 10
232.118941
 20
163.386591
 30
0.0
  0
SPLINE
  5
110
100
AcDbEntity
  8
cut.coverTop
 62
1
100
AcDbSpline
 70
8
 71
3
 72
8
 73
4
 74
0
 40
0
 40
0
 40
0
 40
0
 40
1
 40
1
 40
1
 40
1
 10
232.118941
 20
163.386591
 30
0.0
 10
231.818882
 20
163.686655
 30
0.0
 10
231.650311
 20
164.093610
 30
0.0
 10
231.650311
 20
164.517975
 30
0.0
  0
SPLINE
  5
111
100
AcDbEntity
  8
cut.coverTop
 62
1
100
AcDbSpline
 70
8
 71
3
 72
8
 73
4
 74
0
 40
0
 40
0
 40
0
 40
0
 40
1
 40
1
 40
1
 40
1
 10
231.650311
 20
164.517975
 30
0.0
 10
231.650311
 20
164.942313
 30
0.0
 10
231.818882
 20
165.349269
 30
0.0
 10
232.118941
 20
165.649333
 30
0.0
  0
SPLINE
  5
112
100
AcDbEntity
  8
cut.coverTop
 62
1
100
AcDbSpline
 70
8
 71
3
 72
8
 73
4
 74
0
 40
0
 40
0
 40
0
 40
0
 40
1
 40
1
 40
1
 40
1
 10
232.118941
 20
165.649333
 30
0.0
 10
232.418999
 20
165.949396
 30
0.0
 10
232.825965
 20
166.117962
 30
0.0
 10
233.250312
 20
166.117962
 30
0.0
  0
SPLINE
  5
113
100
AcDbEntity
  8
cut.coverTop
 62
1
100
AcDbSpline
 70
8
 71
3
 72
8
 73
4
 74
0
 40
0
 40
0
 40
0
 40
0
 40
1
 40
1
 40
1
 40
1
 10
233.250312
 20
166.117962
 30
0.0
 10
233.674658
 20
166.117962
 30
0.0
 10
234.081624
 20
165.949396
 30
0.0
 10
234.381682
 20
165.649333
 30
0.0
  0
SPLINE
  5
114
100
AcDbEntity
  8
cut.coverTop
 62
1
100
AcDbSpline
 70
8
 71
3
 72
8
 73
4
 74
0
 40
0
 40
0
 40
0
 40
0
 40
1
 40
1
 40
1
 40
1
 10
234.381682
 20
165.649333
 30
0.0
 10
234.681738
 20
165.349269
 30
0.0
 10
234.850309
 20
164.942313
 30
0.0
 10
234.850309
 20
164.517975
 30
0.0
  0
SPLINE
  5
115
100
AcDbEntity
  8
cut.coverTop
 62
1
100
AcDbSpline
 70
8
 71
3
 72
8
 73
4
 74
0
 40
0
 40
0
 40
0
 40
0
 40
1
 40
1
 40
1
 40
1
 10
164.850402
 20
164.517975
 30
0.0
 10
164.850402
 20
163.634320
 30
0.0
 10
164.134059
 20
162.917961
 30
0.0
 10
163.250404
 20
162.917961
 30
0.0
  0
SPLINE
  5
116
100
AcDbEntity
  8
cut.coverTop
 62
1
100
AcDbSpline
 70
8
 71
3
 72
8
 73
4
 74
0
 40
0
 40
0
 40
0
 40
0
 40
1
 40
1
 40
1
 40
1
 10
163.250404
 20
162.917961
 30
0.0
 10
162.366752
 20
162.917961
 30
0.0
 10
161.650406
 20
163.634320
 30
0.0
 10
161.650406
 20
164.517975
 30
0.0
  0
SPLINE
  5
117
100
AcDbEntity
  8
cut.coverTop
 62
1
100
AcDbSpline
 70
8
 71
3
 72
8
 73
4
 74
0
 40
0
 40
0
 40
0
 40
0
 40
1
 40
1
 40
1
 40
1
 10
161.650406
 20
164.517975
 30
0.0
 10
161.650406
 20
164.942313
 30
0.0
 10
161.818977
 20
165.349269
 30
0.0
 10
162.119033
 20
165.649333
 30
0.0
  0
SPLINE
  5
118
100
AcDbEntity
  8
cut.coverTop
 62
1
100
AcDbSpline
 70
8
 71
3
 72
8
 73
4
 74
0
 40
0
 40
0
 40
0
 40
0
 40
1
 40
1
 40
1
 40
1
 10
162.119033
 20
165.649333
 30
0.0
 10
162.419092
 20
165.949396
 30
0.0
 10
162.826058
 20
166.117962
 30
0.0
 10
163.250404
 20
166.117962
 30
0.0
  0
SPLINE
  5
119
100
AcDbEntity
  8
cut.coverTop
 62
1
100
AcDbSpline
 70
8
 71
3
 72
8
 73
4
 74
0
 40
0
 40
0
 40
0
 40
0
 40
1
 40
1
 40
1
 40
1
 10
163.250404
 20
166.117962
 30
0.0
 10
163.674751
 20
166.117962
 30
0.0
 10
164.081717
 20
165.949396
 30
0.0
 10
164.381775
 20
165.649333
 30
0.0
  0
SPLINE
  5
11a
100
AcDbEntity
  8
cut.coverTop
 62
1
100
AcDbSpline
 70
8
 71
3
 72
8
 73
4
 74
0
 40
0
 40
0
 40
0
 40
0
 40
1
 40
1
 40
1
 40
1
 10
164.381775
 20
165.649333
 30
0.0
 10
164.681833
 20
165.349269
 30
0.0
 10
164.850402
 20
164.942313
 30
0.0
 10
164.850402
 20
164.517975
 30
0.0
  0
SPLINE
  5
11b
100
AcDbEntity
  8
cut.coverTop
 62
1
100
AcDbSpline
 70
8
 71
3
 72
8
 73
4
 74
0
 40
0
 40
0
 40
0
 40
0
 40
1
 40
1
 40
1
 40
1
 10
199.850362
 20
41.518105
 30
0.0
 10
199.850362
 20
41.093766
 30
0.0
 10
199.681791
 20
40.686811
 30
0.0
 10
199.381733
 20
40.386747
 30
0.0
  0
SPLINE
  5
11c
100
AcDbEntity
  8
cut.coverTop
 62
1
100
AcDbSpline
 70
8
 71
3
 72
8
 73
4
 74
0
 40
0
 40
0
 40
0
 40
0
 40
1
 40
1
 40
1
 40
1
 10
199.381733
 20
40.386747
 30
0.0
 10
199.081674
 20
40.086683
 30
0.0
 10
198.674708
 20
39.918117
 30
0.0
 10
198.250362
 20
39.918117
 30
0.0
  0
SPLINE
  5
11d
100
AcDbEntity
  8
cut.coverTop
 62
1
100
AcDbSpline
 70
8
 71
3
 72
8
 73
4
 74
0
 40
0
 40
0
 40
0
 40
0
 40
1
 40
1
 40
1
 40
1
 10
198.250362
 20
39.918117
 30
0.0
 10
197.366707
 20
39.918117
 30
0.0
 10
196.650364
 20
40.634450
 30
0.0
 10
196.650364
 20
41.518105
 30
0.0
  0
SPLINE
  5
11e
100
AcDbEntity
  8
cut.coverTop
 62
1
100
AcDbSpline
 70
8
 71
3
 72
8
 73
4
 74
0
 40
0
 40
0
 40
0
 40
0
 40
1
 40
1
 40
1
 40
1
 10
196.650364
 20
41.518105
 30
0.0
 10
196.650364
 20
42.401759
 30
0.0
 10
197.366707
 20
43.118118
 30
0.0
 10
198.250362
 20
43.118118
 30
0.0
  0
SPLINE
  5
11f
100
AcDbEntity
  8
cut.coverTop
 62
1
100
AcDbSpline
 70
8
 71
3
 72
8
 73
4
 74
0
 40
0
 40
0
 40
0
 40
0
 40
1
 40
1
 40
1
 40
1
 10
198.250362
 20
43.118118
 30
0.0
 10
198.674708
 20
43.118118
 30
0.0
 10
199.081674
 20
42.949552
 30
0.0
 10
199.381733
 20
42.649489
 30
0.0
  0
SPLINE
  5
120
100
AcDbEntity
  8
cut.coverTop
 62
1
100
AcDbSpline
 70
8
 71
3
 72
8
 73
4
 74
0
 40
0
 40
0
 40
0
 40
0
 40
1
 40
1
 40
1
 40
1
 10
199.381733
 20
42.649489
 30
0.0
 10
199.681791
 20
42.349425
 30
0.0
 10
199.850362
 20
41.942470
 30
0.0
 10
199.850362
 20
41.518105
 30
0.0
  0
SPLINE
  5
121
100
AcDbEntity
  8
cut.coverTop
 62
1
100
AcDbSpline
 70
8
 71
3
 72
8
 73
4
 74
0
 40
0
 40
0
 40
0
 40
0
 40
1
 40
1
 40
1
 40
1
 10
382.850169
 20
106.518038
 30
0.0
 10
382.850169
 20
105.634384
 30
0.0
 10
382.133810
 20
104.918051
 30
0.0
 10
381.250182
 20
104.918025
 30
0.0
  0
SPLINE
  5
122
100
AcDbEntity
  8
cut.coverTop
 62
1
100
AcDbSpline
 70
8
 71
3
 72
8
 73
4
 74
0
 40
0
 40
0
 40
0
 40
0
 40
1
 40
1
 40
1
 40
1
 10
381.250182
 20
104.918025
 30
0.0
 10
380.825817
 20
104.918025
 30
0.0
 10
380.418862
 20
105.086591
 30
0.0
 10
380.118798
 20
105.386654
 30
0.0
  0
SPLINE
  5
123
100
AcDbEntity
  8
cut.coverTop
 62
1
100
AcDbSpline
 70
8
 71
3
 72
8
 73
4
 74
0
 40
0
 40
0
 40
0
 40
0
 40
1
 40
1
 40
1
 40
1
 10
380.118798
 20
105.386654
 30
0.0
 10
379.818734
 20
105.686718
 30
0.0
 10
379.650142
 20
106.093674
 30
0.0
 10
379.650142
 20
106.518038
 30
0.0
  0
SPLINE
  5
124
100
AcDbEntity
  8
cut.coverTop
 62
1
100
AcDbSpline
 70
8
 71
3
 72
8
 73
4
 74
0
 40
0
 40
0
 40
0
 40
0
 40
1
 40
1
 40
1
 40
1
 10
379.650142
 20
106.518038
 30
0.0
 10
379.650142
 20
106.942377
 30
0.0
 10
379.818734
 20
107.349359
 30
0.0
 10
380.118798
 20
107.649422
 30
0.0
  0
SPLINE
  5
125
100
AcDbEntity
  8
cut.coverTop
 62
1
100
AcDbSpline
 70
8
 71
3
 72
8
 73
4
 74
0
 40
0
 40
0
 40
0
 40
0
 40
1
 40
1
 40
1
 40
1
 10
380.118798
 20
107.649422
 30
0.0
 10
380.418862
 20
107.949460
 30
0.0
 10
380.825817
 20
108.118026
 30
0.0
 10
381.250182
 20
108.118026
 30
0.0
  0
SPLINE
  5
126
100
AcDbEntity
  8
cut.coverTop
 62
1
100
AcDbSpline
 70
8
 71
3
 72
8
 73
4
 74
0
 40
0
 40
0
 40
0
 40
0
 40
1
 40
1
 40
1
 40
1
 10
381.250182
 20
108.118026
 30
0.0
 10
382.133810
 20
108.118026
 30
0.0
 10
382.850169
 20
107.401693
 30
0.0
 10
382.850169
 20
106.518038
 30
0.0
  0
SPLINE
  5
127
100
AcDbEntity
  8
cut.coverTop
 62
1
100
AcDbSpline
 70
8
 71
3
 72
8
 73
4
 74
0
 40
0
 40
0
 40
0
 40
0
 40
1
 40
1
 40
1
 40
1
 10
369.850140
 20
56.518091
 30
0.0
 10
369.850140
 20
55.634437
 30
0.0
 10
369.133781
 20
54.918104
 30
0.0
 10
368.250126
 20
54.918104
 30
0.0
  0
SPLINE
  5
128
100
AcDbEntity
  8
cut.coverTop
 62
1
100
AcDbSpline
 70
8
 71
3
 72
8
 73
4
 74
0
 40
0
 40
0
 40
0
 40
0
 40
1
 40
1
 40
1
 40
1
 10
368.250126
 20
54.918104
 30
0.0
 10
367.366471
 20
54.918104
 30
0.0
 10
366.650139
 20
55.634437
 30
0.0
 10
366.650139
 20
56.518091
 30
0.0
  0
SPLINE
  5
129
100
AcDbEntity
  8
cut.coverTop
 62
1
100
AcDbSpline
 70
8
 71
3
 72
8
 73
4
 74
0
 40
0
 40
0
 40
0
 40
0
 40
1
 40
1
 40
1
 40
1
 10
366.650139
 20
56.518091
 30
0.0
 10
366.650139
 20
57.401746
 30
0.0
 10
367.366471
 20
58.118079
 30
0.0
 10
368.250126
 20
58.118105
 30
0.0
  0
SPLINE
  5
12a
100
AcDbEntity
  8
cut.coverTop
 62
1
100
AcDbSpline
 70
8
 71
3
 72
8
 73
4
 74
0
 40
0
 40
0
 40
0
 40
0
 40
1
 40
1
 40
1
 40
1
 10
368.250126
 20
58.118105
 30
0.0
 10
369.133781
 20
58.118079
 30
0.0
 10
369.850140
 20
57.401746
 30
0.0
 10
369.850140
 20
56.518091
 30
0.0
  0
SPLINE
  5
12b
100
AcDbEntity
  8
cut.coverTop
 62
1
100
AcDbSpline
 70
8
 71
3
 72
8
 73
4
 74
0
 40
0
 40
0
 40
0
 40
0
 40
1
 40
1
 40
1
 40
1
 10
269.850272
 20
16.518144
 30
0.0
 10
269.850272
 20
15.634489
 30
0.0
 10
269.133940
 20
14.918157
 30
0.0
 10
268.250285
 20
14.918157
 30
0.0
  0
SPLINE
  5
12c
100
AcDbEntity
  8
cut.coverTop
 62
1
100
AcDbSpline
 70
8
 71
3
 72
8
 73
4
 74
0
 40
0
 40
0
 40
0
 40
0
 40
1
 40
1
 40
1
 40
1
 10
268.250285
 20
14.918157
 30
0.0
 10
267.366630
 20
14.918157
 30
0.0
 10
266.650271
 20
15.634489
 30
0.0
 10
266.650271
 20
16.518144
 30
0.0
  0
SPLINE
  5
12d
100
AcDbEntity
  8
cut.coverTop
 62
1
100
AcDbSpline
 70
8
 71
3
 72
8
 73
4
 74
0
 40
0
 40
0
 40
0
 40
0
 40
1
 40
1
 40
1
 40
1
 10
266.650271
 20
16.518144
 30
0.0
 10
266.650271
 20
17.401799
 30
0.0
 10
267.366630
 20
18.118158
 30
0.0
 10
268.250285
 20
18.118158
 30
0.0
  0
SPLINE
  5
12e
100
AcDbEntity
  8
cut.coverTop
 62
1
100
AcDbSpline
 70
8
 71
3
 72
8
 73
4
 74
0
 40
0
 40
0
 40
0
 40
0
 40
1
 40
1
 40
1
 40
1
 10
268.250285
 20
18.118158
 30
0.0
 10
269.133940
 20
18.118158
 30
0.0
 10
269.850272
 20
17.401799
 30
0.0
 10
269.850272
 20
16.518144
 30
0.0
  0
SPLINE
  5
12f
100
AcDbEntity
  8
cut.coverTop
 62
1
100
AcDbSpline
 70
8
 71
3
 72
8
 73
4
 74
0
 40
0
 40
0
 40
0
 40
0
 40
1
 40
1
 40
1
 40
1
 10
129.850444
 20
16.518144
 30
0.0
 10
129.850444
 20
15.634489
 30
0.0
 10
129.134101
 20
14.918157
 30
0.0
 10
128.250446
 20
14.918157
 30
0.0
  0
SPLINE
  5
130
100
AcDbEntity
  8
cut.coverTop
 62
1
100
AcDbSpline
 70
8
 71
3
 72
8
 73
4
 74
0
 40
0
 40
0
 40
0
 40
0
 40
1
 40
1
 40
1
 40
1
 10
128.250446
 20
14.918157
 30
0.0
 10
127.826103
 20
14.918157
 30
0.0
 10
127.419134
 20
15.086723
 30
0.0
 10
127.119078
 20
15.386760
 30
0.0
  0
SPLINE
  5
131
100
AcDbEntity
  8
cut.coverTop
 62
1
100
AcDbSpline
 70
8
 71
3
 72
8
 73
4
 74
0
 40
0
 40
0
 40
0
 40
0
 40
1
 40
1
 40
1
 40
1
 10
127.119078
 20
15.386760
 30
0.0
 10
126.819017
 20
15.686824
 30
0.0
 10
126.650449
 20
16.093806
 30
0.0
 10
126.650449
 20
16.518144
 30
0.0
  0
SPLINE
  5
132
100
AcDbEntity
  8
cut.coverTop
 62
1
100
AcDbSpline
 70
8
 71
3
 72
8
 73
4
 74
0
 40
0
 40
0
 40
0
 40
0
 40
1
 40
1
 40
1
 40
1
 10
126.650449
 20
16.518144
 30
0.0
 10
126.650446
 20
16.942483
 30
0.0
 10
126.819017
 20
17.349465
 30
0.0
 10
127.119076
 20
17.649502
 30
0.0
  0
SPLINE
  5
133
100
AcDbEntity
  8
cut.coverTop
 62
1
100
AcDbSpline
 70
8
 71
3
 72
8
 73
4
 74
0
 40
0
 40
0
 40
0
 40
0
 40
1
 40
1
 40
1
 40
1
 10
127.119076
 20
17.649502
 30
0.0
 10
127.419134
 20
17.949566
 30
0.0
 10
127.826100
 20
18.118132
 30
0.0
 10
128.250446
 20
18.118132
 30
0.0
  0
SPLINE
  5
134
100
AcDbEntity
  8
cut.coverTop
 62
1
100
AcDbSpline
 70
8
 71
3
 72
8
 73
4
 74
0
 40
0
 40
0
 40
0
 40
0
 40
1
 40
1
 40
1
 40
1
 10
128.250446
 20
18.118132
 30
0.0
 10
128.674793
 20
18.118132
 30
0.0
 10
129.081759
 20
17.949566
 30
0.0
 10
129.381817
 20
17.649502
 30
0.0
  0
SPLINE
  5
135
100
AcDbEntity
  8
cut.coverTop
 62
1
100
AcDbSpline
 70
8
 71
3
 72
8
 73
4
 74
0
 40
0
 40
0
 40
0
 40
0
 40
1
 40
1
 40
1
 40
1
 10
129.381817
 20
17.649502
 30
0.0
 10
129.681876
 20
17.349465
 30
0.0
 10
129.850444
 20
16.942483
 30
0.0
 10
129.850444
 20
16.518144
 30
0.0
  0
SPLINE
  5
136
100
AcDbEntity
  8
cut.coverTop
 62
1
100
AcDbSpline
 70
8
 71
3
 72
8
 73
4
 74
0
 40
0
 40
0
 40
0
 40
0
 40
1
 40
1
 40
1
 40
1
 10
29.850566
 20
56.518091
 30
0.0
 10
29.850566
 20
56.093753
 30
0.0
 10
29.681995
 20
55.686771
 30
0.0
 10
29.381936
 20
55.386734
 30
0.0
  0
SPLINE
  5
137
100
AcDbEntity
  8
cut.coverTop
 62
1
100
AcDbSpline
 70
8
 71
3
 72
8
 73
4
 74
0
 40
0
 40
0
 40
0
 40
0
 40
1
 40
1
 40
1
 40
1
 10
29.381936
 20
55.386734
 30
0.0
 10
29.081878
 20
55.086670
 30
0.0
 10
28.674912
 20
54.918104
 30
0.0
 10
28.250566
 20
54.918104
 30
0.0
  0
SPLINE
  5
138
100
AcDbEntity
  8
cut.coverTop
 62
1
100
AcDbSpline
 70
8
 71
3
 72
8
 73
4
 74
0
 40
0
 40
0
 40
0
 40
0
 40
1
 40
1
 40
1
 40
1
 10
28.250566
 20
54.918104
 30
0.0
 10
27.826219
 20
54.918104
 30
0.0
 10
27.419253
 20
55.086670
 30
0.0
 10
27.119195
 20
55.386734
 30
0.0
  0
SPLINE
  5
139
100
AcDbEntity
  8
cut.coverTop
 62
1
100
AcDbSpline
 70
8
 71
3
 72
8
 73
4
 74
0
 40
0
 40
0
 40
0
 40
0
 40
1
 40
1
 40
1
 40
1
 10
27.119195
 20
55.386734
 30
0.0
 10
26.819139
 20
55.686771
 30
0.0
 10
26.650568
 20
56.093753
 30
0.0
 10
26.650568
 20
56.518091
 30
0.0
  0
SPLINE
  5
13a
100
AcDbEntity
  8
cut.coverTop
 62
1
100
AcDbSpline
 70
8
 71
3
 72
8
 73
4
 74
0
 40
0
 40
0
 40
0
 40
0
 40
1
 40
1
 40
1
 40
1
 10
26.650568
 20
56.518091
 30
0.0
 10
26.650568
 20
57.401746
 30
0.0
 10
27.366911
 20
58.118105
 30
0.0
 10
28.250566
 20
58.118105
 30
0.0
  0
SPLINE
  5
13b
100
AcDbEntity
  8
cut.coverTop
 62
1
100
AcDbSpline
 70
8
 71
3
 72
8
 73
4
 74
0
 40
0
 40
0
 40
0
 40
0
 40
1
 40
1
 40
1
 40
1
 10
28.250566
 20
58.118105
 30
0.0
 10
28.674912
 20
58.118105
 30
0.0
 10
29.081878
 20
57.949513
 30
0.0
 10
29.381936
 20
57.649475
 30
0.0
  0
SPLINE
  5
13c
100
AcDbEntity
  8
cut.coverTop
 62
1
100
AcDbSpline
 70
8
 71
3
 72
8
 73
4
 74
0
 40
0
 40
0
 40
0
 40
0
 40
1
 40
1
 40
1
 40
1
 10
29.381936
 20
57.649475
 30
0.0
 10
29.681995
 20
57.349412
 30
0.0
 10
29.850566
 20
56.942430
 30
0.0
 10
29.850566
 20
56.518091
 30
0.0
  0
SPLINE
  5
13d
100
AcDbEntity
  8
cut.coverTop
 62
1
100
AcDbSpline
 70
8
 71
3
 72
8
 73
4
 74
0
 40
0
 40
0
 40
0
 40
0
 40
1
 40
1
 40
1
 40
1
 10
12.542377
 20
131.517999
 30
0.0
 10
10.250586
 20
121.518025
 30
0.0
 10
8.250589
 20
111.518025
 30
0.0
 10
8.250589
 20
101.518052
 30
0.0
  0
SPLINE
  5
13e
100
AcDbEntity
  8
cut.coverTop
 62
1
100
AcDbSpline
 70
8
 71
3
 72
8
 73
4
 74
0
 40
0
 40
0
 40
0
 40
0
 40
1
 40
1
 40
1
 40
1
 10
8.250589
 20
101.518052
 30
0.0
 10
8.250581
 20
50.155607
 30
0.0
 10
50.037830
 20
6.668004
 30
0.0
 10
101.400259
 20
6.668031
 30
0.0
  0
SPLINE
  5
13f
100
AcDbEntity
  8
cut.coverTop
 62
1
100
AcDbSpline
 70
8
 71
3
 72
8
 73
4
 74
0
 40
0
 40
0
 40
0
 40
0
 40
1
 40
1
 40
1
 40
1
 10
101.400259
 20
6.668031
 30
0.0
 10
152.762690
 20
6.668004
 30
0.0
 10
163.250404
 20
34.018124
 30
0.0
 10
190.750374
 20
34.018124
 30
0.0
  0
SPLINE
  5
140
100
AcDbEntity
  8
cut.coverTop
 62
1
100
AcDbSpline
 70
8
 71
3
 72
8
 73
4
 74
0
 40
0
 40
0
 40
0
 40
0
 40
1
 40
1
 40
1
 40
1
 10
205.750355
 20
34.018124
 30
0.0
 10
233.250322
 20
34.018124
 30
0.0
 10
243.737922
 20
6.668031
 30
0.0
 10
295.100343
 20
6.668031
 30
0.0
  0
SPLINE
  5
141
100
AcDbEntity
  8
cut.coverTop
 62
1
100
AcDbSpline
 70
8
 71
3
 72
8
 73
4
 74
0
 40
0
 40
0
 40
0
 40
0
 40
1
 40
1
 40
1
 40
1
 10
295.100343
 20
6.668031
 30
0.0
 10
346.462761
 20
6.668004
 30
0.0
 10
388.250153
 20
50.155607
 30
0.0
 10
388.250153
 20
101.518052
 30
0.0
  0
SPLINE
  5
142
100
AcDbEntity
  8
cut.coverTop
 62
1
100
AcDbSpline
 70
8
 71
3
 72
8
 73
4
 74
0
 40
0
 40
0
 40
0
 40
0
 40
1
 40
1
 40
1
 40
1
 10
388.250153
 20
101.518052
 30
0.0
 10
388.250153
 20
111.518025
 30
0.0
 10
386.250142
 20
121.518025
 30
0.0
 10
384.250158
 20
131.517999
 30
0.0
  0
LWPOLYLINE
  5
143
100
AcDbEntity
  8
cut.coverTop
 62
1
100
AcDbPolyline
 90
2
 70
0
 10
25.250570
 20
188.517943
 30
0.0
 10
12.542377
 20
131.517999
 30
0.0
  0
SPLINE
  5
144
100
AcDbEntity
  8
cut.coverTop
 62
1
100
AcDbSpline
 70
8
 71
3
 72
8
 73
4
 74
0
 40
0
 40
0
 40
0
 40
0
 40
1
 40
1
 40
1
 40
1
 10
371.250155
 20
188.517943
 30
0.0
 10
370.250163
 20
193.517930
 30
0.0
 10
367.320328
 20
193.517930
 30
0.0
 10
363.320333
 20
193.517930
 30
0.0
  0
SPLINE
  5
145
100
AcDbEntity
  8
cut.coverTop
 62
1
100
AcDbSpline
 70
8
 71
3
 72
8
 73
4
 74
0
 40
0
 40
0
 40
0
 40
0
 40
1
 40
1
 40
1
 40
1
 10
363.320333
 20
193.517930
 30
0.0
 10
228.320484
 20
181.517946
 30
0.0
 10
228.250325
 20
162.517964
 30
0.0
 10
207.750350
 20
162.517964
 30
0.0
  0
LWPOLYLINE
  5
146
100
AcDbEntity
  8
cut.coverTop
 62
1
100
AcDbPolyline
 90
2
 70
0
 10
190.750374
 20
34.018124
 30
0.0
 10
205.750355
 20
34.018124
 30
0.0
  0
SPLINE
  5
147
100
AcDbEntity
  8
cut.coverTop
 62
1
100
AcDbSpline
 70
8
 71
3
 72
8
 73
4
 74
0
 40
0
 40
0
 40
0
 40
0
 40
1
 40
1
 40
1
 40
1
 10
188.750374
 20
162.517964
 30
0.0
 10
168.250396
 20
162.517964
 30
0.0
 10
168.250396
 20
181.517946
 30
0.0
 10
33.250560
 20
193.517930
 30
0.0
  0
SPLINE
  5
148
100
AcDbEntity
  8
cut.coverTop
 62
1
100
AcDbSpline
 70
8
 71
3
 72
8
 73
4
 74
0
 40
0
 40
0
 40
0
 40
0
 40
1
 40
1
 40
1
 40
1
 10
33.250560
 20
193.517930
 30
0.0
 10
29.250566
 20
193.517930
 30
0.0
 10
26.250568
 20
193.517930
 30
0.0
 10
25.250570
 20
188.517943
 30
0.0
  0
LWPOLYLINE
  5
149
100
AcDbEntity
  8
cut.coverTop
 62
1
100
AcDbPolyline
 90
2
 70
0
 10
384.250158
 20
131.517999
 30
0.0
 10
371.250155
 20
188.517943
 30
0.0
  0
LWPOLYLINE
  5
14a
100
AcDbEntity
  8
cut.coverTop
 62
1
100
AcDbPolyline
 90
2
 70
0
 10
207.750350
 20
162.517964
 30
0.0
 10
188.750374
 20
162.517964
 30
0.0
  0
LWPOLYLINE
  5
14b
100
AcDbEntity
  8
cut.coverTop
 62
1
100
AcDbPolyline
 90
22
 70
1
 10
382.877871
 20
115.002030
 30
0.0
 10
365.826597
 20
188.859202
 30
0.0
 10
319.544070
 20
178.174039
 30
0.0
 10
318.869224
 20
181.097153
 30
0.0
 10
300.356208
 20
176.823077
 30
0.0
 10
300.018785
 20
178.284634
 30
0.0
 10
281.700661
 20
174.055563
 30
0.0
 10
282.038084
 20
172.594006
 30
0.0
 10
263.525065
 20
168.319929
 30
0.0
 10
263.862488
 20
166.858398
 30
0.0
 10
226.836480
 20
158.310272
 30
0.0
 10
243.887745
 20
84.453099
 30
0.0
 10
280.913764
 20
93.001225
 30
0.0
 10
284.850391
 20
75.949767
 30
0.0
 10
303.168542
 20
80.178838
 30
0.0
 10
302.831119
 20
81.640395
 30
0.0
 10
321.539001
 20
85.959450
 30
0.0
 10
321.876424
 20
84.497893
 30
0.0
 10
340.389413
 20
88.771969
 30
0.0
 10
341.064286
 20
85.848855
 30
0.0
 10
377.895426
 20
94.352002
 30
0.0
 10
373.621350
 20
112.864992
 30
0.0
  0
LWPOLYLINE
  5
14c
100
AcDbEntity
  8
cut.coverTop
 62
1
100
AcDbPolyline
 90
6
 70
1
 10
240.910005
 20
27.113721
 30
0.0
 10
208.651510
 20
61.706699
 30
0.0
 10
236.296635
 20
87.486201
 30
0.0
 10
249.254593
 20
73.590505
 30
0.0
 10
263.150283
 20
86.548465
 30
0.0
 10
282.450834
 20
65.851183
 30
0.0
  0
LWPOLYLINE
  5
14d
100
AcDbEntity
  8
cut.coverTop
 62
1
100
AcDbPolyline
 90
22
 70
1
 10
13.409190
 20
115.002030
 30
0.0
 10
30.460457
 20
188.859202
 30
0.0
 10
76.742976
 20
178.174039
 30
0.0
 10
77.417830
 20
181.097153
 30
0.0
 10
95.930841
 20
176.823077
 30
0.0
 10
96.268266
 20
178.284634
 30
0.0
 10
114.586398
 20
174.055563
 30
0.0
 10
114.248973
 20
172.594006
 30
0.0
 10
132.761984
 20
168.319929
 30
0.0
 10
132.424558
 20
166.858398
 30
0.0
 10
169.450572
 20
158.310272
 30
0.0
 10
152.399309
 20
84.453099
 30
0.0
 10
115.373290
 20
93.001225
 30
0.0
 10
111.436652
 20
75.949767
 30
0.0
 10
93.118517
 20
80.178838
 30
0.0
 10
93.455946
 20
81.640395
 30
0.0
 10
74.748064
 20
85.959450
 30
0.0
 10
74.410636
 20
84.497893
 30
0.0
 10
55.897627
 20
88.771969
 30
0.0
 10
55.222776
 20
85.848855
 30
0.0
 10
18.391632
 20
94.352002
 30
0.0
 10
22.665696
 20
112.864992
 30
0.0
  0
LWPOLYLINE
  5
14e
100
AcDbEntity
  8
cut.coverTop
 62
1
100
AcDbPolyline
 90
6
 70
1
 10
155.377050
 20
27.113721
 30
0.0
 10
187.635545
 20
61.706699
 30
0.0
 10
159.990417
 20
87.486201
 30
0.0
 10
147.032462
 20
73.590505
 30
0.0
 10
133.136766
 20
86.548465
 30
0.0
 10
113.836231
 20
65.851183
 30
0.0
  0
ENDSEC
  0
SECTION
  2
OBJECTS
  0
DICTIONARY
  5
C
330
0
100
AcDbDictionary
  3
ACAD_GROUP
350
D
  3
ACAD_MLINESTYLE
350
17
  0
DICTIONARY
  5
D
330
C
100
AcDbDictionary
  0
DICTIONARY
  5
1A
330
C
100
AcDbDictionary
  0
DICTIONARY
  5
17
330
C
100
AcDbDictionary
  3
STANDARD
350
18
  0
DICTIONARY
  5
19
330
C
100
AcDbDictionary
  0
ENDSEC
  0
EOF
