  0
SECTION
  2
HEADER
  9
$ACADVER
  1
AC1014
  9
$HANDSEED
  5
FFFF
  9
$MEASUREMENT
 70
     1
  0
ENDSEC
  0
SECTION
  2
TABLES
  0
TABLE
  2
VPORT
  5
8
330
0
100
AcDbSymbolTable
 70
     4
  0
VPORT
  5
2E
330
8
100
AcDbSymbolTableRecord
100
AcDbViewportTableRecord
  2
*ACTIVE
 70
     0
 10
0.0
 20
0.0
 11
1.0
 21
1.0
 12
210.0
 22
148.5
 13
0.0
 23
0.0
 14
10.0
 24
10.0
 15
10.0
 25
10.0
 16
0.0
 26
0.0
 36
1.0
 17
0.0
 27
0.0
 37
0.0
 40
341.0
 41
1.24
 42
50.0
 43
0.0
 44
0.0
 50
0.0
 51
0.0
 71
     0
 72
   100
 73
     1
 74
     3
 75
     0
 76
     0
 77
     0
 78
     0
  0
ENDTAB
  0
TABLE
  2
LTYPE
  5
5
330
0
100
AcDbSymbolTable
 70
     1
  0
LTYPE
  5
14
330
5
100
AcDbSymbolTableRecord
100
AcDbLinetypeTableRecord
  2
BYBLOCK
 70
     0
  3

 72
    65
 73
     0
 40
0.0
  0
LTYPE
  5
15
330
5
100
AcDbSymbolTableRecord
100
AcDbLinetypeTableRecord
  2
BYLAYER
 70
     0
  3

 72
    65
 73
     0
 40
0.0
  0
LTYPE
  5
16
330
5
100
AcDbSymbolTableRecord
100
AcDbLinetypeTableRecord
  2
CONTINUOUS
 70
     0
  3
Solid line
 72
    65
 73
     0
 40
0.0
  0
ENDTAB
  0
TABLE
  2
LAYER
  5
2
100
AcDbSymbolTable
 70
2
  0
LAYER
  5
50
100
AcDbSymbolTableRecord
100
AcDbLayerTableRecord
  2
0
 70
0
  6
CONTINUOUS
  0
LAYER
  5
51
100
AcDbSymbolTableRecord
100
AcDbLayerTableRecord
  2
cut.innerBottom0
 70
0
  6
CONTINUOUS
  0
ENDTAB
  0
TABLE
  2
STYLE
  5
3
330
0
100
AcDbSymbolTable
 70
     1
  0
STYLE
  5
11
330
3
100
AcDbSymbolTableRecord
100
AcDbTextStyleTableRecord
  2
STANDARD
 70
     0
 40
0.0
 41
1.0
 50
0.0
 71
     0
 42
2.5
  3
txt
  4

  0
ENDTAB
  0
TABLE
  2
VIEW
  5
6
330
0
100
AcDbSymbolTable
 70
     0
  0
ENDTAB
  0
TABLE
  2
UCS
  5
7
330
0
100
AcDbSymbolTable
 70
     0
  0
ENDTAB
  0
TABLE
  2
APPID
  5
9
330
0
100
AcDbSymbolTable
 70
     2
  0
APPID
  5
12
330
9
100
AcDbSymbolTableRecord
100
AcDbRegAppTableRecord
  2
ACAD
 70
     0
  0
ENDTAB
  0
TABLE
  2
DIMSTYLE
  5
A
330
0
100
AcDbSymbolTable
 70
     1
  0
DIMSTYLE
105
27
330
A
100
AcDbSymbolTableRecord
100
AcDbDimStyleTableRecord
  2
ISO-25
 70
     0
  3

  4

  5

  6

  7

 40
1.0
 41
2.5
 42
0.625
 43
3.75
 44
1.25
 45
0.0
 46
0.0
 47
0.0
 48
0.0
140
2.5
141
2.5
142
0.0
143
0.03937007874016
144
1.0
145
0.0
146
1.0
147
0.625
 71
     0
 72
     0
 73
     0
 74
     0
 75
     0
 76
     0
 77
     1
 78
     8
170
     0
171
     3
172
     1
173
     0
174
     0
175
     0
176
     0
177
     0
178
     0
270
     2
271
     2
272
     2
273
     2
274
     3
340
11
275
     0
280
     0
281
     0
282
     0
283
     0
284
     8
285
     0
286
     0
287
     3
288
     0
  0
ENDTAB
  0
TABLE
  2
BLOCK_RECORD
  5
1
330
0
100
AcDbSymbolTable
 70
     1
  0
BLOCK_RECORD
  5
1F
330
1
100
AcDbSymbolTableRecord
100
AcDbBlockTableRecord
  2
*MODEL_SPACE
  0
BLOCK_RECORD
  5
1B
330
1
100
AcDbSymbolTableRecord
100
AcDbBlockTableRecord
  2
*PAPER_SPACE
  0
ENDTAB
  0
ENDSEC
  0
SECTION
  2
BLOCKS
  0
BLOCK
  5
20
330
1F
100
AcDbEntity
  8
0
100
AcDbBlockBegin
  2
*MODEL_SPACE
 70
     0
 10
0.0
 20
0.0
 30
0.0
  3
*MODEL_SPACE
  1

  0
ENDBLK
  5
21
330
1F
100
AcDbEntity
  8
0
100
AcDbBlockEnd
  0
BLOCK
  5
1C
330
1B
100
AcDbEntity
 67
     1
  8
0
100
AcDbBlockBegin
  2
*PAPER_SPACE
  1

  0
ENDBLK
  5
1D
330
1B
100
AcDbEntity
 67
     1
  8
0
100
AcDbBlockEnd
  0
ENDSEC
  0
SECTION
  2
ENTITIES
  0
SPLINE
  5
100
100
AcDbEntity
  8
cut.innerBottom0
 62
1
100
AcDbSpline
 70
8
 71
3
 72
8
 73
4
 74
0
 40
0
 40
0
 40
0
 40
0
 40
1
 40
1
 40
1
 40
1
 10
18.118836
 20
106.728525
 30
0.0
 10
18.118836
 20
105.844870
 30
0.0
 10
17.402492
 20
105.128511
 30
0.0
 10
16.518838
 20
105.128511
 30
0.0
  0
SPLINE
  5
101
100
AcDbEntity
  8
cut.innerBottom0
 62
1
100
AcDbSpline
 70
8
 71
3
 72
8
 73
4
 74
0
 40
0
 40
0
 40
0
 40
0
 40
1
 40
1
 40
1
 40
1
 10
16.518838
 20
105.128511
 30
0.0
 10
15.635183
 20
105.128511
 30
0.0
 10
14.918840
 20
105.844870
 30
0.0
 10
14.918840
 20
106.728525
 30
0.0
  0
SPLINE
  5
102
100
AcDbEntity
  8
cut.innerBottom0
 62
1
100
AcDbSpline
 70
8
 71
3
 72
8
 73
4
 74
0
 40
0
 40
0
 40
0
 40
0
 40
1
 40
1
 40
1
 40
1
 10
14.918840
 20
106.728525
 30
0.0
 10
14.918840
 20
107.612180
 30
0.0
 10
15.635183
 20
108.328512
 30
0.0
 10
16.518838
 20
108.328512
 30
0.0
  0
SPLINE
  5
103
100
AcDbEntity
  8
cut.innerBottom0
 62
1
100
AcDbSpline
 70
8
 71
3
 72
8
 73
4
 74
0
 40
0
 40
0
 40
0
 40
0
 40
1
 40
1
 40
1
 40
1
 10
16.518838
 20
108.328512
 30
0.0
 10
17.402492
 20
108.328512
 30
0.0
 10
18.118836
 20
107.612180
 30
0.0
 10
18.118836
 20
106.728525
 30
0.0
  0
SPLINE
  5
104
100
AcDbEntity
  8
cut.innerBottom0
 62
1
100
AcDbSpline
 70
8
 71
3
 72
8
 73
4
 74
0
 40
0
 40
0
 40
0
 40
0
 40
1
 40
1
 40
1
 40
1
 10
61.118785
 20
186.728419
 30
0.0
 10
61.118785
 20
185.844764
 30
0.0
 10
60.402442
 20
185.128432
 30
0.0
 10
59.518787
 20
185.128432
 30
0.0
  0
SPLINE
  5
105
100
AcDbEntity
  8
cut.innerBottom0
 62
1
100
AcDbSpline
 70
8
 71
3
 72
8
 73
4
 74
0
 40
0
 40
0
 40
0
 40
0
 40
1
 40
1
 40
1
 40
1
 10
59.518787
 20
185.128432
 30
0.0
 10
58.635132
 20
185.128432
 30
0.0
 10
57.918789
 20
185.844764
 30
0.0
 10
57.918789
 20
186.728419
 30
0.0
  0
SPLINE
  5
106
100
AcDbEntity
  8
cut.innerBottom0
 62
1
100
AcDbSpline
 70
8
 71
3
 72
8
 73
4
 74
0
 40
0
 40
0
 40
0
 40
0
 40
1
 40
1
 40
1
 40
1
 10
57.918789
 20
186.728419
 30
0.0
 10
57.918789
 20
187.612074
 30
0.0
 10
58.635132
 20
188.328433
 30
0.0
 10
59.518787
 20
188.328433
 30
0.0
  0
SPLINE
  5
107
100
AcDbEntity
  8
cut.innerBottom0
 62
1
100
AcDbSpline
 70
8
 71
3
 72
8
 73
4
 74
0
 40
0
 40
0
 40
0
 40
0
 40
1
 40
1
 40
1
 40
1
 10
59.518787
 20
188.328433
 30
0.0
 10
60.402442
 20
188.328433
 30
0.0
 10
61.118785
 20
187.612074
 30
0.0
 10
61.118785
 20
186.728419
 30
0.0
  0
SPLINE
  5
108
100
AcDbEntity
  8
cut.innerBottom0
 62
1
100
AcDbSpline
 70
8
 71
3
 72
8
 73
4
 74
0
 40
0
 40
0
 40
0
 40
0
 40
1
 40
1
 40
1
 40
1
 10
341.118446
 20
186.728419
 30
0.0
 10
341.118446
 20
185.844764
 30
0.0
 10
340.402113
 20
185.128432
 30
0.0
 10
339.518459
 20
185.128432
 30
0.0
  0
SPLINE
  5
109
100
AcDbEntity
  8
cut.innerBottom0
 62
1
100
AcDbSpline
 70
8
 71
3
 72
8
 73
4
 74
0
 40
0
 40
0
 40
0
 40
0
 40
1
 40
1
 40
1
 40
1
 10
339.518459
 20
185.128432
 30
0.0
 10
339.094120
 20
185.128432
 30
0.0
 10
338.687138
 20
185.296997
 30
0.0
 10
338.387075
 20
185.597035
 30
0.0
  0
SPLINE
  5
10a
100
AcDbEntity
  8
cut.innerBottom0
 62
1
100
AcDbSpline
 70
8
 71
3
 72
8
 73
4
 74
0
 40
0
 40
0
 40
0
 40
0
 40
1
 40
1
 40
1
 40
1
 10
338.387075
 20
185.597035
 30
0.0
 10
338.087011
 20
185.897099
 30
0.0
 10
337.918445
 20
186.304080
 30
0.0
 10
337.918445
 20
186.728419
 30
0.0
  0
SPLINE
  5
10b
100
AcDbEntity
  8
cut.innerBottom0
 62
1
100
AcDbSpline
 70
8
 71
3
 72
8
 73
4
 74
0
 40
0
 40
0
 40
0
 40
0
 40
1
 40
1
 40
1
 40
1
 10
337.918445
 20
186.728419
 30
0.0
 10
337.918445
 20
187.152784
 30
0.0
 10
338.087011
 20
187.559739
 30
0.0
 10
338.387075
 20
187.859803
 30
0.0
  0
SPLINE
  5
10c
100
AcDbEntity
  8
cut.innerBottom0
 62
1
100
AcDbSpline
 70
8
 71
3
 72
8
 73
4
 74
0
 40
0
 40
0
 40
0
 40
0
 40
1
 40
1
 40
1
 40
1
 10
338.387075
 20
187.859803
 30
0.0
 10
338.687138
 20
188.159867
 30
0.0
 10
339.094120
 20
188.328433
 30
0.0
 10
339.518459
 20
188.328433
 30
0.0
  0
SPLINE
  5
10d
100
AcDbEntity
  8
cut.innerBottom0
 62
1
100
AcDbSpline
 70
8
 71
3
 72
8
 73
4
 74
0
 40
0
 40
0
 40
0
 40
0
 40
1
 40
1
 40
1
 40
1
 10
339.518459
 20
188.328433
 30
0.0
 10
340.402113
 20
188.328433
 30
0.0
 10
341.118446
 20
187.612074
 30
0.0
 10
341.118446
 20
186.728419
 30
0.0
  0
SPLINE
  5
10e
100
AcDbEntity
  8
cut.innerBottom0
 62
1
100
AcDbSpline
 70
8
 71
3
 72
8
 73
4
 74
0
 40
0
 40
0
 40
0
 40
0
 40
1
 40
1
 40
1
 40
1
 10
236.118565
 20
164.728461
 30
0.0
 10
236.118562
 20
163.844807
 30
0.0
 10
235.402222
 20
163.128448
 30
0.0
 10
234.518567
 20
163.128448
 30
0.0
  0
SPLINE
  5
10f
100
AcDbEntity
  8
cut.innerBottom0
 62
1
100
AcDbSpline
 70
8
 71
3
 72
8
 73
4
 74
0
 40
0
 40
0
 40
0
 40
0
 40
1
 40
1
 40
1
 40
1
 10
234.518567
 20
163.128448
 30
0.0
 10
234.094221
 20
163.128448
 30
0.0
 10
233.687255
 20
163.297014
 30
0.0
 10
233.387196
 20
163.597077
 30
0.0
  0
SPLINE
  5
110
100
AcDbEntity
  8
cut.innerBottom0
 62
1
100
AcDbSpline
 70
8
 71
3
 72
8
 73
4
 74
0
 40
0
 40
0
 40
0
 40
0
 40
1
 40
1
 40
1
 40
1
 10
233.387196
 20
163.597077
 30
0.0
 10
233.087138
 20
163.897141
 30
0.0
 10
232.918567
 20
164.304096
 30
0.0
 10
232.918567
 20
164.728461
 30
0.0
  0
SPLINE
  5
111
100
AcDbEntity
  8
cut.innerBottom0
 62
1
100
AcDbSpline
 70
8
 71
3
 72
8
 73
4
 74
0
 40
0
 40
0
 40
0
 40
0
 40
1
 40
1
 40
1
 40
1
 10
232.918567
 20
164.728461
 30
0.0
 10
232.918567
 20
165.152800
 30
0.0
 10
233.087138
 20
165.559755
 30
0.0
 10
233.387196
 20
165.859819
 30
0.0
  0
SPLINE
  5
112
100
AcDbEntity
  8
cut.innerBottom0
 62
1
100
AcDbSpline
 70
8
 71
3
 72
8
 73
4
 74
0
 40
0
 40
0
 40
0
 40
0
 40
1
 40
1
 40
1
 40
1
 10
233.387196
 20
165.859819
 30
0.0
 10
233.687255
 20
166.159883
 30
0.0
 10
234.094221
 20
166.328449
 30
0.0
 10
234.518567
 20
166.328449
 30
0.0
  0
SPLINE
  5
113
100
AcDbEntity
  8
cut.innerBottom0
 62
1
100
AcDbSpline
 70
8
 71
3
 72
8
 73
4
 74
0
 40
0
 40
0
 40
0
 40
0
 40
1
 40
1
 40
1
 40
1
 10
234.518567
 20
166.328449
 30
0.0
 10
234.942914
 20
166.328449
 30
0.0
 10
235.349879
 20
166.159883
 30
0.0
 10
235.649938
 20
165.859819
 30
0.0
  0
SPLINE
  5
114
100
AcDbEntity
  8
cut.innerBottom0
 62
1
100
AcDbSpline
 70
8
 71
3
 72
8
 73
4
 74
0
 40
0
 40
0
 40
0
 40
0
 40
1
 40
1
 40
1
 40
1
 10
235.649938
 20
165.859819
 30
0.0
 10
235.949994
 20
165.559755
 30
0.0
 10
236.118565
 20
165.152800
 30
0.0
 10
236.118565
 20
164.728461
 30
0.0
  0
SPLINE
  5
115
100
AcDbEntity
  8
cut.innerBottom0
 62
1
100
AcDbSpline
 70
8
 71
3
 72
8
 73
4
 74
0
 40
0
 40
0
 40
0
 40
0
 40
1
 40
1
 40
1
 40
1
 10
166.118658
 20
164.728461
 30
0.0
 10
166.118658
 20
163.844807
 30
0.0
 10
165.402315
 20
163.128448
 30
0.0
 10
164.518660
 20
163.128448
 30
0.0
  0
SPLINE
  5
116
100
AcDbEntity
  8
cut.innerBottom0
 62
1
100
AcDbSpline
 70
8
 71
3
 72
8
 73
4
 74
0
 40
0
 40
0
 40
0
 40
0
 40
1
 40
1
 40
1
 40
1
 10
164.518660
 20
163.128448
 30
0.0
 10
163.635008
 20
163.128448
 30
0.0
 10
162.918662
 20
163.844807
 30
0.0
 10
162.918662
 20
164.728461
 30
0.0
  0
SPLINE
  5
117
100
AcDbEntity
  8
cut.innerBottom0
 62
1
100
AcDbSpline
 70
8
 71
3
 72
8
 73
4
 74
0
 40
0
 40
0
 40
0
 40
0
 40
1
 40
1
 40
1
 40
1
 10
162.918662
 20
164.728461
 30
0.0
 10
162.918662
 20
165.152800
 30
0.0
 10
163.087233
 20
165.559755
 30
0.0
 10
163.387289
 20
165.859819
 30
0.0
  0
SPLINE
  5
118
100
AcDbEntity
  8
cut.innerBottom0
 62
1
100
AcDbSpline
 70
8
 71
3
 72
8
 73
4
 74
0
 40
0
 40
0
 40
0
 40
0
 40
1
 40
1
 40
1
 40
1
 10
163.387289
 20
165.859819
 30
0.0
 10
163.687347
 20
166.159883
 30
0.0
 10
164.094313
 20
166.328449
 30
0.0
 10
164.518660
 20
166.328449
 30
0.0
  0
SPLINE
  5
119
100
AcDbEntity
  8
cut.innerBottom0
 62
1
100
AcDbSpline
 70
8
 71
3
 72
8
 73
4
 74
0
 40
0
 40
0
 40
0
 40
0
 40
1
 40
1
 40
1
 40
1
 10
164.518660
 20
166.328449
 30
0.0
 10
164.943006
 20
166.328449
 30
0.0
 10
165.349972
 20
166.159883
 30
0.0
 10
165.650031
 20
165.859819
 30
0.0
  0
SPLINE
  5
11a
100
AcDbEntity
  8
cut.innerBottom0
 62
1
100
AcDbSpline
 70
8
 71
3
 72
8
 73
4
 74
0
 40
0
 40
0
 40
0
 40
0
 40
1
 40
1
 40
1
 40
1
 10
165.650031
 20
165.859819
 30
0.0
 10
165.950089
 20
165.559755
 30
0.0
 10
166.118658
 20
165.152800
 30
0.0
 10
166.118658
 20
164.728461
 30
0.0
  0
SPLINE
  5
11b
100
AcDbEntity
  8
cut.innerBottom0
 62
1
100
AcDbSpline
 70
8
 71
3
 72
8
 73
4
 74
0
 40
0
 40
0
 40
0
 40
0
 40
1
 40
1
 40
1
 40
1
 10
201.118618
 20
41.728591
 30
0.0
 10
201.118618
 20
41.304253
 30
0.0
 10
200.950047
 20
40.897297
 30
0.0
 10
200.649988
 20
40.597233
 30
0.0
  0
SPLINE
  5
11c
100
AcDbEntity
  8
cut.innerBottom0
 62
1
100
AcDbSpline
 70
8
 71
3
 72
8
 73
4
 74
0
 40
0
 40
0
 40
0
 40
0
 40
1
 40
1
 40
1
 40
1
 10
200.649988
 20
40.597233
 30
0.0
 10
200.349930
 20
40.297170
 30
0.0
 10
199.942964
 20
40.128604
 30
0.0
 10
199.518617
 20
40.128604
 30
0.0
  0
SPLINE
  5
11d
100
AcDbEntity
  8
cut.innerBottom0
 62
1
100
AcDbSpline
 70
8
 71
3
 72
8
 73
4
 74
0
 40
0
 40
0
 40
0
 40
0
 40
1
 40
1
 40
1
 40
1
 10
199.518617
 20
40.128604
 30
0.0
 10
198.634963
 20
40.128604
 30
0.0
 10
197.918620
 20
40.844936
 30
0.0
 10
197.918620
 20
41.728591
 30
0.0
  0
SPLINE
  5
11e
100
AcDbEntity
  8
cut.innerBottom0
 62
1
100
AcDbSpline
 70
8
 71
3
 72
8
 73
4
 74
0
 40
0
 40
0
 40
0
 40
0
 40
1
 40
1
 40
1
 40
1
 10
197.918620
 20
41.728591
 30
0.0
 10
197.918620
 20
42.612246
 30
0.0
 10
198.634963
 20
43.328605
 30
0.0
 10
199.518617
 20
43.328605
 30
0.0
  0
SPLINE
  5
11f
100
AcDbEntity
  8
cut.innerBottom0
 62
1
100
AcDbSpline
 70
8
 71
3
 72
8
 73
4
 74
0
 40
0
 40
0
 40
0
 40
0
 40
1
 40
1
 40
1
 40
1
 10
199.518617
 20
43.328605
 30
0.0
 10
199.942964
 20
43.328605
 30
0.0
 10
200.349930
 20
43.160039
 30
0.0
 10
200.649988
 20
42.859975
 30
0.0
  0
SPLINE
  5
120
100
AcDbEntity
  8
cut.innerBottom0
 62
1
100
AcDbSpline
 70
8
 71
3
 72
8
 73
4
 74
0
 40
0
 40
0
 40
0
 40
0
 40
1
 40
1
 40
1
 40
1
 10
200.649988
 20
42.859975
 30
0.0
 10
200.950047
 20
42.559911
 30
0.0
 10
201.118618
 20
42.152956
 30
0.0
 10
201.118618
 20
41.728591
 30
0.0
  0
SPLINE
  5
121
100
AcDbEntity
  8
cut.innerBottom0
 62
1
100
AcDbSpline
 70
8
 71
3
 72
8
 73
4
 74
0
 40
0
 40
0
 40
0
 40
0
 40
1
 40
1
 40
1
 40
1
 10
384.118422
 20
106.728525
 30
0.0
 10
384.118422
 20
105.844870
 30
0.0
 10
383.402063
 20
105.128538
 30
0.0
 10
382.518435
 20
105.128511
 30
0.0
  0
SPLINE
  5
122
100
AcDbEntity
  8
cut.innerBottom0
 62
1
100
AcDbSpline
 70
8
 71
3
 72
8
 73
4
 74
0
 40
0
 40
0
 40
0
 40
0
 40
1
 40
1
 40
1
 40
1
 10
382.518435
 20
105.128511
 30
0.0
 10
382.094070
 20
105.128511
 30
0.0
 10
381.687115
 20
105.297077
 30
0.0
 10
381.387051
 20
105.597141
 30
0.0
  0
SPLINE
  5
123
100
AcDbEntity
  8
cut.innerBottom0
 62
1
100
AcDbSpline
 70
8
 71
3
 72
8
 73
4
 74
0
 40
0
 40
0
 40
0
 40
0
 40
1
 40
1
 40
1
 40
1
 10
381.387051
 20
105.597141
 30
0.0
 10
381.086987
 20
105.897205
 30
0.0
 10
380.918395
 20
106.304160
 30
0.0
 10
380.918395
 20
106.728525
 30
0.0
  0
SPLINE
  5
124
100
AcDbEntity
  8
cut.innerBottom0
 62
1
100
AcDbSpline
 70
8
 71
3
 72
8
 73
4
 74
0
 40
0
 40
0
 40
0
 40
0
 40
1
 40
1
 40
1
 40
1
 10
380.918395
 20
106.728525
 30
0.0
 10
380.918395
 20
107.152863
 30
0.0
 10
381.086987
 20
107.559845
 30
0.0
 10
381.387051
 20
107.859909
 30
0.0
  0
SPLINE
  5
125
100
AcDbEntity
  8
cut.innerBottom0
 62
1
100
AcDbSpline
 70
8
 71
3
 72
8
 73
4
 74
0
 40
0
 40
0
 40
0
 40
0
 40
1
 40
1
 40
1
 40
1
 10
381.387051
 20
107.859909
 30
0.0
 10
381.687115
 20
108.159946
 30
0.0
 10
382.094070
 20
108.328512
 30
0.0
 10
382.518435
 20
108.328512
 30
0.0
  0
SPLINE
  5
126
100
AcDbEntity
  8
cut.innerBottom0
 62
1
100
AcDbSpline
 70
8
 71
3
 72
8
 73
4
 74
0
 40
0
 40
0
 40
0
 40
0
 40
1
 40
1
 40
1
 40
1
 10
382.518435
 20
108.328512
 30
0.0
 10
383.402063
 20
108.328512
 30
0.0
 10
384.118422
 20
107.612180
 30
0.0
 10
384.118422
 20
106.728525
 30
0.0
  0
SPLINE
  5
127
100
AcDbEntity
  8
cut.innerBottom0
 62
1
100
AcDbSpline
 70
8
 71
3
 72
8
 73
4
 74
0
 40
0
 40
0
 40
0
 40
0
 40
1
 40
1
 40
1
 40
1
 10
371.118393
 20
56.728578
 30
0.0
 10
371.118393
 20
55.844923
 30
0.0
 10
370.402034
 20
55.128591
 30
0.0
 10
369.518379
 20
55.128591
 30
0.0
  0
SPLINE
  5
128
100
AcDbEntity
  8
cut.innerBottom0
 62
1
100
AcDbSpline
 70
8
 71
3
 72
8
 73
4
 74
0
 40
0
 40
0
 40
0
 40
0
 40
1
 40
1
 40
1
 40
1
 10
369.518379
 20
55.128591
 30
0.0
 10
368.634724
 20
55.128591
 30
0.0
 10
367.918392
 20
55.844923
 30
0.0
 10
367.918392
 20
56.728578
 30
0.0
  0
SPLINE
  5
129
100
AcDbEntity
  8
cut.innerBottom0
 62
1
100
AcDbSpline
 70
8
 71
3
 72
8
 73
4
 74
0
 40
0
 40
0
 40
0
 40
0
 40
1
 40
1
 40
1
 40
1
 10
367.918392
 20
56.728578
 30
0.0
 10
367.918392
 20
57.612233
 30
0.0
 10
368.634724
 20
58.328565
 30
0.0
 10
369.518379
 20
58.328592
 30
0.0
  0
SPLINE
  5
12a
100
AcDbEntity
  8
cut.innerBottom0
 62
1
100
AcDbSpline
 70
8
 71
3
 72
8
 73
4
 74
0
 40
0
 40
0
 40
0
 40
0
 40
1
 40
1
 40
1
 40
1
 10
369.518379
 20
58.328592
 30
0.0
 10
370.402034
 20
58.328565
 30
0.0
 10
371.118393
 20
57.612233
 30
0.0
 10
371.118393
 20
56.728578
 30
0.0
  0
SPLINE
  5
12b
100
AcDbEntity
  8
cut.innerBottom0
 62
1
100
AcDbSpline
 70
8
 71
3
 72
8
 73
4
 74
0
 40
0
 40
0
 40
0
 40
0
 40
1
 40
1
 40
1
 40
1
 10
271.118525
 20
16.728631
 30
0.0
 10
271.118525
 20
15.844976
 30
0.0
 10
270.402193
 20
15.128643
 30
0.0
 10
269.518538
 20
15.128643
 30
0.0
  0
SPLINE
  5
12c
100
AcDbEntity
  8
cut.innerBottom0
 62
1
100
AcDbSpline
 70
8
 71
3
 72
8
 73
4
 74
0
 40
0
 40
0
 40
0
 40
0
 40
1
 40
1
 40
1
 40
1
 10
269.518538
 20
15.128643
 30
0.0
 10
268.634883
 20
15.128643
 30
0.0
 10
267.918524
 20
15.844976
 30
0.0
 10
267.918524
 20
16.728631
 30
0.0
  0
SPLINE
  5
12d
100
AcDbEntity
  8
cut.innerBottom0
 62
1
100
AcDbSpline
 70
8
 71
3
 72
8
 73
4
 74
0
 40
0
 40
0
 40
0
 40
0
 40
1
 40
1
 40
1
 40
1
 10
267.918524
 20
16.728631
 30
0.0
 10
267.918524
 20
17.612286
 30
0.0
 10
268.634883
 20
18.328645
 30
0.0
 10
269.518538
 20
18.328645
 30
0.0
  0
SPLINE
  5
12e
100
AcDbEntity
  8
cut.innerBottom0
 62
1
100
AcDbSpline
 70
8
 71
3
 72
8
 73
4
 74
0
 40
0
 40
0
 40
0
 40
0
 40
1
 40
1
 40
1
 40
1
 10
269.518538
 20
18.328645
 30
0.0
 10
270.402193
 20
18.328645
 30
0.0
 10
271.118525
 20
17.612286
 30
0.0
 10
271.118525
 20
16.728631
 30
0.0
  0
SPLINE
  5
12f
100
AcDbEntity
  8
cut.innerBottom0
 62
1
100
AcDbSpline
 70
8
 71
3
 72
8
 73
4
 74
0
 40
0
 40
0
 40
0
 40
0
 40
1
 40
1
 40
1
 40
1
 10
131.118700
 20
16.728631
 30
0.0
 10
131.118700
 20
15.844976
 30
0.0
 10
130.402357
 20
15.128643
 30
0.0
 10
129.518702
 20
15.128643
 30
0.0
  0
SPLINE
  5
130
100
AcDbEntity
  8
cut.innerBottom0
 62
1
100
AcDbSpline
 70
8
 71
3
 72
8
 73
4
 74
0
 40
0
 40
0
 40
0
 40
0
 40
1
 40
1
 40
1
 40
1
 10
129.518702
 20
15.128643
 30
0.0
 10
129.094358
 20
15.128643
 30
0.0
 10
128.687390
 20
15.297209
 30
0.0
 10
128.387334
 20
15.597247
 30
0.0
  0
SPLINE
  5
131
100
AcDbEntity
  8
cut.innerBottom0
 62
1
100
AcDbSpline
 70
8
 71
3
 72
8
 73
4
 74
0
 40
0
 40
0
 40
0
 40
0
 40
1
 40
1
 40
1
 40
1
 10
128.387334
 20
15.597247
 30
0.0
 10
128.087273
 20
15.897310
 30
0.0
 10
127.918704
 20
16.304292
 30
0.0
 10
127.918704
 20
16.728631
 30
0.0
  0
SPLINE
  5
132
100
AcDbEntity
  8
cut.innerBottom0
 62
1
100
AcDbSpline
 70
8
 71
3
 72
8
 73
4
 74
0
 40
0
 40
0
 40
0
 40
0
 40
1
 40
1
 40
1
 40
1
 10
127.918704
 20
16.728631
 30
0.0
 10
127.918702
 20
17.152969
 30
0.0
 10
128.087273
 20
17.559951
 30
0.0
 10
128.387331
 20
17.859988
 30
0.0
  0
SPLINE
  5
133
100
AcDbEntity
  8
cut.innerBottom0
 62
1
100
AcDbSpline
 70
8
 71
3
 72
8
 73
4
 74
0
 40
0
 40
0
 40
0
 40
0
 40
1
 40
1
 40
1
 40
1
 10
128.387331
 20
17.859988
 30
0.0
 10
128.687390
 20
18.160052
 30
0.0
 10
129.094356
 20
18.328618
 30
0.0
 10
129.518702
 20
18.328618
 30
0.0
  0
SPLINE
  5
134
100
AcDbEntity
  8
cut.innerBottom0
 62
1
100
AcDbSpline
 70
8
 71
3
 72
8
 73
4
 74
0
 40
0
 40
0
 40
0
 40
0
 40
1
 40
1
 40
1
 40
1
 10
129.518702
 20
18.328618
 30
0.0
 10
129.943048
 20
18.328618
 30
0.0
 10
130.350014
 20
18.160052
 30
0.0
 10
130.650073
 20
17.859988
 30
0.0
  0
SPLINE
  5
135
100
AcDbEntity
  8
cut.innerBottom0
 62
1
100
AcDbSpline
 70
8
 71
3
 72
8
 73
4
 74
0
 40
0
 40
0
 40
0
 40
0
 40
1
 40
1
 40
1
 40
1
 10
130.650073
 20
17.859988
 30
0.0
 10
130.950131
 20
17.559951
 30
0.0
 10
131.118700
 20
17.152969
 30
0.0
 10
131.118700
 20
16.728631
 30
0.0
  0
SPLINE
  5
136
100
AcDbEntity
  8
cut.innerBottom0
 62
1
100
AcDbSpline
 70
8
 71
3
 72
8
 73
4
 74
0
 40
0
 40
0
 40
0
 40
0
 40
1
 40
1
 40
1
 40
1
 10
31.118822
 20
56.728578
 30
0.0
 10
31.118822
 20
56.304239
 30
0.0
 10
30.950250
 20
55.897258
 30
0.0
 10
30.650192
 20
55.597220
 30
0.0
  0
SPLINE
  5
137
100
AcDbEntity
  8
cut.innerBottom0
 62
1
100
AcDbSpline
 70
8
 71
3
 72
8
 73
4
 74
0
 40
0
 40
0
 40
0
 40
0
 40
1
 40
1
 40
1
 40
1
 10
30.650192
 20
55.597220
 30
0.0
 10
30.350133
 20
55.297156
 30
0.0
 10
29.943168
 20
55.128591
 30
0.0
 10
29.518821
 20
55.128591
 30
0.0
  0
SPLINE
  5
138
100
AcDbEntity
  8
cut.innerBottom0
 62
1
100
AcDbSpline
 70
8
 71
3
 72
8
 73
4
 74
0
 40
0
 40
0
 40
0
 40
0
 40
1
 40
1
 40
1
 40
1
 10
29.518821
 20
55.128591
 30
0.0
 10
29.094475
 20
55.128591
 30
0.0
 10
28.687509
 20
55.297156
 30
0.0
 10
28.387450
 20
55.597220
 30
0.0
  0
SPLINE
  5
139
100
AcDbEntity
  8
cut.innerBottom0
 62
1
100
AcDbSpline
 70
8
 71
3
 72
8
 73
4
 74
0
 40
0
 40
0
 40
0
 40
0
 40
1
 40
1
 40
1
 40
1
 10
28.387450
 20
55.597220
 30
0.0
 10
28.087394
 20
55.897258
 30
0.0
 10
27.918823
 20
56.304239
 30
0.0
 10
27.918823
 20
56.728578
 30
0.0
  0
SPLINE
  5
13a
100
AcDbEntity
  8
cut.innerBottom0
 62
1
100
AcDbSpline
 70
8
 71
3
 72
8
 73
4
 74
0
 40
0
 40
0
 40
0
 40
0
 40
1
 40
1
 40
1
 40
1
 10
27.918823
 20
56.728578
 30
0.0
 10
27.918823
 20
57.612233
 30
0.0
 10
28.635166
 20
58.328592
 30
0.0
 10
29.518821
 20
58.328592
 30
0.0
  0
SPLINE
  5
13b
100
AcDbEntity
  8
cut.innerBottom0
 62
1
100
AcDbSpline
 70
8
 71
3
 72
8
 73
4
 74
0
 40
0
 40
0
 40
0
 40
0
 40
1
 40
1
 40
1
 40
1
 10
29.518821
 20
58.328592
 30
0.0
 10
29.943168
 20
58.328592
 30
0.0
 10
30.350133
 20
58.159999
 30
0.0
 10
30.650192
 20
57.859962
 30
0.0
  0
SPLINE
  5
13c
100
AcDbEntity
  8
cut.innerBottom0
 62
1
100
AcDbSpline
 70
8
 71
3
 72
8
 73
4
 74
0
 40
0
 40
0
 40
0
 40
0
 40
1
 40
1
 40
1
 40
1
 10
30.650192
 20
57.859962
 30
0.0
 10
30.950250
 20
57.559898
 30
0.0
 10
31.118822
 20
57.152916
 30
0.0
 10
31.118822
 20
56.728578
 30
0.0
  0
SPLINE
  5
13d
100
AcDbEntity
  8
cut.innerBottom0
 62
1
100
AcDbSpline
 70
8
 71
3
 72
8
 73
4
 74
0
 40
0
 40
0
 40
0
 40
0
 40
1
 40
1
 40
1
 40
1
 10
13.810634
 20
131.728485
 30
0.0
 10
11.518844
 20
121.728512
 30
0.0
 10
9.518846
 20
111.728512
 30
0.0
 10
9.518846
 20
101.728538
 30
0.0
  0
SPLINE
  5
13e
100
AcDbEntity
  8
cut.innerBottom0
 62
1
100
AcDbSpline
 70
8
 71
3
 72
8
 73
4
 74
0
 40
0
 40
0
 40
0
 40
0
 40
1
 40
1
 40
1
 40
1
 10
9.518846
 20
101.728538
 30
0.0
 10
9.518839
 20
50.366094
 30
0.0
 10
51.306086
 20
6.878491
 30
0.0
 10
102.668514
 20
6.878517
 30
0.0
  0
SPLINE
  5
13f
100
AcDbEntity
  8
cut.innerBottom0
 62
1
100
AcDbSpline
 70
8
 71
3
 72
8
 73
4
 74
0
 40
0
 40
0
 40
0
 40
0
 40
1
 40
1
 40
1
 40
1
 10
102.668514
 20
6.878517
 30
0.0
 10
154.030946
 20
6.878491
 30
0.0
 10
164.518660
 20
34.228611
 30
0.0
 10
192.018629
 20
34.228611
 30
0.0
  0
SPLINE
  5
140
100
AcDbEntity
  8
cut.innerBottom0
 62
1
100
AcDbSpline
 70
8
 71
3
 72
8
 73
4
 74
0
 40
0
 40
0
 40
0
 40
0
 40
1
 40
1
 40
1
 40
1
 10
207.018611
 20
34.228611
 30
0.0
 10
234.518578
 20
34.228611
 30
0.0
 10
245.006178
 20
6.878517
 30
0.0
 10
296.368596
 20
6.878517
 30
0.0
  0
SPLINE
  5
141
100
AcDbEntity
  8
cut.innerBottom0
 62
1
100
AcDbSpline
 70
8
 71
3
 72
8
 73
4
 74
0
 40
0
 40
0
 40
0
 40
0
 40
1
 40
1
 40
1
 40
1
 10
296.368596
 20
6.878517
 30
0.0
 10
347.731014
 20
6.878491
 30
0.0
 10
389.518406
 20
50.366094
 30
0.0
 10
389.518406
 20
101.728538
 30
0.0
  0
SPLINE
  5
142
100
AcDbEntity
  8
cut.innerBottom0
 62
1
100
AcDbSpline
 70
8
 71
3
 72
8
 73
4
 74
0
 40
0
 40
0
 40
0
 40
0
 40
1
 40
1
 40
1
 40
1
 10
389.518406
 20
101.728538
 30
0.0
 10
389.518406
 20
111.728512
 30
0.0
 10
387.518395
 20
121.728512
 30
0.0
 10
385.518411
 20
131.728485
 30
0.0
  0
LWPOLYLINE
  5
143
100
AcDbEntity
  8
cut.innerBottom0
 62
1
100
AcDbPolyline
 90
2
 70
0
 10
26.518826
 20
188.728429
 30
0.0
 10
13.810634
 20
131.728485
 30
0.0
  0
SPLINE
  5
144
100
AcDbEntity
  8
cut.innerBottom0
 62
1
100
AcDbSpline
 70
8
 71
3
 72
8
 73
4
 74
0
 40
0
 40
0
 40
0
 40
0
 40
1
 40
1
 40
1
 40
1
 10
372.518408
 20
188.728429
 30
0.0
 10
371.518416
 20
193.728416
 30
0.0
 10
368.518414
 20
193.728416
 30
0.0
 10
364.518419
 20
193.728416
 30
0.0
  0
SPLINE
  5
145
100
AcDbEntity
  8
cut.innerBottom0
 62
1
100
AcDbSpline
 70
8
 71
3
 72
8
 73
4
 74
0
 40
0
 40
0
 40
0
 40
0
 40
1
 40
1
 40
1
 40
1
 10
364.518419
 20
193.728416
 30
0.0
 10
229.518580
 20
181.728432
 30
0.0
 10
229.518580
 20
162.728451
 30
0.0
 10
209.018605
 20
162.728451
 30
0.0
  0
LWPOLYLINE
  5
146
100
AcDbEntity
  8
cut.innerBottom0
 62
1
100
AcDbPolyline
 90
2
 70
0
 10
192.018629
 20
34.228611
 30
0.0
 10
207.018611
 20
34.228611
 30
0.0
  0
SPLINE
  5
147
100
AcDbEntity
  8
cut.innerBottom0
 62
1
100
AcDbSpline
 70
8
 71
3
 72
8
 73
4
 74
0
 40
0
 40
0
 40
0
 40
0
 40
1
 40
1
 40
1
 40
1
 10
190.018629
 20
162.728451
 30
0.0
 10
169.518652
 20
162.728451
 30
0.0
 10
169.518652
 20
181.728432
 30
0.0
 10
34.518816
 20
193.728416
 30
0.0
  0
SPLINE
  5
148
100
AcDbEntity
  8
cut.innerBottom0
 62
1
100
AcDbSpline
 70
8
 71
3
 72
8
 73
4
 74
0
 40
0
 40
0
 40
0
 40
0
 40
1
 40
1
 40
1
 40
1
 10
34.518816
 20
193.728416
 30
0.0
 10
30.518821
 20
193.728416
 30
0.0
 10
27.518824
 20
193.728416
 30
0.0
 10
26.518826
 20
188.728429
 30
0.0
  0
LWPOLYLINE
  5
149
100
AcDbEntity
  8
cut.innerBottom0
 62
1
100
AcDbPolyline
 90
2
 70
0
 10
385.518411
 20
131.728485
 30
0.0
 10
372.518408
 20
188.728429
 30
0.0
  0
SPLINE
  5
14a
100
AcDbEntity
  8
cut.innerBottom0
 62
1
100
AcDbSpline
 70
8
 71
3
 72
8
 73
4
 74
0
 40
0
 40
0
 40
0
 40
0
 40
1
 40
1
 40
1
 40
1
 10
240.269806
 20
33.811284
 30
0.0
 10
239.407913
 20
33.099158
 30
0.0
 10
237.890127
 20
33.005311
 30
0.0
 10
237.234228
 20
33.623615
 30
0.0
  0
SPLINE
  5
14b
100
AcDbEntity
  8
cut.innerBottom0
 62
1
100
AcDbSpline
 70
8
 71
3
 72
8
 73
4
 74
0
 40
0
 40
0
 40
0
 40
0
 40
1
 40
1
 40
1
 40
1
 10
343.006961
 20
84.470466
 30
0.0
 10
341.789006
 20
84.189294
 30
0.0
 10
340.645900
 20
84.695124
 30
0.0
 10
340.420952
 20
85.669478
 30
0.0
  0
SPLINE
  5
14c
100
AcDbEntity
  8
cut.innerBottom0
 62
1
100
AcDbSpline
 70
8
 71
3
 72
8
 73
4
 74
0
 40
0
 40
0
 40
0
 40
0
 40
1
 40
1
 40
1
 40
1
 10
340.420952
 20
85.669478
 30
0.0
 10
340.196030
 20
86.643858
 30
0.0
 10
339.296526
 20
87.205939
 30
0.0
 10
338.078571
 20
86.924713
 30
0.0
  0
SPLINE
  5
14d
100
AcDbEntity
  8
cut.innerBottom0
 62
1
100
AcDbSpline
 70
8
 71
3
 72
8
 73
4
 74
0
 40
0
 40
0
 40
0
 40
0
 40
1
 40
1
 40
1
 40
1
 10
378.009065
 20
95.117081
 30
0.0
 10
378.290264
 20
93.899152
 30
0.0
 10
377.840684
 20
92.512472
 30
0.0
 10
375.891923
 20
92.062548
 30
0.0
  0
SPLINE
  5
14e
100
AcDbEntity
  8
cut.innerBottom0
 62
1
100
AcDbSpline
 70
8
 71
3
 72
8
 73
4
 74
0
 40
0
 40
0
 40
0
 40
0
 40
1
 40
1
 40
1
 40
1
 10
376.002519
 20
111.587859
 30
0.0
 10
374.784537
 20
111.306660
 30
0.0
 10
374.466084
 20
110.463407
 30
0.0
 10
374.747257
 20
109.245452
 30
0.0
  0
SPLINE
  5
14f
100
AcDbEntity
  8
cut.innerBottom0
 62
1
100
AcDbSpline
 70
8
 71
3
 72
8
 73
4
 74
0
 40
0
 40
0
 40
0
 40
0
 40
1
 40
1
 40
1
 40
1
 10
378.232108
 20
114.155216
 30
0.0
 10
378.400833
 20
113.424410
 30
0.0
 10
377.707651
 20
111.981533
 30
0.0
 10
376.246121
 20
111.644083
 30
0.0
  0
SPLINE
  5
150
100
AcDbEntity
  8
cut.innerBottom0
 62
1
100
AcDbSpline
 70
8
 71
3
 72
8
 73
4
 74
0
 40
0
 40
0
 40
0
 40
0
 40
1
 40
1
 40
1
 40
1
 10
359.768146
 20
186.352023
 30
0.0
 10
360.742553
 20
186.576971
 30
0.0
 10
361.698253
 20
185.771316
 30
0.0
 10
361.923202
 20
184.796935
 30
0.0
  0
LWPOLYLINE
  5
151
100
AcDbEntity
  8
cut.innerBottom0
 62
1
100
AcDbPolyline
 90
2
 70
0
 10
209.018605
 20
162.728451
 30
0.0
 10
190.018629
 20
162.728451
 30
0.0
  0
LWPOLYLINE
  5
152
100
AcDbEntity
  8
cut.innerBottom0
 62
1
100
AcDbPolyline
 90
9
 70
0
 10
264.429789
 20
165.880880
 30
0.0
 10
264.092340
 20
167.342437
 30
0.0
 10
282.605324
 20
171.616514
 30
0.0
 10
282.267927
 20
173.078045
 30
0.0
 10
302.486076
 20
177.745768
 30
0.0
 10
302.846015
 20
176.186791
 30
0.0
 10
321.339585
 20
180.419433
 30
0.0
 10
322.011361
 20
177.635172
 30
0.0
 10
359.768146
 20
186.352023
 30
0.0
  0
LWPOLYLINE
  5
153
100
AcDbEntity
  8
cut.innerBottom0
 62
1
100
AcDbPolyline
 90
2
 70
0
 10
361.923202
 20
184.796962
 30
0.0
 10
378.232108
 20
114.155216
 30
0.0
  0
LWPOLYLINE
  5
154
100
AcDbEntity
  8
cut.innerBottom0
 62
1
100
AcDbPolyline
 90
2
 70
0
 10
374.747257
 20
109.245452
 30
0.0
 10
378.009038
 20
95.117108
 30
0.0
  0
LWPOLYLINE
  5
155
100
AcDbEntity
  8
cut.innerBottom0
 62
1
100
AcDbPolyline
 90
2
 70
0
 10
375.891923
 20
92.062548
 30
0.0
 10
343.006961
 20
84.470466
 30
0.0
  0
LWPOLYLINE
  5
156
100
AcDbEntity
  8
cut.innerBottom0
 62
1
100
AcDbPolyline
 90
2
 70
0
 10
376.246121
 20
111.644083
 30
0.0
 10
376.002519
 20
111.587859
 30
0.0
  0
SPLINE
  5
157
100
AcDbEntity
  8
cut.innerBottom0
 62
1
100
AcDbSpline
 70
8
 71
3
 72
8
 73
4
 74
0
 40
0
 40
0
 40
0
 40
0
 40
1
 40
1
 40
1
 40
1
 10
158.553534
 20
33.811284
 30
0.0
 10
159.415422
 20
33.099132
 30
0.0
 10
160.933217
 20
33.005311
 30
0.0
 10
161.589118
 20
33.623615
 30
0.0
  0
SPLINE
  5
158
100
AcDbEntity
  8
cut.innerBottom0
 62
1
100
AcDbSpline
 70
8
 71
3
 72
8
 73
4
 74
0
 40
0
 40
0
 40
0
 40
0
 40
1
 40
1
 40
1
 40
1
 10
55.816355
 20
84.470466
 30
0.0
 10
57.034319
 20
84.189294
 30
0.0
 10
58.177400
 20
84.695124
 30
0.0
 10
58.402349
 20
85.669478
 30
0.0
  0
SPLINE
  5
159
100
AcDbEntity
  8
cut.innerBottom0
 62
1
100
AcDbSpline
 70
8
 71
3
 72
8
 73
4
 74
0
 40
0
 40
0
 40
0
 40
0
 40
1
 40
1
 40
1
 40
1
 10
58.402349
 20
85.669478
 30
0.0
 10
58.627303
 20
86.643858
 30
0.0
 10
59.526793
 20
87.205912
 30
0.0
 10
60.744754
 20
86.924713
 30
0.0
  0
SPLINE
  5
15a
100
AcDbEntity
  8
cut.innerBottom0
 62
1
100
AcDbSpline
 70
8
 71
3
 72
8
 73
4
 74
0
 40
0
 40
0
 40
0
 40
0
 40
1
 40
1
 40
1
 40
1
 10
20.814271
 20
95.117108
 30
0.0
 10
20.533083
 20
93.899152
 30
0.0
 10
20.982668
 20
92.512472
 30
0.0
 10
22.931407
 20
92.062548
 30
0.0
  0
SPLINE
  5
15b
100
AcDbEntity
  8
cut.innerBottom0
 62
1
100
AcDbSpline
 70
8
 71
3
 72
8
 73
4
 74
0
 40
0
 40
0
 40
0
 40
0
 40
1
 40
1
 40
1
 40
1
 10
22.820810
 20
111.587859
 30
0.0
 10
24.038769
 20
111.306660
 30
0.0
 10
24.357244
 20
110.463407
 30
0.0
 10
24.076056
 20
109.245452
 30
0.0
  0
SPLINE
  5
15c
100
AcDbEntity
  8
cut.innerBottom0
 62
1
100
AcDbSpline
 70
8
 71
3
 72
8
 73
4
 74
0
 40
0
 40
0
 40
0
 40
0
 40
1
 40
1
 40
1
 40
1
 10
20.591198
 20
114.155189
 30
0.0
 10
20.422486
 20
113.424437
 30
0.0
 10
21.115665
 20
111.981506
 30
0.0
 10
22.577220
 20
111.644083
 30
0.0
  0
SPLINE
  5
15d
100
AcDbEntity
  8
cut.innerBottom0
 62
1
100
AcDbSpline
 70
8
 71
3
 72
8
 73
4
 74
0
 40
0
 40
0
 40
0
 40
0
 40
1
 40
1
 40
1
 40
1
 10
39.055181
 20
186.352023
 30
0.0
 10
38.080809
 20
186.576971
 30
0.0
 10
37.125082
 20
185.771316
 30
0.0
 10
36.900133
 20
184.796935
 30
0.0
  0
LWPOLYLINE
  5
15e
100
AcDbEntity
  8
cut.innerBottom0
 62
1
100
AcDbPolyline
 90
2
 70
0
 10
283.757531
 20
74.383736
 30
0.0
 10
240.269806
 20
33.811284
 30
0.0
  0
SPLINE
  5
15f
100
AcDbEntity
  8
cut.innerBottom0
 62
1
100
AcDbSpline
 70
8
 71
3
 72
8
 73
4
 74
0
 40
0
 40
0
 40
0
 40
0
 40
1
 40
1
 40
1
 40
1
 10
170.201628
 20
157.613926
 30
0.0
 10
199.518617
 20
151.728459
 30
0.0
 10
199.518617
 20
151.728459
 30
0.0
 10
228.621725
 20
157.613926
 30
0.0
  0
LWPOLYLINE
  5
160
100
AcDbEntity
  8
cut.innerBottom0
 62
1
100
AcDbPolyline
 90
2
 70
0
 10
338.078571
 20
86.924740
 30
0.0
 10
283.757531
 20
74.383736
 30
0.0
  0
LWPOLYLINE
  5
161
100
AcDbEntity
  8
cut.innerBottom0
 62
1
100
AcDbPolyline
 90
2
 70
0
 10
134.393573
 20
165.880880
 30
0.0
 10
170.201628
 20
157.613926
 30
0.0
  0
LWPOLYLINE
  5
162
100
AcDbEntity
  8
cut.innerBottom0
 62
1
100
AcDbPolyline
 90
2
 70
0
 10
228.621725
 20
157.613926
 30
0.0
 10
264.429789
 20
165.880880
 30
0.0
  0
LWPOLYLINE
  5
163
100
AcDbEntity
  8
cut.innerBottom0
 62
1
100
AcDbPolyline
 90
9
 70
0
 10
134.393573
 20
165.880880
 30
0.0
 10
134.730998
 20
167.342437
 30
0.0
 10
116.217987
 20
171.616487
 30
0.0
 10
116.555416
 20
173.078045
 30
0.0
 10
96.337259
 20
177.745768
 30
0.0
 10
95.977336
 20
176.186791
 30
0.0
 10
77.483772
 20
180.419433
 30
0.0
 10
76.811971
 20
177.635172
 30
0.0
 10
39.055179
 20
186.352023
 30
0.0
  0
LWPOLYLINE
  5
164
100
AcDbEntity
  8
cut.innerBottom0
 62
1
100
AcDbPolyline
 90
2
 70
0
 10
36.900130
 20
184.796935
 30
0.0
 10
20.591198
 20
114.155216
 30
0.0
  0
LWPOLYLINE
  5
165
100
AcDbEntity
  8
cut.innerBottom0
 62
1
100
AcDbPolyline
 90
2
 70
0
 10
24.076056
 20
109.245452
 30
0.0
 10
20.814268
 20
95.117108
 30
0.0
  0
LWPOLYLINE
  5
166
100
AcDbEntity
  8
cut.innerBottom0
 62
1
100
AcDbPolyline
 90
2
 70
0
 10
22.931407
 20
92.062548
 30
0.0
 10
55.816355
 20
84.470466
 30
0.0
  0
LWPOLYLINE
  5
167
100
AcDbEntity
  8
cut.innerBottom0
 62
1
100
AcDbPolyline
 90
2
 70
0
 10
22.577217
 20
111.644083
 30
0.0
 10
22.820810
 20
111.587859
 30
0.0
  0
LWPOLYLINE
  5
168
100
AcDbEntity
  8
cut.innerBottom0
 62
1
100
AcDbPolyline
 90
2
 70
0
 10
115.065815
 20
74.383710
 30
0.0
 10
158.553534
 20
33.811284
 30
0.0
  0
SPLINE
  5
169
100
AcDbEntity
  8
cut.innerBottom0
 62
1
100
AcDbSpline
 70
8
 71
3
 72
8
 73
4
 74
0
 40
0
 40
0
 40
0
 40
0
 40
1
 40
1
 40
1
 40
1
 10
148.780586
 20
26.203116
 30
0.0
 10
148.780586
 20
32.203121
 30
0.0
 10
133.780597
 20
61.203076
 30
0.0
 10
88.780653
 20
71.203076
 30
0.0
  0
SPLINE
  5
16a
100
AcDbEntity
  8
cut.innerBottom0
 62
1
100
AcDbSpline
 70
8
 71
3
 72
8
 73
4
 74
0
 40
0
 40
0
 40
0
 40
0
 40
1
 40
1
 40
1
 40
1
 10
88.780653
 20
71.203076
 30
0.0
 10
13.780744
 20
91.203050
 30
0.0
 10
8.780750
 20
76.203063
 30
0.0
 10
33.780719
 20
61.203076
 30
0.0
  0
SPLINE
  5
16b
100
AcDbEntity
  8
cut.innerBottom0
 62
1
100
AcDbSpline
 70
8
 71
3
 72
8
 73
4
 74
0
 40
0
 40
0
 40
0
 40
0
 40
1
 40
1
 40
1
 40
1
 10
33.780719
 20
61.203076
 30
0.0
 10
48.780700
 20
51.203102
 30
0.0
 10
38.909703
 20
45.086151
 30
0.0
 10
49.094853
 20
37.243748
 30
0.0
  0
SPLINE
  5
16c
100
AcDbEntity
  8
cut.innerBottom0
 62
1
100
AcDbSpline
 70
8
 71
3
 72
8
 73
4
 74
0
 40
0
 40
0
 40
0
 40
0
 40
1
 40
1
 40
1
 40
1
 10
49.094853
 20
37.243748
 30
0.0
 10
59.699862
 20
29.078050
 30
0.0
 10
98.780639
 20
-3.796831
 30
0.0
 10
113.780624
 20
22.839391
 30
0.0
  0
SPLINE
  5
16d
100
AcDbEntity
  8
cut.innerBottom0
 62
1
100
AcDbSpline
 70
8
 71
3
 72
8
 73
4
 74
0
 40
0
 40
0
 40
0
 40
0
 40
1
 40
1
 40
1
 40
1
 10
113.780624
 20
22.839391
 30
0.0
 10
118.780618
 20
31.499621
 30
0.0
 10
148.780579
 20
16.203142
 30
0.0
 10
148.780586
 20
26.203116
 30
0.0
  0
LWPOLYLINE
  5
16e
100
AcDbEntity
  8
cut.innerBottom0
 62
1
100
AcDbPolyline
 90
4
 70
0
 10
161.589116
 20
33.623615
 30
0.0
 10
178.518644
 20
51.728591
 30
0.0
 10
220.518591
 20
51.728591
 30
0.0
 10
237.234228
 20
33.623615
 30
0.0
  0
SPLINE
  5
16f
100
AcDbEntity
  8
cut.innerBottom0
 62
1
100
AcDbSpline
 70
8
 71
3
 72
8
 73
4
 74
0
 40
0
 40
0
 40
0
 40
0
 40
1
 40
1
 40
1
 40
1
 10
250.256648
 20
26.203116
 30
0.0
 10
250.256648
 20
32.203121
 30
0.0
 10
265.256632
 20
61.203076
 30
0.0
 10
310.256593
 20
71.203076
 30
0.0
  0
SPLINE
  5
170
100
AcDbEntity
  8
cut.innerBottom0
 62
1
100
AcDbSpline
 70
8
 71
3
 72
8
 73
4
 74
0
 40
0
 40
0
 40
0
 40
0
 40
1
 40
1
 40
1
 40
1
 10
310.256593
 20
71.203076
 30
0.0
 10
385.256500
 20
91.203050
 30
0.0
 10
390.256460
 20
76.203063
 30
0.0
 10
365.256527
 20
61.203076
 30
0.0
  0
SPLINE
  5
171
100
AcDbEntity
  8
cut.innerBottom0
 62
1
100
AcDbSpline
 70
8
 71
3
 72
8
 73
4
 74
0
 40
0
 40
0
 40
0
 40
0
 40
1
 40
1
 40
1
 40
1
 10
365.256527
 20
61.203076
 30
0.0
 10
350.256540
 20
51.203102
 30
0.0
 10
360.127529
 20
45.086151
 30
0.0
 10
349.942374
 20
37.243748
 30
0.0
  0
SPLINE
  5
172
100
AcDbEntity
  8
cut.innerBottom0
 62
1
100
AcDbSpline
 70
8
 71
3
 72
8
 73
4
 74
0
 40
0
 40
0
 40
0
 40
0
 40
1
 40
1
 40
1
 40
1
 10
349.942374
 20
37.243748
 30
0.0
 10
339.337378
 20
29.078050
 30
0.0
 10
300.256619
 20
-3.796831
 30
0.0
 10
285.256606
 20
22.839391
 30
0.0
  0
SPLINE
  5
173
100
AcDbEntity
  8
cut.innerBottom0
 62
1
100
AcDbSpline
 70
8
 71
3
 72
8
 73
4
 74
0
 40
0
 40
0
 40
0
 40
0
 40
1
 40
1
 40
1
 40
1
 10
285.256606
 20
22.839391
 30
0.0
 10
280.256619
 20
31.499647
 30
0.0
 10
250.256648
 20
16.203142
 30
0.0
 10
250.256648
 20
26.203116
 30
0.0
  0
LWPOLYLINE
  5
174
100
AcDbEntity
  8
cut.innerBottom0
 62
1
100
AcDbPolyline
 90
2
 70
0
 10
60.744754
 20
86.924713
 30
0.0
 10
115.065815
 20
74.383710
 30
0.0
  0
ENDSEC
  0
SECTION
  2
OBJECTS
  0
DICTIONARY
  5
C
330
0
100
AcDbDictionary
  3
ACAD_GROUP
350
D
  3
ACAD_MLINESTYLE
350
17
  0
DICTIONARY
  5
D
330
C
100
AcDbDictionary
  0
DICTIONARY
  5
1A
330
C
100
AcDbDictionary
  0
DICTIONARY
  5
17
330
C
100
AcDbDictionary
  3
STANDARD
350
18
  0
DICTIONARY
  5
19
330
C
100
AcDbDictionary
  0
ENDSEC
  0
EOF
