  0
SECTION
  2
HEADER
  9
$ACADVER
  1
AC1014
  9
$HANDSEED
  5
FFFF
  9
$MEASUREMENT
 70
     1
  0
ENDSEC
  0
SECTION
  2
TABLES
  0
TABLE
  2
VPORT
  5
8
330
0
100
AcDbSymbolTable
 70
     4
  0
VPORT
  5
2E
330
8
100
AcDbSymbolTableRecord
100
AcDbViewportTableRecord
  2
*ACTIVE
 70
     0
 10
0.0
 20
0.0
 11
1.0
 21
1.0
 12
210.0
 22
148.5
 13
0.0
 23
0.0
 14
10.0
 24
10.0
 15
10.0
 25
10.0
 16
0.0
 26
0.0
 36
1.0
 17
0.0
 27
0.0
 37
0.0
 40
341.0
 41
1.24
 42
50.0
 43
0.0
 44
0.0
 50
0.0
 51
0.0
 71
     0
 72
   100
 73
     1
 74
     3
 75
     0
 76
     0
 77
     0
 78
     0
  0
ENDTAB
  0
TABLE
  2
LTYPE
  5
5
330
0
100
AcDbSymbolTable
 70
     1
  0
LTYPE
  5
14
330
5
100
AcDbSymbolTableRecord
100
AcDbLinetypeTableRecord
  2
BYBLOCK
 70
     0
  3

 72
    65
 73
     0
 40
0.0
  0
LTYPE
  5
15
330
5
100
AcDbSymbolTableRecord
100
AcDbLinetypeTableRecord
  2
BYLAYER
 70
     0
  3

 72
    65
 73
     0
 40
0.0
  0
LTYPE
  5
16
330
5
100
AcDbSymbolTableRecord
100
AcDbLinetypeTableRecord
  2
CONTINUOUS
 70
     0
  3
Solid line
 72
    65
 73
     0
 40
0.0
  0
ENDTAB
  0
TABLE
  2
LAYER
  5
2
100
AcDbSymbolTable
 70
2
  0
LAYER
  5
50
100
AcDbSymbolTableRecord
100
AcDbLayerTableRecord
  2
0
 70
0
  6
CONTINUOUS
  0
LAYER
  5
51
100
AcDbSymbolTableRecord
100
AcDbLayerTableRecord
  2
cut.innerTop
 70
0
  6
CONTINUOUS
  0
ENDTAB
  0
TABLE
  2
STYLE
  5
3
330
0
100
AcDbSymbolTable
 70
     1
  0
STYLE
  5
11
330
3
100
AcDbSymbolTableRecord
100
AcDbTextStyleTableRecord
  2
STANDARD
 70
     0
 40
0.0
 41
1.0
 50
0.0
 71
     0
 42
2.5
  3
txt
  4

  0
ENDTAB
  0
TABLE
  2
VIEW
  5
6
330
0
100
AcDbSymbolTable
 70
     0
  0
ENDTAB
  0
TABLE
  2
UCS
  5
7
330
0
100
AcDbSymbolTable
 70
     0
  0
ENDTAB
  0
TABLE
  2
APPID
  5
9
330
0
100
AcDbSymbolTable
 70
     2
  0
APPID
  5
12
330
9
100
AcDbSymbolTableRecord
100
AcDbRegAppTableRecord
  2
ACAD
 70
     0
  0
ENDTAB
  0
TABLE
  2
DIMSTYLE
  5
A
330
0
100
AcDbSymbolTable
 70
     1
  0
DIMSTYLE
105
27
330
A
100
AcDbSymbolTableRecord
100
AcDbDimStyleTableRecord
  2
ISO-25
 70
     0
  3

  4

  5

  6

  7

 40
1.0
 41
2.5
 42
0.625
 43
3.75
 44
1.25
 45
0.0
 46
0.0
 47
0.0
 48
0.0
140
2.5
141
2.5
142
0.0
143
0.03937007874016
144
1.0
145
0.0
146
1.0
147
0.625
 71
     0
 72
     0
 73
     0
 74
     0
 75
     0
 76
     0
 77
     1
 78
     8
170
     0
171
     3
172
     1
173
     0
174
     0
175
     0
176
     0
177
     0
178
     0
270
     2
271
     2
272
     2
273
     2
274
     3
340
11
275
     0
280
     0
281
     0
282
     0
283
     0
284
     8
285
     0
286
     0
287
     3
288
     0
  0
ENDTAB
  0
TABLE
  2
BLOCK_RECORD
  5
1
330
0
100
AcDbSymbolTable
 70
     1
  0
BLOCK_RECORD
  5
1F
330
1
100
AcDbSymbolTableRecord
100
AcDbBlockTableRecord
  2
*MODEL_SPACE
  0
BLOCK_RECORD
  5
1B
330
1
100
AcDbSymbolTableRecord
100
AcDbBlockTableRecord
  2
*PAPER_SPACE
  0
ENDTAB
  0
ENDSEC
  0
SECTION
  2
BLOCKS
  0
BLOCK
  5
20
330
1F
100
AcDbEntity
  8
0
100
AcDbBlockBegin
  2
*MODEL_SPACE
 70
     0
 10
0.0
 20
0.0
 30
0.0
  3
*MODEL_SPACE
  1

  0
ENDBLK
  5
21
330
1F
100
AcDbEntity
  8
0
100
AcDbBlockEnd
  0
BLOCK
  5
1C
330
1B
100
AcDbEntity
 67
     1
  8
0
100
AcDbBlockBegin
  2
*PAPER_SPACE
  1

  0
ENDBLK
  5
1D
330
1B
100
AcDbEntity
 67
     1
  8
0
100
AcDbBlockEnd
  0
ENDSEC
  0
SECTION
  2
ENTITIES
  0
SPLINE
  5
100
100
AcDbEntity
  8
cut.innerTop
 62
1
100
AcDbSpline
 70
8
 71
3
 72
8
 73
4
 74
0
 40
0
 40
0
 40
0
 40
0
 40
1
 40
1
 40
1
 40
1
 10
12.002665
 20
101.704330
 30
0.0
 10
12.002665
 20
100.820675
 30
0.0
 10
11.286321
 20
100.104334
 30
0.0
 10
10.402666
 20
100.104334
 30
0.0
  0
SPLINE
  5
101
100
AcDbEntity
  8
cut.innerTop
 62
1
100
AcDbSpline
 70
8
 71
3
 72
8
 73
4
 74
0
 40
0
 40
0
 40
0
 40
0
 40
1
 40
1
 40
1
 40
1
 10
10.402666
 20
100.104334
 30
0.0
 10
9.519011
 20
100.104334
 30
0.0
 10
8.802668
 20
100.820675
 30
0.0
 10
8.802668
 20
101.704330
 30
0.0
  0
SPLINE
  5
102
100
AcDbEntity
  8
cut.innerTop
 62
1
100
AcDbSpline
 70
8
 71
3
 72
8
 73
4
 74
0
 40
0
 40
0
 40
0
 40
0
 40
1
 40
1
 40
1
 40
1
 10
8.802668
 20
101.704330
 30
0.0
 10
8.802668
 20
102.587985
 30
0.0
 10
9.519011
 20
103.304328
 30
0.0
 10
10.402666
 20
103.304328
 30
0.0
  0
SPLINE
  5
103
100
AcDbEntity
  8
cut.innerTop
 62
1
100
AcDbSpline
 70
8
 71
3
 72
8
 73
4
 74
0
 40
0
 40
0
 40
0
 40
0
 40
1
 40
1
 40
1
 40
1
 10
10.402666
 20
103.304328
 30
0.0
 10
11.286321
 20
103.304328
 30
0.0
 10
12.002665
 20
102.587985
 30
0.0
 10
12.002665
 20
101.704330
 30
0.0
  0
SPLINE
  5
104
100
AcDbEntity
  8
cut.innerTop
 62
1
100
AcDbSpline
 70
8
 71
3
 72
8
 73
4
 74
0
 40
0
 40
0
 40
0
 40
0
 40
1
 40
1
 40
1
 40
1
 10
55.002616
 20
181.704240
 30
0.0
 10
55.002618
 20
180.820585
 30
0.0
 10
54.286272
 20
180.104241
 30
0.0
 10
53.402620
 20
180.104241
 30
0.0
  0
SPLINE
  5
105
100
AcDbEntity
  8
cut.innerTop
 62
1
100
AcDbSpline
 70
8
 71
3
 72
8
 73
4
 74
0
 40
0
 40
0
 40
0
 40
0
 40
1
 40
1
 40
1
 40
1
 10
53.402620
 20
180.104241
 30
0.0
 10
52.518965
 20
180.104241
 30
0.0
 10
51.802621
 20
180.820585
 30
0.0
 10
51.802621
 20
181.704240
 30
0.0
  0
SPLINE
  5
106
100
AcDbEntity
  8
cut.innerTop
 62
1
100
AcDbSpline
 70
8
 71
3
 72
8
 73
4
 74
0
 40
0
 40
0
 40
0
 40
0
 40
1
 40
1
 40
1
 40
1
 10
51.802621
 20
181.704240
 30
0.0
 10
51.802621
 20
182.587895
 30
0.0
 10
52.518965
 20
183.304238
 30
0.0
 10
53.402620
 20
183.304238
 30
0.0
  0
SPLINE
  5
107
100
AcDbEntity
  8
cut.innerTop
 62
1
100
AcDbSpline
 70
8
 71
3
 72
8
 73
4
 74
0
 40
0
 40
0
 40
0
 40
0
 40
1
 40
1
 40
1
 40
1
 10
53.402620
 20
183.304238
 30
0.0
 10
54.286272
 20
183.304238
 30
0.0
 10
55.002616
 20
182.587895
 30
0.0
 10
55.002616
 20
181.704240
 30
0.0
  0
SPLINE
  5
108
100
AcDbEntity
  8
cut.innerTop
 62
1
100
AcDbSpline
 70
8
 71
3
 72
8
 73
4
 74
0
 40
0
 40
0
 40
0
 40
0
 40
1
 40
1
 40
1
 40
1
 10
335.002305
 20
181.704240
 30
0.0
 10
335.002305
 20
180.820587
 30
0.0
 10
334.285972
 20
180.104244
 30
0.0
 10
333.402317
 20
180.104241
 30
0.0
  0
SPLINE
  5
109
100
AcDbEntity
  8
cut.innerTop
 62
1
100
AcDbSpline
 70
8
 71
3
 72
8
 73
4
 74
0
 40
0
 40
0
 40
0
 40
0
 40
1
 40
1
 40
1
 40
1
 10
333.402317
 20
180.104241
 30
0.0
 10
332.977979
 20
180.104236
 30
0.0
 10
332.570997
 20
180.272802
 30
0.0
 10
332.270933
 20
180.572863
 30
0.0
  0
SPLINE
  5
10a
100
AcDbEntity
  8
cut.innerTop
 62
1
100
AcDbSpline
 70
8
 71
3
 72
8
 73
4
 74
0
 40
0
 40
0
 40
0
 40
0
 40
1
 40
1
 40
1
 40
1
 10
332.270933
 20
180.572863
 30
0.0
 10
331.970869
 20
180.872922
 30
0.0
 10
331.802303
 20
181.279891
 30
0.0
 10
331.802303
 20
181.704240
 30
0.0
  0
SPLINE
  5
10b
100
AcDbEntity
  8
cut.innerTop
 62
1
100
AcDbSpline
 70
8
 71
3
 72
8
 73
4
 74
0
 40
0
 40
0
 40
0
 40
0
 40
1
 40
1
 40
1
 40
1
 10
331.802303
 20
181.704240
 30
0.0
 10
331.802303
 20
182.128589
 30
0.0
 10
331.970869
 20
182.535558
 30
0.0
 10
332.270933
 20
182.835616
 30
0.0
  0
SPLINE
  5
10c
100
AcDbEntity
  8
cut.innerTop
 62
1
100
AcDbSpline
 70
8
 71
3
 72
8
 73
4
 74
0
 40
0
 40
0
 40
0
 40
0
 40
1
 40
1
 40
1
 40
1
 10
332.270933
 20
182.835616
 30
0.0
 10
332.570997
 20
183.135675
 30
0.0
 10
332.977979
 20
183.304244
 30
0.0
 10
333.402317
 20
183.304238
 30
0.0
  0
SPLINE
  5
10d
100
AcDbEntity
  8
cut.innerTop
 62
1
100
AcDbSpline
 70
8
 71
3
 72
8
 73
4
 74
0
 40
0
 40
0
 40
0
 40
0
 40
1
 40
1
 40
1
 40
1
 10
333.402317
 20
183.304238
 30
0.0
 10
334.285972
 20
183.304236
 30
0.0
 10
335.002305
 20
182.587895
 30
0.0
 10
335.002305
 20
181.704240
 30
0.0
  0
SPLINE
  5
10e
100
AcDbEntity
  8
cut.innerTop
 62
1
100
AcDbSpline
 70
8
 71
3
 72
8
 73
4
 74
0
 40
0
 40
0
 40
0
 40
0
 40
1
 40
1
 40
1
 40
1
 10
230.002412
 20
159.704264
 30
0.0
 10
230.002412
 20
158.820611
 30
0.0
 10
229.286069
 20
158.104268
 30
0.0
 10
228.402414
 20
158.104268
 30
0.0
  0
SPLINE
  5
10f
100
AcDbEntity
  8
cut.innerTop
 62
1
100
AcDbSpline
 70
8
 71
3
 72
8
 73
4
 74
0
 40
0
 40
0
 40
0
 40
0
 40
1
 40
1
 40
1
 40
1
 10
228.402414
 20
158.104268
 30
0.0
 10
227.978067
 20
158.104265
 30
0.0
 10
227.571101
 20
158.272836
 30
0.0
 10
227.271043
 20
158.572895
 30
0.0
  0
SPLINE
  5
110
100
AcDbEntity
  8
cut.innerTop
 62
1
100
AcDbSpline
 70
8
 71
3
 72
8
 73
4
 74
0
 40
0
 40
0
 40
0
 40
0
 40
1
 40
1
 40
1
 40
1
 10
227.271043
 20
158.572895
 30
0.0
 10
226.970984
 20
158.872954
 30
0.0
 10
226.802413
 20
159.279917
 30
0.0
 10
226.802413
 20
159.704264
 30
0.0
  0
SPLINE
  5
111
100
AcDbEntity
  8
cut.innerTop
 62
1
100
AcDbSpline
 70
8
 71
3
 72
8
 73
4
 74
0
 40
0
 40
0
 40
0
 40
0
 40
1
 40
1
 40
1
 40
1
 10
226.802413
 20
159.704264
 30
0.0
 10
226.802413
 20
160.128610
 30
0.0
 10
226.970984
 20
160.535579
 30
0.0
 10
227.271043
 20
160.835635
 30
0.0
  0
SPLINE
  5
112
100
AcDbEntity
  8
cut.innerTop
 62
1
100
AcDbSpline
 70
8
 71
3
 72
8
 73
4
 74
0
 40
0
 40
0
 40
0
 40
0
 40
1
 40
1
 40
1
 40
1
 10
227.271043
 20
160.835635
 30
0.0
 10
227.571101
 20
161.135693
 30
0.0
 10
227.978067
 20
161.304265
 30
0.0
 10
228.402414
 20
161.304265
 30
0.0
  0
SPLINE
  5
113
100
AcDbEntity
  8
cut.innerTop
 62
1
100
AcDbSpline
 70
8
 71
3
 72
8
 73
4
 74
0
 40
0
 40
0
 40
0
 40
0
 40
1
 40
1
 40
1
 40
1
 10
228.402414
 20
161.304265
 30
0.0
 10
228.826760
 20
161.304265
 30
0.0
 10
229.233727
 20
161.135693
 30
0.0
 10
229.533785
 20
160.835635
 30
0.0
  0
SPLINE
  5
114
100
AcDbEntity
  8
cut.innerTop
 62
1
100
AcDbSpline
 70
8
 71
3
 72
8
 73
4
 74
0
 40
0
 40
0
 40
0
 40
0
 40
1
 40
1
 40
1
 40
1
 10
229.533785
 20
160.835635
 30
0.0
 10
229.833841
 20
160.535576
 30
0.0
 10
230.002412
 20
160.128610
 30
0.0
 10
230.002412
 20
159.704264
 30
0.0
  0
SPLINE
  5
115
100
AcDbEntity
  8
cut.innerTop
 62
1
100
AcDbSpline
 70
8
 71
3
 72
8
 73
4
 74
0
 40
0
 40
0
 40
0
 40
0
 40
1
 40
1
 40
1
 40
1
 10
160.002498
 20
159.704264
 30
0.0
 10
160.002498
 20
158.820611
 30
0.0
 10
159.286155
 20
158.104268
 30
0.0
 10
158.402502
 20
158.104268
 30
0.0
  0
SPLINE
  5
116
100
AcDbEntity
  8
cut.innerTop
 62
1
100
AcDbSpline
 70
8
 71
3
 72
8
 73
4
 74
0
 40
0
 40
0
 40
0
 40
0
 40
1
 40
1
 40
1
 40
1
 10
158.402502
 20
158.104268
 30
0.0
 10
157.518847
 20
158.104268
 30
0.0
 10
156.802504
 20
158.820611
 30
0.0
 10
156.802504
 20
159.704264
 30
0.0
  0
SPLINE
  5
117
100
AcDbEntity
  8
cut.innerTop
 62
1
100
AcDbSpline
 70
8
 71
3
 72
8
 73
4
 74
0
 40
0
 40
0
 40
0
 40
0
 40
1
 40
1
 40
1
 40
1
 10
156.802504
 20
159.704264
 30
0.0
 10
156.802504
 20
160.128610
 30
0.0
 10
156.971075
 20
160.535576
 30
0.0
 10
157.271131
 20
160.835635
 30
0.0
  0
SPLINE
  5
118
100
AcDbEntity
  8
cut.innerTop
 62
1
100
AcDbSpline
 70
8
 71
3
 72
8
 73
4
 74
0
 40
0
 40
0
 40
0
 40
0
 40
1
 40
1
 40
1
 40
1
 10
157.271131
 20
160.835635
 30
0.0
 10
157.571189
 20
161.135693
 30
0.0
 10
157.978156
 20
161.304265
 30
0.0
 10
158.402502
 20
161.304265
 30
0.0
  0
SPLINE
  5
119
100
AcDbEntity
  8
cut.innerTop
 62
1
100
AcDbSpline
 70
8
 71
3
 72
8
 73
4
 74
0
 40
0
 40
0
 40
0
 40
0
 40
1
 40
1
 40
1
 40
1
 10
158.402502
 20
161.304265
 30
0.0
 10
158.826849
 20
161.304265
 30
0.0
 10
159.233812
 20
161.135693
 30
0.0
 10
159.533871
 20
160.835635
 30
0.0
  0
SPLINE
  5
11a
100
AcDbEntity
  8
cut.innerTop
 62
1
100
AcDbSpline
 70
8
 71
3
 72
8
 73
4
 74
0
 40
0
 40
0
 40
0
 40
0
 40
1
 40
1
 40
1
 40
1
 10
159.533871
 20
160.835635
 30
0.0
 10
159.833929
 20
160.535576
 30
0.0
 10
160.002501
 20
160.128610
 30
0.0
 10
160.002498
 20
159.704264
 30
0.0
  0
SPLINE
  5
11b
100
AcDbEntity
  8
cut.innerTop
 62
1
100
AcDbSpline
 70
8
 71
3
 72
8
 73
4
 74
0
 40
0
 40
0
 40
0
 40
0
 40
1
 40
1
 40
1
 40
1
 10
195.002460
 20
36.704401
 30
0.0
 10
195.002460
 20
36.280055
 30
0.0
 10
194.833892
 20
35.873091
 30
0.0
 10
194.533831
 20
35.573033
 30
0.0
  0
SPLINE
  5
11c
100
AcDbEntity
  8
cut.innerTop
 62
1
100
AcDbSpline
 70
8
 71
3
 72
8
 73
4
 74
0
 40
0
 40
0
 40
0
 40
0
 40
1
 40
1
 40
1
 40
1
 10
194.533831
 20
35.573033
 30
0.0
 10
194.233775
 20
35.272974
 30
0.0
 10
193.826809
 20
35.104405
 30
0.0
 10
193.402462
 20
35.104405
 30
0.0
  0
SPLINE
  5
11d
100
AcDbEntity
  8
cut.innerTop
 62
1
100
AcDbSpline
 70
8
 71
3
 72
8
 73
4
 74
0
 40
0
 40
0
 40
0
 40
0
 40
1
 40
1
 40
1
 40
1
 10
193.402462
 20
35.104405
 30
0.0
 10
192.518807
 20
35.104405
 30
0.0
 10
191.802463
 20
35.820749
 30
0.0
 10
191.802463
 20
36.704401
 30
0.0
  0
SPLINE
  5
11e
100
AcDbEntity
  8
cut.innerTop
 62
1
100
AcDbSpline
 70
8
 71
3
 72
8
 73
4
 74
0
 40
0
 40
0
 40
0
 40
0
 40
1
 40
1
 40
1
 40
1
 10
191.802463
 20
36.704401
 30
0.0
 10
191.802463
 20
37.588056
 30
0.0
 10
192.518807
 20
38.304400
 30
0.0
 10
193.402462
 20
38.304400
 30
0.0
  0
SPLINE
  5
11f
100
AcDbEntity
  8
cut.innerTop
 62
1
100
AcDbSpline
 70
8
 71
3
 72
8
 73
4
 74
0
 40
0
 40
0
 40
0
 40
0
 40
1
 40
1
 40
1
 40
1
 10
193.402462
 20
38.304400
 30
0.0
 10
193.826809
 20
38.304400
 30
0.0
 10
194.233775
 20
38.135828
 30
0.0
 10
194.533831
 20
37.835773
 30
0.0
  0
SPLINE
  5
120
100
AcDbEntity
  8
cut.innerTop
 62
1
100
AcDbSpline
 70
8
 71
3
 72
8
 73
4
 74
0
 40
0
 40
0
 40
0
 40
0
 40
1
 40
1
 40
1
 40
1
 10
194.533831
 20
37.835773
 30
0.0
 10
194.833892
 20
37.535714
 30
0.0
 10
195.002460
 20
37.128748
 30
0.0
 10
195.002460
 20
36.704401
 30
0.0
  0
SPLINE
  5
121
100
AcDbEntity
  8
cut.innerTop
 62
1
100
AcDbSpline
 70
8
 71
3
 72
8
 73
4
 74
0
 40
0
 40
0
 40
0
 40
0
 40
1
 40
1
 40
1
 40
1
 10
378.002271
 20
101.704330
 30
0.0
 10
378.002271
 20
100.820677
 30
0.0
 10
377.285938
 20
100.104334
 30
0.0
 10
376.402283
 20
100.104334
 30
0.0
  0
SPLINE
  5
122
100
AcDbEntity
  8
cut.innerTop
 62
1
100
AcDbSpline
 70
8
 71
3
 72
8
 73
4
 74
0
 40
0
 40
0
 40
0
 40
0
 40
1
 40
1
 40
1
 40
1
 10
376.402283
 20
100.104334
 30
0.0
 10
375.977944
 20
100.104326
 30
0.0
 10
375.570962
 20
100.272895
 30
0.0
 10
375.270898
 20
100.572953
 30
0.0
  0
SPLINE
  5
123
100
AcDbEntity
  8
cut.innerTop
 62
1
100
AcDbSpline
 70
8
 71
3
 72
8
 73
4
 74
0
 40
0
 40
0
 40
0
 40
0
 40
1
 40
1
 40
1
 40
1
 10
375.270898
 20
100.572953
 30
0.0
 10
374.970834
 20
100.873012
 30
0.0
 10
374.802268
 20
101.279981
 30
0.0
 10
374.802268
 20
101.704330
 30
0.0
  0
SPLINE
  5
124
100
AcDbEntity
  8
cut.innerTop
 62
1
100
AcDbSpline
 70
8
 71
3
 72
8
 73
4
 74
0
 40
0
 40
0
 40
0
 40
0
 40
1
 40
1
 40
1
 40
1
 10
374.802268
 20
101.704330
 30
0.0
 10
374.802268
 20
102.128679
 30
0.0
 10
374.970834
 20
102.535648
 30
0.0
 10
375.270898
 20
102.835706
 30
0.0
  0
SPLINE
  5
125
100
AcDbEntity
  8
cut.innerTop
 62
1
100
AcDbSpline
 70
8
 71
3
 72
8
 73
4
 74
0
 40
0
 40
0
 40
0
 40
0
 40
1
 40
1
 40
1
 40
1
 10
375.270898
 20
102.835706
 30
0.0
 10
375.570962
 20
103.135765
 30
0.0
 10
375.977944
 20
103.304334
 30
0.0
 10
376.402283
 20
103.304328
 30
0.0
  0
SPLINE
  5
126
100
AcDbEntity
  8
cut.innerTop
 62
1
100
AcDbSpline
 70
8
 71
3
 72
8
 73
4
 74
0
 40
0
 40
0
 40
0
 40
0
 40
1
 40
1
 40
1
 40
1
 10
376.402283
 20
103.304328
 30
0.0
 10
377.285938
 20
103.304326
 30
0.0
 10
378.002271
 20
102.587982
 30
0.0
 10
378.002271
 20
101.704330
 30
0.0
  0
SPLINE
  5
127
100
AcDbEntity
  8
cut.innerTop
 62
1
100
AcDbSpline
 70
8
 71
3
 72
8
 73
4
 74
0
 40
0
 40
0
 40
0
 40
0
 40
1
 40
1
 40
1
 40
1
 10
365.002237
 20
51.704386
 30
0.0
 10
365.002237
 20
50.820733
 30
0.0
 10
364.285904
 20
50.104387
 30
0.0
 10
363.402249
 20
50.104387
 30
0.0
  0
SPLINE
  5
128
100
AcDbEntity
  8
cut.innerTop
 62
1
100
AcDbSpline
 70
8
 71
3
 72
8
 73
4
 74
0
 40
0
 40
0
 40
0
 40
0
 40
1
 40
1
 40
1
 40
1
 10
363.402249
 20
50.104387
 30
0.0
 10
362.518594
 20
50.104387
 30
0.0
 10
361.802261
 20
50.820733
 30
0.0
 10
361.802261
 20
51.704386
 30
0.0
  0
SPLINE
  5
129
100
AcDbEntity
  8
cut.innerTop
 62
1
100
AcDbSpline
 70
8
 71
3
 72
8
 73
4
 74
0
 40
0
 40
0
 40
0
 40
0
 40
1
 40
1
 40
1
 40
1
 10
361.802261
 20
51.704386
 30
0.0
 10
361.802261
 20
52.588038
 30
0.0
 10
362.518594
 20
53.304381
 30
0.0
 10
363.402249
 20
53.304384
 30
0.0
  0
SPLINE
  5
12a
100
AcDbEntity
  8
cut.innerTop
 62
1
100
AcDbSpline
 70
8
 71
3
 72
8
 73
4
 74
0
 40
0
 40
0
 40
0
 40
0
 40
1
 40
1
 40
1
 40
1
 10
363.402249
 20
53.304384
 30
0.0
 10
364.285904
 20
53.304381
 30
0.0
 10
365.002237
 20
52.588038
 30
0.0
 10
365.002237
 20
51.704386
 30
0.0
  0
SPLINE
  5
12b
100
AcDbEntity
  8
cut.innerTop
 62
1
100
AcDbSpline
 70
8
 71
3
 72
8
 73
4
 74
0
 40
0
 40
0
 40
0
 40
0
 40
1
 40
1
 40
1
 40
1
 10
265.002385
 20
11.704445
 30
0.0
 10
265.002385
 20
10.820790
 30
0.0
 10
264.286034
 20
10.104431
 30
0.0
 10
263.402382
 20
10.104431
 30
0.0
  0
SPLINE
  5
12c
100
AcDbEntity
  8
cut.innerTop
 62
1
100
AcDbSpline
 70
8
 71
3
 72
8
 73
4
 74
0
 40
0
 40
0
 40
0
 40
0
 40
1
 40
1
 40
1
 40
1
 10
263.402382
 20
10.104431
 30
0.0
 10
262.518729
 20
10.104431
 30
0.0
 10
261.802389
 20
10.820790
 30
0.0
 10
261.802389
 20
11.704445
 30
0.0
  0
SPLINE
  5
12d
100
AcDbEntity
  8
cut.innerTop
 62
1
100
AcDbSpline
 70
8
 71
3
 72
8
 73
4
 74
0
 40
0
 40
0
 40
0
 40
0
 40
1
 40
1
 40
1
 40
1
 10
261.802389
 20
11.704445
 30
0.0
 10
261.802386
 20
12.588100
 30
0.0
 10
262.518727
 20
13.304433
 30
0.0
 10
263.402382
 20
13.304433
 30
0.0
  0
SPLINE
  5
12e
100
AcDbEntity
  8
cut.innerTop
 62
1
100
AcDbSpline
 70
8
 71
3
 72
8
 73
4
 74
0
 40
0
 40
0
 40
0
 40
0
 40
1
 40
1
 40
1
 40
1
 10
263.402382
 20
13.304433
 30
0.0
 10
264.286037
 20
13.304433
 30
0.0
 10
265.002385
 20
12.588100
 30
0.0
 10
265.002385
 20
11.704445
 30
0.0
  0
SPLINE
  5
12f
100
AcDbEntity
  8
cut.innerTop
 62
1
100
AcDbSpline
 70
8
 71
3
 72
8
 73
4
 74
0
 40
0
 40
0
 40
0
 40
0
 40
1
 40
1
 40
1
 40
1
 10
125.002538
 20
11.704419
 30
0.0
 10
125.002538
 20
10.820763
 30
0.0
 10
124.286195
 20
10.104431
 30
0.0
 10
123.402542
 20
10.104431
 30
0.0
  0
SPLINE
  5
130
100
AcDbEntity
  8
cut.innerTop
 62
1
100
AcDbSpline
 70
8
 71
3
 72
8
 73
4
 74
0
 40
0
 40
0
 40
0
 40
0
 40
1
 40
1
 40
1
 40
1
 10
123.402542
 20
10.104431
 30
0.0
 10
122.978196
 20
10.104431
 30
0.0
 10
122.571230
 20
10.272997
 30
0.0
 10
122.271171
 20
10.573061
 30
0.0
  0
SPLINE
  5
131
100
AcDbEntity
  8
cut.innerTop
 62
1
100
AcDbSpline
 70
8
 71
3
 72
8
 73
4
 74
0
 40
0
 40
0
 40
0
 40
0
 40
1
 40
1
 40
1
 40
1
 10
122.271171
 20
10.573061
 30
0.0
 10
121.971112
 20
10.873124
 30
0.0
 10
121.802541
 20
11.280080
 30
0.0
 10
121.802541
 20
11.704419
 30
0.0
  0
SPLINE
  5
132
100
AcDbEntity
  8
cut.innerTop
 62
1
100
AcDbSpline
 70
8
 71
3
 72
8
 73
4
 74
0
 40
0
 40
0
 40
0
 40
0
 40
1
 40
1
 40
1
 40
1
 10
121.802541
 20
11.704419
 30
0.0
 10
121.802541
 20
12.128784
 30
0.0
 10
121.971112
 20
12.535739
 30
0.0
 10
122.271171
 20
12.835803
 30
0.0
  0
SPLINE
  5
133
100
AcDbEntity
  8
cut.innerTop
 62
1
100
AcDbSpline
 70
8
 71
3
 72
8
 73
4
 74
0
 40
0
 40
0
 40
0
 40
0
 40
1
 40
1
 40
1
 40
1
 10
122.271171
 20
12.835803
 30
0.0
 10
122.571230
 20
13.135867
 30
0.0
 10
122.978196
 20
13.304433
 30
0.0
 10
123.402542
 20
13.304433
 30
0.0
  0
SPLINE
  5
134
100
AcDbEntity
  8
cut.innerTop
 62
1
100
AcDbSpline
 70
8
 71
3
 72
8
 73
4
 74
0
 40
0
 40
0
 40
0
 40
0
 40
1
 40
1
 40
1
 40
1
 10
123.402542
 20
13.304433
 30
0.0
 10
123.826886
 20
13.304433
 30
0.0
 10
124.233852
 20
13.135867
 30
0.0
 10
124.533911
 20
12.835803
 30
0.0
  0
SPLINE
  5
135
100
AcDbEntity
  8
cut.innerTop
 62
1
100
AcDbSpline
 70
8
 71
3
 72
8
 73
4
 74
0
 40
0
 40
0
 40
0
 40
0
 40
1
 40
1
 40
1
 40
1
 10
124.533911
 20
12.835803
 30
0.0
 10
124.833969
 20
12.535739
 30
0.0
 10
125.002541
 20
12.128784
 30
0.0
 10
125.002538
 20
11.704419
 30
0.0
  0
SPLINE
  5
136
100
AcDbEntity
  8
cut.innerTop
 62
1
100
AcDbSpline
 70
8
 71
3
 72
8
 73
4
 74
0
 40
0
 40
0
 40
0
 40
0
 40
1
 40
1
 40
1
 40
1
 10
25.002651
 20
51.704386
 30
0.0
 10
25.002652
 20
51.280039
 30
0.0
 10
24.834081
 20
50.873073
 30
0.0
 10
24.534022
 20
50.573014
 30
0.0
  0
SPLINE
  5
137
100
AcDbEntity
  8
cut.innerTop
 62
1
100
AcDbSpline
 70
8
 71
3
 72
8
 73
4
 74
0
 40
0
 40
0
 40
0
 40
0
 40
1
 40
1
 40
1
 40
1
 10
24.534022
 20
50.573014
 30
0.0
 10
24.233964
 20
50.272956
 30
0.0
 10
23.826997
 20
50.104387
 30
0.0
 10
23.402651
 20
50.104387
 30
0.0
  0
SPLINE
  5
138
100
AcDbEntity
  8
cut.innerTop
 62
1
100
AcDbSpline
 70
8
 71
3
 72
8
 73
4
 74
0
 40
0
 40
0
 40
0
 40
0
 40
1
 40
1
 40
1
 40
1
 10
23.402651
 20
50.104387
 30
0.0
 10
22.978305
 20
50.104387
 30
0.0
 10
22.571340
 20
50.272958
 30
0.0
 10
22.271282
 20
50.573014
 30
0.0
  0
SPLINE
  5
139
100
AcDbEntity
  8
cut.innerTop
 62
1
100
AcDbSpline
 70
8
 71
3
 72
8
 73
4
 74
0
 40
0
 40
0
 40
0
 40
0
 40
1
 40
1
 40
1
 40
1
 10
22.271282
 20
50.573014
 30
0.0
 10
21.971224
 20
50.873073
 30
0.0
 10
21.802653
 20
51.280039
 30
0.0
 10
21.802654
 20
51.704386
 30
0.0
  0
SPLINE
  5
13a
100
AcDbEntity
  8
cut.innerTop
 62
1
100
AcDbSpline
 70
8
 71
3
 72
8
 73
4
 74
0
 40
0
 40
0
 40
0
 40
0
 40
1
 40
1
 40
1
 40
1
 10
21.802654
 20
51.704386
 30
0.0
 10
21.802654
 20
52.588041
 30
0.0
 10
22.518998
 20
53.304384
 30
0.0
 10
23.402651
 20
53.304384
 30
0.0
  0
SPLINE
  5
13b
100
AcDbEntity
  8
cut.innerTop
 62
1
100
AcDbSpline
 70
8
 71
3
 72
8
 73
4
 74
0
 40
0
 40
0
 40
0
 40
0
 40
1
 40
1
 40
1
 40
1
 10
23.402651
 20
53.304384
 30
0.0
 10
23.826997
 20
53.304384
 30
0.0
 10
24.233963
 20
53.135815
 30
0.0
 10
24.534021
 20
52.835757
 30
0.0
  0
SPLINE
  5
13c
100
AcDbEntity
  8
cut.innerTop
 62
1
100
AcDbSpline
 70
8
 71
3
 72
8
 73
4
 74
0
 40
0
 40
0
 40
0
 40
0
 40
1
 40
1
 40
1
 40
1
 10
24.534021
 20
52.835757
 30
0.0
 10
24.834080
 20
52.535698
 30
0.0
 10
25.002651
 20
52.128732
 30
0.0
 10
25.002651
 20
51.704386
 30
0.0
  0
SPLINE
  5
13d
100
AcDbEntity
  8
cut.innerTop
 62
1
100
AcDbSpline
 70
8
 71
3
 72
8
 73
4
 74
0
 40
0
 40
0
 40
0
 40
0
 40
1
 40
1
 40
1
 40
1
 10
7.694463
 20
126.704299
 30
0.0
 10
5.402672
 20
116.704311
 30
0.0
 10
3.402674
 20
106.704326
 30
0.0
 10
3.402674
 20
96.704336
 30
0.0
  0
SPLINE
  5
13e
100
AcDbEntity
  8
cut.innerTop
 62
1
100
AcDbSpline
 70
8
 71
3
 72
8
 73
4
 74
0
 40
0
 40
0
 40
0
 40
0
 40
1
 40
1
 40
1
 40
1
 10
3.402674
 20
96.704336
 30
0.0
 10
3.402667
 20
45.341902
 30
0.0
 10
45.189916
 20
1.854301
 30
0.0
 10
96.552350
 20
1.854301
 30
0.0
  0
SPLINE
  5
13f
100
AcDbEntity
  8
cut.innerTop
 62
1
100
AcDbSpline
 70
8
 71
3
 72
8
 73
4
 74
0
 40
0
 40
0
 40
0
 40
0
 40
1
 40
1
 40
1
 40
1
 10
96.552350
 20
1.854301
 30
0.0
 10
147.914787
 20
1.854301
 30
0.0
 10
158.402502
 20
29.204405
 30
0.0
 10
185.902474
 20
29.204405
 30
0.0
  0
SPLINE
  5
140
100
AcDbEntity
  8
cut.innerTop
 62
1
100
AcDbSpline
 70
8
 71
3
 72
8
 73
4
 74
0
 40
0
 40
0
 40
0
 40
0
 40
1
 40
1
 40
1
 40
1
 10
200.902455
 20
29.204405
 30
0.0
 10
228.402424
 20
29.204405
 30
0.0
 10
238.890026
 20
1.854301
 30
0.0
 10
290.252465
 20
1.854301
 30
0.0
  0
SPLINE
  5
141
100
AcDbEntity
  8
cut.innerTop
 62
1
100
AcDbSpline
 70
8
 71
3
 72
8
 73
4
 74
0
 40
0
 40
0
 40
0
 40
0
 40
1
 40
1
 40
1
 40
1
 10
290.252465
 20
1.854301
 30
0.0
 10
341.614876
 20
1.854301
 30
0.0
 10
383.402256
 20
45.341899
 30
0.0
 10
383.402256
 20
96.704336
 30
0.0
  0
SPLINE
  5
142
100
AcDbEntity
  8
cut.innerTop
 62
1
100
AcDbSpline
 70
8
 71
3
 72
8
 73
4
 74
0
 40
0
 40
0
 40
0
 40
0
 40
1
 40
1
 40
1
 40
1
 10
383.402256
 20
96.704336
 30
0.0
 10
383.402256
 20
106.704326
 30
0.0
 10
381.402245
 20
116.704311
 30
0.0
 10
379.402260
 20
126.704299
 30
0.0
  0
SPLINE
  5
143
100
AcDbEntity
  8
cut.innerTop
 62
1
100
AcDbSpline
 70
8
 71
3
 72
8
 73
4
 74
0
 40
0
 40
0
 40
0
 40
0
 40
1
 40
1
 40
1
 40
1
 10
366.402253
 20
183.704238
 30
0.0
 10
365.402287
 20
188.704232
 30
0.0
 10
362.402283
 20
188.704232
 30
0.0
 10
358.402287
 20
188.704232
 30
0.0
  0
SPLINE
  5
144
100
AcDbEntity
  8
cut.innerTop
 62
1
100
AcDbSpline
 70
8
 71
3
 72
8
 73
4
 74
0
 40
0
 40
0
 40
0
 40
0
 40
1
 40
1
 40
1
 40
1
 10
358.402287
 20
188.704232
 30
0.0
 10
223.402425
 20
176.704246
 30
0.0
 10
223.402425
 20
157.704266
 30
0.0
 10
202.902451
 20
157.704266
 30
0.0
  0
LWPOLYLINE
  5
145
100
AcDbEntity
  8
cut.innerTop
 62
1
100
AcDbPolyline
 90
2
 70
0
 10
20.402655
 20
183.704238
 30
0.0
 10
7.694463
 20
126.704299
 30
0.0
  0
SPLINE
  5
146
100
AcDbEntity
  8
cut.innerTop
 62
1
100
AcDbSpline
 70
8
 71
3
 72
8
 73
4
 74
0
 40
0
 40
0
 40
0
 40
0
 40
1
 40
1
 40
1
 40
1
 10
183.902473
 20
157.704266
 30
0.0
 10
163.402493
 20
157.704266
 30
0.0
 10
163.402493
 20
176.704246
 30
0.0
 10
28.402648
 20
188.704232
 30
0.0
  0
SPLINE
  5
147
100
AcDbEntity
  8
cut.innerTop
 62
1
100
AcDbSpline
 70
8
 71
3
 72
8
 73
4
 74
0
 40
0
 40
0
 40
0
 40
0
 40
1
 40
1
 40
1
 40
1
 10
28.402648
 20
188.704232
 30
0.0
 10
24.402651
 20
188.704232
 30
0.0
 10
21.402655
 20
188.704232
 30
0.0
 10
20.402655
 20
183.704238
 30
0.0
  0
LWPOLYLINE
  5
148
100
AcDbEntity
  8
cut.innerTop
 62
1
100
AcDbPolyline
 90
2
 70
0
 10
185.902474
 20
29.204405
 30
0.0
 10
200.902455
 20
29.204405
 30
0.0
  0
LWPOLYLINE
  5
149
100
AcDbEntity
  8
cut.innerTop
 62
1
100
AcDbPolyline
 90
2
 70
0
 10
379.402260
 20
126.704299
 30
0.0
 10
366.402253
 20
183.704238
 30
0.0
  0
LWPOLYLINE
  5
14a
100
AcDbEntity
  8
cut.innerTop
 62
1
100
AcDbPolyline
 90
2
 70
0
 10
202.902451
 20
157.704266
 30
0.0
 10
183.902473
 20
157.704266
 30
0.0
  0
LWPOLYLINE
  5
14b
100
AcDbEntity
  8
cut.innerTop
 62
1
100
AcDbPolyline
 90
23
 70
1
 10
378.502254
 20
109.904321
 30
0.0
 10
361.252272
 20
184.504237
 30
0.0
 10
315.002324
 20
173.904249
 30
0.0
 10
314.302316
 20
176.804245
 30
0.0
 10
295.802364
 20
172.504249
 30
0.0
 10
295.452347
 20
173.954250
 30
0.0
 10
276.402378
 20
169.554254
 30
0.0
 10
276.752369
 20
168.104256
 30
0.0
 10
258.252385
 20
163.804259
 30
0.0
 10
258.552385
 20
162.354261
 30
0.0
 10
221.502432
 20
153.804271
 30
0.0
 10
238.702410
 20
79.104355
 30
0.0
 10
275.802357
 20
87.704346
 30
0.0
 10
279.702367
 20
70.604364
 30
0.0
 10
298.809961
 20
75.004360
 30
0.0
 10
298.459970
 20
76.504357
 30
0.0
 10
316.359954
 20
80.654353
 30
0.0
 10
316.702325
 20
79.104355
 30
0.0
 10
335.252310
 20
83.454350
 30
0.0
 10
335.902312
 20
80.554354
 30
0.0
 10
373.502265
 20
89.254343
 30
0.0
 10
369.302270
 20
107.754325
 30
0.0
 10
378.502254
 20
109.904321
 30
0.0
  0
SPLINE
  5
14c
100
AcDbEntity
  8
cut.innerTop
 62
1
100
AcDbSpline
 70
8
 71
3
 72
8
 73
4
 74
0
 40
0
 40
0
 40
0
 40
0
 40
1
 40
1
 40
1
 40
1
 10
193.402462
 20
111.704320
 30
0.0
 10
192.189075
 20
111.704320
 30
0.0
 10
191.095169
 20
110.973396
 30
0.0
 10
190.630825
 20
109.852372
 30
0.0
  0
SPLINE
  5
14d
100
AcDbEntity
  8
cut.innerTop
 62
1
100
AcDbSpline
 70
8
 71
3
 72
8
 73
4
 74
0
 40
0
 40
0
 40
0
 40
0
 40
1
 40
1
 40
1
 40
1
 10
190.630825
 20
109.852372
 30
0.0
 10
190.166484
 20
108.731352
 30
0.0
 10
190.423151
 20
107.440998
 30
0.0
 10
191.281144
 20
106.583004
 30
0.0
  0
SPLINE
  5
14e
100
AcDbEntity
  8
cut.innerTop
 62
1
100
AcDbSpline
 70
8
 71
3
 72
8
 73
4
 74
0
 40
0
 40
0
 40
0
 40
0
 40
1
 40
1
 40
1
 40
1
 10
191.281144
 20
106.583004
 30
0.0
 10
192.139138
 20
105.725014
 30
0.0
 10
193.429489
 20
105.468347
 30
0.0
 10
194.550510
 20
105.932688
 30
0.0
  0
SPLINE
  5
14f
100
AcDbEntity
  8
cut.innerTop
 62
1
100
AcDbSpline
 70
8
 71
3
 72
8
 73
4
 74
0
 40
0
 40
0
 40
0
 40
0
 40
1
 40
1
 40
1
 40
1
 10
194.550510
 20
105.932688
 30
0.0
 10
195.671533
 20
106.397031
 30
0.0
 10
196.402458
 20
107.490938
 30
0.0
 10
196.402458
 20
108.704324
 30
0.0
  0
SPLINE
  5
150
100
AcDbEntity
  8
cut.innerTop
 62
1
100
AcDbSpline
 70
8
 71
3
 72
8
 73
4
 74
0
 40
0
 40
0
 40
0
 40
0
 40
1
 40
1
 40
1
 40
1
 10
196.402458
 20
108.704324
 30
0.0
 10
196.402458
 20
109.499971
 30
0.0
 10
196.086387
 20
110.263032
 30
0.0
 10
195.523779
 20
110.825642
 30
0.0
  0
SPLINE
  5
151
100
AcDbEntity
  8
cut.innerTop
 62
1
100
AcDbSpline
 70
8
 71
3
 72
8
 73
4
 74
0
 40
0
 40
0
 40
0
 40
0
 40
1
 40
1
 40
1
 40
1
 10
195.523779
 20
110.825642
 30
0.0
 10
194.961172
 20
111.388249
 30
0.0
 10
194.198111
 20
111.704320
 30
0.0
 10
193.402462
 20
111.704320
 30
0.0
  0
LWPOLYLINE
  5
152
100
AcDbEntity
  8
cut.innerTop
 62
1
100
AcDbPolyline
 90
7
 70
1
 10
236.042414
 20
21.724425
 30
0.0
 10
203.252452
 20
56.904381
 30
0.0
 10
231.462420
 20
83.184348
 30
0.0
 10
244.422406
 20
69.354367
 30
0.0
 10
258.352384
 20
82.404352
 30
0.0
 10
278.192390
 20
61.024373
 30
0.0
 10
236.042414
 20
21.724425
 30
0.0
  0
SPLINE
  5
153
100
AcDbEntity
  8
cut.innerTop
 62
1
100
AcDbSpline
 70
8
 71
3
 72
8
 73
4
 74
0
 40
0
 40
0
 40
0
 40
0
 40
1
 40
1
 40
1
 40
1
 10
173.402486
 20
143.204283
 30
0.0
 10
172.189100
 20
143.204283
 30
0.0
 10
171.095193
 20
142.473358
 30
0.0
 10
170.630850
 20
141.352335
 30
0.0
  0
SPLINE
  5
154
100
AcDbEntity
  8
cut.innerTop
 62
1
100
AcDbSpline
 70
8
 71
3
 72
8
 73
4
 74
0
 40
0
 40
0
 40
0
 40
0
 40
1
 40
1
 40
1
 40
1
 10
170.630850
 20
141.352335
 30
0.0
 10
170.166506
 20
140.231314
 30
0.0
 10
170.423173
 20
138.940963
 30
0.0
 10
171.281169
 20
138.082969
 30
0.0
  0
SPLINE
  5
155
100
AcDbEntity
  8
cut.innerTop
 62
1
100
AcDbSpline
 70
8
 71
3
 72
8
 73
4
 74
0
 40
0
 40
0
 40
0
 40
0
 40
1
 40
1
 40
1
 40
1
 10
171.281169
 20
138.082969
 30
0.0
 10
172.139160
 20
137.224976
 30
0.0
 10
173.429514
 20
136.968309
 30
0.0
 10
174.550534
 20
137.432650
 30
0.0
  0
SPLINE
  5
156
100
AcDbEntity
  8
cut.innerTop
 62
1
100
AcDbSpline
 70
8
 71
3
 72
8
 73
4
 74
0
 40
0
 40
0
 40
0
 40
0
 40
1
 40
1
 40
1
 40
1
 10
174.550534
 20
137.432650
 30
0.0
 10
175.671558
 20
137.896994
 30
0.0
 10
176.402482
 20
138.990903
 30
0.0
 10
176.402482
 20
140.204287
 30
0.0
  0
SPLINE
  5
157
100
AcDbEntity
  8
cut.innerTop
 62
1
100
AcDbSpline
 70
8
 71
3
 72
8
 73
4
 74
0
 40
0
 40
0
 40
0
 40
0
 40
1
 40
1
 40
1
 40
1
 10
176.402482
 20
140.204287
 30
0.0
 10
176.402482
 20
140.999936
 30
0.0
 10
176.086414
 20
141.762997
 30
0.0
 10
175.523804
 20
142.325604
 30
0.0
  0
SPLINE
  5
158
100
AcDbEntity
  8
cut.innerTop
 62
1
100
AcDbSpline
 70
8
 71
3
 72
8
 73
4
 74
0
 40
0
 40
0
 40
0
 40
0
 40
1
 40
1
 40
1
 40
1
 10
175.523804
 20
142.325604
 30
0.0
 10
174.961194
 20
142.888214
 30
0.0
 10
174.198133
 20
143.204283
 30
0.0
 10
173.402486
 20
143.204283
 30
0.0
  0
SPLINE
  5
159
100
AcDbEntity
  8
cut.innerTop
 62
1
100
AcDbSpline
 70
8
 71
3
 72
8
 73
4
 74
0
 40
0
 40
0
 40
0
 40
0
 40
1
 40
1
 40
1
 40
1
 10
213.402440
 20
143.204283
 30
0.0
 10
212.189056
 20
143.204283
 30
0.0
 10
211.095147
 20
142.473358
 30
0.0
 10
210.630804
 20
141.352335
 30
0.0
  0
SPLINE
  5
15a
100
AcDbEntity
  8
cut.innerTop
 62
1
100
AcDbSpline
 70
8
 71
3
 72
8
 73
4
 74
0
 40
0
 40
0
 40
0
 40
0
 40
1
 40
1
 40
1
 40
1
 10
210.630804
 20
141.352335
 30
0.0
 10
210.166463
 20
140.231314
 30
0.0
 10
210.423129
 20
138.940963
 30
0.0
 10
211.281123
 20
138.082969
 30
0.0
  0
SPLINE
  5
15b
100
AcDbEntity
  8
cut.innerTop
 62
1
100
AcDbSpline
 70
8
 71
3
 72
8
 73
4
 74
0
 40
0
 40
0
 40
0
 40
0
 40
1
 40
1
 40
1
 40
1
 10
211.281123
 20
138.082969
 30
0.0
 10
212.139116
 20
137.224976
 30
0.0
 10
213.429467
 20
136.968309
 30
0.0
 10
214.550491
 20
137.432650
 30
0.0
  0
SPLINE
  5
15c
100
AcDbEntity
  8
cut.innerTop
 62
1
100
AcDbSpline
 70
8
 71
3
 72
8
 73
4
 74
0
 40
0
 40
0
 40
0
 40
0
 40
1
 40
1
 40
1
 40
1
 10
214.550491
 20
137.432650
 30
0.0
 10
215.671511
 20
137.896994
 30
0.0
 10
216.402436
 20
138.990903
 30
0.0
 10
216.402436
 20
140.204287
 30
0.0
  0
SPLINE
  5
15d
100
AcDbEntity
  8
cut.innerTop
 62
1
100
AcDbSpline
 70
8
 71
3
 72
8
 73
4
 74
0
 40
0
 40
0
 40
0
 40
0
 40
1
 40
1
 40
1
 40
1
 10
216.402436
 20
140.204287
 30
0.0
 10
216.402436
 20
140.999936
 30
0.0
 10
216.086367
 20
141.762997
 30
0.0
 10
215.523758
 20
142.325604
 30
0.0
  0
SPLINE
  5
15e
100
AcDbEntity
  8
cut.innerTop
 62
1
100
AcDbSpline
 70
8
 71
3
 72
8
 73
4
 74
0
 40
0
 40
0
 40
0
 40
0
 40
1
 40
1
 40
1
 40
1
 10
215.523758
 20
142.325604
 30
0.0
 10
214.961150
 20
142.888214
 30
0.0
 10
214.198090
 20
143.204283
 30
0.0
 10
213.402440
 20
143.204283
 30
0.0
  0
LWPOLYLINE
  5
15f
100
AcDbEntity
  8
cut.innerTop
 62
1
100
AcDbPolyline
 90
7
 70
1
 10
150.502512
 20
21.704422
 30
0.0
 10
183.352473
 20
56.904381
 30
0.0
 10
155.102503
 20
83.204348
 30
0.0
 10
142.202519
 20
69.404365
 30
0.0
 10
128.252533
 20
82.354353
 30
0.0
 10
108.452556
 20
61.004376
 30
0.0
 10
150.502512
 20
21.704422
 30
0.0
  0
LWPOLYLINE
  5
160
100
AcDbEntity
  8
cut.innerTop
 62
1
100
AcDbPolyline
 90
23
 70
1
 10
8.002670
 20
109.904321
 30
0.0
 10
25.302650
 20
184.504237
 30
0.0
 10
71.602598
 20
173.854250
 30
0.0
 10
72.252597
 20
176.704246
 30
0.0
 10
90.802577
 20
172.454250
 30
0.0
 10
91.152576
 20
173.954250
 30
0.0
 10
110.152554
 20
169.504256
 30
0.0
 10
109.802555
 20
168.054257
 30
0.0
 10
128.327397
 20
163.865486
 30
0.0
 10
127.986598
 20
162.389315
 30
0.0
 10
165.102494
 20
153.804271
 30
0.0
 10
147.902515
 20
79.104355
 30
0.0
 10
110.852554
 20
87.704346
 30
0.0
 10
106.902559
 20
70.654365
 30
0.0
 10
87.802582
 20
75.054361
 30
0.0
 10
88.102579
 20
76.504357
 30
0.0
 10
70.202598
 20
80.704354
 30
0.0
 10
69.852602
 20
79.104355
 30
0.0
 10
51.402619
 20
83.304350
 30
0.0
 10
50.802624
 20
80.504353
 30
0.0
 10
13.002664
 20
89.204345
 30
0.0
 10
17.302659
 20
107.704324
 30
0.0
 10
8.002670
 20
109.904321
 30
0.0
  0
ENDSEC
  0
SECTION
  2
OBJECTS
  0
DICTIONARY
  5
C
330
0
100
AcDbDictionary
  3
ACAD_GROUP
350
D
  3
ACAD_MLINESTYLE
350
17
  0
DICTIONARY
  5
D
330
C
100
AcDbDictionary
  0
DICTIONARY
  5
1A
330
C
100
AcDbDictionary
  0
DICTIONARY
  5
17
330
C
100
AcDbDictionary
  3
STANDARD
350
18
  0
DICTIONARY
  5
19
330
C
100
AcDbDictionary
  0
ENDSEC
  0
EOF
