  0
SECTION
  2
HEADER
  9
$ACADVER
  1
AC1014
  9
$HANDSEED
  5
FFFF
  9
$MEASUREMENT
 70
     1
  0
ENDSEC
  0
SECTION
  2
TABLES
  0
TABLE
  2
VPORT
  5
8
330
0
100
AcDbSymbolTable
 70
     4
  0
VPORT
  5
2E
330
8
100
AcDbSymbolTableRecord
100
AcDbViewportTableRecord
  2
*ACTIVE
 70
     0
 10
0.0
 20
0.0
 11
1.0
 21
1.0
 12
210.0
 22
148.5
 13
0.0
 23
0.0
 14
10.0
 24
10.0
 15
10.0
 25
10.0
 16
0.0
 26
0.0
 36
1.0
 17
0.0
 27
0.0
 37
0.0
 40
341.0
 41
1.24
 42
50.0
 43
0.0
 44
0.0
 50
0.0
 51
0.0
 71
     0
 72
   100
 73
     1
 74
     3
 75
     0
 76
     0
 77
     0
 78
     0
  0
ENDTAB
  0
TABLE
  2
LTYPE
  5
5
330
0
100
AcDbSymbolTable
 70
     1
  0
LTYPE
  5
14
330
5
100
AcDbSymbolTableRecord
100
AcDbLinetypeTableRecord
  2
BYBLOCK
 70
     0
  3

 72
    65
 73
     0
 40
0.0
  0
LTYPE
  5
15
330
5
100
AcDbSymbolTableRecord
100
AcDbLinetypeTableRecord
  2
BYLAYER
 70
     0
  3

 72
    65
 73
     0
 40
0.0
  0
LTYPE
  5
16
330
5
100
AcDbSymbolTableRecord
100
AcDbLinetypeTableRecord
  2
CONTINUOUS
 70
     0
  3
Solid line
 72
    65
 73
     0
 40
0.0
  0
ENDTAB
  0
TABLE
  2
LAYER
  5
2
100
AcDbSymbolTable
 70
2
  0
LAYER
  5
50
100
AcDbSymbolTableRecord
100
AcDbLayerTableRecord
  2
0
 70
0
  6
CONTINUOUS
  0
LAYER
  5
51
100
AcDbSymbolTableRecord
100
AcDbLayerTableRecord
  2
cut.coverBottom
 70
0
  6
CONTINUOUS
  0
ENDTAB
  0
TABLE
  2
STYLE
  5
3
330
0
100
AcDbSymbolTable
 70
     1
  0
STYLE
  5
11
330
3
100
AcDbSymbolTableRecord
100
AcDbTextStyleTableRecord
  2
STANDARD
 70
     0
 40
0.0
 41
1.0
 50
0.0
 71
     0
 42
2.5
  3
txt
  4

  0
ENDTAB
  0
TABLE
  2
VIEW
  5
6
330
0
100
AcDbSymbolTable
 70
     0
  0
ENDTAB
  0
TABLE
  2
UCS
  5
7
330
0
100
AcDbSymbolTable
 70
     0
  0
ENDTAB
  0
TABLE
  2
APPID
  5
9
330
0
100
AcDbSymbolTable
 70
     2
  0
APPID
  5
12
330
9
100
AcDbSymbolTableRecord
100
AcDbRegAppTableRecord
  2
ACAD
 70
     0
  0
ENDTAB
  0
TABLE
  2
DIMSTYLE
  5
A
330
0
100
AcDbSymbolTable
 70
     1
  0
DIMSTYLE
105
27
330
A
100
AcDbSymbolTableRecord
100
AcDbDimStyleTableRecord
  2
ISO-25
 70
     0
  3

  4

  5

  6

  7

 40
1.0
 41
2.5
 42
0.625
 43
3.75
 44
1.25
 45
0.0
 46
0.0
 47
0.0
 48
0.0
140
2.5
141
2.5
142
0.0
143
0.03937007874016
144
1.0
145
0.0
146
1.0
147
0.625
 71
     0
 72
     0
 73
     0
 74
     0
 75
     0
 76
     0
 77
     1
 78
     8
170
     0
171
     3
172
     1
173
     0
174
     0
175
     0
176
     0
177
     0
178
     0
270
     2
271
     2
272
     2
273
     2
274
     3
340
11
275
     0
280
     0
281
     0
282
     0
283
     0
284
     8
285
     0
286
     0
287
     3
288
     0
  0
ENDTAB
  0
TABLE
  2
BLOCK_RECORD
  5
1
330
0
100
AcDbSymbolTable
 70
     1
  0
BLOCK_RECORD
  5
1F
330
1
100
AcDbSymbolTableRecord
100
AcDbBlockTableRecord
  2
*MODEL_SPACE
  0
BLOCK_RECORD
  5
1B
330
1
100
AcDbSymbolTableRecord
100
AcDbBlockTableRecord
  2
*PAPER_SPACE
  0
ENDTAB
  0
ENDSEC
  0
SECTION
  2
BLOCKS
  0
BLOCK
  5
20
330
1F
100
AcDbEntity
  8
0
100
AcDbBlockBegin
  2
*MODEL_SPACE
 70
     0
 10
0.0
 20
0.0
 30
0.0
  3
*MODEL_SPACE
  1

  0
ENDBLK
  5
21
330
1F
100
AcDbEntity
  8
0
100
AcDbBlockEnd
  0
BLOCK
  5
1C
330
1B
100
AcDbEntity
 67
     1
  8
0
100
AcDbBlockBegin
  2
*PAPER_SPACE
  1

  0
ENDBLK
  5
1D
330
1B
100
AcDbEntity
 67
     1
  8
0
100
AcDbBlockEnd
  0
ENDSEC
  0
SECTION
  2
ENTITIES
  0
SPLINE
  5
100
100
AcDbEntity
  8
cut.coverBottom
 62
1
100
AcDbSpline
 70
8
 71
3
 72
8
 73
4
 74
0
 40
0
 40
0
 40
0
 40
0
 40
1
 40
1
 40
1
 40
1
 10
12.300623
 20
101.879360
 30
0.0
 10
12.300623
 20
100.995707
 30
0.0
 10
11.584280
 20
100.279364
 30
0.0
 10
10.700625
 20
100.279364
 30
0.0
  0
SPLINE
  5
101
100
AcDbEntity
  8
cut.coverBottom
 62
1
100
AcDbSpline
 70
8
 71
3
 72
8
 73
4
 74
0
 40
0
 40
0
 40
0
 40
0
 40
1
 40
1
 40
1
 40
1
 10
10.700625
 20
100.279364
 30
0.0
 10
9.816970
 20
100.279364
 30
0.0
 10
9.100626
 20
100.995707
 30
0.0
 10
9.100626
 20
101.879360
 30
0.0
  0
SPLINE
  5
102
100
AcDbEntity
  8
cut.coverBottom
 62
1
100
AcDbSpline
 70
8
 71
3
 72
8
 73
4
 74
0
 40
0
 40
0
 40
0
 40
0
 40
1
 40
1
 40
1
 40
1
 10
9.100626
 20
101.879360
 30
0.0
 10
9.100626
 20
102.763015
 30
0.0
 10
9.816970
 20
103.479361
 30
0.0
 10
10.700625
 20
103.479361
 30
0.0
  0
SPLINE
  5
103
100
AcDbEntity
  8
cut.coverBottom
 62
1
100
AcDbSpline
 70
8
 71
3
 72
8
 73
4
 74
0
 40
0
 40
0
 40
0
 40
0
 40
1
 40
1
 40
1
 40
1
 10
10.700625
 20
103.479361
 30
0.0
 10
11.584280
 20
103.479361
 30
0.0
 10
12.300623
 20
102.763015
 30
0.0
 10
12.300623
 20
101.879360
 30
0.0
  0
SPLINE
  5
104
100
AcDbEntity
  8
cut.coverBottom
 62
1
100
AcDbSpline
 70
8
 71
3
 72
8
 73
4
 74
0
 40
0
 40
0
 40
0
 40
0
 40
1
 40
1
 40
1
 40
1
 10
55.300587
 20
181.879293
 30
0.0
 10
55.300589
 20
180.995638
 30
0.0
 10
54.584243
 20
180.279295
 30
0.0
 10
53.700591
 20
180.279295
 30
0.0
  0
SPLINE
  5
105
100
AcDbEntity
  8
cut.coverBottom
 62
1
100
AcDbSpline
 70
8
 71
3
 72
8
 73
4
 74
0
 40
0
 40
0
 40
0
 40
0
 40
1
 40
1
 40
1
 40
1
 10
53.700591
 20
180.279295
 30
0.0
 10
52.816936
 20
180.279295
 30
0.0
 10
52.100592
 20
180.995638
 30
0.0
 10
52.100592
 20
181.879293
 30
0.0
  0
SPLINE
  5
106
100
AcDbEntity
  8
cut.coverBottom
 62
1
100
AcDbSpline
 70
8
 71
3
 72
8
 73
4
 74
0
 40
0
 40
0
 40
0
 40
0
 40
1
 40
1
 40
1
 40
1
 10
52.100592
 20
181.879293
 30
0.0
 10
52.100592
 20
182.762949
 30
0.0
 10
52.816936
 20
183.479292
 30
0.0
 10
53.700591
 20
183.479292
 30
0.0
  0
SPLINE
  5
107
100
AcDbEntity
  8
cut.coverBottom
 62
1
100
AcDbSpline
 70
8
 71
3
 72
8
 73
4
 74
0
 40
0
 40
0
 40
0
 40
0
 40
1
 40
1
 40
1
 40
1
 10
53.700591
 20
183.479292
 30
0.0
 10
54.584243
 20
183.479292
 30
0.0
 10
55.300587
 20
182.762949
 30
0.0
 10
55.300587
 20
181.879293
 30
0.0
  0
SPLINE
  5
108
100
AcDbEntity
  8
cut.coverBottom
 62
1
100
AcDbSpline
 70
8
 71
3
 72
8
 73
4
 74
0
 40
0
 40
0
 40
0
 40
0
 40
1
 40
1
 40
1
 40
1
 10
335.300358
 20
181.879293
 30
0.0
 10
335.300358
 20
180.995638
 30
0.0
 10
334.584025
 20
180.279298
 30
0.0
 10
333.700370
 20
180.279295
 30
0.0
  0
SPLINE
  5
109
100
AcDbEntity
  8
cut.coverBottom
 62
1
100
AcDbSpline
 70
8
 71
3
 72
8
 73
4
 74
0
 40
0
 40
0
 40
0
 40
0
 40
1
 40
1
 40
1
 40
1
 10
333.700370
 20
180.279295
 30
0.0
 10
333.276005
 20
180.279290
 30
0.0
 10
332.869050
 20
180.447856
 30
0.0
 10
332.568986
 20
180.747917
 30
0.0
  0
SPLINE
  5
10a
100
AcDbEntity
  8
cut.coverBottom
 62
1
100
AcDbSpline
 70
8
 71
3
 72
8
 73
4
 74
0
 40
0
 40
0
 40
0
 40
0
 40
1
 40
1
 40
1
 40
1
 10
332.568986
 20
180.747917
 30
0.0
 10
332.268922
 20
181.047976
 30
0.0
 10
332.100356
 20
181.454944
 30
0.0
 10
332.100356
 20
181.879293
 30
0.0
  0
SPLINE
  5
10b
100
AcDbEntity
  8
cut.coverBottom
 62
1
100
AcDbSpline
 70
8
 71
3
 72
8
 73
4
 74
0
 40
0
 40
0
 40
0
 40
0
 40
1
 40
1
 40
1
 40
1
 10
332.100356
 20
181.879293
 30
0.0
 10
332.100356
 20
182.303643
 30
0.0
 10
332.268922
 20
182.710614
 30
0.0
 10
332.568986
 20
183.010670
 30
0.0
  0
SPLINE
  5
10c
100
AcDbEntity
  8
cut.coverBottom
 62
1
100
AcDbSpline
 70
8
 71
3
 72
8
 73
4
 74
0
 40
0
 40
0
 40
0
 40
0
 40
1
 40
1
 40
1
 40
1
 10
332.568986
 20
183.010670
 30
0.0
 10
332.869050
 20
183.310731
 30
0.0
 10
333.276005
 20
183.479297
 30
0.0
 10
333.700370
 20
183.479292
 30
0.0
  0
SPLINE
  5
10d
100
AcDbEntity
  8
cut.coverBottom
 62
1
100
AcDbSpline
 70
8
 71
3
 72
8
 73
4
 74
0
 40
0
 40
0
 40
0
 40
0
 40
1
 40
1
 40
1
 40
1
 10
333.700370
 20
183.479292
 30
0.0
 10
334.584025
 20
183.479292
 30
0.0
 10
335.300358
 20
182.762946
 30
0.0
 10
335.300358
 20
181.879293
 30
0.0
  0
SPLINE
  5
10e
100
AcDbEntity
  8
cut.coverBottom
 62
1
100
AcDbSpline
 70
8
 71
3
 72
8
 73
4
 74
0
 40
0
 40
0
 40
0
 40
0
 40
1
 40
1
 40
1
 40
1
 10
230.300431
 20
159.879312
 30
0.0
 10
230.300431
 20
158.995657
 30
0.0
 10
229.584088
 20
158.279313
 30
0.0
 10
228.700433
 20
158.279313
 30
0.0
  0
SPLINE
  5
10f
100
AcDbEntity
  8
cut.coverBottom
 62
1
100
AcDbSpline
 70
8
 71
3
 72
8
 73
4
 74
0
 40
0
 40
0
 40
0
 40
0
 40
1
 40
1
 40
1
 40
1
 10
228.700433
 20
158.279313
 30
0.0
 10
228.276089
 20
158.279313
 30
0.0
 10
227.869123
 20
158.447885
 30
0.0
 10
227.569064
 20
158.747941
 30
0.0
  0
SPLINE
  5
110
100
AcDbEntity
  8
cut.coverBottom
 62
1
100
AcDbSpline
 70
8
 71
3
 72
8
 73
4
 74
0
 40
0
 40
0
 40
0
 40
0
 40
1
 40
1
 40
1
 40
1
 10
227.569064
 20
158.747941
 30
0.0
 10
227.269005
 20
159.047999
 30
0.0
 10
227.100434
 20
159.454965
 30
0.0
 10
227.100434
 20
159.879312
 30
0.0
  0
SPLINE
  5
111
100
AcDbEntity
  8
cut.coverBottom
 62
1
100
AcDbSpline
 70
8
 71
3
 72
8
 73
4
 74
0
 40
0
 40
0
 40
0
 40
0
 40
1
 40
1
 40
1
 40
1
 10
227.100434
 20
159.879312
 30
0.0
 10
227.100434
 20
160.303658
 30
0.0
 10
227.269003
 20
160.710625
 30
0.0
 10
227.569061
 20
161.010683
 30
0.0
  0
SPLINE
  5
112
100
AcDbEntity
  8
cut.coverBottom
 62
1
100
AcDbSpline
 70
8
 71
3
 72
8
 73
4
 74
0
 40
0
 40
0
 40
0
 40
0
 40
1
 40
1
 40
1
 40
1
 10
227.569061
 20
161.010683
 30
0.0
 10
227.869120
 20
161.310742
 30
0.0
 10
228.276086
 20
161.479313
 30
0.0
 10
228.700433
 20
161.479313
 30
0.0
  0
SPLINE
  5
113
100
AcDbEntity
  8
cut.coverBottom
 62
1
100
AcDbSpline
 70
8
 71
3
 72
8
 73
4
 74
0
 40
0
 40
0
 40
0
 40
0
 40
1
 40
1
 40
1
 40
1
 10
228.700433
 20
161.479313
 30
0.0
 10
229.124779
 20
161.479313
 30
0.0
 10
229.531745
 20
161.310742
 30
0.0
 10
229.831804
 20
161.010683
 30
0.0
  0
SPLINE
  5
114
100
AcDbEntity
  8
cut.coverBottom
 62
1
100
AcDbSpline
 70
8
 71
3
 72
8
 73
4
 74
0
 40
0
 40
0
 40
0
 40
0
 40
1
 40
1
 40
1
 40
1
 10
229.831804
 20
161.010683
 30
0.0
 10
230.131862
 20
160.710625
 30
0.0
 10
230.300431
 20
160.303658
 30
0.0
 10
230.300431
 20
159.879312
 30
0.0
  0
SPLINE
  5
115
100
AcDbEntity
  8
cut.coverBottom
 62
1
100
AcDbSpline
 70
8
 71
3
 72
8
 73
4
 74
0
 40
0
 40
0
 40
0
 40
0
 40
1
 40
1
 40
1
 40
1
 10
160.300501
 20
159.879312
 30
0.0
 10
160.300501
 20
158.995657
 30
0.0
 10
159.584155
 20
158.279313
 30
0.0
 10
158.700502
 20
158.279313
 30
0.0
  0
SPLINE
  5
116
100
AcDbEntity
  8
cut.coverBottom
 62
1
100
AcDbSpline
 70
8
 71
3
 72
8
 73
4
 74
0
 40
0
 40
0
 40
0
 40
0
 40
1
 40
1
 40
1
 40
1
 10
158.700502
 20
158.279313
 30
0.0
 10
157.816847
 20
158.279313
 30
0.0
 10
157.100504
 20
158.995657
 30
0.0
 10
157.100504
 20
159.879312
 30
0.0
  0
SPLINE
  5
117
100
AcDbEntity
  8
cut.coverBottom
 62
1
100
AcDbSpline
 70
8
 71
3
 72
8
 73
4
 74
0
 40
0
 40
0
 40
0
 40
0
 40
1
 40
1
 40
1
 40
1
 10
157.100504
 20
159.879312
 30
0.0
 10
157.100504
 20
160.303658
 30
0.0
 10
157.269072
 20
160.710625
 30
0.0
 10
157.569131
 20
161.010683
 30
0.0
  0
SPLINE
  5
118
100
AcDbEntity
  8
cut.coverBottom
 62
1
100
AcDbSpline
 70
8
 71
3
 72
8
 73
4
 74
0
 40
0
 40
0
 40
0
 40
0
 40
1
 40
1
 40
1
 40
1
 10
157.569131
 20
161.010683
 30
0.0
 10
157.869190
 20
161.310742
 30
0.0
 10
158.276156
 20
161.479313
 30
0.0
 10
158.700502
 20
161.479313
 30
0.0
  0
SPLINE
  5
119
100
AcDbEntity
  8
cut.coverBottom
 62
1
100
AcDbSpline
 70
8
 71
3
 72
8
 73
4
 74
0
 40
0
 40
0
 40
0
 40
0
 40
1
 40
1
 40
1
 40
1
 10
158.700502
 20
161.479313
 30
0.0
 10
159.124849
 20
161.479313
 30
0.0
 10
159.531815
 20
161.310742
 30
0.0
 10
159.831871
 20
161.010683
 30
0.0
  0
SPLINE
  5
11a
100
AcDbEntity
  8
cut.coverBottom
 62
1
100
AcDbSpline
 70
8
 71
3
 72
8
 73
4
 74
0
 40
0
 40
0
 40
0
 40
0
 40
1
 40
1
 40
1
 40
1
 10
159.831871
 20
161.010683
 30
0.0
 10
160.131929
 20
160.710625
 30
0.0
 10
160.300501
 20
160.303658
 30
0.0
 10
160.300501
 20
159.879312
 30
0.0
  0
SPLINE
  5
11b
100
AcDbEntity
  8
cut.coverBottom
 62
1
100
AcDbSpline
 70
8
 71
3
 72
8
 73
4
 74
0
 40
0
 40
0
 40
0
 40
0
 40
1
 40
1
 40
1
 40
1
 10
195.300471
 20
36.879415
 30
0.0
 10
195.300471
 20
36.455069
 30
0.0
 10
195.131900
 20
36.048102
 30
0.0
 10
194.831841
 20
35.748044
 30
0.0
  0
SPLINE
  5
11c
100
AcDbEntity
  8
cut.coverBottom
 62
1
100
AcDbSpline
 70
8
 71
3
 72
8
 73
4
 74
0
 40
0
 40
0
 40
0
 40
0
 40
1
 40
1
 40
1
 40
1
 10
194.831841
 20
35.748044
 30
0.0
 10
194.531785
 20
35.447985
 30
0.0
 10
194.124819
 20
35.279417
 30
0.0
 10
193.700473
 20
35.279417
 30
0.0
  0
SPLINE
  5
11d
100
AcDbEntity
  8
cut.coverBottom
 62
1
100
AcDbSpline
 70
8
 71
3
 72
8
 73
4
 74
0
 40
0
 40
0
 40
0
 40
0
 40
1
 40
1
 40
1
 40
1
 10
193.700473
 20
35.279417
 30
0.0
 10
192.816817
 20
35.279417
 30
0.0
 10
192.100474
 20
35.995760
 30
0.0
 10
192.100474
 20
36.879415
 30
0.0
  0
SPLINE
  5
11e
100
AcDbEntity
  8
cut.coverBottom
 62
1
100
AcDbSpline
 70
8
 71
3
 72
8
 73
4
 74
0
 40
0
 40
0
 40
0
 40
0
 40
1
 40
1
 40
1
 40
1
 10
192.100474
 20
36.879415
 30
0.0
 10
192.100474
 20
37.763068
 30
0.0
 10
192.816817
 20
38.479414
 30
0.0
 10
193.700473
 20
38.479414
 30
0.0
  0
SPLINE
  5
11f
100
AcDbEntity
  8
cut.coverBottom
 62
1
100
AcDbSpline
 70
8
 71
3
 72
8
 73
4
 74
0
 40
0
 40
0
 40
0
 40
0
 40
1
 40
1
 40
1
 40
1
 10
193.700473
 20
38.479414
 30
0.0
 10
194.124819
 20
38.479414
 30
0.0
 10
194.531785
 20
38.310842
 30
0.0
 10
194.831841
 20
38.010784
 30
0.0
  0
SPLINE
  5
120
100
AcDbEntity
  8
cut.coverBottom
 62
1
100
AcDbSpline
 70
8
 71
3
 72
8
 73
4
 74
0
 40
0
 40
0
 40
0
 40
0
 40
1
 40
1
 40
1
 40
1
 10
194.831841
 20
38.010784
 30
0.0
 10
195.131900
 20
37.710728
 30
0.0
 10
195.300471
 20
37.303762
 30
0.0
 10
195.300471
 20
36.879415
 30
0.0
  0
SPLINE
  5
121
100
AcDbEntity
  8
cut.coverBottom
 62
1
100
AcDbSpline
 70
8
 71
3
 72
8
 73
4
 74
0
 40
0
 40
0
 40
0
 40
0
 40
1
 40
1
 40
1
 40
1
 10
378.300350
 20
101.879360
 30
0.0
 10
378.300350
 20
100.995707
 30
0.0
 10
377.583991
 20
100.279366
 30
0.0
 10
376.700336
 20
100.279364
 30
0.0
  0
SPLINE
  5
122
100
AcDbEntity
  8
cut.coverBottom
 62
1
100
AcDbSpline
 70
8
 71
3
 72
8
 73
4
 74
0
 40
0
 40
0
 40
0
 40
0
 40
1
 40
1
 40
1
 40
1
 10
376.700336
 20
100.279364
 30
0.0
 10
376.275997
 20
100.279358
 30
0.0
 10
375.869015
 20
100.447924
 30
0.0
 10
375.568951
 20
100.747983
 30
0.0
  0
SPLINE
  5
123
100
AcDbEntity
  8
cut.coverBottom
 62
1
100
AcDbSpline
 70
8
 71
3
 72
8
 73
4
 74
0
 40
0
 40
0
 40
0
 40
0
 40
1
 40
1
 40
1
 40
1
 10
375.568951
 20
100.747983
 30
0.0
 10
375.268887
 20
101.048042
 30
0.0
 10
375.100321
 20
101.455010
 30
0.0
 10
375.100321
 20
101.879360
 30
0.0
  0
SPLINE
  5
124
100
AcDbEntity
  8
cut.coverBottom
 62
1
100
AcDbSpline
 70
8
 71
3
 72
8
 73
4
 74
0
 40
0
 40
0
 40
0
 40
0
 40
1
 40
1
 40
1
 40
1
 10
375.100321
 20
101.879360
 30
0.0
 10
375.100321
 20
102.303711
 30
0.0
 10
375.268887
 20
102.710680
 30
0.0
 10
375.568951
 20
103.010739
 30
0.0
  0
SPLINE
  5
125
100
AcDbEntity
  8
cut.coverBottom
 62
1
100
AcDbSpline
 70
8
 71
3
 72
8
 73
4
 74
0
 40
0
 40
0
 40
0
 40
0
 40
1
 40
1
 40
1
 40
1
 10
375.568951
 20
103.010739
 30
0.0
 10
375.869015
 20
103.310797
 30
0.0
 10
376.275997
 20
103.479366
 30
0.0
 10
376.700336
 20
103.479361
 30
0.0
  0
SPLINE
  5
126
100
AcDbEntity
  8
cut.coverBottom
 62
1
100
AcDbSpline
 70
8
 71
3
 72
8
 73
4
 74
0
 40
0
 40
0
 40
0
 40
0
 40
1
 40
1
 40
1
 40
1
 10
376.700336
 20
103.479361
 30
0.0
 10
377.583991
 20
103.479358
 30
0.0
 10
378.300350
 20
102.763015
 30
0.0
 10
378.300350
 20
101.879360
 30
0.0
  0
SPLINE
  5
127
100
AcDbEntity
  8
cut.coverBottom
 62
1
100
AcDbSpline
 70
8
 71
3
 72
8
 73
4
 74
0
 40
0
 40
0
 40
0
 40
0
 40
1
 40
1
 40
1
 40
1
 10
365.300290
 20
51.879402
 30
0.0
 10
365.300316
 20
50.995750
 30
0.0
 10
364.583957
 20
50.279404
 30
0.0
 10
363.700302
 20
50.279401
 30
0.0
  0
SPLINE
  5
128
100
AcDbEntity
  8
cut.coverBottom
 62
1
100
AcDbSpline
 70
8
 71
3
 72
8
 73
4
 74
0
 40
0
 40
0
 40
0
 40
0
 40
1
 40
1
 40
1
 40
1
 10
363.700302
 20
50.279401
 30
0.0
 10
362.816647
 20
50.279404
 30
0.0
 10
362.100314
 20
50.995750
 30
0.0
 10
362.100314
 20
51.879402
 30
0.0
  0
SPLINE
  5
129
100
AcDbEntity
  8
cut.coverBottom
 62
1
100
AcDbSpline
 70
8
 71
3
 72
8
 73
4
 74
0
 40
0
 40
0
 40
0
 40
0
 40
1
 40
1
 40
1
 40
1
 10
362.100314
 20
51.879402
 30
0.0
 10
362.100314
 20
52.763057
 30
0.0
 10
362.816647
 20
53.479401
 30
0.0
 10
363.700302
 20
53.479401
 30
0.0
  0
SPLINE
  5
12a
100
AcDbEntity
  8
cut.coverBottom
 62
1
100
AcDbSpline
 70
8
 71
3
 72
8
 73
4
 74
0
 40
0
 40
0
 40
0
 40
0
 40
1
 40
1
 40
1
 40
1
 10
363.700302
 20
53.479401
 30
0.0
 10
364.583957
 20
53.479401
 30
0.0
 10
365.300290
 20
52.763057
 30
0.0
 10
365.300290
 20
51.879402
 30
0.0
  0
SPLINE
  5
12b
100
AcDbEntity
  8
cut.coverBottom
 62
1
100
AcDbSpline
 70
8
 71
3
 72
8
 73
4
 74
0
 40
0
 40
0
 40
0
 40
0
 40
1
 40
1
 40
1
 40
1
 10
265.300412
 20
11.879440
 30
0.0
 10
265.300412
 20
10.995785
 30
0.0
 10
264.584053
 20
10.279453
 30
0.0
 10
263.700411
 20
10.279453
 30
0.0
  0
SPLINE
  5
12c
100
AcDbEntity
  8
cut.coverBottom
 62
1
100
AcDbSpline
 70
8
 71
3
 72
8
 73
4
 74
0
 40
0
 40
0
 40
0
 40
0
 40
1
 40
1
 40
1
 40
1
 10
263.700411
 20
10.279453
 30
0.0
 10
262.816758
 20
10.279453
 30
0.0
 10
262.100415
 20
10.995785
 30
0.0
 10
262.100415
 20
11.879440
 30
0.0
  0
SPLINE
  5
12d
100
AcDbEntity
  8
cut.coverBottom
 62
1
100
AcDbSpline
 70
8
 71
3
 72
8
 73
4
 74
0
 40
0
 40
0
 40
0
 40
0
 40
1
 40
1
 40
1
 40
1
 10
262.100415
 20
11.879440
 30
0.0
 10
262.100415
 20
12.763096
 30
0.0
 10
262.816756
 20
13.479455
 30
0.0
 10
263.700411
 20
13.479455
 30
0.0
  0
SPLINE
  5
12e
100
AcDbEntity
  8
cut.coverBottom
 62
1
100
AcDbSpline
 70
8
 71
3
 72
8
 73
4
 74
0
 40
0
 40
0
 40
0
 40
0
 40
1
 40
1
 40
1
 40
1
 10
263.700411
 20
13.479455
 30
0.0
 10
264.584053
 20
13.479455
 30
0.0
 10
265.300412
 20
12.763096
 30
0.0
 10
265.300412
 20
11.879440
 30
0.0
  0
SPLINE
  5
12f
100
AcDbEntity
  8
cut.coverBottom
 62
1
100
AcDbSpline
 70
8
 71
3
 72
8
 73
4
 74
0
 40
0
 40
0
 40
0
 40
0
 40
1
 40
1
 40
1
 40
1
 10
125.300530
 20
11.879440
 30
0.0
 10
125.300530
 20
10.995785
 30
0.0
 10
124.584187
 20
10.279426
 30
0.0
 10
123.700532
 20
10.279426
 30
0.0
  0
SPLINE
  5
130
100
AcDbEntity
  8
cut.coverBottom
 62
1
100
AcDbSpline
 70
8
 71
3
 72
8
 73
4
 74
0
 40
0
 40
0
 40
0
 40
0
 40
1
 40
1
 40
1
 40
1
 10
123.700532
 20
10.279426
 30
0.0
 10
123.276185
 20
10.279426
 30
0.0
 10
122.869219
 20
10.448019
 30
0.0
 10
122.569161
 20
10.748056
 30
0.0
  0
SPLINE
  5
131
100
AcDbEntity
  8
cut.coverBottom
 62
1
100
AcDbSpline
 70
8
 71
3
 72
8
 73
4
 74
0
 40
0
 40
0
 40
0
 40
0
 40
1
 40
1
 40
1
 40
1
 10
122.569161
 20
10.748056
 30
0.0
 10
122.269102
 20
11.048120
 30
0.0
 10
122.100531
 20
11.455075
 30
0.0
 10
122.100531
 20
11.879440
 30
0.0
  0
SPLINE
  5
132
100
AcDbEntity
  8
cut.coverBottom
 62
1
100
AcDbSpline
 70
8
 71
3
 72
8
 73
4
 74
0
 40
0
 40
0
 40
0
 40
0
 40
1
 40
1
 40
1
 40
1
 10
122.100531
 20
11.879440
 30
0.0
 10
122.100531
 20
12.303779
 30
0.0
 10
122.269102
 20
12.710761
 30
0.0
 10
122.569161
 20
13.010798
 30
0.0
  0
SPLINE
  5
133
100
AcDbEntity
  8
cut.coverBottom
 62
1
100
AcDbSpline
 70
8
 71
3
 72
8
 73
4
 74
0
 40
0
 40
0
 40
0
 40
0
 40
1
 40
1
 40
1
 40
1
 10
122.569161
 20
13.010798
 30
0.0
 10
122.869219
 20
13.310862
 30
0.0
 10
123.276185
 20
13.479428
 30
0.0
 10
123.700532
 20
13.479428
 30
0.0
  0
SPLINE
  5
134
100
AcDbEntity
  8
cut.coverBottom
 62
1
100
AcDbSpline
 70
8
 71
3
 72
8
 73
4
 74
0
 40
0
 40
0
 40
0
 40
0
 40
1
 40
1
 40
1
 40
1
 10
123.700532
 20
13.479428
 30
0.0
 10
124.124878
 20
13.479428
 30
0.0
 10
124.531844
 20
13.310862
 30
0.0
 10
124.831900
 20
13.010798
 30
0.0
  0
SPLINE
  5
135
100
AcDbEntity
  8
cut.coverBottom
 62
1
100
AcDbSpline
 70
8
 71
3
 72
8
 73
4
 74
0
 40
0
 40
0
 40
0
 40
0
 40
1
 40
1
 40
1
 40
1
 10
124.831900
 20
13.010798
 30
0.0
 10
125.131959
 20
12.710735
 30
0.0
 10
125.300530
 20
12.303779
 30
0.0
 10
125.300530
 20
11.879440
 30
0.0
  0
SPLINE
  5
136
100
AcDbEntity
  8
cut.coverBottom
 62
1
100
AcDbSpline
 70
8
 71
3
 72
8
 73
4
 74
0
 40
0
 40
0
 40
0
 40
0
 40
1
 40
1
 40
1
 40
1
 10
25.300614
 20
51.879402
 30
0.0
 10
25.300615
 20
51.455056
 30
0.0
 10
25.132044
 20
51.048089
 30
0.0
 10
24.831985
 20
50.748031
 30
0.0
  0
SPLINE
  5
137
100
AcDbEntity
  8
cut.coverBottom
 62
1
100
AcDbSpline
 70
8
 71
3
 72
8
 73
4
 74
0
 40
0
 40
0
 40
0
 40
0
 40
1
 40
1
 40
1
 40
1
 10
24.831985
 20
50.748031
 30
0.0
 10
24.531927
 20
50.447972
 30
0.0
 10
24.124960
 20
50.279401
 30
0.0
 10
23.700613
 20
50.279401
 30
0.0
  0
SPLINE
  5
138
100
AcDbEntity
  8
cut.coverBottom
 62
1
100
AcDbSpline
 70
8
 71
3
 72
8
 73
4
 74
0
 40
0
 40
0
 40
0
 40
0
 40
1
 40
1
 40
1
 40
1
 10
23.700613
 20
50.279401
 30
0.0
 10
23.276267
 20
50.279401
 30
0.0
 10
22.869301
 20
50.447975
 30
0.0
 10
22.569244
 20
50.748031
 30
0.0
  0
SPLINE
  5
139
100
AcDbEntity
  8
cut.coverBottom
 62
1
100
AcDbSpline
 70
8
 71
3
 72
8
 73
4
 74
0
 40
0
 40
0
 40
0
 40
0
 40
1
 40
1
 40
1
 40
1
 10
22.569244
 20
50.748031
 30
0.0
 10
22.269186
 20
51.048089
 30
0.0
 10
22.100614
 20
51.455058
 30
0.0
 10
22.100616
 20
51.879402
 30
0.0
  0
SPLINE
  5
13a
100
AcDbEntity
  8
cut.coverBottom
 62
1
100
AcDbSpline
 70
8
 71
3
 72
8
 73
4
 74
0
 40
0
 40
0
 40
0
 40
0
 40
1
 40
1
 40
1
 40
1
 10
22.100616
 20
51.879402
 30
0.0
 10
22.100616
 20
52.763057
 30
0.0
 10
22.816959
 20
53.479401
 30
0.0
 10
23.700613
 20
53.479401
 30
0.0
  0
SPLINE
  5
13b
100
AcDbEntity
  8
cut.coverBottom
 62
1
100
AcDbSpline
 70
8
 71
3
 72
8
 73
4
 74
0
 40
0
 40
0
 40
0
 40
0
 40
1
 40
1
 40
1
 40
1
 10
23.700613
 20
53.479401
 30
0.0
 10
24.124960
 20
53.479401
 30
0.0
 10
24.531926
 20
53.310832
 30
0.0
 10
24.831984
 20
53.010773
 30
0.0
  0
SPLINE
  5
13c
100
AcDbEntity
  8
cut.coverBottom
 62
1
100
AcDbSpline
 70
8
 71
3
 72
8
 73
4
 74
0
 40
0
 40
0
 40
0
 40
0
 40
1
 40
1
 40
1
 40
1
 10
24.831984
 20
53.010773
 30
0.0
 10
25.132043
 20
52.710715
 30
0.0
 10
25.300614
 20
52.303749
 30
0.0
 10
25.300614
 20
51.879402
 30
0.0
  0
SPLINE
  5
13d
100
AcDbEntity
  8
cut.coverBottom
 62
1
100
AcDbSpline
 70
8
 71
3
 72
8
 73
4
 74
0
 40
0
 40
0
 40
0
 40
0
 40
1
 40
1
 40
1
 40
1
 10
7.992420
 20
126.879340
 30
0.0
 10
5.700629
 20
116.879346
 30
0.0
 10
3.700631
 20
106.879359
 30
0.0
 10
3.700631
 20
96.879363
 30
0.0
  0
SPLINE
  5
13e
100
AcDbEntity
  8
cut.coverBottom
 62
1
100
AcDbSpline
 70
8
 71
3
 72
8
 73
4
 74
0
 40
0
 40
0
 40
0
 40
0
 40
1
 40
1
 40
1
 40
1
 10
3.700631
 20
96.879363
 30
0.0
 10
3.700624
 20
45.516916
 30
0.0
 10
45.487887
 20
2.029297
 30
0.0
 10
96.850334
 20
2.029323
 30
0.0
  0
SPLINE
  5
13f
100
AcDbEntity
  8
cut.coverBottom
 62
1
100
AcDbSpline
 70
8
 71
3
 72
8
 73
4
 74
0
 40
0
 40
0
 40
0
 40
0
 40
1
 40
1
 40
1
 40
1
 10
96.850334
 20
2.029323
 30
0.0
 10
148.212784
 20
2.029297
 30
0.0
 10
158.700502
 20
29.379427
 30
0.0
 10
186.200482
 20
29.379427
 30
0.0
  0
SPLINE
  5
140
100
AcDbEntity
  8
cut.coverBottom
 62
1
100
AcDbSpline
 70
8
 71
3
 72
8
 73
4
 74
0
 40
0
 40
0
 40
0
 40
0
 40
1
 40
1
 40
1
 40
1
 10
201.200469
 20
29.379427
 30
0.0
 10
228.700446
 20
29.379427
 30
0.0
 10
239.188050
 20
2.029297
 30
0.0
 10
290.550492
 20
2.029323
 30
0.0
  0
SPLINE
  5
141
100
AcDbEntity
  8
cut.coverBottom
 62
1
100
AcDbSpline
 70
8
 71
3
 72
8
 73
4
 74
0
 40
0
 40
0
 40
0
 40
0
 40
1
 40
1
 40
1
 40
1
 10
290.550492
 20
2.029323
 30
0.0
 10
341.912929
 20
2.029297
 30
0.0
 10
383.700309
 20
45.516913
 30
0.0
 10
383.700309
 20
96.879363
 30
0.0
  0
SPLINE
  5
142
100
AcDbEntity
  8
cut.coverBottom
 62
1
100
AcDbSpline
 70
8
 71
3
 72
8
 73
4
 74
0
 40
0
 40
0
 40
0
 40
0
 40
1
 40
1
 40
1
 40
1
 10
383.700309
 20
96.879363
 30
0.0
 10
383.700309
 20
106.879359
 30
0.0
 10
381.700298
 20
116.879346
 30
0.0
 10
379.700313
 20
126.879340
 30
0.0
  0
LWPOLYLINE
  5
143
100
AcDbEntity
  8
cut.coverBottom
 62
1
100
AcDbPolyline
 90
2
 70
0
 10
20.700617
 20
183.879292
 30
0.0
 10
7.992420
 20
126.879340
 30
0.0
  0
SPLINE
  5
144
100
AcDbEntity
  8
cut.coverBottom
 62
1
100
AcDbSpline
 70
8
 71
3
 72
8
 73
4
 74
0
 40
0
 40
0
 40
0
 40
0
 40
1
 40
1
 40
1
 40
1
 10
366.700332
 20
183.879292
 30
0.0
 10
365.700340
 20
188.879288
 30
0.0
 10
362.700336
 20
188.879288
 30
0.0
 10
358.700340
 20
188.879288
 30
0.0
  0
SPLINE
  5
145
100
AcDbEntity
  8
cut.coverBottom
 62
1
100
AcDbSpline
 70
8
 71
3
 72
8
 73
4
 74
0
 40
0
 40
0
 40
0
 40
0
 40
1
 40
1
 40
1
 40
1
 10
358.700340
 20
188.879288
 30
0.0
 10
223.700444
 20
176.879297
 30
0.0
 10
223.700444
 20
157.879314
 30
0.0
 10
203.200462
 20
157.879314
 30
0.0
  0
LWPOLYLINE
  5
146
100
AcDbEntity
  8
cut.coverBottom
 62
1
100
AcDbPolyline
 90
2
 70
0
 10
186.200482
 20
29.379427
 30
0.0
 10
201.200469
 20
29.379427
 30
0.0
  0
SPLINE
  5
147
100
AcDbEntity
  8
cut.coverBottom
 62
1
100
AcDbSpline
 70
8
 71
3
 72
8
 73
4
 74
0
 40
0
 40
0
 40
0
 40
0
 40
1
 40
1
 40
1
 40
1
 10
184.200478
 20
157.879314
 30
0.0
 10
163.700496
 20
157.879314
 30
0.0
 10
163.700496
 20
176.879297
 30
0.0
 10
28.700611
 20
188.879288
 30
0.0
  0
SPLINE
  5
148
100
AcDbEntity
  8
cut.coverBottom
 62
1
100
AcDbSpline
 70
8
 71
3
 72
8
 73
4
 74
0
 40
0
 40
0
 40
0
 40
0
 40
1
 40
1
 40
1
 40
1
 10
28.700611
 20
188.879288
 30
0.0
 10
24.700614
 20
188.879288
 30
0.0
 10
21.700617
 20
188.879288
 30
0.0
 10
20.700617
 20
183.879292
 30
0.0
  0
LWPOLYLINE
  5
149
100
AcDbEntity
  8
cut.coverBottom
 62
1
100
AcDbPolyline
 90
2
 70
0
 10
379.700313
 20
126.879340
 30
0.0
 10
366.700332
 20
183.879292
 30
0.0
  0
SPLINE
  5
14a
100
AcDbEntity
  8
cut.coverBottom
 62
1
100
AcDbSpline
 70
8
 71
3
 72
8
 73
4
 74
0
 40
0
 40
0
 40
0
 40
0
 40
1
 40
1
 40
1
 40
1
 10
180.500485
 20
140.779330
 30
0.0
 10
180.500485
 20
140.447960
 30
0.0
 10
180.231857
 20
140.179331
 30
0.0
 10
179.900485
 20
140.179331
 30
0.0
  0
SPLINE
  5
14b
100
AcDbEntity
  8
cut.coverBottom
 62
1
100
AcDbSpline
 70
8
 71
3
 72
8
 73
4
 74
0
 40
0
 40
0
 40
0
 40
0
 40
1
 40
1
 40
1
 40
1
 10
179.900485
 20
140.179331
 30
0.0
 10
179.569113
 20
140.179331
 30
0.0
 10
179.300484
 20
140.447960
 30
0.0
 10
179.300484
 20
140.779330
 30
0.0
  0
SPLINE
  5
14c
100
AcDbEntity
  8
cut.coverBottom
 62
1
100
AcDbSpline
 70
8
 71
3
 72
8
 73
4
 74
0
 40
0
 40
0
 40
0
 40
0
 40
1
 40
1
 40
1
 40
1
 10
179.300484
 20
140.779330
 30
0.0
 10
179.300484
 20
141.110699
 30
0.0
 10
179.569113
 20
141.379328
 30
0.0
 10
179.900485
 20
141.379328
 30
0.0
  0
SPLINE
  5
14d
100
AcDbEntity
  8
cut.coverBottom
 62
1
100
AcDbSpline
 70
8
 71
3
 72
8
 73
4
 74
0
 40
0
 40
0
 40
0
 40
0
 40
1
 40
1
 40
1
 40
1
 10
179.900485
 20
141.379328
 30
0.0
 10
180.231857
 20
141.379328
 30
0.0
 10
180.500485
 20
141.110699
 30
0.0
 10
180.500485
 20
140.779330
 30
0.0
  0
LWPOLYLINE
  5
14e
100
AcDbEntity
  8
cut.coverBottom
 62
1
100
AcDbPolyline
 90
2
 70
0
 10
203.200462
 20
157.879314
 30
0.0
 10
184.200478
 20
157.879314
 30
0.0
  0
ENDSEC
  0
SECTION
  2
OBJECTS
  0
DICTIONARY
  5
C
330
0
100
AcDbDictionary
  3
ACAD_GROUP
350
D
  3
ACAD_MLINESTYLE
350
17
  0
DICTIONARY
  5
D
330
C
100
AcDbDictionary
  0
DICTIONARY
  5
1A
330
C
100
AcDbDictionary
  0
DICTIONARY
  5
17
330
C
100
AcDbDictionary
  3
STANDARD
350
18
  0
DICTIONARY
  5
19
330
C
100
AcDbDictionary
  0
ENDSEC
  0
EOF
