<?xml version="1.0" encoding="UTF-8" standalone="no"?>
<svg
   xmlns:dc="http://purl.org/dc/elements/1.1/"
   xmlns:cc="http://creativecommons.org/ns#"
   xmlns:rdf="http://www.w3.org/1999/02/22-rdf-syntax-ns#"
   xmlns:svg="http://www.w3.org/2000/svg"
   xmlns="http://www.w3.org/2000/svg"
   xmlns:sodipodi="http://sodipodi.sourceforge.net/DTD/sodipodi-0.dtd"
   xmlns:inkscape="http://www.inkscape.org/namespaces/inkscape"
   height="600mm"
   version="1.1"
   width="400mm"
   id="svg2"
   inkscape:version="0.91 r"
   sodipodi:docname="mcdox_cherrymx_3mm.svg">
  <metadata
     id="metadata48">
    <rdf:RDF>
      <cc:Work
         rdf:about="">
        <dc:format>image/svg+xml</dc:format>
        <dc:type
           rdf:resource="http://purl.org/dc/dcmitype/StillImage" />
        <dc:title />
      </cc:Work>
    </rdf:RDF>
  </metadata>
  <sodipodi:namedview
     pagecolor="#ffffff"
     bordercolor="#666666"
     borderopacity="1"
     objecttolerance="10"
     gridtolerance="10"
     guidetolerance="10"
     inkscape:pageopacity="0"
     inkscape:pageshadow="2"
     inkscape:window-width="1855"
     inkscape:window-height="1056"
     id="namedview46"
     showgrid="true"
     inkscape:zoom="0.43662035"
     inkscape:cx="708.88763"
     inkscape:cy="1063.0317"
     inkscape:window-x="65"
     inkscape:window-y="24"
     inkscape:window-maximized="1"
     inkscape:current-layer="svg2"
     inkscape:document-units="mm"
     units="mm"
     inkscape:showpageshadow="false"
     showguides="true"
     inkscape:guide-bbox="true">
    <inkscape:grid
       type="xygrid"
       id="grid3001"
       empspacing="5"
       visible="true"
       enabled="true"
       snapvisiblegridlinesonly="true"
       units="mm"
       spacingx="1mm"
       spacingy="1mm" />
  </sodipodi:namedview>
  <defs
     id="defs4" />
  <path
     inkscape:connector-curvature="0"
     id="circle6"
     d="m 683.14301,1918.2374 a 5.1377954,5.1377954 0 0 1 -5.13779,5.1378 5.1377954,5.1377954 0 0 1 -5.1378,-5.1378 5.1377954,5.1377954 0 0 1 5.1378,-5.1378 5.1377954,5.1377954 0 0 1 5.13779,5.1378 z"
     style="fill:none;stroke:#ff0000;stroke-width:1.06299198;stroke-opacity:1" />
  <path
     inkscape:connector-curvature="0"
     id="circle8"
     d="m 561.17384,1442.5784 a 5.1377954,5.1377954 0 0 1 -5.1378,5.1378 5.1377954,5.1377954 0 0 1 -5.13779,-5.1378 5.1377954,5.1377954 0 0 1 5.13779,-5.1378 5.1377954,5.1377954 0 0 1 5.1378,5.1378 z"
     style="fill:none;stroke:#ff0000;stroke-width:1.06299198;stroke-opacity:1" />
  <path
     inkscape:connector-curvature="0"
     id="circle10"
     d="m 231.99148,1442.5784 a 5.1377954,5.1377954 0 0 1 -5.1378,5.1378 5.1377954,5.1377954 0 0 1 -5.13779,-5.1378 5.1377954,5.1377954 0 0 1 5.13779,-5.1378 5.1377954,5.1377954 0 0 1 5.1378,5.1378 z"
     style="fill:none;stroke:#ff0000;stroke-width:1.06299198;stroke-opacity:1" />
  <path
     inkscape:connector-curvature="0"
     id="circle12"
     d="m 46.725846,1734.0002 a 5.1377954,5.1377954 0 0 1 -5.137796,5.1378 5.1377954,5.1377954 0 0 1 -5.137795,-5.1378 5.1377954,5.1377954 0 0 1 5.137795,-5.1378 5.1377954,5.1377954 0 0 1 5.137796,5.1378 z"
     style="fill:none;stroke:#ff0000;stroke-width:1.06299198;stroke-opacity:1" />
  <path
     inkscape:connector-curvature="0"
     id="circle14"
     d="m 450.69856,2074.2295 a 5.1377954,5.1377954 0 0 1 -5.1378,5.1378 5.1377954,5.1377954 0 0 1 -5.13779,-5.1378 5.1377954,5.1377954 0 0 1 5.13779,-5.1378 5.1377954,5.1377954 0 0 1 5.1378,5.1378 z"
     style="fill:none;stroke:#ff0000;stroke-width:1.06299198;stroke-opacity:1" />
  <path
     inkscape:connector-curvature="0"
     id="circle16"
     d="m 86.426098,1946.1812 a 5.1377954,5.1377954 0 0 1 -5.137795,5.1378 5.1377954,5.1377954 0 0 1 -5.137796,-5.1378 5.1377954,5.1377954 0 0 1 5.137796,-5.1378 5.1377954,5.1377954 0 0 1 5.137795,5.1378 z"
     style="fill:none;stroke:#ff0000;stroke-width:1.06299198;stroke-opacity:1" />
  <path
     inkscape:connector-curvature="0"
     id="circle18"
     d="m 1341.6247,1946.1812 a 5.1377954,5.1377954 0 0 1 -5.1378,5.1378 5.1377954,5.1377954 0 0 1 -5.1377,-5.1378 5.1377954,5.1377954 0 0 1 5.1377,-5.1378 5.1377954,5.1377954 0 0 1 5.1378,5.1378 z"
     style="fill:none;stroke:#ff0000;stroke-width:1.06299198;stroke-opacity:1" />
  <path
     inkscape:connector-curvature="0"
     id="circle20"
     d="m 977.3523,2074.2295 a 5.1377954,5.1377954 0 0 1 -5.13779,5.1378 5.1377954,5.1377954 0 0 1 -5.1378,-5.1378 5.1377954,5.1377954 0 0 1 5.1378,-5.1378 5.1377954,5.1377954 0 0 1 5.13779,5.1378 z"
     style="fill:none;stroke:#ff0000;stroke-width:1.06299198;stroke-opacity:1" />
  <path
     inkscape:connector-curvature="0"
     id="circle22"
     d="m 1381.3251,1734.0002 a 5.1377954,5.1377954 0 0 1 -5.1378,5.1378 5.1377954,5.1377954 0 0 1 -5.1378,-5.1378 5.1377954,5.1377954 0 0 1 5.1378,-5.1378 5.1377954,5.1377954 0 0 1 5.1378,5.1378 z"
     style="fill:none;stroke:#ff0000;stroke-width:1.06299198;stroke-opacity:1" />
  <path
     inkscape:connector-curvature="0"
     id="circle24"
     d="m 1196.0594,1442.5784 a 5.1377954,5.1377954 0 0 1 -5.1378,5.1378 5.1377954,5.1377954 0 0 1 -5.1378,-5.1378 5.1377954,5.1377954 0 0 1 5.1378,-5.1378 5.1377954,5.1377954 0 0 1 5.1378,5.1378 z"
     style="fill:none;stroke:#ff0000;stroke-width:1.06299198;stroke-opacity:1" />
  <path
     inkscape:connector-curvature="0"
     id="circle26"
     d="m 866.87696,1442.5784 a 5.1377954,5.1377954 0 0 1 -5.13779,5.1378 5.1377954,5.1377954 0 0 1 -5.1378,-5.1378 5.1377954,5.1377954 0 0 1 5.1378,-5.1378 5.1377954,5.1377954 0 0 1 5.13779,5.1378 z"
     style="fill:none;stroke:#ff0000;stroke-width:1.06299198;stroke-opacity:1" />
  <path
     inkscape:connector-curvature="0"
     id="circle28"
     d="m 744.90785,1918.2374 a 5.1377954,5.1377954 0 0 1 -5.1378,5.1378 5.1377954,5.1377954 0 0 1 -5.13779,-5.1378 5.1377954,5.1377954 0 0 1 5.13779,-5.1378 5.1377954,5.1377954 0 0 1 5.1378,5.1378 z"
     style="fill:none;stroke:#ff0000;stroke-width:1.06299198;stroke-opacity:1" />
  <path
     inkscape:connector-curvature="0"
     id="polyline30"
     d="M 21.405957,1711.1583 85.96868,1431.5064"
     style="fill:none;stroke:#ff0000;stroke-width:1.06299198;stroke-opacity:1" />
  <path
     d="m 103.23115,1417.7752 a 17.716535,17.716535 0 0 0 -17.26247,13.7312"
     style="fill:none;stroke:#ff0000;stroke-width:1.06299198;stroke-opacity:1"
     id="path32"
     inkscape:connector-curvature="0" />
  <path
     inkscape:connector-curvature="0"
     id="polyline34"
     d="m 103.23115,1417.7752 573.76672,0 0,124.0158 63.77952,0 0,-124.0158 573.76681,0"
     style="fill:none;stroke:#ff0000;stroke-width:1.06299198;stroke-opacity:1" />
  <path
     d="m 1331.8066,1431.5064 a 17.716535,17.716535 0 0 0 -17.2624,-13.7312"
     style="fill:none;stroke:#ff0000;stroke-width:1.06299198;stroke-opacity:1"
     id="path36"
     inkscape:connector-curvature="0" />
  <path
     inkscape:connector-curvature="0"
     id="polyline38"
     d="m 1331.8066,1431.5064 64.5627,279.6519"
     style="fill:none;stroke:#ff0000;stroke-width:1.06299198;stroke-opacity:1" />
  <path
     d="M 836.96764,2012.8645 A 329.52756,329.52756 0 0 0 1396.3693,1711.1583"
     style="fill:none;stroke:#ff0000;stroke-width:1.06299198;stroke-opacity:1"
     id="path40"
     inkscape:connector-curvature="0" />
  <path
     d="m 836.96764,2012.8645 a 177.09767,177.09767 0 0 0 -256.16002,0"
     style="fill:none;stroke:#ff0000;stroke-width:1.06299198;stroke-opacity:1"
     id="path42"
     inkscape:connector-curvature="0" />
  <path
     d="M 21.405957,1711.1583 A 329.52756,329.52756 0 0 0 580.80762,2012.8645"
     style="fill:none;stroke:#ff0000;stroke-width:1.06299198;stroke-opacity:1"
     id="path44"
     inkscape:connector-curvature="0" />
  <path
     inkscape:connector-curvature="0"
     id="polyline6"
     d="m 432.94133,1182.3781 -2.18148,2.7921 -10.33101,-8.0714 34.2492,-43.837 10.33101,8.0715 -2.18148,2.7921 17.59064,13.7433 2.18147,-2.7921 10.33101,8.0714 -34.2492,43.837 -10.33101,-8.0714 2.18148,-2.7922 -17.59063,-13.7433"
     style="fill:none;stroke:#ff0000;stroke-width:1.06299198;stroke-opacity:1" />
  <path
     inkscape:connector-curvature="0"
     id="polyline8"
     d="m 485.99245,1223.8262 -2.18148,2.7921 -10.33101,-8.0714 34.2492,-43.837 10.33101,8.0715 -2.18148,2.7921 17.59063,13.7433 2.18148,-2.7921 10.33101,8.0714 -34.2492,43.837 -10.33101,-8.0715 2.18148,-2.7921 -17.59063,-13.7433"
     style="fill:none;stroke:#ff0000;stroke-width:1.06299198;stroke-opacity:1" />
  <path
     inkscape:connector-curvature="0"
     id="polyline10"
     d="m 529.80329,1255.8067 -2.79216,-2.1815 8.07147,-10.331 43.83697,34.2492 -8.07146,10.331 -2.79217,-2.1815 -13.74331,17.5907 2.79217,2.1814 -8.07147,10.3311 -43.83698,-34.2492 8.07147,-10.3311 2.79217,2.1815 13.7433,-17.5906"
     style="fill:none;stroke:#ff0000;stroke-width:1.06299198;stroke-opacity:1" />
  <path
     inkscape:connector-curvature="0"
     id="polyline12"
     d="m 571.25137,1202.7556 -2.79216,-2.1815 8.07146,-10.331 43.83698,34.2492 -8.07147,10.331 -2.79216,-2.1815 -13.74331,17.5907 2.79216,2.1814 -8.07146,10.331 -43.83698,-34.2492 8.07147,-10.331 2.79216,2.1815 13.74331,-17.5906"
     style="fill:none;stroke:#ff0000;stroke-width:1.06299198;stroke-opacity:1" />
  <path
     inkscape:connector-curvature="0"
     id="polyline14"
     d="m 612.69945,1149.7045 -2.79217,-2.1815 8.07147,-10.331 43.83698,34.2492 -8.07147,10.331 -2.79217,-2.1815 -13.74331,17.5906 2.79217,2.1815 -8.07147,10.331 -43.83697,-34.2492 8.07146,-10.331 2.79217,2.1815 13.74331,-17.5906"
     style="fill:none;stroke:#ff0000;stroke-width:1.06299198;stroke-opacity:1" />
  <path
     inkscape:connector-curvature="0"
     id="polyline16"
     d="m 559.64833,1108.2564 -2.79217,-2.1815 8.07147,-10.331 43.83698,34.2492 -8.07147,10.331 -2.79216,-2.1815 -13.74331,17.5906 2.79216,2.1815 -8.07147,10.331 -43.83697,-34.2492 8.07146,-10.331 2.79217,2.1815 13.74331,-17.5906"
     style="fill:none;stroke:#ff0000;stroke-width:1.06299198;stroke-opacity:1" />
  <path
     inkscape:connector-curvature="0"
     id="polyline18"
     d="m 534.89727,849.44038 -3.4525,-0.79707 2.94916,-12.77422 54.20413,12.51401 -2.94916,12.77422 -3.45249,-0.79707 -5.02154,21.7507 3.45249,0.79707 -2.94916,12.77422 -54.20413,-12.514 2.94916,-12.77423 3.45249,0.79707 5.02155,-21.7507"
     style="fill:none;stroke:#ff0000;stroke-width:1.06299198;stroke-opacity:1" />
  <path
     inkscape:connector-curvature="0"
     id="polyline20"
     d="m 520.77035,968.91116 -0.79707,3.45249 -12.77422,-2.94916 12.51401,-54.20413 12.77422,2.94916 -0.79707,3.4525 21.7507,5.02154 0.79707,-3.45249 12.77422,2.94916 -12.51401,54.20413 -12.77422,-2.94916 0.79707,-3.45249 -21.7507,-5.02155"
     style="fill:none;stroke:#ff0000;stroke-width:1.06299198;stroke-opacity:1" />
  <path
     inkscape:connector-curvature="0"
     id="polyline22"
     d="m 498.05384,1067.3072 -0.79707,3.4525 -12.77422,-2.9492 12.51401,-54.2041 12.77422,2.9492 -0.79707,3.4524 21.7507,5.0216 0.79707,-3.4525 12.77422,2.9492 -12.51401,54.2041 -12.77422,-2.9492 0.79707,-3.4525 -21.7507,-5.0215"
     style="fill:none;stroke:#ff0000;stroke-width:1.06299198;stroke-opacity:1" />
  <path
     inkscape:connector-curvature="0"
     id="polyline24"
     d="m 469.29991,834.29604 -3.45249,-0.79707 2.94916,-12.77422 54.20413,12.51401 -2.94916,12.77422 -3.45249,-0.79707 -5.02155,21.7507 3.45249,0.79707 -2.94916,12.77422 -54.20413,-12.51401 2.94916,-12.77422 3.4525,0.79707 5.02154,-21.7507"
     style="fill:none;stroke:#ff0000;stroke-width:1.06299198;stroke-opacity:1" />
  <path
     inkscape:connector-curvature="0"
     id="polyline26"
     d="m 454.15557,899.89339 -3.45249,-0.79707 2.94916,-12.77422 54.20413,12.51401 -2.94916,12.77422 -3.4525,-0.79707 -5.02154,21.7507 3.45249,0.79708 -2.94916,12.77422 -54.20413,-12.51401 2.94916,-12.77422 3.45249,0.79707 5.02155,-21.75071"
     style="fill:none;stroke:#ff0000;stroke-width:1.06299198;stroke-opacity:1" />
  <path
     inkscape:connector-curvature="0"
     id="polyline28"
     d="m 439.01123,965.49075 -3.4525,-0.79707 2.94916,-12.77422 54.20413,12.51401 -2.94916,12.77422 -3.45249,-0.79707 -5.02154,21.7507 3.45249,0.79707 -2.94916,12.77421 -54.20413,-12.514 2.94916,-12.77422 3.45249,0.79707 5.02155,-21.7507"
     style="fill:none;stroke:#ff0000;stroke-width:1.06299198;stroke-opacity:1" />
  <path
     inkscape:connector-curvature="0"
     id="polyline30-9"
     d="m 423.86688,1031.0881 -3.45249,-0.7971 2.94916,-12.7742 54.20413,12.514 -2.94916,12.7742 -3.45249,-0.797 -5.02155,21.7507 3.45249,0.797 -2.94916,12.7743 -54.20413,-12.514 2.94916,-12.7743 3.4525,0.7971 5.02154,-21.7507"
     style="fill:none;stroke:#ff0000;stroke-width:1.06299198;stroke-opacity:1" />
  <path
     inkscape:connector-curvature="0"
     id="polyline32"
     d="m 404.89816,813.97296 -3.45249,-0.79707 2.94916,-12.77422 54.20413,12.51401 -2.94916,12.77422 -3.45249,-0.79707 -5.02155,21.7507 3.45249,0.79707 -2.94916,12.77422 -54.20413,-12.51401 2.94916,-12.77422 3.4525,0.79707 5.02154,-21.7507"
     style="fill:none;stroke:#ff0000;stroke-width:1.06299198;stroke-opacity:1" />
  <path
     inkscape:connector-curvature="0"
     id="polyline34-6"
     d="m 389.75382,879.57031 -3.45249,-0.79707 2.94916,-12.77422 54.20413,12.51401 -2.94916,12.77422 -3.4525,-0.79707 -5.02154,21.7507 3.45249,0.79707 -2.94916,12.77423 -54.20413,-12.51401 2.94916,-12.77423 3.45249,0.79708 5.02155,-21.75071"
     style="fill:none;stroke:#ff0000;stroke-width:1.06299198;stroke-opacity:1" />
  <path
     inkscape:connector-curvature="0"
     id="polyline36"
     d="m 374.60948,945.16767 -3.4525,-0.79707 2.94917,-12.77422 54.20413,12.51401 -2.94917,12.77422 -3.45249,-0.79707 -5.02154,21.7507 3.45249,0.79707 -2.94916,12.77422 -54.20413,-12.51401 2.94916,-12.77422 3.45249,0.79707 5.02155,-21.7507"
     style="fill:none;stroke:#ff0000;stroke-width:1.06299198;stroke-opacity:1" />
  <path
     inkscape:connector-curvature="0"
     id="polyline38-3"
     d="m 359.46513,1010.765 -3.45249,-0.7971 2.94916,-12.77417 54.20413,12.51397 -2.94916,12.7743 -3.45249,-0.7971 -5.02155,21.7507 3.4525,0.7971 -2.94917,12.7742 -54.20413,-12.514 2.94917,-12.7743 3.45249,0.7971 5.02154,-21.7507"
     style="fill:none;stroke:#ff0000;stroke-width:1.06299198;stroke-opacity:1" />
  <path
     inkscape:connector-curvature="0"
     id="polyline40"
     d="m 344.32079,1076.3624 -3.45249,-0.7971 2.94916,-12.7742 54.20413,12.514 -2.94916,12.7742 -3.45249,-0.797 -5.02155,21.7506 3.45249,0.7971 -2.94916,12.7742 -54.20413,-12.514 2.94916,-12.7742 3.4525,0.7971 5.02154,-21.7507"
     style="fill:none;stroke:#ff0000;stroke-width:1.06299198;stroke-opacity:1" />
  <path
     inkscape:connector-curvature="0"
     id="polyline42"
     d="m 340.49641,793.64988 -3.45249,-0.79707 2.94916,-12.77423 54.20413,12.51401 -2.94916,12.77423 -3.45249,-0.79707 -5.02155,21.7507 3.4525,0.79707 -2.94917,12.77422 -54.20413,-12.51401 2.94917,-12.77422 3.45249,0.79707 5.02154,-21.7507"
     style="fill:none;stroke:#ff0000;stroke-width:1.06299198;stroke-opacity:1" />
  <path
     inkscape:connector-curvature="0"
     id="polyline44"
     d="m 325.35207,859.24723 -3.45249,-0.79707 2.94916,-12.77422 54.20413,12.51401 -2.94916,12.77422 -3.45249,-0.79707 -5.02155,21.7507 3.45249,0.79707 -2.94916,12.77422 -54.20413,-12.514 2.94916,-12.77423 3.4525,0.79707 5.02154,-21.7507"
     style="fill:none;stroke:#ff0000;stroke-width:1.06299198;stroke-opacity:1" />
  <path
     inkscape:connector-curvature="0"
     id="polyline46"
     d="m 310.20773,924.84459 -3.45249,-0.79707 2.94916,-12.77423 54.20413,12.51401 -2.94916,12.77423 -3.4525,-0.79707 -5.02154,21.7507 3.45249,0.79707 -2.94916,12.77422 -54.20413,-12.51401 2.94916,-12.77422 3.45249,0.79707 5.02155,-21.7507"
     style="fill:none;stroke:#ff0000;stroke-width:1.06299198;stroke-opacity:1" />
  <path
     inkscape:connector-curvature="0"
     id="polyline48"
     d="m 295.06338,990.44194 -3.45249,-0.79707 2.94916,-12.77422 54.20413,12.51401 -2.94916,12.77424 -3.45249,-0.7971 -5.02154,21.7507 3.45249,0.7971 -2.94916,12.7742 -54.20413,-12.514 2.94916,-12.7742 3.45249,0.797 5.02154,-21.75066"
     style="fill:none;stroke:#ff0000;stroke-width:1.06299198;stroke-opacity:1" />
  <path
     inkscape:connector-curvature="0"
     id="polyline50"
     d="m 279.91904,1056.0393 -3.45249,-0.7971 2.94916,-12.7742 54.20413,12.514 -2.94916,12.7742 -3.45249,-0.797 -5.02155,21.7507 3.45249,0.797 -2.94916,12.7743 -54.20413,-12.514 2.94916,-12.7743 3.4525,0.7971 5.02154,-21.7507"
     style="fill:none;stroke:#ff0000;stroke-width:1.06299198;stroke-opacity:1" />
  <path
     inkscape:connector-curvature="0"
     id="polyline52"
     d="m 273.70345,783.68427 -3.45249,-0.79707 2.94916,-12.77422 54.20413,12.51401 -2.94916,12.77422 -3.45249,-0.79707 -5.02155,21.7507 3.45249,0.79707 -2.94916,12.77423 -54.20413,-12.51401 2.94916,-12.77423 3.4525,0.79707 5.02154,-21.7507"
     style="fill:none;stroke:#ff0000;stroke-width:1.06299198;stroke-opacity:1" />
  <path
     inkscape:connector-curvature="0"
     id="polyline54"
     d="m 258.55911,849.28163 -3.45249,-0.79707 2.94916,-12.77422 54.20413,12.51401 -2.94916,12.77422 -3.4525,-0.79707 -5.02154,21.7507 3.45249,0.79707 -2.94916,12.77422 -54.20413,-12.51401 2.94916,-12.77422 3.45249,0.79707 5.02155,-21.7507"
     style="fill:none;stroke:#ff0000;stroke-width:1.06299198;stroke-opacity:1" />
  <path
     inkscape:connector-curvature="0"
     id="polyline56"
     d="m 243.41477,914.87898 -3.4525,-0.79707 2.94917,-12.77422 54.20413,12.51401 -2.94917,12.77422 -3.45249,-0.79707 -5.02154,21.7507 3.45249,0.79707 -2.94916,12.77423 -54.20413,-12.51401 2.94916,-12.77423 3.45249,0.79707 5.02155,-21.7507"
     style="fill:none;stroke:#ff0000;stroke-width:1.06299198;stroke-opacity:1" />
  <path
     inkscape:connector-curvature="0"
     id="polyline58"
     d="m 228.27042,980.47634 -3.45249,-0.79707 2.94916,-12.77422 54.20413,12.514 -2.94916,12.77423 -3.45249,-0.79707 -5.02155,21.75069 3.4525,0.7971 -2.94916,12.7742 -54.20413,-12.514 2.94916,-12.7742 3.45249,0.797 5.02154,-21.75066"
     style="fill:none;stroke:#ff0000;stroke-width:1.06299198;stroke-opacity:1" />
  <path
     inkscape:connector-curvature="0"
     id="polyline60"
     d="m 213.12608,1046.0737 -3.45249,-0.7971 2.94916,-12.7742 54.20413,12.514 -2.94916,12.7742 -3.45249,-0.797 -5.02155,21.7507 3.45249,0.797 -2.94916,12.7742 -54.20413,-12.5139 2.94916,-12.7743 3.4525,0.7971 5.02154,-21.7507"
     style="fill:none;stroke:#ff0000;stroke-width:1.06299198;stroke-opacity:1" />
  <path
     inkscape:connector-curvature="0"
     id="polyline62"
     d="m 205.71489,778.89741 -3.4525,-0.79707 2.94916,-12.77423 54.20413,12.51401 -2.94916,12.77423 -3.45249,-0.79707 -5.02154,21.7507 3.45249,0.79707 -2.94916,12.77422 -54.20413,-12.51401 2.94916,-12.77422 3.45249,0.79707 5.02155,-21.7507"
     style="fill:none;stroke:#ff0000;stroke-width:1.06299198;stroke-opacity:1" />
  <path
     inkscape:connector-curvature="0"
     id="polyline64"
     d="m 190.57054,844.49476 -3.45249,-0.79707 2.94916,-12.77422 54.20413,12.51401 -2.94916,12.77422 -3.45249,-0.79707 -5.02155,21.7507 3.4525,0.79707 -2.94917,12.77422 -54.20413,-12.514 2.94917,-12.77423 3.45249,0.79707 5.02154,-21.7507"
     style="fill:none;stroke:#ff0000;stroke-width:1.06299198;stroke-opacity:1" />
  <path
     inkscape:connector-curvature="0"
     id="polyline66"
     d="m 175.4262,910.09212 -3.45249,-0.79707 2.94916,-12.77423 54.20413,12.51401 -2.94916,12.77423 -3.45249,-0.79707 -5.02155,21.7507 3.45249,0.79707 -2.94916,12.77422 -54.20413,-12.51401 2.94916,-12.77422 3.45249,0.79707 5.02155,-21.7507"
     style="fill:none;stroke:#ff0000;stroke-width:1.06299198;stroke-opacity:1" />
  <path
     inkscape:connector-curvature="0"
     id="polyline68"
     d="m 160.28186,975.68947 -3.45249,-0.79707 2.94916,-12.77422 54.20413,12.51401 -2.94916,12.77422 -3.4525,-0.79707 -5.02154,21.75066 3.45249,0.7971 -2.94916,12.7742 -54.20413,-12.514 2.94916,-12.7742 3.45249,0.79707 5.02155,-21.7507"
     style="fill:none;stroke:#ff0000;stroke-width:1.06299198;stroke-opacity:1" />
  <path
     inkscape:connector-curvature="0"
     id="polyline70"
     d="m 145.13751,1041.2868 -3.45249,-0.797 2.94916,-12.7743 54.20413,12.514 -2.94916,12.7743 -3.45249,-0.7971 -5.02155,21.7507 3.4525,0.7971 -2.94916,12.7742 -54.20413,-12.514 2.94916,-12.7742 3.45249,0.797 5.02154,-21.7507"
     style="fill:none;stroke:#ff0000;stroke-width:1.06299198;stroke-opacity:1" />
  <path
     inkscape:connector-curvature="0"
     id="polyline72"
     d="m 123.71819,759.96698 -3.45249,-0.79707 2.94916,-12.77422 54.20413,12.51401 -2.94916,12.77422 -3.45249,-0.79707 -5.02155,21.7507 3.45249,0.79707 -2.94916,12.77422 -54.20413,-12.51401 2.94916,-12.77422 3.4525,0.79707 5.02154,-21.7507"
     style="fill:none;stroke:#ff0000;stroke-width:1.06299198;stroke-opacity:1" />
  <path
     inkscape:connector-curvature="0"
     id="polyline74"
     d="m 108.57385,825.56433 -3.45249,-0.79707 2.94916,-12.77422 54.20413,12.51401 -2.94916,12.77422 -3.4525,-0.79707 -5.02154,21.7507 3.45249,0.79707 -2.94916,12.77423 -54.204135,-12.51401 2.949165,-12.77422 3.45249,0.79707 5.02155,-21.75071"
     style="fill:none;stroke:#ff0000;stroke-width:1.06299198;stroke-opacity:1" />
  <path
     inkscape:connector-curvature="0"
     id="polyline76"
     d="m 93.429502,891.16169 -3.452493,-0.79707 2.949162,-12.77422 54.204139,12.51401 -2.94917,12.77422 -3.45249,-0.79707 -5.02154,21.7507 3.45249,0.79707 -2.94916,12.77422 -54.204137,-12.51401 2.949161,-12.77422 3.452492,0.79707 5.021546,-21.7507"
     style="fill:none;stroke:#ff0000;stroke-width:1.06299198;stroke-opacity:1" />
  <path
     inkscape:connector-curvature="0"
     id="polyline78"
     d="m 78.285159,956.75904 -3.452492,-0.79707 2.949161,-12.77422 54.204132,12.51401 -2.94916,12.77422 -3.45249,-0.79707 -5.02155,21.7507 3.4525,0.79707 -2.94916,12.77422 -54.20414,-12.514 2.949162,-12.77423 3.452492,0.79708 5.021545,-21.75071"
     style="fill:none;stroke:#ff0000;stroke-width:1.06299198;stroke-opacity:1" />
  <path
     inkscape:connector-curvature="0"
     id="polyline80"
     d="m 79.540155,1026.1425 -3.452492,-0.7971 2.949161,-12.7742 54.204136,12.514 -2.94916,12.7742 -3.45249,-0.797 -5.02155,21.7507 3.45249,0.797 -2.94916,12.7742 -54.204134,-12.514 2.949162,-12.7742 3.452492,0.7971 5.021545,-21.7507"
     style="fill:none;stroke:#ff0000;stroke-width:1.06299198;stroke-opacity:1" />
  <path
     inkscape:connector-curvature="0"
     id="polyline82"
     d="m 954.94769,1144.1254 -2.18148,-2.7921 10.33101,-8.0715 34.2492,43.837 -10.33101,8.0714 -2.18148,-2.7921 -17.59063,13.7433 2.18148,2.7922 -10.33101,8.0714 -34.2492,-43.8369 10.33101,-8.0715 2.18148,2.7921 17.59063,-13.7433"
     style="fill:none;stroke:#ff0000;stroke-width:1.06299198;stroke-opacity:1" />
  <path
     inkscape:connector-curvature="0"
     id="polyline84"
     d="m 901.89657,1185.5735 -2.18148,-2.7921 10.33101,-8.0715 34.2492,43.837 -10.33101,8.0714 -2.18147,-2.7921 -17.59064,13.7433 2.18148,2.7921 -10.33101,8.0715 -34.2492,-43.837 10.33101,-8.0714 2.18148,2.7921 17.59063,-13.7433"
     style="fill:none;stroke:#ff0000;stroke-width:1.06299198;stroke-opacity:1" />
  <path
     inkscape:connector-curvature="0"
     id="polyline86"
     d="m 849.71932,1285.6929 -2.79217,2.1815 -8.07146,-10.331 43.83697,-34.2492 8.07147,10.331 -2.79216,2.1815 13.74331,17.5906 2.79216,-2.1815 8.07147,10.3311 -43.83698,34.2492 -8.07147,-10.3311 2.79217,-2.1814 -13.74331,-17.5907"
     style="fill:none;stroke:#ff0000;stroke-width:1.06299198;stroke-opacity:1" />
  <path
     inkscape:connector-curvature="0"
     id="polyline88"
     d="m 808.27124,1232.6418 -2.79216,2.1815 -8.07147,-10.331 43.83698,-34.2492 8.07147,10.331 -2.79217,2.1815 13.74331,17.5906 2.79216,-2.1815 8.07147,10.331 -43.83697,34.2492 -8.07147,-10.331 2.79216,-2.1814 -13.74331,-17.5907"
     style="fill:none;stroke:#ff0000;stroke-width:1.06299198;stroke-opacity:1" />
  <path
     inkscape:connector-curvature="0"
     id="polyline90"
     d="m 766.82317,1179.5907 -2.79217,2.1815 -8.07146,-10.331 43.83697,-34.2492 8.07147,10.331 -2.79216,2.1815 13.7433,17.5906 2.79217,-2.1815 8.07147,10.331 -43.83698,34.2492 -8.07147,-10.331 2.79217,-2.1815 -13.74331,-17.5906"
     style="fill:none;stroke:#ff0000;stroke-width:1.06299198;stroke-opacity:1" />
  <path
     inkscape:connector-curvature="0"
     id="polyline92"
     d="m 819.87429,1138.1426 -2.79217,2.1815 -8.07147,-10.331 43.83698,-34.2492 8.07147,10.331 -2.79217,2.1815 13.74331,17.5906 2.79217,-2.1815 8.07146,10.331 -43.83697,34.2492 -8.07147,-10.331 2.79216,-2.1814 -13.7433,-17.5907"
     style="fill:none;stroke:#ff0000;stroke-width:1.06299198;stroke-opacity:1" />
  <path
     inkscape:connector-curvature="0"
     id="polyline94"
     d="m 835.57885,860.36025 -3.45249,0.79707 -2.94916,-12.77422 54.20413,-12.51401 2.94916,12.77422 -3.45249,0.79707 5.02154,21.7507 3.45249,-0.79707 2.94917,12.77423 -54.20413,12.514 -2.94917,-12.77422 3.4525,-0.79707 -5.02155,-21.7507"
     style="fill:none;stroke:#ff0000;stroke-width:1.06299198;stroke-opacity:1" />
  <path
     inkscape:connector-curvature="0"
     id="polyline96"
     d="m 886.08504,921.61202 -0.79707,-3.4525 12.77422,-2.94916 12.51401,54.20413 -12.77422,2.94916 -0.79707,-3.45249 -21.7507,5.02155 0.79707,3.45249 -12.77422,2.94916 -12.51401,-54.20413 12.77422,-2.94916 0.79707,3.45249 21.7507,-5.02154"
     style="fill:none;stroke:#ff0000;stroke-width:1.06299198;stroke-opacity:1" />
  <path
     inkscape:connector-curvature="0"
     id="polyline98"
     d="m 908.80156,1020.008 -0.79708,-3.4524 12.77423,-2.9492 12.51401,54.2041 -12.77423,2.9492 -0.79707,-3.4525 -21.7507,5.0215 0.79707,3.4525 -12.77422,2.9492 -12.51401,-54.2041 12.77422,-2.9492 0.79707,3.4525 21.75071,-5.0216"
     style="fill:none;stroke:#ff0000;stroke-width:1.06299198;stroke-opacity:1" />
  <path
     inkscape:connector-curvature="0"
     id="polyline100"
     d="m 901.17621,845.21591 -3.4525,0.79707 -2.94916,-12.77422 54.20413,-12.51401 2.94916,12.77422 -3.45249,0.79707 5.02155,21.7507 3.45249,-0.79707 2.94916,12.77422 -54.20413,12.51401 -2.94916,-12.77422 3.45249,-0.79707 -5.02154,-21.7507"
     style="fill:none;stroke:#ff0000;stroke-width:1.06299198;stroke-opacity:1" />
  <path
     inkscape:connector-curvature="0"
     id="polyline102"
     d="m 916.32055,910.81326 -3.45249,0.79707 -2.94917,-12.77422 54.20413,-12.51401 2.94917,12.77422 -3.4525,0.79707 5.02155,21.75071 3.45249,-0.79707 2.94916,12.77422 -54.20413,12.51401 -2.94916,-12.77422 3.45249,-0.79708 -5.02154,-21.7507"
     style="fill:none;stroke:#ff0000;stroke-width:1.06299198;stroke-opacity:1" />
  <path
     inkscape:connector-curvature="0"
     id="polyline104"
     d="m 931.46489,976.41062 -3.45249,0.79707 -2.94916,-12.77422 54.20413,-12.51401 2.94916,12.77422 -3.45249,0.79707 5.02154,21.7507 3.45249,-0.79707 2.94917,12.77422 -54.20413,12.514 -2.94917,-12.77421 3.4525,-0.79707 -5.02155,-21.7507"
     style="fill:none;stroke:#ff0000;stroke-width:1.06299198;stroke-opacity:1" />
  <path
     inkscape:connector-curvature="0"
     id="polyline106"
     d="m 946.60923,1042.008 -3.45249,0.797 -2.94916,-12.7742 54.20413,-12.514 2.94916,12.7742 -3.45249,0.7971 5.02158,21.7507 3.45254,-0.7971 2.9491,12.7743 -54.20415,12.514 -2.94916,-12.7743 3.45249,-0.797 -5.02155,-21.7507"
     style="fill:none;stroke:#ff0000;stroke-width:1.06299198;stroke-opacity:1" />
  <path
     inkscape:connector-curvature="0"
     id="polyline108"
     d="m 965.57795,824.89283 -3.45249,0.79707 -2.94916,-12.77422 54.2042,-12.51401 2.9491,12.77422 -3.4525,0.79707 5.0216,21.7507 3.4525,-0.79707 2.9491,12.77422 -54.20413,12.51401 -2.94916,-12.77422 3.45249,-0.79707 -5.02155,-21.7507"
     style="fill:none;stroke:#ff0000;stroke-width:1.06299198;stroke-opacity:1" />
  <path
     inkscape:connector-curvature="0"
     id="polyline110"
     d="m 980.7223,890.49018 -3.45249,0.79707 -2.94917,-12.77422 54.20416,-12.51401 2.9492,12.77422 -3.4525,0.79707 5.0215,21.75071 3.4525,-0.79708 2.9492,12.77423 -54.20419,12.51401 -2.94916,-12.77423 3.45249,-0.79707 -5.02154,-21.7507"
     style="fill:none;stroke:#ff0000;stroke-width:1.06299198;stroke-opacity:1" />
  <path
     inkscape:connector-curvature="0"
     id="polyline112"
     d="m 995.86664,956.08754 -3.45249,0.79707 -2.94916,-12.77422 54.20421,-12.51401 2.9491,12.77422 -3.4525,0.79707 5.0216,21.7507 3.4525,-0.79707 2.9491,12.77422 -54.2041,12.51401 -2.94921,-12.77422 3.45251,-0.79707 -5.02156,-21.7507"
     style="fill:none;stroke:#ff0000;stroke-width:1.06299198;stroke-opacity:1" />
  <path
     inkscape:connector-curvature="0"
     id="polyline114"
     d="m 1011.011,1021.6849 -3.4525,0.7971 -2.9491,-12.7743 54.2041,-12.51397 2.9492,12.77417 -3.4525,0.7971 5.0215,21.7507 3.4525,-0.797 2.9492,12.7742 -54.2042,12.514 -2.9491,-12.7742 3.4525,-0.7971 -5.0216,-21.7507"
     style="fill:none;stroke:#ff0000;stroke-width:1.06299198;stroke-opacity:1" />
  <path
     inkscape:connector-curvature="0"
     id="polyline116"
     d="m 1026.1554,1087.2823 -3.4525,0.797 -2.9492,-12.7742 54.2041,-12.514 2.9492,12.7742 -3.4525,0.7971 5.0216,21.7507 3.4524,-0.7971 2.9492,12.7742 -54.2041,12.514 -2.9492,-12.7742 3.4525,-0.797 -5.0215,-21.7507"
     style="fill:none;stroke:#ff0000;stroke-width:1.06299198;stroke-opacity:1" />
  <path
     inkscape:connector-curvature="0"
     id="polyline118"
     d="m 1029.9797,804.56975 -3.4524,0.79707 -2.9492,-12.77423 54.2041,-12.51401 2.9492,12.77423 -3.4525,0.79707 5.0215,21.7507 3.4525,-0.79707 2.9492,12.77422 -54.2041,12.51401 -2.9492,-12.77422 3.4525,-0.79707 -5.0216,-21.7507"
     style="fill:none;stroke:#ff0000;stroke-width:1.06299198;stroke-opacity:1" />
  <path
     inkscape:connector-curvature="0"
     id="polyline120"
     d="m 1045.1241,870.1671 -3.4525,0.79707 -2.9492,-12.77422 54.2042,-12.51401 2.9491,12.77422 -3.4525,0.79707 5.0216,21.7507 3.4525,-0.79707 2.9491,12.77423 -54.2041,12.514 -2.9492,-12.77422 3.4525,-0.79707 -5.0215,-21.7507"
     style="fill:none;stroke:#ff0000;stroke-width:1.06299198;stroke-opacity:1" />
  <path
     inkscape:connector-curvature="0"
     id="polyline122"
     d="m 1060.2684,935.76446 -3.4525,0.79707 -2.9491,-12.77423 54.2041,-12.51401 2.9492,12.77423 -3.4525,0.79707 5.0215,21.7507 3.4525,-0.79707 2.9492,12.77422 -54.2042,12.51401 -2.9491,-12.77422 3.4525,-0.79707 -5.0216,-21.7507"
     style="fill:none;stroke:#ff0000;stroke-width:1.06299198;stroke-opacity:1" />
  <path
     inkscape:connector-curvature="0"
     id="polyline124"
     d="m 1075.4128,1001.3618 -3.4525,0.7971 -2.9492,-12.77424 54.2041,-12.51401 2.9492,12.77422 -3.4525,0.79707 5.0216,21.75066 3.4525,-0.797 2.9491,12.7742 -54.2041,12.514 -2.9492,-12.7742 3.4525,-0.7971 -5.0215,-21.7507"
     style="fill:none;stroke:#ff0000;stroke-width:1.06299198;stroke-opacity:1" />
  <path
     inkscape:connector-curvature="0"
     id="polyline126"
     d="m 1090.5571,1066.9592 -3.4525,0.797 -2.9491,-12.7742 54.2041,-12.514 2.9492,12.7742 -3.4525,0.7971 5.0215,21.7507 3.4525,-0.7971 2.9492,12.7743 -54.2042,12.514 -2.9491,-12.7743 3.4525,-0.797 -5.0216,-21.7507"
     style="fill:none;stroke:#ff0000;stroke-width:1.06299198;stroke-opacity:1" />
  <path
     inkscape:connector-curvature="0"
     id="polyline128"
     d="m 1096.7727,794.60414 -3.4525,0.79707 -2.9491,-12.77422 54.2041,-12.51401 2.9491,12.77422 -3.4525,0.79707 5.0216,21.7507 3.4525,-0.79707 2.9491,12.77423 -54.2041,12.51401 -2.9491,-12.77423 3.4524,-0.79707 -5.0215,-21.7507"
     style="fill:none;stroke:#ff0000;stroke-width:1.06299198;stroke-opacity:1" />
  <path
     inkscape:connector-curvature="0"
     id="polyline130"
     d="m 1111.917,860.2015 -3.4524,0.79707 -2.9492,-12.77422 54.2041,-12.51401 2.9492,12.77422 -3.4525,0.79707 5.0215,21.7507 3.4525,-0.79707 2.9492,12.77422 -54.2041,12.51401 -2.9492,-12.77422 3.4525,-0.79707 -5.0216,-21.7507"
     style="fill:none;stroke:#ff0000;stroke-width:1.06299198;stroke-opacity:1" />
  <path
     inkscape:connector-curvature="0"
     id="polyline132"
     d="m 1127.0614,925.79885 -3.4525,0.79707 -2.9492,-12.77422 54.2042,-12.51401 2.9491,12.77422 -3.4525,0.79707 5.0216,21.7507 3.4525,-0.79707 2.9491,12.77423 -54.2041,12.51401 -2.9492,-12.77423 3.4525,-0.79707 -5.0215,-21.7507"
     style="fill:none;stroke:#ff0000;stroke-width:1.06299198;stroke-opacity:1" />
  <path
     inkscape:connector-curvature="0"
     id="polyline134"
     d="m 1142.2057,991.39621 -3.4525,0.79707 -2.9491,-12.77423 54.2041,-12.514 2.9492,12.77422 -3.4525,0.79707 5.0215,21.75066 3.4525,-0.797 2.9492,12.7742 -54.2042,12.514 -2.9491,-12.7742 3.4525,-0.7971 -5.0216,-21.75069"
     style="fill:none;stroke:#ff0000;stroke-width:1.06299198;stroke-opacity:1" />
  <path
     inkscape:connector-curvature="0"
     id="polyline136"
     d="m 1157.3501,1056.9936 -3.4525,0.797 -2.9492,-12.7742 54.2042,-12.514 2.9491,12.7742 -3.4525,0.7971 5.0216,21.7507 3.4525,-0.7971 2.9491,12.7743 -54.2041,12.514 -2.9492,-12.7743 3.4525,-0.797 -5.0215,-21.7507"
     style="fill:none;stroke:#ff0000;stroke-width:1.06299198;stroke-opacity:1" />
  <path
     inkscape:connector-curvature="0"
     id="polyline138"
     d="m 1164.7613,789.81728 -3.4525,0.79707 -2.9492,-12.77423 54.2041,-12.51401 2.9492,12.77423 -3.4525,0.79707 5.0216,21.7507 3.4525,-0.79707 2.9491,12.77422 -54.2041,12.51401 -2.9492,-12.77422 3.4525,-0.79707 -5.0215,-21.7507"
     style="fill:none;stroke:#ff0000;stroke-width:1.06299198;stroke-opacity:1" />
  <path
     inkscape:connector-curvature="0"
     id="polyline140"
     d="m 1179.9056,855.41463 -3.4525,0.79707 -2.9491,-12.77422 54.2041,-12.51401 2.9492,12.77422 -3.4525,0.79707 5.0215,21.7507 3.4525,-0.79707 2.9492,12.77423 -54.2042,12.514 -2.9491,-12.77422 3.4525,-0.79707 -5.0216,-21.7507"
     style="fill:none;stroke:#ff0000;stroke-width:1.06299198;stroke-opacity:1" />
  <path
     inkscape:connector-curvature="0"
     id="polyline142"
     d="m 1195.05,921.01199 -3.4525,0.79707 -2.9492,-12.77423 54.2041,-12.51401 2.9492,12.77423 -3.4525,0.79707 5.0215,21.7507 3.4525,-0.79707 2.9492,12.77422 -54.2041,12.51401 -2.9492,-12.77422 3.4525,-0.79707 -5.0215,-21.7507"
     style="fill:none;stroke:#ff0000;stroke-width:1.06299198;stroke-opacity:1" />
  <path
     inkscape:connector-curvature="0"
     id="polyline144"
     d="m 1210.1943,986.60934 -3.4525,0.79707 -2.9492,-12.77422 54.2042,-12.51401 2.9491,12.77422 -3.4525,0.79707 5.0216,21.7507 3.4525,-0.79707 2.9491,12.7742 -54.2041,12.514 -2.9491,-12.7742 3.4524,-0.7971 -5.0215,-21.75066"
     style="fill:none;stroke:#ff0000;stroke-width:1.06299198;stroke-opacity:1" />
  <path
     inkscape:connector-curvature="0"
     id="polyline146"
     d="m 1225.3386,1052.2067 -3.4525,0.7971 -2.9491,-12.7743 54.2041,-12.514 2.9492,12.7743 -3.4525,0.797 5.0215,21.7507 3.4525,-0.797 2.9492,12.7742 -54.2041,12.514 -2.9492,-12.7742 3.4525,-0.7971 -5.0216,-21.7507"
     style="fill:none;stroke:#ff0000;stroke-width:1.06299198;stroke-opacity:1" />
  <path
     inkscape:connector-curvature="0"
     id="polyline148"
     d="m 1246.758,770.88685 -3.4525,0.79707 -2.9492,-12.77422 54.2041,-12.51401 2.9492,12.77422 -3.4525,0.79707 5.0216,21.7507 3.4524,-0.79707 2.9492,12.77422 -54.2041,12.51401 -2.9492,-12.77422 3.4525,-0.79707 -5.0215,-21.7507"
     style="fill:none;stroke:#ff0000;stroke-width:1.06299198;stroke-opacity:1" />
  <path
     inkscape:connector-curvature="0"
     id="polyline150"
     d="m 1261.9023,836.4842 -3.4525,0.79707 -2.9491,-12.77422 54.2041,-12.51401 2.9491,12.77422 -3.4524,0.79707 5.0215,21.75071 3.4525,-0.79707 2.9492,12.77422 -54.2042,12.51401 -2.9491,-12.77423 3.4525,-0.79707 -5.0216,-21.7507"
     style="fill:none;stroke:#ff0000;stroke-width:1.06299198;stroke-opacity:1" />
  <path
     inkscape:connector-curvature="0"
     id="polyline152"
     d="m 1277.0466,902.08156 -3.4524,0.79707 -2.9492,-12.77422 54.2041,-12.51401 2.9492,12.77422 -3.4525,0.79707 5.0215,21.7507 3.4525,-0.79707 2.9492,12.77422 -54.2041,12.51401 -2.9492,-12.77422 3.4525,-0.79707 -5.0216,-21.7507"
     style="fill:none;stroke:#ff0000;stroke-width:1.06299198;stroke-opacity:1" />
  <path
     inkscape:connector-curvature="0"
     id="polyline154"
     d="m 1292.191,967.67891 -3.4525,0.79707 -2.9492,-12.77422 54.2042,-12.51401 2.9491,12.77422 -3.4525,0.79707 5.0216,21.75071 3.4525,-0.79708 2.9491,12.77423 -54.2041,12.514 -2.9492,-12.77422 3.4525,-0.79707 -5.0215,-21.7507"
     style="fill:none;stroke:#ff0000;stroke-width:1.06299198;stroke-opacity:1" />
  <path
     inkscape:connector-curvature="0"
     id="polyline156"
     d="m 1290.936,1037.0624 -3.4525,0.797 -2.9492,-12.7742 54.2042,-12.514 2.9491,12.7742 -3.4525,0.7971 5.0216,21.7507 3.4525,-0.7971 2.9491,12.7742 -54.2041,12.5141 -2.9492,-12.7743 3.4525,-0.797 -5.0215,-21.7507"
     style="fill:none;stroke:#ff0000;stroke-width:1.06299198;stroke-opacity:1" />
  <path
     inkscape:connector-curvature="0"
     id="circle158"
     d="m 683.14301,1214.891 a 5.1377954,5.1377954 0 0 1 -5.13779,5.1378 5.1377954,5.1377954 0 0 1 -5.1378,-5.1378 5.1377954,5.1377954 0 0 1 5.1378,-5.1378 5.1377954,5.1377954 0 0 1 5.13779,5.1378 z"
     style="fill:none;stroke:#ff0000;stroke-width:1.06299198;stroke-opacity:1" />
  <path
     inkscape:connector-curvature="0"
     id="circle160"
     d="m 561.17384,739.23194 a 5.1377954,5.1377954 0 0 1 -5.1378,5.1378 5.1377954,5.1377954 0 0 1 -5.13779,-5.1378 5.1377954,5.1377954 0 0 1 5.13779,-5.13779 5.1377954,5.1377954 0 0 1 5.1378,5.13779 z"
     style="fill:none;stroke:#ff0000;stroke-width:1.06299198;stroke-opacity:1" />
  <path
     inkscape:connector-curvature="0"
     id="circle162"
     d="m 231.99148,739.23194 a 5.1377954,5.1377954 0 0 1 -5.1378,5.1378 5.1377954,5.1377954 0 0 1 -5.13779,-5.1378 5.1377954,5.1377954 0 0 1 5.13779,-5.13779 5.1377954,5.1377954 0 0 1 5.1378,5.13779 z"
     style="fill:none;stroke:#ff0000;stroke-width:1.06299198;stroke-opacity:1" />
  <path
     inkscape:connector-curvature="0"
     id="circle164"
     d="m 46.725846,1030.6538 a 5.1377954,5.1377954 0 0 1 -5.137796,5.1378 5.1377954,5.1377954 0 0 1 -5.137795,-5.1378 5.1377954,5.1377954 0 0 1 5.137795,-5.1378 5.1377954,5.1377954 0 0 1 5.137796,5.1378 z"
     style="fill:none;stroke:#ff0000;stroke-width:1.06299198;stroke-opacity:1" />
  <path
     inkscape:connector-curvature="0"
     id="circle166"
     d="m 450.69856,1370.8831 a 5.1377954,5.1377954 0 0 1 -5.1378,5.1377 5.1377954,5.1377954 0 0 1 -5.13779,-5.1377 5.1377954,5.1377954 0 0 1 5.13779,-5.1378 5.1377954,5.1377954 0 0 1 5.1378,5.1378 z"
     style="fill:none;stroke:#ff0000;stroke-width:1.06299198;stroke-opacity:1" />
  <path
     inkscape:connector-curvature="0"
     id="circle168"
     d="m 86.426098,1242.8348 a 5.1377954,5.1377954 0 0 1 -5.137795,5.1378 5.1377954,5.1377954 0 0 1 -5.137796,-5.1378 5.1377954,5.1377954 0 0 1 5.137796,-5.1378 5.1377954,5.1377954 0 0 1 5.137795,5.1378 z"
     style="fill:none;stroke:#ff0000;stroke-width:1.06299198;stroke-opacity:1" />
  <path
     inkscape:connector-curvature="0"
     id="circle170"
     d="m 1341.6247,1242.8348 a 5.1377954,5.1377954 0 0 1 -5.1378,5.1378 5.1377954,5.1377954 0 0 1 -5.1377,-5.1378 5.1377954,5.1377954 0 0 1 5.1377,-5.1378 5.1377954,5.1377954 0 0 1 5.1378,5.1378 z"
     style="fill:none;stroke:#ff0000;stroke-width:1.06299198;stroke-opacity:1" />
  <path
     inkscape:connector-curvature="0"
     id="circle172"
     d="m 977.3523,1370.8831 a 5.1377954,5.1377954 0 0 1 -5.13779,5.1377 5.1377954,5.1377954 0 0 1 -5.1378,-5.1377 5.1377954,5.1377954 0 0 1 5.1378,-5.1378 5.1377954,5.1377954 0 0 1 5.13779,5.1378 z"
     style="fill:none;stroke:#ff0000;stroke-width:1.06299198;stroke-opacity:1" />
  <path
     inkscape:connector-curvature="0"
     id="circle174"
     d="m 1381.3251,1030.6538 a 5.1377954,5.1377954 0 0 1 -5.1378,5.1378 5.1377954,5.1377954 0 0 1 -5.1378,-5.1378 5.1377954,5.1377954 0 0 1 5.1378,-5.1378 5.1377954,5.1377954 0 0 1 5.1378,5.1378 z"
     style="fill:none;stroke:#ff0000;stroke-width:1.06299198;stroke-opacity:1" />
  <path
     inkscape:connector-curvature="0"
     id="circle176"
     d="m 1196.0594,739.23194 a 5.1377954,5.1377954 0 0 1 -5.1378,5.1378 5.1377954,5.1377954 0 0 1 -5.1378,-5.1378 5.1377954,5.1377954 0 0 1 5.1378,-5.13779 5.1377954,5.1377954 0 0 1 5.1378,5.13779 z"
     style="fill:none;stroke:#ff0000;stroke-width:1.06299198;stroke-opacity:1" />
  <path
     inkscape:connector-curvature="0"
     id="circle178"
     d="m 866.87696,739.23194 a 5.1377954,5.1377954 0 0 1 -5.13779,5.1378 5.1377954,5.1377954 0 0 1 -5.1378,-5.1378 5.1377954,5.1377954 0 0 1 5.1378,-5.13779 5.1377954,5.1377954 0 0 1 5.13779,5.13779 z"
     style="fill:none;stroke:#ff0000;stroke-width:1.06299198;stroke-opacity:1" />
  <path
     inkscape:connector-curvature="0"
     id="circle180"
     d="m 744.90785,1214.891 a 5.1377954,5.1377954 0 0 1 -5.1378,5.1378 5.1377954,5.1377954 0 0 1 -5.13779,-5.1378 5.1377954,5.1377954 0 0 1 5.13779,-5.1378 5.1377954,5.1377954 0 0 1 5.1378,5.1378 z"
     style="fill:none;stroke:#ff0000;stroke-width:1.06299198;stroke-opacity:1" />
  <path
     inkscape:connector-curvature="0"
     id="circle182"
     d="m 643.15931,895.13746 a 5.1377954,5.1377954 0 0 1 -5.13779,5.1378 5.1377954,5.1377954 0 0 1 -5.1378,-5.1378 5.1377954,5.1377954 0 0 1 5.1378,-5.13779 5.1377954,5.1377954 0 0 1 5.13779,5.13779 z"
     style="fill:none;stroke:#ff0000;stroke-width:1.06299198;stroke-opacity:1" />
  <path
     inkscape:connector-curvature="0"
     id="circle184"
     d="m 784.89155,895.13746 a 5.1377954,5.1377954 0 0 1 -5.1378,5.1378 5.1377954,5.1377954 0 0 1 -5.13779,-5.1378 5.1377954,5.1377954 0 0 1 5.13779,-5.13779 5.1377954,5.1377954 0 0 1 5.1378,5.13779 z"
     style="fill:none;stroke:#ff0000;stroke-width:1.06299198;stroke-opacity:1" />
  <path
     inkscape:connector-curvature="0"
     id="circle186"
     d="m 643.15931,753.40517 a 5.1377954,5.1377954 0 0 1 -5.13779,5.1378 5.1377954,5.1377954 0 0 1 -5.1378,-5.1378 5.1377954,5.1377954 0 0 1 5.1378,-5.13779 5.1377954,5.1377954 0 0 1 5.13779,5.13779 z"
     style="fill:none;stroke:#ff0000;stroke-width:1.06299198;stroke-opacity:1" />
  <path
     inkscape:connector-curvature="0"
     id="circle188"
     d="m 784.89155,753.40517 a 5.1377954,5.1377954 0 0 1 -5.1378,5.1378 5.1377954,5.1377954 0 0 1 -5.13779,-5.1378 5.1377954,5.1377954 0 0 1 5.13779,-5.13779 5.1377954,5.1377954 0 0 1 5.1378,5.13779 z"
     style="fill:none;stroke:#ff0000;stroke-width:1.06299198;stroke-opacity:1" />
  <path
     inkscape:connector-curvature="0"
     id="polyline190"
     d="M 21.405957,1007.8119 85.96868,728.15998"
     style="fill:none;stroke:#ff0000;stroke-width:1.06299198;stroke-opacity:1" />
  <path
     d="M 103.23115,714.42879 A 17.716535,17.716535 0 0 0 85.96868,728.15998"
     style="fill:none;stroke:#ff0000;stroke-width:1.06299198;stroke-opacity:1"
     id="path192"
     inkscape:connector-curvature="0" />
  <path
     inkscape:connector-curvature="0"
     id="polyline194"
     d="m 103.23115,714.42879 1211.31305,0"
     style="fill:none;stroke:#ff0000;stroke-width:1.06299198;stroke-opacity:1" />
  <path
     d="m 1331.8066,728.15998 a 17.716535,17.716535 0 0 0 -17.2624,-13.73119"
     style="fill:none;stroke:#ff0000;stroke-width:1.06299198;stroke-opacity:1"
     id="path196"
     inkscape:connector-curvature="0" />
  <path
     inkscape:connector-curvature="0"
     id="polyline198"
     d="m 1331.8066,728.15998 64.5627,279.65192"
     style="fill:none;stroke:#ff0000;stroke-width:1.06299198;stroke-opacity:1" />
  <path
     d="M 836.96764,1309.5181 A 329.52756,329.52756 0 0 0 1396.3693,1007.8119"
     style="fill:none;stroke:#ff0000;stroke-width:1.06299198;stroke-opacity:1"
     id="path200"
     inkscape:connector-curvature="0" />
  <path
     d="m 836.96764,1309.5181 a 177.09767,177.09767 0 0 0 -256.16002,0"
     style="fill:none;stroke:#ff0000;stroke-width:1.06299198;stroke-opacity:1"
     id="path202"
     inkscape:connector-curvature="0" />
  <path
     d="M 21.405957,1007.8119 A 329.52756,329.52756 0 0 0 580.80762,1309.5181"
     style="fill:none;stroke:#ff0000;stroke-width:1.06299198;stroke-opacity:1"
     id="path204"
     inkscape:connector-curvature="0" />
  <path
     inkscape:connector-curvature="0"
     id="circle6-7"
     d="m 683.14301,511.5445 a 5.1377954,5.1377954 0 0 1 -5.13779,5.13779 5.1377954,5.1377954 0 0 1 -5.1378,-5.13779 5.1377954,5.1377954 0 0 1 5.1378,-5.1378 5.1377954,5.1377954 0 0 1 5.13779,5.1378 z"
     style="fill:none;stroke:#ff0000;stroke-width:1.06299198;stroke-opacity:1" />
  <path
     inkscape:connector-curvature="0"
     id="circle8-7"
     d="m 561.17384,35.885489 a 5.1377954,5.1377954 0 0 1 -5.1378,5.137795 5.1377954,5.1377954 0 0 1 -5.13779,-5.137795 5.1377954,5.1377954 0 0 1 5.13779,-5.137795 5.1377954,5.1377954 0 0 1 5.1378,5.137795 z"
     style="fill:none;stroke:#ff0000;stroke-width:1.06299198;stroke-opacity:1" />
  <path
     inkscape:connector-curvature="0"
     id="circle10-1"
     d="m 231.99148,35.885489 a 5.1377954,5.1377954 0 0 1 -5.1378,5.137795 5.1377954,5.1377954 0 0 1 -5.13779,-5.137795 5.1377954,5.1377954 0 0 1 5.13779,-5.137795 5.1377954,5.1377954 0 0 1 5.1378,5.137795 z"
     style="fill:none;stroke:#ff0000;stroke-width:1.06299198;stroke-opacity:1" />
  <path
     inkscape:connector-curvature="0"
     id="circle12-3"
     d="m 46.725846,327.30734 a 5.1377954,5.1377954 0 0 1 -5.137796,5.1378 5.1377954,5.1377954 0 0 1 -5.137795,-5.1378 5.1377954,5.1377954 0 0 1 5.137795,-5.13779 5.1377954,5.1377954 0 0 1 5.137796,5.13779 z"
     style="fill:none;stroke:#ff0000;stroke-width:1.06299198;stroke-opacity:1" />
  <path
     inkscape:connector-curvature="0"
     id="circle14-3"
     d="m 450.69856,667.53659 a 5.1377954,5.1377954 0 0 1 -5.1378,5.1378 5.1377954,5.1377954 0 0 1 -5.13779,-5.1378 5.1377954,5.1377954 0 0 1 5.13779,-5.13779 5.1377954,5.1377954 0 0 1 5.1378,5.13779 z"
     style="fill:none;stroke:#ff0000;stroke-width:1.06299198;stroke-opacity:1" />
  <path
     inkscape:connector-curvature="0"
     id="circle16-7"
     d="m 86.426098,539.48831 a 5.1377954,5.1377954 0 0 1 -5.137795,5.1378 5.1377954,5.1377954 0 0 1 -5.137796,-5.1378 5.1377954,5.1377954 0 0 1 5.137796,-5.13779 5.1377954,5.1377954 0 0 1 5.137795,5.13779 z"
     style="fill:none;stroke:#ff0000;stroke-width:1.06299198;stroke-opacity:1" />
  <path
     inkscape:connector-curvature="0"
     id="circle18-7"
     d="m 1341.6247,539.48831 a 5.1377954,5.1377954 0 0 1 -5.1378,5.1378 5.1377954,5.1377954 0 0 1 -5.1377,-5.1378 5.1377954,5.1377954 0 0 1 5.1377,-5.13779 5.1377954,5.1377954 0 0 1 5.1378,5.13779 z"
     style="fill:none;stroke:#ff0000;stroke-width:1.06299198;stroke-opacity:1" />
  <path
     inkscape:connector-curvature="0"
     id="circle20-6"
     d="m 977.3523,667.53659 a 5.1377954,5.1377954 0 0 1 -5.13779,5.1378 5.1377954,5.1377954 0 0 1 -5.1378,-5.1378 5.1377954,5.1377954 0 0 1 5.1378,-5.13779 5.1377954,5.1377954 0 0 1 5.13779,5.13779 z"
     style="fill:none;stroke:#ff0000;stroke-width:1.06299198;stroke-opacity:1" />
  <path
     inkscape:connector-curvature="0"
     id="circle22-2"
     d="m 1381.3251,327.30734 a 5.1377954,5.1377954 0 0 1 -5.1378,5.1378 5.1377954,5.1377954 0 0 1 -5.1378,-5.1378 5.1377954,5.1377954 0 0 1 5.1378,-5.13779 5.1377954,5.1377954 0 0 1 5.1378,5.13779 z"
     style="fill:none;stroke:#ff0000;stroke-width:1.06299198;stroke-opacity:1" />
  <path
     inkscape:connector-curvature="0"
     id="circle24-9"
     d="m 1196.0594,35.885489 a 5.1377954,5.1377954 0 0 1 -5.1378,5.137795 5.1377954,5.1377954 0 0 1 -5.1378,-5.137795 5.1377954,5.1377954 0 0 1 5.1378,-5.137795 5.1377954,5.1377954 0 0 1 5.1378,5.137795 z"
     style="fill:none;stroke:#ff0000;stroke-width:1.06299198;stroke-opacity:1" />
  <path
     inkscape:connector-curvature="0"
     id="circle26-9"
     d="m 866.87696,35.885489 a 5.1377954,5.1377954 0 0 1 -5.13779,5.137795 5.1377954,5.1377954 0 0 1 -5.1378,-5.137795 5.1377954,5.1377954 0 0 1 5.1378,-5.137795 5.1377954,5.1377954 0 0 1 5.13779,5.137795 z"
     style="fill:none;stroke:#ff0000;stroke-width:1.06299198;stroke-opacity:1" />
  <path
     inkscape:connector-curvature="0"
     id="circle28-8"
     d="m 744.90785,511.5445 a 5.1377954,5.1377954 0 0 1 -5.1378,5.13779 5.1377954,5.1377954 0 0 1 -5.13779,-5.13779 5.1377954,5.1377954 0 0 1 5.13779,-5.1378 5.1377954,5.1377954 0 0 1 5.1378,5.1378 z"
     style="fill:none;stroke:#ff0000;stroke-width:1.06299198;stroke-opacity:1" />
  <path
     inkscape:connector-curvature="0"
     id="polyline30-5"
     d="m 103.23115,28.798874 -60.577378,262.389416 32.798677,7.57217 -15.144343,65.59736 131.194714,30.28868 2.39121,-10.35748 65.59736,15.14435 1.1956,-5.17874 65.59736,15.14434 -1.19561,5.17874 65.59736,15.14434 13.94873,-60.41861 65.59736,15.14434 65.59735,15.14434 22.71652,-98.39603 37.86085,-163.99339 -131.19471,-30.28868 1.19561,-5.17874 -65.59735,-15.144341 1.1956,-5.178739 -65.59735,-15.144342 -1.19561,5.178738 -65.59735,-15.144342 -2.39122,10.357477 -163.99338,-37.860857"
     style="fill:none;stroke:#ff0000;stroke-width:1.06299198;stroke-opacity:1" />
  <path
     inkscape:connector-curvature="0"
     id="polyline32-7"
     d="m 1314.5442,28.798874 60.5773,262.389416 -32.7987,7.57217 15.1444,65.59736 -131.1947,30.28868 -2.3912,-10.35748 -65.5974,15.14435 -1.1956,-5.17874 -65.5973,15.14434 1.1956,5.17874 -65.5974,15.14434 -13.9487,-60.41861 -65.59743,15.14434 -65.59735,15.14434 -22.71652,-98.39603 -37.86085,-163.99339 131.19471,-30.28868 -1.19561,-5.17874 65.59735,-15.144341 -1.1956,-5.178739 65.5974,-15.144342 1.1956,5.178738 65.5974,-15.144342 2.3912,10.357477 163.9934,-37.860857"
     style="fill:none;stroke:#ff0000;stroke-width:1.06299198;stroke-opacity:1" />
  <path
     inkscape:connector-curvature="0"
     id="polyline34-68"
     d="M 388.70613,499.10403 547.85948,623.44826 672.20371,464.29491 566.10148,381.39876 524.6534,434.44987 471.60228,393.0018 388.70613,499.10403"
     style="fill:none;stroke:#ff0000;stroke-width:1.06299198;stroke-opacity:1" />
  <path
     inkscape:connector-curvature="0"
     id="polyline36-4"
     d="M 1029.0692,499.10403 869.91578,623.44826 745.57155,464.29491 l 106.10223,-82.89615 41.44808,53.05111 53.05112,-41.44807 82.89622,106.10223"
     style="fill:none;stroke:#ff0000;stroke-width:1.06299198;stroke-opacity:1" />
  <path
     inkscape:connector-curvature="0"
     id="polyline38-8"
     d="M 21.405957,304.4654 85.96868,24.813521"
     style="fill:none;stroke:#ff0000;stroke-width:1.06299198;stroke-opacity:1" />
  <path
     d="M 103.23115,11.082339 A 17.716535,17.716535 0 0 0 85.96868,24.813521"
     style="fill:none;stroke:#ff0000;stroke-width:1.06299198;stroke-opacity:1"
     id="path40-0"
     inkscape:connector-curvature="0" />
  <path
     inkscape:connector-curvature="0"
     id="polyline42-8"
     d="m 103.23115,11.082339 1211.31305,0"
     style="fill:none;stroke:#ff0000;stroke-width:1.06299198;stroke-opacity:1" />
  <path
     d="M 1331.8066,24.813521 A 17.716535,17.716535 0 0 0 1314.5442,11.082339"
     style="fill:none;stroke:#ff0000;stroke-width:1.06299198;stroke-opacity:1"
     id="path44-4"
     inkscape:connector-curvature="0" />
  <path
     inkscape:connector-curvature="0"
     id="polyline46-5"
     d="M 1331.8066,24.813521 1396.3693,304.4654"
     style="fill:none;stroke:#ff0000;stroke-width:1.06299198;stroke-opacity:1" />
  <path
     d="M 836.96764,606.17164 A 329.52756,329.52756 0 0 0 1396.3693,304.4654"
     style="fill:none;stroke:#ff0000;stroke-width:1.06299198;stroke-opacity:1"
     id="path48"
     inkscape:connector-curvature="0" />
  <path
     d="m 836.96764,606.17164 a 177.09767,177.09767 0 0 0 -256.16002,0"
     style="fill:none;stroke:#ff0000;stroke-width:1.06299198;stroke-opacity:1"
     id="path50"
     inkscape:connector-curvature="0" />
  <path
     d="M 21.405957,304.4654 A 329.52756,329.52756 0 0 0 580.80762,606.17164"
     style="fill:none;stroke:#ff0000;stroke-width:1.06299198;stroke-opacity:1"
     id="path52"
     inkscape:connector-curvature="0" />
  <path
     inkscape:connector-curvature="0"
     id="polyline854"
     d="m 950.88503,401.9106 70.67997,90.46611"
     style="fill:none;stroke:#ff0000;stroke-width:1.06299198;stroke-opacity:1" />
</svg>
