<?xml version="1.0" encoding="UTF-8" standalone="no"?>
<svg
   xmlns:dc="http://purl.org/dc/elements/1.1/"
   xmlns:cc="http://creativecommons.org/ns#"
   xmlns:rdf="http://www.w3.org/1999/02/22-rdf-syntax-ns#"
   xmlns:svg="http://www.w3.org/2000/svg"
   xmlns="http://www.w3.org/2000/svg"
   xmlns:sodipodi="http://sodipodi.sourceforge.net/DTD/sodipodi-0.dtd"
   xmlns:inkscape="http://www.inkscape.org/namespaces/inkscape"
   height="600mm"
   version="1.1"
   width="400mm"
   id="svg2"
   inkscape:version="0.91 r"
   sodipodi:docname="mcdox_5mm.svg">
  <metadata
     id="metadata48">
    <rdf:RDF>
      <cc:Work
         rdf:about="">
        <dc:format>image/svg+xml</dc:format>
        <dc:type
           rdf:resource="http://purl.org/dc/dcmitype/StillImage" />
        <dc:title />
      </cc:Work>
    </rdf:RDF>
  </metadata>
  <sodipodi:namedview
     pagecolor="#ffffff"
     bordercolor="#666666"
     borderopacity="1"
     objecttolerance="10"
     gridtolerance="10"
     guidetolerance="10"
     inkscape:pageopacity="0"
     inkscape:pageshadow="2"
     inkscape:window-width="1855"
     inkscape:window-height="1056"
     id="namedview46"
     showgrid="true"
     inkscape:zoom="0.43227037"
     inkscape:cx="708.66142"
     inkscape:cy="1062.9921"
     inkscape:window-x="65"
     inkscape:window-y="24"
     inkscape:window-maximized="1"
     inkscape:current-layer="svg2"
     inkscape:document-units="mm"
     units="mm"
     inkscape:showpageshadow="false"
     showguides="true"
     inkscape:guide-bbox="true">
    <inkscape:grid
       type="xygrid"
       id="grid3001"
       empspacing="5"
       visible="true"
       enabled="true"
       snapvisiblegridlinesonly="true"
       units="mm"
       spacingx="1mm"
       spacingy="1mm" />
  </sodipodi:namedview>
  <defs
     id="defs4" />
  <path
     inkscape:connector-curvature="0"
     id="circle6"
     d="m 683.14301,1918.2374 a 5.1377954,5.1377954 0 0 1 -5.13779,5.1378 5.1377954,5.1377954 0 0 1 -5.1378,-5.1378 5.1377954,5.1377954 0 0 1 5.1378,-5.1378 5.1377954,5.1377954 0 0 1 5.13779,5.1378 z"
     style="fill:none;stroke:#ff0000;stroke-width:1.06299198;stroke-opacity:1" />
  <path
     inkscape:connector-curvature="0"
     id="circle8"
     d="m 561.17384,1442.5784 a 5.1377954,5.1377954 0 0 1 -5.1378,5.1378 5.1377954,5.1377954 0 0 1 -5.13779,-5.1378 5.1377954,5.1377954 0 0 1 5.13779,-5.1378 5.1377954,5.1377954 0 0 1 5.1378,5.1378 z"
     style="fill:none;stroke:#ff0000;stroke-width:1.06299198;stroke-opacity:1" />
  <path
     inkscape:connector-curvature="0"
     id="circle10"
     d="m 231.99148,1442.5784 a 5.1377954,5.1377954 0 0 1 -5.1378,5.1378 5.1377954,5.1377954 0 0 1 -5.13779,-5.1378 5.1377954,5.1377954 0 0 1 5.13779,-5.1378 5.1377954,5.1377954 0 0 1 5.1378,5.1378 z"
     style="fill:none;stroke:#ff0000;stroke-width:1.06299198;stroke-opacity:1" />
  <path
     inkscape:connector-curvature="0"
     id="circle12"
     d="m 46.725846,1734.0002 a 5.1377954,5.1377954 0 0 1 -5.137796,5.1378 5.1377954,5.1377954 0 0 1 -5.137795,-5.1378 5.1377954,5.1377954 0 0 1 5.137795,-5.1378 5.1377954,5.1377954 0 0 1 5.137796,5.1378 z"
     style="fill:none;stroke:#ff0000;stroke-width:1.06299198;stroke-opacity:1" />
  <path
     inkscape:connector-curvature="0"
     id="circle14"
     d="m 450.69856,2074.2295 a 5.1377954,5.1377954 0 0 1 -5.1378,5.1378 5.1377954,5.1377954 0 0 1 -5.13779,-5.1378 5.1377954,5.1377954 0 0 1 5.13779,-5.1378 5.1377954,5.1377954 0 0 1 5.1378,5.1378 z"
     style="fill:none;stroke:#ff0000;stroke-width:1.06299198;stroke-opacity:1" />
  <path
     inkscape:connector-curvature="0"
     id="circle16"
     d="m 86.426098,1946.1812 a 5.1377954,5.1377954 0 0 1 -5.137795,5.1378 5.1377954,5.1377954 0 0 1 -5.137796,-5.1378 5.1377954,5.1377954 0 0 1 5.137796,-5.1378 5.1377954,5.1377954 0 0 1 5.137795,5.1378 z"
     style="fill:none;stroke:#ff0000;stroke-width:1.06299198;stroke-opacity:1" />
  <path
     inkscape:connector-curvature="0"
     id="circle18"
     d="m 1341.6247,1946.1812 a 5.1377954,5.1377954 0 0 1 -5.1378,5.1378 5.1377954,5.1377954 0 0 1 -5.1377,-5.1378 5.1377954,5.1377954 0 0 1 5.1377,-5.1378 5.1377954,5.1377954 0 0 1 5.1378,5.1378 z"
     style="fill:none;stroke:#ff0000;stroke-width:1.06299198;stroke-opacity:1" />
  <path
     inkscape:connector-curvature="0"
     id="circle20"
     d="m 977.3523,2074.2295 a 5.1377954,5.1377954 0 0 1 -5.13779,5.1378 5.1377954,5.1377954 0 0 1 -5.1378,-5.1378 5.1377954,5.1377954 0 0 1 5.1378,-5.1378 5.1377954,5.1377954 0 0 1 5.13779,5.1378 z"
     style="fill:none;stroke:#ff0000;stroke-width:1.06299198;stroke-opacity:1" />
  <path
     inkscape:connector-curvature="0"
     id="circle22"
     d="m 1381.3251,1734.0002 a 5.1377954,5.1377954 0 0 1 -5.1378,5.1378 5.1377954,5.1377954 0 0 1 -5.1378,-5.1378 5.1377954,5.1377954 0 0 1 5.1378,-5.1378 5.1377954,5.1377954 0 0 1 5.1378,5.1378 z"
     style="fill:none;stroke:#ff0000;stroke-width:1.06299198;stroke-opacity:1" />
  <path
     inkscape:connector-curvature="0"
     id="circle24"
     d="m 1196.0594,1442.5784 a 5.1377954,5.1377954 0 0 1 -5.1378,5.1378 5.1377954,5.1377954 0 0 1 -5.1378,-5.1378 5.1377954,5.1377954 0 0 1 5.1378,-5.1378 5.1377954,5.1377954 0 0 1 5.1378,5.1378 z"
     style="fill:none;stroke:#ff0000;stroke-width:1.06299198;stroke-opacity:1" />
  <path
     inkscape:connector-curvature="0"
     id="circle26"
     d="m 866.87696,1442.5784 a 5.1377954,5.1377954 0 0 1 -5.13779,5.1378 5.1377954,5.1377954 0 0 1 -5.1378,-5.1378 5.1377954,5.1377954 0 0 1 5.1378,-5.1378 5.1377954,5.1377954 0 0 1 5.13779,5.1378 z"
     style="fill:none;stroke:#ff0000;stroke-width:1.06299198;stroke-opacity:1" />
  <path
     inkscape:connector-curvature="0"
     id="circle28"
     d="m 744.90785,1918.2374 a 5.1377954,5.1377954 0 0 1 -5.1378,5.1378 5.1377954,5.1377954 0 0 1 -5.13779,-5.1378 5.1377954,5.1377954 0 0 1 5.13779,-5.1378 5.1377954,5.1377954 0 0 1 5.1378,5.1378 z"
     style="fill:none;stroke:#ff0000;stroke-width:1.06299198;stroke-opacity:1" />
  <path
     inkscape:connector-curvature="0"
     id="polyline30"
     d="M 21.405957,1711.1583 85.96868,1431.5064"
     style="fill:none;stroke:#ff0000;stroke-width:1.06299198;stroke-opacity:1" />
  <path
     d="m 103.23115,1417.7752 a 17.716535,17.716535 0 0 0 -17.26247,13.7312"
     style="fill:none;stroke:#ff0000;stroke-width:1.06299198;stroke-opacity:1"
     id="path32"
     inkscape:connector-curvature="0" />
  <path
     inkscape:connector-curvature="0"
     id="polyline34"
     d="m 103.23115,1417.7752 573.76672,0 0,17.7166 -38.97638,0"
     style="fill:none;stroke:#ff0000;stroke-width:1.06299198;stroke-opacity:1" />
  <path
     d="m 638.02149,1435.4918 a 21.259843,21.259843 0 0 0 -21.25984,21.2598"
     style="fill:none;stroke:#ff0000;stroke-width:1.06299198;stroke-opacity:1"
     id="path36"
     inkscape:connector-curvature="0" />
  <path
     inkscape:connector-curvature="0"
     id="polyline38"
     d="m 616.76165,1456.7516 0,85.8163 -18.22995,0 -131.19471,-30.2887 1.1956,-5.1788 -65.59735,-15.1443 1.1956,-5.1787 -69.04984,-15.9414 -1.19561,5.1787 -65.59735,-15.1444 -2.39122,10.3575 -147.59404,-34.0747 -61.374451,265.8419 1.254996,69.3834 328.035985,133.7239 161.94552,126.5257 126.5257,-161.9456 68.3942,0 126.5257,161.9456 161.94557,-126.5257 328.036,-133.7239 1.255,-69.3834 -61.3745,-265.8419 -147.594,34.0747 -2.3912,-10.3575 -65.5974,15.1444 -1.1956,-5.1787 -69.0498,15.9414 1.1956,5.1787 -65.59743,15.1443 1.19561,5.1788 -131.19471,30.2887 -18.22995,0 0,-85.8163"
     style="fill:none;stroke:#ff0000;stroke-width:1.06299198;stroke-opacity:1" />
  <path
     d="m 801.01361,1456.7516 a 21.259843,21.259843 0 0 0 -21.25984,-21.2598"
     style="fill:none;stroke:#ff0000;stroke-width:1.06299198;stroke-opacity:1"
     id="path40"
     inkscape:connector-curvature="0" />
  <path
     inkscape:connector-curvature="0"
     id="polyline42"
     d="m 779.75377,1435.4918 -38.97638,0 0,-17.7166 573.76681,0"
     style="fill:none;stroke:#ff0000;stroke-width:1.06299198;stroke-opacity:1" />
  <path
     d="m 1331.8066,1431.5064 a 17.716535,17.716535 0 0 0 -17.2624,-13.7312"
     style="fill:none;stroke:#ff0000;stroke-width:1.06299198;stroke-opacity:1"
     id="path44"
     inkscape:connector-curvature="0" />
  <path
     inkscape:connector-curvature="0"
     id="polyline46"
     d="m 1331.8066,1431.5064 64.5627,279.6519"
     style="fill:none;stroke:#ff0000;stroke-width:1.06299198;stroke-opacity:1" />
  <path
     d="M 836.96764,2012.8645 A 329.52756,329.52756 0 0 0 1396.3693,1711.1583"
     style="fill:none;stroke:#ff0000;stroke-width:1.06299198;stroke-opacity:1"
     id="path48"
     inkscape:connector-curvature="0" />
  <path
     d="m 836.96764,2012.8645 a 177.09767,177.09767 0 0 0 -256.16002,0"
     style="fill:none;stroke:#ff0000;stroke-width:1.06299198;stroke-opacity:1"
     id="path50"
     inkscape:connector-curvature="0" />
  <path
     d="M 21.405957,1711.1583 A 329.52756,329.52756 0 0 0 580.80762,2012.8645"
     style="fill:none;stroke:#ff0000;stroke-width:1.06299198;stroke-opacity:1"
     id="path52"
     inkscape:connector-curvature="0" />
  <path
     inkscape:connector-curvature="0"
     id="circle6-3"
     d="m 683.14301,1214.891 a 5.1377954,5.1377954 0 0 1 -5.13779,5.1378 5.1377954,5.1377954 0 0 1 -5.1378,-5.1378 5.1377954,5.1377954 0 0 1 5.1378,-5.1378 5.1377954,5.1377954 0 0 1 5.13779,5.1378 z"
     style="fill:none;stroke:#ff0000;stroke-width:1.06299198;stroke-opacity:1" />
  <path
     inkscape:connector-curvature="0"
     id="circle8-9"
     d="m 561.17384,739.23194 a 5.1377954,5.1377954 0 0 1 -5.1378,5.1378 5.1377954,5.1377954 0 0 1 -5.13779,-5.1378 5.1377954,5.1377954 0 0 1 5.13779,-5.13779 5.1377954,5.1377954 0 0 1 5.1378,5.13779 z"
     style="fill:none;stroke:#ff0000;stroke-width:1.06299198;stroke-opacity:1" />
  <path
     inkscape:connector-curvature="0"
     id="circle10-6"
     d="m 231.99148,739.23194 a 5.1377954,5.1377954 0 0 1 -5.1378,5.1378 5.1377954,5.1377954 0 0 1 -5.13779,-5.1378 5.1377954,5.1377954 0 0 1 5.13779,-5.13779 5.1377954,5.1377954 0 0 1 5.1378,5.13779 z"
     style="fill:none;stroke:#ff0000;stroke-width:1.06299198;stroke-opacity:1" />
  <path
     inkscape:connector-curvature="0"
     id="circle12-6"
     d="m 46.725846,1030.6538 a 5.1377954,5.1377954 0 0 1 -5.137796,5.1378 5.1377954,5.1377954 0 0 1 -5.137795,-5.1378 5.1377954,5.1377954 0 0 1 5.137795,-5.1378 5.1377954,5.1377954 0 0 1 5.137796,5.1378 z"
     style="fill:none;stroke:#ff0000;stroke-width:1.06299198;stroke-opacity:1" />
  <path
     inkscape:connector-curvature="0"
     id="circle14-3"
     d="m 450.69856,1370.8831 a 5.1377954,5.1377954 0 0 1 -5.1378,5.1377 5.1377954,5.1377954 0 0 1 -5.13779,-5.1377 5.1377954,5.1377954 0 0 1 5.13779,-5.1378 5.1377954,5.1377954 0 0 1 5.1378,5.1378 z"
     style="fill:none;stroke:#ff0000;stroke-width:1.06299198;stroke-opacity:1" />
  <path
     inkscape:connector-curvature="0"
     id="circle16-7"
     d="m 86.426098,1242.8348 a 5.1377954,5.1377954 0 0 1 -5.137795,5.1378 5.1377954,5.1377954 0 0 1 -5.137796,-5.1378 5.1377954,5.1377954 0 0 1 5.137796,-5.1378 5.1377954,5.1377954 0 0 1 5.137795,5.1378 z"
     style="fill:none;stroke:#ff0000;stroke-width:1.06299198;stroke-opacity:1" />
  <path
     inkscape:connector-curvature="0"
     id="circle18-6"
     d="m 1341.6247,1242.8348 a 5.1377954,5.1377954 0 0 1 -5.1378,5.1378 5.1377954,5.1377954 0 0 1 -5.1377,-5.1378 5.1377954,5.1377954 0 0 1 5.1377,-5.1378 5.1377954,5.1377954 0 0 1 5.1378,5.1378 z"
     style="fill:none;stroke:#ff0000;stroke-width:1.06299198;stroke-opacity:1" />
  <path
     inkscape:connector-curvature="0"
     id="circle20-2"
     d="m 977.3523,1370.8831 a 5.1377954,5.1377954 0 0 1 -5.13779,5.1377 5.1377954,5.1377954 0 0 1 -5.1378,-5.1377 5.1377954,5.1377954 0 0 1 5.1378,-5.1378 5.1377954,5.1377954 0 0 1 5.13779,5.1378 z"
     style="fill:none;stroke:#ff0000;stroke-width:1.06299198;stroke-opacity:1" />
  <path
     inkscape:connector-curvature="0"
     id="circle22-8"
     d="m 1381.3251,1030.6538 a 5.1377954,5.1377954 0 0 1 -5.1378,5.1378 5.1377954,5.1377954 0 0 1 -5.1378,-5.1378 5.1377954,5.1377954 0 0 1 5.1378,-5.1378 5.1377954,5.1377954 0 0 1 5.1378,5.1378 z"
     style="fill:none;stroke:#ff0000;stroke-width:1.06299198;stroke-opacity:1" />
  <path
     inkscape:connector-curvature="0"
     id="circle24-2"
     d="m 1196.0594,739.23194 a 5.1377954,5.1377954 0 0 1 -5.1378,5.1378 5.1377954,5.1377954 0 0 1 -5.1378,-5.1378 5.1377954,5.1377954 0 0 1 5.1378,-5.13779 5.1377954,5.1377954 0 0 1 5.1378,5.13779 z"
     style="fill:none;stroke:#ff0000;stroke-width:1.06299198;stroke-opacity:1" />
  <path
     inkscape:connector-curvature="0"
     id="circle26-0"
     d="m 866.87696,739.23194 a 5.1377954,5.1377954 0 0 1 -5.13779,5.1378 5.1377954,5.1377954 0 0 1 -5.1378,-5.1378 5.1377954,5.1377954 0 0 1 5.1378,-5.13779 5.1377954,5.1377954 0 0 1 5.13779,5.13779 z"
     style="fill:none;stroke:#ff0000;stroke-width:1.06299198;stroke-opacity:1" />
  <path
     inkscape:connector-curvature="0"
     id="circle28-9"
     d="m 744.90785,1214.891 a 5.1377954,5.1377954 0 0 1 -5.1378,5.1378 5.1377954,5.1377954 0 0 1 -5.13779,-5.1378 5.1377954,5.1377954 0 0 1 5.13779,-5.1378 5.1377954,5.1377954 0 0 1 5.1378,5.1378 z"
     style="fill:none;stroke:#ff0000;stroke-width:1.06299198;stroke-opacity:1" />
  <path
     inkscape:connector-curvature="0"
     id="polyline30-2"
     d="m 779.75377,732.14533 -141.73228,0"
     style="fill:none;stroke:#ff0000;stroke-width:1.06299198;stroke-opacity:1" />
  <path
     d="m 638.02149,732.14533 a 21.259843,21.259843 0 0 0 -21.25984,21.25984"
     style="fill:none;stroke:#ff0000;stroke-width:1.06299198;stroke-opacity:1"
     id="path32-0"
     inkscape:connector-curvature="0" />
  <path
     inkscape:connector-curvature="0"
     id="polyline34-2"
     d="m 616.76165,753.40517 0,85.81628 -18.22995,0 -131.19471,-30.28868 1.1956,-5.17874 -65.59735,-15.14435 1.1956,-5.17873 -69.04984,-15.94142 -1.19561,5.17874 -65.59735,-15.14434 -2.39122,10.35747 -147.59404,-34.07477 -61.374451,265.84192 1.254996,69.38345 328.035985,133.7238 161.94552,126.5257 126.5257,-161.9455 68.3942,0 126.5257,161.9455 161.94557,-126.5257 328.036,-133.7238 1.255,-69.38345 -61.3745,-265.84192 -147.594,34.07478 -2.3912,-10.35748 -65.5974,15.14434 -1.1956,-5.17874 -69.0498,15.94142 1.1956,5.17873 -65.59743,15.14435 1.19561,5.17874 -131.19471,30.28868 -18.22995,0 0,-85.81628"
     style="fill:none;stroke:#ff0000;stroke-width:1.06299198;stroke-opacity:1" />
  <path
     d="M 801.01361,753.40517 A 21.259843,21.259843 0 0 0 779.75377,732.14533"
     style="fill:none;stroke:#ff0000;stroke-width:1.06299198;stroke-opacity:1"
     id="path36-4"
     inkscape:connector-curvature="0" />
  <path
     inkscape:connector-curvature="0"
     id="polyline38-0"
     d="M 21.405957,1007.8119 85.96868,728.15998"
     style="fill:none;stroke:#ff0000;stroke-width:1.06299198;stroke-opacity:1" />
  <path
     d="M 103.23115,714.42879 A 17.716535,17.716535 0 0 0 85.96868,728.15998"
     style="fill:none;stroke:#ff0000;stroke-width:1.06299198;stroke-opacity:1"
     id="path40-6"
     inkscape:connector-curvature="0" />
  <path
     inkscape:connector-curvature="0"
     id="polyline42-3"
     d="m 103.23115,714.42879 1211.31305,0"
     style="fill:none;stroke:#ff0000;stroke-width:1.06299198;stroke-opacity:1" />
  <path
     d="m 1331.8066,728.15998 a 17.716535,17.716535 0 0 0 -17.2624,-13.73119"
     style="fill:none;stroke:#ff0000;stroke-width:1.06299198;stroke-opacity:1"
     id="path44-3"
     inkscape:connector-curvature="0" />
  <path
     inkscape:connector-curvature="0"
     id="polyline46-0"
     d="m 1331.8066,728.15998 64.5627,279.65192"
     style="fill:none;stroke:#ff0000;stroke-width:1.06299198;stroke-opacity:1" />
  <path
     d="M 836.96764,1309.5181 A 329.52756,329.52756 0 0 0 1396.3693,1007.8119"
     style="fill:none;stroke:#ff0000;stroke-width:1.06299198;stroke-opacity:1"
     id="path48-6"
     inkscape:connector-curvature="0" />
  <path
     d="m 836.96764,1309.5181 a 177.09767,177.09767 0 0 0 -256.16002,0"
     style="fill:none;stroke:#ff0000;stroke-width:1.06299198;stroke-opacity:1"
     id="path50-5"
     inkscape:connector-curvature="0" />
  <path
     d="M 21.405957,1007.8119 A 329.52756,329.52756 0 0 0 580.80762,1309.5181"
     style="fill:none;stroke:#ff0000;stroke-width:1.06299198;stroke-opacity:1"
     id="path52-8"
     inkscape:connector-curvature="0" />
  <path
     inkscape:connector-curvature="0"
     id="circle6-5"
     d="m 683.14301,511.5445 a 5.1377954,5.1377954 0 0 1 -5.13779,5.13779 5.1377954,5.1377954 0 0 1 -5.1378,-5.13779 5.1377954,5.1377954 0 0 1 5.1378,-5.1378 5.1377954,5.1377954 0 0 1 5.13779,5.1378 z"
     style="fill:none;stroke:#ff0000;stroke-width:1.06299198;stroke-opacity:1" />
  <path
     inkscape:connector-curvature="0"
     id="circle8-3"
     d="m 561.17384,35.885489 a 5.1377954,5.1377954 0 0 1 -5.1378,5.137795 5.1377954,5.1377954 0 0 1 -5.13779,-5.137795 5.1377954,5.1377954 0 0 1 5.13779,-5.137795 5.1377954,5.1377954 0 0 1 5.1378,5.137795 z"
     style="fill:none;stroke:#ff0000;stroke-width:1.06299198;stroke-opacity:1" />
  <path
     inkscape:connector-curvature="0"
     id="circle10-5"
     d="m 231.99148,35.885489 a 5.1377954,5.1377954 0 0 1 -5.1378,5.137795 5.1377954,5.1377954 0 0 1 -5.13779,-5.137795 5.1377954,5.1377954 0 0 1 5.13779,-5.137795 5.1377954,5.1377954 0 0 1 5.1378,5.137795 z"
     style="fill:none;stroke:#ff0000;stroke-width:1.06299198;stroke-opacity:1" />
  <path
     inkscape:connector-curvature="0"
     id="circle12-5"
     d="m 46.725846,327.30734 a 5.1377954,5.1377954 0 0 1 -5.137796,5.1378 5.1377954,5.1377954 0 0 1 -5.137795,-5.1378 5.1377954,5.1377954 0 0 1 5.137795,-5.13779 5.1377954,5.1377954 0 0 1 5.137796,5.13779 z"
     style="fill:none;stroke:#ff0000;stroke-width:1.06299198;stroke-opacity:1" />
  <path
     inkscape:connector-curvature="0"
     id="circle14-8"
     d="m 450.69856,667.53659 a 5.1377954,5.1377954 0 0 1 -5.1378,5.1378 5.1377954,5.1377954 0 0 1 -5.13779,-5.1378 5.1377954,5.1377954 0 0 1 5.13779,-5.13779 5.1377954,5.1377954 0 0 1 5.1378,5.13779 z"
     style="fill:none;stroke:#ff0000;stroke-width:1.06299198;stroke-opacity:1" />
  <path
     inkscape:connector-curvature="0"
     id="circle16-5"
     d="m 86.426098,539.48831 a 5.1377954,5.1377954 0 0 1 -5.137795,5.1378 5.1377954,5.1377954 0 0 1 -5.137796,-5.1378 5.1377954,5.1377954 0 0 1 5.137796,-5.13779 5.1377954,5.1377954 0 0 1 5.137795,5.13779 z"
     style="fill:none;stroke:#ff0000;stroke-width:1.06299198;stroke-opacity:1" />
  <path
     inkscape:connector-curvature="0"
     id="circle18-3"
     d="m 1341.6247,539.48831 a 5.1377954,5.1377954 0 0 1 -5.1378,5.1378 5.1377954,5.1377954 0 0 1 -5.1377,-5.1378 5.1377954,5.1377954 0 0 1 5.1377,-5.13779 5.1377954,5.1377954 0 0 1 5.1378,5.13779 z"
     style="fill:none;stroke:#ff0000;stroke-width:1.06299198;stroke-opacity:1" />
  <path
     inkscape:connector-curvature="0"
     id="circle20-3"
     d="m 977.3523,667.53659 a 5.1377954,5.1377954 0 0 1 -5.13779,5.1378 5.1377954,5.1377954 0 0 1 -5.1378,-5.1378 5.1377954,5.1377954 0 0 1 5.1378,-5.13779 5.1377954,5.1377954 0 0 1 5.13779,5.13779 z"
     style="fill:none;stroke:#ff0000;stroke-width:1.06299198;stroke-opacity:1" />
  <path
     inkscape:connector-curvature="0"
     id="circle22-6"
     d="m 1381.3251,327.30734 a 5.1377954,5.1377954 0 0 1 -5.1378,5.1378 5.1377954,5.1377954 0 0 1 -5.1378,-5.1378 5.1377954,5.1377954 0 0 1 5.1378,-5.13779 5.1377954,5.1377954 0 0 1 5.1378,5.13779 z"
     style="fill:none;stroke:#ff0000;stroke-width:1.06299198;stroke-opacity:1" />
  <path
     inkscape:connector-curvature="0"
     id="circle24-9"
     d="m 1196.0594,35.885489 a 5.1377954,5.1377954 0 0 1 -5.1378,5.137795 5.1377954,5.1377954 0 0 1 -5.1378,-5.137795 5.1377954,5.1377954 0 0 1 5.1378,-5.137795 5.1377954,5.1377954 0 0 1 5.1378,5.137795 z"
     style="fill:none;stroke:#ff0000;stroke-width:1.06299198;stroke-opacity:1" />
  <path
     inkscape:connector-curvature="0"
     id="circle26-01"
     d="m 866.87696,35.885489 a 5.1377954,5.1377954 0 0 1 -5.13779,5.137795 5.1377954,5.1377954 0 0 1 -5.1378,-5.137795 5.1377954,5.1377954 0 0 1 5.1378,-5.137795 5.1377954,5.1377954 0 0 1 5.13779,5.137795 z"
     style="fill:none;stroke:#ff0000;stroke-width:1.06299198;stroke-opacity:1" />
  <path
     inkscape:connector-curvature="0"
     id="circle28-98"
     d="m 744.90785,511.5445 a 5.1377954,5.1377954 0 0 1 -5.1378,5.13779 5.1377954,5.1377954 0 0 1 -5.13779,-5.13779 5.1377954,5.1377954 0 0 1 5.13779,-5.1378 5.1377954,5.1377954 0 0 1 5.1378,5.1378 z"
     style="fill:none;stroke:#ff0000;stroke-width:1.06299198;stroke-opacity:1" />
  <path
     inkscape:connector-curvature="0"
     id="circle30"
     d="M 648.65144,191.791 A 10.629921,10.629921 0 0 1 638.02152,202.42092 10.629921,10.629921 0 0 1 627.39159,191.791 10.629921,10.629921 0 0 1 638.02152,181.16108 10.629921,10.629921 0 0 1 648.65144,191.791 Z"
     style="fill:none;stroke:#ff0000;stroke-width:1.06299198;stroke-opacity:1" />
  <path
     inkscape:connector-curvature="0"
     id="circle32"
     d="M 790.38368,191.791 A 10.629921,10.629921 0 0 1 779.75375,202.42092 10.629921,10.629921 0 0 1 769.12383,191.791 10.629921,10.629921 0 0 1 779.75375,181.16108 10.629921,10.629921 0 0 1 790.38368,191.791 Z"
     style="fill:none;stroke:#ff0000;stroke-width:1.06299198;stroke-opacity:1" />
  <path
     inkscape:connector-curvature="0"
     id="circle34"
     d="M 648.65144,50.058718 A 10.629921,10.629921 0 0 1 638.02152,60.688639 10.629921,10.629921 0 0 1 627.39159,50.058718 10.629921,10.629921 0 0 1 638.02152,39.428797 10.629921,10.629921 0 0 1 648.65144,50.058718 Z"
     style="fill:none;stroke:#ff0000;stroke-width:1.06299198;stroke-opacity:1" />
  <path
     inkscape:connector-curvature="0"
     id="circle36"
     d="M 790.38368,50.058718 A 10.629921,10.629921 0 0 1 779.75375,60.688639 10.629921,10.629921 0 0 1 769.12383,50.058718 10.629921,10.629921 0 0 1 779.75375,39.428797 10.629921,10.629921 0 0 1 790.38368,50.058718 Z"
     style="fill:none;stroke:#ff0000;stroke-width:1.06299198;stroke-opacity:1" />
  <path
     inkscape:connector-curvature="0"
     id="polyline38-3"
     d="m 103.23115,28.798874 -60.577378,262.389416 32.798677,7.57217 -15.144343,65.59736 131.194714,30.28868 2.39121,-10.35748 65.59736,15.14435 1.1956,-5.17874 65.59736,15.14434 -1.19561,5.17874 65.59736,15.14434 13.94873,-60.41861 65.59736,15.14434 65.59735,15.14434 22.71652,-98.39603 37.86085,-163.99339 -131.19471,-30.28868 1.19561,-5.17874 -65.59735,-15.144341 1.1956,-5.178739 -65.59735,-15.144342 -1.19561,5.178738 -65.59735,-15.144342 -2.39122,10.357477 -163.99338,-37.860857"
     style="fill:none;stroke:#ff0000;stroke-width:1.06299198;stroke-opacity:1" />
  <path
     inkscape:connector-curvature="0"
     id="polyline40"
     d="m 1314.5442,28.798874 60.5773,262.389416 -32.7987,7.57217 15.1444,65.59736 -131.1947,30.28868 -2.3912,-10.35748 -65.5974,15.14435 -1.1956,-5.17874 -65.5973,15.14434 1.1956,5.17874 -65.5974,15.14434 -13.9487,-60.41861 -65.59743,15.14434 -65.59735,15.14434 -22.71652,-98.39603 -37.86085,-163.99339 131.19471,-30.28868 -1.19561,-5.17874 65.59735,-15.144341 -1.1956,-5.178739 65.5974,-15.144342 1.1956,5.178738 65.5974,-15.144342 2.3912,10.357477 163.9934,-37.860857"
     style="fill:none;stroke:#ff0000;stroke-width:1.06299198;stroke-opacity:1" />
  <path
     inkscape:connector-curvature="0"
     id="polyline42-9"
     d="M 388.70613,499.10403 547.85948,623.44826 672.20371,464.29491 566.10148,381.39876 524.6534,434.44987 471.60228,393.0018 388.70613,499.10403"
     style="fill:none;stroke:#ff0000;stroke-width:1.06299198;stroke-opacity:1" />
  <path
     inkscape:connector-curvature="0"
     id="polyline44"
     d="M 1029.0692,499.10403 869.91578,623.44826 745.57155,464.29491 l 106.10223,-82.89615 41.44808,53.05111 53.05112,-41.44807 82.89622,106.10223"
     style="fill:none;stroke:#ff0000;stroke-width:1.06299198;stroke-opacity:1" />
  <path
     inkscape:connector-curvature="0"
     id="polyline46-03"
     d="M 21.405957,304.4654 85.96868,24.813521"
     style="fill:none;stroke:#ff0000;stroke-width:1.06299198;stroke-opacity:1" />
  <path
     d="M 103.23115,11.082339 A 17.716535,17.716535 0 0 0 85.96868,24.813521"
     style="fill:none;stroke:#ff0000;stroke-width:1.06299198;stroke-opacity:1"
     id="path48-8"
     inkscape:connector-curvature="0" />
  <path
     inkscape:connector-curvature="0"
     id="polyline50"
     d="m 103.23115,11.082339 1211.31305,0"
     style="fill:none;stroke:#ff0000;stroke-width:1.06299198;stroke-opacity:1" />
  <path
     d="M 1331.8066,24.813521 A 17.716535,17.716535 0 0 0 1314.5442,11.082339"
     style="fill:none;stroke:#ff0000;stroke-width:1.06299198;stroke-opacity:1"
     id="path52-5"
     inkscape:connector-curvature="0" />
  <path
     inkscape:connector-curvature="0"
     id="polyline54"
     d="M 1331.8066,24.813521 1396.3693,304.4654"
     style="fill:none;stroke:#ff0000;stroke-width:1.06299198;stroke-opacity:1" />
  <path
     d="M 836.96764,606.17164 A 329.52756,329.52756 0 0 0 1396.3693,304.4654"
     style="fill:none;stroke:#ff0000;stroke-width:1.06299198;stroke-opacity:1"
     id="path56"
     inkscape:connector-curvature="0" />
  <path
     d="m 836.96764,606.17164 a 177.09767,177.09767 0 0 0 -256.16002,0"
     style="fill:none;stroke:#ff0000;stroke-width:1.06299198;stroke-opacity:1"
     id="path58"
     inkscape:connector-curvature="0" />
  <path
     d="M 21.405957,304.4654 A 329.52756,329.52756 0 0 0 580.80762,606.17164"
     style="fill:none;stroke:#ff0000;stroke-width:1.06299198;stroke-opacity:1"
     id="path60"
     inkscape:connector-curvature="0" />
</svg>
