M48
;DRILL file {pcbnew (2014-09-07 BZR 5117)-product} date Thu 04 Dec 2014 19:35:34 GMT
;FORMAT={-:-/ absolute / metric / decimal}
FMAT,2
METRIC,TZ
T1C1.702
T2C3.200
T3C4.000
%
G90
G05
M71
T1
X74.92Y-34.
X74.92Y-53.
X74.92Y-72.
X74.92Y-91.
X79.67Y-110.
X85.08Y-34.
X85.08Y-53.
X85.08Y-72.
X85.08Y-91.
X89.83Y-110.
X98.67Y-34.
X98.67Y-53.
X98.67Y-72.
X98.67Y-91.
X98.67Y-110.
X108.83Y-34.
X108.83Y-53.
X108.83Y-72.
X108.83Y-91.
X108.83Y-110.
X117.67Y-31.
X117.67Y-50.
X117.67Y-69.
X117.67Y-88.
X117.67Y-107.
X127.83Y-31.
X127.83Y-50.
X127.83Y-69.
X127.83Y-88.
X127.83Y-107.
X136.67Y-29.5
X136.67Y-48.5
X136.67Y-67.5
X136.67Y-86.5
X136.67Y-105.5
X146.83Y-29.5
X146.83Y-48.5
X146.83Y-67.5
X146.83Y-86.5
X146.83Y-105.5
X155.67Y-31.
X155.67Y-50.
X155.67Y-69.
X155.67Y-88.
X155.67Y-107.
X165.83Y-31.
X165.83Y-50.
X165.83Y-69.
X165.83Y-88.
X165.83Y-107.
X174.67Y-32.5
X174.67Y-51.5
X174.67Y-70.5
X174.67Y-89.5
X184.83Y-32.5
X184.83Y-51.5
X184.83Y-70.5
X184.83Y-89.5
X188.603Y-127.104
X192.897Y-117.896
X193.67Y-32.5
X198.75Y-51.17
X198.75Y-61.33
X198.75Y-79.67
X198.75Y-89.83
X203.83Y-32.5
X205.823Y-135.134
X210.117Y-125.926
X215.41Y-102.553
X216.571Y-145.023
X224.601Y-127.803
X224.619Y-106.847
X225.779Y-149.316
X232.63Y-110.583
X233.809Y-132.096
X241.838Y-114.877
T2
X92.Y-30.
X92.Y-102.
X191.5Y-46.
X195.Y-140.
X215.Y-88.
T3
X80.Y-34.
X80.Y-53.
X80.Y-72.
X80.Y-91.
X84.75Y-110.
X103.75Y-34.
X103.75Y-53.
X103.75Y-72.
X103.75Y-91.
X103.75Y-110.
X122.75Y-31.
X122.75Y-50.
X122.75Y-69.
X122.75Y-88.
X122.75Y-107.
X141.75Y-29.5
X141.75Y-48.5
X141.75Y-67.5
X141.75Y-86.5
X141.75Y-105.5
X160.75Y-31.
X160.75Y-50.
X160.75Y-69.
X160.75Y-88.
X160.75Y-107.
X179.75Y-32.5
X179.75Y-51.5
X179.75Y-70.5
X179.75Y-89.5
X190.75Y-122.5
X198.75Y-32.5
X198.75Y-56.25
X198.75Y-84.75
X207.97Y-130.53
X220.014Y-104.7
X221.175Y-147.169
X229.205Y-129.95
X237.234Y-112.73
T0
M30
