%FSLAX46Y46*%
G04 Gerber Fmt 4.6, Leading zero omitted, Abs format (unit mm)*
G04 Created by KiCad (PCBNEW (2014-09-07 BZR 5117)-product) date Thu 04 Dec 2014 19:35:44 GMT*
%MOMM*%
G01*
G04 APERTURE LIST*
%ADD10C,0.100000*%
%ADD11C,0.150000*%
%ADD12C,1.900000*%
%ADD13C,2.400000*%
%ADD14C,2.500000*%
%ADD15C,1.400000*%
%ADD16R,2.000000X1.900000*%
%ADD17R,1.900000X1.900000*%
%ADD18R,1.700000X1.600000*%
%ADD19R,1.900000X2.000000*%
%ADD20R,1.600000X1.700000*%
%ADD21C,2.127200*%
G04 APERTURE END LIST*
D10*
D11*
X187773809Y-114904762D02*
X187869047Y-114952381D01*
X188059524Y-114952381D01*
X188154762Y-114904762D01*
X188202381Y-114857143D01*
X188250000Y-114761905D01*
X188250000Y-114476190D01*
X188202381Y-114380952D01*
X188154762Y-114333333D01*
X188059524Y-114285714D01*
X187869047Y-114285714D01*
X187773809Y-114333333D01*
X186869047Y-113952381D02*
X187345238Y-113952381D01*
X187392857Y-114428571D01*
X187345238Y-114380952D01*
X187250000Y-114333333D01*
X187011904Y-114333333D01*
X186916666Y-114380952D01*
X186869047Y-114428571D01*
X186821428Y-114523810D01*
X186821428Y-114761905D01*
X186869047Y-114857143D01*
X186916666Y-114904762D01*
X187011904Y-114952381D01*
X187250000Y-114952381D01*
X187345238Y-114904762D01*
X187392857Y-114857143D01*
X186392857Y-114952381D02*
X186392857Y-114285714D01*
X186392857Y-114476190D02*
X186345238Y-114380952D01*
X186297619Y-114333333D01*
X186202381Y-114285714D01*
X186107142Y-114285714D01*
X185869047Y-113952381D02*
X185249999Y-113952381D01*
X185583333Y-114333333D01*
X185440475Y-114333333D01*
X185345237Y-114380952D01*
X185297618Y-114428571D01*
X185249999Y-114523810D01*
X185249999Y-114761905D01*
X185297618Y-114857143D01*
X185345237Y-114904762D01*
X185440475Y-114952381D01*
X185726190Y-114952381D01*
X185821428Y-114904762D01*
X185869047Y-114857143D01*
X204993657Y-122934509D02*
X205088895Y-122982128D01*
X205279372Y-122982128D01*
X205374610Y-122934509D01*
X205422229Y-122886890D01*
X205469848Y-122791652D01*
X205469848Y-122505937D01*
X205422229Y-122410699D01*
X205374610Y-122363080D01*
X205279372Y-122315461D01*
X205088895Y-122315461D01*
X204993657Y-122363080D01*
X204088895Y-121982128D02*
X204565086Y-121982128D01*
X204612705Y-122458318D01*
X204565086Y-122410699D01*
X204469848Y-122363080D01*
X204231752Y-122363080D01*
X204136514Y-122410699D01*
X204088895Y-122458318D01*
X204041276Y-122553557D01*
X204041276Y-122791652D01*
X204088895Y-122886890D01*
X204136514Y-122934509D01*
X204231752Y-122982128D01*
X204469848Y-122982128D01*
X204565086Y-122934509D01*
X204612705Y-122886890D01*
X203612705Y-122982128D02*
X203612705Y-122315461D01*
X203612705Y-122505937D02*
X203565086Y-122410699D01*
X203517467Y-122363080D01*
X203422229Y-122315461D01*
X203326990Y-122315461D01*
X203041276Y-122077366D02*
X202993657Y-122029747D01*
X202898419Y-121982128D01*
X202660323Y-121982128D01*
X202565085Y-122029747D01*
X202517466Y-122077366D01*
X202469847Y-122172604D01*
X202469847Y-122267842D01*
X202517466Y-122410699D01*
X203088895Y-122982128D01*
X202469847Y-122982128D01*
X218198631Y-139574180D02*
X218293869Y-139621799D01*
X218484346Y-139621799D01*
X218579584Y-139574180D01*
X218627203Y-139526561D01*
X218674822Y-139431323D01*
X218674822Y-139145608D01*
X218627203Y-139050370D01*
X218579584Y-139002751D01*
X218484346Y-138955132D01*
X218293869Y-138955132D01*
X218198631Y-139002751D01*
X217293869Y-138621799D02*
X217770060Y-138621799D01*
X217817679Y-139097989D01*
X217770060Y-139050370D01*
X217674822Y-139002751D01*
X217436726Y-139002751D01*
X217341488Y-139050370D01*
X217293869Y-139097989D01*
X217246250Y-139193228D01*
X217246250Y-139431323D01*
X217293869Y-139526561D01*
X217341488Y-139574180D01*
X217436726Y-139621799D01*
X217674822Y-139621799D01*
X217770060Y-139574180D01*
X217817679Y-139526561D01*
X216817679Y-139621799D02*
X216817679Y-138955132D01*
X216817679Y-139145608D02*
X216770060Y-139050370D01*
X216722441Y-139002751D01*
X216627203Y-138955132D01*
X216531964Y-138955132D01*
X215674821Y-139621799D02*
X216246250Y-139621799D01*
X215960536Y-139621799D02*
X215960536Y-138621799D01*
X216055774Y-138764656D01*
X216151012Y-138859894D01*
X216246250Y-138907513D01*
X226228378Y-122354332D02*
X226323616Y-122401951D01*
X226514093Y-122401951D01*
X226609331Y-122354332D01*
X226656950Y-122306713D01*
X226704569Y-122211475D01*
X226704569Y-121925760D01*
X226656950Y-121830522D01*
X226609331Y-121782903D01*
X226514093Y-121735284D01*
X226323616Y-121735284D01*
X226228378Y-121782903D01*
X225323616Y-121401951D02*
X225799807Y-121401951D01*
X225847426Y-121878141D01*
X225799807Y-121830522D01*
X225704569Y-121782903D01*
X225466473Y-121782903D01*
X225371235Y-121830522D01*
X225323616Y-121878141D01*
X225275997Y-121973380D01*
X225275997Y-122211475D01*
X225323616Y-122306713D01*
X225371235Y-122354332D01*
X225466473Y-122401951D01*
X225704569Y-122401951D01*
X225799807Y-122354332D01*
X225847426Y-122306713D01*
X224847426Y-122401951D02*
X224847426Y-121735284D01*
X224847426Y-121925760D02*
X224799807Y-121830522D01*
X224752188Y-121782903D01*
X224656950Y-121735284D01*
X224561711Y-121735284D01*
X223799806Y-121735284D02*
X223799806Y-122401951D01*
X224037902Y-121354332D02*
X224275997Y-122068618D01*
X223656949Y-122068618D01*
X234258125Y-105134484D02*
X234353363Y-105182103D01*
X234543840Y-105182103D01*
X234639078Y-105134484D01*
X234686697Y-105086865D01*
X234734316Y-104991627D01*
X234734316Y-104705912D01*
X234686697Y-104610674D01*
X234639078Y-104563055D01*
X234543840Y-104515436D01*
X234353363Y-104515436D01*
X234258125Y-104563055D01*
X233353363Y-104182103D02*
X233829554Y-104182103D01*
X233877173Y-104658293D01*
X233829554Y-104610674D01*
X233734316Y-104563055D01*
X233496220Y-104563055D01*
X233400982Y-104610674D01*
X233353363Y-104658293D01*
X233305744Y-104753532D01*
X233305744Y-104991627D01*
X233353363Y-105086865D01*
X233400982Y-105134484D01*
X233496220Y-105182103D01*
X233734316Y-105182103D01*
X233829554Y-105134484D01*
X233877173Y-105086865D01*
X232877173Y-105182103D02*
X232877173Y-104515436D01*
X232877173Y-104705912D02*
X232829554Y-104610674D01*
X232781935Y-104563055D01*
X232686697Y-104515436D01*
X232591458Y-104515436D01*
X231829553Y-104182103D02*
X232020030Y-104182103D01*
X232115268Y-104229722D01*
X232162887Y-104277341D01*
X232258125Y-104420198D01*
X232305744Y-104610674D01*
X232305744Y-104991627D01*
X232258125Y-105086865D01*
X232210506Y-105134484D01*
X232115268Y-105182103D01*
X231924791Y-105182103D01*
X231829553Y-105134484D01*
X231781934Y-105086865D01*
X231734315Y-104991627D01*
X231734315Y-104753532D01*
X231781934Y-104658293D01*
X231829553Y-104610674D01*
X231924791Y-104563055D01*
X232115268Y-104563055D01*
X232210506Y-104610674D01*
X232258125Y-104658293D01*
X232305744Y-104753532D01*
X217038277Y-97104737D02*
X217133515Y-97152356D01*
X217323992Y-97152356D01*
X217419230Y-97104737D01*
X217466849Y-97057118D01*
X217514468Y-96961880D01*
X217514468Y-96676165D01*
X217466849Y-96580927D01*
X217419230Y-96533308D01*
X217323992Y-96485689D01*
X217133515Y-96485689D01*
X217038277Y-96533308D01*
X216133515Y-96152356D02*
X216609706Y-96152356D01*
X216657325Y-96628546D01*
X216609706Y-96580927D01*
X216514468Y-96533308D01*
X216276372Y-96533308D01*
X216181134Y-96580927D01*
X216133515Y-96628546D01*
X216085896Y-96723785D01*
X216085896Y-96961880D01*
X216133515Y-97057118D01*
X216181134Y-97104737D01*
X216276372Y-97152356D01*
X216514468Y-97152356D01*
X216609706Y-97104737D01*
X216657325Y-97057118D01*
X215657325Y-97152356D02*
X215657325Y-96485689D01*
X215657325Y-96676165D02*
X215609706Y-96580927D01*
X215562087Y-96533308D01*
X215466849Y-96485689D01*
X215371610Y-96485689D01*
X214562086Y-96152356D02*
X215038277Y-96152356D01*
X215085896Y-96628546D01*
X215038277Y-96580927D01*
X214943039Y-96533308D01*
X214704943Y-96533308D01*
X214609705Y-96580927D01*
X214562086Y-96628546D01*
X214514467Y-96723785D01*
X214514467Y-96961880D01*
X214562086Y-97057118D01*
X214609705Y-97104737D01*
X214704943Y-97152356D01*
X214943039Y-97152356D01*
X215038277Y-97104737D01*
X215085896Y-97057118D01*
X195773809Y-24904762D02*
X195869047Y-24952381D01*
X196059524Y-24952381D01*
X196154762Y-24904762D01*
X196202381Y-24857143D01*
X196250000Y-24761905D01*
X196250000Y-24476190D01*
X196202381Y-24380952D01*
X196154762Y-24333333D01*
X196059524Y-24285714D01*
X195869047Y-24285714D01*
X195773809Y-24333333D01*
X195154762Y-23952381D02*
X195059523Y-23952381D01*
X194964285Y-24000000D01*
X194916666Y-24047619D01*
X194869047Y-24142857D01*
X194821428Y-24333333D01*
X194821428Y-24571429D01*
X194869047Y-24761905D01*
X194916666Y-24857143D01*
X194964285Y-24904762D01*
X195059523Y-24952381D01*
X195154762Y-24952381D01*
X195250000Y-24904762D01*
X195297619Y-24857143D01*
X195345238Y-24761905D01*
X195392857Y-24571429D01*
X195392857Y-24333333D01*
X195345238Y-24142857D01*
X195297619Y-24047619D01*
X195250000Y-24000000D01*
X195154762Y-23952381D01*
X194392857Y-24952381D02*
X194392857Y-24285714D01*
X194392857Y-24476190D02*
X194345238Y-24380952D01*
X194297619Y-24333333D01*
X194202381Y-24285714D01*
X194107142Y-24285714D01*
X193345237Y-23952381D02*
X193535714Y-23952381D01*
X193630952Y-24000000D01*
X193678571Y-24047619D01*
X193773809Y-24190476D01*
X193821428Y-24380952D01*
X193821428Y-24761905D01*
X193773809Y-24857143D01*
X193726190Y-24904762D01*
X193630952Y-24952381D01*
X193440475Y-24952381D01*
X193345237Y-24904762D01*
X193297618Y-24857143D01*
X193249999Y-24761905D01*
X193249999Y-24523810D01*
X193297618Y-24428571D01*
X193345237Y-24380952D01*
X193440475Y-24333333D01*
X193630952Y-24333333D01*
X193726190Y-24380952D01*
X193773809Y-24428571D01*
X193821428Y-24523810D01*
X195773809Y-48654762D02*
X195869047Y-48702381D01*
X196059524Y-48702381D01*
X196154762Y-48654762D01*
X196202381Y-48607143D01*
X196250000Y-48511905D01*
X196250000Y-48226190D01*
X196202381Y-48130952D01*
X196154762Y-48083333D01*
X196059524Y-48035714D01*
X195869047Y-48035714D01*
X195773809Y-48083333D01*
X194821428Y-48702381D02*
X195392857Y-48702381D01*
X195107143Y-48702381D02*
X195107143Y-47702381D01*
X195202381Y-47845238D01*
X195297619Y-47940476D01*
X195392857Y-47988095D01*
X194392857Y-48702381D02*
X194392857Y-48035714D01*
X194392857Y-48226190D02*
X194345238Y-48130952D01*
X194297619Y-48083333D01*
X194202381Y-48035714D01*
X194107142Y-48035714D01*
X193345237Y-47702381D02*
X193535714Y-47702381D01*
X193630952Y-47750000D01*
X193678571Y-47797619D01*
X193773809Y-47940476D01*
X193821428Y-48130952D01*
X193821428Y-48511905D01*
X193773809Y-48607143D01*
X193726190Y-48654762D01*
X193630952Y-48702381D01*
X193440475Y-48702381D01*
X193345237Y-48654762D01*
X193297618Y-48607143D01*
X193249999Y-48511905D01*
X193249999Y-48273810D01*
X193297618Y-48178571D01*
X193345237Y-48130952D01*
X193440475Y-48083333D01*
X193630952Y-48083333D01*
X193726190Y-48130952D01*
X193773809Y-48178571D01*
X193821428Y-48273810D01*
X195773809Y-77154762D02*
X195869047Y-77202381D01*
X196059524Y-77202381D01*
X196154762Y-77154762D01*
X196202381Y-77107143D01*
X196250000Y-77011905D01*
X196250000Y-76726190D01*
X196202381Y-76630952D01*
X196154762Y-76583333D01*
X196059524Y-76535714D01*
X195869047Y-76535714D01*
X195773809Y-76583333D01*
X195440476Y-76202381D02*
X194821428Y-76202381D01*
X195154762Y-76583333D01*
X195011904Y-76583333D01*
X194916666Y-76630952D01*
X194869047Y-76678571D01*
X194821428Y-76773810D01*
X194821428Y-77011905D01*
X194869047Y-77107143D01*
X194916666Y-77154762D01*
X195011904Y-77202381D01*
X195297619Y-77202381D01*
X195392857Y-77154762D01*
X195440476Y-77107143D01*
X194392857Y-77202381D02*
X194392857Y-76535714D01*
X194392857Y-76726190D02*
X194345238Y-76630952D01*
X194297619Y-76583333D01*
X194202381Y-76535714D01*
X194107142Y-76535714D01*
X193345237Y-76202381D02*
X193535714Y-76202381D01*
X193630952Y-76250000D01*
X193678571Y-76297619D01*
X193773809Y-76440476D01*
X193821428Y-76630952D01*
X193821428Y-77011905D01*
X193773809Y-77107143D01*
X193726190Y-77154762D01*
X193630952Y-77202381D01*
X193440475Y-77202381D01*
X193345237Y-77154762D01*
X193297618Y-77107143D01*
X193249999Y-77011905D01*
X193249999Y-76773810D01*
X193297618Y-76678571D01*
X193345237Y-76630952D01*
X193440475Y-76583333D01*
X193630952Y-76583333D01*
X193726190Y-76630952D01*
X193773809Y-76678571D01*
X193821428Y-76773810D01*
X176773809Y-24904762D02*
X176869047Y-24952381D01*
X177059524Y-24952381D01*
X177154762Y-24904762D01*
X177202381Y-24857143D01*
X177250000Y-24761905D01*
X177250000Y-24476190D01*
X177202381Y-24380952D01*
X177154762Y-24333333D01*
X177059524Y-24285714D01*
X176869047Y-24285714D01*
X176773809Y-24333333D01*
X176154762Y-23952381D02*
X176059523Y-23952381D01*
X175964285Y-24000000D01*
X175916666Y-24047619D01*
X175869047Y-24142857D01*
X175821428Y-24333333D01*
X175821428Y-24571429D01*
X175869047Y-24761905D01*
X175916666Y-24857143D01*
X175964285Y-24904762D01*
X176059523Y-24952381D01*
X176154762Y-24952381D01*
X176250000Y-24904762D01*
X176297619Y-24857143D01*
X176345238Y-24761905D01*
X176392857Y-24571429D01*
X176392857Y-24333333D01*
X176345238Y-24142857D01*
X176297619Y-24047619D01*
X176250000Y-24000000D01*
X176154762Y-23952381D01*
X175392857Y-24952381D02*
X175392857Y-24285714D01*
X175392857Y-24476190D02*
X175345238Y-24380952D01*
X175297619Y-24333333D01*
X175202381Y-24285714D01*
X175107142Y-24285714D01*
X174297618Y-23952381D02*
X174773809Y-23952381D01*
X174821428Y-24428571D01*
X174773809Y-24380952D01*
X174678571Y-24333333D01*
X174440475Y-24333333D01*
X174345237Y-24380952D01*
X174297618Y-24428571D01*
X174249999Y-24523810D01*
X174249999Y-24761905D01*
X174297618Y-24857143D01*
X174345237Y-24904762D01*
X174440475Y-24952381D01*
X174678571Y-24952381D01*
X174773809Y-24904762D01*
X174821428Y-24857143D01*
X176773809Y-43904762D02*
X176869047Y-43952381D01*
X177059524Y-43952381D01*
X177154762Y-43904762D01*
X177202381Y-43857143D01*
X177250000Y-43761905D01*
X177250000Y-43476190D01*
X177202381Y-43380952D01*
X177154762Y-43333333D01*
X177059524Y-43285714D01*
X176869047Y-43285714D01*
X176773809Y-43333333D01*
X175821428Y-43952381D02*
X176392857Y-43952381D01*
X176107143Y-43952381D02*
X176107143Y-42952381D01*
X176202381Y-43095238D01*
X176297619Y-43190476D01*
X176392857Y-43238095D01*
X175392857Y-43952381D02*
X175392857Y-43285714D01*
X175392857Y-43476190D02*
X175345238Y-43380952D01*
X175297619Y-43333333D01*
X175202381Y-43285714D01*
X175107142Y-43285714D01*
X174297618Y-42952381D02*
X174773809Y-42952381D01*
X174821428Y-43428571D01*
X174773809Y-43380952D01*
X174678571Y-43333333D01*
X174440475Y-43333333D01*
X174345237Y-43380952D01*
X174297618Y-43428571D01*
X174249999Y-43523810D01*
X174249999Y-43761905D01*
X174297618Y-43857143D01*
X174345237Y-43904762D01*
X174440475Y-43952381D01*
X174678571Y-43952381D01*
X174773809Y-43904762D01*
X174821428Y-43857143D01*
X176773809Y-62904762D02*
X176869047Y-62952381D01*
X177059524Y-62952381D01*
X177154762Y-62904762D01*
X177202381Y-62857143D01*
X177250000Y-62761905D01*
X177250000Y-62476190D01*
X177202381Y-62380952D01*
X177154762Y-62333333D01*
X177059524Y-62285714D01*
X176869047Y-62285714D01*
X176773809Y-62333333D01*
X176392857Y-62047619D02*
X176345238Y-62000000D01*
X176250000Y-61952381D01*
X176011904Y-61952381D01*
X175916666Y-62000000D01*
X175869047Y-62047619D01*
X175821428Y-62142857D01*
X175821428Y-62238095D01*
X175869047Y-62380952D01*
X176440476Y-62952381D01*
X175821428Y-62952381D01*
X175392857Y-62952381D02*
X175392857Y-62285714D01*
X175392857Y-62476190D02*
X175345238Y-62380952D01*
X175297619Y-62333333D01*
X175202381Y-62285714D01*
X175107142Y-62285714D01*
X174297618Y-61952381D02*
X174773809Y-61952381D01*
X174821428Y-62428571D01*
X174773809Y-62380952D01*
X174678571Y-62333333D01*
X174440475Y-62333333D01*
X174345237Y-62380952D01*
X174297618Y-62428571D01*
X174249999Y-62523810D01*
X174249999Y-62761905D01*
X174297618Y-62857143D01*
X174345237Y-62904762D01*
X174440475Y-62952381D01*
X174678571Y-62952381D01*
X174773809Y-62904762D01*
X174821428Y-62857143D01*
X176773809Y-81904762D02*
X176869047Y-81952381D01*
X177059524Y-81952381D01*
X177154762Y-81904762D01*
X177202381Y-81857143D01*
X177250000Y-81761905D01*
X177250000Y-81476190D01*
X177202381Y-81380952D01*
X177154762Y-81333333D01*
X177059524Y-81285714D01*
X176869047Y-81285714D01*
X176773809Y-81333333D01*
X176440476Y-80952381D02*
X175821428Y-80952381D01*
X176154762Y-81333333D01*
X176011904Y-81333333D01*
X175916666Y-81380952D01*
X175869047Y-81428571D01*
X175821428Y-81523810D01*
X175821428Y-81761905D01*
X175869047Y-81857143D01*
X175916666Y-81904762D01*
X176011904Y-81952381D01*
X176297619Y-81952381D01*
X176392857Y-81904762D01*
X176440476Y-81857143D01*
X175392857Y-81952381D02*
X175392857Y-81285714D01*
X175392857Y-81476190D02*
X175345238Y-81380952D01*
X175297619Y-81333333D01*
X175202381Y-81285714D01*
X175107142Y-81285714D01*
X174297618Y-80952381D02*
X174773809Y-80952381D01*
X174821428Y-81428571D01*
X174773809Y-81380952D01*
X174678571Y-81333333D01*
X174440475Y-81333333D01*
X174345237Y-81380952D01*
X174297618Y-81428571D01*
X174249999Y-81523810D01*
X174249999Y-81761905D01*
X174297618Y-81857143D01*
X174345237Y-81904762D01*
X174440475Y-81952381D01*
X174678571Y-81952381D01*
X174773809Y-81904762D01*
X174821428Y-81857143D01*
X157773809Y-23404762D02*
X157869047Y-23452381D01*
X158059524Y-23452381D01*
X158154762Y-23404762D01*
X158202381Y-23357143D01*
X158250000Y-23261905D01*
X158250000Y-22976190D01*
X158202381Y-22880952D01*
X158154762Y-22833333D01*
X158059524Y-22785714D01*
X157869047Y-22785714D01*
X157773809Y-22833333D01*
X157154762Y-22452381D02*
X157059523Y-22452381D01*
X156964285Y-22500000D01*
X156916666Y-22547619D01*
X156869047Y-22642857D01*
X156821428Y-22833333D01*
X156821428Y-23071429D01*
X156869047Y-23261905D01*
X156916666Y-23357143D01*
X156964285Y-23404762D01*
X157059523Y-23452381D01*
X157154762Y-23452381D01*
X157250000Y-23404762D01*
X157297619Y-23357143D01*
X157345238Y-23261905D01*
X157392857Y-23071429D01*
X157392857Y-22833333D01*
X157345238Y-22642857D01*
X157297619Y-22547619D01*
X157250000Y-22500000D01*
X157154762Y-22452381D01*
X156392857Y-23452381D02*
X156392857Y-22785714D01*
X156392857Y-22976190D02*
X156345238Y-22880952D01*
X156297619Y-22833333D01*
X156202381Y-22785714D01*
X156107142Y-22785714D01*
X155345237Y-22785714D02*
X155345237Y-23452381D01*
X155583333Y-22404762D02*
X155821428Y-23119048D01*
X155202380Y-23119048D01*
X157773809Y-42404762D02*
X157869047Y-42452381D01*
X158059524Y-42452381D01*
X158154762Y-42404762D01*
X158202381Y-42357143D01*
X158250000Y-42261905D01*
X158250000Y-41976190D01*
X158202381Y-41880952D01*
X158154762Y-41833333D01*
X158059524Y-41785714D01*
X157869047Y-41785714D01*
X157773809Y-41833333D01*
X156821428Y-42452381D02*
X157392857Y-42452381D01*
X157107143Y-42452381D02*
X157107143Y-41452381D01*
X157202381Y-41595238D01*
X157297619Y-41690476D01*
X157392857Y-41738095D01*
X156392857Y-42452381D02*
X156392857Y-41785714D01*
X156392857Y-41976190D02*
X156345238Y-41880952D01*
X156297619Y-41833333D01*
X156202381Y-41785714D01*
X156107142Y-41785714D01*
X155345237Y-41785714D02*
X155345237Y-42452381D01*
X155583333Y-41404762D02*
X155821428Y-42119048D01*
X155202380Y-42119048D01*
X157773809Y-61404762D02*
X157869047Y-61452381D01*
X158059524Y-61452381D01*
X158154762Y-61404762D01*
X158202381Y-61357143D01*
X158250000Y-61261905D01*
X158250000Y-60976190D01*
X158202381Y-60880952D01*
X158154762Y-60833333D01*
X158059524Y-60785714D01*
X157869047Y-60785714D01*
X157773809Y-60833333D01*
X157392857Y-60547619D02*
X157345238Y-60500000D01*
X157250000Y-60452381D01*
X157011904Y-60452381D01*
X156916666Y-60500000D01*
X156869047Y-60547619D01*
X156821428Y-60642857D01*
X156821428Y-60738095D01*
X156869047Y-60880952D01*
X157440476Y-61452381D01*
X156821428Y-61452381D01*
X156392857Y-61452381D02*
X156392857Y-60785714D01*
X156392857Y-60976190D02*
X156345238Y-60880952D01*
X156297619Y-60833333D01*
X156202381Y-60785714D01*
X156107142Y-60785714D01*
X155345237Y-60785714D02*
X155345237Y-61452381D01*
X155583333Y-60404762D02*
X155821428Y-61119048D01*
X155202380Y-61119048D01*
X157773809Y-80404762D02*
X157869047Y-80452381D01*
X158059524Y-80452381D01*
X158154762Y-80404762D01*
X158202381Y-80357143D01*
X158250000Y-80261905D01*
X158250000Y-79976190D01*
X158202381Y-79880952D01*
X158154762Y-79833333D01*
X158059524Y-79785714D01*
X157869047Y-79785714D01*
X157773809Y-79833333D01*
X157440476Y-79452381D02*
X156821428Y-79452381D01*
X157154762Y-79833333D01*
X157011904Y-79833333D01*
X156916666Y-79880952D01*
X156869047Y-79928571D01*
X156821428Y-80023810D01*
X156821428Y-80261905D01*
X156869047Y-80357143D01*
X156916666Y-80404762D01*
X157011904Y-80452381D01*
X157297619Y-80452381D01*
X157392857Y-80404762D01*
X157440476Y-80357143D01*
X156392857Y-80452381D02*
X156392857Y-79785714D01*
X156392857Y-79976190D02*
X156345238Y-79880952D01*
X156297619Y-79833333D01*
X156202381Y-79785714D01*
X156107142Y-79785714D01*
X155345237Y-79785714D02*
X155345237Y-80452381D01*
X155583333Y-79404762D02*
X155821428Y-80119048D01*
X155202380Y-80119048D01*
X157773809Y-99404762D02*
X157869047Y-99452381D01*
X158059524Y-99452381D01*
X158154762Y-99404762D01*
X158202381Y-99357143D01*
X158250000Y-99261905D01*
X158250000Y-98976190D01*
X158202381Y-98880952D01*
X158154762Y-98833333D01*
X158059524Y-98785714D01*
X157869047Y-98785714D01*
X157773809Y-98833333D01*
X156916666Y-98785714D02*
X156916666Y-99452381D01*
X157154762Y-98404762D02*
X157392857Y-99119048D01*
X156773809Y-99119048D01*
X156392857Y-99452381D02*
X156392857Y-98785714D01*
X156392857Y-98976190D02*
X156345238Y-98880952D01*
X156297619Y-98833333D01*
X156202381Y-98785714D01*
X156107142Y-98785714D01*
X155345237Y-98785714D02*
X155345237Y-99452381D01*
X155583333Y-98404762D02*
X155821428Y-99119048D01*
X155202380Y-99119048D01*
X138773809Y-21904762D02*
X138869047Y-21952381D01*
X139059524Y-21952381D01*
X139154762Y-21904762D01*
X139202381Y-21857143D01*
X139250000Y-21761905D01*
X139250000Y-21476190D01*
X139202381Y-21380952D01*
X139154762Y-21333333D01*
X139059524Y-21285714D01*
X138869047Y-21285714D01*
X138773809Y-21333333D01*
X138154762Y-20952381D02*
X138059523Y-20952381D01*
X137964285Y-21000000D01*
X137916666Y-21047619D01*
X137869047Y-21142857D01*
X137821428Y-21333333D01*
X137821428Y-21571429D01*
X137869047Y-21761905D01*
X137916666Y-21857143D01*
X137964285Y-21904762D01*
X138059523Y-21952381D01*
X138154762Y-21952381D01*
X138250000Y-21904762D01*
X138297619Y-21857143D01*
X138345238Y-21761905D01*
X138392857Y-21571429D01*
X138392857Y-21333333D01*
X138345238Y-21142857D01*
X138297619Y-21047619D01*
X138250000Y-21000000D01*
X138154762Y-20952381D01*
X137392857Y-21952381D02*
X137392857Y-21285714D01*
X137392857Y-21476190D02*
X137345238Y-21380952D01*
X137297619Y-21333333D01*
X137202381Y-21285714D01*
X137107142Y-21285714D01*
X136869047Y-20952381D02*
X136249999Y-20952381D01*
X136583333Y-21333333D01*
X136440475Y-21333333D01*
X136345237Y-21380952D01*
X136297618Y-21428571D01*
X136249999Y-21523810D01*
X136249999Y-21761905D01*
X136297618Y-21857143D01*
X136345237Y-21904762D01*
X136440475Y-21952381D01*
X136726190Y-21952381D01*
X136821428Y-21904762D01*
X136869047Y-21857143D01*
X138773809Y-40904762D02*
X138869047Y-40952381D01*
X139059524Y-40952381D01*
X139154762Y-40904762D01*
X139202381Y-40857143D01*
X139250000Y-40761905D01*
X139250000Y-40476190D01*
X139202381Y-40380952D01*
X139154762Y-40333333D01*
X139059524Y-40285714D01*
X138869047Y-40285714D01*
X138773809Y-40333333D01*
X137821428Y-40952381D02*
X138392857Y-40952381D01*
X138107143Y-40952381D02*
X138107143Y-39952381D01*
X138202381Y-40095238D01*
X138297619Y-40190476D01*
X138392857Y-40238095D01*
X137392857Y-40952381D02*
X137392857Y-40285714D01*
X137392857Y-40476190D02*
X137345238Y-40380952D01*
X137297619Y-40333333D01*
X137202381Y-40285714D01*
X137107142Y-40285714D01*
X136869047Y-39952381D02*
X136249999Y-39952381D01*
X136583333Y-40333333D01*
X136440475Y-40333333D01*
X136345237Y-40380952D01*
X136297618Y-40428571D01*
X136249999Y-40523810D01*
X136249999Y-40761905D01*
X136297618Y-40857143D01*
X136345237Y-40904762D01*
X136440475Y-40952381D01*
X136726190Y-40952381D01*
X136821428Y-40904762D01*
X136869047Y-40857143D01*
X138773809Y-59904762D02*
X138869047Y-59952381D01*
X139059524Y-59952381D01*
X139154762Y-59904762D01*
X139202381Y-59857143D01*
X139250000Y-59761905D01*
X139250000Y-59476190D01*
X139202381Y-59380952D01*
X139154762Y-59333333D01*
X139059524Y-59285714D01*
X138869047Y-59285714D01*
X138773809Y-59333333D01*
X138392857Y-59047619D02*
X138345238Y-59000000D01*
X138250000Y-58952381D01*
X138011904Y-58952381D01*
X137916666Y-59000000D01*
X137869047Y-59047619D01*
X137821428Y-59142857D01*
X137821428Y-59238095D01*
X137869047Y-59380952D01*
X138440476Y-59952381D01*
X137821428Y-59952381D01*
X137392857Y-59952381D02*
X137392857Y-59285714D01*
X137392857Y-59476190D02*
X137345238Y-59380952D01*
X137297619Y-59333333D01*
X137202381Y-59285714D01*
X137107142Y-59285714D01*
X136869047Y-58952381D02*
X136249999Y-58952381D01*
X136583333Y-59333333D01*
X136440475Y-59333333D01*
X136345237Y-59380952D01*
X136297618Y-59428571D01*
X136249999Y-59523810D01*
X136249999Y-59761905D01*
X136297618Y-59857143D01*
X136345237Y-59904762D01*
X136440475Y-59952381D01*
X136726190Y-59952381D01*
X136821428Y-59904762D01*
X136869047Y-59857143D01*
X138773809Y-78904762D02*
X138869047Y-78952381D01*
X139059524Y-78952381D01*
X139154762Y-78904762D01*
X139202381Y-78857143D01*
X139250000Y-78761905D01*
X139250000Y-78476190D01*
X139202381Y-78380952D01*
X139154762Y-78333333D01*
X139059524Y-78285714D01*
X138869047Y-78285714D01*
X138773809Y-78333333D01*
X138440476Y-77952381D02*
X137821428Y-77952381D01*
X138154762Y-78333333D01*
X138011904Y-78333333D01*
X137916666Y-78380952D01*
X137869047Y-78428571D01*
X137821428Y-78523810D01*
X137821428Y-78761905D01*
X137869047Y-78857143D01*
X137916666Y-78904762D01*
X138011904Y-78952381D01*
X138297619Y-78952381D01*
X138392857Y-78904762D01*
X138440476Y-78857143D01*
X137392857Y-78952381D02*
X137392857Y-78285714D01*
X137392857Y-78476190D02*
X137345238Y-78380952D01*
X137297619Y-78333333D01*
X137202381Y-78285714D01*
X137107142Y-78285714D01*
X136869047Y-77952381D02*
X136249999Y-77952381D01*
X136583333Y-78333333D01*
X136440475Y-78333333D01*
X136345237Y-78380952D01*
X136297618Y-78428571D01*
X136249999Y-78523810D01*
X136249999Y-78761905D01*
X136297618Y-78857143D01*
X136345237Y-78904762D01*
X136440475Y-78952381D01*
X136726190Y-78952381D01*
X136821428Y-78904762D01*
X136869047Y-78857143D01*
X138773809Y-97904762D02*
X138869047Y-97952381D01*
X139059524Y-97952381D01*
X139154762Y-97904762D01*
X139202381Y-97857143D01*
X139250000Y-97761905D01*
X139250000Y-97476190D01*
X139202381Y-97380952D01*
X139154762Y-97333333D01*
X139059524Y-97285714D01*
X138869047Y-97285714D01*
X138773809Y-97333333D01*
X137916666Y-97285714D02*
X137916666Y-97952381D01*
X138154762Y-96904762D02*
X138392857Y-97619048D01*
X137773809Y-97619048D01*
X137392857Y-97952381D02*
X137392857Y-97285714D01*
X137392857Y-97476190D02*
X137345238Y-97380952D01*
X137297619Y-97333333D01*
X137202381Y-97285714D01*
X137107142Y-97285714D01*
X136869047Y-96952381D02*
X136249999Y-96952381D01*
X136583333Y-97333333D01*
X136440475Y-97333333D01*
X136345237Y-97380952D01*
X136297618Y-97428571D01*
X136249999Y-97523810D01*
X136249999Y-97761905D01*
X136297618Y-97857143D01*
X136345237Y-97904762D01*
X136440475Y-97952381D01*
X136726190Y-97952381D01*
X136821428Y-97904762D01*
X136869047Y-97857143D01*
X119773809Y-23404762D02*
X119869047Y-23452381D01*
X120059524Y-23452381D01*
X120154762Y-23404762D01*
X120202381Y-23357143D01*
X120250000Y-23261905D01*
X120250000Y-22976190D01*
X120202381Y-22880952D01*
X120154762Y-22833333D01*
X120059524Y-22785714D01*
X119869047Y-22785714D01*
X119773809Y-22833333D01*
X119154762Y-22452381D02*
X119059523Y-22452381D01*
X118964285Y-22500000D01*
X118916666Y-22547619D01*
X118869047Y-22642857D01*
X118821428Y-22833333D01*
X118821428Y-23071429D01*
X118869047Y-23261905D01*
X118916666Y-23357143D01*
X118964285Y-23404762D01*
X119059523Y-23452381D01*
X119154762Y-23452381D01*
X119250000Y-23404762D01*
X119297619Y-23357143D01*
X119345238Y-23261905D01*
X119392857Y-23071429D01*
X119392857Y-22833333D01*
X119345238Y-22642857D01*
X119297619Y-22547619D01*
X119250000Y-22500000D01*
X119154762Y-22452381D01*
X118392857Y-23452381D02*
X118392857Y-22785714D01*
X118392857Y-22976190D02*
X118345238Y-22880952D01*
X118297619Y-22833333D01*
X118202381Y-22785714D01*
X118107142Y-22785714D01*
X117821428Y-22547619D02*
X117773809Y-22500000D01*
X117678571Y-22452381D01*
X117440475Y-22452381D01*
X117345237Y-22500000D01*
X117297618Y-22547619D01*
X117249999Y-22642857D01*
X117249999Y-22738095D01*
X117297618Y-22880952D01*
X117869047Y-23452381D01*
X117249999Y-23452381D01*
X119773809Y-42404762D02*
X119869047Y-42452381D01*
X120059524Y-42452381D01*
X120154762Y-42404762D01*
X120202381Y-42357143D01*
X120250000Y-42261905D01*
X120250000Y-41976190D01*
X120202381Y-41880952D01*
X120154762Y-41833333D01*
X120059524Y-41785714D01*
X119869047Y-41785714D01*
X119773809Y-41833333D01*
X118821428Y-42452381D02*
X119392857Y-42452381D01*
X119107143Y-42452381D02*
X119107143Y-41452381D01*
X119202381Y-41595238D01*
X119297619Y-41690476D01*
X119392857Y-41738095D01*
X118392857Y-42452381D02*
X118392857Y-41785714D01*
X118392857Y-41976190D02*
X118345238Y-41880952D01*
X118297619Y-41833333D01*
X118202381Y-41785714D01*
X118107142Y-41785714D01*
X117821428Y-41547619D02*
X117773809Y-41500000D01*
X117678571Y-41452381D01*
X117440475Y-41452381D01*
X117345237Y-41500000D01*
X117297618Y-41547619D01*
X117249999Y-41642857D01*
X117249999Y-41738095D01*
X117297618Y-41880952D01*
X117869047Y-42452381D01*
X117249999Y-42452381D01*
X119773809Y-61404762D02*
X119869047Y-61452381D01*
X120059524Y-61452381D01*
X120154762Y-61404762D01*
X120202381Y-61357143D01*
X120250000Y-61261905D01*
X120250000Y-60976190D01*
X120202381Y-60880952D01*
X120154762Y-60833333D01*
X120059524Y-60785714D01*
X119869047Y-60785714D01*
X119773809Y-60833333D01*
X119392857Y-60547619D02*
X119345238Y-60500000D01*
X119250000Y-60452381D01*
X119011904Y-60452381D01*
X118916666Y-60500000D01*
X118869047Y-60547619D01*
X118821428Y-60642857D01*
X118821428Y-60738095D01*
X118869047Y-60880952D01*
X119440476Y-61452381D01*
X118821428Y-61452381D01*
X118392857Y-61452381D02*
X118392857Y-60785714D01*
X118392857Y-60976190D02*
X118345238Y-60880952D01*
X118297619Y-60833333D01*
X118202381Y-60785714D01*
X118107142Y-60785714D01*
X117821428Y-60547619D02*
X117773809Y-60500000D01*
X117678571Y-60452381D01*
X117440475Y-60452381D01*
X117345237Y-60500000D01*
X117297618Y-60547619D01*
X117249999Y-60642857D01*
X117249999Y-60738095D01*
X117297618Y-60880952D01*
X117869047Y-61452381D01*
X117249999Y-61452381D01*
X119773809Y-80404762D02*
X119869047Y-80452381D01*
X120059524Y-80452381D01*
X120154762Y-80404762D01*
X120202381Y-80357143D01*
X120250000Y-80261905D01*
X120250000Y-79976190D01*
X120202381Y-79880952D01*
X120154762Y-79833333D01*
X120059524Y-79785714D01*
X119869047Y-79785714D01*
X119773809Y-79833333D01*
X119440476Y-79452381D02*
X118821428Y-79452381D01*
X119154762Y-79833333D01*
X119011904Y-79833333D01*
X118916666Y-79880952D01*
X118869047Y-79928571D01*
X118821428Y-80023810D01*
X118821428Y-80261905D01*
X118869047Y-80357143D01*
X118916666Y-80404762D01*
X119011904Y-80452381D01*
X119297619Y-80452381D01*
X119392857Y-80404762D01*
X119440476Y-80357143D01*
X118392857Y-80452381D02*
X118392857Y-79785714D01*
X118392857Y-79976190D02*
X118345238Y-79880952D01*
X118297619Y-79833333D01*
X118202381Y-79785714D01*
X118107142Y-79785714D01*
X117821428Y-79547619D02*
X117773809Y-79500000D01*
X117678571Y-79452381D01*
X117440475Y-79452381D01*
X117345237Y-79500000D01*
X117297618Y-79547619D01*
X117249999Y-79642857D01*
X117249999Y-79738095D01*
X117297618Y-79880952D01*
X117869047Y-80452381D01*
X117249999Y-80452381D01*
X119773809Y-99404762D02*
X119869047Y-99452381D01*
X120059524Y-99452381D01*
X120154762Y-99404762D01*
X120202381Y-99357143D01*
X120250000Y-99261905D01*
X120250000Y-98976190D01*
X120202381Y-98880952D01*
X120154762Y-98833333D01*
X120059524Y-98785714D01*
X119869047Y-98785714D01*
X119773809Y-98833333D01*
X118916666Y-98785714D02*
X118916666Y-99452381D01*
X119154762Y-98404762D02*
X119392857Y-99119048D01*
X118773809Y-99119048D01*
X118392857Y-99452381D02*
X118392857Y-98785714D01*
X118392857Y-98976190D02*
X118345238Y-98880952D01*
X118297619Y-98833333D01*
X118202381Y-98785714D01*
X118107142Y-98785714D01*
X117821428Y-98547619D02*
X117773809Y-98500000D01*
X117678571Y-98452381D01*
X117440475Y-98452381D01*
X117345237Y-98500000D01*
X117297618Y-98547619D01*
X117249999Y-98642857D01*
X117249999Y-98738095D01*
X117297618Y-98880952D01*
X117869047Y-99452381D01*
X117249999Y-99452381D01*
X100773809Y-26404762D02*
X100869047Y-26452381D01*
X101059524Y-26452381D01*
X101154762Y-26404762D01*
X101202381Y-26357143D01*
X101250000Y-26261905D01*
X101250000Y-25976190D01*
X101202381Y-25880952D01*
X101154762Y-25833333D01*
X101059524Y-25785714D01*
X100869047Y-25785714D01*
X100773809Y-25833333D01*
X100154762Y-25452381D02*
X100059523Y-25452381D01*
X99964285Y-25500000D01*
X99916666Y-25547619D01*
X99869047Y-25642857D01*
X99821428Y-25833333D01*
X99821428Y-26071429D01*
X99869047Y-26261905D01*
X99916666Y-26357143D01*
X99964285Y-26404762D01*
X100059523Y-26452381D01*
X100154762Y-26452381D01*
X100250000Y-26404762D01*
X100297619Y-26357143D01*
X100345238Y-26261905D01*
X100392857Y-26071429D01*
X100392857Y-25833333D01*
X100345238Y-25642857D01*
X100297619Y-25547619D01*
X100250000Y-25500000D01*
X100154762Y-25452381D01*
X99392857Y-26452381D02*
X99392857Y-25785714D01*
X99392857Y-25976190D02*
X99345238Y-25880952D01*
X99297619Y-25833333D01*
X99202381Y-25785714D01*
X99107142Y-25785714D01*
X98249999Y-26452381D02*
X98821428Y-26452381D01*
X98535714Y-26452381D02*
X98535714Y-25452381D01*
X98630952Y-25595238D01*
X98726190Y-25690476D01*
X98821428Y-25738095D01*
X100773809Y-45404762D02*
X100869047Y-45452381D01*
X101059524Y-45452381D01*
X101154762Y-45404762D01*
X101202381Y-45357143D01*
X101250000Y-45261905D01*
X101250000Y-44976190D01*
X101202381Y-44880952D01*
X101154762Y-44833333D01*
X101059524Y-44785714D01*
X100869047Y-44785714D01*
X100773809Y-44833333D01*
X99821428Y-45452381D02*
X100392857Y-45452381D01*
X100107143Y-45452381D02*
X100107143Y-44452381D01*
X100202381Y-44595238D01*
X100297619Y-44690476D01*
X100392857Y-44738095D01*
X99392857Y-45452381D02*
X99392857Y-44785714D01*
X99392857Y-44976190D02*
X99345238Y-44880952D01*
X99297619Y-44833333D01*
X99202381Y-44785714D01*
X99107142Y-44785714D01*
X98249999Y-45452381D02*
X98821428Y-45452381D01*
X98535714Y-45452381D02*
X98535714Y-44452381D01*
X98630952Y-44595238D01*
X98726190Y-44690476D01*
X98821428Y-44738095D01*
X100773809Y-64404762D02*
X100869047Y-64452381D01*
X101059524Y-64452381D01*
X101154762Y-64404762D01*
X101202381Y-64357143D01*
X101250000Y-64261905D01*
X101250000Y-63976190D01*
X101202381Y-63880952D01*
X101154762Y-63833333D01*
X101059524Y-63785714D01*
X100869047Y-63785714D01*
X100773809Y-63833333D01*
X100392857Y-63547619D02*
X100345238Y-63500000D01*
X100250000Y-63452381D01*
X100011904Y-63452381D01*
X99916666Y-63500000D01*
X99869047Y-63547619D01*
X99821428Y-63642857D01*
X99821428Y-63738095D01*
X99869047Y-63880952D01*
X100440476Y-64452381D01*
X99821428Y-64452381D01*
X99392857Y-64452381D02*
X99392857Y-63785714D01*
X99392857Y-63976190D02*
X99345238Y-63880952D01*
X99297619Y-63833333D01*
X99202381Y-63785714D01*
X99107142Y-63785714D01*
X98249999Y-64452381D02*
X98821428Y-64452381D01*
X98535714Y-64452381D02*
X98535714Y-63452381D01*
X98630952Y-63595238D01*
X98726190Y-63690476D01*
X98821428Y-63738095D01*
X100773809Y-83404762D02*
X100869047Y-83452381D01*
X101059524Y-83452381D01*
X101154762Y-83404762D01*
X101202381Y-83357143D01*
X101250000Y-83261905D01*
X101250000Y-82976190D01*
X101202381Y-82880952D01*
X101154762Y-82833333D01*
X101059524Y-82785714D01*
X100869047Y-82785714D01*
X100773809Y-82833333D01*
X100440476Y-82452381D02*
X99821428Y-82452381D01*
X100154762Y-82833333D01*
X100011904Y-82833333D01*
X99916666Y-82880952D01*
X99869047Y-82928571D01*
X99821428Y-83023810D01*
X99821428Y-83261905D01*
X99869047Y-83357143D01*
X99916666Y-83404762D01*
X100011904Y-83452381D01*
X100297619Y-83452381D01*
X100392857Y-83404762D01*
X100440476Y-83357143D01*
X99392857Y-83452381D02*
X99392857Y-82785714D01*
X99392857Y-82976190D02*
X99345238Y-82880952D01*
X99297619Y-82833333D01*
X99202381Y-82785714D01*
X99107142Y-82785714D01*
X98249999Y-83452381D02*
X98821428Y-83452381D01*
X98535714Y-83452381D02*
X98535714Y-82452381D01*
X98630952Y-82595238D01*
X98726190Y-82690476D01*
X98821428Y-82738095D01*
X100773809Y-102404762D02*
X100869047Y-102452381D01*
X101059524Y-102452381D01*
X101154762Y-102404762D01*
X101202381Y-102357143D01*
X101250000Y-102261905D01*
X101250000Y-101976190D01*
X101202381Y-101880952D01*
X101154762Y-101833333D01*
X101059524Y-101785714D01*
X100869047Y-101785714D01*
X100773809Y-101833333D01*
X99916666Y-101785714D02*
X99916666Y-102452381D01*
X100154762Y-101404762D02*
X100392857Y-102119048D01*
X99773809Y-102119048D01*
X99392857Y-102452381D02*
X99392857Y-101785714D01*
X99392857Y-101976190D02*
X99345238Y-101880952D01*
X99297619Y-101833333D01*
X99202381Y-101785714D01*
X99107142Y-101785714D01*
X98249999Y-102452381D02*
X98821428Y-102452381D01*
X98535714Y-102452381D02*
X98535714Y-101452381D01*
X98630952Y-101595238D01*
X98726190Y-101690476D01*
X98821428Y-101738095D01*
X77023809Y-26404762D02*
X77119047Y-26452381D01*
X77309524Y-26452381D01*
X77404762Y-26404762D01*
X77452381Y-26357143D01*
X77500000Y-26261905D01*
X77500000Y-25976190D01*
X77452381Y-25880952D01*
X77404762Y-25833333D01*
X77309524Y-25785714D01*
X77119047Y-25785714D01*
X77023809Y-25833333D01*
X76404762Y-25452381D02*
X76309523Y-25452381D01*
X76214285Y-25500000D01*
X76166666Y-25547619D01*
X76119047Y-25642857D01*
X76071428Y-25833333D01*
X76071428Y-26071429D01*
X76119047Y-26261905D01*
X76166666Y-26357143D01*
X76214285Y-26404762D01*
X76309523Y-26452381D01*
X76404762Y-26452381D01*
X76500000Y-26404762D01*
X76547619Y-26357143D01*
X76595238Y-26261905D01*
X76642857Y-26071429D01*
X76642857Y-25833333D01*
X76595238Y-25642857D01*
X76547619Y-25547619D01*
X76500000Y-25500000D01*
X76404762Y-25452381D01*
X75642857Y-26452381D02*
X75642857Y-25785714D01*
X75642857Y-25976190D02*
X75595238Y-25880952D01*
X75547619Y-25833333D01*
X75452381Y-25785714D01*
X75357142Y-25785714D01*
X74833333Y-25452381D02*
X74738094Y-25452381D01*
X74642856Y-25500000D01*
X74595237Y-25547619D01*
X74547618Y-25642857D01*
X74499999Y-25833333D01*
X74499999Y-26071429D01*
X74547618Y-26261905D01*
X74595237Y-26357143D01*
X74642856Y-26404762D01*
X74738094Y-26452381D01*
X74833333Y-26452381D01*
X74928571Y-26404762D01*
X74976190Y-26357143D01*
X75023809Y-26261905D01*
X75071428Y-26071429D01*
X75071428Y-25833333D01*
X75023809Y-25642857D01*
X74976190Y-25547619D01*
X74928571Y-25500000D01*
X74833333Y-25452381D01*
X77023809Y-45404762D02*
X77119047Y-45452381D01*
X77309524Y-45452381D01*
X77404762Y-45404762D01*
X77452381Y-45357143D01*
X77500000Y-45261905D01*
X77500000Y-44976190D01*
X77452381Y-44880952D01*
X77404762Y-44833333D01*
X77309524Y-44785714D01*
X77119047Y-44785714D01*
X77023809Y-44833333D01*
X76071428Y-45452381D02*
X76642857Y-45452381D01*
X76357143Y-45452381D02*
X76357143Y-44452381D01*
X76452381Y-44595238D01*
X76547619Y-44690476D01*
X76642857Y-44738095D01*
X75642857Y-45452381D02*
X75642857Y-44785714D01*
X75642857Y-44976190D02*
X75595238Y-44880952D01*
X75547619Y-44833333D01*
X75452381Y-44785714D01*
X75357142Y-44785714D01*
X74833333Y-44452381D02*
X74738094Y-44452381D01*
X74642856Y-44500000D01*
X74595237Y-44547619D01*
X74547618Y-44642857D01*
X74499999Y-44833333D01*
X74499999Y-45071429D01*
X74547618Y-45261905D01*
X74595237Y-45357143D01*
X74642856Y-45404762D01*
X74738094Y-45452381D01*
X74833333Y-45452381D01*
X74928571Y-45404762D01*
X74976190Y-45357143D01*
X75023809Y-45261905D01*
X75071428Y-45071429D01*
X75071428Y-44833333D01*
X75023809Y-44642857D01*
X74976190Y-44547619D01*
X74928571Y-44500000D01*
X74833333Y-44452381D01*
X77023809Y-64404762D02*
X77119047Y-64452381D01*
X77309524Y-64452381D01*
X77404762Y-64404762D01*
X77452381Y-64357143D01*
X77500000Y-64261905D01*
X77500000Y-63976190D01*
X77452381Y-63880952D01*
X77404762Y-63833333D01*
X77309524Y-63785714D01*
X77119047Y-63785714D01*
X77023809Y-63833333D01*
X76642857Y-63547619D02*
X76595238Y-63500000D01*
X76500000Y-63452381D01*
X76261904Y-63452381D01*
X76166666Y-63500000D01*
X76119047Y-63547619D01*
X76071428Y-63642857D01*
X76071428Y-63738095D01*
X76119047Y-63880952D01*
X76690476Y-64452381D01*
X76071428Y-64452381D01*
X75642857Y-64452381D02*
X75642857Y-63785714D01*
X75642857Y-63976190D02*
X75595238Y-63880952D01*
X75547619Y-63833333D01*
X75452381Y-63785714D01*
X75357142Y-63785714D01*
X74833333Y-63452381D02*
X74738094Y-63452381D01*
X74642856Y-63500000D01*
X74595237Y-63547619D01*
X74547618Y-63642857D01*
X74499999Y-63833333D01*
X74499999Y-64071429D01*
X74547618Y-64261905D01*
X74595237Y-64357143D01*
X74642856Y-64404762D01*
X74738094Y-64452381D01*
X74833333Y-64452381D01*
X74928571Y-64404762D01*
X74976190Y-64357143D01*
X75023809Y-64261905D01*
X75071428Y-64071429D01*
X75071428Y-63833333D01*
X75023809Y-63642857D01*
X74976190Y-63547619D01*
X74928571Y-63500000D01*
X74833333Y-63452381D01*
X77023809Y-83404762D02*
X77119047Y-83452381D01*
X77309524Y-83452381D01*
X77404762Y-83404762D01*
X77452381Y-83357143D01*
X77500000Y-83261905D01*
X77500000Y-82976190D01*
X77452381Y-82880952D01*
X77404762Y-82833333D01*
X77309524Y-82785714D01*
X77119047Y-82785714D01*
X77023809Y-82833333D01*
X76690476Y-82452381D02*
X76071428Y-82452381D01*
X76404762Y-82833333D01*
X76261904Y-82833333D01*
X76166666Y-82880952D01*
X76119047Y-82928571D01*
X76071428Y-83023810D01*
X76071428Y-83261905D01*
X76119047Y-83357143D01*
X76166666Y-83404762D01*
X76261904Y-83452381D01*
X76547619Y-83452381D01*
X76642857Y-83404762D01*
X76690476Y-83357143D01*
X75642857Y-83452381D02*
X75642857Y-82785714D01*
X75642857Y-82976190D02*
X75595238Y-82880952D01*
X75547619Y-82833333D01*
X75452381Y-82785714D01*
X75357142Y-82785714D01*
X74833333Y-82452381D02*
X74738094Y-82452381D01*
X74642856Y-82500000D01*
X74595237Y-82547619D01*
X74547618Y-82642857D01*
X74499999Y-82833333D01*
X74499999Y-83071429D01*
X74547618Y-83261905D01*
X74595237Y-83357143D01*
X74642856Y-83404762D01*
X74738094Y-83452381D01*
X74833333Y-83452381D01*
X74928571Y-83404762D01*
X74976190Y-83357143D01*
X75023809Y-83261905D01*
X75071428Y-83071429D01*
X75071428Y-82833333D01*
X75023809Y-82642857D01*
X74976190Y-82547619D01*
X74928571Y-82500000D01*
X74833333Y-82452381D01*
X81773809Y-102404762D02*
X81869047Y-102452381D01*
X82059524Y-102452381D01*
X82154762Y-102404762D01*
X82202381Y-102357143D01*
X82250000Y-102261905D01*
X82250000Y-101976190D01*
X82202381Y-101880952D01*
X82154762Y-101833333D01*
X82059524Y-101785714D01*
X81869047Y-101785714D01*
X81773809Y-101833333D01*
X80916666Y-101785714D02*
X80916666Y-102452381D01*
X81154762Y-101404762D02*
X81392857Y-102119048D01*
X80773809Y-102119048D01*
X80392857Y-102452381D02*
X80392857Y-101785714D01*
X80392857Y-101976190D02*
X80345238Y-101880952D01*
X80297619Y-101833333D01*
X80202381Y-101785714D01*
X80107142Y-101785714D01*
X79583333Y-101452381D02*
X79488094Y-101452381D01*
X79392856Y-101500000D01*
X79345237Y-101547619D01*
X79297618Y-101642857D01*
X79249999Y-101833333D01*
X79249999Y-102071429D01*
X79297618Y-102261905D01*
X79345237Y-102357143D01*
X79392856Y-102404762D01*
X79488094Y-102452381D01*
X79583333Y-102452381D01*
X79678571Y-102404762D01*
X79726190Y-102357143D01*
X79773809Y-102261905D01*
X79821428Y-102071429D01*
X79821428Y-101833333D01*
X79773809Y-101642857D01*
X79726190Y-101547619D01*
X79678571Y-101500000D01*
X79583333Y-101452381D01*
D10*
X196604846Y-125561173D02*
X196393537Y-126014327D01*
X196816155Y-125108019D02*
X197027464Y-124654865D01*
X196816155Y-125108019D02*
X197058000Y-125772482D01*
X197058000Y-125772482D02*
X196151692Y-125349864D01*
X196151692Y-125349864D02*
X196816155Y-125108019D01*
X196363001Y-124896710D02*
X197269309Y-125319328D01*
D11*
X178789666Y-126853206D02*
X186396794Y-110539666D01*
X186396794Y-110539666D02*
X202710334Y-118146794D01*
X202710334Y-118146794D02*
X195103206Y-134460334D01*
X195103206Y-134460334D02*
X178789666Y-126853206D01*
D10*
X213824694Y-133590920D02*
X213613385Y-134044074D01*
X214036003Y-133137766D02*
X214247312Y-132684612D01*
X214036003Y-133137766D02*
X214277848Y-133802229D01*
X214277848Y-133802229D02*
X213371540Y-133379611D01*
X213371540Y-133379611D02*
X214036003Y-133137766D01*
X213582849Y-132926457D02*
X214489157Y-133349075D01*
D11*
X196009514Y-134882953D02*
X203616642Y-118569413D01*
X203616642Y-118569413D02*
X219930182Y-126176541D01*
X219930182Y-126176541D02*
X212323054Y-142490081D01*
X212323054Y-142490081D02*
X196009514Y-134882953D01*
D10*
X218113649Y-153024264D02*
X217660495Y-152812955D01*
X218566803Y-153235573D02*
X219019957Y-153446882D01*
X218566803Y-153235573D02*
X217902340Y-153477418D01*
X217902340Y-153477418D02*
X218324958Y-152571110D01*
X218324958Y-152571110D02*
X218566803Y-153235573D01*
X218778112Y-152782419D02*
X218355494Y-153688727D01*
D11*
X216821616Y-135209084D02*
X233135156Y-142816212D01*
X233135156Y-142816212D02*
X225528028Y-159129752D01*
X225528028Y-159129752D02*
X209214488Y-151522624D01*
X209214488Y-151522624D02*
X216821616Y-135209084D01*
D10*
X226143396Y-135804416D02*
X225690242Y-135593107D01*
X226596550Y-136015725D02*
X227049704Y-136227034D01*
X226596550Y-136015725D02*
X225932087Y-136257570D01*
X225932087Y-136257570D02*
X226354705Y-135351262D01*
X226354705Y-135351262D02*
X226596550Y-136015725D01*
X226807859Y-135562571D02*
X226385241Y-136468879D01*
D11*
X224851363Y-117989236D02*
X241164903Y-125596364D01*
X241164903Y-125596364D02*
X233557775Y-141909904D01*
X233557775Y-141909904D02*
X217244235Y-134302776D01*
X217244235Y-134302776D02*
X224851363Y-117989236D01*
D10*
X234173143Y-118584568D02*
X233719989Y-118373259D01*
X234626297Y-118795877D02*
X235079451Y-119007186D01*
X234626297Y-118795877D02*
X233961834Y-119037722D01*
X233961834Y-119037722D02*
X234384452Y-118131414D01*
X234384452Y-118131414D02*
X234626297Y-118795877D01*
X234837606Y-118342723D02*
X234414988Y-119249031D01*
D11*
X232881110Y-100769388D02*
X249194650Y-108376516D01*
X249194650Y-108376516D02*
X241587522Y-124690056D01*
X241587522Y-124690056D02*
X225273982Y-117082928D01*
X225273982Y-117082928D02*
X232881110Y-100769388D01*
D10*
X216953295Y-110554821D02*
X216500141Y-110343512D01*
X217406449Y-110766130D02*
X217859603Y-110977439D01*
X217406449Y-110766130D02*
X216741986Y-111007975D01*
X216741986Y-111007975D02*
X217164604Y-110101667D01*
X217164604Y-110101667D02*
X217406449Y-110766130D01*
X217617758Y-110312976D02*
X217195140Y-111219284D01*
D11*
X215661262Y-92739641D02*
X231974802Y-100346769D01*
X231974802Y-100346769D02*
X224367674Y-116660309D01*
X224367674Y-116660309D02*
X208054134Y-109053181D01*
X208054134Y-109053181D02*
X215661262Y-92739641D01*
D10*
X198450000Y-39100000D02*
X197950000Y-39100000D01*
X198950000Y-39100000D02*
X199450000Y-39100000D01*
X198950000Y-39100000D02*
X198450000Y-39600000D01*
X198450000Y-39600000D02*
X198450000Y-38600000D01*
X198450000Y-38600000D02*
X198950000Y-39100000D01*
X198950000Y-38600000D02*
X198950000Y-39600000D01*
D11*
X189750000Y-23500000D02*
X207750000Y-23500000D01*
X207750000Y-23500000D02*
X207750000Y-41500000D01*
X207750000Y-41500000D02*
X189750000Y-41500000D01*
X189750000Y-41500000D02*
X189750000Y-23500000D01*
D10*
X205350000Y-56550000D02*
X205350000Y-57050000D01*
X205350000Y-56050000D02*
X205350000Y-55550000D01*
X205350000Y-56050000D02*
X205850000Y-56550000D01*
X205850000Y-56550000D02*
X204850000Y-56550000D01*
X204850000Y-56550000D02*
X205350000Y-56050000D01*
X204850000Y-56050000D02*
X205850000Y-56050000D01*
D11*
X189750000Y-65250000D02*
X189750000Y-47250000D01*
X189750000Y-47250000D02*
X207750000Y-47250000D01*
X207750000Y-47250000D02*
X207750000Y-65250000D01*
X207750000Y-65250000D02*
X189750000Y-65250000D01*
D10*
X205350000Y-85050000D02*
X205350000Y-85550000D01*
X205350000Y-84550000D02*
X205350000Y-84050000D01*
X205350000Y-84550000D02*
X205850000Y-85050000D01*
X205850000Y-85050000D02*
X204850000Y-85050000D01*
X204850000Y-85050000D02*
X205350000Y-84550000D01*
X204850000Y-84550000D02*
X205850000Y-84550000D01*
D11*
X189750000Y-93750000D02*
X189750000Y-75750000D01*
X189750000Y-75750000D02*
X207750000Y-75750000D01*
X207750000Y-75750000D02*
X207750000Y-93750000D01*
X207750000Y-93750000D02*
X189750000Y-93750000D01*
D10*
X179450000Y-39100000D02*
X178950000Y-39100000D01*
X179950000Y-39100000D02*
X180450000Y-39100000D01*
X179950000Y-39100000D02*
X179450000Y-39600000D01*
X179450000Y-39600000D02*
X179450000Y-38600000D01*
X179450000Y-38600000D02*
X179950000Y-39100000D01*
X179950000Y-38600000D02*
X179950000Y-39600000D01*
D11*
X170750000Y-23500000D02*
X188750000Y-23500000D01*
X188750000Y-23500000D02*
X188750000Y-41500000D01*
X188750000Y-41500000D02*
X170750000Y-41500000D01*
X170750000Y-41500000D02*
X170750000Y-23500000D01*
D10*
X179450000Y-58100000D02*
X178950000Y-58100000D01*
X179950000Y-58100000D02*
X180450000Y-58100000D01*
X179950000Y-58100000D02*
X179450000Y-58600000D01*
X179450000Y-58600000D02*
X179450000Y-57600000D01*
X179450000Y-57600000D02*
X179950000Y-58100000D01*
X179950000Y-57600000D02*
X179950000Y-58600000D01*
D11*
X170750000Y-42500000D02*
X188750000Y-42500000D01*
X188750000Y-42500000D02*
X188750000Y-60500000D01*
X188750000Y-60500000D02*
X170750000Y-60500000D01*
X170750000Y-60500000D02*
X170750000Y-42500000D01*
D10*
X179450000Y-77100000D02*
X178950000Y-77100000D01*
X179950000Y-77100000D02*
X180450000Y-77100000D01*
X179950000Y-77100000D02*
X179450000Y-77600000D01*
X179450000Y-77600000D02*
X179450000Y-76600000D01*
X179450000Y-76600000D02*
X179950000Y-77100000D01*
X179950000Y-76600000D02*
X179950000Y-77600000D01*
D11*
X170750000Y-61500000D02*
X188750000Y-61500000D01*
X188750000Y-61500000D02*
X188750000Y-79500000D01*
X188750000Y-79500000D02*
X170750000Y-79500000D01*
X170750000Y-79500000D02*
X170750000Y-61500000D01*
D10*
X179450000Y-96100000D02*
X178950000Y-96100000D01*
X179950000Y-96100000D02*
X180450000Y-96100000D01*
X179950000Y-96100000D02*
X179450000Y-96600000D01*
X179450000Y-96600000D02*
X179450000Y-95600000D01*
X179450000Y-95600000D02*
X179950000Y-96100000D01*
X179950000Y-95600000D02*
X179950000Y-96600000D01*
D11*
X170750000Y-80500000D02*
X188750000Y-80500000D01*
X188750000Y-80500000D02*
X188750000Y-98500000D01*
X188750000Y-98500000D02*
X170750000Y-98500000D01*
X170750000Y-98500000D02*
X170750000Y-80500000D01*
D10*
X160450000Y-37600000D02*
X159950000Y-37600000D01*
X160950000Y-37600000D02*
X161450000Y-37600000D01*
X160950000Y-37600000D02*
X160450000Y-38100000D01*
X160450000Y-38100000D02*
X160450000Y-37100000D01*
X160450000Y-37100000D02*
X160950000Y-37600000D01*
X160950000Y-37100000D02*
X160950000Y-38100000D01*
D11*
X151750000Y-22000000D02*
X169750000Y-22000000D01*
X169750000Y-22000000D02*
X169750000Y-40000000D01*
X169750000Y-40000000D02*
X151750000Y-40000000D01*
X151750000Y-40000000D02*
X151750000Y-22000000D01*
D10*
X160450000Y-56600000D02*
X159950000Y-56600000D01*
X160950000Y-56600000D02*
X161450000Y-56600000D01*
X160950000Y-56600000D02*
X160450000Y-57100000D01*
X160450000Y-57100000D02*
X160450000Y-56100000D01*
X160450000Y-56100000D02*
X160950000Y-56600000D01*
X160950000Y-56100000D02*
X160950000Y-57100000D01*
D11*
X151750000Y-41000000D02*
X169750000Y-41000000D01*
X169750000Y-41000000D02*
X169750000Y-59000000D01*
X169750000Y-59000000D02*
X151750000Y-59000000D01*
X151750000Y-59000000D02*
X151750000Y-41000000D01*
D10*
X160450000Y-75600000D02*
X159950000Y-75600000D01*
X160950000Y-75600000D02*
X161450000Y-75600000D01*
X160950000Y-75600000D02*
X160450000Y-76100000D01*
X160450000Y-76100000D02*
X160450000Y-75100000D01*
X160450000Y-75100000D02*
X160950000Y-75600000D01*
X160950000Y-75100000D02*
X160950000Y-76100000D01*
D11*
X151750000Y-60000000D02*
X169750000Y-60000000D01*
X169750000Y-60000000D02*
X169750000Y-78000000D01*
X169750000Y-78000000D02*
X151750000Y-78000000D01*
X151750000Y-78000000D02*
X151750000Y-60000000D01*
D10*
X160450000Y-94600000D02*
X159950000Y-94600000D01*
X160950000Y-94600000D02*
X161450000Y-94600000D01*
X160950000Y-94600000D02*
X160450000Y-95100000D01*
X160450000Y-95100000D02*
X160450000Y-94100000D01*
X160450000Y-94100000D02*
X160950000Y-94600000D01*
X160950000Y-94100000D02*
X160950000Y-95100000D01*
D11*
X151750000Y-79000000D02*
X169750000Y-79000000D01*
X169750000Y-79000000D02*
X169750000Y-97000000D01*
X169750000Y-97000000D02*
X151750000Y-97000000D01*
X151750000Y-97000000D02*
X151750000Y-79000000D01*
D10*
X160450000Y-113600000D02*
X159950000Y-113600000D01*
X160950000Y-113600000D02*
X161450000Y-113600000D01*
X160950000Y-113600000D02*
X160450000Y-114100000D01*
X160450000Y-114100000D02*
X160450000Y-113100000D01*
X160450000Y-113100000D02*
X160950000Y-113600000D01*
X160950000Y-113100000D02*
X160950000Y-114100000D01*
D11*
X151750000Y-98000000D02*
X169750000Y-98000000D01*
X169750000Y-98000000D02*
X169750000Y-116000000D01*
X169750000Y-116000000D02*
X151750000Y-116000000D01*
X151750000Y-116000000D02*
X151750000Y-98000000D01*
D10*
X141450000Y-36100000D02*
X140950000Y-36100000D01*
X141950000Y-36100000D02*
X142450000Y-36100000D01*
X141950000Y-36100000D02*
X141450000Y-36600000D01*
X141450000Y-36600000D02*
X141450000Y-35600000D01*
X141450000Y-35600000D02*
X141950000Y-36100000D01*
X141950000Y-35600000D02*
X141950000Y-36600000D01*
D11*
X132750000Y-20500000D02*
X150750000Y-20500000D01*
X150750000Y-20500000D02*
X150750000Y-38500000D01*
X150750000Y-38500000D02*
X132750000Y-38500000D01*
X132750000Y-38500000D02*
X132750000Y-20500000D01*
D10*
X141450000Y-55100000D02*
X140950000Y-55100000D01*
X141950000Y-55100000D02*
X142450000Y-55100000D01*
X141950000Y-55100000D02*
X141450000Y-55600000D01*
X141450000Y-55600000D02*
X141450000Y-54600000D01*
X141450000Y-54600000D02*
X141950000Y-55100000D01*
X141950000Y-54600000D02*
X141950000Y-55600000D01*
D11*
X132750000Y-39500000D02*
X150750000Y-39500000D01*
X150750000Y-39500000D02*
X150750000Y-57500000D01*
X150750000Y-57500000D02*
X132750000Y-57500000D01*
X132750000Y-57500000D02*
X132750000Y-39500000D01*
D10*
X141450000Y-74100000D02*
X140950000Y-74100000D01*
X141950000Y-74100000D02*
X142450000Y-74100000D01*
X141950000Y-74100000D02*
X141450000Y-74600000D01*
X141450000Y-74600000D02*
X141450000Y-73600000D01*
X141450000Y-73600000D02*
X141950000Y-74100000D01*
X141950000Y-73600000D02*
X141950000Y-74600000D01*
D11*
X132750000Y-58500000D02*
X150750000Y-58500000D01*
X150750000Y-58500000D02*
X150750000Y-76500000D01*
X150750000Y-76500000D02*
X132750000Y-76500000D01*
X132750000Y-76500000D02*
X132750000Y-58500000D01*
D10*
X141450000Y-93100000D02*
X140950000Y-93100000D01*
X141950000Y-93100000D02*
X142450000Y-93100000D01*
X141950000Y-93100000D02*
X141450000Y-93600000D01*
X141450000Y-93600000D02*
X141450000Y-92600000D01*
X141450000Y-92600000D02*
X141950000Y-93100000D01*
X141950000Y-92600000D02*
X141950000Y-93600000D01*
D11*
X132750000Y-77500000D02*
X150750000Y-77500000D01*
X150750000Y-77500000D02*
X150750000Y-95500000D01*
X150750000Y-95500000D02*
X132750000Y-95500000D01*
X132750000Y-95500000D02*
X132750000Y-77500000D01*
D10*
X141450000Y-112100000D02*
X140950000Y-112100000D01*
X141950000Y-112100000D02*
X142450000Y-112100000D01*
X141950000Y-112100000D02*
X141450000Y-112600000D01*
X141450000Y-112600000D02*
X141450000Y-111600000D01*
X141450000Y-111600000D02*
X141950000Y-112100000D01*
X141950000Y-111600000D02*
X141950000Y-112600000D01*
D11*
X132750000Y-96500000D02*
X150750000Y-96500000D01*
X150750000Y-96500000D02*
X150750000Y-114500000D01*
X150750000Y-114500000D02*
X132750000Y-114500000D01*
X132750000Y-114500000D02*
X132750000Y-96500000D01*
D10*
X122450000Y-37600000D02*
X121950000Y-37600000D01*
X122950000Y-37600000D02*
X123450000Y-37600000D01*
X122950000Y-37600000D02*
X122450000Y-38100000D01*
X122450000Y-38100000D02*
X122450000Y-37100000D01*
X122450000Y-37100000D02*
X122950000Y-37600000D01*
X122950000Y-37100000D02*
X122950000Y-38100000D01*
D11*
X113750000Y-22000000D02*
X131750000Y-22000000D01*
X131750000Y-22000000D02*
X131750000Y-40000000D01*
X131750000Y-40000000D02*
X113750000Y-40000000D01*
X113750000Y-40000000D02*
X113750000Y-22000000D01*
D10*
X122450000Y-56600000D02*
X121950000Y-56600000D01*
X122950000Y-56600000D02*
X123450000Y-56600000D01*
X122950000Y-56600000D02*
X122450000Y-57100000D01*
X122450000Y-57100000D02*
X122450000Y-56100000D01*
X122450000Y-56100000D02*
X122950000Y-56600000D01*
X122950000Y-56100000D02*
X122950000Y-57100000D01*
D11*
X113750000Y-41000000D02*
X131750000Y-41000000D01*
X131750000Y-41000000D02*
X131750000Y-59000000D01*
X131750000Y-59000000D02*
X113750000Y-59000000D01*
X113750000Y-59000000D02*
X113750000Y-41000000D01*
D10*
X122450000Y-75600000D02*
X121950000Y-75600000D01*
X122950000Y-75600000D02*
X123450000Y-75600000D01*
X122950000Y-75600000D02*
X122450000Y-76100000D01*
X122450000Y-76100000D02*
X122450000Y-75100000D01*
X122450000Y-75100000D02*
X122950000Y-75600000D01*
X122950000Y-75100000D02*
X122950000Y-76100000D01*
D11*
X113750000Y-60000000D02*
X131750000Y-60000000D01*
X131750000Y-60000000D02*
X131750000Y-78000000D01*
X131750000Y-78000000D02*
X113750000Y-78000000D01*
X113750000Y-78000000D02*
X113750000Y-60000000D01*
D10*
X122450000Y-94600000D02*
X121950000Y-94600000D01*
X122950000Y-94600000D02*
X123450000Y-94600000D01*
X122950000Y-94600000D02*
X122450000Y-95100000D01*
X122450000Y-95100000D02*
X122450000Y-94100000D01*
X122450000Y-94100000D02*
X122950000Y-94600000D01*
X122950000Y-94100000D02*
X122950000Y-95100000D01*
D11*
X113750000Y-79000000D02*
X131750000Y-79000000D01*
X131750000Y-79000000D02*
X131750000Y-97000000D01*
X131750000Y-97000000D02*
X113750000Y-97000000D01*
X113750000Y-97000000D02*
X113750000Y-79000000D01*
D10*
X122450000Y-113600000D02*
X121950000Y-113600000D01*
X122950000Y-113600000D02*
X123450000Y-113600000D01*
X122950000Y-113600000D02*
X122450000Y-114100000D01*
X122450000Y-114100000D02*
X122450000Y-113100000D01*
X122450000Y-113100000D02*
X122950000Y-113600000D01*
X122950000Y-113100000D02*
X122950000Y-114100000D01*
D11*
X113750000Y-98000000D02*
X131750000Y-98000000D01*
X131750000Y-98000000D02*
X131750000Y-116000000D01*
X131750000Y-116000000D02*
X113750000Y-116000000D01*
X113750000Y-116000000D02*
X113750000Y-98000000D01*
D10*
X103450000Y-40600000D02*
X102950000Y-40600000D01*
X103950000Y-40600000D02*
X104450000Y-40600000D01*
X103950000Y-40600000D02*
X103450000Y-41100000D01*
X103450000Y-41100000D02*
X103450000Y-40100000D01*
X103450000Y-40100000D02*
X103950000Y-40600000D01*
X103950000Y-40100000D02*
X103950000Y-41100000D01*
D11*
X94750000Y-25000000D02*
X112750000Y-25000000D01*
X112750000Y-25000000D02*
X112750000Y-43000000D01*
X112750000Y-43000000D02*
X94750000Y-43000000D01*
X94750000Y-43000000D02*
X94750000Y-25000000D01*
D10*
X103450000Y-59600000D02*
X102950000Y-59600000D01*
X103950000Y-59600000D02*
X104450000Y-59600000D01*
X103950000Y-59600000D02*
X103450000Y-60100000D01*
X103450000Y-60100000D02*
X103450000Y-59100000D01*
X103450000Y-59100000D02*
X103950000Y-59600000D01*
X103950000Y-59100000D02*
X103950000Y-60100000D01*
D11*
X94750000Y-44000000D02*
X112750000Y-44000000D01*
X112750000Y-44000000D02*
X112750000Y-62000000D01*
X112750000Y-62000000D02*
X94750000Y-62000000D01*
X94750000Y-62000000D02*
X94750000Y-44000000D01*
D10*
X103450000Y-78600000D02*
X102950000Y-78600000D01*
X103950000Y-78600000D02*
X104450000Y-78600000D01*
X103950000Y-78600000D02*
X103450000Y-79100000D01*
X103450000Y-79100000D02*
X103450000Y-78100000D01*
X103450000Y-78100000D02*
X103950000Y-78600000D01*
X103950000Y-78100000D02*
X103950000Y-79100000D01*
D11*
X94750000Y-63000000D02*
X112750000Y-63000000D01*
X112750000Y-63000000D02*
X112750000Y-81000000D01*
X112750000Y-81000000D02*
X94750000Y-81000000D01*
X94750000Y-81000000D02*
X94750000Y-63000000D01*
D10*
X103450000Y-97600000D02*
X102950000Y-97600000D01*
X103950000Y-97600000D02*
X104450000Y-97600000D01*
X103950000Y-97600000D02*
X103450000Y-98100000D01*
X103450000Y-98100000D02*
X103450000Y-97100000D01*
X103450000Y-97100000D02*
X103950000Y-97600000D01*
X103950000Y-97100000D02*
X103950000Y-98100000D01*
D11*
X94750000Y-82000000D02*
X112750000Y-82000000D01*
X112750000Y-82000000D02*
X112750000Y-100000000D01*
X112750000Y-100000000D02*
X94750000Y-100000000D01*
X94750000Y-100000000D02*
X94750000Y-82000000D01*
D10*
X103450000Y-116600000D02*
X102950000Y-116600000D01*
X103950000Y-116600000D02*
X104450000Y-116600000D01*
X103950000Y-116600000D02*
X103450000Y-117100000D01*
X103450000Y-117100000D02*
X103450000Y-116100000D01*
X103450000Y-116100000D02*
X103950000Y-116600000D01*
X103950000Y-116100000D02*
X103950000Y-117100000D01*
D11*
X94750000Y-101000000D02*
X112750000Y-101000000D01*
X112750000Y-101000000D02*
X112750000Y-119000000D01*
X112750000Y-119000000D02*
X94750000Y-119000000D01*
X94750000Y-119000000D02*
X94750000Y-101000000D01*
D10*
X79700000Y-40600000D02*
X79200000Y-40600000D01*
X80200000Y-40600000D02*
X80700000Y-40600000D01*
X80200000Y-40600000D02*
X79700000Y-41100000D01*
X79700000Y-41100000D02*
X79700000Y-40100000D01*
X79700000Y-40100000D02*
X80200000Y-40600000D01*
X80200000Y-40100000D02*
X80200000Y-41100000D01*
D11*
X71000000Y-25000000D02*
X89000000Y-25000000D01*
X89000000Y-25000000D02*
X89000000Y-43000000D01*
X89000000Y-43000000D02*
X71000000Y-43000000D01*
X71000000Y-43000000D02*
X71000000Y-25000000D01*
D10*
X79700000Y-59600000D02*
X79200000Y-59600000D01*
X80200000Y-59600000D02*
X80700000Y-59600000D01*
X80200000Y-59600000D02*
X79700000Y-60100000D01*
X79700000Y-60100000D02*
X79700000Y-59100000D01*
X79700000Y-59100000D02*
X80200000Y-59600000D01*
X80200000Y-59100000D02*
X80200000Y-60100000D01*
D11*
X71000000Y-44000000D02*
X89000000Y-44000000D01*
X89000000Y-44000000D02*
X89000000Y-62000000D01*
X89000000Y-62000000D02*
X71000000Y-62000000D01*
X71000000Y-62000000D02*
X71000000Y-44000000D01*
D10*
X79700000Y-78600000D02*
X79200000Y-78600000D01*
X80200000Y-78600000D02*
X80700000Y-78600000D01*
X80200000Y-78600000D02*
X79700000Y-79100000D01*
X79700000Y-79100000D02*
X79700000Y-78100000D01*
X79700000Y-78100000D02*
X80200000Y-78600000D01*
X80200000Y-78100000D02*
X80200000Y-79100000D01*
D11*
X71000000Y-63000000D02*
X89000000Y-63000000D01*
X89000000Y-63000000D02*
X89000000Y-81000000D01*
X89000000Y-81000000D02*
X71000000Y-81000000D01*
X71000000Y-81000000D02*
X71000000Y-63000000D01*
D10*
X79700000Y-97600000D02*
X79200000Y-97600000D01*
X80200000Y-97600000D02*
X80700000Y-97600000D01*
X80200000Y-97600000D02*
X79700000Y-98100000D01*
X79700000Y-98100000D02*
X79700000Y-97100000D01*
X79700000Y-97100000D02*
X80200000Y-97600000D01*
X80200000Y-97100000D02*
X80200000Y-98100000D01*
D11*
X71000000Y-82000000D02*
X89000000Y-82000000D01*
X89000000Y-82000000D02*
X89000000Y-100000000D01*
X89000000Y-100000000D02*
X71000000Y-100000000D01*
X71000000Y-100000000D02*
X71000000Y-82000000D01*
D10*
X84450000Y-116600000D02*
X83950000Y-116600000D01*
X84950000Y-116600000D02*
X85450000Y-116600000D01*
X84950000Y-116600000D02*
X84450000Y-117100000D01*
X84450000Y-117100000D02*
X84450000Y-116100000D01*
X84450000Y-116100000D02*
X84950000Y-116600000D01*
X84950000Y-116100000D02*
X84950000Y-117100000D01*
D11*
X75750000Y-101000000D02*
X93750000Y-101000000D01*
X93750000Y-101000000D02*
X93750000Y-119000000D01*
X93750000Y-119000000D02*
X75750000Y-119000000D01*
X75750000Y-119000000D02*
X75750000Y-101000000D01*
%LPC*%
D10*
G36*
X194782777Y-123387474D02*
X193060792Y-122584499D01*
X193906029Y-120771884D01*
X195628014Y-121574859D01*
X194782777Y-123387474D01*
X194782777Y-123387474D01*
G37*
G36*
X193176827Y-126831444D02*
X191454842Y-126028469D01*
X192300079Y-124215854D01*
X194022064Y-125018829D01*
X193176827Y-126831444D01*
X193176827Y-126831444D01*
G37*
G36*
X196350274Y-124758370D02*
X194628289Y-123955395D01*
X195431264Y-122233410D01*
X197153249Y-123036385D01*
X196350274Y-124758370D01*
X196350274Y-124758370D01*
G37*
D12*
X194817318Y-125797912D03*
D10*
G36*
X197423724Y-122456348D02*
X195701739Y-121653373D01*
X196504714Y-119931388D01*
X198226699Y-120734363D01*
X197423724Y-122456348D01*
X197423724Y-122456348D01*
G37*
D12*
X193743868Y-128099933D03*
D10*
G36*
X200144460Y-123725048D02*
X198422475Y-122922073D01*
X199225450Y-121200088D01*
X200947435Y-122003063D01*
X200144460Y-123725048D01*
X200144460Y-123725048D01*
G37*
D12*
X196464604Y-129368633D03*
D10*
G36*
X199032266Y-125755226D02*
X197582173Y-125079037D01*
X198300624Y-123538314D01*
X199750717Y-124214503D01*
X199032266Y-125755226D01*
X199032266Y-125755226D01*
G37*
G36*
X197848935Y-128292888D02*
X196398842Y-127616699D01*
X197117293Y-126075976D01*
X198567386Y-126752165D01*
X197848935Y-128292888D01*
X197848935Y-128292888D01*
G37*
D13*
X190058154Y-117973517D03*
X186837803Y-124879582D03*
D14*
X187522478Y-118205997D02*
X187878244Y-118388837D01*
X185385992Y-122787706D02*
X185754738Y-122942712D01*
D15*
X187326792Y-129841093D03*
X194173208Y-115158907D03*
D10*
G36*
X212002625Y-131417221D02*
X210280640Y-130614246D01*
X211125877Y-128801631D01*
X212847862Y-129604606D01*
X212002625Y-131417221D01*
X212002625Y-131417221D01*
G37*
G36*
X210396675Y-134861191D02*
X208674690Y-134058216D01*
X209519927Y-132245601D01*
X211241912Y-133048576D01*
X210396675Y-134861191D01*
X210396675Y-134861191D01*
G37*
G36*
X213570122Y-132788117D02*
X211848137Y-131985142D01*
X212651112Y-130263157D01*
X214373097Y-131066132D01*
X213570122Y-132788117D01*
X213570122Y-132788117D01*
G37*
D12*
X212037166Y-133827659D03*
D10*
G36*
X214643572Y-130486095D02*
X212921587Y-129683120D01*
X213724562Y-127961135D01*
X215446547Y-128764110D01*
X214643572Y-130486095D01*
X214643572Y-130486095D01*
G37*
D12*
X210963716Y-136129680D03*
D10*
G36*
X217364308Y-131754795D02*
X215642323Y-130951820D01*
X216445298Y-129229835D01*
X218167283Y-130032810D01*
X217364308Y-131754795D01*
X217364308Y-131754795D01*
G37*
D12*
X213684452Y-137398380D03*
D10*
G36*
X216252114Y-133784973D02*
X214802021Y-133108784D01*
X215520472Y-131568061D01*
X216970565Y-132244250D01*
X216252114Y-133784973D01*
X216252114Y-133784973D01*
G37*
G36*
X215068783Y-136322635D02*
X213618690Y-135646446D01*
X214337141Y-134105723D01*
X215787234Y-134781912D01*
X215068783Y-136322635D01*
X215068783Y-136322635D01*
G37*
D13*
X207278002Y-126003264D03*
X204057651Y-132909329D03*
D14*
X204742326Y-126235744D02*
X205098092Y-126418584D01*
X202605840Y-130817453D02*
X202974586Y-130972459D01*
D15*
X204546640Y-137870840D03*
X211393056Y-123188654D03*
D10*
G36*
X220287348Y-151202195D02*
X221090323Y-149480210D01*
X222902938Y-150325447D01*
X222099963Y-152047432D01*
X220287348Y-151202195D01*
X220287348Y-151202195D01*
G37*
G36*
X216843378Y-149596245D02*
X217646353Y-147874260D01*
X219458968Y-148719497D01*
X218655993Y-150441482D01*
X216843378Y-149596245D01*
X216843378Y-149596245D01*
G37*
G36*
X218916452Y-152769692D02*
X219719427Y-151047707D01*
X221441412Y-151850682D01*
X220638437Y-153572667D01*
X218916452Y-152769692D01*
X218916452Y-152769692D01*
G37*
D12*
X217876910Y-151236736D03*
D10*
G36*
X221218474Y-153843142D02*
X222021449Y-152121157D01*
X223743434Y-152924132D01*
X222940459Y-154646117D01*
X221218474Y-153843142D01*
X221218474Y-153843142D01*
G37*
D12*
X215574889Y-150163286D03*
D10*
G36*
X219949774Y-156563878D02*
X220752749Y-154841893D01*
X222474734Y-155644868D01*
X221671759Y-157366853D01*
X219949774Y-156563878D01*
X219949774Y-156563878D01*
G37*
D12*
X214306189Y-152884022D03*
D10*
G36*
X217919596Y-155451684D02*
X218595785Y-154001591D01*
X220136508Y-154720042D01*
X219460319Y-156170135D01*
X217919596Y-155451684D01*
X217919596Y-155451684D01*
G37*
G36*
X215381934Y-154268353D02*
X216058123Y-152818260D01*
X217598846Y-153536711D01*
X216922657Y-154986804D01*
X215381934Y-154268353D01*
X215381934Y-154268353D01*
G37*
D13*
X225701305Y-146477572D03*
X218795240Y-143257221D03*
D14*
X225468825Y-143941896D02*
X225285985Y-144297662D01*
X220887116Y-141805410D02*
X220732110Y-142174156D01*
D15*
X213833729Y-143746210D03*
X228515915Y-150592626D03*
D10*
G36*
X228317095Y-133982347D02*
X229120070Y-132260362D01*
X230932685Y-133105599D01*
X230129710Y-134827584D01*
X228317095Y-133982347D01*
X228317095Y-133982347D01*
G37*
G36*
X224873125Y-132376397D02*
X225676100Y-130654412D01*
X227488715Y-131499649D01*
X226685740Y-133221634D01*
X224873125Y-132376397D01*
X224873125Y-132376397D01*
G37*
G36*
X226946199Y-135549844D02*
X227749174Y-133827859D01*
X229471159Y-134630834D01*
X228668184Y-136352819D01*
X226946199Y-135549844D01*
X226946199Y-135549844D01*
G37*
D12*
X225906657Y-134016888D03*
D10*
G36*
X229248221Y-136623294D02*
X230051196Y-134901309D01*
X231773181Y-135704284D01*
X230970206Y-137426269D01*
X229248221Y-136623294D01*
X229248221Y-136623294D01*
G37*
D12*
X223604636Y-132943438D03*
D10*
G36*
X227979521Y-139344030D02*
X228782496Y-137622045D01*
X230504481Y-138425020D01*
X229701506Y-140147005D01*
X227979521Y-139344030D01*
X227979521Y-139344030D01*
G37*
D12*
X222335936Y-135664174D03*
D10*
G36*
X225949343Y-138231836D02*
X226625532Y-136781743D01*
X228166255Y-137500194D01*
X227490066Y-138950287D01*
X225949343Y-138231836D01*
X225949343Y-138231836D01*
G37*
G36*
X223411681Y-137048505D02*
X224087870Y-135598412D01*
X225628593Y-136316863D01*
X224952404Y-137766956D01*
X223411681Y-137048505D01*
X223411681Y-137048505D01*
G37*
D13*
X233731052Y-129257724D03*
X226824987Y-126037373D03*
D14*
X233498572Y-126722048D02*
X233315732Y-127077814D01*
X228916863Y-124585562D02*
X228761857Y-124954308D01*
D15*
X221863476Y-126526362D03*
X236545662Y-133372778D03*
D10*
G36*
X236346842Y-116762499D02*
X237149817Y-115040514D01*
X238962432Y-115885751D01*
X238159457Y-117607736D01*
X236346842Y-116762499D01*
X236346842Y-116762499D01*
G37*
G36*
X232902872Y-115156549D02*
X233705847Y-113434564D01*
X235518462Y-114279801D01*
X234715487Y-116001786D01*
X232902872Y-115156549D01*
X232902872Y-115156549D01*
G37*
G36*
X234975946Y-118329996D02*
X235778921Y-116608011D01*
X237500906Y-117410986D01*
X236697931Y-119132971D01*
X234975946Y-118329996D01*
X234975946Y-118329996D01*
G37*
D12*
X233936404Y-116797040D03*
D10*
G36*
X237277968Y-119403446D02*
X238080943Y-117681461D01*
X239802928Y-118484436D01*
X238999953Y-120206421D01*
X237277968Y-119403446D01*
X237277968Y-119403446D01*
G37*
D12*
X231634383Y-115723590D03*
D10*
G36*
X236009268Y-122124182D02*
X236812243Y-120402197D01*
X238534228Y-121205172D01*
X237731253Y-122927157D01*
X236009268Y-122124182D01*
X236009268Y-122124182D01*
G37*
D12*
X230365683Y-118444326D03*
D10*
G36*
X233979090Y-121011988D02*
X234655279Y-119561895D01*
X236196002Y-120280346D01*
X235519813Y-121730439D01*
X233979090Y-121011988D01*
X233979090Y-121011988D01*
G37*
G36*
X231441428Y-119828657D02*
X232117617Y-118378564D01*
X233658340Y-119097015D01*
X232982151Y-120547108D01*
X231441428Y-119828657D01*
X231441428Y-119828657D01*
G37*
D13*
X241760799Y-112037876D03*
X234854734Y-108817525D03*
D14*
X241528319Y-109502200D02*
X241345479Y-109857966D01*
X236946610Y-107365714D02*
X236791604Y-107734460D01*
D15*
X229893223Y-109306514D03*
X244575409Y-116152930D03*
D10*
G36*
X219126994Y-108732752D02*
X219929969Y-107010767D01*
X221742584Y-107856004D01*
X220939609Y-109577989D01*
X219126994Y-108732752D01*
X219126994Y-108732752D01*
G37*
G36*
X215683024Y-107126802D02*
X216485999Y-105404817D01*
X218298614Y-106250054D01*
X217495639Y-107972039D01*
X215683024Y-107126802D01*
X215683024Y-107126802D01*
G37*
G36*
X217756098Y-110300249D02*
X218559073Y-108578264D01*
X220281058Y-109381239D01*
X219478083Y-111103224D01*
X217756098Y-110300249D01*
X217756098Y-110300249D01*
G37*
D12*
X216716556Y-108767293D03*
D10*
G36*
X220058120Y-111373699D02*
X220861095Y-109651714D01*
X222583080Y-110454689D01*
X221780105Y-112176674D01*
X220058120Y-111373699D01*
X220058120Y-111373699D01*
G37*
D12*
X214414535Y-107693843D03*
D10*
G36*
X218789420Y-114094435D02*
X219592395Y-112372450D01*
X221314380Y-113175425D01*
X220511405Y-114897410D01*
X218789420Y-114094435D01*
X218789420Y-114094435D01*
G37*
D12*
X213145835Y-110414579D03*
D10*
G36*
X216759242Y-112982241D02*
X217435431Y-111532148D01*
X218976154Y-112250599D01*
X218299965Y-113700692D01*
X216759242Y-112982241D01*
X216759242Y-112982241D01*
G37*
G36*
X214221580Y-111798910D02*
X214897769Y-110348817D01*
X216438492Y-111067268D01*
X215762303Y-112517361D01*
X214221580Y-111798910D01*
X214221580Y-111798910D01*
G37*
D13*
X224540951Y-104008129D03*
X217634886Y-100787778D03*
D14*
X224308471Y-101472453D02*
X224125631Y-101828219D01*
X219726762Y-99335967D02*
X219571756Y-99704713D01*
D15*
X212673375Y-101276767D03*
X227355561Y-108123183D03*
D16*
X200650000Y-35580000D03*
X196850000Y-35580000D03*
D17*
X200020000Y-37580000D03*
D12*
X197480000Y-37580000D03*
D17*
X202560000Y-37580000D03*
D12*
X194940000Y-37580000D03*
D17*
X202560000Y-40582000D03*
D12*
X194940000Y-40582000D03*
D18*
X200150000Y-40582000D03*
X197350000Y-40582000D03*
D13*
X202560000Y-29960000D03*
X194940000Y-29960000D03*
D14*
X201277678Y-27760147D02*
X201262322Y-28159853D01*
X196222322Y-27760147D02*
X196237678Y-28159853D01*
D15*
X190650000Y-32500000D03*
X206850000Y-32500000D03*
D19*
X201830000Y-54350000D03*
X201830000Y-58150000D03*
D17*
X203830000Y-54980000D03*
D12*
X203830000Y-57520000D03*
D17*
X203830000Y-52440000D03*
D12*
X203830000Y-60060000D03*
D17*
X206832000Y-52440000D03*
D12*
X206832000Y-60060000D03*
D20*
X206832000Y-54850000D03*
X206832000Y-57650000D03*
D13*
X196210000Y-52440000D03*
X196210000Y-60060000D03*
D14*
X194010147Y-53722322D02*
X194409853Y-53737678D01*
X194010147Y-58777678D02*
X194409853Y-58762322D01*
D15*
X198750000Y-64350000D03*
X198750000Y-48150000D03*
D19*
X201830000Y-82850000D03*
X201830000Y-86650000D03*
D17*
X203830000Y-83480000D03*
D12*
X203830000Y-86020000D03*
D17*
X203830000Y-80940000D03*
D12*
X203830000Y-88560000D03*
D17*
X206832000Y-80940000D03*
D12*
X206832000Y-88560000D03*
D20*
X206832000Y-83350000D03*
X206832000Y-86150000D03*
D13*
X196210000Y-80940000D03*
X196210000Y-88560000D03*
D14*
X194010147Y-82222322D02*
X194409853Y-82237678D01*
X194010147Y-87277678D02*
X194409853Y-87262322D01*
D15*
X198750000Y-92850000D03*
X198750000Y-76650000D03*
D16*
X181650000Y-35580000D03*
X177850000Y-35580000D03*
D17*
X181020000Y-37580000D03*
D12*
X178480000Y-37580000D03*
D17*
X183560000Y-37580000D03*
D12*
X175940000Y-37580000D03*
D17*
X183560000Y-40582000D03*
D12*
X175940000Y-40582000D03*
D18*
X181150000Y-40582000D03*
X178350000Y-40582000D03*
D13*
X183560000Y-29960000D03*
X175940000Y-29960000D03*
D14*
X182277678Y-27760147D02*
X182262322Y-28159853D01*
X177222322Y-27760147D02*
X177237678Y-28159853D01*
D15*
X171650000Y-32500000D03*
X187850000Y-32500000D03*
D16*
X181650000Y-54580000D03*
X177850000Y-54580000D03*
D17*
X181020000Y-56580000D03*
D12*
X178480000Y-56580000D03*
D17*
X183560000Y-56580000D03*
D12*
X175940000Y-56580000D03*
D17*
X183560000Y-59582000D03*
D12*
X175940000Y-59582000D03*
D18*
X181150000Y-59582000D03*
X178350000Y-59582000D03*
D13*
X183560000Y-48960000D03*
X175940000Y-48960000D03*
D14*
X182277678Y-46760147D02*
X182262322Y-47159853D01*
X177222322Y-46760147D02*
X177237678Y-47159853D01*
D15*
X171650000Y-51500000D03*
X187850000Y-51500000D03*
D16*
X181650000Y-73580000D03*
X177850000Y-73580000D03*
D17*
X181020000Y-75580000D03*
D12*
X178480000Y-75580000D03*
D17*
X183560000Y-75580000D03*
D12*
X175940000Y-75580000D03*
D17*
X183560000Y-78582000D03*
D12*
X175940000Y-78582000D03*
D18*
X181150000Y-78582000D03*
X178350000Y-78582000D03*
D13*
X183560000Y-67960000D03*
X175940000Y-67960000D03*
D14*
X182277678Y-65760147D02*
X182262322Y-66159853D01*
X177222322Y-65760147D02*
X177237678Y-66159853D01*
D15*
X171650000Y-70500000D03*
X187850000Y-70500000D03*
D16*
X181650000Y-92580000D03*
X177850000Y-92580000D03*
D17*
X181020000Y-94580000D03*
D12*
X178480000Y-94580000D03*
D17*
X183560000Y-94580000D03*
D12*
X175940000Y-94580000D03*
D17*
X183560000Y-97582000D03*
D12*
X175940000Y-97582000D03*
D18*
X181150000Y-97582000D03*
X178350000Y-97582000D03*
D13*
X183560000Y-86960000D03*
X175940000Y-86960000D03*
D14*
X182277678Y-84760147D02*
X182262322Y-85159853D01*
X177222322Y-84760147D02*
X177237678Y-85159853D01*
D15*
X171650000Y-89500000D03*
X187850000Y-89500000D03*
D16*
X162650000Y-34080000D03*
X158850000Y-34080000D03*
D17*
X162020000Y-36080000D03*
D12*
X159480000Y-36080000D03*
D17*
X164560000Y-36080000D03*
D12*
X156940000Y-36080000D03*
D17*
X164560000Y-39082000D03*
D12*
X156940000Y-39082000D03*
D18*
X162150000Y-39082000D03*
X159350000Y-39082000D03*
D13*
X164560000Y-28460000D03*
X156940000Y-28460000D03*
D14*
X163277678Y-26260147D02*
X163262322Y-26659853D01*
X158222322Y-26260147D02*
X158237678Y-26659853D01*
D15*
X152650000Y-31000000D03*
X168850000Y-31000000D03*
D16*
X162650000Y-53080000D03*
X158850000Y-53080000D03*
D17*
X162020000Y-55080000D03*
D12*
X159480000Y-55080000D03*
D17*
X164560000Y-55080000D03*
D12*
X156940000Y-55080000D03*
D17*
X164560000Y-58082000D03*
D12*
X156940000Y-58082000D03*
D18*
X162150000Y-58082000D03*
X159350000Y-58082000D03*
D13*
X164560000Y-47460000D03*
X156940000Y-47460000D03*
D14*
X163277678Y-45260147D02*
X163262322Y-45659853D01*
X158222322Y-45260147D02*
X158237678Y-45659853D01*
D15*
X152650000Y-50000000D03*
X168850000Y-50000000D03*
D16*
X162650000Y-72080000D03*
X158850000Y-72080000D03*
D17*
X162020000Y-74080000D03*
D12*
X159480000Y-74080000D03*
D17*
X164560000Y-74080000D03*
D12*
X156940000Y-74080000D03*
D17*
X164560000Y-77082000D03*
D12*
X156940000Y-77082000D03*
D18*
X162150000Y-77082000D03*
X159350000Y-77082000D03*
D13*
X164560000Y-66460000D03*
X156940000Y-66460000D03*
D14*
X163277678Y-64260147D02*
X163262322Y-64659853D01*
X158222322Y-64260147D02*
X158237678Y-64659853D01*
D15*
X152650000Y-69000000D03*
X168850000Y-69000000D03*
D16*
X162650000Y-91080000D03*
X158850000Y-91080000D03*
D17*
X162020000Y-93080000D03*
D12*
X159480000Y-93080000D03*
D17*
X164560000Y-93080000D03*
D12*
X156940000Y-93080000D03*
D17*
X164560000Y-96082000D03*
D12*
X156940000Y-96082000D03*
D18*
X162150000Y-96082000D03*
X159350000Y-96082000D03*
D13*
X164560000Y-85460000D03*
X156940000Y-85460000D03*
D14*
X163277678Y-83260147D02*
X163262322Y-83659853D01*
X158222322Y-83260147D02*
X158237678Y-83659853D01*
D15*
X152650000Y-88000000D03*
X168850000Y-88000000D03*
D16*
X162650000Y-110080000D03*
X158850000Y-110080000D03*
D17*
X162020000Y-112080000D03*
D12*
X159480000Y-112080000D03*
D17*
X164560000Y-112080000D03*
D12*
X156940000Y-112080000D03*
D17*
X164560000Y-115082000D03*
D12*
X156940000Y-115082000D03*
D18*
X162150000Y-115082000D03*
X159350000Y-115082000D03*
D13*
X164560000Y-104460000D03*
X156940000Y-104460000D03*
D14*
X163277678Y-102260147D02*
X163262322Y-102659853D01*
X158222322Y-102260147D02*
X158237678Y-102659853D01*
D15*
X152650000Y-107000000D03*
X168850000Y-107000000D03*
D16*
X143650000Y-32580000D03*
X139850000Y-32580000D03*
D17*
X143020000Y-34580000D03*
D12*
X140480000Y-34580000D03*
D17*
X145560000Y-34580000D03*
D12*
X137940000Y-34580000D03*
D17*
X145560000Y-37582000D03*
D12*
X137940000Y-37582000D03*
D18*
X143150000Y-37582000D03*
X140350000Y-37582000D03*
D13*
X145560000Y-26960000D03*
X137940000Y-26960000D03*
D14*
X144277678Y-24760147D02*
X144262322Y-25159853D01*
X139222322Y-24760147D02*
X139237678Y-25159853D01*
D15*
X133650000Y-29500000D03*
X149850000Y-29500000D03*
D16*
X143650000Y-51580000D03*
X139850000Y-51580000D03*
D17*
X143020000Y-53580000D03*
D12*
X140480000Y-53580000D03*
D17*
X145560000Y-53580000D03*
D12*
X137940000Y-53580000D03*
D17*
X145560000Y-56582000D03*
D12*
X137940000Y-56582000D03*
D18*
X143150000Y-56582000D03*
X140350000Y-56582000D03*
D13*
X145560000Y-45960000D03*
X137940000Y-45960000D03*
D14*
X144277678Y-43760147D02*
X144262322Y-44159853D01*
X139222322Y-43760147D02*
X139237678Y-44159853D01*
D15*
X133650000Y-48500000D03*
X149850000Y-48500000D03*
D16*
X143650000Y-70580000D03*
X139850000Y-70580000D03*
D17*
X143020000Y-72580000D03*
D12*
X140480000Y-72580000D03*
D17*
X145560000Y-72580000D03*
D12*
X137940000Y-72580000D03*
D17*
X145560000Y-75582000D03*
D12*
X137940000Y-75582000D03*
D18*
X143150000Y-75582000D03*
X140350000Y-75582000D03*
D13*
X145560000Y-64960000D03*
X137940000Y-64960000D03*
D14*
X144277678Y-62760147D02*
X144262322Y-63159853D01*
X139222322Y-62760147D02*
X139237678Y-63159853D01*
D15*
X133650000Y-67500000D03*
X149850000Y-67500000D03*
D16*
X143650000Y-89580000D03*
X139850000Y-89580000D03*
D17*
X143020000Y-91580000D03*
D12*
X140480000Y-91580000D03*
D17*
X145560000Y-91580000D03*
D12*
X137940000Y-91580000D03*
D17*
X145560000Y-94582000D03*
D12*
X137940000Y-94582000D03*
D18*
X143150000Y-94582000D03*
X140350000Y-94582000D03*
D13*
X145560000Y-83960000D03*
X137940000Y-83960000D03*
D14*
X144277678Y-81760147D02*
X144262322Y-82159853D01*
X139222322Y-81760147D02*
X139237678Y-82159853D01*
D15*
X133650000Y-86500000D03*
X149850000Y-86500000D03*
D16*
X143650000Y-108580000D03*
X139850000Y-108580000D03*
D17*
X143020000Y-110580000D03*
D12*
X140480000Y-110580000D03*
D17*
X145560000Y-110580000D03*
D12*
X137940000Y-110580000D03*
D17*
X145560000Y-113582000D03*
D12*
X137940000Y-113582000D03*
D18*
X143150000Y-113582000D03*
X140350000Y-113582000D03*
D13*
X145560000Y-102960000D03*
X137940000Y-102960000D03*
D14*
X144277678Y-100760147D02*
X144262322Y-101159853D01*
X139222322Y-100760147D02*
X139237678Y-101159853D01*
D15*
X133650000Y-105500000D03*
X149850000Y-105500000D03*
D16*
X124650000Y-34080000D03*
X120850000Y-34080000D03*
D17*
X124020000Y-36080000D03*
D12*
X121480000Y-36080000D03*
D17*
X126560000Y-36080000D03*
D12*
X118940000Y-36080000D03*
D17*
X126560000Y-39082000D03*
D12*
X118940000Y-39082000D03*
D18*
X124150000Y-39082000D03*
X121350000Y-39082000D03*
D13*
X126560000Y-28460000D03*
X118940000Y-28460000D03*
D14*
X125277678Y-26260147D02*
X125262322Y-26659853D01*
X120222322Y-26260147D02*
X120237678Y-26659853D01*
D15*
X114650000Y-31000000D03*
X130850000Y-31000000D03*
D16*
X124650000Y-53080000D03*
X120850000Y-53080000D03*
D17*
X124020000Y-55080000D03*
D12*
X121480000Y-55080000D03*
D17*
X126560000Y-55080000D03*
D12*
X118940000Y-55080000D03*
D17*
X126560000Y-58082000D03*
D12*
X118940000Y-58082000D03*
D18*
X124150000Y-58082000D03*
X121350000Y-58082000D03*
D13*
X126560000Y-47460000D03*
X118940000Y-47460000D03*
D14*
X125277678Y-45260147D02*
X125262322Y-45659853D01*
X120222322Y-45260147D02*
X120237678Y-45659853D01*
D15*
X114650000Y-50000000D03*
X130850000Y-50000000D03*
D16*
X124650000Y-72080000D03*
X120850000Y-72080000D03*
D17*
X124020000Y-74080000D03*
D12*
X121480000Y-74080000D03*
D17*
X126560000Y-74080000D03*
D12*
X118940000Y-74080000D03*
D17*
X126560000Y-77082000D03*
D12*
X118940000Y-77082000D03*
D18*
X124150000Y-77082000D03*
X121350000Y-77082000D03*
D13*
X126560000Y-66460000D03*
X118940000Y-66460000D03*
D14*
X125277678Y-64260147D02*
X125262322Y-64659853D01*
X120222322Y-64260147D02*
X120237678Y-64659853D01*
D15*
X114650000Y-69000000D03*
X130850000Y-69000000D03*
D16*
X124650000Y-91080000D03*
X120850000Y-91080000D03*
D17*
X124020000Y-93080000D03*
D12*
X121480000Y-93080000D03*
D17*
X126560000Y-93080000D03*
D12*
X118940000Y-93080000D03*
D17*
X126560000Y-96082000D03*
D12*
X118940000Y-96082000D03*
D18*
X124150000Y-96082000D03*
X121350000Y-96082000D03*
D13*
X126560000Y-85460000D03*
X118940000Y-85460000D03*
D14*
X125277678Y-83260147D02*
X125262322Y-83659853D01*
X120222322Y-83260147D02*
X120237678Y-83659853D01*
D15*
X114650000Y-88000000D03*
X130850000Y-88000000D03*
D16*
X124650000Y-110080000D03*
X120850000Y-110080000D03*
D17*
X124020000Y-112080000D03*
D12*
X121480000Y-112080000D03*
D17*
X126560000Y-112080000D03*
D12*
X118940000Y-112080000D03*
D17*
X126560000Y-115082000D03*
D12*
X118940000Y-115082000D03*
D18*
X124150000Y-115082000D03*
X121350000Y-115082000D03*
D13*
X126560000Y-104460000D03*
X118940000Y-104460000D03*
D14*
X125277678Y-102260147D02*
X125262322Y-102659853D01*
X120222322Y-102260147D02*
X120237678Y-102659853D01*
D15*
X114650000Y-107000000D03*
X130850000Y-107000000D03*
D16*
X105650000Y-37080000D03*
X101850000Y-37080000D03*
D17*
X105020000Y-39080000D03*
D12*
X102480000Y-39080000D03*
D17*
X107560000Y-39080000D03*
D12*
X99940000Y-39080000D03*
D17*
X107560000Y-42082000D03*
D12*
X99940000Y-42082000D03*
D18*
X105150000Y-42082000D03*
X102350000Y-42082000D03*
D13*
X107560000Y-31460000D03*
X99940000Y-31460000D03*
D14*
X106277678Y-29260147D02*
X106262322Y-29659853D01*
X101222322Y-29260147D02*
X101237678Y-29659853D01*
D15*
X95650000Y-34000000D03*
X111850000Y-34000000D03*
D16*
X105650000Y-56080000D03*
X101850000Y-56080000D03*
D17*
X105020000Y-58080000D03*
D12*
X102480000Y-58080000D03*
D17*
X107560000Y-58080000D03*
D12*
X99940000Y-58080000D03*
D17*
X107560000Y-61082000D03*
D12*
X99940000Y-61082000D03*
D18*
X105150000Y-61082000D03*
X102350000Y-61082000D03*
D13*
X107560000Y-50460000D03*
X99940000Y-50460000D03*
D14*
X106277678Y-48260147D02*
X106262322Y-48659853D01*
X101222322Y-48260147D02*
X101237678Y-48659853D01*
D15*
X95650000Y-53000000D03*
X111850000Y-53000000D03*
D16*
X105650000Y-75080000D03*
X101850000Y-75080000D03*
D17*
X105020000Y-77080000D03*
D12*
X102480000Y-77080000D03*
D17*
X107560000Y-77080000D03*
D12*
X99940000Y-77080000D03*
D17*
X107560000Y-80082000D03*
D12*
X99940000Y-80082000D03*
D18*
X105150000Y-80082000D03*
X102350000Y-80082000D03*
D13*
X107560000Y-69460000D03*
X99940000Y-69460000D03*
D14*
X106277678Y-67260147D02*
X106262322Y-67659853D01*
X101222322Y-67260147D02*
X101237678Y-67659853D01*
D15*
X95650000Y-72000000D03*
X111850000Y-72000000D03*
D16*
X105650000Y-94080000D03*
X101850000Y-94080000D03*
D17*
X105020000Y-96080000D03*
D12*
X102480000Y-96080000D03*
D17*
X107560000Y-96080000D03*
D12*
X99940000Y-96080000D03*
D17*
X107560000Y-99082000D03*
D12*
X99940000Y-99082000D03*
D18*
X105150000Y-99082000D03*
X102350000Y-99082000D03*
D13*
X107560000Y-88460000D03*
X99940000Y-88460000D03*
D14*
X106277678Y-86260147D02*
X106262322Y-86659853D01*
X101222322Y-86260147D02*
X101237678Y-86659853D01*
D15*
X95650000Y-91000000D03*
X111850000Y-91000000D03*
D16*
X105650000Y-113080000D03*
X101850000Y-113080000D03*
D17*
X105020000Y-115080000D03*
D12*
X102480000Y-115080000D03*
D17*
X107560000Y-115080000D03*
D12*
X99940000Y-115080000D03*
D17*
X107560000Y-118082000D03*
D12*
X99940000Y-118082000D03*
D18*
X105150000Y-118082000D03*
X102350000Y-118082000D03*
D13*
X107560000Y-107460000D03*
X99940000Y-107460000D03*
D14*
X106277678Y-105260147D02*
X106262322Y-105659853D01*
X101222322Y-105260147D02*
X101237678Y-105659853D01*
D15*
X95650000Y-110000000D03*
X111850000Y-110000000D03*
D16*
X81900000Y-37080000D03*
X78100000Y-37080000D03*
D17*
X81270000Y-39080000D03*
D12*
X78730000Y-39080000D03*
D17*
X83810000Y-39080000D03*
D12*
X76190000Y-39080000D03*
D17*
X83810000Y-42082000D03*
D12*
X76190000Y-42082000D03*
D18*
X81400000Y-42082000D03*
X78600000Y-42082000D03*
D13*
X83810000Y-31460000D03*
X76190000Y-31460000D03*
D14*
X82527678Y-29260147D02*
X82512322Y-29659853D01*
X77472322Y-29260147D02*
X77487678Y-29659853D01*
D15*
X71900000Y-34000000D03*
X88100000Y-34000000D03*
D16*
X81900000Y-56080000D03*
X78100000Y-56080000D03*
D17*
X81270000Y-58080000D03*
D12*
X78730000Y-58080000D03*
D17*
X83810000Y-58080000D03*
D12*
X76190000Y-58080000D03*
D17*
X83810000Y-61082000D03*
D12*
X76190000Y-61082000D03*
D18*
X81400000Y-61082000D03*
X78600000Y-61082000D03*
D13*
X83810000Y-50460000D03*
X76190000Y-50460000D03*
D14*
X82527678Y-48260147D02*
X82512322Y-48659853D01*
X77472322Y-48260147D02*
X77487678Y-48659853D01*
D15*
X71900000Y-53000000D03*
X88100000Y-53000000D03*
D16*
X81900000Y-75080000D03*
X78100000Y-75080000D03*
D17*
X81270000Y-77080000D03*
D12*
X78730000Y-77080000D03*
D17*
X83810000Y-77080000D03*
D12*
X76190000Y-77080000D03*
D17*
X83810000Y-80082000D03*
D12*
X76190000Y-80082000D03*
D18*
X81400000Y-80082000D03*
X78600000Y-80082000D03*
D13*
X83810000Y-69460000D03*
X76190000Y-69460000D03*
D14*
X82527678Y-67260147D02*
X82512322Y-67659853D01*
X77472322Y-67260147D02*
X77487678Y-67659853D01*
D15*
X71900000Y-72000000D03*
X88100000Y-72000000D03*
D16*
X81900000Y-94080000D03*
X78100000Y-94080000D03*
D17*
X81270000Y-96080000D03*
D12*
X78730000Y-96080000D03*
D17*
X83810000Y-96080000D03*
D12*
X76190000Y-96080000D03*
D17*
X83810000Y-99082000D03*
D12*
X76190000Y-99082000D03*
D18*
X81400000Y-99082000D03*
X78600000Y-99082000D03*
D13*
X83810000Y-88460000D03*
X76190000Y-88460000D03*
D14*
X82527678Y-86260147D02*
X82512322Y-86659853D01*
X77472322Y-86260147D02*
X77487678Y-86659853D01*
D15*
X71900000Y-91000000D03*
X88100000Y-91000000D03*
D16*
X86650000Y-113080000D03*
X82850000Y-113080000D03*
D17*
X86020000Y-115080000D03*
D12*
X83480000Y-115080000D03*
D17*
X88560000Y-115080000D03*
D12*
X80940000Y-115080000D03*
D17*
X88560000Y-118082000D03*
D12*
X80940000Y-118082000D03*
D18*
X86150000Y-118082000D03*
X83350000Y-118082000D03*
D13*
X88560000Y-107460000D03*
X80940000Y-107460000D03*
D14*
X87277678Y-105260147D02*
X87262322Y-105659853D01*
X82222322Y-105260147D02*
X82237678Y-105659853D01*
D15*
X76650000Y-110000000D03*
X92850000Y-110000000D03*
D10*
G36*
X215017398Y-54268185D02*
X216933315Y-53343932D01*
X217857568Y-55259849D01*
X215941651Y-56184102D01*
X215017398Y-54268185D01*
X215017398Y-54268185D01*
G37*
D21*
X218725198Y-53660406D02*
X218725198Y-53660406D01*
X217541093Y-57051733D02*
X217541093Y-57051733D01*
X219828809Y-55948122D02*
X219828809Y-55948122D01*
X218644704Y-59339448D02*
X218644704Y-59339448D01*
X220932420Y-58235838D02*
X220932420Y-58235838D01*
X219748315Y-61627164D02*
X219748315Y-61627164D01*
X222036031Y-60523553D02*
X222036031Y-60523553D01*
X220851926Y-63914880D02*
X220851926Y-63914880D01*
X223139641Y-62811269D02*
X223139641Y-62811269D01*
X221955536Y-66202596D02*
X221955536Y-66202596D01*
X224243252Y-65098985D02*
X224243252Y-65098985D01*
X223059147Y-68490311D02*
X223059147Y-68490311D01*
X225346863Y-67386701D02*
X225346863Y-67386701D01*
X224162758Y-70778027D02*
X224162758Y-70778027D01*
X226450474Y-69674416D02*
X226450474Y-69674416D01*
X225266369Y-73065743D02*
X225266369Y-73065743D01*
X227554084Y-71962132D02*
X227554084Y-71962132D01*
X226369979Y-75353459D02*
X226369979Y-75353459D01*
X228657695Y-74249848D02*
X228657695Y-74249848D01*
X227473590Y-77641174D02*
X227473590Y-77641174D01*
X229761306Y-76537564D02*
X229761306Y-76537564D01*
X228577201Y-79928890D02*
X228577201Y-79928890D01*
X230864917Y-78825279D02*
X230864917Y-78825279D01*
X229680812Y-82216606D02*
X229680812Y-82216606D01*
X231968527Y-81112995D02*
X231968527Y-81112995D01*
M02*
