%FSLAX46Y46*%
G04 Gerber Fmt 4.6, Leading zero omitted, Abs format (unit mm)*
G04 Created by KiCad (PCBNEW (2014-09-07 BZR 5117)-product) date Thu 04 Dec 2014 19:35:44 GMT*
%MOMM*%
G01*
G04 APERTURE LIST*
%ADD10C,0.100000*%
%ADD11C,0.500000*%
%ADD12C,0.750000*%
%ADD13C,1.500000*%
%ADD14C,2.000000*%
%ADD15C,2.100000*%
%ADD16C,1.000000*%
%ADD17R,1.600000X1.500000*%
%ADD18R,1.500000X1.500000*%
%ADD19R,1.300000X1.200000*%
%ADD20R,1.500000X1.600000*%
%ADD21R,1.200000X1.300000*%
%ADD22C,1.727200*%
%ADD23C,0.889000*%
%ADD24C,0.254000*%
%ADD25C,1.000000*%
G04 APERTURE END LIST*
D10*
D11*
X158500000Y-126357143D02*
X158500000Y-124357143D01*
X158500000Y-124642857D02*
X158642857Y-124500000D01*
X158928571Y-124357143D01*
X159357143Y-124357143D01*
X159642857Y-124500000D01*
X159785714Y-124785714D01*
X159785714Y-126357143D01*
X159785714Y-124785714D02*
X159928571Y-124500000D01*
X160214285Y-124357143D01*
X160642857Y-124357143D01*
X160928571Y-124500000D01*
X161071428Y-124785714D01*
X161071428Y-126357143D01*
X163785714Y-126214286D02*
X163500000Y-126357143D01*
X162928571Y-126357143D01*
X162642857Y-126214286D01*
X162500000Y-126071429D01*
X162357143Y-125785714D01*
X162357143Y-124928571D01*
X162500000Y-124642857D01*
X162642857Y-124500000D01*
X162928571Y-124357143D01*
X163500000Y-124357143D01*
X163785714Y-124500000D01*
X166357143Y-126357143D02*
X166357143Y-123357143D01*
X166357143Y-126214286D02*
X166071429Y-126357143D01*
X165500000Y-126357143D01*
X165214286Y-126214286D01*
X165071429Y-126071429D01*
X164928572Y-125785714D01*
X164928572Y-124928571D01*
X165071429Y-124642857D01*
X165214286Y-124500000D01*
X165500000Y-124357143D01*
X166071429Y-124357143D01*
X166357143Y-124500000D01*
X168214286Y-126357143D02*
X167928572Y-126214286D01*
X167785715Y-126071429D01*
X167642858Y-125785714D01*
X167642858Y-124928571D01*
X167785715Y-124642857D01*
X167928572Y-124500000D01*
X168214286Y-124357143D01*
X168642858Y-124357143D01*
X168928572Y-124500000D01*
X169071429Y-124642857D01*
X169214286Y-124928571D01*
X169214286Y-125785714D01*
X169071429Y-126071429D01*
X168928572Y-126214286D01*
X168642858Y-126357143D01*
X168214286Y-126357143D01*
X170214286Y-126357143D02*
X171785715Y-124357143D01*
X170214286Y-124357143D02*
X171785715Y-126357143D01*
X187700361Y-118297417D02*
X190058154Y-117973517D01*
X185570365Y-122865209D02*
X186837803Y-124879582D01*
X194235743Y-122360024D02*
X195714907Y-119187947D01*
X195714907Y-119187947D02*
X201514301Y-118582115D01*
X183408907Y-119076792D02*
X187700361Y-118297417D01*
X194667885Y-133264301D02*
X194063029Y-130775496D01*
X197190404Y-124068819D02*
X195921573Y-123477153D01*
X194063029Y-130775496D02*
X197190404Y-124068819D01*
D12*
X195921573Y-123477153D02*
X194362529Y-122088132D01*
X194822766Y-125833553D02*
X192756579Y-125532101D01*
D11*
X196485144Y-129367178D02*
X197541689Y-127101408D01*
X199697042Y-122479238D02*
X198640497Y-124745008D01*
X193766220Y-128099323D02*
X190050358Y-126366588D01*
X190050358Y-126366588D02*
X189675621Y-125750494D01*
X189675621Y-125750494D02*
X188950575Y-125412399D01*
X188950575Y-125412399D02*
X188328374Y-125563613D01*
X188328374Y-125563613D02*
X186878281Y-124887424D01*
X204920209Y-126327164D02*
X207278002Y-126003264D01*
X202790213Y-130894956D02*
X204057651Y-132909329D01*
X211455591Y-130389771D02*
X212934755Y-127217694D01*
X212934755Y-127217694D02*
X218734149Y-126611862D01*
X200628755Y-127106539D02*
X204920209Y-126327164D01*
X211887733Y-141294048D02*
X211282877Y-138805243D01*
X214410252Y-132098566D02*
X213141421Y-131506900D01*
X211282877Y-138805243D02*
X214410252Y-132098566D01*
D12*
X213141421Y-131506900D02*
X211582377Y-130117879D01*
X212042614Y-133863300D02*
X209976427Y-133561848D01*
D11*
X213704992Y-137396925D02*
X214761537Y-135131155D01*
X216916890Y-130508985D02*
X215860345Y-132774755D01*
X210986068Y-136129070D02*
X207270206Y-134396335D01*
X207270206Y-134396335D02*
X206895469Y-133780241D01*
X206895469Y-133780241D02*
X206170423Y-133442146D01*
X206170423Y-133442146D02*
X205548222Y-133593360D01*
X205548222Y-133593360D02*
X204098129Y-132917171D01*
X225377405Y-144119779D02*
X225701305Y-146477572D01*
X220809613Y-141989783D02*
X218795240Y-143257221D01*
X221314798Y-150655161D02*
X224486875Y-152134325D01*
X224486875Y-152134325D02*
X225092707Y-157933719D01*
X224598030Y-139828325D02*
X225377405Y-144119779D01*
X210410521Y-151087303D02*
X212899326Y-150482447D01*
X219606003Y-153609822D02*
X220197669Y-152340991D01*
X212899326Y-150482447D02*
X219606003Y-153609822D01*
D12*
X220197669Y-152340991D02*
X221586690Y-150781947D01*
X217841269Y-151242184D02*
X218142721Y-149175997D01*
D11*
X214307644Y-152904562D02*
X216573414Y-153961107D01*
X221195584Y-156116460D02*
X218929814Y-155059915D01*
X215575499Y-150185638D02*
X217308234Y-146469776D01*
X217308234Y-146469776D02*
X217924328Y-146095039D01*
X217924328Y-146095039D02*
X218262423Y-145369993D01*
X218262423Y-145369993D02*
X218111209Y-144747792D01*
X218111209Y-144747792D02*
X218787398Y-143297699D01*
X233407152Y-126899931D02*
X233731052Y-129257724D01*
X228839360Y-124769935D02*
X226824987Y-126037373D01*
X229344545Y-133435313D02*
X232516622Y-134914477D01*
X232516622Y-134914477D02*
X233122454Y-140713871D01*
X232627777Y-122608477D02*
X233407152Y-126899931D01*
X218440268Y-133867455D02*
X220929073Y-133262599D01*
X227635750Y-136389974D02*
X228227416Y-135121143D01*
X220929073Y-133262599D02*
X227635750Y-136389974D01*
D12*
X228227416Y-135121143D02*
X229616437Y-133562099D01*
X225871016Y-134022336D02*
X226172468Y-131956149D01*
D11*
X222337391Y-135684714D02*
X224603161Y-136741259D01*
X229225331Y-138896612D02*
X226959561Y-137840067D01*
X223605246Y-132965790D02*
X225337981Y-129249928D01*
X225337981Y-129249928D02*
X225954075Y-128875191D01*
X225954075Y-128875191D02*
X226292170Y-128150145D01*
X226292170Y-128150145D02*
X226140956Y-127527944D01*
X226140956Y-127527944D02*
X226817145Y-126077851D01*
X241436899Y-109680083D02*
X241760799Y-112037876D01*
X236869107Y-107550087D02*
X234854734Y-108817525D01*
X237374292Y-116215465D02*
X240546369Y-117694629D01*
X240546369Y-117694629D02*
X241152201Y-123494023D01*
X240657524Y-105388629D02*
X241436899Y-109680083D01*
X226470015Y-116647607D02*
X228958820Y-116042751D01*
X235665497Y-119170126D02*
X236257163Y-117901295D01*
X228958820Y-116042751D02*
X235665497Y-119170126D01*
D12*
X236257163Y-117901295D02*
X237646184Y-116342251D01*
X233900763Y-116802488D02*
X234202215Y-114736301D01*
D11*
X230367138Y-118464866D02*
X232632908Y-119521411D01*
X237255078Y-121676764D02*
X234989308Y-120620219D01*
X231634993Y-115745942D02*
X233367728Y-112030080D01*
X233367728Y-112030080D02*
X233983822Y-111655343D01*
X233983822Y-111655343D02*
X234321917Y-110930297D01*
X234321917Y-110930297D02*
X234170703Y-110308096D01*
X234170703Y-110308096D02*
X234846892Y-108858003D01*
X224217051Y-101650336D02*
X224540951Y-104008129D01*
X219649259Y-99520340D02*
X217634886Y-100787778D01*
X220154444Y-108185718D02*
X223326521Y-109664882D01*
X223326521Y-109664882D02*
X223932353Y-115464276D01*
X223437676Y-97358882D02*
X224217051Y-101650336D01*
X209250167Y-108617860D02*
X211738972Y-108013004D01*
X218445649Y-111140379D02*
X219037315Y-109871548D01*
X211738972Y-108013004D02*
X218445649Y-111140379D01*
D12*
X219037315Y-109871548D02*
X220426336Y-108312504D01*
X216680915Y-108772741D02*
X216982367Y-106706554D01*
D11*
X213147290Y-110435119D02*
X215413060Y-111491664D01*
X220035230Y-113647017D02*
X217769460Y-112590472D01*
X214415145Y-107716195D02*
X216147880Y-104000333D01*
X216147880Y-104000333D02*
X216763974Y-103625596D01*
X216763974Y-103625596D02*
X217102069Y-102900550D01*
X217102069Y-102900550D02*
X216950855Y-102278349D01*
X216950855Y-102278349D02*
X217627044Y-100828256D01*
X201270000Y-27960000D02*
X202560000Y-29960000D01*
X196230000Y-27960000D02*
X194940000Y-29960000D01*
X200350000Y-35600000D02*
X203850000Y-35600000D01*
X203850000Y-35600000D02*
X206850000Y-40600000D01*
X198750000Y-24400000D02*
X201270000Y-27960000D01*
X190650000Y-40600000D02*
X192650000Y-39000000D01*
X200050000Y-39000000D02*
X200050000Y-37600000D01*
X192650000Y-39000000D02*
X200050000Y-39000000D01*
D12*
X200050000Y-37600000D02*
X200650000Y-35600000D01*
X197450000Y-37600000D02*
X196850000Y-35600000D01*
D11*
X194950000Y-40600000D02*
X197450000Y-40600000D01*
X202550000Y-40600000D02*
X200050000Y-40600000D01*
X194950000Y-37600000D02*
X194950000Y-33500000D01*
X194950000Y-33500000D02*
X195350000Y-32900000D01*
X195350000Y-32900000D02*
X195350000Y-32100000D01*
X195350000Y-32100000D02*
X194950000Y-31600000D01*
X194950000Y-31600000D02*
X194950000Y-30000000D01*
X194210000Y-53730000D02*
X196210000Y-52440000D01*
X194210000Y-58770000D02*
X196210000Y-60060000D01*
X201850000Y-54650000D02*
X201850000Y-51150000D01*
X201850000Y-51150000D02*
X206850000Y-48150000D01*
X190650000Y-56250000D02*
X194210000Y-53730000D01*
X206850000Y-64350000D02*
X205250000Y-62350000D01*
X205250000Y-54950000D02*
X203850000Y-54950000D01*
X205250000Y-62350000D02*
X205250000Y-54950000D01*
D12*
X203850000Y-54950000D02*
X201850000Y-54350000D01*
X203850000Y-57550000D02*
X201850000Y-58150000D01*
D11*
X206850000Y-60050000D02*
X206850000Y-57550000D01*
X206850000Y-52450000D02*
X206850000Y-54950000D01*
X203850000Y-60050000D02*
X199750000Y-60050000D01*
X199750000Y-60050000D02*
X199150000Y-59650000D01*
X199150000Y-59650000D02*
X198350000Y-59650000D01*
X198350000Y-59650000D02*
X197850000Y-60050000D01*
X197850000Y-60050000D02*
X196250000Y-60050000D01*
X194210000Y-82230000D02*
X196210000Y-80940000D01*
X194210000Y-87270000D02*
X196210000Y-88560000D01*
X201850000Y-83150000D02*
X201850000Y-79650000D01*
X201850000Y-79650000D02*
X206850000Y-76650000D01*
X190650000Y-84750000D02*
X194210000Y-82230000D01*
X206850000Y-92850000D02*
X205250000Y-90850000D01*
X205250000Y-83450000D02*
X203850000Y-83450000D01*
X205250000Y-90850000D02*
X205250000Y-83450000D01*
D12*
X203850000Y-83450000D02*
X201850000Y-82850000D01*
X203850000Y-86050000D02*
X201850000Y-86650000D01*
D11*
X206850000Y-88550000D02*
X206850000Y-86050000D01*
X206850000Y-80950000D02*
X206850000Y-83450000D01*
X203850000Y-88550000D02*
X199750000Y-88550000D01*
X199750000Y-88550000D02*
X199150000Y-88150000D01*
X199150000Y-88150000D02*
X198350000Y-88150000D01*
X198350000Y-88150000D02*
X197850000Y-88550000D01*
X197850000Y-88550000D02*
X196250000Y-88550000D01*
X182270000Y-27960000D02*
X183560000Y-29960000D01*
X177230000Y-27960000D02*
X175940000Y-29960000D01*
X181350000Y-35600000D02*
X184850000Y-35600000D01*
X184850000Y-35600000D02*
X187850000Y-40600000D01*
X179750000Y-24400000D02*
X182270000Y-27960000D01*
X171650000Y-40600000D02*
X173650000Y-39000000D01*
X181050000Y-39000000D02*
X181050000Y-37600000D01*
X173650000Y-39000000D02*
X181050000Y-39000000D01*
D12*
X181050000Y-37600000D02*
X181650000Y-35600000D01*
X178450000Y-37600000D02*
X177850000Y-35600000D01*
D11*
X175950000Y-40600000D02*
X178450000Y-40600000D01*
X183550000Y-40600000D02*
X181050000Y-40600000D01*
X175950000Y-37600000D02*
X175950000Y-33500000D01*
X175950000Y-33500000D02*
X176350000Y-32900000D01*
X176350000Y-32900000D02*
X176350000Y-32100000D01*
X176350000Y-32100000D02*
X175950000Y-31600000D01*
X175950000Y-31600000D02*
X175950000Y-30000000D01*
X182270000Y-46960000D02*
X183560000Y-48960000D01*
X177230000Y-46960000D02*
X175940000Y-48960000D01*
X181350000Y-54600000D02*
X184850000Y-54600000D01*
X184850000Y-54600000D02*
X187850000Y-59600000D01*
X179750000Y-43400000D02*
X182270000Y-46960000D01*
X171650000Y-59600000D02*
X173650000Y-58000000D01*
X181050000Y-58000000D02*
X181050000Y-56600000D01*
X173650000Y-58000000D02*
X181050000Y-58000000D01*
D12*
X181050000Y-56600000D02*
X181650000Y-54600000D01*
X178450000Y-56600000D02*
X177850000Y-54600000D01*
D11*
X175950000Y-59600000D02*
X178450000Y-59600000D01*
X183550000Y-59600000D02*
X181050000Y-59600000D01*
X175950000Y-56600000D02*
X175950000Y-52500000D01*
X175950000Y-52500000D02*
X176350000Y-51900000D01*
X176350000Y-51900000D02*
X176350000Y-51100000D01*
X176350000Y-51100000D02*
X175950000Y-50600000D01*
X175950000Y-50600000D02*
X175950000Y-49000000D01*
X182270000Y-65960000D02*
X183560000Y-67960000D01*
X177230000Y-65960000D02*
X175940000Y-67960000D01*
X181350000Y-73600000D02*
X184850000Y-73600000D01*
X184850000Y-73600000D02*
X187850000Y-78600000D01*
X179750000Y-62400000D02*
X182270000Y-65960000D01*
X171650000Y-78600000D02*
X173650000Y-77000000D01*
X181050000Y-77000000D02*
X181050000Y-75600000D01*
X173650000Y-77000000D02*
X181050000Y-77000000D01*
D12*
X181050000Y-75600000D02*
X181650000Y-73600000D01*
X178450000Y-75600000D02*
X177850000Y-73600000D01*
D11*
X175950000Y-78600000D02*
X178450000Y-78600000D01*
X183550000Y-78600000D02*
X181050000Y-78600000D01*
X175950000Y-75600000D02*
X175950000Y-71500000D01*
X175950000Y-71500000D02*
X176350000Y-70900000D01*
X176350000Y-70900000D02*
X176350000Y-70100000D01*
X176350000Y-70100000D02*
X175950000Y-69600000D01*
X175950000Y-69600000D02*
X175950000Y-68000000D01*
X182270000Y-84960000D02*
X183560000Y-86960000D01*
X177230000Y-84960000D02*
X175940000Y-86960000D01*
X181350000Y-92600000D02*
X184850000Y-92600000D01*
X184850000Y-92600000D02*
X187850000Y-97600000D01*
X179750000Y-81400000D02*
X182270000Y-84960000D01*
X171650000Y-97600000D02*
X173650000Y-96000000D01*
X181050000Y-96000000D02*
X181050000Y-94600000D01*
X173650000Y-96000000D02*
X181050000Y-96000000D01*
D12*
X181050000Y-94600000D02*
X181650000Y-92600000D01*
X178450000Y-94600000D02*
X177850000Y-92600000D01*
D11*
X175950000Y-97600000D02*
X178450000Y-97600000D01*
X183550000Y-97600000D02*
X181050000Y-97600000D01*
X175950000Y-94600000D02*
X175950000Y-90500000D01*
X175950000Y-90500000D02*
X176350000Y-89900000D01*
X176350000Y-89900000D02*
X176350000Y-89100000D01*
X176350000Y-89100000D02*
X175950000Y-88600000D01*
X175950000Y-88600000D02*
X175950000Y-87000000D01*
X163270000Y-26460000D02*
X164560000Y-28460000D01*
X158230000Y-26460000D02*
X156940000Y-28460000D01*
X162350000Y-34100000D02*
X165850000Y-34100000D01*
X165850000Y-34100000D02*
X168850000Y-39100000D01*
X160750000Y-22900000D02*
X163270000Y-26460000D01*
X152650000Y-39100000D02*
X154650000Y-37500000D01*
X162050000Y-37500000D02*
X162050000Y-36100000D01*
X154650000Y-37500000D02*
X162050000Y-37500000D01*
D12*
X162050000Y-36100000D02*
X162650000Y-34100000D01*
X159450000Y-36100000D02*
X158850000Y-34100000D01*
D11*
X156950000Y-39100000D02*
X159450000Y-39100000D01*
X164550000Y-39100000D02*
X162050000Y-39100000D01*
X156950000Y-36100000D02*
X156950000Y-32000000D01*
X156950000Y-32000000D02*
X157350000Y-31400000D01*
X157350000Y-31400000D02*
X157350000Y-30600000D01*
X157350000Y-30600000D02*
X156950000Y-30100000D01*
X156950000Y-30100000D02*
X156950000Y-28500000D01*
X163270000Y-45460000D02*
X164560000Y-47460000D01*
X158230000Y-45460000D02*
X156940000Y-47460000D01*
X162350000Y-53100000D02*
X165850000Y-53100000D01*
X165850000Y-53100000D02*
X168850000Y-58100000D01*
X160750000Y-41900000D02*
X163270000Y-45460000D01*
X152650000Y-58100000D02*
X154650000Y-56500000D01*
X162050000Y-56500000D02*
X162050000Y-55100000D01*
X154650000Y-56500000D02*
X162050000Y-56500000D01*
D12*
X162050000Y-55100000D02*
X162650000Y-53100000D01*
X159450000Y-55100000D02*
X158850000Y-53100000D01*
D11*
X156950000Y-58100000D02*
X159450000Y-58100000D01*
X164550000Y-58100000D02*
X162050000Y-58100000D01*
X156950000Y-55100000D02*
X156950000Y-51000000D01*
X156950000Y-51000000D02*
X157350000Y-50400000D01*
X157350000Y-50400000D02*
X157350000Y-49600000D01*
X157350000Y-49600000D02*
X156950000Y-49100000D01*
X156950000Y-49100000D02*
X156950000Y-47500000D01*
X163270000Y-64460000D02*
X164560000Y-66460000D01*
X158230000Y-64460000D02*
X156940000Y-66460000D01*
X162350000Y-72100000D02*
X165850000Y-72100000D01*
X165850000Y-72100000D02*
X168850000Y-77100000D01*
X160750000Y-60900000D02*
X163270000Y-64460000D01*
X152650000Y-77100000D02*
X154650000Y-75500000D01*
X162050000Y-75500000D02*
X162050000Y-74100000D01*
X154650000Y-75500000D02*
X162050000Y-75500000D01*
D12*
X162050000Y-74100000D02*
X162650000Y-72100000D01*
X159450000Y-74100000D02*
X158850000Y-72100000D01*
D11*
X156950000Y-77100000D02*
X159450000Y-77100000D01*
X164550000Y-77100000D02*
X162050000Y-77100000D01*
X156950000Y-74100000D02*
X156950000Y-70000000D01*
X156950000Y-70000000D02*
X157350000Y-69400000D01*
X157350000Y-69400000D02*
X157350000Y-68600000D01*
X157350000Y-68600000D02*
X156950000Y-68100000D01*
X156950000Y-68100000D02*
X156950000Y-66500000D01*
X163270000Y-83460000D02*
X164560000Y-85460000D01*
X158230000Y-83460000D02*
X156940000Y-85460000D01*
X162350000Y-91100000D02*
X165850000Y-91100000D01*
X165850000Y-91100000D02*
X168850000Y-96100000D01*
X160750000Y-79900000D02*
X163270000Y-83460000D01*
X152650000Y-96100000D02*
X154650000Y-94500000D01*
X162050000Y-94500000D02*
X162050000Y-93100000D01*
X154650000Y-94500000D02*
X162050000Y-94500000D01*
D12*
X162050000Y-93100000D02*
X162650000Y-91100000D01*
X159450000Y-93100000D02*
X158850000Y-91100000D01*
D11*
X156950000Y-96100000D02*
X159450000Y-96100000D01*
X164550000Y-96100000D02*
X162050000Y-96100000D01*
X156950000Y-93100000D02*
X156950000Y-89000000D01*
X156950000Y-89000000D02*
X157350000Y-88400000D01*
X157350000Y-88400000D02*
X157350000Y-87600000D01*
X157350000Y-87600000D02*
X156950000Y-87100000D01*
X156950000Y-87100000D02*
X156950000Y-85500000D01*
X163270000Y-102460000D02*
X164560000Y-104460000D01*
X158230000Y-102460000D02*
X156940000Y-104460000D01*
X162350000Y-110100000D02*
X165850000Y-110100000D01*
X165850000Y-110100000D02*
X168850000Y-115100000D01*
X160750000Y-98900000D02*
X163270000Y-102460000D01*
X152650000Y-115100000D02*
X154650000Y-113500000D01*
X162050000Y-113500000D02*
X162050000Y-112100000D01*
X154650000Y-113500000D02*
X162050000Y-113500000D01*
D12*
X162050000Y-112100000D02*
X162650000Y-110100000D01*
X159450000Y-112100000D02*
X158850000Y-110100000D01*
D11*
X156950000Y-115100000D02*
X159450000Y-115100000D01*
X164550000Y-115100000D02*
X162050000Y-115100000D01*
X156950000Y-112100000D02*
X156950000Y-108000000D01*
X156950000Y-108000000D02*
X157350000Y-107400000D01*
X157350000Y-107400000D02*
X157350000Y-106600000D01*
X157350000Y-106600000D02*
X156950000Y-106100000D01*
X156950000Y-106100000D02*
X156950000Y-104500000D01*
X144270000Y-24960000D02*
X145560000Y-26960000D01*
X139230000Y-24960000D02*
X137940000Y-26960000D01*
X143350000Y-32600000D02*
X146850000Y-32600000D01*
X146850000Y-32600000D02*
X149850000Y-37600000D01*
X141750000Y-21400000D02*
X144270000Y-24960000D01*
X133650000Y-37600000D02*
X135650000Y-36000000D01*
X143050000Y-36000000D02*
X143050000Y-34600000D01*
X135650000Y-36000000D02*
X143050000Y-36000000D01*
D12*
X143050000Y-34600000D02*
X143650000Y-32600000D01*
X140450000Y-34600000D02*
X139850000Y-32600000D01*
D11*
X137950000Y-37600000D02*
X140450000Y-37600000D01*
X145550000Y-37600000D02*
X143050000Y-37600000D01*
X137950000Y-34600000D02*
X137950000Y-30500000D01*
X137950000Y-30500000D02*
X138350000Y-29900000D01*
X138350000Y-29900000D02*
X138350000Y-29100000D01*
X138350000Y-29100000D02*
X137950000Y-28600000D01*
X137950000Y-28600000D02*
X137950000Y-27000000D01*
X144270000Y-43960000D02*
X145560000Y-45960000D01*
X139230000Y-43960000D02*
X137940000Y-45960000D01*
X143350000Y-51600000D02*
X146850000Y-51600000D01*
X146850000Y-51600000D02*
X149850000Y-56600000D01*
X141750000Y-40400000D02*
X144270000Y-43960000D01*
X133650000Y-56600000D02*
X135650000Y-55000000D01*
X143050000Y-55000000D02*
X143050000Y-53600000D01*
X135650000Y-55000000D02*
X143050000Y-55000000D01*
D12*
X143050000Y-53600000D02*
X143650000Y-51600000D01*
X140450000Y-53600000D02*
X139850000Y-51600000D01*
D11*
X137950000Y-56600000D02*
X140450000Y-56600000D01*
X145550000Y-56600000D02*
X143050000Y-56600000D01*
X137950000Y-53600000D02*
X137950000Y-49500000D01*
X137950000Y-49500000D02*
X138350000Y-48900000D01*
X138350000Y-48900000D02*
X138350000Y-48100000D01*
X138350000Y-48100000D02*
X137950000Y-47600000D01*
X137950000Y-47600000D02*
X137950000Y-46000000D01*
X144270000Y-62960000D02*
X145560000Y-64960000D01*
X139230000Y-62960000D02*
X137940000Y-64960000D01*
X143350000Y-70600000D02*
X146850000Y-70600000D01*
X146850000Y-70600000D02*
X149850000Y-75600000D01*
X141750000Y-59400000D02*
X144270000Y-62960000D01*
X133650000Y-75600000D02*
X135650000Y-74000000D01*
X143050000Y-74000000D02*
X143050000Y-72600000D01*
X135650000Y-74000000D02*
X143050000Y-74000000D01*
D12*
X143050000Y-72600000D02*
X143650000Y-70600000D01*
X140450000Y-72600000D02*
X139850000Y-70600000D01*
D11*
X137950000Y-75600000D02*
X140450000Y-75600000D01*
X145550000Y-75600000D02*
X143050000Y-75600000D01*
X137950000Y-72600000D02*
X137950000Y-68500000D01*
X137950000Y-68500000D02*
X138350000Y-67900000D01*
X138350000Y-67900000D02*
X138350000Y-67100000D01*
X138350000Y-67100000D02*
X137950000Y-66600000D01*
X137950000Y-66600000D02*
X137950000Y-65000000D01*
X144270000Y-81960000D02*
X145560000Y-83960000D01*
X139230000Y-81960000D02*
X137940000Y-83960000D01*
X143350000Y-89600000D02*
X146850000Y-89600000D01*
X146850000Y-89600000D02*
X149850000Y-94600000D01*
X141750000Y-78400000D02*
X144270000Y-81960000D01*
X133650000Y-94600000D02*
X135650000Y-93000000D01*
X143050000Y-93000000D02*
X143050000Y-91600000D01*
X135650000Y-93000000D02*
X143050000Y-93000000D01*
D12*
X143050000Y-91600000D02*
X143650000Y-89600000D01*
X140450000Y-91600000D02*
X139850000Y-89600000D01*
D11*
X137950000Y-94600000D02*
X140450000Y-94600000D01*
X145550000Y-94600000D02*
X143050000Y-94600000D01*
X137950000Y-91600000D02*
X137950000Y-87500000D01*
X137950000Y-87500000D02*
X138350000Y-86900000D01*
X138350000Y-86900000D02*
X138350000Y-86100000D01*
X138350000Y-86100000D02*
X137950000Y-85600000D01*
X137950000Y-85600000D02*
X137950000Y-84000000D01*
X144270000Y-100960000D02*
X145560000Y-102960000D01*
X139230000Y-100960000D02*
X137940000Y-102960000D01*
X143350000Y-108600000D02*
X146850000Y-108600000D01*
X146850000Y-108600000D02*
X149850000Y-113600000D01*
X141750000Y-97400000D02*
X144270000Y-100960000D01*
X133650000Y-113600000D02*
X135650000Y-112000000D01*
X143050000Y-112000000D02*
X143050000Y-110600000D01*
X135650000Y-112000000D02*
X143050000Y-112000000D01*
D12*
X143050000Y-110600000D02*
X143650000Y-108600000D01*
X140450000Y-110600000D02*
X139850000Y-108600000D01*
D11*
X137950000Y-113600000D02*
X140450000Y-113600000D01*
X145550000Y-113600000D02*
X143050000Y-113600000D01*
X137950000Y-110600000D02*
X137950000Y-106500000D01*
X137950000Y-106500000D02*
X138350000Y-105900000D01*
X138350000Y-105900000D02*
X138350000Y-105100000D01*
X138350000Y-105100000D02*
X137950000Y-104600000D01*
X137950000Y-104600000D02*
X137950000Y-103000000D01*
X125270000Y-26460000D02*
X126560000Y-28460000D01*
X120230000Y-26460000D02*
X118940000Y-28460000D01*
X124350000Y-34100000D02*
X127850000Y-34100000D01*
X127850000Y-34100000D02*
X130850000Y-39100000D01*
X122750000Y-22900000D02*
X125270000Y-26460000D01*
X114650000Y-39100000D02*
X116650000Y-37500000D01*
X124050000Y-37500000D02*
X124050000Y-36100000D01*
X116650000Y-37500000D02*
X124050000Y-37500000D01*
D12*
X124050000Y-36100000D02*
X124650000Y-34100000D01*
X121450000Y-36100000D02*
X120850000Y-34100000D01*
D11*
X118950000Y-39100000D02*
X121450000Y-39100000D01*
X126550000Y-39100000D02*
X124050000Y-39100000D01*
X118950000Y-36100000D02*
X118950000Y-32000000D01*
X118950000Y-32000000D02*
X119350000Y-31400000D01*
X119350000Y-31400000D02*
X119350000Y-30600000D01*
X119350000Y-30600000D02*
X118950000Y-30100000D01*
X118950000Y-30100000D02*
X118950000Y-28500000D01*
X125270000Y-45460000D02*
X126560000Y-47460000D01*
X120230000Y-45460000D02*
X118940000Y-47460000D01*
X124350000Y-53100000D02*
X127850000Y-53100000D01*
X127850000Y-53100000D02*
X130850000Y-58100000D01*
X122750000Y-41900000D02*
X125270000Y-45460000D01*
X114650000Y-58100000D02*
X116650000Y-56500000D01*
X124050000Y-56500000D02*
X124050000Y-55100000D01*
X116650000Y-56500000D02*
X124050000Y-56500000D01*
D12*
X124050000Y-55100000D02*
X124650000Y-53100000D01*
X121450000Y-55100000D02*
X120850000Y-53100000D01*
D11*
X118950000Y-58100000D02*
X121450000Y-58100000D01*
X126550000Y-58100000D02*
X124050000Y-58100000D01*
X118950000Y-55100000D02*
X118950000Y-51000000D01*
X118950000Y-51000000D02*
X119350000Y-50400000D01*
X119350000Y-50400000D02*
X119350000Y-49600000D01*
X119350000Y-49600000D02*
X118950000Y-49100000D01*
X118950000Y-49100000D02*
X118950000Y-47500000D01*
X125270000Y-64460000D02*
X126560000Y-66460000D01*
X120230000Y-64460000D02*
X118940000Y-66460000D01*
X124350000Y-72100000D02*
X127850000Y-72100000D01*
X127850000Y-72100000D02*
X130850000Y-77100000D01*
X122750000Y-60900000D02*
X125270000Y-64460000D01*
X114650000Y-77100000D02*
X116650000Y-75500000D01*
X124050000Y-75500000D02*
X124050000Y-74100000D01*
X116650000Y-75500000D02*
X124050000Y-75500000D01*
D12*
X124050000Y-74100000D02*
X124650000Y-72100000D01*
X121450000Y-74100000D02*
X120850000Y-72100000D01*
D11*
X118950000Y-77100000D02*
X121450000Y-77100000D01*
X126550000Y-77100000D02*
X124050000Y-77100000D01*
X118950000Y-74100000D02*
X118950000Y-70000000D01*
X118950000Y-70000000D02*
X119350000Y-69400000D01*
X119350000Y-69400000D02*
X119350000Y-68600000D01*
X119350000Y-68600000D02*
X118950000Y-68100000D01*
X118950000Y-68100000D02*
X118950000Y-66500000D01*
X125270000Y-83460000D02*
X126560000Y-85460000D01*
X120230000Y-83460000D02*
X118940000Y-85460000D01*
X124350000Y-91100000D02*
X127850000Y-91100000D01*
X127850000Y-91100000D02*
X130850000Y-96100000D01*
X122750000Y-79900000D02*
X125270000Y-83460000D01*
X114650000Y-96100000D02*
X116650000Y-94500000D01*
X124050000Y-94500000D02*
X124050000Y-93100000D01*
X116650000Y-94500000D02*
X124050000Y-94500000D01*
D12*
X124050000Y-93100000D02*
X124650000Y-91100000D01*
X121450000Y-93100000D02*
X120850000Y-91100000D01*
D11*
X118950000Y-96100000D02*
X121450000Y-96100000D01*
X126550000Y-96100000D02*
X124050000Y-96100000D01*
X118950000Y-93100000D02*
X118950000Y-89000000D01*
X118950000Y-89000000D02*
X119350000Y-88400000D01*
X119350000Y-88400000D02*
X119350000Y-87600000D01*
X119350000Y-87600000D02*
X118950000Y-87100000D01*
X118950000Y-87100000D02*
X118950000Y-85500000D01*
X125270000Y-102460000D02*
X126560000Y-104460000D01*
X120230000Y-102460000D02*
X118940000Y-104460000D01*
X124350000Y-110100000D02*
X127850000Y-110100000D01*
X127850000Y-110100000D02*
X130850000Y-115100000D01*
X122750000Y-98900000D02*
X125270000Y-102460000D01*
X114650000Y-115100000D02*
X116650000Y-113500000D01*
X124050000Y-113500000D02*
X124050000Y-112100000D01*
X116650000Y-113500000D02*
X124050000Y-113500000D01*
D12*
X124050000Y-112100000D02*
X124650000Y-110100000D01*
X121450000Y-112100000D02*
X120850000Y-110100000D01*
D11*
X118950000Y-115100000D02*
X121450000Y-115100000D01*
X126550000Y-115100000D02*
X124050000Y-115100000D01*
X118950000Y-112100000D02*
X118950000Y-108000000D01*
X118950000Y-108000000D02*
X119350000Y-107400000D01*
X119350000Y-107400000D02*
X119350000Y-106600000D01*
X119350000Y-106600000D02*
X118950000Y-106100000D01*
X118950000Y-106100000D02*
X118950000Y-104500000D01*
X106270000Y-29460000D02*
X107560000Y-31460000D01*
X101230000Y-29460000D02*
X99940000Y-31460000D01*
X105350000Y-37100000D02*
X108850000Y-37100000D01*
X108850000Y-37100000D02*
X111850000Y-42100000D01*
X103750000Y-25900000D02*
X106270000Y-29460000D01*
X95650000Y-42100000D02*
X97650000Y-40500000D01*
X105050000Y-40500000D02*
X105050000Y-39100000D01*
X97650000Y-40500000D02*
X105050000Y-40500000D01*
D12*
X105050000Y-39100000D02*
X105650000Y-37100000D01*
X102450000Y-39100000D02*
X101850000Y-37100000D01*
D11*
X99950000Y-42100000D02*
X102450000Y-42100000D01*
X107550000Y-42100000D02*
X105050000Y-42100000D01*
X99950000Y-39100000D02*
X99950000Y-35000000D01*
X99950000Y-35000000D02*
X100350000Y-34400000D01*
X100350000Y-34400000D02*
X100350000Y-33600000D01*
X100350000Y-33600000D02*
X99950000Y-33100000D01*
X99950000Y-33100000D02*
X99950000Y-31500000D01*
X106270000Y-48460000D02*
X107560000Y-50460000D01*
X101230000Y-48460000D02*
X99940000Y-50460000D01*
X105350000Y-56100000D02*
X108850000Y-56100000D01*
X108850000Y-56100000D02*
X111850000Y-61100000D01*
X103750000Y-44900000D02*
X106270000Y-48460000D01*
X95650000Y-61100000D02*
X97650000Y-59500000D01*
X105050000Y-59500000D02*
X105050000Y-58100000D01*
X97650000Y-59500000D02*
X105050000Y-59500000D01*
D12*
X105050000Y-58100000D02*
X105650000Y-56100000D01*
X102450000Y-58100000D02*
X101850000Y-56100000D01*
D11*
X99950000Y-61100000D02*
X102450000Y-61100000D01*
X107550000Y-61100000D02*
X105050000Y-61100000D01*
X99950000Y-58100000D02*
X99950000Y-54000000D01*
X99950000Y-54000000D02*
X100350000Y-53400000D01*
X100350000Y-53400000D02*
X100350000Y-52600000D01*
X100350000Y-52600000D02*
X99950000Y-52100000D01*
X99950000Y-52100000D02*
X99950000Y-50500000D01*
X106270000Y-67460000D02*
X107560000Y-69460000D01*
X101230000Y-67460000D02*
X99940000Y-69460000D01*
X105350000Y-75100000D02*
X108850000Y-75100000D01*
X108850000Y-75100000D02*
X111850000Y-80100000D01*
X103750000Y-63900000D02*
X106270000Y-67460000D01*
X95650000Y-80100000D02*
X97650000Y-78500000D01*
X105050000Y-78500000D02*
X105050000Y-77100000D01*
X97650000Y-78500000D02*
X105050000Y-78500000D01*
D12*
X105050000Y-77100000D02*
X105650000Y-75100000D01*
X102450000Y-77100000D02*
X101850000Y-75100000D01*
D11*
X99950000Y-80100000D02*
X102450000Y-80100000D01*
X107550000Y-80100000D02*
X105050000Y-80100000D01*
X99950000Y-77100000D02*
X99950000Y-73000000D01*
X99950000Y-73000000D02*
X100350000Y-72400000D01*
X100350000Y-72400000D02*
X100350000Y-71600000D01*
X100350000Y-71600000D02*
X99950000Y-71100000D01*
X99950000Y-71100000D02*
X99950000Y-69500000D01*
X106270000Y-86460000D02*
X107560000Y-88460000D01*
X101230000Y-86460000D02*
X99940000Y-88460000D01*
X105350000Y-94100000D02*
X108850000Y-94100000D01*
X108850000Y-94100000D02*
X111850000Y-99100000D01*
X103750000Y-82900000D02*
X106270000Y-86460000D01*
X95650000Y-99100000D02*
X97650000Y-97500000D01*
X105050000Y-97500000D02*
X105050000Y-96100000D01*
X97650000Y-97500000D02*
X105050000Y-97500000D01*
D12*
X105050000Y-96100000D02*
X105650000Y-94100000D01*
X102450000Y-96100000D02*
X101850000Y-94100000D01*
D11*
X99950000Y-99100000D02*
X102450000Y-99100000D01*
X107550000Y-99100000D02*
X105050000Y-99100000D01*
X99950000Y-96100000D02*
X99950000Y-92000000D01*
X99950000Y-92000000D02*
X100350000Y-91400000D01*
X100350000Y-91400000D02*
X100350000Y-90600000D01*
X100350000Y-90600000D02*
X99950000Y-90100000D01*
X99950000Y-90100000D02*
X99950000Y-88500000D01*
X106270000Y-105460000D02*
X107560000Y-107460000D01*
X101230000Y-105460000D02*
X99940000Y-107460000D01*
X105350000Y-113100000D02*
X108850000Y-113100000D01*
X108850000Y-113100000D02*
X111850000Y-118100000D01*
X103750000Y-101900000D02*
X106270000Y-105460000D01*
X95650000Y-118100000D02*
X97650000Y-116500000D01*
X105050000Y-116500000D02*
X105050000Y-115100000D01*
X97650000Y-116500000D02*
X105050000Y-116500000D01*
D12*
X105050000Y-115100000D02*
X105650000Y-113100000D01*
X102450000Y-115100000D02*
X101850000Y-113100000D01*
D11*
X99950000Y-118100000D02*
X102450000Y-118100000D01*
X107550000Y-118100000D02*
X105050000Y-118100000D01*
X99950000Y-115100000D02*
X99950000Y-111000000D01*
X99950000Y-111000000D02*
X100350000Y-110400000D01*
X100350000Y-110400000D02*
X100350000Y-109600000D01*
X100350000Y-109600000D02*
X99950000Y-109100000D01*
X99950000Y-109100000D02*
X99950000Y-107500000D01*
X82520000Y-29460000D02*
X83810000Y-31460000D01*
X77480000Y-29460000D02*
X76190000Y-31460000D01*
X81600000Y-37100000D02*
X85100000Y-37100000D01*
X85100000Y-37100000D02*
X88100000Y-42100000D01*
X80000000Y-25900000D02*
X82520000Y-29460000D01*
X71900000Y-42100000D02*
X73900000Y-40500000D01*
X81300000Y-40500000D02*
X81300000Y-39100000D01*
X73900000Y-40500000D02*
X81300000Y-40500000D01*
D12*
X81300000Y-39100000D02*
X81900000Y-37100000D01*
X78700000Y-39100000D02*
X78100000Y-37100000D01*
D11*
X76200000Y-42100000D02*
X78700000Y-42100000D01*
X83800000Y-42100000D02*
X81300000Y-42100000D01*
X76200000Y-39100000D02*
X76200000Y-35000000D01*
X76200000Y-35000000D02*
X76600000Y-34400000D01*
X76600000Y-34400000D02*
X76600000Y-33600000D01*
X76600000Y-33600000D02*
X76200000Y-33100000D01*
X76200000Y-33100000D02*
X76200000Y-31500000D01*
X82520000Y-48460000D02*
X83810000Y-50460000D01*
X77480000Y-48460000D02*
X76190000Y-50460000D01*
X81600000Y-56100000D02*
X85100000Y-56100000D01*
X85100000Y-56100000D02*
X88100000Y-61100000D01*
X80000000Y-44900000D02*
X82520000Y-48460000D01*
X71900000Y-61100000D02*
X73900000Y-59500000D01*
X81300000Y-59500000D02*
X81300000Y-58100000D01*
X73900000Y-59500000D02*
X81300000Y-59500000D01*
D12*
X81300000Y-58100000D02*
X81900000Y-56100000D01*
X78700000Y-58100000D02*
X78100000Y-56100000D01*
D11*
X76200000Y-61100000D02*
X78700000Y-61100000D01*
X83800000Y-61100000D02*
X81300000Y-61100000D01*
X76200000Y-58100000D02*
X76200000Y-54000000D01*
X76200000Y-54000000D02*
X76600000Y-53400000D01*
X76600000Y-53400000D02*
X76600000Y-52600000D01*
X76600000Y-52600000D02*
X76200000Y-52100000D01*
X76200000Y-52100000D02*
X76200000Y-50500000D01*
X82520000Y-67460000D02*
X83810000Y-69460000D01*
X77480000Y-67460000D02*
X76190000Y-69460000D01*
X81600000Y-75100000D02*
X85100000Y-75100000D01*
X85100000Y-75100000D02*
X88100000Y-80100000D01*
X80000000Y-63900000D02*
X82520000Y-67460000D01*
X71900000Y-80100000D02*
X73900000Y-78500000D01*
X81300000Y-78500000D02*
X81300000Y-77100000D01*
X73900000Y-78500000D02*
X81300000Y-78500000D01*
D12*
X81300000Y-77100000D02*
X81900000Y-75100000D01*
X78700000Y-77100000D02*
X78100000Y-75100000D01*
D11*
X76200000Y-80100000D02*
X78700000Y-80100000D01*
X83800000Y-80100000D02*
X81300000Y-80100000D01*
X76200000Y-77100000D02*
X76200000Y-73000000D01*
X76200000Y-73000000D02*
X76600000Y-72400000D01*
X76600000Y-72400000D02*
X76600000Y-71600000D01*
X76600000Y-71600000D02*
X76200000Y-71100000D01*
X76200000Y-71100000D02*
X76200000Y-69500000D01*
X82520000Y-86460000D02*
X83810000Y-88460000D01*
X77480000Y-86460000D02*
X76190000Y-88460000D01*
X81600000Y-94100000D02*
X85100000Y-94100000D01*
X85100000Y-94100000D02*
X88100000Y-99100000D01*
X80000000Y-82900000D02*
X82520000Y-86460000D01*
X71900000Y-99100000D02*
X73900000Y-97500000D01*
X81300000Y-97500000D02*
X81300000Y-96100000D01*
X73900000Y-97500000D02*
X81300000Y-97500000D01*
D12*
X81300000Y-96100000D02*
X81900000Y-94100000D01*
X78700000Y-96100000D02*
X78100000Y-94100000D01*
D11*
X76200000Y-99100000D02*
X78700000Y-99100000D01*
X83800000Y-99100000D02*
X81300000Y-99100000D01*
X76200000Y-96100000D02*
X76200000Y-92000000D01*
X76200000Y-92000000D02*
X76600000Y-91400000D01*
X76600000Y-91400000D02*
X76600000Y-90600000D01*
X76600000Y-90600000D02*
X76200000Y-90100000D01*
X76200000Y-90100000D02*
X76200000Y-88500000D01*
X87270000Y-105460000D02*
X88560000Y-107460000D01*
X82230000Y-105460000D02*
X80940000Y-107460000D01*
X86350000Y-113100000D02*
X89850000Y-113100000D01*
X89850000Y-113100000D02*
X92850000Y-118100000D01*
X84750000Y-101900000D02*
X87270000Y-105460000D01*
X76650000Y-118100000D02*
X78650000Y-116500000D01*
X86050000Y-116500000D02*
X86050000Y-115100000D01*
X78650000Y-116500000D02*
X86050000Y-116500000D01*
D12*
X86050000Y-115100000D02*
X86650000Y-113100000D01*
X83450000Y-115100000D02*
X82850000Y-113100000D01*
D11*
X80950000Y-118100000D02*
X83450000Y-118100000D01*
X88550000Y-118100000D02*
X86050000Y-118100000D01*
X80950000Y-115100000D02*
X80950000Y-111000000D01*
X80950000Y-111000000D02*
X81350000Y-110400000D01*
X81350000Y-110400000D02*
X81350000Y-109600000D01*
X81350000Y-109600000D02*
X80950000Y-109100000D01*
X80950000Y-109100000D02*
X80950000Y-107500000D01*
D10*
G36*
X194686039Y-123121689D02*
X193326578Y-122487762D01*
X194002767Y-121037669D01*
X195362228Y-121671596D01*
X194686039Y-123121689D01*
X194686039Y-123121689D01*
G37*
G36*
X193080089Y-126565659D02*
X191720628Y-125931732D01*
X192396817Y-124481639D01*
X193756278Y-125115566D01*
X193080089Y-126565659D01*
X193080089Y-126565659D01*
G37*
G36*
X196253536Y-124492585D02*
X194894074Y-123858657D01*
X195528002Y-122499195D01*
X196887464Y-123133123D01*
X196253536Y-124492585D01*
X196253536Y-124492585D01*
G37*
D13*
X194817318Y-125797912D03*
D10*
G36*
X197326986Y-122190563D02*
X195967524Y-121556635D01*
X196601452Y-120197173D01*
X197960914Y-120831101D01*
X197326986Y-122190563D01*
X197326986Y-122190563D01*
G37*
D13*
X193743868Y-128099933D03*
D10*
G36*
X200047722Y-123459263D02*
X198688260Y-122825335D01*
X199322188Y-121465873D01*
X200681650Y-122099801D01*
X200047722Y-123459263D01*
X200047722Y-123459263D01*
G37*
D13*
X196464604Y-129368633D03*
D10*
G36*
X198935528Y-125489441D02*
X197847958Y-124982299D01*
X198397362Y-123804099D01*
X199484932Y-124311241D01*
X198935528Y-125489441D01*
X198935528Y-125489441D01*
G37*
G36*
X197752197Y-128027103D02*
X196664627Y-127519961D01*
X197214031Y-126341761D01*
X198301601Y-126848903D01*
X197752197Y-128027103D01*
X197752197Y-128027103D01*
G37*
D14*
X190058154Y-117973517D03*
X186837803Y-124879582D03*
D15*
X187522478Y-118205997D02*
X187878244Y-118388837D01*
X185385992Y-122787706D02*
X185754738Y-122942712D01*
D16*
X201514301Y-118582115D03*
X194667885Y-133264301D03*
X183408907Y-119076792D03*
D10*
G36*
X211905887Y-131151436D02*
X210546426Y-130517509D01*
X211222615Y-129067416D01*
X212582076Y-129701343D01*
X211905887Y-131151436D01*
X211905887Y-131151436D01*
G37*
G36*
X210299937Y-134595406D02*
X208940476Y-133961479D01*
X209616665Y-132511386D01*
X210976126Y-133145313D01*
X210299937Y-134595406D01*
X210299937Y-134595406D01*
G37*
G36*
X213473384Y-132522332D02*
X212113922Y-131888404D01*
X212747850Y-130528942D01*
X214107312Y-131162870D01*
X213473384Y-132522332D01*
X213473384Y-132522332D01*
G37*
D13*
X212037166Y-133827659D03*
D10*
G36*
X214546834Y-130220310D02*
X213187372Y-129586382D01*
X213821300Y-128226920D01*
X215180762Y-128860848D01*
X214546834Y-130220310D01*
X214546834Y-130220310D01*
G37*
D13*
X210963716Y-136129680D03*
D10*
G36*
X217267570Y-131489010D02*
X215908108Y-130855082D01*
X216542036Y-129495620D01*
X217901498Y-130129548D01*
X217267570Y-131489010D01*
X217267570Y-131489010D01*
G37*
D13*
X213684452Y-137398380D03*
D10*
G36*
X216155376Y-133519188D02*
X215067806Y-133012046D01*
X215617210Y-131833846D01*
X216704780Y-132340988D01*
X216155376Y-133519188D01*
X216155376Y-133519188D01*
G37*
G36*
X214972045Y-136056850D02*
X213884475Y-135549708D01*
X214433879Y-134371508D01*
X215521449Y-134878650D01*
X214972045Y-136056850D01*
X214972045Y-136056850D01*
G37*
D14*
X207278002Y-126003264D03*
X204057651Y-132909329D03*
D15*
X204742326Y-126235744D02*
X205098092Y-126418584D01*
X202605840Y-130817453D02*
X202974586Y-130972459D01*
D16*
X218734149Y-126611862D03*
X211887733Y-141294048D03*
X200628755Y-127106539D03*
D10*
G36*
X220553133Y-151105457D02*
X221187060Y-149745996D01*
X222637153Y-150422185D01*
X222003226Y-151781646D01*
X220553133Y-151105457D01*
X220553133Y-151105457D01*
G37*
G36*
X217109163Y-149499507D02*
X217743090Y-148140046D01*
X219193183Y-148816235D01*
X218559256Y-150175696D01*
X217109163Y-149499507D01*
X217109163Y-149499507D01*
G37*
G36*
X219182237Y-152672954D02*
X219816165Y-151313492D01*
X221175627Y-151947420D01*
X220541699Y-153306882D01*
X219182237Y-152672954D01*
X219182237Y-152672954D01*
G37*
D13*
X217876910Y-151236736D03*
D10*
G36*
X221484259Y-153746404D02*
X222118187Y-152386942D01*
X223477649Y-153020870D01*
X222843721Y-154380332D01*
X221484259Y-153746404D01*
X221484259Y-153746404D01*
G37*
D13*
X215574889Y-150163286D03*
D10*
G36*
X220215559Y-156467140D02*
X220849487Y-155107678D01*
X222208949Y-155741606D01*
X221575021Y-157101068D01*
X220215559Y-156467140D01*
X220215559Y-156467140D01*
G37*
D13*
X214306189Y-152884022D03*
D10*
G36*
X218185381Y-155354946D02*
X218692523Y-154267376D01*
X219870723Y-154816780D01*
X219363581Y-155904350D01*
X218185381Y-155354946D01*
X218185381Y-155354946D01*
G37*
G36*
X215647719Y-154171615D02*
X216154861Y-153084045D01*
X217333061Y-153633449D01*
X216825919Y-154721019D01*
X215647719Y-154171615D01*
X215647719Y-154171615D01*
G37*
D14*
X225701305Y-146477572D03*
X218795240Y-143257221D03*
D15*
X225468825Y-143941896D02*
X225285985Y-144297662D01*
X220887116Y-141805410D02*
X220732110Y-142174156D01*
D16*
X225092707Y-157933719D03*
X210410521Y-151087303D03*
X224598030Y-139828325D03*
D10*
G36*
X228582880Y-133885609D02*
X229216807Y-132526148D01*
X230666900Y-133202337D01*
X230032973Y-134561798D01*
X228582880Y-133885609D01*
X228582880Y-133885609D01*
G37*
G36*
X225138910Y-132279659D02*
X225772837Y-130920198D01*
X227222930Y-131596387D01*
X226589003Y-132955848D01*
X225138910Y-132279659D01*
X225138910Y-132279659D01*
G37*
G36*
X227211984Y-135453106D02*
X227845912Y-134093644D01*
X229205374Y-134727572D01*
X228571446Y-136087034D01*
X227211984Y-135453106D01*
X227211984Y-135453106D01*
G37*
D13*
X225906657Y-134016888D03*
D10*
G36*
X229514006Y-136526556D02*
X230147934Y-135167094D01*
X231507396Y-135801022D01*
X230873468Y-137160484D01*
X229514006Y-136526556D01*
X229514006Y-136526556D01*
G37*
D13*
X223604636Y-132943438D03*
D10*
G36*
X228245306Y-139247292D02*
X228879234Y-137887830D01*
X230238696Y-138521758D01*
X229604768Y-139881220D01*
X228245306Y-139247292D01*
X228245306Y-139247292D01*
G37*
D13*
X222335936Y-135664174D03*
D10*
G36*
X226215128Y-138135098D02*
X226722270Y-137047528D01*
X227900470Y-137596932D01*
X227393328Y-138684502D01*
X226215128Y-138135098D01*
X226215128Y-138135098D01*
G37*
G36*
X223677466Y-136951767D02*
X224184608Y-135864197D01*
X225362808Y-136413601D01*
X224855666Y-137501171D01*
X223677466Y-136951767D01*
X223677466Y-136951767D01*
G37*
D14*
X233731052Y-129257724D03*
X226824987Y-126037373D03*
D15*
X233498572Y-126722048D02*
X233315732Y-127077814D01*
X228916863Y-124585562D02*
X228761857Y-124954308D01*
D16*
X233122454Y-140713871D03*
X218440268Y-133867455D03*
X232627777Y-122608477D03*
D10*
G36*
X236612627Y-116665761D02*
X237246554Y-115306300D01*
X238696647Y-115982489D01*
X238062720Y-117341950D01*
X236612627Y-116665761D01*
X236612627Y-116665761D01*
G37*
G36*
X233168657Y-115059811D02*
X233802584Y-113700350D01*
X235252677Y-114376539D01*
X234618750Y-115736000D01*
X233168657Y-115059811D01*
X233168657Y-115059811D01*
G37*
G36*
X235241731Y-118233258D02*
X235875659Y-116873796D01*
X237235121Y-117507724D01*
X236601193Y-118867186D01*
X235241731Y-118233258D01*
X235241731Y-118233258D01*
G37*
D13*
X233936404Y-116797040D03*
D10*
G36*
X237543753Y-119306708D02*
X238177681Y-117947246D01*
X239537143Y-118581174D01*
X238903215Y-119940636D01*
X237543753Y-119306708D01*
X237543753Y-119306708D01*
G37*
D13*
X231634383Y-115723590D03*
D10*
G36*
X236275053Y-122027444D02*
X236908981Y-120667982D01*
X238268443Y-121301910D01*
X237634515Y-122661372D01*
X236275053Y-122027444D01*
X236275053Y-122027444D01*
G37*
D13*
X230365683Y-118444326D03*
D10*
G36*
X234244875Y-120915250D02*
X234752017Y-119827680D01*
X235930217Y-120377084D01*
X235423075Y-121464654D01*
X234244875Y-120915250D01*
X234244875Y-120915250D01*
G37*
G36*
X231707213Y-119731919D02*
X232214355Y-118644349D01*
X233392555Y-119193753D01*
X232885413Y-120281323D01*
X231707213Y-119731919D01*
X231707213Y-119731919D01*
G37*
D14*
X241760799Y-112037876D03*
X234854734Y-108817525D03*
D15*
X241528319Y-109502200D02*
X241345479Y-109857966D01*
X236946610Y-107365714D02*
X236791604Y-107734460D01*
D16*
X241152201Y-123494023D03*
X226470015Y-116647607D03*
X240657524Y-105388629D03*
D10*
G36*
X219392779Y-108636014D02*
X220026706Y-107276553D01*
X221476799Y-107952742D01*
X220842872Y-109312203D01*
X219392779Y-108636014D01*
X219392779Y-108636014D01*
G37*
G36*
X215948809Y-107030064D02*
X216582736Y-105670603D01*
X218032829Y-106346792D01*
X217398902Y-107706253D01*
X215948809Y-107030064D01*
X215948809Y-107030064D01*
G37*
G36*
X218021883Y-110203511D02*
X218655811Y-108844049D01*
X220015273Y-109477977D01*
X219381345Y-110837439D01*
X218021883Y-110203511D01*
X218021883Y-110203511D01*
G37*
D13*
X216716556Y-108767293D03*
D10*
G36*
X220323905Y-111276961D02*
X220957833Y-109917499D01*
X222317295Y-110551427D01*
X221683367Y-111910889D01*
X220323905Y-111276961D01*
X220323905Y-111276961D01*
G37*
D13*
X214414535Y-107693843D03*
D10*
G36*
X219055205Y-113997697D02*
X219689133Y-112638235D01*
X221048595Y-113272163D01*
X220414667Y-114631625D01*
X219055205Y-113997697D01*
X219055205Y-113997697D01*
G37*
D13*
X213145835Y-110414579D03*
D10*
G36*
X217025027Y-112885503D02*
X217532169Y-111797933D01*
X218710369Y-112347337D01*
X218203227Y-113434907D01*
X217025027Y-112885503D01*
X217025027Y-112885503D01*
G37*
G36*
X214487365Y-111702172D02*
X214994507Y-110614602D01*
X216172707Y-111164006D01*
X215665565Y-112251576D01*
X214487365Y-111702172D01*
X214487365Y-111702172D01*
G37*
D14*
X224540951Y-104008129D03*
X217634886Y-100787778D03*
D15*
X224308471Y-101472453D02*
X224125631Y-101828219D01*
X219726762Y-99335967D02*
X219571756Y-99704713D01*
D16*
X223932353Y-115464276D03*
X209250167Y-108617860D03*
X223437676Y-97358882D03*
D17*
X200650000Y-35580000D03*
X196850000Y-35580000D03*
D18*
X200020000Y-37580000D03*
D13*
X197480000Y-37580000D03*
D18*
X202560000Y-37580000D03*
D13*
X194940000Y-37580000D03*
D18*
X202560000Y-40582000D03*
D13*
X194940000Y-40582000D03*
D19*
X200150000Y-40582000D03*
X197350000Y-40582000D03*
D14*
X202560000Y-29960000D03*
X194940000Y-29960000D03*
D15*
X201277678Y-27760147D02*
X201262322Y-28159853D01*
X196222322Y-27760147D02*
X196237678Y-28159853D01*
D16*
X206850000Y-40600000D03*
X190650000Y-40600000D03*
X198750000Y-24400000D03*
D20*
X201830000Y-54350000D03*
X201830000Y-58150000D03*
D18*
X203830000Y-54980000D03*
D13*
X203830000Y-57520000D03*
D18*
X203830000Y-52440000D03*
D13*
X203830000Y-60060000D03*
D18*
X206832000Y-52440000D03*
D13*
X206832000Y-60060000D03*
D21*
X206832000Y-54850000D03*
X206832000Y-57650000D03*
D14*
X196210000Y-52440000D03*
X196210000Y-60060000D03*
D15*
X194010147Y-53722322D02*
X194409853Y-53737678D01*
X194010147Y-58777678D02*
X194409853Y-58762322D01*
D16*
X206850000Y-48150000D03*
X206850000Y-64350000D03*
X190650000Y-56250000D03*
D20*
X201830000Y-82850000D03*
X201830000Y-86650000D03*
D18*
X203830000Y-83480000D03*
D13*
X203830000Y-86020000D03*
D18*
X203830000Y-80940000D03*
D13*
X203830000Y-88560000D03*
D18*
X206832000Y-80940000D03*
D13*
X206832000Y-88560000D03*
D21*
X206832000Y-83350000D03*
X206832000Y-86150000D03*
D14*
X196210000Y-80940000D03*
X196210000Y-88560000D03*
D15*
X194010147Y-82222322D02*
X194409853Y-82237678D01*
X194010147Y-87277678D02*
X194409853Y-87262322D01*
D16*
X206850000Y-76650000D03*
X206850000Y-92850000D03*
X190650000Y-84750000D03*
D17*
X181650000Y-35580000D03*
X177850000Y-35580000D03*
D18*
X181020000Y-37580000D03*
D13*
X178480000Y-37580000D03*
D18*
X183560000Y-37580000D03*
D13*
X175940000Y-37580000D03*
D18*
X183560000Y-40582000D03*
D13*
X175940000Y-40582000D03*
D19*
X181150000Y-40582000D03*
X178350000Y-40582000D03*
D14*
X183560000Y-29960000D03*
X175940000Y-29960000D03*
D15*
X182277678Y-27760147D02*
X182262322Y-28159853D01*
X177222322Y-27760147D02*
X177237678Y-28159853D01*
D16*
X187850000Y-40600000D03*
X171650000Y-40600000D03*
X179750000Y-24400000D03*
D17*
X181650000Y-54580000D03*
X177850000Y-54580000D03*
D18*
X181020000Y-56580000D03*
D13*
X178480000Y-56580000D03*
D18*
X183560000Y-56580000D03*
D13*
X175940000Y-56580000D03*
D18*
X183560000Y-59582000D03*
D13*
X175940000Y-59582000D03*
D19*
X181150000Y-59582000D03*
X178350000Y-59582000D03*
D14*
X183560000Y-48960000D03*
X175940000Y-48960000D03*
D15*
X182277678Y-46760147D02*
X182262322Y-47159853D01*
X177222322Y-46760147D02*
X177237678Y-47159853D01*
D16*
X187850000Y-59600000D03*
X171650000Y-59600000D03*
X179750000Y-43400000D03*
D17*
X181650000Y-73580000D03*
X177850000Y-73580000D03*
D18*
X181020000Y-75580000D03*
D13*
X178480000Y-75580000D03*
D18*
X183560000Y-75580000D03*
D13*
X175940000Y-75580000D03*
D18*
X183560000Y-78582000D03*
D13*
X175940000Y-78582000D03*
D19*
X181150000Y-78582000D03*
X178350000Y-78582000D03*
D14*
X183560000Y-67960000D03*
X175940000Y-67960000D03*
D15*
X182277678Y-65760147D02*
X182262322Y-66159853D01*
X177222322Y-65760147D02*
X177237678Y-66159853D01*
D16*
X187850000Y-78600000D03*
X171650000Y-78600000D03*
X179750000Y-62400000D03*
D17*
X181650000Y-92580000D03*
X177850000Y-92580000D03*
D18*
X181020000Y-94580000D03*
D13*
X178480000Y-94580000D03*
D18*
X183560000Y-94580000D03*
D13*
X175940000Y-94580000D03*
D18*
X183560000Y-97582000D03*
D13*
X175940000Y-97582000D03*
D19*
X181150000Y-97582000D03*
X178350000Y-97582000D03*
D14*
X183560000Y-86960000D03*
X175940000Y-86960000D03*
D15*
X182277678Y-84760147D02*
X182262322Y-85159853D01*
X177222322Y-84760147D02*
X177237678Y-85159853D01*
D16*
X187850000Y-97600000D03*
X171650000Y-97600000D03*
X179750000Y-81400000D03*
D17*
X162650000Y-34080000D03*
X158850000Y-34080000D03*
D18*
X162020000Y-36080000D03*
D13*
X159480000Y-36080000D03*
D18*
X164560000Y-36080000D03*
D13*
X156940000Y-36080000D03*
D18*
X164560000Y-39082000D03*
D13*
X156940000Y-39082000D03*
D19*
X162150000Y-39082000D03*
X159350000Y-39082000D03*
D14*
X164560000Y-28460000D03*
X156940000Y-28460000D03*
D15*
X163277678Y-26260147D02*
X163262322Y-26659853D01*
X158222322Y-26260147D02*
X158237678Y-26659853D01*
D16*
X168850000Y-39100000D03*
X152650000Y-39100000D03*
X160750000Y-22900000D03*
D17*
X162650000Y-53080000D03*
X158850000Y-53080000D03*
D18*
X162020000Y-55080000D03*
D13*
X159480000Y-55080000D03*
D18*
X164560000Y-55080000D03*
D13*
X156940000Y-55080000D03*
D18*
X164560000Y-58082000D03*
D13*
X156940000Y-58082000D03*
D19*
X162150000Y-58082000D03*
X159350000Y-58082000D03*
D14*
X164560000Y-47460000D03*
X156940000Y-47460000D03*
D15*
X163277678Y-45260147D02*
X163262322Y-45659853D01*
X158222322Y-45260147D02*
X158237678Y-45659853D01*
D16*
X168850000Y-58100000D03*
X152650000Y-58100000D03*
X160750000Y-41900000D03*
D17*
X162650000Y-72080000D03*
X158850000Y-72080000D03*
D18*
X162020000Y-74080000D03*
D13*
X159480000Y-74080000D03*
D18*
X164560000Y-74080000D03*
D13*
X156940000Y-74080000D03*
D18*
X164560000Y-77082000D03*
D13*
X156940000Y-77082000D03*
D19*
X162150000Y-77082000D03*
X159350000Y-77082000D03*
D14*
X164560000Y-66460000D03*
X156940000Y-66460000D03*
D15*
X163277678Y-64260147D02*
X163262322Y-64659853D01*
X158222322Y-64260147D02*
X158237678Y-64659853D01*
D16*
X168850000Y-77100000D03*
X152650000Y-77100000D03*
X160750000Y-60900000D03*
D17*
X162650000Y-91080000D03*
X158850000Y-91080000D03*
D18*
X162020000Y-93080000D03*
D13*
X159480000Y-93080000D03*
D18*
X164560000Y-93080000D03*
D13*
X156940000Y-93080000D03*
D18*
X164560000Y-96082000D03*
D13*
X156940000Y-96082000D03*
D19*
X162150000Y-96082000D03*
X159350000Y-96082000D03*
D14*
X164560000Y-85460000D03*
X156940000Y-85460000D03*
D15*
X163277678Y-83260147D02*
X163262322Y-83659853D01*
X158222322Y-83260147D02*
X158237678Y-83659853D01*
D16*
X168850000Y-96100000D03*
X152650000Y-96100000D03*
X160750000Y-79900000D03*
D17*
X162650000Y-110080000D03*
X158850000Y-110080000D03*
D18*
X162020000Y-112080000D03*
D13*
X159480000Y-112080000D03*
D18*
X164560000Y-112080000D03*
D13*
X156940000Y-112080000D03*
D18*
X164560000Y-115082000D03*
D13*
X156940000Y-115082000D03*
D19*
X162150000Y-115082000D03*
X159350000Y-115082000D03*
D14*
X164560000Y-104460000D03*
X156940000Y-104460000D03*
D15*
X163277678Y-102260147D02*
X163262322Y-102659853D01*
X158222322Y-102260147D02*
X158237678Y-102659853D01*
D16*
X168850000Y-115100000D03*
X152650000Y-115100000D03*
X160750000Y-98900000D03*
D17*
X143650000Y-32580000D03*
X139850000Y-32580000D03*
D18*
X143020000Y-34580000D03*
D13*
X140480000Y-34580000D03*
D18*
X145560000Y-34580000D03*
D13*
X137940000Y-34580000D03*
D18*
X145560000Y-37582000D03*
D13*
X137940000Y-37582000D03*
D19*
X143150000Y-37582000D03*
X140350000Y-37582000D03*
D14*
X145560000Y-26960000D03*
X137940000Y-26960000D03*
D15*
X144277678Y-24760147D02*
X144262322Y-25159853D01*
X139222322Y-24760147D02*
X139237678Y-25159853D01*
D16*
X149850000Y-37600000D03*
X133650000Y-37600000D03*
X141750000Y-21400000D03*
D17*
X143650000Y-51580000D03*
X139850000Y-51580000D03*
D18*
X143020000Y-53580000D03*
D13*
X140480000Y-53580000D03*
D18*
X145560000Y-53580000D03*
D13*
X137940000Y-53580000D03*
D18*
X145560000Y-56582000D03*
D13*
X137940000Y-56582000D03*
D19*
X143150000Y-56582000D03*
X140350000Y-56582000D03*
D14*
X145560000Y-45960000D03*
X137940000Y-45960000D03*
D15*
X144277678Y-43760147D02*
X144262322Y-44159853D01*
X139222322Y-43760147D02*
X139237678Y-44159853D01*
D16*
X149850000Y-56600000D03*
X133650000Y-56600000D03*
X141750000Y-40400000D03*
D17*
X143650000Y-70580000D03*
X139850000Y-70580000D03*
D18*
X143020000Y-72580000D03*
D13*
X140480000Y-72580000D03*
D18*
X145560000Y-72580000D03*
D13*
X137940000Y-72580000D03*
D18*
X145560000Y-75582000D03*
D13*
X137940000Y-75582000D03*
D19*
X143150000Y-75582000D03*
X140350000Y-75582000D03*
D14*
X145560000Y-64960000D03*
X137940000Y-64960000D03*
D15*
X144277678Y-62760147D02*
X144262322Y-63159853D01*
X139222322Y-62760147D02*
X139237678Y-63159853D01*
D16*
X149850000Y-75600000D03*
X133650000Y-75600000D03*
X141750000Y-59400000D03*
D17*
X143650000Y-89580000D03*
X139850000Y-89580000D03*
D18*
X143020000Y-91580000D03*
D13*
X140480000Y-91580000D03*
D18*
X145560000Y-91580000D03*
D13*
X137940000Y-91580000D03*
D18*
X145560000Y-94582000D03*
D13*
X137940000Y-94582000D03*
D19*
X143150000Y-94582000D03*
X140350000Y-94582000D03*
D14*
X145560000Y-83960000D03*
X137940000Y-83960000D03*
D15*
X144277678Y-81760147D02*
X144262322Y-82159853D01*
X139222322Y-81760147D02*
X139237678Y-82159853D01*
D16*
X149850000Y-94600000D03*
X133650000Y-94600000D03*
X141750000Y-78400000D03*
D17*
X143650000Y-108580000D03*
X139850000Y-108580000D03*
D18*
X143020000Y-110580000D03*
D13*
X140480000Y-110580000D03*
D18*
X145560000Y-110580000D03*
D13*
X137940000Y-110580000D03*
D18*
X145560000Y-113582000D03*
D13*
X137940000Y-113582000D03*
D19*
X143150000Y-113582000D03*
X140350000Y-113582000D03*
D14*
X145560000Y-102960000D03*
X137940000Y-102960000D03*
D15*
X144277678Y-100760147D02*
X144262322Y-101159853D01*
X139222322Y-100760147D02*
X139237678Y-101159853D01*
D16*
X149850000Y-113600000D03*
X133650000Y-113600000D03*
X141750000Y-97400000D03*
D17*
X124650000Y-34080000D03*
X120850000Y-34080000D03*
D18*
X124020000Y-36080000D03*
D13*
X121480000Y-36080000D03*
D18*
X126560000Y-36080000D03*
D13*
X118940000Y-36080000D03*
D18*
X126560000Y-39082000D03*
D13*
X118940000Y-39082000D03*
D19*
X124150000Y-39082000D03*
X121350000Y-39082000D03*
D14*
X126560000Y-28460000D03*
X118940000Y-28460000D03*
D15*
X125277678Y-26260147D02*
X125262322Y-26659853D01*
X120222322Y-26260147D02*
X120237678Y-26659853D01*
D16*
X130850000Y-39100000D03*
X114650000Y-39100000D03*
X122750000Y-22900000D03*
D17*
X124650000Y-53080000D03*
X120850000Y-53080000D03*
D18*
X124020000Y-55080000D03*
D13*
X121480000Y-55080000D03*
D18*
X126560000Y-55080000D03*
D13*
X118940000Y-55080000D03*
D18*
X126560000Y-58082000D03*
D13*
X118940000Y-58082000D03*
D19*
X124150000Y-58082000D03*
X121350000Y-58082000D03*
D14*
X126560000Y-47460000D03*
X118940000Y-47460000D03*
D15*
X125277678Y-45260147D02*
X125262322Y-45659853D01*
X120222322Y-45260147D02*
X120237678Y-45659853D01*
D16*
X130850000Y-58100000D03*
X114650000Y-58100000D03*
X122750000Y-41900000D03*
D17*
X124650000Y-72080000D03*
X120850000Y-72080000D03*
D18*
X124020000Y-74080000D03*
D13*
X121480000Y-74080000D03*
D18*
X126560000Y-74080000D03*
D13*
X118940000Y-74080000D03*
D18*
X126560000Y-77082000D03*
D13*
X118940000Y-77082000D03*
D19*
X124150000Y-77082000D03*
X121350000Y-77082000D03*
D14*
X126560000Y-66460000D03*
X118940000Y-66460000D03*
D15*
X125277678Y-64260147D02*
X125262322Y-64659853D01*
X120222322Y-64260147D02*
X120237678Y-64659853D01*
D16*
X130850000Y-77100000D03*
X114650000Y-77100000D03*
X122750000Y-60900000D03*
D17*
X124650000Y-91080000D03*
X120850000Y-91080000D03*
D18*
X124020000Y-93080000D03*
D13*
X121480000Y-93080000D03*
D18*
X126560000Y-93080000D03*
D13*
X118940000Y-93080000D03*
D18*
X126560000Y-96082000D03*
D13*
X118940000Y-96082000D03*
D19*
X124150000Y-96082000D03*
X121350000Y-96082000D03*
D14*
X126560000Y-85460000D03*
X118940000Y-85460000D03*
D15*
X125277678Y-83260147D02*
X125262322Y-83659853D01*
X120222322Y-83260147D02*
X120237678Y-83659853D01*
D16*
X130850000Y-96100000D03*
X114650000Y-96100000D03*
X122750000Y-79900000D03*
D17*
X124650000Y-110080000D03*
X120850000Y-110080000D03*
D18*
X124020000Y-112080000D03*
D13*
X121480000Y-112080000D03*
D18*
X126560000Y-112080000D03*
D13*
X118940000Y-112080000D03*
D18*
X126560000Y-115082000D03*
D13*
X118940000Y-115082000D03*
D19*
X124150000Y-115082000D03*
X121350000Y-115082000D03*
D14*
X126560000Y-104460000D03*
X118940000Y-104460000D03*
D15*
X125277678Y-102260147D02*
X125262322Y-102659853D01*
X120222322Y-102260147D02*
X120237678Y-102659853D01*
D16*
X130850000Y-115100000D03*
X114650000Y-115100000D03*
X122750000Y-98900000D03*
D17*
X105650000Y-37080000D03*
X101850000Y-37080000D03*
D18*
X105020000Y-39080000D03*
D13*
X102480000Y-39080000D03*
D18*
X107560000Y-39080000D03*
D13*
X99940000Y-39080000D03*
D18*
X107560000Y-42082000D03*
D13*
X99940000Y-42082000D03*
D19*
X105150000Y-42082000D03*
X102350000Y-42082000D03*
D14*
X107560000Y-31460000D03*
X99940000Y-31460000D03*
D15*
X106277678Y-29260147D02*
X106262322Y-29659853D01*
X101222322Y-29260147D02*
X101237678Y-29659853D01*
D16*
X111850000Y-42100000D03*
X95650000Y-42100000D03*
X103750000Y-25900000D03*
D17*
X105650000Y-56080000D03*
X101850000Y-56080000D03*
D18*
X105020000Y-58080000D03*
D13*
X102480000Y-58080000D03*
D18*
X107560000Y-58080000D03*
D13*
X99940000Y-58080000D03*
D18*
X107560000Y-61082000D03*
D13*
X99940000Y-61082000D03*
D19*
X105150000Y-61082000D03*
X102350000Y-61082000D03*
D14*
X107560000Y-50460000D03*
X99940000Y-50460000D03*
D15*
X106277678Y-48260147D02*
X106262322Y-48659853D01*
X101222322Y-48260147D02*
X101237678Y-48659853D01*
D16*
X111850000Y-61100000D03*
X95650000Y-61100000D03*
X103750000Y-44900000D03*
D17*
X105650000Y-75080000D03*
X101850000Y-75080000D03*
D18*
X105020000Y-77080000D03*
D13*
X102480000Y-77080000D03*
D18*
X107560000Y-77080000D03*
D13*
X99940000Y-77080000D03*
D18*
X107560000Y-80082000D03*
D13*
X99940000Y-80082000D03*
D19*
X105150000Y-80082000D03*
X102350000Y-80082000D03*
D14*
X107560000Y-69460000D03*
X99940000Y-69460000D03*
D15*
X106277678Y-67260147D02*
X106262322Y-67659853D01*
X101222322Y-67260147D02*
X101237678Y-67659853D01*
D16*
X111850000Y-80100000D03*
X95650000Y-80100000D03*
X103750000Y-63900000D03*
D17*
X105650000Y-94080000D03*
X101850000Y-94080000D03*
D18*
X105020000Y-96080000D03*
D13*
X102480000Y-96080000D03*
D18*
X107560000Y-96080000D03*
D13*
X99940000Y-96080000D03*
D18*
X107560000Y-99082000D03*
D13*
X99940000Y-99082000D03*
D19*
X105150000Y-99082000D03*
X102350000Y-99082000D03*
D14*
X107560000Y-88460000D03*
X99940000Y-88460000D03*
D15*
X106277678Y-86260147D02*
X106262322Y-86659853D01*
X101222322Y-86260147D02*
X101237678Y-86659853D01*
D16*
X111850000Y-99100000D03*
X95650000Y-99100000D03*
X103750000Y-82900000D03*
D17*
X105650000Y-113080000D03*
X101850000Y-113080000D03*
D18*
X105020000Y-115080000D03*
D13*
X102480000Y-115080000D03*
D18*
X107560000Y-115080000D03*
D13*
X99940000Y-115080000D03*
D18*
X107560000Y-118082000D03*
D13*
X99940000Y-118082000D03*
D19*
X105150000Y-118082000D03*
X102350000Y-118082000D03*
D14*
X107560000Y-107460000D03*
X99940000Y-107460000D03*
D15*
X106277678Y-105260147D02*
X106262322Y-105659853D01*
X101222322Y-105260147D02*
X101237678Y-105659853D01*
D16*
X111850000Y-118100000D03*
X95650000Y-118100000D03*
X103750000Y-101900000D03*
D17*
X81900000Y-37080000D03*
X78100000Y-37080000D03*
D18*
X81270000Y-39080000D03*
D13*
X78730000Y-39080000D03*
D18*
X83810000Y-39080000D03*
D13*
X76190000Y-39080000D03*
D18*
X83810000Y-42082000D03*
D13*
X76190000Y-42082000D03*
D19*
X81400000Y-42082000D03*
X78600000Y-42082000D03*
D14*
X83810000Y-31460000D03*
X76190000Y-31460000D03*
D15*
X82527678Y-29260147D02*
X82512322Y-29659853D01*
X77472322Y-29260147D02*
X77487678Y-29659853D01*
D16*
X88100000Y-42100000D03*
X71900000Y-42100000D03*
X80000000Y-25900000D03*
D17*
X81900000Y-56080000D03*
X78100000Y-56080000D03*
D18*
X81270000Y-58080000D03*
D13*
X78730000Y-58080000D03*
D18*
X83810000Y-58080000D03*
D13*
X76190000Y-58080000D03*
D18*
X83810000Y-61082000D03*
D13*
X76190000Y-61082000D03*
D19*
X81400000Y-61082000D03*
X78600000Y-61082000D03*
D14*
X83810000Y-50460000D03*
X76190000Y-50460000D03*
D15*
X82527678Y-48260147D02*
X82512322Y-48659853D01*
X77472322Y-48260147D02*
X77487678Y-48659853D01*
D16*
X88100000Y-61100000D03*
X71900000Y-61100000D03*
X80000000Y-44900000D03*
D17*
X81900000Y-75080000D03*
X78100000Y-75080000D03*
D18*
X81270000Y-77080000D03*
D13*
X78730000Y-77080000D03*
D18*
X83810000Y-77080000D03*
D13*
X76190000Y-77080000D03*
D18*
X83810000Y-80082000D03*
D13*
X76190000Y-80082000D03*
D19*
X81400000Y-80082000D03*
X78600000Y-80082000D03*
D14*
X83810000Y-69460000D03*
X76190000Y-69460000D03*
D15*
X82527678Y-67260147D02*
X82512322Y-67659853D01*
X77472322Y-67260147D02*
X77487678Y-67659853D01*
D16*
X88100000Y-80100000D03*
X71900000Y-80100000D03*
X80000000Y-63900000D03*
D17*
X81900000Y-94080000D03*
X78100000Y-94080000D03*
D18*
X81270000Y-96080000D03*
D13*
X78730000Y-96080000D03*
D18*
X83810000Y-96080000D03*
D13*
X76190000Y-96080000D03*
D18*
X83810000Y-99082000D03*
D13*
X76190000Y-99082000D03*
D19*
X81400000Y-99082000D03*
X78600000Y-99082000D03*
D14*
X83810000Y-88460000D03*
X76190000Y-88460000D03*
D15*
X82527678Y-86260147D02*
X82512322Y-86659853D01*
X77472322Y-86260147D02*
X77487678Y-86659853D01*
D16*
X88100000Y-99100000D03*
X71900000Y-99100000D03*
X80000000Y-82900000D03*
D17*
X86650000Y-113080000D03*
X82850000Y-113080000D03*
D18*
X86020000Y-115080000D03*
D13*
X83480000Y-115080000D03*
D18*
X88560000Y-115080000D03*
D13*
X80940000Y-115080000D03*
D18*
X88560000Y-118082000D03*
D13*
X80940000Y-118082000D03*
D19*
X86150000Y-118082000D03*
X83350000Y-118082000D03*
D14*
X88560000Y-107460000D03*
X80940000Y-107460000D03*
D15*
X87277678Y-105260147D02*
X87262322Y-105659853D01*
X82222322Y-105260147D02*
X82237678Y-105659853D01*
D16*
X92850000Y-118100000D03*
X76650000Y-118100000D03*
X84750000Y-101900000D03*
D10*
G36*
X215284432Y-54361421D02*
X216840079Y-53610966D01*
X217590534Y-55166613D01*
X216034887Y-55917068D01*
X215284432Y-54361421D01*
X215284432Y-54361421D01*
G37*
D22*
X218725198Y-53660406D02*
X218725198Y-53660406D01*
X217541093Y-57051733D02*
X217541093Y-57051733D01*
X219828809Y-55948122D02*
X219828809Y-55948122D01*
X218644704Y-59339448D02*
X218644704Y-59339448D01*
X220932420Y-58235838D02*
X220932420Y-58235838D01*
X219748315Y-61627164D02*
X219748315Y-61627164D01*
X222036031Y-60523553D02*
X222036031Y-60523553D01*
X220851926Y-63914880D02*
X220851926Y-63914880D01*
X223139641Y-62811269D02*
X223139641Y-62811269D01*
X221955536Y-66202596D02*
X221955536Y-66202596D01*
X224243252Y-65098985D02*
X224243252Y-65098985D01*
X223059147Y-68490311D02*
X223059147Y-68490311D01*
X225346863Y-67386701D02*
X225346863Y-67386701D01*
X224162758Y-70778027D02*
X224162758Y-70778027D01*
X226450474Y-69674416D02*
X226450474Y-69674416D01*
X225266369Y-73065743D02*
X225266369Y-73065743D01*
X227554084Y-71962132D02*
X227554084Y-71962132D01*
X226369979Y-75353459D02*
X226369979Y-75353459D01*
X228657695Y-74249848D02*
X228657695Y-74249848D01*
X227473590Y-77641174D02*
X227473590Y-77641174D01*
X229761306Y-76537564D02*
X229761306Y-76537564D01*
X228577201Y-79928890D02*
X228577201Y-79928890D01*
X230864917Y-78825279D02*
X230864917Y-78825279D01*
X229680812Y-82216606D02*
X229680812Y-82216606D01*
X231968527Y-81112995D02*
X231968527Y-81112995D01*
D23*
X187850000Y-61500000D03*
X187800000Y-69000000D03*
X196800000Y-63200000D03*
X196800000Y-74950000D03*
X216400000Y-47200000D03*
X215800000Y-48300000D03*
X215100000Y-49350000D03*
X191600000Y-42000000D03*
X186900000Y-42000000D03*
X170200000Y-55300000D03*
X173100000Y-55450000D03*
X151250000Y-54050000D03*
X154050000Y-54050000D03*
X167550000Y-59500000D03*
X172700000Y-60850000D03*
X167550000Y-60950000D03*
X172650000Y-62250000D03*
X153750000Y-59750000D03*
X148550000Y-58100000D03*
X134850000Y-54000000D03*
X132250000Y-54000000D03*
X148500000Y-59700000D03*
X153800000Y-61200000D03*
X167550000Y-62450000D03*
X172650000Y-63500000D03*
X135000000Y-58150000D03*
X129500000Y-59500000D03*
X115950000Y-55150000D03*
X113200000Y-55100000D03*
X94400000Y-57600000D03*
X96850000Y-57600000D03*
X110450000Y-65200000D03*
X116400000Y-65200000D03*
X129600000Y-64800000D03*
X134950000Y-64800000D03*
X148500000Y-61550000D03*
X153800000Y-62550000D03*
X167550000Y-63950000D03*
X172650000Y-64950000D03*
X227375000Y-89275000D03*
X202500000Y-43800000D03*
X220625000Y-72775000D03*
X226000000Y-90500000D03*
X184750000Y-64475000D03*
X194875000Y-69300000D03*
X218625000Y-73675000D03*
X224300000Y-90575000D03*
X206850000Y-73575000D03*
X216950000Y-73575000D03*
X227375000Y-90650000D03*
X236775000Y-84050000D03*
X209850000Y-82875000D03*
X227425000Y-92250000D03*
X238100000Y-87950000D03*
X219950000Y-131375000D03*
X219950000Y-136275000D03*
X225850000Y-118350000D03*
X227275000Y-114975000D03*
X200600000Y-120425000D03*
X197600000Y-117400000D03*
X205325000Y-123225000D03*
D24*
X187850000Y-68950000D02*
X187850000Y-61500000D01*
X187800000Y-69000000D02*
X187850000Y-68950000D01*
X196800000Y-74950000D02*
X196800000Y-63200000D01*
X187850000Y-59600000D02*
X192300000Y-59600000D01*
X198100000Y-62900000D02*
X205700000Y-62900000D01*
X197000000Y-61800000D02*
X198100000Y-62900000D01*
X194500000Y-61800000D02*
X197000000Y-61800000D01*
X192300000Y-59600000D02*
X194500000Y-61800000D01*
X187850000Y-97600000D02*
X187850000Y-93750000D01*
X188750000Y-92850000D02*
X206850000Y-92850000D01*
X187850000Y-93750000D02*
X188750000Y-92850000D01*
X190650000Y-84750000D02*
X186250000Y-84750000D01*
X182900000Y-81400000D02*
X179750000Y-81400000D01*
X186250000Y-84750000D02*
X182900000Y-81400000D01*
X122750000Y-60900000D02*
X130900000Y-60900000D01*
X132400000Y-59400000D02*
X141750000Y-59400000D01*
X130900000Y-60900000D02*
X132400000Y-59400000D01*
X103750000Y-63900000D02*
X112000000Y-63900000D01*
X115000000Y-60900000D02*
X122750000Y-60900000D01*
X112000000Y-63900000D02*
X115000000Y-60900000D01*
X122750000Y-79900000D02*
X131000000Y-79900000D01*
X132500000Y-78400000D02*
X141750000Y-78400000D01*
X131000000Y-79900000D02*
X132500000Y-78400000D01*
X103750000Y-82900000D02*
X111800000Y-82900000D01*
X114800000Y-79900000D02*
X122750000Y-79900000D01*
X111800000Y-82900000D02*
X114800000Y-79900000D01*
X122750000Y-98900000D02*
X130800000Y-98900000D01*
X132300000Y-97400000D02*
X141750000Y-97400000D01*
X130800000Y-98900000D02*
X132300000Y-97400000D01*
X103750000Y-101900000D02*
X111900000Y-101900000D01*
X114900000Y-98900000D02*
X122750000Y-98900000D01*
X111900000Y-101900000D02*
X114900000Y-98900000D01*
X122750000Y-41900000D02*
X131000000Y-41900000D01*
X132500000Y-40400000D02*
X141750000Y-40400000D01*
X131000000Y-41900000D02*
X132500000Y-40400000D01*
X103750000Y-44900000D02*
X112000000Y-44900000D01*
X115000000Y-41900000D02*
X122750000Y-41900000D01*
X112000000Y-44900000D02*
X115000000Y-41900000D01*
X160750000Y-79900000D02*
X143250000Y-79900000D01*
X143250000Y-79900000D02*
X141750000Y-78400000D01*
X130850000Y-77100000D02*
X132150000Y-77100000D01*
X132150000Y-77100000D02*
X133650000Y-75600000D01*
X149850000Y-75600000D02*
X151150000Y-75600000D01*
X151150000Y-75600000D02*
X152650000Y-77100000D01*
X168850000Y-77100000D02*
X170150000Y-77100000D01*
X170150000Y-77100000D02*
X171650000Y-78600000D01*
X179750000Y-81400000D02*
X162250000Y-81400000D01*
X162250000Y-81400000D02*
X160750000Y-79900000D01*
X160750000Y-98900000D02*
X143250000Y-98900000D01*
X143250000Y-98900000D02*
X141750000Y-97400000D01*
X168850000Y-96100000D02*
X170150000Y-96100000D01*
X170150000Y-96100000D02*
X171650000Y-97600000D01*
X149850000Y-113600000D02*
X151150000Y-113600000D01*
X151150000Y-113600000D02*
X152650000Y-115100000D01*
X149850000Y-94600000D02*
X151150000Y-94600000D01*
X151150000Y-94600000D02*
X152650000Y-96100000D01*
X130850000Y-115100000D02*
X132150000Y-115100000D01*
X132150000Y-115100000D02*
X133650000Y-113600000D01*
X130850000Y-96100000D02*
X132150000Y-96100000D01*
X132150000Y-96100000D02*
X133650000Y-94600000D01*
X179750000Y-43400000D02*
X182300000Y-43400000D01*
X182300000Y-43400000D02*
X190650000Y-51750000D01*
X160750000Y-41900000D02*
X143250000Y-41900000D01*
X143250000Y-41900000D02*
X141750000Y-40400000D01*
X179750000Y-43400000D02*
X162250000Y-43400000D01*
X162250000Y-43400000D02*
X160750000Y-41900000D01*
X168850000Y-58100000D02*
X170150000Y-58100000D01*
X170150000Y-58100000D02*
X171650000Y-59600000D01*
X149850000Y-56600000D02*
X151150000Y-56600000D01*
X151150000Y-56600000D02*
X152650000Y-58100000D01*
X130850000Y-58100000D02*
X132150000Y-58100000D01*
X132150000Y-58100000D02*
X133650000Y-56600000D01*
X179750000Y-24400000D02*
X198750000Y-24400000D01*
X187850000Y-40600000D02*
X190650000Y-40600000D01*
X168850000Y-39100000D02*
X170150000Y-39100000D01*
X170150000Y-39100000D02*
X171650000Y-40600000D01*
X160750000Y-22900000D02*
X168400000Y-22900000D01*
X169900000Y-24400000D02*
X179750000Y-24400000D01*
X168400000Y-22900000D02*
X169900000Y-24400000D01*
X141750000Y-21400000D02*
X149500000Y-21400000D01*
X151000000Y-22900000D02*
X160750000Y-22900000D01*
X149500000Y-21400000D02*
X151000000Y-22900000D01*
X122750000Y-22900000D02*
X132800000Y-22900000D01*
X134300000Y-21400000D02*
X141750000Y-21400000D01*
X132800000Y-22900000D02*
X134300000Y-21400000D01*
X103750000Y-25900000D02*
X113900000Y-25900000D01*
X116900000Y-22900000D02*
X122750000Y-22900000D01*
X113900000Y-25900000D02*
X116900000Y-22900000D01*
X149850000Y-37600000D02*
X151150000Y-37600000D01*
X151150000Y-37600000D02*
X152650000Y-39100000D01*
X130850000Y-39100000D02*
X132150000Y-39100000D01*
X132150000Y-39100000D02*
X133650000Y-37600000D01*
X80000000Y-25900000D02*
X103750000Y-25900000D01*
X80000000Y-44900000D02*
X103750000Y-44900000D01*
X88100000Y-42100000D02*
X95650000Y-42100000D01*
X111850000Y-42100000D02*
X111850000Y-41900000D01*
X111850000Y-41900000D02*
X114650000Y-39100000D01*
X111850000Y-61100000D02*
X111850000Y-60900000D01*
X111850000Y-60900000D02*
X114650000Y-58100000D01*
X88100000Y-61100000D02*
X95650000Y-61100000D01*
X80000000Y-63900000D02*
X103750000Y-63900000D01*
X111850000Y-80100000D02*
X111850000Y-79900000D01*
X111850000Y-79900000D02*
X114650000Y-77100000D01*
X88100000Y-80100000D02*
X95650000Y-80100000D01*
X80000000Y-82900000D02*
X103750000Y-82900000D01*
X111850000Y-99100000D02*
X111850000Y-98900000D01*
X111850000Y-98900000D02*
X114650000Y-96100000D01*
X111850000Y-118100000D02*
X111850000Y-117900000D01*
X111850000Y-117900000D02*
X114650000Y-115100000D01*
X92850000Y-118100000D02*
X95650000Y-118100000D01*
X228562334Y-99748549D02*
X240657524Y-105388629D01*
X223437676Y-97358882D02*
X228562334Y-99748549D01*
X210410521Y-151087303D02*
X210410521Y-142771260D01*
X210410521Y-142771260D02*
X211887733Y-141294048D01*
X218734149Y-126611862D02*
X223932353Y-115464276D01*
X223932353Y-115464276D02*
X226470015Y-116647607D01*
X201514301Y-118582115D02*
X218734149Y-126611862D01*
X218440268Y-133867455D02*
X218440268Y-126905743D01*
X218440268Y-126905743D02*
X218734149Y-126611862D01*
X216400000Y-47200000D02*
X219000000Y-47800000D01*
X220547697Y-51077476D02*
X220700000Y-51400000D01*
X219000000Y-47800000D02*
X220547697Y-51077476D01*
X222600000Y-57800000D02*
X222036031Y-60523553D01*
X221400000Y-52750000D02*
X220750000Y-51500000D01*
X222600000Y-57800000D02*
X221400000Y-52750000D01*
X220547697Y-51077476D02*
X220750000Y-51500000D01*
X215800000Y-48300000D02*
X218800000Y-48700000D01*
X218800000Y-48700000D02*
X220250000Y-51750000D01*
X221450000Y-55900000D02*
X220932420Y-58235838D01*
X220900000Y-53050000D02*
X220250000Y-51750000D01*
X221450000Y-55900000D02*
X220900000Y-53050000D01*
X215100000Y-49350000D02*
X218550000Y-49550000D01*
X218550000Y-49550000D02*
X219700000Y-52050000D01*
X220400000Y-53400000D02*
X219828809Y-55948122D01*
X220400000Y-53400000D02*
X219700000Y-52050000D01*
X186900000Y-42000000D02*
X191600000Y-42000000D01*
X208240000Y-52440000D02*
X208400000Y-52600000D01*
X208400000Y-52600000D02*
X208400000Y-79372000D01*
X208400000Y-79372000D02*
X206832000Y-80940000D01*
X206832000Y-52440000D02*
X208240000Y-52440000D01*
X170200000Y-55300000D02*
X170350000Y-55450000D01*
X170350000Y-55450000D02*
X173100000Y-55450000D01*
X151250000Y-54050000D02*
X154050000Y-54050000D01*
X167550000Y-59500000D02*
X168900000Y-60850000D01*
X168900000Y-60850000D02*
X172700000Y-60850000D01*
X162550000Y-60900000D02*
X160750000Y-60900000D01*
X169200000Y-67550000D02*
X162550000Y-60900000D01*
X172900000Y-67550000D02*
X169200000Y-67550000D01*
X178050000Y-62400000D02*
X172900000Y-67550000D01*
X179750000Y-62400000D02*
X178050000Y-62400000D01*
X167550000Y-60950000D02*
X168850000Y-62250000D01*
X168850000Y-62250000D02*
X172650000Y-62250000D01*
X150200000Y-59750000D02*
X153750000Y-59750000D01*
X148550000Y-58100000D02*
X150200000Y-59750000D01*
X132250000Y-54000000D02*
X134850000Y-54000000D01*
X143500000Y-59400000D02*
X147250000Y-63150000D01*
X147250000Y-63150000D02*
X147250000Y-65150000D01*
X147250000Y-65150000D02*
X148050000Y-65950000D01*
X148050000Y-65950000D02*
X154000000Y-65950000D01*
X154000000Y-65950000D02*
X159050000Y-60900000D01*
X159050000Y-60900000D02*
X160750000Y-60900000D01*
X141750000Y-59400000D02*
X143500000Y-59400000D01*
X148500000Y-59700000D02*
X150000000Y-61200000D01*
X150000000Y-61200000D02*
X153800000Y-61200000D01*
X167550000Y-62450000D02*
X168600000Y-63500000D01*
X168600000Y-63500000D02*
X172650000Y-63500000D01*
X134850000Y-58150000D02*
X135000000Y-58150000D01*
X134300000Y-58700000D02*
X134850000Y-58150000D01*
X132000000Y-58700000D02*
X134300000Y-58700000D01*
X131150000Y-59550000D02*
X132000000Y-58700000D01*
X129550000Y-59550000D02*
X131150000Y-59550000D01*
X129500000Y-59500000D02*
X129550000Y-59550000D01*
X113250000Y-55150000D02*
X115950000Y-55150000D01*
X113200000Y-55100000D02*
X113250000Y-55150000D01*
X94400000Y-57600000D02*
X96850000Y-57600000D01*
X110450000Y-65200000D02*
X116400000Y-65200000D01*
X129600000Y-64800000D02*
X134950000Y-64800000D01*
X148500000Y-61550000D02*
X149500000Y-62550000D01*
X149500000Y-62550000D02*
X153800000Y-62550000D01*
X167550000Y-63950000D02*
X168550000Y-64950000D01*
X168550000Y-64950000D02*
X172650000Y-64950000D01*
X202800000Y-24400000D02*
X211600000Y-33200000D01*
X211600000Y-33200000D02*
X211600000Y-51300000D01*
X211600000Y-51300000D02*
X214550000Y-54250000D01*
X214550000Y-54250000D02*
X214550000Y-62200000D01*
X214550000Y-62200000D02*
X223128027Y-70778027D01*
X223128027Y-70778027D02*
X224162758Y-70778027D01*
X198750000Y-24400000D02*
X202800000Y-24400000D01*
X209400000Y-40600000D02*
X211025000Y-42225000D01*
X211025000Y-42225000D02*
X211025000Y-51500000D01*
X211025000Y-51500000D02*
X214000000Y-54475000D01*
X214000000Y-54475000D02*
X214000000Y-62425000D01*
X214000000Y-62425000D02*
X221775000Y-70200000D01*
X221775000Y-70200000D02*
X221775000Y-85775000D01*
X221775000Y-85775000D02*
X225275000Y-89275000D01*
X225275000Y-89275000D02*
X227375000Y-89275000D01*
X206850000Y-40600000D02*
X209400000Y-40600000D01*
X202500000Y-43800000D02*
X202560000Y-43740000D01*
X202560000Y-43740000D02*
X202560000Y-40582000D01*
X195825000Y-46575000D02*
X209075000Y-46575000D01*
X209075000Y-46575000D02*
X210450000Y-47950000D01*
X210450000Y-47950000D02*
X210450000Y-51725000D01*
X210450000Y-51725000D02*
X213425000Y-54700000D01*
X213425000Y-54700000D02*
X213425000Y-62675000D01*
X213425000Y-62675000D02*
X220625000Y-69875000D01*
X220625000Y-69875000D02*
X220625000Y-72775000D01*
X190650000Y-51750000D02*
X195825000Y-46575000D01*
X190650000Y-56250000D02*
X190650000Y-51750000D01*
X208975000Y-48150000D02*
X209800000Y-48975000D01*
X209800000Y-48975000D02*
X209800000Y-51900000D01*
X209800000Y-51900000D02*
X212850000Y-54950000D01*
X212850000Y-54950000D02*
X212850000Y-62900000D01*
X212850000Y-62900000D02*
X219650000Y-69700000D01*
X219650000Y-69700000D02*
X219650000Y-84475000D01*
X219650000Y-84475000D02*
X225725000Y-90550000D01*
X225725000Y-90550000D02*
X225950000Y-90550000D01*
X225950000Y-90550000D02*
X226000000Y-90500000D01*
X206850000Y-48150000D02*
X208975000Y-48150000D01*
X182675000Y-62400000D02*
X184750000Y-64475000D01*
X179750000Y-62400000D02*
X182675000Y-62400000D01*
X187850000Y-73325000D02*
X191875000Y-69300000D01*
X191875000Y-69300000D02*
X194875000Y-69300000D01*
X218625000Y-73675000D02*
X218950000Y-74000000D01*
X218950000Y-74000000D02*
X218950000Y-85225000D01*
X218950000Y-85225000D02*
X224300000Y-90575000D01*
X187850000Y-78600000D02*
X187850000Y-73325000D01*
X216950000Y-73575000D02*
X218350000Y-74975000D01*
X218350000Y-74975000D02*
X218350000Y-85875000D01*
X218350000Y-85875000D02*
X224075000Y-91600000D01*
X224075000Y-91600000D02*
X226425000Y-91600000D01*
X226425000Y-91600000D02*
X227375000Y-90650000D01*
X236775000Y-84050000D02*
X234925000Y-81525000D01*
X234925000Y-81525000D02*
X234400000Y-80775000D01*
X232100000Y-77750000D02*
X229761306Y-76537564D01*
X233650000Y-79600000D02*
X234400000Y-80775000D01*
X232100000Y-77750000D02*
X233650000Y-79600000D01*
X206850000Y-76650000D02*
X206850000Y-73575000D01*
X175150000Y-98900000D02*
X175400000Y-99150000D01*
X175400000Y-99150000D02*
X188075000Y-99150000D01*
X188075000Y-99150000D02*
X193200000Y-94025000D01*
X193200000Y-94025000D02*
X207400000Y-94025000D01*
X207400000Y-94025000D02*
X209850000Y-91575000D01*
X209850000Y-91575000D02*
X209850000Y-82875000D01*
X160750000Y-98900000D02*
X175150000Y-98900000D01*
X168850000Y-110400000D02*
X179500000Y-99750000D01*
X179500000Y-99750000D02*
X188350000Y-99750000D01*
X188350000Y-99750000D02*
X193450000Y-94650000D01*
X193450000Y-94650000D02*
X207675000Y-94650000D01*
X207675000Y-94650000D02*
X210075000Y-92250000D01*
X210075000Y-92250000D02*
X227425000Y-92250000D01*
X238100000Y-87950000D02*
X233650000Y-83500000D01*
X233650000Y-83500000D02*
X233650000Y-81200000D01*
X233100000Y-79950000D02*
X230864917Y-78825279D01*
X233100000Y-79950000D02*
X233650000Y-81200000D01*
X168850000Y-115100000D02*
X168850000Y-110400000D01*
X224991118Y-97358882D02*
X229680812Y-92669188D01*
X229680812Y-92669188D02*
X229680812Y-82216606D01*
X223437676Y-97358882D02*
X224991118Y-97358882D01*
X241152201Y-117997799D02*
X243575000Y-115575000D01*
X243575000Y-115575000D02*
X243575000Y-104175000D01*
X243575000Y-104175000D02*
X231968527Y-92568527D01*
X231968527Y-92568527D02*
X231968527Y-81112995D01*
X241152201Y-123494023D02*
X241152201Y-117997799D01*
X224550000Y-122608477D02*
X232627777Y-122608477D01*
X221900000Y-124725000D02*
X224016523Y-122608477D01*
X221900000Y-129425000D02*
X221900000Y-124725000D01*
X220850000Y-130475000D02*
X221900000Y-129425000D01*
X224016523Y-122608477D02*
X224550000Y-122608477D01*
X219950000Y-131375000D02*
X220850000Y-130475000D01*
X223503325Y-139828325D02*
X219950000Y-136275000D01*
X224598030Y-139828325D02*
X223503325Y-139828325D01*
X224550000Y-119650000D02*
X225850000Y-118350000D01*
X227275000Y-114975000D02*
X228562334Y-113687666D01*
X228562334Y-113687666D02*
X228562334Y-99748549D01*
X224550000Y-122608477D02*
X224550000Y-119650000D01*
X200628755Y-124146245D02*
X201550000Y-123225000D01*
X201550000Y-123225000D02*
X201550000Y-121375000D01*
X201550000Y-121375000D02*
X200600000Y-120425000D01*
X197600000Y-117400000D02*
X196300000Y-116100000D01*
X196300000Y-116100000D02*
X186385699Y-116100000D01*
X186385699Y-116100000D02*
X183408907Y-119076792D01*
X200628755Y-127106539D02*
X200628755Y-124146245D01*
X205300000Y-123250000D02*
X205325000Y-123225000D01*
X201500000Y-123250000D02*
X205300000Y-123250000D01*
X200628755Y-124121245D02*
X201500000Y-123250000D01*
X200628755Y-127106539D02*
X200628755Y-124121245D01*
X86475000Y-101900000D02*
X90350000Y-105775000D01*
X90350000Y-105775000D02*
X97675000Y-105775000D01*
X97675000Y-105775000D02*
X101550000Y-101900000D01*
X101550000Y-101900000D02*
X103750000Y-101900000D01*
X84750000Y-101900000D02*
X86475000Y-101900000D01*
X88100000Y-97025000D02*
X88850000Y-96275000D01*
X88850000Y-96275000D02*
X95025000Y-96275000D01*
X95025000Y-96275000D02*
X95650000Y-96900000D01*
X95650000Y-96900000D02*
X95650000Y-99100000D01*
X88100000Y-99100000D02*
X88100000Y-97025000D01*
D25*
G36*
X73950000Y-37430395D02*
X73860023Y-37520216D01*
X73529185Y-38316959D01*
X73273786Y-38338899D01*
X73162220Y-38396753D01*
X73038962Y-38421271D01*
X72900000Y-38514122D01*
X72900000Y-36011774D01*
X73302987Y-36415466D01*
X73950000Y-36684129D01*
X73950000Y-37430395D01*
X73950000Y-37430395D01*
G37*
X73950000Y-37430395D02*
X73860023Y-37520216D01*
X73529185Y-38316959D01*
X73273786Y-38338899D01*
X73162220Y-38396753D01*
X73038962Y-38421271D01*
X72900000Y-38514122D01*
X72900000Y-36011774D01*
X73302987Y-36415466D01*
X73950000Y-36684129D01*
X73950000Y-37430395D01*
G36*
X73950000Y-56430395D02*
X73860023Y-56520216D01*
X73529185Y-57316959D01*
X73273786Y-57338899D01*
X73162220Y-57396753D01*
X73038962Y-57421271D01*
X72900000Y-57514122D01*
X72900000Y-55011774D01*
X73302987Y-55415466D01*
X73950000Y-55684129D01*
X73950000Y-56430395D01*
X73950000Y-56430395D01*
G37*
X73950000Y-56430395D02*
X73860023Y-56520216D01*
X73529185Y-57316959D01*
X73273786Y-57338899D01*
X73162220Y-57396753D01*
X73038962Y-57421271D01*
X72900000Y-57514122D01*
X72900000Y-55011774D01*
X73302987Y-55415466D01*
X73950000Y-55684129D01*
X73950000Y-56430395D01*
G36*
X73950000Y-75430395D02*
X73860023Y-75520216D01*
X73529185Y-76316959D01*
X73273786Y-76338899D01*
X73162220Y-76396753D01*
X73038962Y-76421271D01*
X72900000Y-76514122D01*
X72900000Y-74011774D01*
X73302987Y-74415466D01*
X73950000Y-74684129D01*
X73950000Y-75430395D01*
X73950000Y-75430395D01*
G37*
X73950000Y-75430395D02*
X73860023Y-75520216D01*
X73529185Y-76316959D01*
X73273786Y-76338899D01*
X73162220Y-76396753D01*
X73038962Y-76421271D01*
X72900000Y-76514122D01*
X72900000Y-74011774D01*
X73302987Y-74415466D01*
X73950000Y-74684129D01*
X73950000Y-75430395D01*
G36*
X73950000Y-94430395D02*
X73860023Y-94520216D01*
X73529185Y-95316959D01*
X73273786Y-95338899D01*
X73162220Y-95396753D01*
X73038962Y-95421271D01*
X72900000Y-95514122D01*
X72900000Y-93011774D01*
X73302987Y-93415466D01*
X73950000Y-93684129D01*
X73950000Y-94430395D01*
X73950000Y-94430395D01*
G37*
X73950000Y-94430395D02*
X73860023Y-94520216D01*
X73529185Y-95316959D01*
X73273786Y-95338899D01*
X73162220Y-95396753D01*
X73038962Y-95421271D01*
X72900000Y-95514122D01*
X72900000Y-93011774D01*
X73302987Y-93415466D01*
X73950000Y-93684129D01*
X73950000Y-94430395D01*
G36*
X75541191Y-26900000D02*
X75232000Y-27124229D01*
X74609315Y-28138372D01*
X74484200Y-28923882D01*
X73648207Y-29758418D01*
X73190522Y-30860645D01*
X73189790Y-31698925D01*
X72900000Y-31988210D01*
X72900000Y-26900000D01*
X75541191Y-26900000D01*
X75541191Y-26900000D01*
G37*
X75541191Y-26900000D02*
X75232000Y-27124229D01*
X74609315Y-28138372D01*
X74484200Y-28923882D01*
X73648207Y-29758418D01*
X73190522Y-30860645D01*
X73189790Y-31698925D01*
X72900000Y-31988210D01*
X72900000Y-26900000D01*
X75541191Y-26900000D01*
G36*
X77500208Y-44660474D02*
X77499761Y-45172179D01*
X77352792Y-45148771D01*
X76195381Y-45425574D01*
X75232000Y-46124229D01*
X74609315Y-47138372D01*
X74484200Y-47923882D01*
X73648207Y-48758418D01*
X73190522Y-49860645D01*
X73189790Y-50698925D01*
X72900000Y-50988210D01*
X72900000Y-44391812D01*
X73314286Y-44220633D01*
X73877727Y-43658173D01*
X74630216Y-44411977D01*
X75640591Y-44831522D01*
X76734609Y-44832477D01*
X77325763Y-44588216D01*
X77500208Y-44660474D01*
X77500208Y-44660474D01*
G37*
X77500208Y-44660474D02*
X77499761Y-45172179D01*
X77352792Y-45148771D01*
X76195381Y-45425574D01*
X75232000Y-46124229D01*
X74609315Y-47138372D01*
X74484200Y-47923882D01*
X73648207Y-48758418D01*
X73190522Y-49860645D01*
X73189790Y-50698925D01*
X72900000Y-50988210D01*
X72900000Y-44391812D01*
X73314286Y-44220633D01*
X73877727Y-43658173D01*
X74630216Y-44411977D01*
X75640591Y-44831522D01*
X76734609Y-44832477D01*
X77325763Y-44588216D01*
X77500208Y-44660474D01*
G36*
X77500208Y-63660474D02*
X77499761Y-64172179D01*
X77352792Y-64148771D01*
X76195381Y-64425574D01*
X75232000Y-65124229D01*
X74609315Y-66138372D01*
X74484200Y-66923882D01*
X73648207Y-67758418D01*
X73190522Y-68860645D01*
X73189790Y-69698925D01*
X72900000Y-69988210D01*
X72900000Y-63391812D01*
X73314286Y-63220633D01*
X73877727Y-62658173D01*
X74630216Y-63411977D01*
X75640591Y-63831522D01*
X76734609Y-63832477D01*
X77325763Y-63588216D01*
X77500208Y-63660474D01*
X77500208Y-63660474D01*
G37*
X77500208Y-63660474D02*
X77499761Y-64172179D01*
X77352792Y-64148771D01*
X76195381Y-64425574D01*
X75232000Y-65124229D01*
X74609315Y-66138372D01*
X74484200Y-66923882D01*
X73648207Y-67758418D01*
X73190522Y-68860645D01*
X73189790Y-69698925D01*
X72900000Y-69988210D01*
X72900000Y-63391812D01*
X73314286Y-63220633D01*
X73877727Y-62658173D01*
X74630216Y-63411977D01*
X75640591Y-63831522D01*
X76734609Y-63832477D01*
X77325763Y-63588216D01*
X77500208Y-63660474D01*
G36*
X77500208Y-82660474D02*
X77499761Y-83172179D01*
X77352792Y-83148771D01*
X76195381Y-83425574D01*
X75232000Y-84124229D01*
X74609315Y-85138372D01*
X74484200Y-85923882D01*
X73648207Y-86758418D01*
X73190522Y-87860645D01*
X73189790Y-88698925D01*
X72900000Y-88988210D01*
X72900000Y-82391812D01*
X73314286Y-82220633D01*
X73877727Y-81658173D01*
X74630216Y-82411977D01*
X75640591Y-82831522D01*
X76734609Y-82832477D01*
X77325763Y-82588216D01*
X77500208Y-82660474D01*
X77500208Y-82660474D01*
G37*
X77500208Y-82660474D02*
X77499761Y-83172179D01*
X77352792Y-83148771D01*
X76195381Y-83425574D01*
X75232000Y-84124229D01*
X74609315Y-85138372D01*
X74484200Y-85923882D01*
X73648207Y-86758418D01*
X73190522Y-87860645D01*
X73189790Y-88698925D01*
X72900000Y-88988210D01*
X72900000Y-82391812D01*
X73314286Y-82220633D01*
X73877727Y-81658173D01*
X74630216Y-82411977D01*
X75640591Y-82831522D01*
X76734609Y-82832477D01*
X77325763Y-82588216D01*
X77500208Y-82660474D01*
G36*
X82250189Y-101682000D02*
X82249761Y-102172179D01*
X82102792Y-102148771D01*
X80945381Y-102425574D01*
X79982000Y-103124229D01*
X79359315Y-104138372D01*
X79234200Y-104923882D01*
X78398207Y-105758418D01*
X77940522Y-106860645D01*
X77939790Y-107698925D01*
X77254534Y-108382987D01*
X76819596Y-109430433D01*
X76818607Y-110564591D01*
X77251716Y-111612795D01*
X78052987Y-112415466D01*
X78700000Y-112684129D01*
X78700000Y-113430395D01*
X78610023Y-113520216D01*
X78279185Y-114316959D01*
X78023786Y-114338899D01*
X77912220Y-114396753D01*
X77788962Y-114421271D01*
X77525611Y-114597236D01*
X77244436Y-114743045D01*
X76652926Y-115216252D01*
X73169026Y-101280652D01*
X73314286Y-101220633D01*
X73877727Y-100658173D01*
X74630216Y-101411977D01*
X75640591Y-101831522D01*
X76734609Y-101832477D01*
X77325763Y-101588216D01*
X77552176Y-101682000D01*
X78347825Y-101682000D01*
X79647825Y-101682000D01*
X80000000Y-101536124D01*
X80352176Y-101682000D01*
X81147825Y-101682000D01*
X82250189Y-101682000D01*
X82250189Y-101682000D01*
G37*
X82250189Y-101682000D02*
X82249761Y-102172179D01*
X82102792Y-102148771D01*
X80945381Y-102425574D01*
X79982000Y-103124229D01*
X79359315Y-104138372D01*
X79234200Y-104923882D01*
X78398207Y-105758418D01*
X77940522Y-106860645D01*
X77939790Y-107698925D01*
X77254534Y-108382987D01*
X76819596Y-109430433D01*
X76818607Y-110564591D01*
X77251716Y-111612795D01*
X78052987Y-112415466D01*
X78700000Y-112684129D01*
X78700000Y-113430395D01*
X78610023Y-113520216D01*
X78279185Y-114316959D01*
X78023786Y-114338899D01*
X77912220Y-114396753D01*
X77788962Y-114421271D01*
X77525611Y-114597236D01*
X77244436Y-114743045D01*
X76652926Y-115216252D01*
X73169026Y-101280652D01*
X73314286Y-101220633D01*
X73877727Y-100658173D01*
X74630216Y-101411977D01*
X75640591Y-101831522D01*
X76734609Y-101832477D01*
X77325763Y-101588216D01*
X77552176Y-101682000D01*
X78347825Y-101682000D01*
X79647825Y-101682000D01*
X80000000Y-101536124D01*
X80352176Y-101682000D01*
X81147825Y-101682000D01*
X82250189Y-101682000D01*
G36*
X91280708Y-98402000D02*
X90600364Y-98683112D01*
X90600433Y-98604901D01*
X90516596Y-98402000D01*
X91280708Y-98402000D01*
X91280708Y-98402000D01*
G37*
X91280708Y-98402000D02*
X90600364Y-98683112D01*
X90600433Y-98604901D01*
X90516596Y-98402000D01*
X91280708Y-98402000D01*
G36*
X93232875Y-98402000D02*
X93157822Y-98582747D01*
X92722534Y-98402000D01*
X93232875Y-98402000D01*
X93232875Y-98402000D01*
G37*
X93232875Y-98402000D02*
X93157822Y-98582747D01*
X92722534Y-98402000D01*
X93232875Y-98402000D01*
G36*
X97700000Y-113430395D02*
X97610023Y-113520216D01*
X97279185Y-114316959D01*
X97023786Y-114338899D01*
X96912220Y-114396753D01*
X96788962Y-114421271D01*
X96525611Y-114597236D01*
X96244436Y-114743045D01*
X95173762Y-115599583D01*
X95154901Y-115599567D01*
X94251123Y-115973000D01*
X94246698Y-115973000D01*
X94181479Y-115945918D01*
X91831864Y-112029893D01*
X92245466Y-111617013D01*
X92680404Y-110569567D01*
X92681393Y-109435409D01*
X92248284Y-108387205D01*
X91763925Y-107902000D01*
X96736361Y-107902000D01*
X96254534Y-108382987D01*
X95819596Y-109430433D01*
X95818607Y-110564591D01*
X96251716Y-111612795D01*
X97052987Y-112415466D01*
X97700000Y-112684129D01*
X97700000Y-113430395D01*
X97700000Y-113430395D01*
G37*
X97700000Y-113430395D02*
X97610023Y-113520216D01*
X97279185Y-114316959D01*
X97023786Y-114338899D01*
X96912220Y-114396753D01*
X96788962Y-114421271D01*
X96525611Y-114597236D01*
X96244436Y-114743045D01*
X95173762Y-115599583D01*
X95154901Y-115599567D01*
X94251123Y-115973000D01*
X94246698Y-115973000D01*
X94181479Y-115945918D01*
X91831864Y-112029893D01*
X92245466Y-111617013D01*
X92680404Y-110569567D01*
X92681393Y-109435409D01*
X92248284Y-108387205D01*
X91763925Y-107902000D01*
X96736361Y-107902000D01*
X96254534Y-108382987D01*
X95819596Y-109430433D01*
X95818607Y-110564591D01*
X96251716Y-111612795D01*
X97052987Y-112415466D01*
X97700000Y-112684129D01*
X97700000Y-113430395D01*
G36*
X98427697Y-28027000D02*
X98359315Y-28138372D01*
X98234200Y-28923882D01*
X97398207Y-29758418D01*
X96940522Y-30860645D01*
X96939790Y-31698925D01*
X96254534Y-32382987D01*
X95819596Y-33430433D01*
X95818607Y-34564591D01*
X96251716Y-35612795D01*
X97052987Y-36415466D01*
X97700000Y-36684129D01*
X97700000Y-37430395D01*
X97610023Y-37520216D01*
X97279185Y-38316959D01*
X97023786Y-38338899D01*
X96912220Y-38396753D01*
X96788962Y-38421271D01*
X96525611Y-38597236D01*
X96244436Y-38743045D01*
X95173762Y-39599583D01*
X95154901Y-39599567D01*
X94251123Y-39973000D01*
X89496698Y-39973000D01*
X89431479Y-39945918D01*
X87081864Y-36029893D01*
X87495466Y-35617013D01*
X87930404Y-34569567D01*
X87931393Y-33435409D01*
X87498284Y-32387205D01*
X86809793Y-31697511D01*
X86810519Y-30865881D01*
X86354759Y-29762857D01*
X85515524Y-28922156D01*
X85390685Y-28138372D01*
X85322302Y-28027000D01*
X88921238Y-28027000D01*
X88400626Y-29280774D01*
X88399377Y-30712943D01*
X88946289Y-32036572D01*
X89958101Y-33050152D01*
X91280774Y-33599374D01*
X92712943Y-33600623D01*
X94036572Y-33053711D01*
X95050152Y-32041899D01*
X95599374Y-30719226D01*
X95600623Y-29287057D01*
X95079978Y-28027000D01*
X98427697Y-28027000D01*
X98427697Y-28027000D01*
G37*
X98427697Y-28027000D02*
X98359315Y-28138372D01*
X98234200Y-28923882D01*
X97398207Y-29758418D01*
X96940522Y-30860645D01*
X96939790Y-31698925D01*
X96254534Y-32382987D01*
X95819596Y-33430433D01*
X95818607Y-34564591D01*
X96251716Y-35612795D01*
X97052987Y-36415466D01*
X97700000Y-36684129D01*
X97700000Y-37430395D01*
X97610023Y-37520216D01*
X97279185Y-38316959D01*
X97023786Y-38338899D01*
X96912220Y-38396753D01*
X96788962Y-38421271D01*
X96525611Y-38597236D01*
X96244436Y-38743045D01*
X95173762Y-39599583D01*
X95154901Y-39599567D01*
X94251123Y-39973000D01*
X89496698Y-39973000D01*
X89431479Y-39945918D01*
X87081864Y-36029893D01*
X87495466Y-35617013D01*
X87930404Y-34569567D01*
X87931393Y-33435409D01*
X87498284Y-32387205D01*
X86809793Y-31697511D01*
X86810519Y-30865881D01*
X86354759Y-29762857D01*
X85515524Y-28922156D01*
X85390685Y-28138372D01*
X85322302Y-28027000D01*
X88921238Y-28027000D01*
X88400626Y-29280774D01*
X88399377Y-30712943D01*
X88946289Y-32036572D01*
X89958101Y-33050152D01*
X91280774Y-33599374D01*
X92712943Y-33600623D01*
X94036572Y-33053711D01*
X95050152Y-32041899D01*
X95599374Y-30719226D01*
X95600623Y-29287057D01*
X95079978Y-28027000D01*
X98427697Y-28027000D01*
G36*
X98427697Y-47027000D02*
X98359315Y-47138372D01*
X98234200Y-47923882D01*
X97398207Y-48758418D01*
X96940522Y-49860645D01*
X96939790Y-50698925D01*
X96254534Y-51382987D01*
X95819596Y-52430433D01*
X95818607Y-53564591D01*
X96251716Y-54612795D01*
X96793423Y-55155449D01*
X96365892Y-55155076D01*
X95624285Y-55461501D01*
X94888374Y-55155925D01*
X93915892Y-55155076D01*
X93017111Y-55526445D01*
X92328862Y-56213494D01*
X91955925Y-57111626D01*
X91955076Y-58084108D01*
X92322358Y-58973000D01*
X89496698Y-58973000D01*
X89431479Y-58945918D01*
X87081864Y-55029893D01*
X87495466Y-54617013D01*
X87930404Y-53569567D01*
X87931393Y-52435409D01*
X87498284Y-51387205D01*
X86809793Y-50697511D01*
X86810519Y-49865881D01*
X86354759Y-48762857D01*
X85515524Y-47922156D01*
X85390685Y-47138372D01*
X85322302Y-47027000D01*
X98427697Y-47027000D01*
X98427697Y-47027000D01*
G37*
X98427697Y-47027000D02*
X98359315Y-47138372D01*
X98234200Y-47923882D01*
X97398207Y-48758418D01*
X96940522Y-49860645D01*
X96939790Y-50698925D01*
X96254534Y-51382987D01*
X95819596Y-52430433D01*
X95818607Y-53564591D01*
X96251716Y-54612795D01*
X96793423Y-55155449D01*
X96365892Y-55155076D01*
X95624285Y-55461501D01*
X94888374Y-55155925D01*
X93915892Y-55155076D01*
X93017111Y-55526445D01*
X92328862Y-56213494D01*
X91955925Y-57111626D01*
X91955076Y-58084108D01*
X92322358Y-58973000D01*
X89496698Y-58973000D01*
X89431479Y-58945918D01*
X87081864Y-55029893D01*
X87495466Y-54617013D01*
X87930404Y-53569567D01*
X87931393Y-52435409D01*
X87498284Y-51387205D01*
X86809793Y-50697511D01*
X86810519Y-49865881D01*
X86354759Y-48762857D01*
X85515524Y-47922156D01*
X85390685Y-47138372D01*
X85322302Y-47027000D01*
X98427697Y-47027000D01*
G36*
X98427697Y-66027000D02*
X98359315Y-66138372D01*
X98234200Y-66923882D01*
X97398207Y-67758418D01*
X96940522Y-68860645D01*
X96939790Y-69698925D01*
X96254534Y-70382987D01*
X95819596Y-71430433D01*
X95818607Y-72564591D01*
X96251716Y-73612795D01*
X97052987Y-74415466D01*
X97700000Y-74684129D01*
X97700000Y-75430395D01*
X97610023Y-75520216D01*
X97279185Y-76316959D01*
X97023786Y-76338899D01*
X96912220Y-76396753D01*
X96788962Y-76421271D01*
X96525611Y-76597236D01*
X96244436Y-76743045D01*
X95173762Y-77599583D01*
X95154901Y-77599567D01*
X94251123Y-77973000D01*
X89496698Y-77973000D01*
X89431479Y-77945918D01*
X87081864Y-74029893D01*
X87495466Y-73617013D01*
X87930404Y-72569567D01*
X87931393Y-71435409D01*
X87498284Y-70387205D01*
X86809793Y-69697511D01*
X86810519Y-68865881D01*
X86354759Y-67762857D01*
X85515524Y-66922156D01*
X85390685Y-66138372D01*
X85322302Y-66027000D01*
X98427697Y-66027000D01*
X98427697Y-66027000D01*
G37*
X98427697Y-66027000D02*
X98359315Y-66138372D01*
X98234200Y-66923882D01*
X97398207Y-67758418D01*
X96940522Y-68860645D01*
X96939790Y-69698925D01*
X96254534Y-70382987D01*
X95819596Y-71430433D01*
X95818607Y-72564591D01*
X96251716Y-73612795D01*
X97052987Y-74415466D01*
X97700000Y-74684129D01*
X97700000Y-75430395D01*
X97610023Y-75520216D01*
X97279185Y-76316959D01*
X97023786Y-76338899D01*
X96912220Y-76396753D01*
X96788962Y-76421271D01*
X96525611Y-76597236D01*
X96244436Y-76743045D01*
X95173762Y-77599583D01*
X95154901Y-77599567D01*
X94251123Y-77973000D01*
X89496698Y-77973000D01*
X89431479Y-77945918D01*
X87081864Y-74029893D01*
X87495466Y-73617013D01*
X87930404Y-72569567D01*
X87931393Y-71435409D01*
X87498284Y-70387205D01*
X86809793Y-69697511D01*
X86810519Y-68865881D01*
X86354759Y-67762857D01*
X85515524Y-66922156D01*
X85390685Y-66138372D01*
X85322302Y-66027000D01*
X98427697Y-66027000D01*
G36*
X98427697Y-85027000D02*
X98359315Y-85138372D01*
X98234200Y-85923882D01*
X97398207Y-86758418D01*
X96940522Y-87860645D01*
X96939790Y-88698925D01*
X96254534Y-89382987D01*
X95819596Y-90430433D01*
X95818607Y-91564591D01*
X96251716Y-92612795D01*
X97052987Y-93415466D01*
X97700000Y-93684129D01*
X97700000Y-94430395D01*
X97610023Y-94520216D01*
X97279185Y-95316959D01*
X97091144Y-95333112D01*
X96529016Y-94770984D01*
X95838968Y-94309908D01*
X95025000Y-94148000D01*
X88850000Y-94148000D01*
X88036032Y-94309908D01*
X87903147Y-94398698D01*
X87081864Y-93029893D01*
X87495466Y-92617013D01*
X87930404Y-91569567D01*
X87931393Y-90435409D01*
X87498284Y-89387205D01*
X86809793Y-88697511D01*
X86810519Y-87865881D01*
X86354759Y-86762857D01*
X85515524Y-85922156D01*
X85390685Y-85138372D01*
X85322302Y-85027000D01*
X98427697Y-85027000D01*
X98427697Y-85027000D01*
G37*
X98427697Y-85027000D02*
X98359315Y-85138372D01*
X98234200Y-85923882D01*
X97398207Y-86758418D01*
X96940522Y-87860645D01*
X96939790Y-88698925D01*
X96254534Y-89382987D01*
X95819596Y-90430433D01*
X95818607Y-91564591D01*
X96251716Y-92612795D01*
X97052987Y-93415466D01*
X97700000Y-93684129D01*
X97700000Y-94430395D01*
X97610023Y-94520216D01*
X97279185Y-95316959D01*
X97091144Y-95333112D01*
X96529016Y-94770984D01*
X95838968Y-94309908D01*
X95025000Y-94148000D01*
X88850000Y-94148000D01*
X88036032Y-94309908D01*
X87903147Y-94398698D01*
X87081864Y-93029893D01*
X87495466Y-92617013D01*
X87930404Y-91569567D01*
X87931393Y-90435409D01*
X87498284Y-89387205D01*
X86809793Y-88697511D01*
X86810519Y-87865881D01*
X86354759Y-86762857D01*
X85515524Y-85922156D01*
X85390685Y-85138372D01*
X85322302Y-85027000D01*
X98427697Y-85027000D01*
G36*
X98839344Y-101602623D02*
X96793968Y-103648000D01*
X95213713Y-103648000D01*
X95599374Y-102719226D01*
X95600350Y-101599957D01*
X96145099Y-101600433D01*
X97064286Y-101220633D01*
X97627727Y-100658173D01*
X98380216Y-101411977D01*
X98839344Y-101602623D01*
X98839344Y-101602623D01*
G37*
X98839344Y-101602623D02*
X96793968Y-103648000D01*
X95213713Y-103648000D01*
X95599374Y-102719226D01*
X95600350Y-101599957D01*
X96145099Y-101600433D01*
X97064286Y-101220633D01*
X97627727Y-100658173D01*
X98380216Y-101411977D01*
X98839344Y-101602623D01*
G36*
X112252963Y-57353621D02*
X112241976Y-57380081D01*
X112217187Y-57338766D01*
X112252963Y-57353621D01*
X112252963Y-57353621D01*
G37*
X112252963Y-57353621D02*
X112241976Y-57380081D01*
X112217187Y-57338766D01*
X112252963Y-57353621D01*
G36*
X116700000Y-72430395D02*
X116610023Y-72520216D01*
X116279185Y-73316959D01*
X116023786Y-73338899D01*
X115912220Y-73396753D01*
X115788962Y-73421271D01*
X115525611Y-73597236D01*
X115244436Y-73743045D01*
X114173762Y-74599583D01*
X114154901Y-74599567D01*
X113235714Y-74979367D01*
X112531839Y-75682015D01*
X112241976Y-76380081D01*
X110831864Y-74029893D01*
X111245466Y-73617013D01*
X111680404Y-72569567D01*
X111681393Y-71435409D01*
X111248284Y-70387205D01*
X110559793Y-69697511D01*
X110560519Y-68865881D01*
X110104759Y-67762857D01*
X109986205Y-67644096D01*
X110934108Y-67644924D01*
X111703542Y-67327000D01*
X115148024Y-67327000D01*
X115262854Y-67374681D01*
X115254534Y-67382987D01*
X114819596Y-68430433D01*
X114818607Y-69564591D01*
X115251716Y-70612795D01*
X116052987Y-71415466D01*
X116700000Y-71684129D01*
X116700000Y-72430395D01*
X116700000Y-72430395D01*
G37*
X116700000Y-72430395D02*
X116610023Y-72520216D01*
X116279185Y-73316959D01*
X116023786Y-73338899D01*
X115912220Y-73396753D01*
X115788962Y-73421271D01*
X115525611Y-73597236D01*
X115244436Y-73743045D01*
X114173762Y-74599583D01*
X114154901Y-74599567D01*
X113235714Y-74979367D01*
X112531839Y-75682015D01*
X112241976Y-76380081D01*
X110831864Y-74029893D01*
X111245466Y-73617013D01*
X111680404Y-72569567D01*
X111681393Y-71435409D01*
X111248284Y-70387205D01*
X110559793Y-69697511D01*
X110560519Y-68865881D01*
X110104759Y-67762857D01*
X109986205Y-67644096D01*
X110934108Y-67644924D01*
X111703542Y-67327000D01*
X115148024Y-67327000D01*
X115262854Y-67374681D01*
X115254534Y-67382987D01*
X114819596Y-68430433D01*
X114818607Y-69564591D01*
X115251716Y-70612795D01*
X116052987Y-71415466D01*
X116700000Y-71684129D01*
X116700000Y-72430395D01*
G36*
X117300519Y-25507512D02*
X117234200Y-25923882D01*
X116398207Y-26758418D01*
X115940522Y-27860645D01*
X115939790Y-28698925D01*
X115254534Y-29382987D01*
X114819596Y-30430433D01*
X114818607Y-31564591D01*
X115251716Y-32612795D01*
X116052987Y-33415466D01*
X116700000Y-33684129D01*
X116700000Y-34430395D01*
X116610023Y-34520216D01*
X116279185Y-35316959D01*
X116023786Y-35338899D01*
X115912220Y-35396753D01*
X115788962Y-35421271D01*
X115525611Y-35597236D01*
X115244436Y-35743045D01*
X114173762Y-36599583D01*
X114154901Y-36599567D01*
X113235714Y-36979367D01*
X112531839Y-37682015D01*
X112241976Y-38380081D01*
X110831864Y-36029893D01*
X111245466Y-35617013D01*
X111680404Y-34569567D01*
X111681393Y-33435409D01*
X111248284Y-32387205D01*
X110559793Y-31697511D01*
X110560519Y-30865881D01*
X110104759Y-29762857D01*
X109265524Y-28922156D01*
X109140685Y-28138372D01*
X109072302Y-28027000D01*
X113900000Y-28027000D01*
X114713968Y-27865092D01*
X115404016Y-27404016D01*
X117300519Y-25507512D01*
X117300519Y-25507512D01*
G37*
X117300519Y-25507512D02*
X117234200Y-25923882D01*
X116398207Y-26758418D01*
X115940522Y-27860645D01*
X115939790Y-28698925D01*
X115254534Y-29382987D01*
X114819596Y-30430433D01*
X114818607Y-31564591D01*
X115251716Y-32612795D01*
X116052987Y-33415466D01*
X116700000Y-33684129D01*
X116700000Y-34430395D01*
X116610023Y-34520216D01*
X116279185Y-35316959D01*
X116023786Y-35338899D01*
X115912220Y-35396753D01*
X115788962Y-35421271D01*
X115525611Y-35597236D01*
X115244436Y-35743045D01*
X114173762Y-36599583D01*
X114154901Y-36599567D01*
X113235714Y-36979367D01*
X112531839Y-37682015D01*
X112241976Y-38380081D01*
X110831864Y-36029893D01*
X111245466Y-35617013D01*
X111680404Y-34569567D01*
X111681393Y-33435409D01*
X111248284Y-32387205D01*
X110559793Y-31697511D01*
X110560519Y-30865881D01*
X110104759Y-29762857D01*
X109265524Y-28922156D01*
X109140685Y-28138372D01*
X109072302Y-28027000D01*
X113900000Y-28027000D01*
X114713968Y-27865092D01*
X115404016Y-27404016D01*
X117300519Y-25507512D01*
G36*
X117427697Y-44027000D02*
X117359315Y-44138372D01*
X117234200Y-44923882D01*
X116398207Y-45758418D01*
X115940522Y-46860645D01*
X115939790Y-47698925D01*
X115254534Y-48382987D01*
X114819596Y-49430433D01*
X114818607Y-50564591D01*
X115251716Y-51612795D01*
X116052987Y-52415466D01*
X116700000Y-52684129D01*
X116700000Y-52814561D01*
X116438374Y-52705925D01*
X115465892Y-52705076D01*
X114696457Y-53023000D01*
X114572388Y-53023000D01*
X113688374Y-52655925D01*
X112715892Y-52655076D01*
X111817111Y-53026445D01*
X111680758Y-53162559D01*
X111681393Y-52435409D01*
X111248284Y-51387205D01*
X110559793Y-50697511D01*
X110560519Y-49865881D01*
X110104759Y-48762857D01*
X109265524Y-47922156D01*
X109140685Y-47138372D01*
X109072302Y-47027000D01*
X112000000Y-47027000D01*
X112813968Y-46865092D01*
X113504016Y-46404016D01*
X115881032Y-44027000D01*
X117427697Y-44027000D01*
X117427697Y-44027000D01*
G37*
X117427697Y-44027000D02*
X117359315Y-44138372D01*
X117234200Y-44923882D01*
X116398207Y-45758418D01*
X115940522Y-46860645D01*
X115939790Y-47698925D01*
X115254534Y-48382987D01*
X114819596Y-49430433D01*
X114818607Y-50564591D01*
X115251716Y-51612795D01*
X116052987Y-52415466D01*
X116700000Y-52684129D01*
X116700000Y-52814561D01*
X116438374Y-52705925D01*
X115465892Y-52705076D01*
X114696457Y-53023000D01*
X114572388Y-53023000D01*
X113688374Y-52655925D01*
X112715892Y-52655076D01*
X111817111Y-53026445D01*
X111680758Y-53162559D01*
X111681393Y-52435409D01*
X111248284Y-51387205D01*
X110559793Y-50697511D01*
X110560519Y-49865881D01*
X110104759Y-48762857D01*
X109265524Y-47922156D01*
X109140685Y-47138372D01*
X109072302Y-47027000D01*
X112000000Y-47027000D01*
X112813968Y-46865092D01*
X113504016Y-46404016D01*
X115881032Y-44027000D01*
X117427697Y-44027000D01*
G36*
X117427697Y-82027000D02*
X117359315Y-82138372D01*
X117234200Y-82923882D01*
X116398207Y-83758418D01*
X115940522Y-84860645D01*
X115939790Y-85698925D01*
X115254534Y-86382987D01*
X114819596Y-87430433D01*
X114818607Y-88564591D01*
X115251716Y-89612795D01*
X116052987Y-90415466D01*
X116700000Y-90684129D01*
X116700000Y-91430395D01*
X116610023Y-91520216D01*
X116279185Y-92316959D01*
X116023786Y-92338899D01*
X115912220Y-92396753D01*
X115788962Y-92421271D01*
X115525611Y-92597236D01*
X115244436Y-92743045D01*
X114173762Y-93599583D01*
X114154901Y-93599567D01*
X113235714Y-93979367D01*
X112531839Y-94682015D01*
X112241976Y-95380081D01*
X110831864Y-93029893D01*
X111245466Y-92617013D01*
X111680404Y-91569567D01*
X111681393Y-90435409D01*
X111248284Y-89387205D01*
X110559793Y-88697511D01*
X110560519Y-87865881D01*
X110104759Y-86762857D01*
X109265524Y-85922156D01*
X109140685Y-85138372D01*
X109072302Y-85027000D01*
X111800000Y-85027000D01*
X112613968Y-84865092D01*
X113304016Y-84404016D01*
X115681032Y-82027000D01*
X117427697Y-82027000D01*
X117427697Y-82027000D01*
G37*
X117427697Y-82027000D02*
X117359315Y-82138372D01*
X117234200Y-82923882D01*
X116398207Y-83758418D01*
X115940522Y-84860645D01*
X115939790Y-85698925D01*
X115254534Y-86382987D01*
X114819596Y-87430433D01*
X114818607Y-88564591D01*
X115251716Y-89612795D01*
X116052987Y-90415466D01*
X116700000Y-90684129D01*
X116700000Y-91430395D01*
X116610023Y-91520216D01*
X116279185Y-92316959D01*
X116023786Y-92338899D01*
X115912220Y-92396753D01*
X115788962Y-92421271D01*
X115525611Y-92597236D01*
X115244436Y-92743045D01*
X114173762Y-93599583D01*
X114154901Y-93599567D01*
X113235714Y-93979367D01*
X112531839Y-94682015D01*
X112241976Y-95380081D01*
X110831864Y-93029893D01*
X111245466Y-92617013D01*
X111680404Y-91569567D01*
X111681393Y-90435409D01*
X111248284Y-89387205D01*
X110559793Y-88697511D01*
X110560519Y-87865881D01*
X110104759Y-86762857D01*
X109265524Y-85922156D01*
X109140685Y-85138372D01*
X109072302Y-85027000D01*
X111800000Y-85027000D01*
X112613968Y-84865092D01*
X113304016Y-84404016D01*
X115681032Y-82027000D01*
X117427697Y-82027000D01*
G36*
X117427697Y-101027000D02*
X117359315Y-101138372D01*
X117234200Y-101923882D01*
X116398207Y-102758418D01*
X115940522Y-103860645D01*
X115939790Y-104698925D01*
X115254534Y-105382987D01*
X114819596Y-106430433D01*
X114818607Y-107564591D01*
X115251716Y-108612795D01*
X116052987Y-109415466D01*
X116700000Y-109684129D01*
X116700000Y-110430395D01*
X116610023Y-110520216D01*
X116279185Y-111316959D01*
X116023786Y-111338899D01*
X115912220Y-111396753D01*
X115788962Y-111421271D01*
X115525611Y-111597236D01*
X115244436Y-111743045D01*
X114173762Y-112599583D01*
X114154901Y-112599567D01*
X113235714Y-112979367D01*
X112531839Y-113682015D01*
X112241976Y-114380081D01*
X110831864Y-112029893D01*
X111245466Y-111617013D01*
X111680404Y-110569567D01*
X111681393Y-109435409D01*
X111248284Y-108387205D01*
X110559793Y-107697511D01*
X110560519Y-106865881D01*
X110104759Y-105762857D01*
X109265524Y-104922156D01*
X109140685Y-104138372D01*
X109072302Y-104027000D01*
X111900000Y-104027000D01*
X112713968Y-103865092D01*
X113404016Y-103404016D01*
X115781032Y-101027000D01*
X117427697Y-101027000D01*
X117427697Y-101027000D01*
G37*
X117427697Y-101027000D02*
X117359315Y-101138372D01*
X117234200Y-101923882D01*
X116398207Y-102758418D01*
X115940522Y-103860645D01*
X115939790Y-104698925D01*
X115254534Y-105382987D01*
X114819596Y-106430433D01*
X114818607Y-107564591D01*
X115251716Y-108612795D01*
X116052987Y-109415466D01*
X116700000Y-109684129D01*
X116700000Y-110430395D01*
X116610023Y-110520216D01*
X116279185Y-111316959D01*
X116023786Y-111338899D01*
X115912220Y-111396753D01*
X115788962Y-111421271D01*
X115525611Y-111597236D01*
X115244436Y-111743045D01*
X114173762Y-112599583D01*
X114154901Y-112599567D01*
X113235714Y-112979367D01*
X112531839Y-113682015D01*
X112241976Y-114380081D01*
X110831864Y-112029893D01*
X111245466Y-111617013D01*
X111680404Y-110569567D01*
X111681393Y-109435409D01*
X111248284Y-108387205D01*
X110559793Y-107697511D01*
X110560519Y-106865881D01*
X110104759Y-105762857D01*
X109265524Y-104922156D01*
X109140685Y-104138372D01*
X109072302Y-104027000D01*
X111900000Y-104027000D01*
X112713968Y-103865092D01*
X113404016Y-103404016D01*
X115781032Y-101027000D01*
X117427697Y-101027000D01*
G36*
X135700000Y-70930395D02*
X135610023Y-71020216D01*
X135279185Y-71816959D01*
X135023786Y-71838899D01*
X134912220Y-71896753D01*
X134788962Y-71921271D01*
X134525611Y-72097236D01*
X134244436Y-72243045D01*
X133173762Y-73099583D01*
X133154901Y-73099567D01*
X132235714Y-73479367D01*
X131651478Y-74062584D01*
X129831864Y-71029893D01*
X130245466Y-70617013D01*
X130680404Y-69569567D01*
X130681393Y-68435409D01*
X130248284Y-67387205D01*
X130099784Y-67238446D01*
X130853542Y-66927000D01*
X133698024Y-66927000D01*
X133819554Y-66977463D01*
X133818607Y-68064591D01*
X134251716Y-69112795D01*
X135052987Y-69915466D01*
X135700000Y-70184129D01*
X135700000Y-70930395D01*
X135700000Y-70930395D01*
G37*
X135700000Y-70930395D02*
X135610023Y-71020216D01*
X135279185Y-71816959D01*
X135023786Y-71838899D01*
X134912220Y-71896753D01*
X134788962Y-71921271D01*
X134525611Y-72097236D01*
X134244436Y-72243045D01*
X133173762Y-73099583D01*
X133154901Y-73099567D01*
X132235714Y-73479367D01*
X131651478Y-74062584D01*
X129831864Y-71029893D01*
X130245466Y-70617013D01*
X130680404Y-69569567D01*
X130681393Y-68435409D01*
X130248284Y-67387205D01*
X130099784Y-67238446D01*
X130853542Y-66927000D01*
X133698024Y-66927000D01*
X133819554Y-66977463D01*
X133818607Y-68064591D01*
X134251716Y-69112795D01*
X135052987Y-69915466D01*
X135700000Y-70184129D01*
X135700000Y-70930395D01*
G36*
X136427697Y-23527000D02*
X136359315Y-23638372D01*
X136234200Y-24423882D01*
X135398207Y-25258418D01*
X134940522Y-26360645D01*
X134939790Y-27198925D01*
X134254534Y-27882987D01*
X133819596Y-28930433D01*
X133818607Y-30064591D01*
X134251716Y-31112795D01*
X135052987Y-31915466D01*
X135700000Y-32184129D01*
X135700000Y-32930395D01*
X135610023Y-33020216D01*
X135279185Y-33816959D01*
X135023786Y-33838899D01*
X134912220Y-33896753D01*
X134788962Y-33921271D01*
X134525611Y-34097236D01*
X134244436Y-34243045D01*
X133173762Y-35099583D01*
X133154901Y-35099567D01*
X132235714Y-35479367D01*
X131651478Y-36062584D01*
X129831864Y-33029893D01*
X130245466Y-32617013D01*
X130680404Y-31569567D01*
X130681393Y-30435409D01*
X130248284Y-29387205D01*
X129559793Y-28697511D01*
X129560519Y-27865881D01*
X129104759Y-26762857D01*
X128265524Y-25922156D01*
X128140685Y-25138372D01*
X128072302Y-25027000D01*
X132800000Y-25027000D01*
X133613968Y-24865092D01*
X134304016Y-24404016D01*
X135181032Y-23527000D01*
X136427697Y-23527000D01*
X136427697Y-23527000D01*
G37*
X136427697Y-23527000D02*
X136359315Y-23638372D01*
X136234200Y-24423882D01*
X135398207Y-25258418D01*
X134940522Y-26360645D01*
X134939790Y-27198925D01*
X134254534Y-27882987D01*
X133819596Y-28930433D01*
X133818607Y-30064591D01*
X134251716Y-31112795D01*
X135052987Y-31915466D01*
X135700000Y-32184129D01*
X135700000Y-32930395D01*
X135610023Y-33020216D01*
X135279185Y-33816959D01*
X135023786Y-33838899D01*
X134912220Y-33896753D01*
X134788962Y-33921271D01*
X134525611Y-34097236D01*
X134244436Y-34243045D01*
X133173762Y-35099583D01*
X133154901Y-35099567D01*
X132235714Y-35479367D01*
X131651478Y-36062584D01*
X129831864Y-33029893D01*
X130245466Y-32617013D01*
X130680404Y-31569567D01*
X130681393Y-30435409D01*
X130248284Y-29387205D01*
X129559793Y-28697511D01*
X129560519Y-27865881D01*
X129104759Y-26762857D01*
X128265524Y-25922156D01*
X128140685Y-25138372D01*
X128072302Y-25027000D01*
X132800000Y-25027000D01*
X133613968Y-24865092D01*
X134304016Y-24404016D01*
X135181032Y-23527000D01*
X136427697Y-23527000D01*
G36*
X136427697Y-42527000D02*
X136359315Y-42638372D01*
X136234200Y-43423882D01*
X135398207Y-44258418D01*
X134940522Y-45360645D01*
X134939790Y-46198925D01*
X134254534Y-46882987D01*
X133819596Y-47930433D01*
X133818607Y-49064591D01*
X134251716Y-50112795D01*
X135052987Y-50915466D01*
X135700000Y-51184129D01*
X135700000Y-51706085D01*
X135338374Y-51555925D01*
X134365892Y-51555076D01*
X133596457Y-51873000D01*
X133501975Y-51873000D01*
X132738374Y-51555925D01*
X131765892Y-51555076D01*
X130867111Y-51926445D01*
X130180839Y-52611519D01*
X129831864Y-52029893D01*
X130245466Y-51617013D01*
X130680404Y-50569567D01*
X130681393Y-49435409D01*
X130248284Y-48387205D01*
X129559793Y-47697511D01*
X129560519Y-46865881D01*
X129104759Y-45762857D01*
X128265524Y-44922156D01*
X128140685Y-44138372D01*
X128072302Y-44027000D01*
X131000000Y-44027000D01*
X131813968Y-43865092D01*
X132504016Y-43404016D01*
X133381032Y-42527000D01*
X136427697Y-42527000D01*
X136427697Y-42527000D01*
G37*
X136427697Y-42527000D02*
X136359315Y-42638372D01*
X136234200Y-43423882D01*
X135398207Y-44258418D01*
X134940522Y-45360645D01*
X134939790Y-46198925D01*
X134254534Y-46882987D01*
X133819596Y-47930433D01*
X133818607Y-49064591D01*
X134251716Y-50112795D01*
X135052987Y-50915466D01*
X135700000Y-51184129D01*
X135700000Y-51706085D01*
X135338374Y-51555925D01*
X134365892Y-51555076D01*
X133596457Y-51873000D01*
X133501975Y-51873000D01*
X132738374Y-51555925D01*
X131765892Y-51555076D01*
X130867111Y-51926445D01*
X130180839Y-52611519D01*
X129831864Y-52029893D01*
X130245466Y-51617013D01*
X130680404Y-50569567D01*
X130681393Y-49435409D01*
X130248284Y-48387205D01*
X129559793Y-47697511D01*
X129560519Y-46865881D01*
X129104759Y-45762857D01*
X128265524Y-44922156D01*
X128140685Y-44138372D01*
X128072302Y-44027000D01*
X131000000Y-44027000D01*
X131813968Y-43865092D01*
X132504016Y-43404016D01*
X133381032Y-42527000D01*
X136427697Y-42527000D01*
G36*
X136427697Y-61527000D02*
X136359315Y-61638372D01*
X136234200Y-62423882D01*
X136048491Y-62609267D01*
X135438374Y-62355925D01*
X134465892Y-62355076D01*
X133696457Y-62673000D01*
X132001453Y-62673000D01*
X132404016Y-62404016D01*
X133281032Y-61527000D01*
X136427697Y-61527000D01*
X136427697Y-61527000D01*
G37*
X136427697Y-61527000D02*
X136359315Y-61638372D01*
X136234200Y-62423882D01*
X136048491Y-62609267D01*
X135438374Y-62355925D01*
X134465892Y-62355076D01*
X133696457Y-62673000D01*
X132001453Y-62673000D01*
X132404016Y-62404016D01*
X133281032Y-61527000D01*
X136427697Y-61527000D01*
G36*
X136427697Y-80527000D02*
X136359315Y-80638372D01*
X136234200Y-81423882D01*
X135398207Y-82258418D01*
X134940522Y-83360645D01*
X134939790Y-84198925D01*
X134254534Y-84882987D01*
X133819596Y-85930433D01*
X133818607Y-87064591D01*
X134251716Y-88112795D01*
X135052987Y-88915466D01*
X135700000Y-89184129D01*
X135700000Y-89930395D01*
X135610023Y-90020216D01*
X135279185Y-90816959D01*
X135023786Y-90838899D01*
X134912220Y-90896753D01*
X134788962Y-90921271D01*
X134525611Y-91097236D01*
X134244436Y-91243045D01*
X133173762Y-92099583D01*
X133154901Y-92099567D01*
X132235714Y-92479367D01*
X131651478Y-93062584D01*
X129831864Y-90029893D01*
X130245466Y-89617013D01*
X130680404Y-88569567D01*
X130681393Y-87435409D01*
X130248284Y-86387205D01*
X129559793Y-85697511D01*
X129560519Y-84865881D01*
X129104759Y-83762857D01*
X128265524Y-82922156D01*
X128140685Y-82138372D01*
X128072302Y-82027000D01*
X131000000Y-82027000D01*
X131813968Y-81865092D01*
X132504016Y-81404016D01*
X133381032Y-80527000D01*
X136427697Y-80527000D01*
X136427697Y-80527000D01*
G37*
X136427697Y-80527000D02*
X136359315Y-80638372D01*
X136234200Y-81423882D01*
X135398207Y-82258418D01*
X134940522Y-83360645D01*
X134939790Y-84198925D01*
X134254534Y-84882987D01*
X133819596Y-85930433D01*
X133818607Y-87064591D01*
X134251716Y-88112795D01*
X135052987Y-88915466D01*
X135700000Y-89184129D01*
X135700000Y-89930395D01*
X135610023Y-90020216D01*
X135279185Y-90816959D01*
X135023786Y-90838899D01*
X134912220Y-90896753D01*
X134788962Y-90921271D01*
X134525611Y-91097236D01*
X134244436Y-91243045D01*
X133173762Y-92099583D01*
X133154901Y-92099567D01*
X132235714Y-92479367D01*
X131651478Y-93062584D01*
X129831864Y-90029893D01*
X130245466Y-89617013D01*
X130680404Y-88569567D01*
X130681393Y-87435409D01*
X130248284Y-86387205D01*
X129559793Y-85697511D01*
X129560519Y-84865881D01*
X129104759Y-83762857D01*
X128265524Y-82922156D01*
X128140685Y-82138372D01*
X128072302Y-82027000D01*
X131000000Y-82027000D01*
X131813968Y-81865092D01*
X132504016Y-81404016D01*
X133381032Y-80527000D01*
X136427697Y-80527000D01*
G36*
X136427697Y-99527000D02*
X136359315Y-99638372D01*
X136234200Y-100423882D01*
X135398207Y-101258418D01*
X134940522Y-102360645D01*
X134939790Y-103198925D01*
X134254534Y-103882987D01*
X133819596Y-104930433D01*
X133818607Y-106064591D01*
X134251716Y-107112795D01*
X135052987Y-107915466D01*
X135700000Y-108184129D01*
X135700000Y-108930395D01*
X135610023Y-109020216D01*
X135279185Y-109816959D01*
X135023786Y-109838899D01*
X134912220Y-109896753D01*
X134788962Y-109921271D01*
X134525611Y-110097236D01*
X134244436Y-110243045D01*
X133173762Y-111099583D01*
X133154901Y-111099567D01*
X132235714Y-111479367D01*
X131651478Y-112062584D01*
X129831864Y-109029893D01*
X130245466Y-108617013D01*
X130680404Y-107569567D01*
X130681393Y-106435409D01*
X130248284Y-105387205D01*
X129559793Y-104697511D01*
X129560519Y-103865881D01*
X129104759Y-102762857D01*
X128265524Y-101922156D01*
X128140685Y-101138372D01*
X128072302Y-101027000D01*
X130800000Y-101027000D01*
X131613968Y-100865092D01*
X132304016Y-100404016D01*
X133181032Y-99527000D01*
X136427697Y-99527000D01*
X136427697Y-99527000D01*
G37*
X136427697Y-99527000D02*
X136359315Y-99638372D01*
X136234200Y-100423882D01*
X135398207Y-101258418D01*
X134940522Y-102360645D01*
X134939790Y-103198925D01*
X134254534Y-103882987D01*
X133819596Y-104930433D01*
X133818607Y-106064591D01*
X134251716Y-107112795D01*
X135052987Y-107915466D01*
X135700000Y-108184129D01*
X135700000Y-108930395D01*
X135610023Y-109020216D01*
X135279185Y-109816959D01*
X135023786Y-109838899D01*
X134912220Y-109896753D01*
X134788962Y-109921271D01*
X134525611Y-110097236D01*
X134244436Y-110243045D01*
X133173762Y-111099583D01*
X133154901Y-111099567D01*
X132235714Y-111479367D01*
X131651478Y-112062584D01*
X129831864Y-109029893D01*
X130245466Y-108617013D01*
X130680404Y-107569567D01*
X130681393Y-106435409D01*
X130248284Y-105387205D01*
X129559793Y-104697511D01*
X129560519Y-103865881D01*
X129104759Y-102762857D01*
X128265524Y-101922156D01*
X128140685Y-101138372D01*
X128072302Y-101027000D01*
X130800000Y-101027000D01*
X131613968Y-100865092D01*
X132304016Y-100404016D01*
X133181032Y-99527000D01*
X136427697Y-99527000D01*
G36*
X148564082Y-39773000D02*
X147697427Y-39773000D01*
X148005518Y-39464909D01*
X148056452Y-39341942D01*
X148432015Y-39718161D01*
X148564082Y-39773000D01*
X148564082Y-39773000D01*
G37*
X148564082Y-39773000D02*
X147697427Y-39773000D01*
X148005518Y-39464909D01*
X148056452Y-39341942D01*
X148432015Y-39718161D01*
X148564082Y-39773000D01*
G36*
X148564082Y-77773000D02*
X147697427Y-77773000D01*
X148005518Y-77464909D01*
X148056452Y-77341942D01*
X148432015Y-77718161D01*
X148564082Y-77773000D01*
X148564082Y-77773000D01*
G37*
X148564082Y-77773000D02*
X147697427Y-77773000D01*
X148005518Y-77464909D01*
X148056452Y-77341942D01*
X148432015Y-77718161D01*
X148564082Y-77773000D01*
G36*
X148564082Y-96773000D02*
X147697427Y-96773000D01*
X148005518Y-96464909D01*
X148056452Y-96341942D01*
X148432015Y-96718161D01*
X148564082Y-96773000D01*
X148564082Y-96773000D01*
G37*
X148564082Y-96773000D02*
X147697427Y-96773000D01*
X148005518Y-96464909D01*
X148056452Y-96341942D01*
X148432015Y-96718161D01*
X148564082Y-96773000D01*
G36*
X154700000Y-72430395D02*
X154610023Y-72520216D01*
X154279185Y-73316959D01*
X154023786Y-73338899D01*
X153912220Y-73396753D01*
X153788962Y-73421271D01*
X153525611Y-73597236D01*
X153244436Y-73743045D01*
X152720347Y-74162315D01*
X152654016Y-74095984D01*
X151963968Y-73634908D01*
X151286207Y-73500093D01*
X151267985Y-73481839D01*
X151181479Y-73445918D01*
X148831864Y-69529893D01*
X149245466Y-69117013D01*
X149677317Y-68077000D01*
X152966354Y-68077000D01*
X152819596Y-68430433D01*
X152818607Y-69564591D01*
X153251716Y-70612795D01*
X154052987Y-71415466D01*
X154700000Y-71684129D01*
X154700000Y-72430395D01*
X154700000Y-72430395D01*
G37*
X154700000Y-72430395D02*
X154610023Y-72520216D01*
X154279185Y-73316959D01*
X154023786Y-73338899D01*
X153912220Y-73396753D01*
X153788962Y-73421271D01*
X153525611Y-73597236D01*
X153244436Y-73743045D01*
X152720347Y-74162315D01*
X152654016Y-74095984D01*
X151963968Y-73634908D01*
X151286207Y-73500093D01*
X151267985Y-73481839D01*
X151181479Y-73445918D01*
X148831864Y-69529893D01*
X149245466Y-69117013D01*
X149677317Y-68077000D01*
X152966354Y-68077000D01*
X152819596Y-68430433D01*
X152818607Y-69564591D01*
X153251716Y-70612795D01*
X154052987Y-71415466D01*
X154700000Y-71684129D01*
X154700000Y-72430395D01*
G36*
X155427697Y-25027000D02*
X155359315Y-25138372D01*
X155234200Y-25923882D01*
X154398207Y-26758418D01*
X153940522Y-27860645D01*
X153939790Y-28698925D01*
X153254534Y-29382987D01*
X152819596Y-30430433D01*
X152818607Y-31564591D01*
X153251716Y-32612795D01*
X154052987Y-33415466D01*
X154700000Y-33684129D01*
X154700000Y-34430395D01*
X154610023Y-34520216D01*
X154279185Y-35316959D01*
X154023786Y-35338899D01*
X153912220Y-35396753D01*
X153788962Y-35421271D01*
X153525611Y-35597236D01*
X153244436Y-35743045D01*
X152720347Y-36162315D01*
X152654016Y-36095984D01*
X151963968Y-35634908D01*
X151286207Y-35500093D01*
X151267985Y-35481839D01*
X151181479Y-35445918D01*
X148831864Y-31529893D01*
X149245466Y-31117013D01*
X149680404Y-30069567D01*
X149681393Y-28935409D01*
X149248284Y-27887205D01*
X148559793Y-27197511D01*
X148560519Y-26365881D01*
X148104759Y-25262857D01*
X147265524Y-24422156D01*
X147140685Y-23638372D01*
X147072302Y-23527000D01*
X148618968Y-23527000D01*
X149495984Y-24404016D01*
X150186032Y-24865092D01*
X151000000Y-25027000D01*
X155427697Y-25027000D01*
X155427697Y-25027000D01*
G37*
X155427697Y-25027000D02*
X155359315Y-25138372D01*
X155234200Y-25923882D01*
X154398207Y-26758418D01*
X153940522Y-27860645D01*
X153939790Y-28698925D01*
X153254534Y-29382987D01*
X152819596Y-30430433D01*
X152818607Y-31564591D01*
X153251716Y-32612795D01*
X154052987Y-33415466D01*
X154700000Y-33684129D01*
X154700000Y-34430395D01*
X154610023Y-34520216D01*
X154279185Y-35316959D01*
X154023786Y-35338899D01*
X153912220Y-35396753D01*
X153788962Y-35421271D01*
X153525611Y-35597236D01*
X153244436Y-35743045D01*
X152720347Y-36162315D01*
X152654016Y-36095984D01*
X151963968Y-35634908D01*
X151286207Y-35500093D01*
X151267985Y-35481839D01*
X151181479Y-35445918D01*
X148831864Y-31529893D01*
X149245466Y-31117013D01*
X149680404Y-30069567D01*
X149681393Y-28935409D01*
X149248284Y-27887205D01*
X148559793Y-27197511D01*
X148560519Y-26365881D01*
X148104759Y-25262857D01*
X147265524Y-24422156D01*
X147140685Y-23638372D01*
X147072302Y-23527000D01*
X148618968Y-23527000D01*
X149495984Y-24404016D01*
X150186032Y-24865092D01*
X151000000Y-25027000D01*
X155427697Y-25027000D01*
G36*
X155427697Y-44027000D02*
X155359315Y-44138372D01*
X155234200Y-44923882D01*
X154398207Y-45758418D01*
X153940522Y-46860645D01*
X153939790Y-47698925D01*
X153254534Y-48382987D01*
X152819596Y-49430433D01*
X152818607Y-50564591D01*
X153251716Y-51612795D01*
X153338006Y-51699236D01*
X152796457Y-51923000D01*
X152501975Y-51923000D01*
X151738374Y-51605925D01*
X150765892Y-51605076D01*
X149867111Y-51976445D01*
X149762470Y-52080903D01*
X148831864Y-50529893D01*
X149245466Y-50117013D01*
X149680404Y-49069567D01*
X149681393Y-47935409D01*
X149248284Y-46887205D01*
X148559793Y-46197511D01*
X148560519Y-45365881D01*
X148104759Y-44262857D01*
X147869313Y-44027000D01*
X155427697Y-44027000D01*
X155427697Y-44027000D01*
G37*
X155427697Y-44027000D02*
X155359315Y-44138372D01*
X155234200Y-44923882D01*
X154398207Y-45758418D01*
X153940522Y-46860645D01*
X153939790Y-47698925D01*
X153254534Y-48382987D01*
X152819596Y-49430433D01*
X152818607Y-50564591D01*
X153251716Y-51612795D01*
X153338006Y-51699236D01*
X152796457Y-51923000D01*
X152501975Y-51923000D01*
X151738374Y-51605925D01*
X150765892Y-51605076D01*
X149867111Y-51976445D01*
X149762470Y-52080903D01*
X148831864Y-50529893D01*
X149245466Y-50117013D01*
X149680404Y-49069567D01*
X149681393Y-47935409D01*
X149248284Y-46887205D01*
X148559793Y-46197511D01*
X148560519Y-45365881D01*
X148104759Y-44262857D01*
X147869313Y-44027000D01*
X155427697Y-44027000D01*
G36*
X155427697Y-82027000D02*
X155359315Y-82138372D01*
X155234200Y-82923882D01*
X154398207Y-83758418D01*
X153940522Y-84860645D01*
X153939790Y-85698925D01*
X153254534Y-86382987D01*
X152819596Y-87430433D01*
X152818607Y-88564591D01*
X153251716Y-89612795D01*
X154052987Y-90415466D01*
X154700000Y-90684129D01*
X154700000Y-91430395D01*
X154610023Y-91520216D01*
X154279185Y-92316959D01*
X154023786Y-92338899D01*
X153912220Y-92396753D01*
X153788962Y-92421271D01*
X153525611Y-92597236D01*
X153244436Y-92743045D01*
X152720347Y-93162315D01*
X152654016Y-93095984D01*
X151963968Y-92634908D01*
X151286207Y-92500093D01*
X151267985Y-92481839D01*
X151181479Y-92445918D01*
X148831864Y-88529893D01*
X149245466Y-88117013D01*
X149680404Y-87069567D01*
X149681393Y-85935409D01*
X149248284Y-84887205D01*
X148559793Y-84197511D01*
X148560519Y-83365881D01*
X148104759Y-82262857D01*
X147869313Y-82027000D01*
X155427697Y-82027000D01*
X155427697Y-82027000D01*
G37*
X155427697Y-82027000D02*
X155359315Y-82138372D01*
X155234200Y-82923882D01*
X154398207Y-83758418D01*
X153940522Y-84860645D01*
X153939790Y-85698925D01*
X153254534Y-86382987D01*
X152819596Y-87430433D01*
X152818607Y-88564591D01*
X153251716Y-89612795D01*
X154052987Y-90415466D01*
X154700000Y-90684129D01*
X154700000Y-91430395D01*
X154610023Y-91520216D01*
X154279185Y-92316959D01*
X154023786Y-92338899D01*
X153912220Y-92396753D01*
X153788962Y-92421271D01*
X153525611Y-92597236D01*
X153244436Y-92743045D01*
X152720347Y-93162315D01*
X152654016Y-93095984D01*
X151963968Y-92634908D01*
X151286207Y-92500093D01*
X151267985Y-92481839D01*
X151181479Y-92445918D01*
X148831864Y-88529893D01*
X149245466Y-88117013D01*
X149680404Y-87069567D01*
X149681393Y-85935409D01*
X149248284Y-84887205D01*
X148559793Y-84197511D01*
X148560519Y-83365881D01*
X148104759Y-82262857D01*
X147869313Y-82027000D01*
X155427697Y-82027000D01*
G36*
X155427697Y-101027000D02*
X155359315Y-101138372D01*
X155234200Y-101923882D01*
X154398207Y-102758418D01*
X153940522Y-103860645D01*
X153939790Y-104698925D01*
X153254534Y-105382987D01*
X152819596Y-106430433D01*
X152818607Y-107564591D01*
X153251716Y-108612795D01*
X154052987Y-109415466D01*
X154700000Y-109684129D01*
X154700000Y-110430395D01*
X154610023Y-110520216D01*
X154279185Y-111316959D01*
X154023786Y-111338899D01*
X153912220Y-111396753D01*
X153788962Y-111421271D01*
X153525611Y-111597236D01*
X153244436Y-111743045D01*
X152720347Y-112162315D01*
X152654016Y-112095984D01*
X151963968Y-111634908D01*
X151286207Y-111500093D01*
X151267985Y-111481839D01*
X151181479Y-111445918D01*
X148831864Y-107529893D01*
X149245466Y-107117013D01*
X149680404Y-106069567D01*
X149681393Y-104935409D01*
X149248284Y-103887205D01*
X148559793Y-103197511D01*
X148560519Y-102365881D01*
X148104759Y-101262857D01*
X147869313Y-101027000D01*
X155427697Y-101027000D01*
X155427697Y-101027000D01*
G37*
X155427697Y-101027000D02*
X155359315Y-101138372D01*
X155234200Y-101923882D01*
X154398207Y-102758418D01*
X153940522Y-103860645D01*
X153939790Y-104698925D01*
X153254534Y-105382987D01*
X152819596Y-106430433D01*
X152818607Y-107564591D01*
X153251716Y-108612795D01*
X154052987Y-109415466D01*
X154700000Y-109684129D01*
X154700000Y-110430395D01*
X154610023Y-110520216D01*
X154279185Y-111316959D01*
X154023786Y-111338899D01*
X153912220Y-111396753D01*
X153788962Y-111421271D01*
X153525611Y-111597236D01*
X153244436Y-111743045D01*
X152720347Y-112162315D01*
X152654016Y-112095984D01*
X151963968Y-111634908D01*
X151286207Y-111500093D01*
X151267985Y-111481839D01*
X151181479Y-111445918D01*
X148831864Y-107529893D01*
X149245466Y-107117013D01*
X149680404Y-106069567D01*
X149681393Y-104935409D01*
X149248284Y-103887205D01*
X148559793Y-103197511D01*
X148560519Y-102365881D01*
X148104759Y-101262857D01*
X147869313Y-101027000D01*
X155427697Y-101027000D01*
G36*
X167564082Y-41273000D02*
X166697427Y-41273000D01*
X167005518Y-40964909D01*
X167056452Y-40841942D01*
X167432015Y-41218161D01*
X167564082Y-41273000D01*
X167564082Y-41273000D01*
G37*
X167564082Y-41273000D02*
X166697427Y-41273000D01*
X167005518Y-40964909D01*
X167056452Y-40841942D01*
X167432015Y-41218161D01*
X167564082Y-41273000D01*
G36*
X167564082Y-79273000D02*
X166697427Y-79273000D01*
X167005518Y-78964909D01*
X167056452Y-78841942D01*
X167432015Y-79218161D01*
X167564082Y-79273000D01*
X167564082Y-79273000D01*
G37*
X167564082Y-79273000D02*
X166697427Y-79273000D01*
X167005518Y-78964909D01*
X167056452Y-78841942D01*
X167432015Y-79218161D01*
X167564082Y-79273000D01*
G36*
X173700000Y-73930395D02*
X173610023Y-74020216D01*
X173279185Y-74816959D01*
X173023786Y-74838899D01*
X172912220Y-74896753D01*
X172788962Y-74921271D01*
X172525611Y-75097236D01*
X172244436Y-75243045D01*
X171720347Y-75662315D01*
X171654016Y-75595984D01*
X170963968Y-75134908D01*
X170286207Y-75000093D01*
X170267985Y-74981839D01*
X170181479Y-74945918D01*
X167831864Y-71029893D01*
X168245466Y-70617013D01*
X168678839Y-69573334D01*
X169200000Y-69677000D01*
X171924830Y-69677000D01*
X171819596Y-69930433D01*
X171818607Y-71064591D01*
X172251716Y-72112795D01*
X173052987Y-72915466D01*
X173700000Y-73184129D01*
X173700000Y-73930395D01*
X173700000Y-73930395D01*
G37*
X173700000Y-73930395D02*
X173610023Y-74020216D01*
X173279185Y-74816959D01*
X173023786Y-74838899D01*
X172912220Y-74896753D01*
X172788962Y-74921271D01*
X172525611Y-75097236D01*
X172244436Y-75243045D01*
X171720347Y-75662315D01*
X171654016Y-75595984D01*
X170963968Y-75134908D01*
X170286207Y-75000093D01*
X170267985Y-74981839D01*
X170181479Y-74945918D01*
X167831864Y-71029893D01*
X168245466Y-70617013D01*
X168678839Y-69573334D01*
X169200000Y-69677000D01*
X171924830Y-69677000D01*
X171819596Y-69930433D01*
X171818607Y-71064591D01*
X172251716Y-72112795D01*
X173052987Y-72915466D01*
X173700000Y-73184129D01*
X173700000Y-73930395D01*
G36*
X174427697Y-26527000D02*
X174359315Y-26638372D01*
X174234200Y-27423882D01*
X173398207Y-28258418D01*
X172940522Y-29360645D01*
X172939790Y-30198925D01*
X172254534Y-30882987D01*
X171819596Y-31930433D01*
X171818607Y-33064591D01*
X172251716Y-34112795D01*
X173052987Y-34915466D01*
X173700000Y-35184129D01*
X173700000Y-35930395D01*
X173610023Y-36020216D01*
X173279185Y-36816959D01*
X173023786Y-36838899D01*
X172912220Y-36896753D01*
X172788962Y-36921271D01*
X172525611Y-37097236D01*
X172244436Y-37243045D01*
X171720347Y-37662315D01*
X171654016Y-37595984D01*
X170963968Y-37134908D01*
X170286207Y-37000093D01*
X170267985Y-36981839D01*
X170181479Y-36945918D01*
X167831864Y-33029893D01*
X168245466Y-32617013D01*
X168680404Y-31569567D01*
X168681393Y-30435409D01*
X168248284Y-29387205D01*
X167559793Y-28697511D01*
X167560519Y-27865881D01*
X167104759Y-26762857D01*
X166265524Y-25922156D01*
X166140685Y-25138372D01*
X166072302Y-25027000D01*
X167518968Y-25027000D01*
X168395984Y-25904016D01*
X169086032Y-26365092D01*
X169900000Y-26527000D01*
X174427697Y-26527000D01*
X174427697Y-26527000D01*
G37*
X174427697Y-26527000D02*
X174359315Y-26638372D01*
X174234200Y-27423882D01*
X173398207Y-28258418D01*
X172940522Y-29360645D01*
X172939790Y-30198925D01*
X172254534Y-30882987D01*
X171819596Y-31930433D01*
X171818607Y-33064591D01*
X172251716Y-34112795D01*
X173052987Y-34915466D01*
X173700000Y-35184129D01*
X173700000Y-35930395D01*
X173610023Y-36020216D01*
X173279185Y-36816959D01*
X173023786Y-36838899D01*
X172912220Y-36896753D01*
X172788962Y-36921271D01*
X172525611Y-37097236D01*
X172244436Y-37243045D01*
X171720347Y-37662315D01*
X171654016Y-37595984D01*
X170963968Y-37134908D01*
X170286207Y-37000093D01*
X170267985Y-36981839D01*
X170181479Y-36945918D01*
X167831864Y-33029893D01*
X168245466Y-32617013D01*
X168680404Y-31569567D01*
X168681393Y-30435409D01*
X168248284Y-29387205D01*
X167559793Y-28697511D01*
X167560519Y-27865881D01*
X167104759Y-26762857D01*
X166265524Y-25922156D01*
X166140685Y-25138372D01*
X166072302Y-25027000D01*
X167518968Y-25027000D01*
X168395984Y-25904016D01*
X169086032Y-26365092D01*
X169900000Y-26527000D01*
X174427697Y-26527000D01*
G36*
X174427697Y-45527000D02*
X174359315Y-45638372D01*
X174234200Y-46423882D01*
X173398207Y-47258418D01*
X172940522Y-48360645D01*
X172939790Y-49198925D01*
X172254534Y-49882987D01*
X171819596Y-50930433D01*
X171818607Y-52064591D01*
X172251716Y-53112795D01*
X172281933Y-53143065D01*
X171846457Y-53323000D01*
X171680479Y-53323000D01*
X171586506Y-53228862D01*
X170688374Y-52855925D01*
X169715892Y-52855076D01*
X168817111Y-53226445D01*
X168649929Y-53393335D01*
X167831864Y-52029893D01*
X168245466Y-51617013D01*
X168680404Y-50569567D01*
X168681393Y-49435409D01*
X168248284Y-48387205D01*
X167559793Y-47697511D01*
X167560519Y-46865881D01*
X167104759Y-45762857D01*
X166869313Y-45527000D01*
X174427697Y-45527000D01*
X174427697Y-45527000D01*
G37*
X174427697Y-45527000D02*
X174359315Y-45638372D01*
X174234200Y-46423882D01*
X173398207Y-47258418D01*
X172940522Y-48360645D01*
X172939790Y-49198925D01*
X172254534Y-49882987D01*
X171819596Y-50930433D01*
X171818607Y-52064591D01*
X172251716Y-53112795D01*
X172281933Y-53143065D01*
X171846457Y-53323000D01*
X171680479Y-53323000D01*
X171586506Y-53228862D01*
X170688374Y-52855925D01*
X169715892Y-52855076D01*
X168817111Y-53226445D01*
X168649929Y-53393335D01*
X167831864Y-52029893D01*
X168245466Y-51617013D01*
X168680404Y-50569567D01*
X168681393Y-49435409D01*
X168248284Y-48387205D01*
X167559793Y-47697511D01*
X167560519Y-46865881D01*
X167104759Y-45762857D01*
X166869313Y-45527000D01*
X174427697Y-45527000D01*
G36*
X174427697Y-83527000D02*
X174359315Y-83638372D01*
X174234200Y-84423882D01*
X173398207Y-85258418D01*
X172940522Y-86360645D01*
X172939790Y-87198925D01*
X172254534Y-87882987D01*
X171819596Y-88930433D01*
X171818607Y-90064591D01*
X172251716Y-91112795D01*
X173052987Y-91915466D01*
X173700000Y-92184129D01*
X173700000Y-92930395D01*
X173610023Y-93020216D01*
X173279185Y-93816959D01*
X173023786Y-93838899D01*
X172912220Y-93896753D01*
X172788962Y-93921271D01*
X172525611Y-94097236D01*
X172244436Y-94243045D01*
X171720347Y-94662315D01*
X171654016Y-94595984D01*
X170963968Y-94134908D01*
X170286207Y-94000093D01*
X170267985Y-93981839D01*
X170181479Y-93945918D01*
X167831864Y-90029893D01*
X168245466Y-89617013D01*
X168680404Y-88569567D01*
X168681393Y-87435409D01*
X168248284Y-86387205D01*
X167559793Y-85697511D01*
X167560519Y-84865881D01*
X167104759Y-83762857D01*
X166869313Y-83527000D01*
X174427697Y-83527000D01*
X174427697Y-83527000D01*
G37*
X174427697Y-83527000D02*
X174359315Y-83638372D01*
X174234200Y-84423882D01*
X173398207Y-85258418D01*
X172940522Y-86360645D01*
X172939790Y-87198925D01*
X172254534Y-87882987D01*
X171819596Y-88930433D01*
X171818607Y-90064591D01*
X172251716Y-91112795D01*
X173052987Y-91915466D01*
X173700000Y-92184129D01*
X173700000Y-92930395D01*
X173610023Y-93020216D01*
X173279185Y-93816959D01*
X173023786Y-93838899D01*
X172912220Y-93896753D01*
X172788962Y-93921271D01*
X172525611Y-94097236D01*
X172244436Y-94243045D01*
X171720347Y-94662315D01*
X171654016Y-94595984D01*
X170963968Y-94134908D01*
X170286207Y-94000093D01*
X170267985Y-93981839D01*
X170181479Y-93945918D01*
X167831864Y-90029893D01*
X168245466Y-89617013D01*
X168680404Y-88569567D01*
X168681393Y-87435409D01*
X168248284Y-86387205D01*
X167559793Y-85697511D01*
X167560519Y-84865881D01*
X167104759Y-83762857D01*
X166869313Y-83527000D01*
X174427697Y-83527000D01*
G36*
X175037144Y-101204823D02*
X168680410Y-107561557D01*
X168681393Y-106435409D01*
X168248284Y-105387205D01*
X167559793Y-104697511D01*
X167560519Y-103865881D01*
X167104759Y-102762857D01*
X166265524Y-101922156D01*
X166140685Y-101138372D01*
X166072302Y-101027000D01*
X174454193Y-101027000D01*
X174586032Y-101115092D01*
X175037144Y-101204823D01*
X175037144Y-101204823D01*
G37*
X175037144Y-101204823D02*
X168680410Y-107561557D01*
X168681393Y-106435409D01*
X168248284Y-105387205D01*
X167559793Y-104697511D01*
X167560519Y-103865881D01*
X167104759Y-102762857D01*
X166265524Y-101922156D01*
X166140685Y-101138372D01*
X166072302Y-101027000D01*
X174454193Y-101027000D01*
X174586032Y-101115092D01*
X175037144Y-101204823D01*
G36*
X175192641Y-62249326D02*
X175094416Y-62347551D01*
X175094537Y-62208589D01*
X175192641Y-62249326D01*
X175192641Y-62249326D01*
G37*
X175192641Y-62249326D02*
X175094416Y-62347551D01*
X175094537Y-62208589D01*
X175192641Y-62249326D01*
G36*
X185462951Y-62124177D02*
X185367627Y-62084595D01*
X185349317Y-62066285D01*
X185425920Y-62034554D01*
X185462951Y-62124177D01*
X185462951Y-62124177D01*
G37*
X185462951Y-62124177D02*
X185367627Y-62084595D01*
X185349317Y-62066285D01*
X185425920Y-62034554D01*
X185462951Y-62124177D01*
G36*
X188379714Y-44127000D02*
X187900626Y-45280774D01*
X187900005Y-45991973D01*
X186309843Y-44401811D01*
X186411626Y-44444075D01*
X187384108Y-44444924D01*
X188153542Y-44127000D01*
X188379714Y-44127000D01*
X188379714Y-44127000D01*
G37*
X188379714Y-44127000D02*
X187900626Y-45280774D01*
X187900005Y-45991973D01*
X186309843Y-44401811D01*
X186411626Y-44444075D01*
X187384108Y-44444924D01*
X188153542Y-44127000D01*
X188379714Y-44127000D01*
G36*
X188523000Y-54853301D02*
X188156085Y-55736929D01*
X186831864Y-53529893D01*
X187245466Y-53117013D01*
X187680404Y-52069567D01*
X187680648Y-51788680D01*
X188523000Y-52631032D01*
X188523000Y-54853301D01*
X188523000Y-54853301D01*
G37*
X188523000Y-54853301D02*
X188156085Y-55736929D01*
X186831864Y-53529893D01*
X187245466Y-53117013D01*
X187680404Y-52069567D01*
X187680648Y-51788680D01*
X188523000Y-52631032D01*
X188523000Y-54853301D01*
G36*
X193427697Y-26527000D02*
X193359315Y-26638372D01*
X193234200Y-27423882D01*
X192398207Y-28258418D01*
X191940522Y-29360645D01*
X191939790Y-30198925D01*
X191254534Y-30882987D01*
X190819596Y-31930433D01*
X190818607Y-33064591D01*
X191251716Y-34112795D01*
X192052987Y-34915466D01*
X192700000Y-35184129D01*
X192700000Y-35930395D01*
X192610023Y-36020216D01*
X192279185Y-36816959D01*
X192023786Y-36838899D01*
X191912220Y-36896753D01*
X191788962Y-36921271D01*
X191525611Y-37097236D01*
X191244436Y-37243045D01*
X190173762Y-38099583D01*
X190154901Y-38099567D01*
X189251123Y-38473000D01*
X189246698Y-38473000D01*
X189181479Y-38445918D01*
X186831864Y-34529893D01*
X187245466Y-34117013D01*
X187680404Y-33069567D01*
X187681393Y-31935409D01*
X187248284Y-30887205D01*
X186559793Y-30197511D01*
X186560519Y-29365881D01*
X186104759Y-28262857D01*
X185265524Y-27422156D01*
X185140685Y-26638372D01*
X185072302Y-26527000D01*
X193427697Y-26527000D01*
X193427697Y-26527000D01*
G37*
X193427697Y-26527000D02*
X193359315Y-26638372D01*
X193234200Y-27423882D01*
X192398207Y-28258418D01*
X191940522Y-29360645D01*
X191939790Y-30198925D01*
X191254534Y-30882987D01*
X190819596Y-31930433D01*
X190818607Y-33064591D01*
X191251716Y-34112795D01*
X192052987Y-34915466D01*
X192700000Y-35184129D01*
X192700000Y-35930395D01*
X192610023Y-36020216D01*
X192279185Y-36816959D01*
X192023786Y-36838899D01*
X191912220Y-36896753D01*
X191788962Y-36921271D01*
X191525611Y-37097236D01*
X191244436Y-37243045D01*
X190173762Y-38099583D01*
X190154901Y-38099567D01*
X189251123Y-38473000D01*
X189246698Y-38473000D01*
X189181479Y-38445918D01*
X186831864Y-34529893D01*
X187245466Y-34117013D01*
X187680404Y-33069567D01*
X187681393Y-31935409D01*
X187248284Y-30887205D01*
X186559793Y-30197511D01*
X186560519Y-29365881D01*
X186104759Y-28262857D01*
X185265524Y-27422156D01*
X185140685Y-26638372D01*
X185072302Y-26527000D01*
X193427697Y-26527000D01*
G36*
X194130285Y-90723000D02*
X188750000Y-90723000D01*
X187936032Y-90884908D01*
X187245984Y-91345984D01*
X186918193Y-91673775D01*
X186831864Y-91529893D01*
X187245466Y-91117013D01*
X187680404Y-90069567D01*
X187681393Y-88935409D01*
X187248284Y-87887205D01*
X186559793Y-87197511D01*
X186560073Y-86877000D01*
X189253301Y-86877000D01*
X190150538Y-87249565D01*
X190922179Y-87250238D01*
X190898771Y-87397208D01*
X191175574Y-88554619D01*
X191874229Y-89518000D01*
X192888372Y-90140685D01*
X193673882Y-90265799D01*
X194130285Y-90723000D01*
X194130285Y-90723000D01*
G37*
X194130285Y-90723000D02*
X188750000Y-90723000D01*
X187936032Y-90884908D01*
X187245984Y-91345984D01*
X186918193Y-91673775D01*
X186831864Y-91529893D01*
X187245466Y-91117013D01*
X187680404Y-90069567D01*
X187681393Y-88935409D01*
X187248284Y-87887205D01*
X186559793Y-87197511D01*
X186560073Y-86877000D01*
X189253301Y-86877000D01*
X190150538Y-87249565D01*
X190922179Y-87250238D01*
X190898771Y-87397208D01*
X191175574Y-88554619D01*
X191874229Y-89518000D01*
X192888372Y-90140685D01*
X193673882Y-90265799D01*
X194130285Y-90723000D01*
G36*
X194673000Y-66855322D02*
X194390892Y-66855076D01*
X193621457Y-67173000D01*
X191875000Y-67173000D01*
X191061032Y-67334908D01*
X190370984Y-67795984D01*
X190071293Y-68095674D01*
X189977000Y-67867466D01*
X189977000Y-62751975D01*
X190294075Y-61988374D01*
X190294303Y-61727000D01*
X191418968Y-61727000D01*
X192995984Y-63304016D01*
X193686032Y-63765092D01*
X193686033Y-63765092D01*
X194451446Y-63917342D01*
X194673000Y-64453542D01*
X194673000Y-66855322D01*
X194673000Y-66855322D01*
G37*
X194673000Y-66855322D02*
X194390892Y-66855076D01*
X193621457Y-67173000D01*
X191875000Y-67173000D01*
X191061032Y-67334908D01*
X190370984Y-67795984D01*
X190071293Y-68095674D01*
X189977000Y-67867466D01*
X189977000Y-62751975D01*
X190294075Y-61988374D01*
X190294303Y-61727000D01*
X191418968Y-61727000D01*
X192995984Y-63304016D01*
X193686032Y-63765092D01*
X193686033Y-63765092D01*
X194451446Y-63917342D01*
X194673000Y-64453542D01*
X194673000Y-66855322D01*
G36*
X196994000Y-77394670D02*
X196447511Y-77940206D01*
X195615881Y-77939481D01*
X194512857Y-78395241D01*
X193672156Y-79234475D01*
X192888372Y-79359315D01*
X191874229Y-79982000D01*
X191175574Y-80945381D01*
X190980979Y-81759050D01*
X190287862Y-82249683D01*
X190154901Y-82249567D01*
X189251123Y-82623000D01*
X187131032Y-82623000D01*
X185489229Y-80981197D01*
X186005518Y-80464909D01*
X186056452Y-80341942D01*
X186432015Y-80718161D01*
X187350538Y-81099565D01*
X188345099Y-81100433D01*
X189264286Y-80720633D01*
X189968161Y-80017985D01*
X190349565Y-79099462D01*
X190350433Y-78104901D01*
X189977000Y-77201123D01*
X189977000Y-74206032D01*
X192756032Y-71427000D01*
X193623024Y-71427000D01*
X194386626Y-71744075D01*
X194673000Y-71744325D01*
X194673000Y-73698024D01*
X194355925Y-74461626D01*
X194355076Y-75434108D01*
X194726445Y-76332889D01*
X195413494Y-77021138D01*
X196311626Y-77394075D01*
X196994000Y-77394670D01*
X196994000Y-77394670D01*
G37*
X196994000Y-77394670D02*
X196447511Y-77940206D01*
X195615881Y-77939481D01*
X194512857Y-78395241D01*
X193672156Y-79234475D01*
X192888372Y-79359315D01*
X191874229Y-79982000D01*
X191175574Y-80945381D01*
X190980979Y-81759050D01*
X190287862Y-82249683D01*
X190154901Y-82249567D01*
X189251123Y-82623000D01*
X187131032Y-82623000D01*
X185489229Y-80981197D01*
X186005518Y-80464909D01*
X186056452Y-80341942D01*
X186432015Y-80718161D01*
X187350538Y-81099565D01*
X188345099Y-81100433D01*
X189264286Y-80720633D01*
X189968161Y-80017985D01*
X190349565Y-79099462D01*
X190350433Y-78104901D01*
X189977000Y-77201123D01*
X189977000Y-74206032D01*
X192756032Y-71427000D01*
X193623024Y-71427000D01*
X194386626Y-71744075D01*
X194673000Y-71744325D01*
X194673000Y-73698024D01*
X194355925Y-74461626D01*
X194355076Y-75434108D01*
X194726445Y-76332889D01*
X195413494Y-77021138D01*
X196311626Y-77394075D01*
X196994000Y-77394670D01*
G36*
X197257526Y-48702000D02*
X197137205Y-48751716D01*
X196447511Y-49440206D01*
X195968243Y-49439788D01*
X196706032Y-48702000D01*
X197257526Y-48702000D01*
X197257526Y-48702000D01*
G37*
X197257526Y-48702000D02*
X197137205Y-48751716D01*
X196447511Y-49440206D01*
X195968243Y-49439788D01*
X196706032Y-48702000D01*
X197257526Y-48702000D01*
G36*
X200122794Y-44448000D02*
X195825000Y-44448000D01*
X195011032Y-44609908D01*
X194861981Y-44709500D01*
X194553711Y-43963428D01*
X193761223Y-43169555D01*
X193796417Y-43084799D01*
X194390591Y-43331522D01*
X195484609Y-43332477D01*
X196075763Y-43088216D01*
X196302176Y-43182000D01*
X197097825Y-43182000D01*
X198397825Y-43182000D01*
X198750000Y-43036124D01*
X199102176Y-43182000D01*
X199897825Y-43182000D01*
X200109750Y-43182000D01*
X200055925Y-43311626D01*
X200055076Y-44284108D01*
X200122794Y-44448000D01*
X200122794Y-44448000D01*
G37*
X200122794Y-44448000D02*
X195825000Y-44448000D01*
X195011032Y-44609908D01*
X194861981Y-44709500D01*
X194553711Y-43963428D01*
X193761223Y-43169555D01*
X193796417Y-43084799D01*
X194390591Y-43331522D01*
X195484609Y-43332477D01*
X196075763Y-43088216D01*
X196302176Y-43182000D01*
X197097825Y-43182000D01*
X198397825Y-43182000D01*
X198750000Y-43036124D01*
X199102176Y-43182000D01*
X199897825Y-43182000D01*
X200109750Y-43182000D01*
X200055925Y-43311626D01*
X200055076Y-44284108D01*
X200122794Y-44448000D01*
G36*
X201556786Y-48702000D02*
X200779893Y-49168135D01*
X200367013Y-48754534D01*
X200240497Y-48702000D01*
X201556786Y-48702000D01*
X201556786Y-48702000D01*
G37*
X201556786Y-48702000D02*
X200779893Y-49168135D01*
X200367013Y-48754534D01*
X200240497Y-48702000D01*
X201556786Y-48702000D01*
G36*
X206273000Y-71168458D02*
X205467111Y-71501445D01*
X204778862Y-72188494D01*
X204405925Y-73086626D01*
X204405076Y-74059108D01*
X204723000Y-74828542D01*
X204723000Y-75253301D01*
X204695918Y-75318520D01*
X200779893Y-77668135D01*
X200367013Y-77254534D01*
X199319567Y-76819596D01*
X198388017Y-76818783D01*
X198871138Y-76336506D01*
X199244075Y-75438374D01*
X199244924Y-74465892D01*
X198927000Y-73696457D01*
X198927000Y-65027000D01*
X204424726Y-65027000D01*
X204729367Y-65764286D01*
X205432015Y-66468161D01*
X206273000Y-66817368D01*
X206273000Y-71168458D01*
X206273000Y-71168458D01*
G37*
X206273000Y-71168458D02*
X205467111Y-71501445D01*
X204778862Y-72188494D01*
X204405925Y-73086626D01*
X204405076Y-74059108D01*
X204723000Y-74828542D01*
X204723000Y-75253301D01*
X204695918Y-75318520D01*
X200779893Y-77668135D01*
X200367013Y-77254534D01*
X199319567Y-76819596D01*
X198388017Y-76818783D01*
X198871138Y-76336506D01*
X199244075Y-75438374D01*
X199244924Y-74465892D01*
X198927000Y-73696457D01*
X198927000Y-65027000D01*
X204424726Y-65027000D01*
X204729367Y-65764286D01*
X205432015Y-66468161D01*
X206273000Y-66817368D01*
X206273000Y-71168458D01*
G36*
X208898000Y-44448000D02*
X204877792Y-44448000D01*
X204944075Y-44288374D01*
X204944924Y-43315892D01*
X204713828Y-42756598D01*
X205005518Y-42464909D01*
X205056452Y-42341942D01*
X205432015Y-42718161D01*
X206350538Y-43099565D01*
X207345099Y-43100433D01*
X208248876Y-42727000D01*
X208518968Y-42727000D01*
X208898000Y-43106032D01*
X208898000Y-44448000D01*
X208898000Y-44448000D01*
G37*
X208898000Y-44448000D02*
X204877792Y-44448000D01*
X204944075Y-44288374D01*
X204944924Y-43315892D01*
X204713828Y-42756598D01*
X205005518Y-42464909D01*
X205056452Y-42341942D01*
X205432015Y-42718161D01*
X206350538Y-43099565D01*
X207345099Y-43100433D01*
X208248876Y-42727000D01*
X208518968Y-42727000D01*
X208898000Y-43106032D01*
X208898000Y-44448000D01*
G36*
X209473000Y-38487520D02*
X209400000Y-38473000D01*
X208246698Y-38473000D01*
X208181479Y-38445918D01*
X205831864Y-34529893D01*
X206245466Y-34117013D01*
X206680404Y-33069567D01*
X206681393Y-31935409D01*
X206248284Y-30887205D01*
X205559793Y-30197511D01*
X205559819Y-30167851D01*
X209473000Y-34081032D01*
X209473000Y-38487520D01*
X209473000Y-38487520D01*
G37*
X209473000Y-38487520D02*
X209400000Y-38473000D01*
X208246698Y-38473000D01*
X208181479Y-38445918D01*
X205831864Y-34529893D01*
X206245466Y-34117013D01*
X206680404Y-33069567D01*
X206681393Y-31935409D01*
X206248284Y-30887205D01*
X205559793Y-30197511D01*
X205559819Y-30167851D01*
X209473000Y-34081032D01*
X209473000Y-38487520D01*
G36*
X212032566Y-90123000D02*
X211977000Y-90123000D01*
X211977000Y-90067336D01*
X212032566Y-90123000D01*
X212032566Y-90123000D01*
G37*
X212032566Y-90123000D02*
X211977000Y-90123000D01*
X211977000Y-90067336D01*
X212032566Y-90123000D01*
G36*
X216211492Y-44755334D02*
X215915892Y-44755076D01*
X215017111Y-45126445D01*
X214328862Y-45813494D01*
X213973512Y-46669269D01*
X213728862Y-46913494D01*
X213727000Y-46917978D01*
X213727000Y-39671917D01*
X216211492Y-44755334D01*
X216211492Y-44755334D01*
G37*
X216211492Y-44755334D02*
X215915892Y-44755076D01*
X215017111Y-45126445D01*
X214328862Y-45813494D01*
X213973512Y-46669269D01*
X213728862Y-46913494D01*
X213727000Y-46917978D01*
X213727000Y-39671917D01*
X216211492Y-44755334D01*
G36*
X216733986Y-51575294D02*
X216678770Y-51616906D01*
X216329404Y-51636764D01*
X215612783Y-51982467D01*
X215395377Y-52087345D01*
X215102535Y-51794503D01*
X215584108Y-51794924D01*
X216191729Y-51543859D01*
X216733986Y-51575294D01*
X216733986Y-51575294D01*
G37*
X216733986Y-51575294D02*
X216678770Y-51616906D01*
X216329404Y-51636764D01*
X215612783Y-51982467D01*
X215395377Y-52087345D01*
X215102535Y-51794503D01*
X215584108Y-51794924D01*
X216191729Y-51543859D01*
X216733986Y-51575294D01*
G36*
X217523000Y-71166064D02*
X217438374Y-71130925D01*
X216465892Y-71130076D01*
X215567111Y-71501445D01*
X214878862Y-72188494D01*
X214505925Y-73086626D01*
X214505076Y-74059108D01*
X214876445Y-74957889D01*
X215563494Y-75646138D01*
X216223000Y-75919988D01*
X216223000Y-84609811D01*
X215719226Y-84400626D01*
X214287057Y-84399377D01*
X212963428Y-84946289D01*
X211977000Y-85930996D01*
X211977000Y-84126975D01*
X212294075Y-83363374D01*
X212294924Y-82390892D01*
X211923555Y-81492111D01*
X211236506Y-80803862D01*
X210338374Y-80430925D01*
X210201496Y-80430805D01*
X210365092Y-80185968D01*
X210365092Y-80185967D01*
X210527000Y-79372000D01*
X210527000Y-55635032D01*
X210723000Y-55831032D01*
X210723000Y-62900000D01*
X210884908Y-63713968D01*
X211345984Y-64404016D01*
X217523000Y-70581032D01*
X217523000Y-71166064D01*
X217523000Y-71166064D01*
G37*
X217523000Y-71166064D02*
X217438374Y-71130925D01*
X216465892Y-71130076D01*
X215567111Y-71501445D01*
X214878862Y-72188494D01*
X214505925Y-73086626D01*
X214505076Y-74059108D01*
X214876445Y-74957889D01*
X215563494Y-75646138D01*
X216223000Y-75919988D01*
X216223000Y-84609811D01*
X215719226Y-84400626D01*
X214287057Y-84399377D01*
X212963428Y-84946289D01*
X211977000Y-85930996D01*
X211977000Y-84126975D01*
X212294075Y-83363374D01*
X212294924Y-82390892D01*
X211923555Y-81492111D01*
X211236506Y-80803862D01*
X210338374Y-80430925D01*
X210201496Y-80430805D01*
X210365092Y-80185968D01*
X210365092Y-80185967D01*
X210527000Y-79372000D01*
X210527000Y-55635032D01*
X210723000Y-55831032D01*
X210723000Y-62900000D01*
X210884908Y-63713968D01*
X211345984Y-64404016D01*
X217523000Y-70581032D01*
X217523000Y-71166064D01*
G36*
X219589968Y-90123000D02*
X217968909Y-90123000D01*
X218050152Y-90041899D01*
X218478145Y-89011177D01*
X219589968Y-90123000D01*
X219589968Y-90123000D01*
G37*
X219589968Y-90123000D02*
X217968909Y-90123000D01*
X218050152Y-90041899D01*
X218478145Y-89011177D01*
X219589968Y-90123000D01*
G36*
X219657246Y-138990278D02*
X218766437Y-139578774D01*
X218308244Y-140256795D01*
X218201121Y-140256702D01*
X217098097Y-140712462D01*
X216253447Y-141555639D01*
X215996153Y-142175269D01*
X214957983Y-142604233D01*
X214155312Y-143405504D01*
X213720374Y-144452950D01*
X213719385Y-145587108D01*
X214152494Y-146635312D01*
X214558696Y-147042224D01*
X214232100Y-147742610D01*
X214019174Y-147830590D01*
X213497400Y-148351453D01*
X213245104Y-148259175D01*
X213119542Y-148264459D01*
X212997469Y-148234588D01*
X212684424Y-148282770D01*
X212537521Y-148288952D01*
X212537521Y-143730564D01*
X213302019Y-143414681D01*
X214005894Y-142712033D01*
X214387298Y-141793510D01*
X214388166Y-140798949D01*
X214119514Y-140148761D01*
X214229061Y-140148857D01*
X215240167Y-139731076D01*
X216014429Y-138958164D01*
X216433974Y-137947789D01*
X216434426Y-137429507D01*
X216616533Y-137262638D01*
X216952788Y-136541535D01*
X217181239Y-136051620D01*
X217505576Y-136186296D01*
X217505076Y-136759108D01*
X217876445Y-137657889D01*
X218563494Y-138346138D01*
X219332372Y-138665404D01*
X219657246Y-138990278D01*
X219657246Y-138990278D01*
G37*
X219657246Y-138990278D02*
X218766437Y-139578774D01*
X218308244Y-140256795D01*
X218201121Y-140256702D01*
X217098097Y-140712462D01*
X216253447Y-141555639D01*
X215996153Y-142175269D01*
X214957983Y-142604233D01*
X214155312Y-143405504D01*
X213720374Y-144452950D01*
X213719385Y-145587108D01*
X214152494Y-146635312D01*
X214558696Y-147042224D01*
X214232100Y-147742610D01*
X214019174Y-147830590D01*
X213497400Y-148351453D01*
X213245104Y-148259175D01*
X213119542Y-148264459D01*
X212997469Y-148234588D01*
X212684424Y-148282770D01*
X212537521Y-148288952D01*
X212537521Y-143730564D01*
X213302019Y-143414681D01*
X214005894Y-142712033D01*
X214387298Y-141793510D01*
X214388166Y-140798949D01*
X214119514Y-140148761D01*
X214229061Y-140148857D01*
X215240167Y-139731076D01*
X216014429Y-138958164D01*
X216433974Y-137947789D01*
X216434426Y-137429507D01*
X216616533Y-137262638D01*
X216952788Y-136541535D01*
X217181239Y-136051620D01*
X217505576Y-136186296D01*
X217505076Y-136759108D01*
X217876445Y-137657889D01*
X218563494Y-138346138D01*
X219332372Y-138665404D01*
X219657246Y-138990278D01*
G36*
X224964968Y-94377000D02*
X224322595Y-95019372D01*
X223937138Y-94859317D01*
X222942577Y-94858449D01*
X222023390Y-95238249D01*
X221319515Y-95940897D01*
X221064769Y-96554392D01*
X220933360Y-96465589D01*
X219767408Y-96227313D01*
X218599023Y-96453365D01*
X217606083Y-97109331D01*
X217147890Y-97787352D01*
X217040767Y-97787259D01*
X215937743Y-98243019D01*
X215093093Y-99086196D01*
X214835799Y-99705826D01*
X213797629Y-100134790D01*
X212994958Y-100936061D01*
X212560020Y-101983507D01*
X212559031Y-103117665D01*
X212992140Y-104165869D01*
X213398342Y-104572781D01*
X213071746Y-105273167D01*
X212858820Y-105361147D01*
X212337046Y-105882010D01*
X212084750Y-105789732D01*
X211959188Y-105795016D01*
X211837115Y-105765145D01*
X211524070Y-105813327D01*
X211207620Y-105826645D01*
X209844858Y-106157837D01*
X209749629Y-106118295D01*
X208755068Y-106117427D01*
X207835881Y-106497227D01*
X207132006Y-107199875D01*
X206750602Y-108118398D01*
X206749734Y-109112959D01*
X207129534Y-110032146D01*
X207832182Y-110736021D01*
X208750705Y-111117425D01*
X209745266Y-111118293D01*
X210395453Y-110849641D01*
X210395358Y-110959188D01*
X210813139Y-111970294D01*
X211586051Y-112744556D01*
X212596426Y-113164101D01*
X213114707Y-113164553D01*
X213281577Y-113346660D01*
X214002680Y-113682915D01*
X215180880Y-114232319D01*
X215561709Y-114248946D01*
X215819239Y-114529991D01*
X216540342Y-114866246D01*
X217584607Y-115353195D01*
X217849418Y-115642185D01*
X218570521Y-115978441D01*
X219929983Y-116612368D01*
X220724875Y-116647074D01*
X221097094Y-116511597D01*
X217705341Y-123785235D01*
X203663732Y-117237526D01*
X203634934Y-117167829D01*
X202932286Y-116463954D01*
X202013763Y-116082550D01*
X201019202Y-116081682D01*
X200100015Y-116461482D01*
X200093154Y-116468330D01*
X199869642Y-116491679D01*
X199673555Y-116017111D01*
X198986506Y-115328862D01*
X198217627Y-115009595D01*
X197804016Y-114595984D01*
X197113968Y-114134908D01*
X196300000Y-113973000D01*
X186385699Y-113973000D01*
X185571731Y-114134908D01*
X184881683Y-114595984D01*
X182892506Y-116585160D01*
X181994621Y-116956159D01*
X181290746Y-117658807D01*
X180909342Y-118577330D01*
X180908474Y-119571891D01*
X181288274Y-120491078D01*
X181990922Y-121194953D01*
X182604417Y-121449698D01*
X182515614Y-121581107D01*
X182277338Y-122747060D01*
X182503389Y-123915445D01*
X183159356Y-124908385D01*
X183837377Y-125366578D01*
X183837284Y-125473701D01*
X184293044Y-126576725D01*
X185136221Y-127421375D01*
X185755851Y-127678668D01*
X186184815Y-128716839D01*
X186986086Y-129519510D01*
X188033532Y-129954448D01*
X189167690Y-129955437D01*
X190215894Y-129522328D01*
X190622806Y-129116125D01*
X191323192Y-129442720D01*
X191411172Y-129655648D01*
X191932035Y-130177421D01*
X191839757Y-130429718D01*
X191845041Y-130555279D01*
X191815170Y-130677353D01*
X191863352Y-130990397D01*
X191876670Y-131306848D01*
X192207862Y-132669609D01*
X192168320Y-132764839D01*
X192167452Y-133759400D01*
X192547252Y-134678587D01*
X193249900Y-135382462D01*
X194168423Y-135763866D01*
X195162984Y-135764734D01*
X196082171Y-135384934D01*
X196786046Y-134682286D01*
X197167450Y-133763763D01*
X197168318Y-132769202D01*
X196899666Y-132119014D01*
X197009213Y-132119110D01*
X198020319Y-131701329D01*
X198794581Y-130928417D01*
X199214126Y-129918042D01*
X199214578Y-129399760D01*
X199344860Y-129280379D01*
X199824265Y-129479445D01*
X199735462Y-129610854D01*
X199497186Y-130776807D01*
X199723237Y-131945192D01*
X200379204Y-132938132D01*
X201057225Y-133396325D01*
X201057132Y-133503448D01*
X201512892Y-134606472D01*
X202356069Y-135451122D01*
X202975699Y-135708415D01*
X203404663Y-136746586D01*
X204205934Y-137549257D01*
X205253380Y-137984195D01*
X206387538Y-137985184D01*
X207435742Y-137552075D01*
X207842654Y-137145872D01*
X208543040Y-137472467D01*
X208631020Y-137685395D01*
X209151883Y-138207168D01*
X209059605Y-138459465D01*
X209064889Y-138585026D01*
X209035018Y-138707100D01*
X209083200Y-139020144D01*
X209096518Y-139336595D01*
X209427710Y-140699356D01*
X209394562Y-140779186D01*
X208906505Y-141267244D01*
X208445429Y-141957292D01*
X208283521Y-142771260D01*
X208283521Y-148992087D01*
X196247670Y-143379678D01*
X197036572Y-143053711D01*
X198050152Y-142041899D01*
X198599374Y-140719226D01*
X198600623Y-139287057D01*
X198053711Y-137963428D01*
X197041899Y-136949848D01*
X195719226Y-136400626D01*
X194287057Y-136399377D01*
X192963428Y-136946289D01*
X191949848Y-137958101D01*
X191400626Y-139280774D01*
X191399377Y-140712943D01*
X191607137Y-141215762D01*
X175124613Y-133529835D01*
X174805834Y-133451830D01*
X174498551Y-133336581D01*
X174464286Y-133330964D01*
X174464286Y-129350000D01*
X174464286Y-120150000D01*
X155535714Y-120150000D01*
X155535714Y-129350000D01*
X174464286Y-129350000D01*
X174464286Y-133330964D01*
X96331168Y-120523550D01*
X97064286Y-120220633D01*
X97627727Y-119658173D01*
X98380216Y-120411977D01*
X99390591Y-120831522D01*
X100484609Y-120832477D01*
X101075763Y-120588216D01*
X101302176Y-120682000D01*
X102097825Y-120682000D01*
X103397825Y-120682000D01*
X103750000Y-120536124D01*
X104102176Y-120682000D01*
X104897825Y-120682000D01*
X106050043Y-120682000D01*
X106412176Y-120832000D01*
X107207825Y-120832000D01*
X108707825Y-120832000D01*
X109442909Y-120527518D01*
X110005518Y-119964909D01*
X110056452Y-119841942D01*
X110432015Y-120218161D01*
X111350538Y-120599565D01*
X112345099Y-120600433D01*
X113264286Y-120220633D01*
X113968161Y-119517985D01*
X114349565Y-118599462D01*
X114349731Y-118408300D01*
X115166400Y-117591631D01*
X116064286Y-117220633D01*
X116627727Y-116658173D01*
X117380216Y-117411977D01*
X118390591Y-117831522D01*
X119484609Y-117832477D01*
X120075763Y-117588216D01*
X120302176Y-117682000D01*
X121097825Y-117682000D01*
X122397825Y-117682000D01*
X122750000Y-117536124D01*
X123102176Y-117682000D01*
X123897825Y-117682000D01*
X125050043Y-117682000D01*
X125412176Y-117832000D01*
X126207825Y-117832000D01*
X127707825Y-117832000D01*
X128442909Y-117527518D01*
X129005518Y-116964909D01*
X129056452Y-116841942D01*
X129432015Y-117218161D01*
X130350538Y-117599565D01*
X131345099Y-117600433D01*
X132264286Y-117220633D01*
X132284760Y-117200194D01*
X132963968Y-117065092D01*
X133654016Y-116604016D01*
X134166400Y-116091631D01*
X135064286Y-115720633D01*
X135627727Y-115158173D01*
X136380216Y-115911977D01*
X137390591Y-116331522D01*
X138484609Y-116332477D01*
X139075763Y-116088216D01*
X139302176Y-116182000D01*
X140097825Y-116182000D01*
X141397825Y-116182000D01*
X141750000Y-116036124D01*
X142102176Y-116182000D01*
X142897825Y-116182000D01*
X144050043Y-116182000D01*
X144412176Y-116332000D01*
X145207825Y-116332000D01*
X146707825Y-116332000D01*
X147442909Y-116027518D01*
X148005518Y-115464909D01*
X148056452Y-115341942D01*
X148432015Y-115718161D01*
X149350538Y-116099565D01*
X150345099Y-116100433D01*
X150356431Y-116095750D01*
X150529367Y-116514286D01*
X151232015Y-117218161D01*
X152150538Y-117599565D01*
X153145099Y-117600433D01*
X154064286Y-117220633D01*
X154627727Y-116658173D01*
X155380216Y-117411977D01*
X156390591Y-117831522D01*
X157484609Y-117832477D01*
X158075763Y-117588216D01*
X158302176Y-117682000D01*
X159097825Y-117682000D01*
X160397825Y-117682000D01*
X160750000Y-117536124D01*
X161102176Y-117682000D01*
X161897825Y-117682000D01*
X163050043Y-117682000D01*
X163412176Y-117832000D01*
X164207825Y-117832000D01*
X165707825Y-117832000D01*
X166442909Y-117527518D01*
X167005518Y-116964909D01*
X167056452Y-116841942D01*
X167432015Y-117218161D01*
X168350538Y-117599565D01*
X169345099Y-117600433D01*
X170264286Y-117220633D01*
X170968161Y-116517985D01*
X171349565Y-115599462D01*
X171350433Y-114604901D01*
X170977000Y-113701123D01*
X170977000Y-111281032D01*
X180381032Y-101877000D01*
X188350000Y-101877000D01*
X189163968Y-101715092D01*
X189854016Y-101254016D01*
X194331032Y-96777000D01*
X207675000Y-96777000D01*
X208488968Y-96615092D01*
X209179016Y-96154016D01*
X210956032Y-94377000D01*
X224964968Y-94377000D01*
X224964968Y-94377000D01*
G37*
X224964968Y-94377000D02*
X224322595Y-95019372D01*
X223937138Y-94859317D01*
X222942577Y-94858449D01*
X222023390Y-95238249D01*
X221319515Y-95940897D01*
X221064769Y-96554392D01*
X220933360Y-96465589D01*
X219767408Y-96227313D01*
X218599023Y-96453365D01*
X217606083Y-97109331D01*
X217147890Y-97787352D01*
X217040767Y-97787259D01*
X215937743Y-98243019D01*
X215093093Y-99086196D01*
X214835799Y-99705826D01*
X213797629Y-100134790D01*
X212994958Y-100936061D01*
X212560020Y-101983507D01*
X212559031Y-103117665D01*
X212992140Y-104165869D01*
X213398342Y-104572781D01*
X213071746Y-105273167D01*
X212858820Y-105361147D01*
X212337046Y-105882010D01*
X212084750Y-105789732D01*
X211959188Y-105795016D01*
X211837115Y-105765145D01*
X211524070Y-105813327D01*
X211207620Y-105826645D01*
X209844858Y-106157837D01*
X209749629Y-106118295D01*
X208755068Y-106117427D01*
X207835881Y-106497227D01*
X207132006Y-107199875D01*
X206750602Y-108118398D01*
X206749734Y-109112959D01*
X207129534Y-110032146D01*
X207832182Y-110736021D01*
X208750705Y-111117425D01*
X209745266Y-111118293D01*
X210395453Y-110849641D01*
X210395358Y-110959188D01*
X210813139Y-111970294D01*
X211586051Y-112744556D01*
X212596426Y-113164101D01*
X213114707Y-113164553D01*
X213281577Y-113346660D01*
X214002680Y-113682915D01*
X215180880Y-114232319D01*
X215561709Y-114248946D01*
X215819239Y-114529991D01*
X216540342Y-114866246D01*
X217584607Y-115353195D01*
X217849418Y-115642185D01*
X218570521Y-115978441D01*
X219929983Y-116612368D01*
X220724875Y-116647074D01*
X221097094Y-116511597D01*
X217705341Y-123785235D01*
X203663732Y-117237526D01*
X203634934Y-117167829D01*
X202932286Y-116463954D01*
X202013763Y-116082550D01*
X201019202Y-116081682D01*
X200100015Y-116461482D01*
X200093154Y-116468330D01*
X199869642Y-116491679D01*
X199673555Y-116017111D01*
X198986506Y-115328862D01*
X198217627Y-115009595D01*
X197804016Y-114595984D01*
X197113968Y-114134908D01*
X196300000Y-113973000D01*
X186385699Y-113973000D01*
X185571731Y-114134908D01*
X184881683Y-114595984D01*
X182892506Y-116585160D01*
X181994621Y-116956159D01*
X181290746Y-117658807D01*
X180909342Y-118577330D01*
X180908474Y-119571891D01*
X181288274Y-120491078D01*
X181990922Y-121194953D01*
X182604417Y-121449698D01*
X182515614Y-121581107D01*
X182277338Y-122747060D01*
X182503389Y-123915445D01*
X183159356Y-124908385D01*
X183837377Y-125366578D01*
X183837284Y-125473701D01*
X184293044Y-126576725D01*
X185136221Y-127421375D01*
X185755851Y-127678668D01*
X186184815Y-128716839D01*
X186986086Y-129519510D01*
X188033532Y-129954448D01*
X189167690Y-129955437D01*
X190215894Y-129522328D01*
X190622806Y-129116125D01*
X191323192Y-129442720D01*
X191411172Y-129655648D01*
X191932035Y-130177421D01*
X191839757Y-130429718D01*
X191845041Y-130555279D01*
X191815170Y-130677353D01*
X191863352Y-130990397D01*
X191876670Y-131306848D01*
X192207862Y-132669609D01*
X192168320Y-132764839D01*
X192167452Y-133759400D01*
X192547252Y-134678587D01*
X193249900Y-135382462D01*
X194168423Y-135763866D01*
X195162984Y-135764734D01*
X196082171Y-135384934D01*
X196786046Y-134682286D01*
X197167450Y-133763763D01*
X197168318Y-132769202D01*
X196899666Y-132119014D01*
X197009213Y-132119110D01*
X198020319Y-131701329D01*
X198794581Y-130928417D01*
X199214126Y-129918042D01*
X199214578Y-129399760D01*
X199344860Y-129280379D01*
X199824265Y-129479445D01*
X199735462Y-129610854D01*
X199497186Y-130776807D01*
X199723237Y-131945192D01*
X200379204Y-132938132D01*
X201057225Y-133396325D01*
X201057132Y-133503448D01*
X201512892Y-134606472D01*
X202356069Y-135451122D01*
X202975699Y-135708415D01*
X203404663Y-136746586D01*
X204205934Y-137549257D01*
X205253380Y-137984195D01*
X206387538Y-137985184D01*
X207435742Y-137552075D01*
X207842654Y-137145872D01*
X208543040Y-137472467D01*
X208631020Y-137685395D01*
X209151883Y-138207168D01*
X209059605Y-138459465D01*
X209064889Y-138585026D01*
X209035018Y-138707100D01*
X209083200Y-139020144D01*
X209096518Y-139336595D01*
X209427710Y-140699356D01*
X209394562Y-140779186D01*
X208906505Y-141267244D01*
X208445429Y-141957292D01*
X208283521Y-142771260D01*
X208283521Y-148992087D01*
X196247670Y-143379678D01*
X197036572Y-143053711D01*
X198050152Y-142041899D01*
X198599374Y-140719226D01*
X198600623Y-139287057D01*
X198053711Y-137963428D01*
X197041899Y-136949848D01*
X195719226Y-136400626D01*
X194287057Y-136399377D01*
X192963428Y-136946289D01*
X191949848Y-137958101D01*
X191400626Y-139280774D01*
X191399377Y-140712943D01*
X191607137Y-141215762D01*
X175124613Y-133529835D01*
X174805834Y-133451830D01*
X174498551Y-133336581D01*
X174464286Y-133330964D01*
X174464286Y-129350000D01*
X174464286Y-120150000D01*
X155535714Y-120150000D01*
X155535714Y-129350000D01*
X174464286Y-129350000D01*
X174464286Y-133330964D01*
X96331168Y-120523550D01*
X97064286Y-120220633D01*
X97627727Y-119658173D01*
X98380216Y-120411977D01*
X99390591Y-120831522D01*
X100484609Y-120832477D01*
X101075763Y-120588216D01*
X101302176Y-120682000D01*
X102097825Y-120682000D01*
X103397825Y-120682000D01*
X103750000Y-120536124D01*
X104102176Y-120682000D01*
X104897825Y-120682000D01*
X106050043Y-120682000D01*
X106412176Y-120832000D01*
X107207825Y-120832000D01*
X108707825Y-120832000D01*
X109442909Y-120527518D01*
X110005518Y-119964909D01*
X110056452Y-119841942D01*
X110432015Y-120218161D01*
X111350538Y-120599565D01*
X112345099Y-120600433D01*
X113264286Y-120220633D01*
X113968161Y-119517985D01*
X114349565Y-118599462D01*
X114349731Y-118408300D01*
X115166400Y-117591631D01*
X116064286Y-117220633D01*
X116627727Y-116658173D01*
X117380216Y-117411977D01*
X118390591Y-117831522D01*
X119484609Y-117832477D01*
X120075763Y-117588216D01*
X120302176Y-117682000D01*
X121097825Y-117682000D01*
X122397825Y-117682000D01*
X122750000Y-117536124D01*
X123102176Y-117682000D01*
X123897825Y-117682000D01*
X125050043Y-117682000D01*
X125412176Y-117832000D01*
X126207825Y-117832000D01*
X127707825Y-117832000D01*
X128442909Y-117527518D01*
X129005518Y-116964909D01*
X129056452Y-116841942D01*
X129432015Y-117218161D01*
X130350538Y-117599565D01*
X131345099Y-117600433D01*
X132264286Y-117220633D01*
X132284760Y-117200194D01*
X132963968Y-117065092D01*
X133654016Y-116604016D01*
X134166400Y-116091631D01*
X135064286Y-115720633D01*
X135627727Y-115158173D01*
X136380216Y-115911977D01*
X137390591Y-116331522D01*
X138484609Y-116332477D01*
X139075763Y-116088216D01*
X139302176Y-116182000D01*
X140097825Y-116182000D01*
X141397825Y-116182000D01*
X141750000Y-116036124D01*
X142102176Y-116182000D01*
X142897825Y-116182000D01*
X144050043Y-116182000D01*
X144412176Y-116332000D01*
X145207825Y-116332000D01*
X146707825Y-116332000D01*
X147442909Y-116027518D01*
X148005518Y-115464909D01*
X148056452Y-115341942D01*
X148432015Y-115718161D01*
X149350538Y-116099565D01*
X150345099Y-116100433D01*
X150356431Y-116095750D01*
X150529367Y-116514286D01*
X151232015Y-117218161D01*
X152150538Y-117599565D01*
X153145099Y-117600433D01*
X154064286Y-117220633D01*
X154627727Y-116658173D01*
X155380216Y-117411977D01*
X156390591Y-117831522D01*
X157484609Y-117832477D01*
X158075763Y-117588216D01*
X158302176Y-117682000D01*
X159097825Y-117682000D01*
X160397825Y-117682000D01*
X160750000Y-117536124D01*
X161102176Y-117682000D01*
X161897825Y-117682000D01*
X163050043Y-117682000D01*
X163412176Y-117832000D01*
X164207825Y-117832000D01*
X165707825Y-117832000D01*
X166442909Y-117527518D01*
X167005518Y-116964909D01*
X167056452Y-116841942D01*
X167432015Y-117218161D01*
X168350538Y-117599565D01*
X169345099Y-117600433D01*
X170264286Y-117220633D01*
X170968161Y-116517985D01*
X171349565Y-115599462D01*
X171350433Y-114604901D01*
X170977000Y-113701123D01*
X170977000Y-111281032D01*
X180381032Y-101877000D01*
X188350000Y-101877000D01*
X189163968Y-101715092D01*
X189854016Y-101254016D01*
X194331032Y-96777000D01*
X207675000Y-96777000D01*
X208488968Y-96615092D01*
X209179016Y-96154016D01*
X210956032Y-94377000D01*
X224964968Y-94377000D01*
G36*
X226435334Y-112676989D02*
X225925433Y-112887676D01*
X225575323Y-109536207D01*
X226231307Y-109265160D01*
X226435334Y-109061488D01*
X226435334Y-112676989D01*
X226435334Y-112676989D01*
G37*
X226435334Y-112676989D02*
X225925433Y-112887676D01*
X225575323Y-109536207D01*
X226231307Y-109265160D01*
X226435334Y-109061488D01*
X226435334Y-112676989D01*
G36*
X226757918Y-151996460D02*
X226738963Y-152037109D01*
X226735677Y-152005650D01*
X226757918Y-151996460D01*
X226757918Y-151996460D01*
G37*
X226757918Y-151996460D02*
X226738963Y-152037109D01*
X226735677Y-152005650D01*
X226757918Y-151996460D01*
G36*
X227553812Y-86830654D02*
X226890892Y-86830076D01*
X226145923Y-87137891D01*
X223902000Y-84893968D01*
X223902000Y-76763395D01*
X224487628Y-77540480D01*
X224609977Y-77612542D01*
X224590228Y-77753115D01*
X224870030Y-78834834D01*
X224918780Y-78935892D01*
X225591239Y-79828195D01*
X225713589Y-79900257D01*
X225693839Y-80040831D01*
X225973641Y-81122550D01*
X226022391Y-81223608D01*
X226694850Y-82115911D01*
X226817200Y-82187973D01*
X226797450Y-82328547D01*
X227077252Y-83410266D01*
X227126002Y-83511324D01*
X227553812Y-84078996D01*
X227553812Y-86830654D01*
X227553812Y-86830654D01*
G37*
X227553812Y-86830654D02*
X226890892Y-86830076D01*
X226145923Y-87137891D01*
X223902000Y-84893968D01*
X223902000Y-76763395D01*
X224487628Y-77540480D01*
X224609977Y-77612542D01*
X224590228Y-77753115D01*
X224870030Y-78834834D01*
X224918780Y-78935892D01*
X225591239Y-79828195D01*
X225713589Y-79900257D01*
X225693839Y-80040831D01*
X225973641Y-81122550D01*
X226022391Y-81223608D01*
X226694850Y-82115911D01*
X226817200Y-82187973D01*
X226797450Y-82328547D01*
X227077252Y-83410266D01*
X227126002Y-83511324D01*
X227553812Y-84078996D01*
X227553812Y-86830654D01*
G36*
X228513583Y-120481477D02*
X227092707Y-120481477D01*
X227232889Y-120423555D01*
X227921138Y-119736506D01*
X227922620Y-119732934D01*
X228032987Y-120000041D01*
X228513583Y-120481477D01*
X228513583Y-120481477D01*
G37*
X228513583Y-120481477D02*
X227092707Y-120481477D01*
X227232889Y-120423555D01*
X227921138Y-119736506D01*
X227922620Y-119732934D01*
X228032987Y-120000041D01*
X228513583Y-120481477D01*
G36*
X231245674Y-142372436D02*
X228461460Y-148343203D01*
X228318573Y-147997390D01*
X228700783Y-147076927D01*
X228701824Y-145883453D01*
X228309429Y-144933784D01*
X228537672Y-144135176D01*
X228401922Y-142952892D01*
X227824064Y-141912554D01*
X227168874Y-141392327D01*
X227081526Y-140911368D01*
X227760622Y-141228036D01*
X229120084Y-141861963D01*
X229914976Y-141896669D01*
X230662641Y-141624541D01*
X230757729Y-141537408D01*
X231001821Y-142128157D01*
X231245674Y-142372436D01*
X231245674Y-142372436D01*
G37*
X231245674Y-142372436D02*
X228461460Y-148343203D01*
X228318573Y-147997390D01*
X228700783Y-147076927D01*
X228701824Y-145883453D01*
X228309429Y-144933784D01*
X228537672Y-144135176D01*
X228401922Y-142952892D01*
X227824064Y-141912554D01*
X227168874Y-141392327D01*
X227081526Y-140911368D01*
X227760622Y-141228036D01*
X229120084Y-141861963D01*
X229914976Y-141896669D01*
X230662641Y-141624541D01*
X230757729Y-141537408D01*
X231001821Y-142128157D01*
X231245674Y-142372436D01*
G36*
X234787665Y-134776611D02*
X234768710Y-134817261D01*
X234765424Y-134785802D01*
X234787665Y-134776611D01*
X234787665Y-134776611D01*
G37*
X234787665Y-134776611D02*
X234768710Y-134817261D01*
X234765424Y-134785802D01*
X234787665Y-134776611D01*
G36*
X234934970Y-105067043D02*
X234825931Y-105139078D01*
X234367738Y-105817099D01*
X234260615Y-105817006D01*
X233157591Y-106272766D01*
X232312941Y-107115943D01*
X232055647Y-107735573D01*
X231017477Y-108164537D01*
X230689334Y-108492107D01*
X230689334Y-103087270D01*
X234934970Y-105067043D01*
X234934970Y-105067043D01*
G37*
X234934970Y-105067043D02*
X234825931Y-105139078D01*
X234367738Y-105817099D01*
X234260615Y-105817006D01*
X233157591Y-106272766D01*
X232312941Y-107115943D01*
X232055647Y-107735573D01*
X231017477Y-108164537D01*
X230689334Y-108492107D01*
X230689334Y-103087270D01*
X234934970Y-105067043D01*
G36*
X238364419Y-101972451D02*
X229461243Y-97820832D01*
X228149074Y-97208957D01*
X230875000Y-94483031D01*
X238364419Y-101972451D01*
X238364419Y-101972451D01*
G37*
X238364419Y-101972451D02*
X229461243Y-97820832D01*
X228149074Y-97208957D01*
X230875000Y-94483031D01*
X238364419Y-101972451D01*
G36*
X239275421Y-125152588D02*
X236491207Y-131123355D01*
X236348320Y-130777542D01*
X236730530Y-129857079D01*
X236731571Y-128663605D01*
X236339176Y-127713936D01*
X236567419Y-126915328D01*
X236431669Y-125733044D01*
X235853811Y-124692706D01*
X235198621Y-124172479D01*
X235111273Y-123691520D01*
X235790369Y-124008188D01*
X237149831Y-124642115D01*
X237944723Y-124676821D01*
X238692388Y-124404693D01*
X238787476Y-124317560D01*
X239031568Y-124908309D01*
X239275421Y-125152588D01*
X239275421Y-125152588D01*
G37*
X239275421Y-125152588D02*
X236491207Y-131123355D01*
X236348320Y-130777542D01*
X236730530Y-129857079D01*
X236731571Y-128663605D01*
X236339176Y-127713936D01*
X236567419Y-126915328D01*
X236431669Y-125733044D01*
X235853811Y-124692706D01*
X235198621Y-124172479D01*
X235111273Y-123691520D01*
X235790369Y-124008188D01*
X237149831Y-124642115D01*
X237944723Y-124676821D01*
X238692388Y-124404693D01*
X238787476Y-124317560D01*
X239031568Y-124908309D01*
X239275421Y-125152588D01*
G36*
X243980621Y-101572589D02*
X234095527Y-91687495D01*
X234095527Y-86953559D01*
X235710702Y-88568734D01*
X236026445Y-89332889D01*
X236713494Y-90021138D01*
X237611626Y-90394075D01*
X238517568Y-90394865D01*
X243980621Y-101572589D01*
X243980621Y-101572589D01*
G37*
X243980621Y-101572589D02*
X234095527Y-91687495D01*
X234095527Y-86953559D01*
X235710702Y-88568734D01*
X236026445Y-89332889D01*
X236713494Y-90021138D01*
X237611626Y-90394075D01*
X238517568Y-90394865D01*
X243980621Y-101572589D01*
G36*
X247199677Y-108158966D02*
X245702000Y-111370747D01*
X245702000Y-105094630D01*
X247199677Y-108158966D01*
X247199677Y-108158966D01*
G37*
X247199677Y-108158966D02*
X245702000Y-111370747D01*
X245702000Y-105094630D01*
X247199677Y-108158966D01*
M02*
