%FSLAX46Y46*%
G04 Gerber Fmt 4.6, Leading zero omitted, Abs format (unit mm)*
G04 Created by KiCad (PCBNEW (2014-09-07 BZR 5117)-product) date Thu 04 Dec 2014 19:35:44 GMT*
%MOMM*%
G01*
G04 APERTURE LIST*
%ADD10C,0.100000*%
%ADD11C,0.500000*%
%ADD12C,0.750000*%
%ADD13C,1.500000*%
%ADD14C,2.000000*%
%ADD15C,2.100000*%
%ADD16C,1.000000*%
%ADD17R,1.600000X1.500000*%
%ADD18R,1.500000X1.500000*%
%ADD19R,1.300000X1.200000*%
%ADD20R,1.500000X1.600000*%
%ADD21R,1.200000X1.300000*%
%ADD22C,1.727200*%
%ADD23C,0.889000*%
%ADD24C,0.254000*%
%ADD25C,1.000000*%
G04 APERTURE END LIST*
D10*
D11*
X171500000Y-126357143D02*
X171500000Y-124357143D01*
X171500000Y-124642857D02*
X171357143Y-124500000D01*
X171071429Y-124357143D01*
X170642857Y-124357143D01*
X170357143Y-124500000D01*
X170214286Y-124785714D01*
X170214286Y-126357143D01*
X170214286Y-124785714D02*
X170071429Y-124500000D01*
X169785715Y-124357143D01*
X169357143Y-124357143D01*
X169071429Y-124500000D01*
X168928572Y-124785714D01*
X168928572Y-126357143D01*
X166214286Y-126214286D02*
X166500000Y-126357143D01*
X167071429Y-126357143D01*
X167357143Y-126214286D01*
X167500000Y-126071429D01*
X167642857Y-125785714D01*
X167642857Y-124928571D01*
X167500000Y-124642857D01*
X167357143Y-124500000D01*
X167071429Y-124357143D01*
X166500000Y-124357143D01*
X166214286Y-124500000D01*
X163642857Y-126357143D02*
X163642857Y-123357143D01*
X163642857Y-126214286D02*
X163928571Y-126357143D01*
X164500000Y-126357143D01*
X164785714Y-126214286D01*
X164928571Y-126071429D01*
X165071428Y-125785714D01*
X165071428Y-124928571D01*
X164928571Y-124642857D01*
X164785714Y-124500000D01*
X164500000Y-124357143D01*
X163928571Y-124357143D01*
X163642857Y-124500000D01*
X161785714Y-126357143D02*
X162071428Y-126214286D01*
X162214285Y-126071429D01*
X162357142Y-125785714D01*
X162357142Y-124928571D01*
X162214285Y-124642857D01*
X162071428Y-124500000D01*
X161785714Y-124357143D01*
X161357142Y-124357143D01*
X161071428Y-124500000D01*
X160928571Y-124642857D01*
X160785714Y-124928571D01*
X160785714Y-125785714D01*
X160928571Y-126071429D01*
X161071428Y-126214286D01*
X161357142Y-126357143D01*
X161785714Y-126357143D01*
X159785714Y-126357143D02*
X158214285Y-124357143D01*
X159785714Y-124357143D02*
X158214285Y-126357143D01*
X187700361Y-118297417D02*
X190058154Y-117973517D01*
X185570365Y-122865209D02*
X186837803Y-124879582D01*
X191446463Y-128341656D02*
X192883365Y-125260209D01*
X191446463Y-128341656D02*
X187326792Y-129841093D01*
X196978119Y-121211384D02*
X194173208Y-115158907D01*
D12*
X192756579Y-125532101D02*
X194822766Y-125833553D01*
X194362529Y-122088132D02*
X195921573Y-123477153D01*
D11*
X196485144Y-129367178D02*
X197541689Y-127101408D01*
X196485144Y-129367178D02*
X193766220Y-128099323D01*
X199697042Y-122479238D02*
X196978119Y-121211384D01*
X199697042Y-122479238D02*
X198640497Y-124745008D01*
X204920209Y-126327164D02*
X207278002Y-126003264D01*
X202790213Y-130894956D02*
X204057651Y-132909329D01*
X208666311Y-136371403D02*
X210103213Y-133289956D01*
X208666311Y-136371403D02*
X204546640Y-137870840D01*
X214197967Y-129241131D02*
X211393056Y-123188654D01*
D12*
X209976427Y-133561848D02*
X212042614Y-133863300D01*
X211582377Y-130117879D02*
X213141421Y-131506900D01*
D11*
X213704992Y-137396925D02*
X214761537Y-135131155D01*
X213704992Y-137396925D02*
X210986068Y-136129070D01*
X216916890Y-130508985D02*
X214197967Y-129241131D01*
X216916890Y-130508985D02*
X215860345Y-132774755D01*
X225377405Y-144119779D02*
X225701305Y-146477572D01*
X220809613Y-141989783D02*
X218795240Y-143257221D01*
X215333166Y-147865881D02*
X218414613Y-149302783D01*
X215333166Y-147865881D02*
X213833729Y-143746210D01*
X222463438Y-153397537D02*
X228515915Y-150592626D01*
D12*
X218142721Y-149175997D02*
X217841269Y-151242184D01*
X221586690Y-150781947D02*
X220197669Y-152340991D01*
D11*
X214307644Y-152904562D02*
X216573414Y-153961107D01*
X214307644Y-152904562D02*
X215575499Y-150185638D01*
X221195584Y-156116460D02*
X222463438Y-153397537D01*
X221195584Y-156116460D02*
X218929814Y-155059915D01*
X233407152Y-126899931D02*
X233731052Y-129257724D01*
X228839360Y-124769935D02*
X226824987Y-126037373D01*
X223362913Y-130646033D02*
X226444360Y-132082935D01*
X223362913Y-130646033D02*
X221863476Y-126526362D01*
X230493185Y-136177689D02*
X236545662Y-133372778D01*
D12*
X226172468Y-131956149D02*
X225871016Y-134022336D01*
X229616437Y-133562099D02*
X228227416Y-135121143D01*
D11*
X222337391Y-135684714D02*
X224603161Y-136741259D01*
X222337391Y-135684714D02*
X223605246Y-132965790D01*
X229225331Y-138896612D02*
X230493185Y-136177689D01*
X229225331Y-138896612D02*
X226959561Y-137840067D01*
X241436899Y-109680083D02*
X241760799Y-112037876D01*
X236869107Y-107550087D02*
X234854734Y-108817525D01*
X231392660Y-113426185D02*
X234474107Y-114863087D01*
X231392660Y-113426185D02*
X229893223Y-109306514D01*
X238522932Y-118957841D02*
X244575409Y-116152930D01*
D12*
X234202215Y-114736301D02*
X233900763Y-116802488D01*
X237646184Y-116342251D02*
X236257163Y-117901295D01*
D11*
X230367138Y-118464866D02*
X232632908Y-119521411D01*
X230367138Y-118464866D02*
X231634993Y-115745942D01*
X237255078Y-121676764D02*
X238522932Y-118957841D01*
X237255078Y-121676764D02*
X234989308Y-120620219D01*
X224217051Y-101650336D02*
X224540951Y-104008129D01*
X219649259Y-99520340D02*
X217634886Y-100787778D01*
X214172812Y-105396438D02*
X217254259Y-106833340D01*
X214172812Y-105396438D02*
X212673375Y-101276767D01*
X221303084Y-110928094D02*
X227355561Y-108123183D01*
D12*
X216982367Y-106706554D02*
X216680915Y-108772741D01*
X220426336Y-108312504D02*
X219037315Y-109871548D01*
D11*
X213147290Y-110435119D02*
X215413060Y-111491664D01*
X213147290Y-110435119D02*
X214415145Y-107716195D01*
X220035230Y-113647017D02*
X221303084Y-110928094D01*
X220035230Y-113647017D02*
X217769460Y-112590472D01*
X201270000Y-27960000D02*
X202560000Y-29960000D01*
X196230000Y-27960000D02*
X194940000Y-29960000D01*
X193750000Y-35600000D02*
X197150000Y-35600000D01*
X193750000Y-35600000D02*
X190650000Y-32500000D01*
X202550000Y-37600000D02*
X206850000Y-32500000D01*
D12*
X196850000Y-35600000D02*
X197450000Y-37600000D01*
X200650000Y-35600000D02*
X200050000Y-37600000D01*
D11*
X194950000Y-40600000D02*
X197450000Y-40600000D01*
X194950000Y-40600000D02*
X194950000Y-37600000D01*
X202550000Y-40600000D02*
X202550000Y-37600000D01*
X202550000Y-40600000D02*
X200050000Y-40600000D01*
X194210000Y-53730000D02*
X196210000Y-52440000D01*
X194210000Y-58770000D02*
X196210000Y-60060000D01*
X201850000Y-61250000D02*
X201850000Y-57850000D01*
X201850000Y-61250000D02*
X198750000Y-64350000D01*
X203850000Y-52450000D02*
X198750000Y-48150000D01*
D12*
X201850000Y-58150000D02*
X203850000Y-57550000D01*
X201850000Y-54350000D02*
X203850000Y-54950000D01*
D11*
X206850000Y-60050000D02*
X206850000Y-57550000D01*
X206850000Y-60050000D02*
X203850000Y-60050000D01*
X206850000Y-52450000D02*
X203850000Y-52450000D01*
X206850000Y-52450000D02*
X206850000Y-54950000D01*
X194210000Y-82230000D02*
X196210000Y-80940000D01*
X194210000Y-87270000D02*
X196210000Y-88560000D01*
X201850000Y-89750000D02*
X201850000Y-86350000D01*
X201850000Y-89750000D02*
X198750000Y-92850000D01*
X203850000Y-80950000D02*
X198750000Y-76650000D01*
D12*
X201850000Y-86650000D02*
X203850000Y-86050000D01*
X201850000Y-82850000D02*
X203850000Y-83450000D01*
D11*
X206850000Y-88550000D02*
X206850000Y-86050000D01*
X206850000Y-88550000D02*
X203850000Y-88550000D01*
X206850000Y-80950000D02*
X203850000Y-80950000D01*
X206850000Y-80950000D02*
X206850000Y-83450000D01*
X182270000Y-27960000D02*
X183560000Y-29960000D01*
X177230000Y-27960000D02*
X175940000Y-29960000D01*
X174750000Y-35600000D02*
X178150000Y-35600000D01*
X174750000Y-35600000D02*
X171650000Y-32500000D01*
X183550000Y-37600000D02*
X187850000Y-32500000D01*
D12*
X177850000Y-35600000D02*
X178450000Y-37600000D01*
X181650000Y-35600000D02*
X181050000Y-37600000D01*
D11*
X175950000Y-40600000D02*
X178450000Y-40600000D01*
X175950000Y-40600000D02*
X175950000Y-37600000D01*
X183550000Y-40600000D02*
X183550000Y-37600000D01*
X183550000Y-40600000D02*
X181050000Y-40600000D01*
X182270000Y-46960000D02*
X183560000Y-48960000D01*
X177230000Y-46960000D02*
X175940000Y-48960000D01*
X174750000Y-54600000D02*
X178150000Y-54600000D01*
X174750000Y-54600000D02*
X171650000Y-51500000D01*
X183550000Y-56600000D02*
X187850000Y-51500000D01*
D12*
X177850000Y-54600000D02*
X178450000Y-56600000D01*
X181650000Y-54600000D02*
X181050000Y-56600000D01*
D11*
X175950000Y-59600000D02*
X178450000Y-59600000D01*
X175950000Y-59600000D02*
X175950000Y-56600000D01*
X183550000Y-59600000D02*
X183550000Y-56600000D01*
X183550000Y-59600000D02*
X181050000Y-59600000D01*
X182270000Y-65960000D02*
X183560000Y-67960000D01*
X177230000Y-65960000D02*
X175940000Y-67960000D01*
X174750000Y-73600000D02*
X178150000Y-73600000D01*
X174750000Y-73600000D02*
X171650000Y-70500000D01*
X183550000Y-75600000D02*
X187850000Y-70500000D01*
D12*
X177850000Y-73600000D02*
X178450000Y-75600000D01*
X181650000Y-73600000D02*
X181050000Y-75600000D01*
D11*
X175950000Y-78600000D02*
X178450000Y-78600000D01*
X175950000Y-78600000D02*
X175950000Y-75600000D01*
X183550000Y-78600000D02*
X183550000Y-75600000D01*
X183550000Y-78600000D02*
X181050000Y-78600000D01*
X182270000Y-84960000D02*
X183560000Y-86960000D01*
X177230000Y-84960000D02*
X175940000Y-86960000D01*
X174750000Y-92600000D02*
X178150000Y-92600000D01*
X174750000Y-92600000D02*
X171650000Y-89500000D01*
X183550000Y-94600000D02*
X187850000Y-89500000D01*
D12*
X177850000Y-92600000D02*
X178450000Y-94600000D01*
X181650000Y-92600000D02*
X181050000Y-94600000D01*
D11*
X175950000Y-97600000D02*
X178450000Y-97600000D01*
X175950000Y-97600000D02*
X175950000Y-94600000D01*
X183550000Y-97600000D02*
X183550000Y-94600000D01*
X183550000Y-97600000D02*
X181050000Y-97600000D01*
X163270000Y-26460000D02*
X164560000Y-28460000D01*
X158230000Y-26460000D02*
X156940000Y-28460000D01*
X155750000Y-34100000D02*
X159150000Y-34100000D01*
X155750000Y-34100000D02*
X152650000Y-31000000D01*
X164550000Y-36100000D02*
X168850000Y-31000000D01*
D12*
X158850000Y-34100000D02*
X159450000Y-36100000D01*
X162650000Y-34100000D02*
X162050000Y-36100000D01*
D11*
X156950000Y-39100000D02*
X159450000Y-39100000D01*
X156950000Y-39100000D02*
X156950000Y-36100000D01*
X164550000Y-39100000D02*
X164550000Y-36100000D01*
X164550000Y-39100000D02*
X162050000Y-39100000D01*
X163270000Y-45460000D02*
X164560000Y-47460000D01*
X158230000Y-45460000D02*
X156940000Y-47460000D01*
X155750000Y-53100000D02*
X159150000Y-53100000D01*
X155750000Y-53100000D02*
X152650000Y-50000000D01*
X164550000Y-55100000D02*
X168850000Y-50000000D01*
D12*
X158850000Y-53100000D02*
X159450000Y-55100000D01*
X162650000Y-53100000D02*
X162050000Y-55100000D01*
D11*
X156950000Y-58100000D02*
X159450000Y-58100000D01*
X156950000Y-58100000D02*
X156950000Y-55100000D01*
X164550000Y-58100000D02*
X164550000Y-55100000D01*
X164550000Y-58100000D02*
X162050000Y-58100000D01*
X163270000Y-64460000D02*
X164560000Y-66460000D01*
X158230000Y-64460000D02*
X156940000Y-66460000D01*
X155750000Y-72100000D02*
X159150000Y-72100000D01*
X155750000Y-72100000D02*
X152650000Y-69000000D01*
X164550000Y-74100000D02*
X168850000Y-69000000D01*
D12*
X158850000Y-72100000D02*
X159450000Y-74100000D01*
X162650000Y-72100000D02*
X162050000Y-74100000D01*
D11*
X156950000Y-77100000D02*
X159450000Y-77100000D01*
X156950000Y-77100000D02*
X156950000Y-74100000D01*
X164550000Y-77100000D02*
X164550000Y-74100000D01*
X164550000Y-77100000D02*
X162050000Y-77100000D01*
X163270000Y-83460000D02*
X164560000Y-85460000D01*
X158230000Y-83460000D02*
X156940000Y-85460000D01*
X155750000Y-91100000D02*
X159150000Y-91100000D01*
X155750000Y-91100000D02*
X152650000Y-88000000D01*
X164550000Y-93100000D02*
X168850000Y-88000000D01*
D12*
X158850000Y-91100000D02*
X159450000Y-93100000D01*
X162650000Y-91100000D02*
X162050000Y-93100000D01*
D11*
X156950000Y-96100000D02*
X159450000Y-96100000D01*
X156950000Y-96100000D02*
X156950000Y-93100000D01*
X164550000Y-96100000D02*
X164550000Y-93100000D01*
X164550000Y-96100000D02*
X162050000Y-96100000D01*
X163270000Y-102460000D02*
X164560000Y-104460000D01*
X158230000Y-102460000D02*
X156940000Y-104460000D01*
X155750000Y-110100000D02*
X159150000Y-110100000D01*
X155750000Y-110100000D02*
X152650000Y-107000000D01*
X164550000Y-112100000D02*
X168850000Y-107000000D01*
D12*
X158850000Y-110100000D02*
X159450000Y-112100000D01*
X162650000Y-110100000D02*
X162050000Y-112100000D01*
D11*
X156950000Y-115100000D02*
X159450000Y-115100000D01*
X156950000Y-115100000D02*
X156950000Y-112100000D01*
X164550000Y-115100000D02*
X164550000Y-112100000D01*
X164550000Y-115100000D02*
X162050000Y-115100000D01*
X144270000Y-24960000D02*
X145560000Y-26960000D01*
X139230000Y-24960000D02*
X137940000Y-26960000D01*
X136750000Y-32600000D02*
X140150000Y-32600000D01*
X136750000Y-32600000D02*
X133650000Y-29500000D01*
X145550000Y-34600000D02*
X149850000Y-29500000D01*
D12*
X139850000Y-32600000D02*
X140450000Y-34600000D01*
X143650000Y-32600000D02*
X143050000Y-34600000D01*
D11*
X137950000Y-37600000D02*
X140450000Y-37600000D01*
X137950000Y-37600000D02*
X137950000Y-34600000D01*
X145550000Y-37600000D02*
X145550000Y-34600000D01*
X145550000Y-37600000D02*
X143050000Y-37600000D01*
X144270000Y-43960000D02*
X145560000Y-45960000D01*
X139230000Y-43960000D02*
X137940000Y-45960000D01*
X136750000Y-51600000D02*
X140150000Y-51600000D01*
X136750000Y-51600000D02*
X133650000Y-48500000D01*
X145550000Y-53600000D02*
X149850000Y-48500000D01*
D12*
X139850000Y-51600000D02*
X140450000Y-53600000D01*
X143650000Y-51600000D02*
X143050000Y-53600000D01*
D11*
X137950000Y-56600000D02*
X140450000Y-56600000D01*
X137950000Y-56600000D02*
X137950000Y-53600000D01*
X145550000Y-56600000D02*
X145550000Y-53600000D01*
X145550000Y-56600000D02*
X143050000Y-56600000D01*
X144270000Y-62960000D02*
X145560000Y-64960000D01*
X139230000Y-62960000D02*
X137940000Y-64960000D01*
X136750000Y-70600000D02*
X140150000Y-70600000D01*
X136750000Y-70600000D02*
X133650000Y-67500000D01*
X145550000Y-72600000D02*
X149850000Y-67500000D01*
D12*
X139850000Y-70600000D02*
X140450000Y-72600000D01*
X143650000Y-70600000D02*
X143050000Y-72600000D01*
D11*
X137950000Y-75600000D02*
X140450000Y-75600000D01*
X137950000Y-75600000D02*
X137950000Y-72600000D01*
X145550000Y-75600000D02*
X145550000Y-72600000D01*
X145550000Y-75600000D02*
X143050000Y-75600000D01*
X144270000Y-81960000D02*
X145560000Y-83960000D01*
X139230000Y-81960000D02*
X137940000Y-83960000D01*
X136750000Y-89600000D02*
X140150000Y-89600000D01*
X136750000Y-89600000D02*
X133650000Y-86500000D01*
X145550000Y-91600000D02*
X149850000Y-86500000D01*
D12*
X139850000Y-89600000D02*
X140450000Y-91600000D01*
X143650000Y-89600000D02*
X143050000Y-91600000D01*
D11*
X137950000Y-94600000D02*
X140450000Y-94600000D01*
X137950000Y-94600000D02*
X137950000Y-91600000D01*
X145550000Y-94600000D02*
X145550000Y-91600000D01*
X145550000Y-94600000D02*
X143050000Y-94600000D01*
X144270000Y-100960000D02*
X145560000Y-102960000D01*
X139230000Y-100960000D02*
X137940000Y-102960000D01*
X136750000Y-108600000D02*
X140150000Y-108600000D01*
X136750000Y-108600000D02*
X133650000Y-105500000D01*
X145550000Y-110600000D02*
X149850000Y-105500000D01*
D12*
X139850000Y-108600000D02*
X140450000Y-110600000D01*
X143650000Y-108600000D02*
X143050000Y-110600000D01*
D11*
X137950000Y-113600000D02*
X140450000Y-113600000D01*
X137950000Y-113600000D02*
X137950000Y-110600000D01*
X145550000Y-113600000D02*
X145550000Y-110600000D01*
X145550000Y-113600000D02*
X143050000Y-113600000D01*
X125270000Y-26460000D02*
X126560000Y-28460000D01*
X120230000Y-26460000D02*
X118940000Y-28460000D01*
X117750000Y-34100000D02*
X121150000Y-34100000D01*
X117750000Y-34100000D02*
X114650000Y-31000000D01*
X126550000Y-36100000D02*
X130850000Y-31000000D01*
D12*
X120850000Y-34100000D02*
X121450000Y-36100000D01*
X124650000Y-34100000D02*
X124050000Y-36100000D01*
D11*
X118950000Y-39100000D02*
X121450000Y-39100000D01*
X118950000Y-39100000D02*
X118950000Y-36100000D01*
X126550000Y-39100000D02*
X126550000Y-36100000D01*
X126550000Y-39100000D02*
X124050000Y-39100000D01*
X125270000Y-45460000D02*
X126560000Y-47460000D01*
X120230000Y-45460000D02*
X118940000Y-47460000D01*
X117750000Y-53100000D02*
X121150000Y-53100000D01*
X117750000Y-53100000D02*
X114650000Y-50000000D01*
X126550000Y-55100000D02*
X130850000Y-50000000D01*
D12*
X120850000Y-53100000D02*
X121450000Y-55100000D01*
X124650000Y-53100000D02*
X124050000Y-55100000D01*
D11*
X118950000Y-58100000D02*
X121450000Y-58100000D01*
X118950000Y-58100000D02*
X118950000Y-55100000D01*
X126550000Y-58100000D02*
X126550000Y-55100000D01*
X126550000Y-58100000D02*
X124050000Y-58100000D01*
X125270000Y-64460000D02*
X126560000Y-66460000D01*
X120230000Y-64460000D02*
X118940000Y-66460000D01*
X117750000Y-72100000D02*
X121150000Y-72100000D01*
X117750000Y-72100000D02*
X114650000Y-69000000D01*
X126550000Y-74100000D02*
X130850000Y-69000000D01*
D12*
X120850000Y-72100000D02*
X121450000Y-74100000D01*
X124650000Y-72100000D02*
X124050000Y-74100000D01*
D11*
X118950000Y-77100000D02*
X121450000Y-77100000D01*
X118950000Y-77100000D02*
X118950000Y-74100000D01*
X126550000Y-77100000D02*
X126550000Y-74100000D01*
X126550000Y-77100000D02*
X124050000Y-77100000D01*
X125270000Y-83460000D02*
X126560000Y-85460000D01*
X120230000Y-83460000D02*
X118940000Y-85460000D01*
X117750000Y-91100000D02*
X121150000Y-91100000D01*
X117750000Y-91100000D02*
X114650000Y-88000000D01*
X126550000Y-93100000D02*
X130850000Y-88000000D01*
D12*
X120850000Y-91100000D02*
X121450000Y-93100000D01*
X124650000Y-91100000D02*
X124050000Y-93100000D01*
D11*
X118950000Y-96100000D02*
X121450000Y-96100000D01*
X118950000Y-96100000D02*
X118950000Y-93100000D01*
X126550000Y-96100000D02*
X126550000Y-93100000D01*
X126550000Y-96100000D02*
X124050000Y-96100000D01*
X125270000Y-102460000D02*
X126560000Y-104460000D01*
X120230000Y-102460000D02*
X118940000Y-104460000D01*
X117750000Y-110100000D02*
X121150000Y-110100000D01*
X117750000Y-110100000D02*
X114650000Y-107000000D01*
X126550000Y-112100000D02*
X130850000Y-107000000D01*
D12*
X120850000Y-110100000D02*
X121450000Y-112100000D01*
X124650000Y-110100000D02*
X124050000Y-112100000D01*
D11*
X118950000Y-115100000D02*
X121450000Y-115100000D01*
X118950000Y-115100000D02*
X118950000Y-112100000D01*
X126550000Y-115100000D02*
X126550000Y-112100000D01*
X126550000Y-115100000D02*
X124050000Y-115100000D01*
X106270000Y-29460000D02*
X107560000Y-31460000D01*
X101230000Y-29460000D02*
X99940000Y-31460000D01*
X98750000Y-37100000D02*
X102150000Y-37100000D01*
X98750000Y-37100000D02*
X95650000Y-34000000D01*
X107550000Y-39100000D02*
X111850000Y-34000000D01*
D12*
X101850000Y-37100000D02*
X102450000Y-39100000D01*
X105650000Y-37100000D02*
X105050000Y-39100000D01*
D11*
X99950000Y-42100000D02*
X102450000Y-42100000D01*
X99950000Y-42100000D02*
X99950000Y-39100000D01*
X107550000Y-42100000D02*
X107550000Y-39100000D01*
X107550000Y-42100000D02*
X105050000Y-42100000D01*
X106270000Y-48460000D02*
X107560000Y-50460000D01*
X101230000Y-48460000D02*
X99940000Y-50460000D01*
X98750000Y-56100000D02*
X102150000Y-56100000D01*
X98750000Y-56100000D02*
X95650000Y-53000000D01*
X107550000Y-58100000D02*
X111850000Y-53000000D01*
D12*
X101850000Y-56100000D02*
X102450000Y-58100000D01*
X105650000Y-56100000D02*
X105050000Y-58100000D01*
D11*
X99950000Y-61100000D02*
X102450000Y-61100000D01*
X99950000Y-61100000D02*
X99950000Y-58100000D01*
X107550000Y-61100000D02*
X107550000Y-58100000D01*
X107550000Y-61100000D02*
X105050000Y-61100000D01*
X106270000Y-67460000D02*
X107560000Y-69460000D01*
X101230000Y-67460000D02*
X99940000Y-69460000D01*
X98750000Y-75100000D02*
X102150000Y-75100000D01*
X98750000Y-75100000D02*
X95650000Y-72000000D01*
X107550000Y-77100000D02*
X111850000Y-72000000D01*
D12*
X101850000Y-75100000D02*
X102450000Y-77100000D01*
X105650000Y-75100000D02*
X105050000Y-77100000D01*
D11*
X99950000Y-80100000D02*
X102450000Y-80100000D01*
X99950000Y-80100000D02*
X99950000Y-77100000D01*
X107550000Y-80100000D02*
X107550000Y-77100000D01*
X107550000Y-80100000D02*
X105050000Y-80100000D01*
X106270000Y-86460000D02*
X107560000Y-88460000D01*
X101230000Y-86460000D02*
X99940000Y-88460000D01*
X98750000Y-94100000D02*
X102150000Y-94100000D01*
X98750000Y-94100000D02*
X95650000Y-91000000D01*
X107550000Y-96100000D02*
X111850000Y-91000000D01*
D12*
X101850000Y-94100000D02*
X102450000Y-96100000D01*
X105650000Y-94100000D02*
X105050000Y-96100000D01*
D11*
X99950000Y-99100000D02*
X102450000Y-99100000D01*
X99950000Y-99100000D02*
X99950000Y-96100000D01*
X107550000Y-99100000D02*
X107550000Y-96100000D01*
X107550000Y-99100000D02*
X105050000Y-99100000D01*
X106270000Y-105460000D02*
X107560000Y-107460000D01*
X101230000Y-105460000D02*
X99940000Y-107460000D01*
X98750000Y-113100000D02*
X102150000Y-113100000D01*
X98750000Y-113100000D02*
X95650000Y-110000000D01*
X107550000Y-115100000D02*
X111850000Y-110000000D01*
D12*
X101850000Y-113100000D02*
X102450000Y-115100000D01*
X105650000Y-113100000D02*
X105050000Y-115100000D01*
D11*
X99950000Y-118100000D02*
X102450000Y-118100000D01*
X99950000Y-118100000D02*
X99950000Y-115100000D01*
X107550000Y-118100000D02*
X107550000Y-115100000D01*
X107550000Y-118100000D02*
X105050000Y-118100000D01*
X82520000Y-29460000D02*
X83810000Y-31460000D01*
X77480000Y-29460000D02*
X76190000Y-31460000D01*
X75000000Y-37100000D02*
X78400000Y-37100000D01*
X75000000Y-37100000D02*
X71900000Y-34000000D01*
X83800000Y-39100000D02*
X88100000Y-34000000D01*
D12*
X78100000Y-37100000D02*
X78700000Y-39100000D01*
X81900000Y-37100000D02*
X81300000Y-39100000D01*
D11*
X76200000Y-42100000D02*
X78700000Y-42100000D01*
X76200000Y-42100000D02*
X76200000Y-39100000D01*
X83800000Y-42100000D02*
X83800000Y-39100000D01*
X83800000Y-42100000D02*
X81300000Y-42100000D01*
X82520000Y-48460000D02*
X83810000Y-50460000D01*
X77480000Y-48460000D02*
X76190000Y-50460000D01*
X75000000Y-56100000D02*
X78400000Y-56100000D01*
X75000000Y-56100000D02*
X71900000Y-53000000D01*
X83800000Y-58100000D02*
X88100000Y-53000000D01*
D12*
X78100000Y-56100000D02*
X78700000Y-58100000D01*
X81900000Y-56100000D02*
X81300000Y-58100000D01*
D11*
X76200000Y-61100000D02*
X78700000Y-61100000D01*
X76200000Y-61100000D02*
X76200000Y-58100000D01*
X83800000Y-61100000D02*
X83800000Y-58100000D01*
X83800000Y-61100000D02*
X81300000Y-61100000D01*
X82520000Y-67460000D02*
X83810000Y-69460000D01*
X77480000Y-67460000D02*
X76190000Y-69460000D01*
X75000000Y-75100000D02*
X78400000Y-75100000D01*
X75000000Y-75100000D02*
X71900000Y-72000000D01*
X83800000Y-77100000D02*
X88100000Y-72000000D01*
D12*
X78100000Y-75100000D02*
X78700000Y-77100000D01*
X81900000Y-75100000D02*
X81300000Y-77100000D01*
D11*
X76200000Y-80100000D02*
X78700000Y-80100000D01*
X76200000Y-80100000D02*
X76200000Y-77100000D01*
X83800000Y-80100000D02*
X83800000Y-77100000D01*
X83800000Y-80100000D02*
X81300000Y-80100000D01*
X82520000Y-86460000D02*
X83810000Y-88460000D01*
X77480000Y-86460000D02*
X76190000Y-88460000D01*
X75000000Y-94100000D02*
X78400000Y-94100000D01*
X75000000Y-94100000D02*
X71900000Y-91000000D01*
X83800000Y-96100000D02*
X88100000Y-91000000D01*
D12*
X78100000Y-94100000D02*
X78700000Y-96100000D01*
X81900000Y-94100000D02*
X81300000Y-96100000D01*
D11*
X76200000Y-99100000D02*
X78700000Y-99100000D01*
X76200000Y-99100000D02*
X76200000Y-96100000D01*
X83800000Y-99100000D02*
X83800000Y-96100000D01*
X83800000Y-99100000D02*
X81300000Y-99100000D01*
X87270000Y-105460000D02*
X88560000Y-107460000D01*
X82230000Y-105460000D02*
X80940000Y-107460000D01*
X79750000Y-113100000D02*
X83150000Y-113100000D01*
X79750000Y-113100000D02*
X76650000Y-110000000D01*
X88550000Y-115100000D02*
X92850000Y-110000000D01*
D12*
X82850000Y-113100000D02*
X83450000Y-115100000D01*
X86650000Y-113100000D02*
X86050000Y-115100000D01*
D11*
X80950000Y-118100000D02*
X83450000Y-118100000D01*
X80950000Y-118100000D02*
X80950000Y-115100000D01*
X88550000Y-118100000D02*
X88550000Y-115100000D01*
X88550000Y-118100000D02*
X86050000Y-118100000D01*
D10*
G36*
X194686039Y-123121689D02*
X193326578Y-122487762D01*
X194002767Y-121037669D01*
X195362228Y-121671596D01*
X194686039Y-123121689D01*
X194686039Y-123121689D01*
G37*
G36*
X193080089Y-126565659D02*
X191720628Y-125931732D01*
X192396817Y-124481639D01*
X193756278Y-125115566D01*
X193080089Y-126565659D01*
X193080089Y-126565659D01*
G37*
G36*
X196253536Y-124492585D02*
X194894074Y-123858657D01*
X195528002Y-122499195D01*
X196887464Y-123133123D01*
X196253536Y-124492585D01*
X196253536Y-124492585D01*
G37*
D13*
X194817318Y-125797912D03*
D10*
G36*
X197326986Y-122190563D02*
X195967524Y-121556635D01*
X196601452Y-120197173D01*
X197960914Y-120831101D01*
X197326986Y-122190563D01*
X197326986Y-122190563D01*
G37*
D13*
X193743868Y-128099933D03*
D10*
G36*
X200047722Y-123459263D02*
X198688260Y-122825335D01*
X199322188Y-121465873D01*
X200681650Y-122099801D01*
X200047722Y-123459263D01*
X200047722Y-123459263D01*
G37*
D13*
X196464604Y-129368633D03*
D10*
G36*
X198935528Y-125489441D02*
X197847958Y-124982299D01*
X198397362Y-123804099D01*
X199484932Y-124311241D01*
X198935528Y-125489441D01*
X198935528Y-125489441D01*
G37*
G36*
X197752197Y-128027103D02*
X196664627Y-127519961D01*
X197214031Y-126341761D01*
X198301601Y-126848903D01*
X197752197Y-128027103D01*
X197752197Y-128027103D01*
G37*
D14*
X190058154Y-117973517D03*
X186837803Y-124879582D03*
D15*
X187522478Y-118205997D02*
X187878244Y-118388837D01*
X185385992Y-122787706D02*
X185754738Y-122942712D01*
D16*
X187326792Y-129841093D03*
X194173208Y-115158907D03*
D10*
G36*
X211905887Y-131151436D02*
X210546426Y-130517509D01*
X211222615Y-129067416D01*
X212582076Y-129701343D01*
X211905887Y-131151436D01*
X211905887Y-131151436D01*
G37*
G36*
X210299937Y-134595406D02*
X208940476Y-133961479D01*
X209616665Y-132511386D01*
X210976126Y-133145313D01*
X210299937Y-134595406D01*
X210299937Y-134595406D01*
G37*
G36*
X213473384Y-132522332D02*
X212113922Y-131888404D01*
X212747850Y-130528942D01*
X214107312Y-131162870D01*
X213473384Y-132522332D01*
X213473384Y-132522332D01*
G37*
D13*
X212037166Y-133827659D03*
D10*
G36*
X214546834Y-130220310D02*
X213187372Y-129586382D01*
X213821300Y-128226920D01*
X215180762Y-128860848D01*
X214546834Y-130220310D01*
X214546834Y-130220310D01*
G37*
D13*
X210963716Y-136129680D03*
D10*
G36*
X217267570Y-131489010D02*
X215908108Y-130855082D01*
X216542036Y-129495620D01*
X217901498Y-130129548D01*
X217267570Y-131489010D01*
X217267570Y-131489010D01*
G37*
D13*
X213684452Y-137398380D03*
D10*
G36*
X216155376Y-133519188D02*
X215067806Y-133012046D01*
X215617210Y-131833846D01*
X216704780Y-132340988D01*
X216155376Y-133519188D01*
X216155376Y-133519188D01*
G37*
G36*
X214972045Y-136056850D02*
X213884475Y-135549708D01*
X214433879Y-134371508D01*
X215521449Y-134878650D01*
X214972045Y-136056850D01*
X214972045Y-136056850D01*
G37*
D14*
X207278002Y-126003264D03*
X204057651Y-132909329D03*
D15*
X204742326Y-126235744D02*
X205098092Y-126418584D01*
X202605840Y-130817453D02*
X202974586Y-130972459D01*
D16*
X204546640Y-137870840D03*
X211393056Y-123188654D03*
D10*
G36*
X220553133Y-151105457D02*
X221187060Y-149745996D01*
X222637153Y-150422185D01*
X222003226Y-151781646D01*
X220553133Y-151105457D01*
X220553133Y-151105457D01*
G37*
G36*
X217109163Y-149499507D02*
X217743090Y-148140046D01*
X219193183Y-148816235D01*
X218559256Y-150175696D01*
X217109163Y-149499507D01*
X217109163Y-149499507D01*
G37*
G36*
X219182237Y-152672954D02*
X219816165Y-151313492D01*
X221175627Y-151947420D01*
X220541699Y-153306882D01*
X219182237Y-152672954D01*
X219182237Y-152672954D01*
G37*
D13*
X217876910Y-151236736D03*
D10*
G36*
X221484259Y-153746404D02*
X222118187Y-152386942D01*
X223477649Y-153020870D01*
X222843721Y-154380332D01*
X221484259Y-153746404D01*
X221484259Y-153746404D01*
G37*
D13*
X215574889Y-150163286D03*
D10*
G36*
X220215559Y-156467140D02*
X220849487Y-155107678D01*
X222208949Y-155741606D01*
X221575021Y-157101068D01*
X220215559Y-156467140D01*
X220215559Y-156467140D01*
G37*
D13*
X214306189Y-152884022D03*
D10*
G36*
X218185381Y-155354946D02*
X218692523Y-154267376D01*
X219870723Y-154816780D01*
X219363581Y-155904350D01*
X218185381Y-155354946D01*
X218185381Y-155354946D01*
G37*
G36*
X215647719Y-154171615D02*
X216154861Y-153084045D01*
X217333061Y-153633449D01*
X216825919Y-154721019D01*
X215647719Y-154171615D01*
X215647719Y-154171615D01*
G37*
D14*
X225701305Y-146477572D03*
X218795240Y-143257221D03*
D15*
X225468825Y-143941896D02*
X225285985Y-144297662D01*
X220887116Y-141805410D02*
X220732110Y-142174156D01*
D16*
X213833729Y-143746210D03*
X228515915Y-150592626D03*
D10*
G36*
X228582880Y-133885609D02*
X229216807Y-132526148D01*
X230666900Y-133202337D01*
X230032973Y-134561798D01*
X228582880Y-133885609D01*
X228582880Y-133885609D01*
G37*
G36*
X225138910Y-132279659D02*
X225772837Y-130920198D01*
X227222930Y-131596387D01*
X226589003Y-132955848D01*
X225138910Y-132279659D01*
X225138910Y-132279659D01*
G37*
G36*
X227211984Y-135453106D02*
X227845912Y-134093644D01*
X229205374Y-134727572D01*
X228571446Y-136087034D01*
X227211984Y-135453106D01*
X227211984Y-135453106D01*
G37*
D13*
X225906657Y-134016888D03*
D10*
G36*
X229514006Y-136526556D02*
X230147934Y-135167094D01*
X231507396Y-135801022D01*
X230873468Y-137160484D01*
X229514006Y-136526556D01*
X229514006Y-136526556D01*
G37*
D13*
X223604636Y-132943438D03*
D10*
G36*
X228245306Y-139247292D02*
X228879234Y-137887830D01*
X230238696Y-138521758D01*
X229604768Y-139881220D01*
X228245306Y-139247292D01*
X228245306Y-139247292D01*
G37*
D13*
X222335936Y-135664174D03*
D10*
G36*
X226215128Y-138135098D02*
X226722270Y-137047528D01*
X227900470Y-137596932D01*
X227393328Y-138684502D01*
X226215128Y-138135098D01*
X226215128Y-138135098D01*
G37*
G36*
X223677466Y-136951767D02*
X224184608Y-135864197D01*
X225362808Y-136413601D01*
X224855666Y-137501171D01*
X223677466Y-136951767D01*
X223677466Y-136951767D01*
G37*
D14*
X233731052Y-129257724D03*
X226824987Y-126037373D03*
D15*
X233498572Y-126722048D02*
X233315732Y-127077814D01*
X228916863Y-124585562D02*
X228761857Y-124954308D01*
D16*
X221863476Y-126526362D03*
X236545662Y-133372778D03*
D10*
G36*
X236612627Y-116665761D02*
X237246554Y-115306300D01*
X238696647Y-115982489D01*
X238062720Y-117341950D01*
X236612627Y-116665761D01*
X236612627Y-116665761D01*
G37*
G36*
X233168657Y-115059811D02*
X233802584Y-113700350D01*
X235252677Y-114376539D01*
X234618750Y-115736000D01*
X233168657Y-115059811D01*
X233168657Y-115059811D01*
G37*
G36*
X235241731Y-118233258D02*
X235875659Y-116873796D01*
X237235121Y-117507724D01*
X236601193Y-118867186D01*
X235241731Y-118233258D01*
X235241731Y-118233258D01*
G37*
D13*
X233936404Y-116797040D03*
D10*
G36*
X237543753Y-119306708D02*
X238177681Y-117947246D01*
X239537143Y-118581174D01*
X238903215Y-119940636D01*
X237543753Y-119306708D01*
X237543753Y-119306708D01*
G37*
D13*
X231634383Y-115723590D03*
D10*
G36*
X236275053Y-122027444D02*
X236908981Y-120667982D01*
X238268443Y-121301910D01*
X237634515Y-122661372D01*
X236275053Y-122027444D01*
X236275053Y-122027444D01*
G37*
D13*
X230365683Y-118444326D03*
D10*
G36*
X234244875Y-120915250D02*
X234752017Y-119827680D01*
X235930217Y-120377084D01*
X235423075Y-121464654D01*
X234244875Y-120915250D01*
X234244875Y-120915250D01*
G37*
G36*
X231707213Y-119731919D02*
X232214355Y-118644349D01*
X233392555Y-119193753D01*
X232885413Y-120281323D01*
X231707213Y-119731919D01*
X231707213Y-119731919D01*
G37*
D14*
X241760799Y-112037876D03*
X234854734Y-108817525D03*
D15*
X241528319Y-109502200D02*
X241345479Y-109857966D01*
X236946610Y-107365714D02*
X236791604Y-107734460D01*
D16*
X229893223Y-109306514D03*
X244575409Y-116152930D03*
D10*
G36*
X219392779Y-108636014D02*
X220026706Y-107276553D01*
X221476799Y-107952742D01*
X220842872Y-109312203D01*
X219392779Y-108636014D01*
X219392779Y-108636014D01*
G37*
G36*
X215948809Y-107030064D02*
X216582736Y-105670603D01*
X218032829Y-106346792D01*
X217398902Y-107706253D01*
X215948809Y-107030064D01*
X215948809Y-107030064D01*
G37*
G36*
X218021883Y-110203511D02*
X218655811Y-108844049D01*
X220015273Y-109477977D01*
X219381345Y-110837439D01*
X218021883Y-110203511D01*
X218021883Y-110203511D01*
G37*
D13*
X216716556Y-108767293D03*
D10*
G36*
X220323905Y-111276961D02*
X220957833Y-109917499D01*
X222317295Y-110551427D01*
X221683367Y-111910889D01*
X220323905Y-111276961D01*
X220323905Y-111276961D01*
G37*
D13*
X214414535Y-107693843D03*
D10*
G36*
X219055205Y-113997697D02*
X219689133Y-112638235D01*
X221048595Y-113272163D01*
X220414667Y-114631625D01*
X219055205Y-113997697D01*
X219055205Y-113997697D01*
G37*
D13*
X213145835Y-110414579D03*
D10*
G36*
X217025027Y-112885503D02*
X217532169Y-111797933D01*
X218710369Y-112347337D01*
X218203227Y-113434907D01*
X217025027Y-112885503D01*
X217025027Y-112885503D01*
G37*
G36*
X214487365Y-111702172D02*
X214994507Y-110614602D01*
X216172707Y-111164006D01*
X215665565Y-112251576D01*
X214487365Y-111702172D01*
X214487365Y-111702172D01*
G37*
D14*
X224540951Y-104008129D03*
X217634886Y-100787778D03*
D15*
X224308471Y-101472453D02*
X224125631Y-101828219D01*
X219726762Y-99335967D02*
X219571756Y-99704713D01*
D16*
X212673375Y-101276767D03*
X227355561Y-108123183D03*
D17*
X200650000Y-35580000D03*
X196850000Y-35580000D03*
D18*
X200020000Y-37580000D03*
D13*
X197480000Y-37580000D03*
D18*
X202560000Y-37580000D03*
D13*
X194940000Y-37580000D03*
D18*
X202560000Y-40582000D03*
D13*
X194940000Y-40582000D03*
D19*
X200150000Y-40582000D03*
X197350000Y-40582000D03*
D14*
X202560000Y-29960000D03*
X194940000Y-29960000D03*
D15*
X201277678Y-27760147D02*
X201262322Y-28159853D01*
X196222322Y-27760147D02*
X196237678Y-28159853D01*
D16*
X190650000Y-32500000D03*
X206850000Y-32500000D03*
D20*
X201830000Y-54350000D03*
X201830000Y-58150000D03*
D18*
X203830000Y-54980000D03*
D13*
X203830000Y-57520000D03*
D18*
X203830000Y-52440000D03*
D13*
X203830000Y-60060000D03*
D18*
X206832000Y-52440000D03*
D13*
X206832000Y-60060000D03*
D21*
X206832000Y-54850000D03*
X206832000Y-57650000D03*
D14*
X196210000Y-52440000D03*
X196210000Y-60060000D03*
D15*
X194010147Y-53722322D02*
X194409853Y-53737678D01*
X194010147Y-58777678D02*
X194409853Y-58762322D01*
D16*
X198750000Y-64350000D03*
X198750000Y-48150000D03*
D20*
X201830000Y-82850000D03*
X201830000Y-86650000D03*
D18*
X203830000Y-83480000D03*
D13*
X203830000Y-86020000D03*
D18*
X203830000Y-80940000D03*
D13*
X203830000Y-88560000D03*
D18*
X206832000Y-80940000D03*
D13*
X206832000Y-88560000D03*
D21*
X206832000Y-83350000D03*
X206832000Y-86150000D03*
D14*
X196210000Y-80940000D03*
X196210000Y-88560000D03*
D15*
X194010147Y-82222322D02*
X194409853Y-82237678D01*
X194010147Y-87277678D02*
X194409853Y-87262322D01*
D16*
X198750000Y-92850000D03*
X198750000Y-76650000D03*
D17*
X181650000Y-35580000D03*
X177850000Y-35580000D03*
D18*
X181020000Y-37580000D03*
D13*
X178480000Y-37580000D03*
D18*
X183560000Y-37580000D03*
D13*
X175940000Y-37580000D03*
D18*
X183560000Y-40582000D03*
D13*
X175940000Y-40582000D03*
D19*
X181150000Y-40582000D03*
X178350000Y-40582000D03*
D14*
X183560000Y-29960000D03*
X175940000Y-29960000D03*
D15*
X182277678Y-27760147D02*
X182262322Y-28159853D01*
X177222322Y-27760147D02*
X177237678Y-28159853D01*
D16*
X171650000Y-32500000D03*
X187850000Y-32500000D03*
D17*
X181650000Y-54580000D03*
X177850000Y-54580000D03*
D18*
X181020000Y-56580000D03*
D13*
X178480000Y-56580000D03*
D18*
X183560000Y-56580000D03*
D13*
X175940000Y-56580000D03*
D18*
X183560000Y-59582000D03*
D13*
X175940000Y-59582000D03*
D19*
X181150000Y-59582000D03*
X178350000Y-59582000D03*
D14*
X183560000Y-48960000D03*
X175940000Y-48960000D03*
D15*
X182277678Y-46760147D02*
X182262322Y-47159853D01*
X177222322Y-46760147D02*
X177237678Y-47159853D01*
D16*
X171650000Y-51500000D03*
X187850000Y-51500000D03*
D17*
X181650000Y-73580000D03*
X177850000Y-73580000D03*
D18*
X181020000Y-75580000D03*
D13*
X178480000Y-75580000D03*
D18*
X183560000Y-75580000D03*
D13*
X175940000Y-75580000D03*
D18*
X183560000Y-78582000D03*
D13*
X175940000Y-78582000D03*
D19*
X181150000Y-78582000D03*
X178350000Y-78582000D03*
D14*
X183560000Y-67960000D03*
X175940000Y-67960000D03*
D15*
X182277678Y-65760147D02*
X182262322Y-66159853D01*
X177222322Y-65760147D02*
X177237678Y-66159853D01*
D16*
X171650000Y-70500000D03*
X187850000Y-70500000D03*
D17*
X181650000Y-92580000D03*
X177850000Y-92580000D03*
D18*
X181020000Y-94580000D03*
D13*
X178480000Y-94580000D03*
D18*
X183560000Y-94580000D03*
D13*
X175940000Y-94580000D03*
D18*
X183560000Y-97582000D03*
D13*
X175940000Y-97582000D03*
D19*
X181150000Y-97582000D03*
X178350000Y-97582000D03*
D14*
X183560000Y-86960000D03*
X175940000Y-86960000D03*
D15*
X182277678Y-84760147D02*
X182262322Y-85159853D01*
X177222322Y-84760147D02*
X177237678Y-85159853D01*
D16*
X171650000Y-89500000D03*
X187850000Y-89500000D03*
D17*
X162650000Y-34080000D03*
X158850000Y-34080000D03*
D18*
X162020000Y-36080000D03*
D13*
X159480000Y-36080000D03*
D18*
X164560000Y-36080000D03*
D13*
X156940000Y-36080000D03*
D18*
X164560000Y-39082000D03*
D13*
X156940000Y-39082000D03*
D19*
X162150000Y-39082000D03*
X159350000Y-39082000D03*
D14*
X164560000Y-28460000D03*
X156940000Y-28460000D03*
D15*
X163277678Y-26260147D02*
X163262322Y-26659853D01*
X158222322Y-26260147D02*
X158237678Y-26659853D01*
D16*
X152650000Y-31000000D03*
X168850000Y-31000000D03*
D17*
X162650000Y-53080000D03*
X158850000Y-53080000D03*
D18*
X162020000Y-55080000D03*
D13*
X159480000Y-55080000D03*
D18*
X164560000Y-55080000D03*
D13*
X156940000Y-55080000D03*
D18*
X164560000Y-58082000D03*
D13*
X156940000Y-58082000D03*
D19*
X162150000Y-58082000D03*
X159350000Y-58082000D03*
D14*
X164560000Y-47460000D03*
X156940000Y-47460000D03*
D15*
X163277678Y-45260147D02*
X163262322Y-45659853D01*
X158222322Y-45260147D02*
X158237678Y-45659853D01*
D16*
X152650000Y-50000000D03*
X168850000Y-50000000D03*
D17*
X162650000Y-72080000D03*
X158850000Y-72080000D03*
D18*
X162020000Y-74080000D03*
D13*
X159480000Y-74080000D03*
D18*
X164560000Y-74080000D03*
D13*
X156940000Y-74080000D03*
D18*
X164560000Y-77082000D03*
D13*
X156940000Y-77082000D03*
D19*
X162150000Y-77082000D03*
X159350000Y-77082000D03*
D14*
X164560000Y-66460000D03*
X156940000Y-66460000D03*
D15*
X163277678Y-64260147D02*
X163262322Y-64659853D01*
X158222322Y-64260147D02*
X158237678Y-64659853D01*
D16*
X152650000Y-69000000D03*
X168850000Y-69000000D03*
D17*
X162650000Y-91080000D03*
X158850000Y-91080000D03*
D18*
X162020000Y-93080000D03*
D13*
X159480000Y-93080000D03*
D18*
X164560000Y-93080000D03*
D13*
X156940000Y-93080000D03*
D18*
X164560000Y-96082000D03*
D13*
X156940000Y-96082000D03*
D19*
X162150000Y-96082000D03*
X159350000Y-96082000D03*
D14*
X164560000Y-85460000D03*
X156940000Y-85460000D03*
D15*
X163277678Y-83260147D02*
X163262322Y-83659853D01*
X158222322Y-83260147D02*
X158237678Y-83659853D01*
D16*
X152650000Y-88000000D03*
X168850000Y-88000000D03*
D17*
X162650000Y-110080000D03*
X158850000Y-110080000D03*
D18*
X162020000Y-112080000D03*
D13*
X159480000Y-112080000D03*
D18*
X164560000Y-112080000D03*
D13*
X156940000Y-112080000D03*
D18*
X164560000Y-115082000D03*
D13*
X156940000Y-115082000D03*
D19*
X162150000Y-115082000D03*
X159350000Y-115082000D03*
D14*
X164560000Y-104460000D03*
X156940000Y-104460000D03*
D15*
X163277678Y-102260147D02*
X163262322Y-102659853D01*
X158222322Y-102260147D02*
X158237678Y-102659853D01*
D16*
X152650000Y-107000000D03*
X168850000Y-107000000D03*
D17*
X143650000Y-32580000D03*
X139850000Y-32580000D03*
D18*
X143020000Y-34580000D03*
D13*
X140480000Y-34580000D03*
D18*
X145560000Y-34580000D03*
D13*
X137940000Y-34580000D03*
D18*
X145560000Y-37582000D03*
D13*
X137940000Y-37582000D03*
D19*
X143150000Y-37582000D03*
X140350000Y-37582000D03*
D14*
X145560000Y-26960000D03*
X137940000Y-26960000D03*
D15*
X144277678Y-24760147D02*
X144262322Y-25159853D01*
X139222322Y-24760147D02*
X139237678Y-25159853D01*
D16*
X133650000Y-29500000D03*
X149850000Y-29500000D03*
D17*
X143650000Y-51580000D03*
X139850000Y-51580000D03*
D18*
X143020000Y-53580000D03*
D13*
X140480000Y-53580000D03*
D18*
X145560000Y-53580000D03*
D13*
X137940000Y-53580000D03*
D18*
X145560000Y-56582000D03*
D13*
X137940000Y-56582000D03*
D19*
X143150000Y-56582000D03*
X140350000Y-56582000D03*
D14*
X145560000Y-45960000D03*
X137940000Y-45960000D03*
D15*
X144277678Y-43760147D02*
X144262322Y-44159853D01*
X139222322Y-43760147D02*
X139237678Y-44159853D01*
D16*
X133650000Y-48500000D03*
X149850000Y-48500000D03*
D17*
X143650000Y-70580000D03*
X139850000Y-70580000D03*
D18*
X143020000Y-72580000D03*
D13*
X140480000Y-72580000D03*
D18*
X145560000Y-72580000D03*
D13*
X137940000Y-72580000D03*
D18*
X145560000Y-75582000D03*
D13*
X137940000Y-75582000D03*
D19*
X143150000Y-75582000D03*
X140350000Y-75582000D03*
D14*
X145560000Y-64960000D03*
X137940000Y-64960000D03*
D15*
X144277678Y-62760147D02*
X144262322Y-63159853D01*
X139222322Y-62760147D02*
X139237678Y-63159853D01*
D16*
X133650000Y-67500000D03*
X149850000Y-67500000D03*
D17*
X143650000Y-89580000D03*
X139850000Y-89580000D03*
D18*
X143020000Y-91580000D03*
D13*
X140480000Y-91580000D03*
D18*
X145560000Y-91580000D03*
D13*
X137940000Y-91580000D03*
D18*
X145560000Y-94582000D03*
D13*
X137940000Y-94582000D03*
D19*
X143150000Y-94582000D03*
X140350000Y-94582000D03*
D14*
X145560000Y-83960000D03*
X137940000Y-83960000D03*
D15*
X144277678Y-81760147D02*
X144262322Y-82159853D01*
X139222322Y-81760147D02*
X139237678Y-82159853D01*
D16*
X133650000Y-86500000D03*
X149850000Y-86500000D03*
D17*
X143650000Y-108580000D03*
X139850000Y-108580000D03*
D18*
X143020000Y-110580000D03*
D13*
X140480000Y-110580000D03*
D18*
X145560000Y-110580000D03*
D13*
X137940000Y-110580000D03*
D18*
X145560000Y-113582000D03*
D13*
X137940000Y-113582000D03*
D19*
X143150000Y-113582000D03*
X140350000Y-113582000D03*
D14*
X145560000Y-102960000D03*
X137940000Y-102960000D03*
D15*
X144277678Y-100760147D02*
X144262322Y-101159853D01*
X139222322Y-100760147D02*
X139237678Y-101159853D01*
D16*
X133650000Y-105500000D03*
X149850000Y-105500000D03*
D17*
X124650000Y-34080000D03*
X120850000Y-34080000D03*
D18*
X124020000Y-36080000D03*
D13*
X121480000Y-36080000D03*
D18*
X126560000Y-36080000D03*
D13*
X118940000Y-36080000D03*
D18*
X126560000Y-39082000D03*
D13*
X118940000Y-39082000D03*
D19*
X124150000Y-39082000D03*
X121350000Y-39082000D03*
D14*
X126560000Y-28460000D03*
X118940000Y-28460000D03*
D15*
X125277678Y-26260147D02*
X125262322Y-26659853D01*
X120222322Y-26260147D02*
X120237678Y-26659853D01*
D16*
X114650000Y-31000000D03*
X130850000Y-31000000D03*
D17*
X124650000Y-53080000D03*
X120850000Y-53080000D03*
D18*
X124020000Y-55080000D03*
D13*
X121480000Y-55080000D03*
D18*
X126560000Y-55080000D03*
D13*
X118940000Y-55080000D03*
D18*
X126560000Y-58082000D03*
D13*
X118940000Y-58082000D03*
D19*
X124150000Y-58082000D03*
X121350000Y-58082000D03*
D14*
X126560000Y-47460000D03*
X118940000Y-47460000D03*
D15*
X125277678Y-45260147D02*
X125262322Y-45659853D01*
X120222322Y-45260147D02*
X120237678Y-45659853D01*
D16*
X114650000Y-50000000D03*
X130850000Y-50000000D03*
D17*
X124650000Y-72080000D03*
X120850000Y-72080000D03*
D18*
X124020000Y-74080000D03*
D13*
X121480000Y-74080000D03*
D18*
X126560000Y-74080000D03*
D13*
X118940000Y-74080000D03*
D18*
X126560000Y-77082000D03*
D13*
X118940000Y-77082000D03*
D19*
X124150000Y-77082000D03*
X121350000Y-77082000D03*
D14*
X126560000Y-66460000D03*
X118940000Y-66460000D03*
D15*
X125277678Y-64260147D02*
X125262322Y-64659853D01*
X120222322Y-64260147D02*
X120237678Y-64659853D01*
D16*
X114650000Y-69000000D03*
X130850000Y-69000000D03*
D17*
X124650000Y-91080000D03*
X120850000Y-91080000D03*
D18*
X124020000Y-93080000D03*
D13*
X121480000Y-93080000D03*
D18*
X126560000Y-93080000D03*
D13*
X118940000Y-93080000D03*
D18*
X126560000Y-96082000D03*
D13*
X118940000Y-96082000D03*
D19*
X124150000Y-96082000D03*
X121350000Y-96082000D03*
D14*
X126560000Y-85460000D03*
X118940000Y-85460000D03*
D15*
X125277678Y-83260147D02*
X125262322Y-83659853D01*
X120222322Y-83260147D02*
X120237678Y-83659853D01*
D16*
X114650000Y-88000000D03*
X130850000Y-88000000D03*
D17*
X124650000Y-110080000D03*
X120850000Y-110080000D03*
D18*
X124020000Y-112080000D03*
D13*
X121480000Y-112080000D03*
D18*
X126560000Y-112080000D03*
D13*
X118940000Y-112080000D03*
D18*
X126560000Y-115082000D03*
D13*
X118940000Y-115082000D03*
D19*
X124150000Y-115082000D03*
X121350000Y-115082000D03*
D14*
X126560000Y-104460000D03*
X118940000Y-104460000D03*
D15*
X125277678Y-102260147D02*
X125262322Y-102659853D01*
X120222322Y-102260147D02*
X120237678Y-102659853D01*
D16*
X114650000Y-107000000D03*
X130850000Y-107000000D03*
D17*
X105650000Y-37080000D03*
X101850000Y-37080000D03*
D18*
X105020000Y-39080000D03*
D13*
X102480000Y-39080000D03*
D18*
X107560000Y-39080000D03*
D13*
X99940000Y-39080000D03*
D18*
X107560000Y-42082000D03*
D13*
X99940000Y-42082000D03*
D19*
X105150000Y-42082000D03*
X102350000Y-42082000D03*
D14*
X107560000Y-31460000D03*
X99940000Y-31460000D03*
D15*
X106277678Y-29260147D02*
X106262322Y-29659853D01*
X101222322Y-29260147D02*
X101237678Y-29659853D01*
D16*
X95650000Y-34000000D03*
X111850000Y-34000000D03*
D17*
X105650000Y-56080000D03*
X101850000Y-56080000D03*
D18*
X105020000Y-58080000D03*
D13*
X102480000Y-58080000D03*
D18*
X107560000Y-58080000D03*
D13*
X99940000Y-58080000D03*
D18*
X107560000Y-61082000D03*
D13*
X99940000Y-61082000D03*
D19*
X105150000Y-61082000D03*
X102350000Y-61082000D03*
D14*
X107560000Y-50460000D03*
X99940000Y-50460000D03*
D15*
X106277678Y-48260147D02*
X106262322Y-48659853D01*
X101222322Y-48260147D02*
X101237678Y-48659853D01*
D16*
X95650000Y-53000000D03*
X111850000Y-53000000D03*
D17*
X105650000Y-75080000D03*
X101850000Y-75080000D03*
D18*
X105020000Y-77080000D03*
D13*
X102480000Y-77080000D03*
D18*
X107560000Y-77080000D03*
D13*
X99940000Y-77080000D03*
D18*
X107560000Y-80082000D03*
D13*
X99940000Y-80082000D03*
D19*
X105150000Y-80082000D03*
X102350000Y-80082000D03*
D14*
X107560000Y-69460000D03*
X99940000Y-69460000D03*
D15*
X106277678Y-67260147D02*
X106262322Y-67659853D01*
X101222322Y-67260147D02*
X101237678Y-67659853D01*
D16*
X95650000Y-72000000D03*
X111850000Y-72000000D03*
D17*
X105650000Y-94080000D03*
X101850000Y-94080000D03*
D18*
X105020000Y-96080000D03*
D13*
X102480000Y-96080000D03*
D18*
X107560000Y-96080000D03*
D13*
X99940000Y-96080000D03*
D18*
X107560000Y-99082000D03*
D13*
X99940000Y-99082000D03*
D19*
X105150000Y-99082000D03*
X102350000Y-99082000D03*
D14*
X107560000Y-88460000D03*
X99940000Y-88460000D03*
D15*
X106277678Y-86260147D02*
X106262322Y-86659853D01*
X101222322Y-86260147D02*
X101237678Y-86659853D01*
D16*
X95650000Y-91000000D03*
X111850000Y-91000000D03*
D17*
X105650000Y-113080000D03*
X101850000Y-113080000D03*
D18*
X105020000Y-115080000D03*
D13*
X102480000Y-115080000D03*
D18*
X107560000Y-115080000D03*
D13*
X99940000Y-115080000D03*
D18*
X107560000Y-118082000D03*
D13*
X99940000Y-118082000D03*
D19*
X105150000Y-118082000D03*
X102350000Y-118082000D03*
D14*
X107560000Y-107460000D03*
X99940000Y-107460000D03*
D15*
X106277678Y-105260147D02*
X106262322Y-105659853D01*
X101222322Y-105260147D02*
X101237678Y-105659853D01*
D16*
X95650000Y-110000000D03*
X111850000Y-110000000D03*
D17*
X81900000Y-37080000D03*
X78100000Y-37080000D03*
D18*
X81270000Y-39080000D03*
D13*
X78730000Y-39080000D03*
D18*
X83810000Y-39080000D03*
D13*
X76190000Y-39080000D03*
D18*
X83810000Y-42082000D03*
D13*
X76190000Y-42082000D03*
D19*
X81400000Y-42082000D03*
X78600000Y-42082000D03*
D14*
X83810000Y-31460000D03*
X76190000Y-31460000D03*
D15*
X82527678Y-29260147D02*
X82512322Y-29659853D01*
X77472322Y-29260147D02*
X77487678Y-29659853D01*
D16*
X71900000Y-34000000D03*
X88100000Y-34000000D03*
D17*
X81900000Y-56080000D03*
X78100000Y-56080000D03*
D18*
X81270000Y-58080000D03*
D13*
X78730000Y-58080000D03*
D18*
X83810000Y-58080000D03*
D13*
X76190000Y-58080000D03*
D18*
X83810000Y-61082000D03*
D13*
X76190000Y-61082000D03*
D19*
X81400000Y-61082000D03*
X78600000Y-61082000D03*
D14*
X83810000Y-50460000D03*
X76190000Y-50460000D03*
D15*
X82527678Y-48260147D02*
X82512322Y-48659853D01*
X77472322Y-48260147D02*
X77487678Y-48659853D01*
D16*
X71900000Y-53000000D03*
X88100000Y-53000000D03*
D17*
X81900000Y-75080000D03*
X78100000Y-75080000D03*
D18*
X81270000Y-77080000D03*
D13*
X78730000Y-77080000D03*
D18*
X83810000Y-77080000D03*
D13*
X76190000Y-77080000D03*
D18*
X83810000Y-80082000D03*
D13*
X76190000Y-80082000D03*
D19*
X81400000Y-80082000D03*
X78600000Y-80082000D03*
D14*
X83810000Y-69460000D03*
X76190000Y-69460000D03*
D15*
X82527678Y-67260147D02*
X82512322Y-67659853D01*
X77472322Y-67260147D02*
X77487678Y-67659853D01*
D16*
X71900000Y-72000000D03*
X88100000Y-72000000D03*
D17*
X81900000Y-94080000D03*
X78100000Y-94080000D03*
D18*
X81270000Y-96080000D03*
D13*
X78730000Y-96080000D03*
D18*
X83810000Y-96080000D03*
D13*
X76190000Y-96080000D03*
D18*
X83810000Y-99082000D03*
D13*
X76190000Y-99082000D03*
D19*
X81400000Y-99082000D03*
X78600000Y-99082000D03*
D14*
X83810000Y-88460000D03*
X76190000Y-88460000D03*
D15*
X82527678Y-86260147D02*
X82512322Y-86659853D01*
X77472322Y-86260147D02*
X77487678Y-86659853D01*
D16*
X71900000Y-91000000D03*
X88100000Y-91000000D03*
D17*
X86650000Y-113080000D03*
X82850000Y-113080000D03*
D18*
X86020000Y-115080000D03*
D13*
X83480000Y-115080000D03*
D18*
X88560000Y-115080000D03*
D13*
X80940000Y-115080000D03*
D18*
X88560000Y-118082000D03*
D13*
X80940000Y-118082000D03*
D19*
X86150000Y-118082000D03*
X83350000Y-118082000D03*
D14*
X88560000Y-107460000D03*
X80940000Y-107460000D03*
D15*
X87277678Y-105260147D02*
X87262322Y-105659853D01*
X82222322Y-105260147D02*
X82237678Y-105659853D01*
D16*
X76650000Y-110000000D03*
X92850000Y-110000000D03*
D10*
G36*
X215284432Y-54361421D02*
X216840079Y-53610966D01*
X217590534Y-55166613D01*
X216034887Y-55917068D01*
X215284432Y-54361421D01*
X215284432Y-54361421D01*
G37*
D22*
X218725198Y-53660406D02*
X218725198Y-53660406D01*
X217541093Y-57051733D02*
X217541093Y-57051733D01*
X219828809Y-55948122D02*
X219828809Y-55948122D01*
X218644704Y-59339448D02*
X218644704Y-59339448D01*
X220932420Y-58235838D02*
X220932420Y-58235838D01*
X219748315Y-61627164D02*
X219748315Y-61627164D01*
X222036031Y-60523553D02*
X222036031Y-60523553D01*
X220851926Y-63914880D02*
X220851926Y-63914880D01*
X223139641Y-62811269D02*
X223139641Y-62811269D01*
X221955536Y-66202596D02*
X221955536Y-66202596D01*
X224243252Y-65098985D02*
X224243252Y-65098985D01*
X223059147Y-68490311D02*
X223059147Y-68490311D01*
X225346863Y-67386701D02*
X225346863Y-67386701D01*
X224162758Y-70778027D02*
X224162758Y-70778027D01*
X226450474Y-69674416D02*
X226450474Y-69674416D01*
X225266369Y-73065743D02*
X225266369Y-73065743D01*
X227554084Y-71962132D02*
X227554084Y-71962132D01*
X226369979Y-75353459D02*
X226369979Y-75353459D01*
X228657695Y-74249848D02*
X228657695Y-74249848D01*
X227473590Y-77641174D02*
X227473590Y-77641174D01*
X229761306Y-76537564D02*
X229761306Y-76537564D01*
X228577201Y-79928890D02*
X228577201Y-79928890D01*
X230864917Y-78825279D02*
X230864917Y-78825279D01*
X229680812Y-82216606D02*
X229680812Y-82216606D01*
X231968527Y-81112995D02*
X231968527Y-81112995D01*
D23*
X187850000Y-61500000D03*
X187800000Y-69000000D03*
X196800000Y-63200000D03*
X196800000Y-74950000D03*
X216400000Y-47200000D03*
X215800000Y-48300000D03*
X215100000Y-49350000D03*
X191600000Y-42000000D03*
X186900000Y-42000000D03*
X170200000Y-55300000D03*
X173100000Y-55450000D03*
X151250000Y-54050000D03*
X154050000Y-54050000D03*
X167550000Y-59500000D03*
X172700000Y-60850000D03*
X167550000Y-60950000D03*
X172650000Y-62250000D03*
X153750000Y-59750000D03*
X148550000Y-58100000D03*
X134850000Y-54000000D03*
X132250000Y-54000000D03*
X148500000Y-59700000D03*
X153800000Y-61200000D03*
X167550000Y-62450000D03*
X172650000Y-63500000D03*
X135000000Y-58150000D03*
X129500000Y-59500000D03*
X115950000Y-55150000D03*
X113200000Y-55100000D03*
X94400000Y-57600000D03*
X96850000Y-57600000D03*
X110450000Y-65200000D03*
X116400000Y-65200000D03*
X129600000Y-64800000D03*
X134950000Y-64800000D03*
X148500000Y-61550000D03*
X153800000Y-62550000D03*
X167550000Y-63950000D03*
X172650000Y-64950000D03*
X227375000Y-89275000D03*
X202500000Y-43800000D03*
X220625000Y-72775000D03*
X226000000Y-90500000D03*
X184750000Y-64475000D03*
X194875000Y-69300000D03*
X218625000Y-73675000D03*
X224300000Y-90575000D03*
X206850000Y-73575000D03*
X216950000Y-73575000D03*
X227375000Y-90650000D03*
X236775000Y-84050000D03*
X209850000Y-82875000D03*
X227425000Y-92250000D03*
X238100000Y-87950000D03*
X219950000Y-131375000D03*
X219950000Y-136275000D03*
X225850000Y-118350000D03*
X227275000Y-114975000D03*
X200600000Y-120425000D03*
X197600000Y-117400000D03*
X205325000Y-123225000D03*
D24*
X210510552Y-59339448D02*
X218644704Y-59339448D01*
X203650000Y-66200000D02*
X210510552Y-59339448D01*
X197200000Y-66200000D02*
X203650000Y-66200000D01*
X193400000Y-62400000D02*
X197200000Y-66200000D01*
X187500000Y-62400000D02*
X193400000Y-62400000D01*
X186100000Y-61000000D02*
X187500000Y-62400000D01*
X175350000Y-61000000D02*
X186100000Y-61000000D01*
X173125000Y-58775000D02*
X175350000Y-61000000D01*
X187850000Y-70500000D02*
X187850000Y-69050000D01*
X187850000Y-61500000D02*
X187850000Y-60700000D01*
X187850000Y-69050000D02*
X187800000Y-69000000D01*
X206832000Y-52440000D02*
X214113466Y-52440000D01*
X214113466Y-52440000D02*
X216437483Y-54764017D01*
X187850000Y-60700000D02*
X192500000Y-60700000D01*
X192500000Y-60700000D02*
X197400000Y-65600000D01*
X197400000Y-65600000D02*
X203400000Y-65600000D01*
X203400000Y-65600000D02*
X211948267Y-57051733D01*
X211948267Y-57051733D02*
X217541093Y-57051733D01*
X198750000Y-92850000D02*
X198750000Y-92050000D01*
X197950000Y-64350000D02*
X198750000Y-64350000D01*
X196800000Y-63200000D02*
X197950000Y-64350000D01*
X195796465Y-75758711D02*
X196800000Y-74950000D01*
X195811205Y-77825277D02*
X195796465Y-75758711D01*
X192200000Y-81400000D02*
X195811205Y-77825277D01*
X192200000Y-88000000D02*
X192200000Y-81400000D01*
X194500000Y-90300000D02*
X192200000Y-88000000D01*
X197000000Y-90300000D02*
X194500000Y-90300000D01*
X198750000Y-92050000D02*
X197000000Y-90300000D01*
X198750000Y-64350000D02*
X198750000Y-63550000D01*
X198750000Y-63550000D02*
X197000000Y-61800000D01*
X197000000Y-61800000D02*
X194500000Y-61800000D01*
X194500000Y-61800000D02*
X192200000Y-59500000D01*
X192200000Y-59500000D02*
X192200000Y-52025000D01*
X133650000Y-105500000D02*
X133650000Y-111450000D01*
X175385699Y-117900000D02*
X187326792Y-129841093D01*
X155600000Y-117900000D02*
X175385699Y-117900000D01*
X152800000Y-115100000D02*
X155600000Y-117900000D01*
X137300000Y-115100000D02*
X152800000Y-115100000D01*
X133650000Y-111450000D02*
X137300000Y-115100000D01*
X149850000Y-105500000D02*
X149850000Y-111150000D01*
X168341093Y-115158907D02*
X194173208Y-115158907D01*
X166200000Y-117300000D02*
X168341093Y-115158907D01*
X156000000Y-117300000D02*
X166200000Y-117300000D01*
X149850000Y-111150000D02*
X156000000Y-117300000D01*
X152650000Y-107000000D02*
X152650000Y-112950000D01*
X221863476Y-122263476D02*
X221863476Y-126526362D01*
X207300000Y-107700000D02*
X221863476Y-122263476D01*
X174700000Y-107700000D02*
X207300000Y-107700000D01*
X165800000Y-116600000D02*
X174700000Y-107700000D01*
X156300000Y-116600000D02*
X165800000Y-116600000D01*
X152650000Y-112950000D02*
X156300000Y-116600000D01*
X168850000Y-107000000D02*
X207600000Y-107000000D01*
X236545662Y-126645662D02*
X236545662Y-133372778D01*
X232300000Y-122400000D02*
X236545662Y-126645662D01*
X223000000Y-122400000D02*
X232300000Y-122400000D01*
X207600000Y-107000000D02*
X223000000Y-122400000D01*
X152650000Y-107000000D02*
X152650000Y-88000000D01*
X198750000Y-76650000D02*
X205250000Y-76650000D01*
X244575409Y-109475409D02*
X244575409Y-116152930D01*
X240400000Y-105300000D02*
X244575409Y-109475409D01*
X233300000Y-105300000D02*
X240400000Y-105300000D01*
X223800000Y-95800000D02*
X233300000Y-105300000D01*
X209400000Y-95800000D02*
X223800000Y-95800000D01*
X208500000Y-94900000D02*
X209400000Y-95800000D01*
X208500000Y-79900000D02*
X208500000Y-94900000D01*
X205250000Y-76650000D02*
X208500000Y-79900000D01*
X198750000Y-92850000D02*
X198750000Y-94350000D01*
X229893223Y-102893223D02*
X229893223Y-109306514D01*
X223500000Y-96500000D02*
X229893223Y-102893223D01*
X200900000Y-96500000D02*
X223500000Y-96500000D01*
X198750000Y-94350000D02*
X200900000Y-96500000D01*
X187850000Y-89500000D02*
X187850000Y-99250000D01*
X227355561Y-101355561D02*
X227355561Y-108123183D01*
X223200000Y-97200000D02*
X227355561Y-101355561D01*
X214700000Y-97200000D02*
X223200000Y-97200000D01*
X211400000Y-100500000D02*
X214700000Y-97200000D01*
X189100000Y-100500000D02*
X211400000Y-100500000D01*
X187850000Y-99250000D02*
X189100000Y-100500000D01*
X171650000Y-89500000D02*
X171650000Y-95650000D01*
X177276767Y-101276767D02*
X212673375Y-101276767D01*
X171650000Y-95650000D02*
X177276767Y-101276767D01*
X190650000Y-32500000D02*
X190650000Y-43000000D01*
X190650000Y-43000000D02*
X192000000Y-43000000D01*
X168850000Y-88000000D02*
X168850000Y-107000000D01*
X149850000Y-86500000D02*
X149850000Y-105500000D01*
X187850000Y-70500000D02*
X187850000Y-89500000D01*
X171650000Y-70500000D02*
X171650000Y-89500000D01*
X168850000Y-69000000D02*
X168850000Y-88000000D01*
X152650000Y-69000000D02*
X152650000Y-88000000D01*
X149850000Y-67500000D02*
X149850000Y-86500000D01*
X187850000Y-51500000D02*
X187850000Y-60700000D01*
X171650000Y-51500000D02*
X171650000Y-70500000D01*
X168850000Y-50000000D02*
X168850000Y-69000000D01*
X152650000Y-50000000D02*
X152650000Y-69000000D01*
X149850000Y-48500000D02*
X149850000Y-67500000D01*
X187850000Y-32500000D02*
X187850000Y-51500000D01*
X171650000Y-41900000D02*
X171650000Y-51500000D01*
X171650000Y-32500000D02*
X171650000Y-41900000D01*
X168850000Y-31000000D02*
X168850000Y-50000000D01*
X152650000Y-31000000D02*
X152650000Y-50000000D01*
X149850000Y-29500000D02*
X149850000Y-48500000D01*
X133650000Y-48500000D02*
X133650000Y-29500000D01*
X130850000Y-31000000D02*
X130850000Y-50000000D01*
X114650000Y-50000000D02*
X114650000Y-31000000D01*
X111850000Y-53000000D02*
X111850000Y-34000000D01*
X133650000Y-67500000D02*
X133650000Y-48500000D01*
X130850000Y-69000000D02*
X130850000Y-50000000D01*
X114650000Y-69000000D02*
X114650000Y-50000000D01*
X111850000Y-72000000D02*
X111850000Y-53000000D01*
X133650000Y-86500000D02*
X133650000Y-67500000D01*
X130850000Y-88000000D02*
X130850000Y-69000000D01*
X114650000Y-88000000D02*
X114650000Y-69000000D01*
X111850000Y-91000000D02*
X111850000Y-72000000D01*
X133650000Y-105500000D02*
X133650000Y-86500000D01*
X114650000Y-107000000D02*
X114650000Y-88000000D01*
X130850000Y-107000000D02*
X130850000Y-88000000D01*
X111850000Y-110000000D02*
X111850000Y-91000000D01*
X95650000Y-72000000D02*
X95650000Y-91000000D01*
X88100000Y-72000000D02*
X88100000Y-91000000D01*
X95650000Y-53000000D02*
X95650000Y-72000000D01*
X88100000Y-53000000D02*
X88100000Y-72000000D01*
X95650000Y-34000000D02*
X95650000Y-53000000D01*
X88100000Y-34000000D02*
X88100000Y-53000000D01*
X76650000Y-110000000D02*
X76650000Y-105450000D01*
X71900000Y-100700000D02*
X71900000Y-91000000D01*
X76650000Y-105450000D02*
X71900000Y-100700000D01*
X71900000Y-72000000D02*
X71900000Y-91000000D01*
X71900000Y-72000000D02*
X71900000Y-53000000D01*
X71900000Y-34000000D02*
X71900000Y-53000000D01*
X196600000Y-42500000D02*
X204250000Y-42500000D01*
X192000000Y-43000000D02*
X192500000Y-42500000D01*
X192500000Y-42500000D02*
X196600000Y-42500000D01*
X204250000Y-42500000D02*
X204300000Y-42500000D01*
X225850000Y-64900000D02*
X225346863Y-67386701D01*
X224700000Y-59450000D02*
X220750000Y-51500000D01*
X225850000Y-64900000D02*
X224700000Y-59450000D01*
X71900000Y-34000000D02*
X71900000Y-32200000D01*
X170000000Y-23800000D02*
X207800000Y-23800000D01*
X168500000Y-22300000D02*
X170000000Y-23800000D01*
X150900000Y-22300000D02*
X168500000Y-22300000D01*
X149400000Y-20800000D02*
X150900000Y-22300000D01*
X134200000Y-20800000D02*
X149400000Y-20800000D01*
X132700000Y-22300000D02*
X134200000Y-20800000D01*
X116600000Y-22300000D02*
X132700000Y-22300000D01*
X113600000Y-25300000D02*
X116600000Y-22300000D01*
X78800000Y-25300000D02*
X113600000Y-25300000D01*
X71900000Y-32200000D02*
X78800000Y-25300000D01*
X220750000Y-51500000D02*
X207800000Y-23800000D01*
X207350000Y-24400000D02*
X207100000Y-24400000D01*
X224750000Y-62550000D02*
X224243252Y-65098985D01*
X224200000Y-59900000D02*
X220250000Y-51750000D01*
X224750000Y-62550000D02*
X224200000Y-59900000D01*
X95650000Y-34000000D02*
X95650000Y-32150000D01*
X169700000Y-24400000D02*
X207100000Y-24400000D01*
X168200000Y-22900000D02*
X169700000Y-24400000D01*
X150700000Y-22900000D02*
X168200000Y-22900000D01*
X149200000Y-21400000D02*
X150700000Y-22900000D01*
X134500000Y-21400000D02*
X149200000Y-21400000D01*
X133000000Y-22900000D02*
X134500000Y-21400000D01*
X116900000Y-22900000D02*
X133000000Y-22900000D01*
X113900000Y-25900000D02*
X116900000Y-22900000D01*
X101900000Y-25900000D02*
X113900000Y-25900000D01*
X95650000Y-32150000D02*
X101900000Y-25900000D01*
X220250000Y-51750000D02*
X207350000Y-24400000D01*
X207000000Y-25000000D02*
X206400000Y-25000000D01*
X223650000Y-60200000D02*
X223139641Y-62811269D01*
X223650000Y-60200000D02*
X219700000Y-52050000D01*
X114650000Y-31000000D02*
X114650000Y-29050000D01*
X169500000Y-25000000D02*
X206400000Y-25000000D01*
X167900000Y-23400000D02*
X169500000Y-25000000D01*
X150400000Y-23400000D02*
X167900000Y-23400000D01*
X149000000Y-22000000D02*
X150400000Y-23400000D01*
X134700000Y-22000000D02*
X149000000Y-22000000D01*
X133200000Y-23500000D02*
X134700000Y-22000000D01*
X120200000Y-23500000D02*
X133200000Y-23500000D01*
X114650000Y-29050000D02*
X120200000Y-23500000D01*
X219700000Y-52050000D02*
X207000000Y-25000000D01*
X206600000Y-25500000D02*
X216400000Y-47200000D01*
X169200000Y-25500000D02*
X205700000Y-25500000D01*
X167600000Y-23900000D02*
X169200000Y-25500000D01*
X150100000Y-23900000D02*
X167600000Y-23900000D01*
X148700000Y-22500000D02*
X150100000Y-23900000D01*
X138900000Y-22500000D02*
X148700000Y-22500000D01*
X133650000Y-27750000D02*
X138900000Y-22500000D01*
X133650000Y-29500000D02*
X133650000Y-27750000D01*
X205700000Y-25500000D02*
X206600000Y-25500000D01*
X206200000Y-26000000D02*
X215800000Y-48300000D01*
X152650000Y-31000000D02*
X152650000Y-29250000D01*
X168900000Y-26000000D02*
X205000000Y-26000000D01*
X167400000Y-24500000D02*
X168900000Y-26000000D01*
X157400000Y-24500000D02*
X167400000Y-24500000D01*
X152650000Y-29250000D02*
X157400000Y-24500000D01*
X205000000Y-26000000D02*
X206200000Y-26000000D01*
X212450000Y-42000000D02*
X215100000Y-49350000D01*
X171650000Y-41900000D02*
X171900000Y-41900000D01*
X191600000Y-42000000D02*
X204300000Y-42000000D01*
X172000000Y-42000000D02*
X186900000Y-42000000D01*
X171900000Y-41900000D02*
X172000000Y-42000000D01*
X204300000Y-42000000D02*
X212450000Y-42000000D01*
X211500000Y-42500000D02*
X212250000Y-43250000D01*
X212250000Y-43250000D02*
X212250000Y-47800000D01*
X212250000Y-47800000D02*
X214700000Y-50250000D01*
X214700000Y-50250000D02*
X215314792Y-50250000D01*
X215314792Y-50250000D02*
X218725198Y-53660406D01*
X204250000Y-42500000D02*
X211500000Y-42500000D01*
X168850000Y-53950000D02*
X170200000Y-55300000D01*
X173100000Y-55450000D02*
X173125000Y-55475000D01*
X173125000Y-55475000D02*
X173125000Y-58775000D01*
X168850000Y-50000000D02*
X168850000Y-53950000D01*
X149850000Y-52650000D02*
X151250000Y-54050000D01*
X154050000Y-54050000D02*
X154050000Y-58350000D01*
X154050000Y-58350000D02*
X155200000Y-59500000D01*
X155200000Y-59500000D02*
X167550000Y-59500000D01*
X172700000Y-60850000D02*
X173400000Y-61550000D01*
X173400000Y-61550000D02*
X185850000Y-61550000D01*
X185850000Y-61550000D02*
X187250000Y-62950000D01*
X187250000Y-62950000D02*
X193200000Y-62950000D01*
X193200000Y-62950000D02*
X197000000Y-66750000D01*
X197000000Y-66750000D02*
X203900000Y-66750000D01*
X203900000Y-66750000D02*
X209022836Y-61627164D01*
X209022836Y-61627164D02*
X219748315Y-61627164D01*
X149850000Y-48500000D02*
X149850000Y-52650000D01*
X167400000Y-60800000D02*
X167550000Y-60950000D01*
X172650000Y-62250000D02*
X172800000Y-62100000D01*
X172800000Y-62100000D02*
X185650000Y-62100000D01*
X185650000Y-62100000D02*
X187050000Y-63500000D01*
X187050000Y-63500000D02*
X193000000Y-63500000D01*
X193000000Y-63500000D02*
X196800000Y-67300000D01*
X196800000Y-67300000D02*
X204200000Y-67300000D01*
X204200000Y-67300000D02*
X207585120Y-63914880D01*
X207585120Y-63914880D02*
X220851926Y-63914880D01*
X130850000Y-50000000D02*
X130850000Y-52600000D01*
X153750000Y-59750000D02*
X154800000Y-60800000D01*
X137300000Y-58100000D02*
X148550000Y-58100000D01*
X136050000Y-56850000D02*
X137300000Y-58100000D01*
X136050000Y-55200000D02*
X136050000Y-56850000D01*
X134850000Y-54000000D02*
X136050000Y-55200000D01*
X130850000Y-52600000D02*
X132250000Y-54000000D01*
X154800000Y-60800000D02*
X167400000Y-60800000D01*
X147600000Y-58650000D02*
X148500000Y-59550000D01*
X148500000Y-59550000D02*
X148500000Y-59700000D01*
X153800000Y-61200000D02*
X154000000Y-61400000D01*
X154000000Y-61400000D02*
X166500000Y-61400000D01*
X166500000Y-61400000D02*
X167550000Y-62450000D01*
X172650000Y-63500000D02*
X174200000Y-63500000D01*
X174200000Y-63500000D02*
X175050000Y-62650000D01*
X175050000Y-62650000D02*
X185450000Y-62650000D01*
X185450000Y-62650000D02*
X186850000Y-64050000D01*
X186850000Y-64050000D02*
X192800000Y-64050000D01*
X192800000Y-64050000D02*
X196600000Y-67850000D01*
X196600000Y-67850000D02*
X204450000Y-67850000D01*
X204450000Y-67850000D02*
X206097404Y-66202596D01*
X206097404Y-66202596D02*
X221955536Y-66202596D01*
X111850000Y-53000000D02*
X111850000Y-53750000D01*
X135500000Y-58650000D02*
X147400000Y-58650000D01*
X135000000Y-58150000D02*
X135500000Y-58650000D01*
X129450000Y-59550000D02*
X129500000Y-59500000D01*
X118200000Y-59550000D02*
X129450000Y-59550000D01*
X117250000Y-58600000D02*
X118200000Y-59550000D01*
X117250000Y-56450000D02*
X117250000Y-58600000D01*
X115950000Y-55150000D02*
X117250000Y-56450000D01*
X111850000Y-53750000D02*
X113200000Y-55100000D01*
X147400000Y-58650000D02*
X147600000Y-58650000D01*
X222968836Y-68400000D02*
X223059147Y-68490311D01*
X89800000Y-53000000D02*
X94400000Y-57600000D01*
X96850000Y-57600000D02*
X98300000Y-59050000D01*
X98300000Y-59050000D02*
X98300000Y-61700000D01*
X98300000Y-61700000D02*
X99300000Y-62700000D01*
X99300000Y-62700000D02*
X107950000Y-62700000D01*
X107950000Y-62700000D02*
X110450000Y-65200000D01*
X116400000Y-65200000D02*
X118100000Y-63500000D01*
X118100000Y-63500000D02*
X118100000Y-62550000D01*
X118100000Y-62550000D02*
X118800000Y-61850000D01*
X118800000Y-61850000D02*
X126650000Y-61850000D01*
X126650000Y-61850000D02*
X129600000Y-64800000D01*
X134950000Y-64800000D02*
X136500000Y-63250000D01*
X136500000Y-63250000D02*
X136500000Y-60500000D01*
X136500000Y-60500000D02*
X137800000Y-59200000D01*
X137800000Y-59200000D02*
X146150000Y-59200000D01*
X146150000Y-59200000D02*
X148500000Y-61550000D01*
X153800000Y-62550000D02*
X154400000Y-61950000D01*
X154400000Y-61950000D02*
X165550000Y-61950000D01*
X165550000Y-61950000D02*
X167550000Y-63950000D01*
X172650000Y-64950000D02*
X174100000Y-64950000D01*
X174100000Y-64950000D02*
X175850000Y-63200000D01*
X175850000Y-63200000D02*
X185200000Y-63200000D01*
X185200000Y-63200000D02*
X186600000Y-64600000D01*
X186600000Y-64600000D02*
X192550000Y-64600000D01*
X192550000Y-64600000D02*
X196350000Y-68400000D01*
X196350000Y-68400000D02*
X222968836Y-68400000D01*
X88100000Y-53000000D02*
X89800000Y-53000000D01*
X227375000Y-89275000D02*
X233625000Y-89275000D01*
X233625000Y-89275000D02*
X234900000Y-88000000D01*
X234900000Y-88000000D02*
X234900000Y-80750000D01*
X229100000Y-71000000D02*
X226450474Y-69674416D01*
X232150000Y-75000000D02*
X234900000Y-80750000D01*
X229100000Y-71000000D02*
X232150000Y-75000000D01*
X198750000Y-47550000D02*
X202500000Y-43800000D01*
X198750000Y-48150000D02*
X198750000Y-47550000D01*
X220625000Y-72775000D02*
X220915743Y-73065743D01*
X220915743Y-73065743D02*
X225266369Y-73065743D01*
X226000000Y-90500000D02*
X226125000Y-90375000D01*
X226125000Y-90375000D02*
X226125000Y-88450000D01*
X226125000Y-88450000D02*
X226550000Y-88025000D01*
X226550000Y-88025000D02*
X233925000Y-88025000D01*
X233925000Y-88025000D02*
X234250000Y-87700000D01*
X234250000Y-87700000D02*
X234250000Y-80950000D01*
X229950000Y-73200000D02*
X227554084Y-71962132D01*
X231550000Y-75250000D02*
X234250000Y-80950000D01*
X229950000Y-73200000D02*
X231550000Y-75250000D01*
X184750000Y-64475000D02*
X185550000Y-65275000D01*
X185550000Y-65275000D02*
X192400000Y-65275000D01*
X192400000Y-65275000D02*
X196125000Y-69000000D01*
X196125000Y-69000000D02*
X215300000Y-69000000D01*
X215300000Y-69000000D02*
X221653459Y-75353459D01*
X221653459Y-75353459D02*
X226369979Y-75353459D01*
X194875000Y-69300000D02*
X195175000Y-69600000D01*
X195175000Y-69600000D02*
X214550000Y-69600000D01*
X214550000Y-69600000D02*
X218625000Y-73675000D01*
X224300000Y-90575000D02*
X224300000Y-87050000D01*
X224300000Y-87050000D02*
X224375000Y-86975000D01*
X224375000Y-86975000D02*
X232200000Y-86975000D01*
X232200000Y-86975000D02*
X233700000Y-85475000D01*
X233700000Y-85475000D02*
X233700000Y-81150000D01*
X231000000Y-75500000D02*
X228657695Y-74249848D01*
X231000000Y-75500000D02*
X233700000Y-81150000D01*
X196210000Y-79240000D02*
X197000000Y-78450000D01*
X197000000Y-78450000D02*
X197000000Y-76400000D01*
X197000000Y-76400000D02*
X198350000Y-75050000D01*
X198350000Y-75050000D02*
X220600000Y-75050000D01*
X220600000Y-75050000D02*
X223191174Y-77641174D01*
X223191174Y-77641174D02*
X227473590Y-77641174D01*
X196210000Y-80940000D02*
X196210000Y-79240000D01*
X206850000Y-73575000D02*
X216950000Y-73575000D01*
X227375000Y-90650000D02*
X234475000Y-90650000D01*
X234475000Y-90650000D02*
X236775000Y-88350000D01*
X236775000Y-88350000D02*
X236775000Y-84050000D01*
X209850000Y-82875000D02*
X212796110Y-79928890D01*
X212796110Y-79928890D02*
X228577201Y-79928890D01*
X227425000Y-92250000D02*
X227500000Y-92325000D01*
X227500000Y-92325000D02*
X233725000Y-92325000D01*
X233725000Y-92325000D02*
X238100000Y-87950000D01*
X219950000Y-136275000D02*
X219950000Y-131375000D01*
X225850000Y-118350000D02*
X227275000Y-116925000D01*
X227275000Y-116925000D02*
X227275000Y-114975000D01*
X200600000Y-120425000D02*
X197600000Y-117425000D01*
X197600000Y-117425000D02*
X197600000Y-117400000D01*
X212100000Y-121700000D02*
X219075000Y-128675000D01*
X207775000Y-121675000D02*
X212100000Y-121700000D01*
X205325000Y-123225000D02*
X207775000Y-121675000D01*
X219950000Y-129550000D02*
X219075000Y-128675000D01*
X219950000Y-131375000D02*
X219950000Y-129550000D01*
X207236346Y-123188654D02*
X206125000Y-124300000D01*
X206125000Y-124300000D02*
X203850000Y-124300000D01*
X203850000Y-124300000D02*
X197050000Y-131100000D01*
X197050000Y-131100000D02*
X186775000Y-131100000D01*
X186775000Y-131100000D02*
X174200000Y-118525000D01*
X174200000Y-118525000D02*
X139750000Y-118525000D01*
X139750000Y-118525000D02*
X130850000Y-109625000D01*
X130850000Y-109625000D02*
X130850000Y-107000000D01*
X211393056Y-123188654D02*
X207236346Y-123188654D01*
X114650000Y-112975000D02*
X118300000Y-116625000D01*
X118300000Y-116625000D02*
X136975000Y-116625000D01*
X136975000Y-116625000D02*
X139475000Y-119125000D01*
X139475000Y-119125000D02*
X173850000Y-119125000D01*
X173850000Y-119125000D02*
X186550000Y-131825000D01*
X186550000Y-131825000D02*
X200450000Y-131825000D01*
X200450000Y-131825000D02*
X203500000Y-134875000D01*
X203500000Y-134875000D02*
X203500000Y-136824200D01*
X203500000Y-136824200D02*
X204546640Y-137870840D01*
X114650000Y-107000000D02*
X114650000Y-112975000D01*
X228515915Y-144340915D02*
X224200000Y-140025000D01*
X224200000Y-140025000D02*
X204675000Y-140025000D01*
X204675000Y-140025000D02*
X197075000Y-132425000D01*
X197075000Y-132425000D02*
X186225000Y-132425000D01*
X186225000Y-132425000D02*
X173600000Y-119800000D01*
X173600000Y-119800000D02*
X120475000Y-119800000D01*
X120475000Y-119800000D02*
X111850000Y-111175000D01*
X111850000Y-111175000D02*
X111850000Y-110000000D01*
X228515915Y-150592626D02*
X228515915Y-144340915D01*
X95650000Y-116275000D02*
X99850000Y-120475000D01*
X99850000Y-120475000D02*
X173400000Y-120475000D01*
X173400000Y-120475000D02*
X186025000Y-133100000D01*
X186025000Y-133100000D02*
X196850000Y-133100000D01*
X196850000Y-133100000D02*
X207496210Y-143746210D01*
X207496210Y-143746210D02*
X213833729Y-143746210D01*
X95650000Y-110000000D02*
X95650000Y-116275000D01*
X92850000Y-107825000D02*
X88100000Y-103075000D01*
X88100000Y-103075000D02*
X88100000Y-91000000D01*
X92850000Y-110000000D02*
X92850000Y-107825000D01*
X95650000Y-108600000D02*
X97725000Y-106525000D01*
X97725000Y-106525000D02*
X97725000Y-93075000D01*
X97725000Y-93075000D02*
X95650000Y-91000000D01*
X95650000Y-110000000D02*
X95650000Y-108600000D01*
X192200000Y-51175000D02*
X196600000Y-46775000D01*
X196600000Y-46775000D02*
X196600000Y-42500000D01*
X192200000Y-52025000D02*
X192200000Y-51175000D01*
D25*
G36*
X74191968Y-26900000D02*
X72900000Y-28191968D01*
X72900000Y-26900000D01*
X74191968Y-26900000D01*
X74191968Y-26900000D01*
G37*
X74191968Y-26900000D02*
X72900000Y-28191968D01*
X72900000Y-26900000D01*
X74191968Y-26900000D01*
G36*
X74523000Y-106696546D02*
X74401161Y-106209193D01*
X74523000Y-106331032D01*
X74523000Y-106696546D01*
X74523000Y-106696546D01*
G37*
X74523000Y-106696546D02*
X74401161Y-106209193D01*
X74523000Y-106331032D01*
X74523000Y-106696546D01*
G36*
X78585153Y-116582107D02*
X78190478Y-117532591D01*
X78190462Y-117549964D01*
X77195584Y-117386886D01*
X75975811Y-112507791D01*
X78159010Y-114690990D01*
X78190319Y-114711910D01*
X78189523Y-115624609D01*
X78585153Y-116582107D01*
X78585153Y-116582107D01*
G37*
X78585153Y-116582107D02*
X78190478Y-117532591D01*
X78190462Y-117549964D01*
X77195584Y-117386886D01*
X75975811Y-112507791D01*
X78159010Y-114690990D01*
X78190319Y-114711910D01*
X78189523Y-115624609D01*
X78585153Y-116582107D01*
G36*
X80118171Y-27427000D02*
X79999999Y-27589947D01*
X79881828Y-27427000D01*
X80118171Y-27427000D01*
X80118171Y-27427000D01*
G37*
X80118171Y-27427000D02*
X79999999Y-27589947D01*
X79881828Y-27427000D01*
X80118171Y-27427000D01*
G36*
X85973000Y-48380431D02*
X85515524Y-47922156D01*
X85390685Y-47138372D01*
X84768000Y-46124228D01*
X83804619Y-45425573D01*
X82647208Y-45148771D01*
X81471971Y-45335960D01*
X80457828Y-45958644D01*
X79999999Y-46589947D01*
X79542172Y-45958645D01*
X78528029Y-45335960D01*
X77352792Y-45148771D01*
X76195381Y-45425574D01*
X75232000Y-46124229D01*
X74609315Y-47138372D01*
X74484200Y-47923882D01*
X74027000Y-48380285D01*
X74027000Y-43807707D01*
X74630216Y-44411977D01*
X75640591Y-44831522D01*
X76734609Y-44832477D01*
X77325763Y-44588216D01*
X77552176Y-44682000D01*
X78347825Y-44682000D01*
X79647825Y-44682000D01*
X80000000Y-44536124D01*
X80352176Y-44682000D01*
X81147825Y-44682000D01*
X82300043Y-44682000D01*
X82662176Y-44832000D01*
X83457825Y-44832000D01*
X84957825Y-44832000D01*
X85692909Y-44527518D01*
X85973000Y-44247427D01*
X85973000Y-48380431D01*
X85973000Y-48380431D01*
G37*
X85973000Y-48380431D02*
X85515524Y-47922156D01*
X85390685Y-47138372D01*
X84768000Y-46124228D01*
X83804619Y-45425573D01*
X82647208Y-45148771D01*
X81471971Y-45335960D01*
X80457828Y-45958644D01*
X79999999Y-46589947D01*
X79542172Y-45958645D01*
X78528029Y-45335960D01*
X77352792Y-45148771D01*
X76195381Y-45425574D01*
X75232000Y-46124229D01*
X74609315Y-47138372D01*
X74484200Y-47923882D01*
X74027000Y-48380285D01*
X74027000Y-43807707D01*
X74630216Y-44411977D01*
X75640591Y-44831522D01*
X76734609Y-44832477D01*
X77325763Y-44588216D01*
X77552176Y-44682000D01*
X78347825Y-44682000D01*
X79647825Y-44682000D01*
X80000000Y-44536124D01*
X80352176Y-44682000D01*
X81147825Y-44682000D01*
X82300043Y-44682000D01*
X82662176Y-44832000D01*
X83457825Y-44832000D01*
X84957825Y-44832000D01*
X85692909Y-44527518D01*
X85973000Y-44247427D01*
X85973000Y-48380431D01*
G36*
X85973000Y-67380431D02*
X85515524Y-66922156D01*
X85390685Y-66138372D01*
X84768000Y-65124228D01*
X83804619Y-64425573D01*
X82647208Y-64148771D01*
X81471971Y-64335960D01*
X80457828Y-64958644D01*
X79999999Y-65589947D01*
X79542172Y-64958645D01*
X78528029Y-64335960D01*
X77352792Y-64148771D01*
X76195381Y-64425574D01*
X75232000Y-65124229D01*
X74609315Y-66138372D01*
X74484200Y-66923882D01*
X74027000Y-67380285D01*
X74027000Y-62807707D01*
X74630216Y-63411977D01*
X75640591Y-63831522D01*
X76734609Y-63832477D01*
X77325763Y-63588216D01*
X77552176Y-63682000D01*
X78347825Y-63682000D01*
X79647825Y-63682000D01*
X80000000Y-63536124D01*
X80352176Y-63682000D01*
X81147825Y-63682000D01*
X82300043Y-63682000D01*
X82662176Y-63832000D01*
X83457825Y-63832000D01*
X84957825Y-63832000D01*
X85692909Y-63527518D01*
X85973000Y-63247427D01*
X85973000Y-67380431D01*
X85973000Y-67380431D01*
G37*
X85973000Y-67380431D02*
X85515524Y-66922156D01*
X85390685Y-66138372D01*
X84768000Y-65124228D01*
X83804619Y-64425573D01*
X82647208Y-64148771D01*
X81471971Y-64335960D01*
X80457828Y-64958644D01*
X79999999Y-65589947D01*
X79542172Y-64958645D01*
X78528029Y-64335960D01*
X77352792Y-64148771D01*
X76195381Y-64425574D01*
X75232000Y-65124229D01*
X74609315Y-66138372D01*
X74484200Y-66923882D01*
X74027000Y-67380285D01*
X74027000Y-62807707D01*
X74630216Y-63411977D01*
X75640591Y-63831522D01*
X76734609Y-63832477D01*
X77325763Y-63588216D01*
X77552176Y-63682000D01*
X78347825Y-63682000D01*
X79647825Y-63682000D01*
X80000000Y-63536124D01*
X80352176Y-63682000D01*
X81147825Y-63682000D01*
X82300043Y-63682000D01*
X82662176Y-63832000D01*
X83457825Y-63832000D01*
X84957825Y-63832000D01*
X85692909Y-63527518D01*
X85973000Y-63247427D01*
X85973000Y-67380431D01*
G36*
X85973000Y-86380431D02*
X85515524Y-85922156D01*
X85390685Y-85138372D01*
X84768000Y-84124228D01*
X83804619Y-83425573D01*
X82647208Y-83148771D01*
X81471971Y-83335960D01*
X80457828Y-83958644D01*
X79999999Y-84589947D01*
X79542172Y-83958645D01*
X78528029Y-83335960D01*
X77352792Y-83148771D01*
X76195381Y-83425574D01*
X75232000Y-84124229D01*
X74609315Y-85138372D01*
X74484200Y-85923882D01*
X74027000Y-86380285D01*
X74027000Y-81807707D01*
X74630216Y-82411977D01*
X75640591Y-82831522D01*
X76734609Y-82832477D01*
X77325763Y-82588216D01*
X77552176Y-82682000D01*
X78347825Y-82682000D01*
X79647825Y-82682000D01*
X80000000Y-82536124D01*
X80352176Y-82682000D01*
X81147825Y-82682000D01*
X82300043Y-82682000D01*
X82662176Y-82832000D01*
X83457825Y-82832000D01*
X84957825Y-82832000D01*
X85692909Y-82527518D01*
X85973000Y-82247427D01*
X85973000Y-86380431D01*
X85973000Y-86380431D01*
G37*
X85973000Y-86380431D02*
X85515524Y-85922156D01*
X85390685Y-85138372D01*
X84768000Y-84124228D01*
X83804619Y-83425573D01*
X82647208Y-83148771D01*
X81471971Y-83335960D01*
X80457828Y-83958644D01*
X79999999Y-84589947D01*
X79542172Y-83958645D01*
X78528029Y-83335960D01*
X77352792Y-83148771D01*
X76195381Y-83425574D01*
X75232000Y-84124229D01*
X74609315Y-85138372D01*
X74484200Y-85923882D01*
X74027000Y-86380285D01*
X74027000Y-81807707D01*
X74630216Y-82411977D01*
X75640591Y-82831522D01*
X76734609Y-82832477D01*
X77325763Y-82588216D01*
X77552176Y-82682000D01*
X78347825Y-82682000D01*
X79647825Y-82682000D01*
X80000000Y-82536124D01*
X80352176Y-82682000D01*
X81147825Y-82682000D01*
X82300043Y-82682000D01*
X82662176Y-82832000D01*
X83457825Y-82832000D01*
X84957825Y-82832000D01*
X85692909Y-82527518D01*
X85973000Y-82247427D01*
X85973000Y-86380431D01*
G36*
X85973000Y-102488828D02*
X85207828Y-102958644D01*
X84749999Y-103589947D01*
X84292172Y-102958645D01*
X83278029Y-102335960D01*
X82102792Y-102148771D01*
X80945381Y-102425574D01*
X79982000Y-103124229D01*
X79359315Y-104138372D01*
X79234200Y-104923882D01*
X78765430Y-105391835D01*
X78615092Y-104636032D01*
X78154016Y-103945984D01*
X76039902Y-101831870D01*
X76734609Y-101832477D01*
X77325763Y-101588216D01*
X77552176Y-101682000D01*
X78347825Y-101682000D01*
X79647825Y-101682000D01*
X80000000Y-101536124D01*
X80352176Y-101682000D01*
X81147825Y-101682000D01*
X82300043Y-101682000D01*
X82662176Y-101832000D01*
X83457825Y-101832000D01*
X84957825Y-101832000D01*
X85692909Y-101527518D01*
X85973000Y-101247427D01*
X85973000Y-102488828D01*
X85973000Y-102488828D01*
G37*
X85973000Y-102488828D02*
X85207828Y-102958644D01*
X84749999Y-103589947D01*
X84292172Y-102958645D01*
X83278029Y-102335960D01*
X82102792Y-102148771D01*
X80945381Y-102425574D01*
X79982000Y-103124229D01*
X79359315Y-104138372D01*
X79234200Y-104923882D01*
X78765430Y-105391835D01*
X78615092Y-104636032D01*
X78154016Y-103945984D01*
X76039902Y-101831870D01*
X76734609Y-101832477D01*
X77325763Y-101588216D01*
X77552176Y-101682000D01*
X78347825Y-101682000D01*
X79647825Y-101682000D01*
X80000000Y-101536124D01*
X80352176Y-101682000D01*
X81147825Y-101682000D01*
X82300043Y-101682000D01*
X82662176Y-101832000D01*
X83457825Y-101832000D01*
X84957825Y-101832000D01*
X85692909Y-101527518D01*
X85973000Y-101247427D01*
X85973000Y-102488828D01*
G36*
X89481877Y-27427000D02*
X88949848Y-27958101D01*
X88400626Y-29280774D01*
X88399377Y-30712943D01*
X88750712Y-31563239D01*
X88599462Y-31500435D01*
X87604901Y-31499567D01*
X86902085Y-31789964D01*
X86809793Y-31697511D01*
X86810519Y-30865881D01*
X86354759Y-29762857D01*
X85515524Y-28922156D01*
X85390685Y-28138372D01*
X84953902Y-27427000D01*
X89481877Y-27427000D01*
X89481877Y-27427000D01*
G37*
X89481877Y-27427000D02*
X88949848Y-27958101D01*
X88400626Y-29280774D01*
X88399377Y-30712943D01*
X88750712Y-31563239D01*
X88599462Y-31500435D01*
X87604901Y-31499567D01*
X86902085Y-31789964D01*
X86809793Y-31697511D01*
X86810519Y-30865881D01*
X86354759Y-29762857D01*
X85515524Y-28922156D01*
X85390685Y-28138372D01*
X84953902Y-27427000D01*
X89481877Y-27427000D01*
G36*
X93523000Y-51603301D02*
X93150435Y-52500538D01*
X93149700Y-53341668D01*
X91304016Y-51495984D01*
X90613968Y-51034908D01*
X90227000Y-50957935D01*
X90227000Y-35396698D01*
X90599565Y-34499462D01*
X90600433Y-33504901D01*
X90506650Y-33277929D01*
X91280774Y-33599374D01*
X92712943Y-33600623D01*
X93190876Y-33403145D01*
X93150435Y-33500538D01*
X93149567Y-34495099D01*
X93523000Y-35398876D01*
X93523000Y-51603301D01*
X93523000Y-51603301D01*
G37*
X93523000Y-51603301D02*
X93150435Y-52500538D01*
X93149700Y-53341668D01*
X91304016Y-51495984D01*
X90613968Y-51034908D01*
X90227000Y-50957935D01*
X90227000Y-35396698D01*
X90599565Y-34499462D01*
X90600433Y-33504901D01*
X90506650Y-33277929D01*
X91280774Y-33599374D01*
X92712943Y-33600623D01*
X93190876Y-33403145D01*
X93150435Y-33500538D01*
X93149567Y-34495099D01*
X93523000Y-35398876D01*
X93523000Y-51603301D01*
G36*
X95598000Y-101280708D02*
X95053711Y-99963428D01*
X94041899Y-98949848D01*
X92719226Y-98400626D01*
X91287057Y-98399377D01*
X90227000Y-98837383D01*
X90227000Y-92396698D01*
X90599565Y-91499462D01*
X90600433Y-90504901D01*
X90227000Y-89601123D01*
X90227000Y-73396698D01*
X90599565Y-72499462D01*
X90600433Y-71504901D01*
X90227000Y-70601123D01*
X90227000Y-56435032D01*
X92010702Y-58218734D01*
X92326445Y-58982889D01*
X93013494Y-59671138D01*
X93523000Y-59882703D01*
X93523000Y-70603301D01*
X93150435Y-71500538D01*
X93149567Y-72495099D01*
X93523000Y-73398876D01*
X93523000Y-89603301D01*
X93150435Y-90500538D01*
X93149567Y-91495099D01*
X93529367Y-92414286D01*
X94232015Y-93118161D01*
X94837671Y-93369651D01*
X95598000Y-94129980D01*
X95598000Y-101280708D01*
X95598000Y-101280708D01*
G37*
X95598000Y-101280708D02*
X95053711Y-99963428D01*
X94041899Y-98949848D01*
X92719226Y-98400626D01*
X91287057Y-98399377D01*
X90227000Y-98837383D01*
X90227000Y-92396698D01*
X90599565Y-91499462D01*
X90600433Y-90504901D01*
X90227000Y-89601123D01*
X90227000Y-73396698D01*
X90599565Y-72499462D01*
X90600433Y-71504901D01*
X90227000Y-70601123D01*
X90227000Y-56435032D01*
X92010702Y-58218734D01*
X92326445Y-58982889D01*
X93013494Y-59671138D01*
X93523000Y-59882703D01*
X93523000Y-70603301D01*
X93150435Y-71500538D01*
X93149567Y-72495099D01*
X93523000Y-73398876D01*
X93523000Y-89603301D01*
X93150435Y-90500538D01*
X93149567Y-91495099D01*
X93529367Y-92414286D01*
X94232015Y-93118161D01*
X94837671Y-93369651D01*
X95598000Y-94129980D01*
X95598000Y-101280708D01*
G36*
X95598000Y-105643968D02*
X94581111Y-106660856D01*
X94354016Y-106320984D01*
X93364455Y-105331423D01*
X94036572Y-105053711D01*
X95050152Y-104041899D01*
X95598000Y-102722534D01*
X95598000Y-105643968D01*
X95598000Y-105643968D01*
G37*
X95598000Y-105643968D02*
X94581111Y-106660856D01*
X94354016Y-106320984D01*
X93364455Y-105331423D01*
X94036572Y-105053711D01*
X95050152Y-104041899D01*
X95598000Y-102722534D01*
X95598000Y-105643968D01*
G36*
X97000181Y-120633213D02*
X91127438Y-119670566D01*
X91310000Y-119229824D01*
X91310000Y-118434175D01*
X91310000Y-116934175D01*
X91163709Y-116580999D01*
X91310000Y-116227824D01*
X91310000Y-115432175D01*
X91310000Y-115317063D01*
X93523000Y-112692342D01*
X93523000Y-116275000D01*
X93684908Y-117088968D01*
X94145984Y-117779016D01*
X97000181Y-120633213D01*
X97000181Y-120633213D01*
G37*
X97000181Y-120633213D02*
X91127438Y-119670566D01*
X91310000Y-119229824D01*
X91310000Y-118434175D01*
X91310000Y-116934175D01*
X91163709Y-116580999D01*
X91310000Y-116227824D01*
X91310000Y-115432175D01*
X91310000Y-115317063D01*
X93523000Y-112692342D01*
X93523000Y-116275000D01*
X93684908Y-117088968D01*
X94145984Y-117779016D01*
X97000181Y-120633213D01*
G36*
X97364968Y-27427000D02*
X95572638Y-29219329D01*
X95053711Y-27963428D01*
X94518218Y-27427000D01*
X97364968Y-27427000D01*
X97364968Y-27427000D01*
G37*
X97364968Y-27427000D02*
X95572638Y-29219329D01*
X95053711Y-27963428D01*
X94518218Y-27427000D01*
X97364968Y-27427000D01*
G36*
X99391851Y-64827000D02*
X98982000Y-65124229D01*
X98359315Y-66138372D01*
X98234200Y-66923882D01*
X97777000Y-67380285D01*
X97777000Y-64185032D01*
X97795984Y-64204016D01*
X98486032Y-64665092D01*
X98486033Y-64665092D01*
X99300000Y-64827000D01*
X99391851Y-64827000D01*
X99391851Y-64827000D01*
G37*
X99391851Y-64827000D02*
X98982000Y-65124229D01*
X98359315Y-66138372D01*
X98234200Y-66923882D01*
X97777000Y-67380285D01*
X97777000Y-64185032D01*
X97795984Y-64204016D01*
X98486032Y-64665092D01*
X98486033Y-64665092D01*
X99300000Y-64827000D01*
X99391851Y-64827000D01*
G36*
X104422231Y-64827000D02*
X104207828Y-64958644D01*
X103749999Y-65589947D01*
X103292172Y-64958645D01*
X103077766Y-64827000D01*
X104422231Y-64827000D01*
X104422231Y-64827000D01*
G37*
X104422231Y-64827000D02*
X104207828Y-64958644D01*
X103749999Y-65589947D01*
X103292172Y-64958645D01*
X103077766Y-64827000D01*
X104422231Y-64827000D01*
G36*
X109723000Y-48380431D02*
X109265524Y-47922156D01*
X109140685Y-47138372D01*
X108518000Y-46124228D01*
X107554619Y-45425573D01*
X106397208Y-45148771D01*
X105221971Y-45335960D01*
X104207828Y-45958644D01*
X103749999Y-46589947D01*
X103292172Y-45958645D01*
X102278029Y-45335960D01*
X101102792Y-45148771D01*
X99945381Y-45425574D01*
X98982000Y-46124229D01*
X98359315Y-47138372D01*
X98234200Y-47923882D01*
X97777000Y-48380285D01*
X97777000Y-43807707D01*
X98380216Y-44411977D01*
X99390591Y-44831522D01*
X100484609Y-44832477D01*
X101075763Y-44588216D01*
X101302176Y-44682000D01*
X102097825Y-44682000D01*
X103397825Y-44682000D01*
X103750000Y-44536124D01*
X104102176Y-44682000D01*
X104897825Y-44682000D01*
X106050043Y-44682000D01*
X106412176Y-44832000D01*
X107207825Y-44832000D01*
X108707825Y-44832000D01*
X109442909Y-44527518D01*
X109723000Y-44247427D01*
X109723000Y-48380431D01*
X109723000Y-48380431D01*
G37*
X109723000Y-48380431D02*
X109265524Y-47922156D01*
X109140685Y-47138372D01*
X108518000Y-46124228D01*
X107554619Y-45425573D01*
X106397208Y-45148771D01*
X105221971Y-45335960D01*
X104207828Y-45958644D01*
X103749999Y-46589947D01*
X103292172Y-45958645D01*
X102278029Y-45335960D01*
X101102792Y-45148771D01*
X99945381Y-45425574D01*
X98982000Y-46124229D01*
X98359315Y-47138372D01*
X98234200Y-47923882D01*
X97777000Y-48380285D01*
X97777000Y-43807707D01*
X98380216Y-44411977D01*
X99390591Y-44831522D01*
X100484609Y-44832477D01*
X101075763Y-44588216D01*
X101302176Y-44682000D01*
X102097825Y-44682000D01*
X103397825Y-44682000D01*
X103750000Y-44536124D01*
X104102176Y-44682000D01*
X104897825Y-44682000D01*
X106050043Y-44682000D01*
X106412176Y-44832000D01*
X107207825Y-44832000D01*
X108707825Y-44832000D01*
X109442909Y-44527518D01*
X109723000Y-44247427D01*
X109723000Y-48380431D01*
G36*
X109723000Y-86380431D02*
X109265524Y-85922156D01*
X109140685Y-85138372D01*
X108518000Y-84124228D01*
X107554619Y-83425573D01*
X106397208Y-83148771D01*
X105221971Y-83335960D01*
X104207828Y-83958644D01*
X103749999Y-84589947D01*
X103292172Y-83958645D01*
X102278029Y-83335960D01*
X101102792Y-83148771D01*
X99945381Y-83425574D01*
X98982000Y-84124229D01*
X98359315Y-85138372D01*
X98234200Y-85923882D01*
X97777000Y-86380285D01*
X97777000Y-81807707D01*
X98380216Y-82411977D01*
X99390591Y-82831522D01*
X100484609Y-82832477D01*
X101075763Y-82588216D01*
X101302176Y-82682000D01*
X102097825Y-82682000D01*
X103397825Y-82682000D01*
X103750000Y-82536124D01*
X104102176Y-82682000D01*
X104897825Y-82682000D01*
X106050043Y-82682000D01*
X106412176Y-82832000D01*
X107207825Y-82832000D01*
X108707825Y-82832000D01*
X109442909Y-82527518D01*
X109723000Y-82247427D01*
X109723000Y-86380431D01*
X109723000Y-86380431D01*
G37*
X109723000Y-86380431D02*
X109265524Y-85922156D01*
X109140685Y-85138372D01*
X108518000Y-84124228D01*
X107554619Y-83425573D01*
X106397208Y-83148771D01*
X105221971Y-83335960D01*
X104207828Y-83958644D01*
X103749999Y-84589947D01*
X103292172Y-83958645D01*
X102278029Y-83335960D01*
X101102792Y-83148771D01*
X99945381Y-83425574D01*
X98982000Y-84124229D01*
X98359315Y-85138372D01*
X98234200Y-85923882D01*
X97777000Y-86380285D01*
X97777000Y-81807707D01*
X98380216Y-82411977D01*
X99390591Y-82831522D01*
X100484609Y-82832477D01*
X101075763Y-82588216D01*
X101302176Y-82682000D01*
X102097825Y-82682000D01*
X103397825Y-82682000D01*
X103750000Y-82536124D01*
X104102176Y-82682000D01*
X104897825Y-82682000D01*
X106050043Y-82682000D01*
X106412176Y-82832000D01*
X107207825Y-82832000D01*
X108707825Y-82832000D01*
X109442909Y-82527518D01*
X109723000Y-82247427D01*
X109723000Y-86380431D01*
G36*
X109723000Y-105380431D02*
X109265524Y-104922156D01*
X109140685Y-104138372D01*
X108518000Y-103124228D01*
X107554619Y-102425573D01*
X106397208Y-102148771D01*
X105221971Y-102335960D01*
X104207828Y-102958644D01*
X103749999Y-103589947D01*
X103292172Y-102958645D01*
X102278029Y-102335960D01*
X101102792Y-102148771D01*
X99945381Y-102425574D01*
X99852000Y-102493294D01*
X99852000Y-101831924D01*
X100484609Y-101832477D01*
X101075763Y-101588216D01*
X101302176Y-101682000D01*
X102097825Y-101682000D01*
X103397825Y-101682000D01*
X103750000Y-101536124D01*
X104102176Y-101682000D01*
X104897825Y-101682000D01*
X106050043Y-101682000D01*
X106412176Y-101832000D01*
X107207825Y-101832000D01*
X108707825Y-101832000D01*
X109442909Y-101527518D01*
X109723000Y-101247427D01*
X109723000Y-105380431D01*
X109723000Y-105380431D01*
G37*
X109723000Y-105380431D02*
X109265524Y-104922156D01*
X109140685Y-104138372D01*
X108518000Y-103124228D01*
X107554619Y-102425573D01*
X106397208Y-102148771D01*
X105221971Y-102335960D01*
X104207828Y-102958644D01*
X103749999Y-103589947D01*
X103292172Y-102958645D01*
X102278029Y-102335960D01*
X101102792Y-102148771D01*
X99945381Y-102425574D01*
X99852000Y-102493294D01*
X99852000Y-101831924D01*
X100484609Y-101832477D01*
X101075763Y-101588216D01*
X101302176Y-101682000D01*
X102097825Y-101682000D01*
X103397825Y-101682000D01*
X103750000Y-101536124D01*
X104102176Y-101682000D01*
X104897825Y-101682000D01*
X106050043Y-101682000D01*
X106412176Y-101832000D01*
X107207825Y-101832000D01*
X108707825Y-101832000D01*
X109442909Y-101527518D01*
X109723000Y-101247427D01*
X109723000Y-105380431D01*
G36*
X112824578Y-28027000D02*
X112684908Y-28236032D01*
X112523000Y-29050000D01*
X112523000Y-29603301D01*
X112150435Y-30500538D01*
X112149567Y-31495099D01*
X112151700Y-31500262D01*
X111354901Y-31499567D01*
X110652085Y-31789964D01*
X110559793Y-31697511D01*
X110560519Y-30865881D01*
X110104759Y-29762857D01*
X109265524Y-28922156D01*
X109140685Y-28138372D01*
X109072302Y-28027000D01*
X112824578Y-28027000D01*
X112824578Y-28027000D01*
G37*
X112824578Y-28027000D02*
X112684908Y-28236032D01*
X112523000Y-29050000D01*
X112523000Y-29603301D01*
X112150435Y-30500538D01*
X112149567Y-31495099D01*
X112151700Y-31500262D01*
X111354901Y-31499567D01*
X110652085Y-31789964D01*
X110559793Y-31697511D01*
X110560519Y-30865881D01*
X110104759Y-29762857D01*
X109265524Y-28922156D01*
X109140685Y-28138372D01*
X109072302Y-28027000D01*
X112824578Y-28027000D01*
G36*
X116014968Y-118348000D02*
X110310000Y-118348000D01*
X110310000Y-116934175D01*
X110163709Y-116580999D01*
X110310000Y-116227824D01*
X110310000Y-115432175D01*
X110310000Y-115317063D01*
X111533227Y-113866259D01*
X116014968Y-118348000D01*
X116014968Y-118348000D01*
G37*
X116014968Y-118348000D02*
X110310000Y-118348000D01*
X110310000Y-116934175D01*
X110163709Y-116580999D01*
X110310000Y-116227824D01*
X110310000Y-115432175D01*
X110310000Y-115317063D01*
X111533227Y-113866259D01*
X116014968Y-118348000D01*
G36*
X128723000Y-45380431D02*
X128265524Y-44922156D01*
X128140685Y-44138372D01*
X127518000Y-43124228D01*
X126554619Y-42425573D01*
X125397208Y-42148771D01*
X124221971Y-42335960D01*
X123207828Y-42958644D01*
X122749999Y-43589947D01*
X122292172Y-42958645D01*
X121278029Y-42335960D01*
X120102792Y-42148771D01*
X118945381Y-42425574D01*
X117982000Y-43124229D01*
X117359315Y-44138372D01*
X117234200Y-44923882D01*
X116777000Y-45380285D01*
X116777000Y-40807707D01*
X117380216Y-41411977D01*
X118390591Y-41831522D01*
X119484609Y-41832477D01*
X120075763Y-41588216D01*
X120302176Y-41682000D01*
X121097825Y-41682000D01*
X122397825Y-41682000D01*
X122750000Y-41536124D01*
X123102176Y-41682000D01*
X123897825Y-41682000D01*
X125050043Y-41682000D01*
X125412176Y-41832000D01*
X126207825Y-41832000D01*
X127707825Y-41832000D01*
X128442909Y-41527518D01*
X128723000Y-41247427D01*
X128723000Y-45380431D01*
X128723000Y-45380431D01*
G37*
X128723000Y-45380431D02*
X128265524Y-44922156D01*
X128140685Y-44138372D01*
X127518000Y-43124228D01*
X126554619Y-42425573D01*
X125397208Y-42148771D01*
X124221971Y-42335960D01*
X123207828Y-42958644D01*
X122749999Y-43589947D01*
X122292172Y-42958645D01*
X121278029Y-42335960D01*
X120102792Y-42148771D01*
X118945381Y-42425574D01*
X117982000Y-43124229D01*
X117359315Y-44138372D01*
X117234200Y-44923882D01*
X116777000Y-45380285D01*
X116777000Y-40807707D01*
X117380216Y-41411977D01*
X118390591Y-41831522D01*
X119484609Y-41832477D01*
X120075763Y-41588216D01*
X120302176Y-41682000D01*
X121097825Y-41682000D01*
X122397825Y-41682000D01*
X122750000Y-41536124D01*
X123102176Y-41682000D01*
X123897825Y-41682000D01*
X125050043Y-41682000D01*
X125412176Y-41832000D01*
X126207825Y-41832000D01*
X127707825Y-41832000D01*
X128442909Y-41527518D01*
X128723000Y-41247427D01*
X128723000Y-45380431D01*
G36*
X128723000Y-83380431D02*
X128265524Y-82922156D01*
X128140685Y-82138372D01*
X127518000Y-81124228D01*
X126554619Y-80425573D01*
X125397208Y-80148771D01*
X124221971Y-80335960D01*
X123207828Y-80958644D01*
X122749999Y-81589947D01*
X122292172Y-80958645D01*
X121278029Y-80335960D01*
X120102792Y-80148771D01*
X118945381Y-80425574D01*
X117982000Y-81124229D01*
X117359315Y-82138372D01*
X117234200Y-82923882D01*
X116777000Y-83380285D01*
X116777000Y-78807707D01*
X117380216Y-79411977D01*
X118390591Y-79831522D01*
X119484609Y-79832477D01*
X120075763Y-79588216D01*
X120302176Y-79682000D01*
X121097825Y-79682000D01*
X122397825Y-79682000D01*
X122750000Y-79536124D01*
X123102176Y-79682000D01*
X123897825Y-79682000D01*
X125050043Y-79682000D01*
X125412176Y-79832000D01*
X126207825Y-79832000D01*
X127707825Y-79832000D01*
X128442909Y-79527518D01*
X128723000Y-79247427D01*
X128723000Y-83380431D01*
X128723000Y-83380431D01*
G37*
X128723000Y-83380431D02*
X128265524Y-82922156D01*
X128140685Y-82138372D01*
X127518000Y-81124228D01*
X126554619Y-80425573D01*
X125397208Y-80148771D01*
X124221971Y-80335960D01*
X123207828Y-80958644D01*
X122749999Y-81589947D01*
X122292172Y-80958645D01*
X121278029Y-80335960D01*
X120102792Y-80148771D01*
X118945381Y-80425574D01*
X117982000Y-81124229D01*
X117359315Y-82138372D01*
X117234200Y-82923882D01*
X116777000Y-83380285D01*
X116777000Y-78807707D01*
X117380216Y-79411977D01*
X118390591Y-79831522D01*
X119484609Y-79832477D01*
X120075763Y-79588216D01*
X120302176Y-79682000D01*
X121097825Y-79682000D01*
X122397825Y-79682000D01*
X122750000Y-79536124D01*
X123102176Y-79682000D01*
X123897825Y-79682000D01*
X125050043Y-79682000D01*
X125412176Y-79832000D01*
X126207825Y-79832000D01*
X127707825Y-79832000D01*
X128442909Y-79527518D01*
X128723000Y-79247427D01*
X128723000Y-83380431D01*
G36*
X128723000Y-102380431D02*
X128265524Y-101922156D01*
X128140685Y-101138372D01*
X127518000Y-100124228D01*
X126554619Y-99425573D01*
X125397208Y-99148771D01*
X124221971Y-99335960D01*
X123207828Y-99958644D01*
X122749999Y-100589947D01*
X122292172Y-99958645D01*
X121278029Y-99335960D01*
X120102792Y-99148771D01*
X118945381Y-99425574D01*
X117982000Y-100124229D01*
X117359315Y-101138372D01*
X117234200Y-101923882D01*
X116777000Y-102380285D01*
X116777000Y-97807707D01*
X117380216Y-98411977D01*
X118390591Y-98831522D01*
X119484609Y-98832477D01*
X120075763Y-98588216D01*
X120302176Y-98682000D01*
X121097825Y-98682000D01*
X122397825Y-98682000D01*
X122750000Y-98536124D01*
X123102176Y-98682000D01*
X123897825Y-98682000D01*
X125050043Y-98682000D01*
X125412176Y-98832000D01*
X126207825Y-98832000D01*
X127707825Y-98832000D01*
X128442909Y-98527518D01*
X128723000Y-98247427D01*
X128723000Y-102380431D01*
X128723000Y-102380431D01*
G37*
X128723000Y-102380431D02*
X128265524Y-101922156D01*
X128140685Y-101138372D01*
X127518000Y-100124228D01*
X126554619Y-99425573D01*
X125397208Y-99148771D01*
X124221971Y-99335960D01*
X123207828Y-99958644D01*
X122749999Y-100589947D01*
X122292172Y-99958645D01*
X121278029Y-99335960D01*
X120102792Y-99148771D01*
X118945381Y-99425574D01*
X117982000Y-100124229D01*
X117359315Y-101138372D01*
X117234200Y-101923882D01*
X116777000Y-102380285D01*
X116777000Y-97807707D01*
X117380216Y-98411977D01*
X118390591Y-98831522D01*
X119484609Y-98832477D01*
X120075763Y-98588216D01*
X120302176Y-98682000D01*
X121097825Y-98682000D01*
X122397825Y-98682000D01*
X122750000Y-98536124D01*
X123102176Y-98682000D01*
X123897825Y-98682000D01*
X125050043Y-98682000D01*
X125412176Y-98832000D01*
X126207825Y-98832000D01*
X127707825Y-98832000D01*
X128442909Y-98527518D01*
X128723000Y-98247427D01*
X128723000Y-102380431D01*
G36*
X132714968Y-114498000D02*
X129310000Y-114498000D01*
X129310000Y-113934175D01*
X129163709Y-113580999D01*
X129310000Y-113227824D01*
X129310000Y-112432175D01*
X129310000Y-112317063D01*
X129869929Y-111652961D01*
X132714968Y-114498000D01*
X132714968Y-114498000D01*
G37*
X132714968Y-114498000D02*
X129310000Y-114498000D01*
X129310000Y-113934175D01*
X129163709Y-113580999D01*
X129310000Y-113227824D01*
X129310000Y-112432175D01*
X129310000Y-112317063D01*
X129869929Y-111652961D01*
X132714968Y-114498000D01*
G36*
X132764968Y-25627000D02*
X132145984Y-26245984D01*
X131684908Y-26936032D01*
X131523000Y-27750000D01*
X131523000Y-28103301D01*
X131356826Y-28503492D01*
X131349462Y-28500435D01*
X130354901Y-28499567D01*
X129652085Y-28789964D01*
X129559793Y-28697511D01*
X129560519Y-27865881D01*
X129104759Y-26762857D01*
X128265524Y-25922156D01*
X128218512Y-25627000D01*
X132764968Y-25627000D01*
X132764968Y-25627000D01*
G37*
X132764968Y-25627000D02*
X132145984Y-26245984D01*
X131684908Y-26936032D01*
X131523000Y-27750000D01*
X131523000Y-28103301D01*
X131356826Y-28503492D01*
X131349462Y-28500435D01*
X130354901Y-28499567D01*
X129652085Y-28789964D01*
X129559793Y-28697511D01*
X129560519Y-27865881D01*
X129104759Y-26762857D01*
X128265524Y-25922156D01*
X128218512Y-25627000D01*
X132764968Y-25627000D01*
G36*
X147723000Y-43880431D02*
X147265524Y-43422156D01*
X147140685Y-42638372D01*
X146518000Y-41624228D01*
X145554619Y-40925573D01*
X144397208Y-40648771D01*
X143221971Y-40835960D01*
X142207828Y-41458644D01*
X141749999Y-42089947D01*
X141292172Y-41458645D01*
X140278029Y-40835960D01*
X139102792Y-40648771D01*
X137945381Y-40925574D01*
X136982000Y-41624229D01*
X136359315Y-42638372D01*
X136234200Y-43423882D01*
X135777000Y-43880285D01*
X135777000Y-39307707D01*
X136380216Y-39911977D01*
X137390591Y-40331522D01*
X138484609Y-40332477D01*
X139075763Y-40088216D01*
X139302176Y-40182000D01*
X140097825Y-40182000D01*
X141397825Y-40182000D01*
X141750000Y-40036124D01*
X142102176Y-40182000D01*
X142897825Y-40182000D01*
X144050043Y-40182000D01*
X144412176Y-40332000D01*
X145207825Y-40332000D01*
X146707825Y-40332000D01*
X147442909Y-40027518D01*
X147723000Y-39747427D01*
X147723000Y-43880431D01*
X147723000Y-43880431D01*
G37*
X147723000Y-43880431D02*
X147265524Y-43422156D01*
X147140685Y-42638372D01*
X146518000Y-41624228D01*
X145554619Y-40925573D01*
X144397208Y-40648771D01*
X143221971Y-40835960D01*
X142207828Y-41458644D01*
X141749999Y-42089947D01*
X141292172Y-41458645D01*
X140278029Y-40835960D01*
X139102792Y-40648771D01*
X137945381Y-40925574D01*
X136982000Y-41624229D01*
X136359315Y-42638372D01*
X136234200Y-43423882D01*
X135777000Y-43880285D01*
X135777000Y-39307707D01*
X136380216Y-39911977D01*
X137390591Y-40331522D01*
X138484609Y-40332477D01*
X139075763Y-40088216D01*
X139302176Y-40182000D01*
X140097825Y-40182000D01*
X141397825Y-40182000D01*
X141750000Y-40036124D01*
X142102176Y-40182000D01*
X142897825Y-40182000D01*
X144050043Y-40182000D01*
X144412176Y-40332000D01*
X145207825Y-40332000D01*
X146707825Y-40332000D01*
X147442909Y-40027518D01*
X147723000Y-39747427D01*
X147723000Y-43880431D01*
G36*
X147723000Y-81880431D02*
X147265524Y-81422156D01*
X147140685Y-80638372D01*
X146518000Y-79624228D01*
X145554619Y-78925573D01*
X144397208Y-78648771D01*
X143221971Y-78835960D01*
X142207828Y-79458644D01*
X141749999Y-80089947D01*
X141292172Y-79458645D01*
X140278029Y-78835960D01*
X139102792Y-78648771D01*
X137945381Y-78925574D01*
X136982000Y-79624229D01*
X136359315Y-80638372D01*
X136234200Y-81423882D01*
X135777000Y-81880285D01*
X135777000Y-77307707D01*
X136380216Y-77911977D01*
X137390591Y-78331522D01*
X138484609Y-78332477D01*
X139075763Y-78088216D01*
X139302176Y-78182000D01*
X140097825Y-78182000D01*
X141397825Y-78182000D01*
X141750000Y-78036124D01*
X142102176Y-78182000D01*
X142897825Y-78182000D01*
X144050043Y-78182000D01*
X144412176Y-78332000D01*
X145207825Y-78332000D01*
X146707825Y-78332000D01*
X147442909Y-78027518D01*
X147723000Y-77747427D01*
X147723000Y-81880431D01*
X147723000Y-81880431D01*
G37*
X147723000Y-81880431D02*
X147265524Y-81422156D01*
X147140685Y-80638372D01*
X146518000Y-79624228D01*
X145554619Y-78925573D01*
X144397208Y-78648771D01*
X143221971Y-78835960D01*
X142207828Y-79458644D01*
X141749999Y-80089947D01*
X141292172Y-79458645D01*
X140278029Y-78835960D01*
X139102792Y-78648771D01*
X137945381Y-78925574D01*
X136982000Y-79624229D01*
X136359315Y-80638372D01*
X136234200Y-81423882D01*
X135777000Y-81880285D01*
X135777000Y-77307707D01*
X136380216Y-77911977D01*
X137390591Y-78331522D01*
X138484609Y-78332477D01*
X139075763Y-78088216D01*
X139302176Y-78182000D01*
X140097825Y-78182000D01*
X141397825Y-78182000D01*
X141750000Y-78036124D01*
X142102176Y-78182000D01*
X142897825Y-78182000D01*
X144050043Y-78182000D01*
X144412176Y-78332000D01*
X145207825Y-78332000D01*
X146707825Y-78332000D01*
X147442909Y-78027518D01*
X147723000Y-77747427D01*
X147723000Y-81880431D01*
G36*
X147723000Y-100880431D02*
X147265524Y-100422156D01*
X147140685Y-99638372D01*
X146518000Y-98624228D01*
X145554619Y-97925573D01*
X144397208Y-97648771D01*
X143221971Y-97835960D01*
X142207828Y-98458644D01*
X141749999Y-99089947D01*
X141292172Y-98458645D01*
X140278029Y-97835960D01*
X139102792Y-97648771D01*
X137945381Y-97925574D01*
X136982000Y-98624229D01*
X136359315Y-99638372D01*
X136234200Y-100423882D01*
X135777000Y-100880285D01*
X135777000Y-96307707D01*
X136380216Y-96911977D01*
X137390591Y-97331522D01*
X138484609Y-97332477D01*
X139075763Y-97088216D01*
X139302176Y-97182000D01*
X140097825Y-97182000D01*
X141397825Y-97182000D01*
X141750000Y-97036124D01*
X142102176Y-97182000D01*
X142897825Y-97182000D01*
X144050043Y-97182000D01*
X144412176Y-97332000D01*
X145207825Y-97332000D01*
X146707825Y-97332000D01*
X147442909Y-97027518D01*
X147723000Y-96747427D01*
X147723000Y-100880431D01*
X147723000Y-100880431D01*
G37*
X147723000Y-100880431D02*
X147265524Y-100422156D01*
X147140685Y-99638372D01*
X146518000Y-98624228D01*
X145554619Y-97925573D01*
X144397208Y-97648771D01*
X143221971Y-97835960D01*
X142207828Y-98458644D01*
X141749999Y-99089947D01*
X141292172Y-98458645D01*
X140278029Y-97835960D01*
X139102792Y-97648771D01*
X137945381Y-97925574D01*
X136982000Y-98624229D01*
X136359315Y-99638372D01*
X136234200Y-100423882D01*
X135777000Y-100880285D01*
X135777000Y-96307707D01*
X136380216Y-96911977D01*
X137390591Y-97331522D01*
X138484609Y-97332477D01*
X139075763Y-97088216D01*
X139302176Y-97182000D01*
X140097825Y-97182000D01*
X141397825Y-97182000D01*
X141750000Y-97036124D01*
X142102176Y-97182000D01*
X142897825Y-97182000D01*
X144050043Y-97182000D01*
X144412176Y-97332000D01*
X145207825Y-97332000D01*
X146707825Y-97332000D01*
X147442909Y-97027518D01*
X147723000Y-96747427D01*
X147723000Y-100880431D01*
G36*
X148664968Y-112973000D02*
X148310000Y-112973000D01*
X148310000Y-112600162D01*
X148345984Y-112654016D01*
X148664968Y-112973000D01*
X148664968Y-112973000D01*
G37*
X148664968Y-112973000D02*
X148310000Y-112973000D01*
X148310000Y-112600162D01*
X148345984Y-112654016D01*
X148664968Y-112973000D01*
G36*
X152864968Y-26027000D02*
X151388951Y-27503016D01*
X151267985Y-27381839D01*
X150349462Y-27000435D01*
X149354901Y-26999567D01*
X148652085Y-27289964D01*
X148559793Y-27197511D01*
X148560519Y-26365881D01*
X148104759Y-25262857D01*
X147470010Y-24627000D01*
X147818968Y-24627000D01*
X148595984Y-25404016D01*
X149286032Y-25865092D01*
X150100000Y-26027000D01*
X152864968Y-26027000D01*
X152864968Y-26027000D01*
G37*
X152864968Y-26027000D02*
X151388951Y-27503016D01*
X151267985Y-27381839D01*
X150349462Y-27000435D01*
X149354901Y-26999567D01*
X148652085Y-27289964D01*
X148559793Y-27197511D01*
X148560519Y-26365881D01*
X148104759Y-25262857D01*
X147470010Y-24627000D01*
X147818968Y-24627000D01*
X148595984Y-25404016D01*
X149286032Y-25865092D01*
X150100000Y-26027000D01*
X152864968Y-26027000D01*
G36*
X166723000Y-45380431D02*
X166265524Y-44922156D01*
X166140685Y-44138372D01*
X165518000Y-43124228D01*
X164554619Y-42425573D01*
X163397208Y-42148771D01*
X162221971Y-42335960D01*
X161207828Y-42958644D01*
X160749999Y-43589947D01*
X160292172Y-42958645D01*
X159278029Y-42335960D01*
X158102792Y-42148771D01*
X156945381Y-42425574D01*
X155982000Y-43124229D01*
X155359315Y-44138372D01*
X155234200Y-44923882D01*
X154777000Y-45380285D01*
X154777000Y-40807707D01*
X155380216Y-41411977D01*
X156390591Y-41831522D01*
X157484609Y-41832477D01*
X158075763Y-41588216D01*
X158302176Y-41682000D01*
X159097825Y-41682000D01*
X160397825Y-41682000D01*
X160750000Y-41536124D01*
X161102176Y-41682000D01*
X161897825Y-41682000D01*
X163050043Y-41682000D01*
X163412176Y-41832000D01*
X164207825Y-41832000D01*
X165707825Y-41832000D01*
X166442909Y-41527518D01*
X166723000Y-41247427D01*
X166723000Y-45380431D01*
X166723000Y-45380431D01*
G37*
X166723000Y-45380431D02*
X166265524Y-44922156D01*
X166140685Y-44138372D01*
X165518000Y-43124228D01*
X164554619Y-42425573D01*
X163397208Y-42148771D01*
X162221971Y-42335960D01*
X161207828Y-42958644D01*
X160749999Y-43589947D01*
X160292172Y-42958645D01*
X159278029Y-42335960D01*
X158102792Y-42148771D01*
X156945381Y-42425574D01*
X155982000Y-43124229D01*
X155359315Y-44138372D01*
X155234200Y-44923882D01*
X154777000Y-45380285D01*
X154777000Y-40807707D01*
X155380216Y-41411977D01*
X156390591Y-41831522D01*
X157484609Y-41832477D01*
X158075763Y-41588216D01*
X158302176Y-41682000D01*
X159097825Y-41682000D01*
X160397825Y-41682000D01*
X160750000Y-41536124D01*
X161102176Y-41682000D01*
X161897825Y-41682000D01*
X163050043Y-41682000D01*
X163412176Y-41832000D01*
X164207825Y-41832000D01*
X165707825Y-41832000D01*
X166442909Y-41527518D01*
X166723000Y-41247427D01*
X166723000Y-45380431D01*
G36*
X166723000Y-83380431D02*
X166265524Y-82922156D01*
X166140685Y-82138372D01*
X165518000Y-81124228D01*
X164554619Y-80425573D01*
X163397208Y-80148771D01*
X162221971Y-80335960D01*
X161207828Y-80958644D01*
X160749999Y-81589947D01*
X160292172Y-80958645D01*
X159278029Y-80335960D01*
X158102792Y-80148771D01*
X156945381Y-80425574D01*
X155982000Y-81124229D01*
X155359315Y-82138372D01*
X155234200Y-82923882D01*
X154777000Y-83380285D01*
X154777000Y-78807707D01*
X155380216Y-79411977D01*
X156390591Y-79831522D01*
X157484609Y-79832477D01*
X158075763Y-79588216D01*
X158302176Y-79682000D01*
X159097825Y-79682000D01*
X160397825Y-79682000D01*
X160750000Y-79536124D01*
X161102176Y-79682000D01*
X161897825Y-79682000D01*
X163050043Y-79682000D01*
X163412176Y-79832000D01*
X164207825Y-79832000D01*
X165707825Y-79832000D01*
X166442909Y-79527518D01*
X166723000Y-79247427D01*
X166723000Y-83380431D01*
X166723000Y-83380431D01*
G37*
X166723000Y-83380431D02*
X166265524Y-82922156D01*
X166140685Y-82138372D01*
X165518000Y-81124228D01*
X164554619Y-80425573D01*
X163397208Y-80148771D01*
X162221971Y-80335960D01*
X161207828Y-80958644D01*
X160749999Y-81589947D01*
X160292172Y-80958645D01*
X159278029Y-80335960D01*
X158102792Y-80148771D01*
X156945381Y-80425574D01*
X155982000Y-81124229D01*
X155359315Y-82138372D01*
X155234200Y-82923882D01*
X154777000Y-83380285D01*
X154777000Y-78807707D01*
X155380216Y-79411977D01*
X156390591Y-79831522D01*
X157484609Y-79832477D01*
X158075763Y-79588216D01*
X158302176Y-79682000D01*
X159097825Y-79682000D01*
X160397825Y-79682000D01*
X160750000Y-79536124D01*
X161102176Y-79682000D01*
X161897825Y-79682000D01*
X163050043Y-79682000D01*
X163412176Y-79832000D01*
X164207825Y-79832000D01*
X165707825Y-79832000D01*
X166442909Y-79527518D01*
X166723000Y-79247427D01*
X166723000Y-83380431D01*
G36*
X166723000Y-102380431D02*
X166265524Y-101922156D01*
X166140685Y-101138372D01*
X165518000Y-100124228D01*
X164554619Y-99425573D01*
X163397208Y-99148771D01*
X162221971Y-99335960D01*
X161207828Y-99958644D01*
X160749999Y-100589947D01*
X160292172Y-99958645D01*
X159278029Y-99335960D01*
X158102792Y-99148771D01*
X156945381Y-99425574D01*
X155982000Y-100124229D01*
X155359315Y-101138372D01*
X155234200Y-101923882D01*
X154777000Y-102380285D01*
X154777000Y-97807707D01*
X155380216Y-98411977D01*
X156390591Y-98831522D01*
X157484609Y-98832477D01*
X158075763Y-98588216D01*
X158302176Y-98682000D01*
X159097825Y-98682000D01*
X160397825Y-98682000D01*
X160750000Y-98536124D01*
X161102176Y-98682000D01*
X161897825Y-98682000D01*
X163050043Y-98682000D01*
X163412176Y-98832000D01*
X164207825Y-98832000D01*
X165707825Y-98832000D01*
X166442909Y-98527518D01*
X166723000Y-98247427D01*
X166723000Y-102380431D01*
X166723000Y-102380431D01*
G37*
X166723000Y-102380431D02*
X166265524Y-101922156D01*
X166140685Y-101138372D01*
X165518000Y-100124228D01*
X164554619Y-99425573D01*
X163397208Y-99148771D01*
X162221971Y-99335960D01*
X161207828Y-99958644D01*
X160749999Y-100589947D01*
X160292172Y-99958645D01*
X159278029Y-99335960D01*
X158102792Y-99148771D01*
X156945381Y-99425574D01*
X155982000Y-100124229D01*
X155359315Y-101138372D01*
X155234200Y-101923882D01*
X154777000Y-102380285D01*
X154777000Y-97807707D01*
X155380216Y-98411977D01*
X156390591Y-98831522D01*
X157484609Y-98832477D01*
X158075763Y-98588216D01*
X158302176Y-98682000D01*
X159097825Y-98682000D01*
X160397825Y-98682000D01*
X160750000Y-98536124D01*
X161102176Y-98682000D01*
X161897825Y-98682000D01*
X163050043Y-98682000D01*
X163412176Y-98832000D01*
X164207825Y-98832000D01*
X165707825Y-98832000D01*
X166442909Y-98527518D01*
X166723000Y-98247427D01*
X166723000Y-102380431D01*
G36*
X170264968Y-109127000D02*
X168573636Y-110818331D01*
X169866423Y-109285026D01*
X170248876Y-109127000D01*
X170264968Y-109127000D01*
X170264968Y-109127000D01*
G37*
X170264968Y-109127000D02*
X168573636Y-110818331D01*
X169866423Y-109285026D01*
X170248876Y-109127000D01*
X170264968Y-109127000D01*
G36*
X173529854Y-28127000D02*
X173398207Y-28258418D01*
X172940522Y-29360645D01*
X172939790Y-30198925D01*
X172848044Y-30290511D01*
X172149462Y-30000435D01*
X171154901Y-29999567D01*
X171143568Y-30004249D01*
X170970633Y-29585714D01*
X170267985Y-28881839D01*
X169349462Y-28500435D01*
X168354901Y-28499567D01*
X167652085Y-28789964D01*
X167559793Y-28697511D01*
X167560519Y-27865881D01*
X167416726Y-27517875D01*
X168086032Y-27965092D01*
X168900000Y-28127000D01*
X173529854Y-28127000D01*
X173529854Y-28127000D01*
G37*
X173529854Y-28127000D02*
X173398207Y-28258418D01*
X172940522Y-29360645D01*
X172939790Y-30198925D01*
X172848044Y-30290511D01*
X172149462Y-30000435D01*
X171154901Y-29999567D01*
X171143568Y-30004249D01*
X170970633Y-29585714D01*
X170267985Y-28881839D01*
X169349462Y-28500435D01*
X168354901Y-28499567D01*
X167652085Y-28789964D01*
X167559793Y-28697511D01*
X167560519Y-27865881D01*
X167416726Y-27517875D01*
X168086032Y-27965092D01*
X168900000Y-28127000D01*
X173529854Y-28127000D01*
G36*
X175667633Y-44127000D02*
X174982000Y-44624229D01*
X174359315Y-45638372D01*
X174234200Y-46423882D01*
X173777000Y-46880285D01*
X173777000Y-44127000D01*
X175667633Y-44127000D01*
X175667633Y-44127000D01*
G37*
X175667633Y-44127000D02*
X174982000Y-44624229D01*
X174359315Y-45638372D01*
X174234200Y-46423882D01*
X173777000Y-46880285D01*
X173777000Y-44127000D01*
X175667633Y-44127000D01*
G36*
X180747964Y-44127000D02*
X180207828Y-44458644D01*
X179749999Y-45089947D01*
X179292172Y-44458645D01*
X178752034Y-44127000D01*
X180747964Y-44127000D01*
X180747964Y-44127000D01*
G37*
X180747964Y-44127000D02*
X180207828Y-44458644D01*
X179749999Y-45089947D01*
X179292172Y-44458645D01*
X178752034Y-44127000D01*
X180747964Y-44127000D01*
G36*
X184940520Y-119790994D02*
X184174883Y-119939125D01*
X183181943Y-120595092D01*
X182515614Y-121581107D01*
X182440821Y-121947090D01*
X177779638Y-117285907D01*
X184609324Y-117285907D01*
X184426104Y-117926984D01*
X184561854Y-119109268D01*
X184940520Y-119790994D01*
X184940520Y-119790994D01*
G37*
X184940520Y-119790994D02*
X184174883Y-119939125D01*
X183181943Y-120595092D01*
X182515614Y-121581107D01*
X182440821Y-121947090D01*
X177779638Y-117285907D01*
X184609324Y-117285907D01*
X184426104Y-117926984D01*
X184561854Y-119109268D01*
X184940520Y-119790994D01*
G36*
X185723000Y-46880431D02*
X185265524Y-46422156D01*
X185140685Y-45638372D01*
X184518000Y-44624228D01*
X183832368Y-44127000D01*
X185648024Y-44127000D01*
X185723000Y-44158132D01*
X185723000Y-46880431D01*
X185723000Y-46880431D01*
G37*
X185723000Y-46880431D02*
X185265524Y-46422156D01*
X185140685Y-45638372D01*
X184518000Y-44624228D01*
X183832368Y-44127000D01*
X185648024Y-44127000D01*
X185723000Y-44158132D01*
X185723000Y-46880431D01*
G36*
X185723000Y-84880431D02*
X185265524Y-84422156D01*
X185140685Y-83638372D01*
X184518000Y-82624228D01*
X183554619Y-81925573D01*
X182397208Y-81648771D01*
X181221971Y-81835960D01*
X180207828Y-82458644D01*
X179749999Y-83089947D01*
X179292172Y-82458645D01*
X178278029Y-81835960D01*
X177102792Y-81648771D01*
X175945381Y-81925574D01*
X174982000Y-82624229D01*
X174359315Y-83638372D01*
X174234200Y-84423882D01*
X173777000Y-84880285D01*
X173777000Y-80307707D01*
X174380216Y-80911977D01*
X175390591Y-81331522D01*
X176484609Y-81332477D01*
X177075763Y-81088216D01*
X177302176Y-81182000D01*
X178097825Y-81182000D01*
X179397825Y-81182000D01*
X179750000Y-81036124D01*
X180102176Y-81182000D01*
X180897825Y-81182000D01*
X182050043Y-81182000D01*
X182412176Y-81332000D01*
X183207825Y-81332000D01*
X184707825Y-81332000D01*
X185442909Y-81027518D01*
X185723000Y-80747427D01*
X185723000Y-84880431D01*
X185723000Y-84880431D01*
G37*
X185723000Y-84880431D02*
X185265524Y-84422156D01*
X185140685Y-83638372D01*
X184518000Y-82624228D01*
X183554619Y-81925573D01*
X182397208Y-81648771D01*
X181221971Y-81835960D01*
X180207828Y-82458644D01*
X179749999Y-83089947D01*
X179292172Y-82458645D01*
X178278029Y-81835960D01*
X177102792Y-81648771D01*
X175945381Y-81925574D01*
X174982000Y-82624229D01*
X174359315Y-83638372D01*
X174234200Y-84423882D01*
X173777000Y-84880285D01*
X173777000Y-80307707D01*
X174380216Y-80911977D01*
X175390591Y-81331522D01*
X176484609Y-81332477D01*
X177075763Y-81088216D01*
X177302176Y-81182000D01*
X178097825Y-81182000D01*
X179397825Y-81182000D01*
X179750000Y-81036124D01*
X180102176Y-81182000D01*
X180897825Y-81182000D01*
X182050043Y-81182000D01*
X182412176Y-81332000D01*
X183207825Y-81332000D01*
X184707825Y-81332000D01*
X185442909Y-81027518D01*
X185723000Y-80747427D01*
X185723000Y-84880431D01*
G36*
X190073000Y-58573000D02*
X189977000Y-58573000D01*
X189977000Y-52896698D01*
X190073000Y-52665504D01*
X190073000Y-58573000D01*
X190073000Y-58573000D01*
G37*
X190073000Y-58573000D02*
X189977000Y-58573000D01*
X189977000Y-52896698D01*
X190073000Y-52665504D01*
X190073000Y-58573000D01*
G36*
X190771461Y-49595506D02*
X190695984Y-49670984D01*
X190234908Y-50361032D01*
X190185995Y-50606931D01*
X189977000Y-50101123D01*
X189977000Y-49265617D01*
X190771461Y-49595506D01*
X190771461Y-49595506D01*
G37*
X190771461Y-49595506D02*
X190695984Y-49670984D01*
X190234908Y-50361032D01*
X190185995Y-50606931D01*
X189977000Y-50101123D01*
X189977000Y-49265617D01*
X190771461Y-49595506D01*
G36*
X192529854Y-28127000D02*
X192398207Y-28258418D01*
X191940522Y-29360645D01*
X191939790Y-30198925D01*
X191848044Y-30290511D01*
X191149462Y-30000435D01*
X190154901Y-29999567D01*
X189248905Y-30373916D01*
X188349462Y-30000435D01*
X187354901Y-29999567D01*
X186652085Y-30289964D01*
X186559793Y-30197511D01*
X186560519Y-29365881D01*
X186104759Y-28262857D01*
X185969138Y-28127000D01*
X192529854Y-28127000D01*
X192529854Y-28127000D01*
G37*
X192529854Y-28127000D02*
X192398207Y-28258418D01*
X191940522Y-29360645D01*
X191939790Y-30198925D01*
X191848044Y-30290511D01*
X191149462Y-30000435D01*
X190154901Y-29999567D01*
X189248905Y-30373916D01*
X188349462Y-30000435D01*
X187354901Y-29999567D01*
X186652085Y-30289964D01*
X186559793Y-30197511D01*
X186560519Y-29365881D01*
X186104759Y-28262857D01*
X185969138Y-28127000D01*
X192529854Y-28127000D01*
G36*
X199948206Y-98373000D02*
X189981032Y-98373000D01*
X189977000Y-98368968D01*
X189977000Y-90896698D01*
X190349565Y-89999462D01*
X190350433Y-89004901D01*
X190330902Y-88957633D01*
X190695984Y-89504016D01*
X192995984Y-91804016D01*
X193686032Y-92265092D01*
X194500000Y-92427000D01*
X196118968Y-92427000D01*
X196250253Y-92558285D01*
X196249567Y-93345099D01*
X196623000Y-94248876D01*
X196623000Y-94350000D01*
X196784908Y-95163968D01*
X197245984Y-95854016D01*
X199395984Y-98004016D01*
X199948206Y-98373000D01*
X199948206Y-98373000D01*
G37*
X199948206Y-98373000D02*
X189981032Y-98373000D01*
X189977000Y-98368968D01*
X189977000Y-90896698D01*
X190349565Y-89999462D01*
X190350433Y-89004901D01*
X190330902Y-88957633D01*
X190695984Y-89504016D01*
X192995984Y-91804016D01*
X193686032Y-92265092D01*
X194500000Y-92427000D01*
X196118968Y-92427000D01*
X196250253Y-92558285D01*
X196249567Y-93345099D01*
X196623000Y-94248876D01*
X196623000Y-94350000D01*
X196784908Y-95163968D01*
X197245984Y-95854016D01*
X199395984Y-98004016D01*
X199948206Y-98373000D01*
G36*
X205241162Y-71727000D02*
X204778862Y-72188494D01*
X204473868Y-72923000D01*
X198350000Y-72923000D01*
X198250353Y-72942820D01*
X198186506Y-72878862D01*
X197288374Y-72505925D01*
X196315892Y-72505076D01*
X195417111Y-72876445D01*
X194728862Y-73563494D01*
X194526751Y-74050229D01*
X194461827Y-74102550D01*
X194383207Y-74196623D01*
X194281760Y-74265461D01*
X194119247Y-74512473D01*
X193929634Y-74739361D01*
X193893000Y-74856359D01*
X193825617Y-74958780D01*
X193770001Y-75249189D01*
X193681651Y-75531360D01*
X193692578Y-75653469D01*
X193669519Y-75773882D01*
X193677866Y-76944187D01*
X190703639Y-79888368D01*
X190700559Y-79892926D01*
X190695984Y-79895984D01*
X190468338Y-80236678D01*
X190239066Y-80576067D01*
X190237965Y-80581455D01*
X190234908Y-80586032D01*
X190154964Y-80987933D01*
X190073028Y-81389202D01*
X190074073Y-81394602D01*
X190073000Y-81400000D01*
X190073000Y-88000000D01*
X190200902Y-88643008D01*
X189977000Y-88101123D01*
X189977000Y-71896698D01*
X190349565Y-70999462D01*
X190350433Y-70004901D01*
X190190409Y-69617614D01*
X190244075Y-69488374D01*
X190244924Y-68515892D01*
X189873555Y-67617111D01*
X189658819Y-67402000D01*
X191518968Y-67402000D01*
X192576943Y-68459975D01*
X192430925Y-68811626D01*
X192430076Y-69784108D01*
X192801445Y-70682889D01*
X193488494Y-71371138D01*
X194386626Y-71744075D01*
X195359108Y-71744924D01*
X195402487Y-71727000D01*
X205241162Y-71727000D01*
X205241162Y-71727000D01*
G37*
X205241162Y-71727000D02*
X204778862Y-72188494D01*
X204473868Y-72923000D01*
X198350000Y-72923000D01*
X198250353Y-72942820D01*
X198186506Y-72878862D01*
X197288374Y-72505925D01*
X196315892Y-72505076D01*
X195417111Y-72876445D01*
X194728862Y-73563494D01*
X194526751Y-74050229D01*
X194461827Y-74102550D01*
X194383207Y-74196623D01*
X194281760Y-74265461D01*
X194119247Y-74512473D01*
X193929634Y-74739361D01*
X193893000Y-74856359D01*
X193825617Y-74958780D01*
X193770001Y-75249189D01*
X193681651Y-75531360D01*
X193692578Y-75653469D01*
X193669519Y-75773882D01*
X193677866Y-76944187D01*
X190703639Y-79888368D01*
X190700559Y-79892926D01*
X190695984Y-79895984D01*
X190468338Y-80236678D01*
X190239066Y-80576067D01*
X190237965Y-80581455D01*
X190234908Y-80586032D01*
X190154964Y-80987933D01*
X190073028Y-81389202D01*
X190074073Y-81394602D01*
X190073000Y-81400000D01*
X190073000Y-88000000D01*
X190200902Y-88643008D01*
X189977000Y-88101123D01*
X189977000Y-71896698D01*
X190349565Y-70999462D01*
X190350433Y-70004901D01*
X190190409Y-69617614D01*
X190244075Y-69488374D01*
X190244924Y-68515892D01*
X189873555Y-67617111D01*
X189658819Y-67402000D01*
X191518968Y-67402000D01*
X192576943Y-68459975D01*
X192430925Y-68811626D01*
X192430076Y-69784108D01*
X192801445Y-70682889D01*
X193488494Y-71371138D01*
X194386626Y-71744075D01*
X195359108Y-71744924D01*
X195402487Y-71727000D01*
X205241162Y-71727000D01*
G36*
X205719151Y-30262253D02*
X205652085Y-30289964D01*
X205559793Y-30197511D01*
X205560059Y-29892695D01*
X205719151Y-30262253D01*
X205719151Y-30262253D01*
G37*
X205719151Y-30262253D02*
X205652085Y-30289964D01*
X205559793Y-30197511D01*
X205560059Y-29892695D01*
X205719151Y-30262253D01*
G36*
X206373000Y-94373000D02*
X201781032Y-94373000D01*
X201105189Y-93697157D01*
X201119651Y-93662328D01*
X203440990Y-91340990D01*
X203461910Y-91309680D01*
X204374609Y-91310477D01*
X205332107Y-90914846D01*
X206282591Y-91309522D01*
X206373000Y-91309600D01*
X206373000Y-94373000D01*
X206373000Y-94373000D01*
G37*
X206373000Y-94373000D02*
X201781032Y-94373000D01*
X201105189Y-93697157D01*
X201119651Y-93662328D01*
X203440990Y-91340990D01*
X203461910Y-91309680D01*
X204374609Y-91310477D01*
X205332107Y-90914846D01*
X206282591Y-91309522D01*
X206373000Y-91309600D01*
X206373000Y-94373000D01*
G36*
X209856512Y-39873000D02*
X205310000Y-39873000D01*
X205310000Y-39434175D01*
X205163709Y-39080999D01*
X205310000Y-38727824D01*
X205310000Y-37932175D01*
X205310000Y-37817063D01*
X207733859Y-34942252D01*
X209856512Y-39873000D01*
X209856512Y-39873000D01*
G37*
X209856512Y-39873000D02*
X205310000Y-39873000D01*
X205310000Y-39434175D01*
X205163709Y-39080999D01*
X205310000Y-38727824D01*
X205310000Y-37932175D01*
X205310000Y-37817063D01*
X207733859Y-34942252D01*
X209856512Y-39873000D01*
G36*
X211754968Y-50313000D02*
X209033427Y-50313000D01*
X208714909Y-49994482D01*
X207979824Y-49690000D01*
X207184175Y-49690000D01*
X205684175Y-49690000D01*
X205330999Y-49836290D01*
X204977824Y-49690000D01*
X204182175Y-49690000D01*
X204067063Y-49690000D01*
X201653227Y-47654804D01*
X203118734Y-46189297D01*
X203882889Y-45873555D01*
X204571138Y-45186506D01*
X204803465Y-44627000D01*
X210123000Y-44627000D01*
X210123000Y-47800000D01*
X210284908Y-48613968D01*
X210745984Y-49304016D01*
X211754968Y-50313000D01*
X211754968Y-50313000D01*
G37*
X211754968Y-50313000D02*
X209033427Y-50313000D01*
X208714909Y-49994482D01*
X207979824Y-49690000D01*
X207184175Y-49690000D01*
X205684175Y-49690000D01*
X205330999Y-49836290D01*
X204977824Y-49690000D01*
X204182175Y-49690000D01*
X204067063Y-49690000D01*
X201653227Y-47654804D01*
X203118734Y-46189297D01*
X203882889Y-45873555D01*
X204571138Y-45186506D01*
X204803465Y-44627000D01*
X210123000Y-44627000D01*
X210123000Y-47800000D01*
X210284908Y-48613968D01*
X210745984Y-49304016D01*
X211754968Y-50313000D01*
G36*
X212066102Y-106178505D02*
X211665013Y-107144434D01*
X211664221Y-108051264D01*
X211660736Y-108052704D01*
X209104016Y-105495984D01*
X208413968Y-105034908D01*
X207600000Y-104873000D01*
X170977000Y-104873000D01*
X170977000Y-97985032D01*
X175772751Y-102780783D01*
X176462799Y-103241859D01*
X177276767Y-103403767D01*
X211053139Y-103403767D01*
X212058503Y-106165983D01*
X212066102Y-106178505D01*
X212066102Y-106178505D01*
G37*
X212066102Y-106178505D02*
X211665013Y-107144434D01*
X211664221Y-108051264D01*
X211660736Y-108052704D01*
X209104016Y-105495984D01*
X208413968Y-105034908D01*
X207600000Y-104873000D01*
X170977000Y-104873000D01*
X170977000Y-97985032D01*
X175772751Y-102780783D01*
X176462799Y-103241859D01*
X177276767Y-103403767D01*
X211053139Y-103403767D01*
X212058503Y-106165983D01*
X212066102Y-106178505D01*
G36*
X213226456Y-148647948D02*
X212825367Y-149613877D01*
X212824575Y-150520707D01*
X212750474Y-150551326D01*
X212392868Y-150908307D01*
X196247670Y-143379678D01*
X197036572Y-143053711D01*
X198050152Y-142041899D01*
X198599374Y-140719226D01*
X198600623Y-139287057D01*
X198053711Y-137963428D01*
X197041899Y-136949848D01*
X195719226Y-136400626D01*
X194287057Y-136399377D01*
X192963428Y-136946289D01*
X191949848Y-137958101D01*
X191400626Y-139280774D01*
X191399377Y-140712943D01*
X191607137Y-141215762D01*
X175124613Y-133529835D01*
X174805834Y-133451830D01*
X174498551Y-133336581D01*
X109010990Y-122602000D01*
X155535714Y-122602000D01*
X155535714Y-129350000D01*
X174464286Y-129350000D01*
X174464286Y-124547318D01*
X184520984Y-134604016D01*
X185211032Y-135065092D01*
X186025000Y-135227000D01*
X195968967Y-135227000D01*
X205992194Y-145250226D01*
X206682242Y-145711302D01*
X206682243Y-145711302D01*
X207496210Y-145873210D01*
X212213493Y-145873210D01*
X213218857Y-148635426D01*
X213226456Y-148647948D01*
X213226456Y-148647948D01*
G37*
X213226456Y-148647948D02*
X212825367Y-149613877D01*
X212824575Y-150520707D01*
X212750474Y-150551326D01*
X212392868Y-150908307D01*
X196247670Y-143379678D01*
X197036572Y-143053711D01*
X198050152Y-142041899D01*
X198599374Y-140719226D01*
X198600623Y-139287057D01*
X198053711Y-137963428D01*
X197041899Y-136949848D01*
X195719226Y-136400626D01*
X194287057Y-136399377D01*
X192963428Y-136946289D01*
X191949848Y-137958101D01*
X191400626Y-139280774D01*
X191399377Y-140712943D01*
X191607137Y-141215762D01*
X175124613Y-133529835D01*
X174805834Y-133451830D01*
X174498551Y-133336581D01*
X109010990Y-122602000D01*
X155535714Y-122602000D01*
X155535714Y-129350000D01*
X174464286Y-129350000D01*
X174464286Y-124547318D01*
X184520984Y-134604016D01*
X185211032Y-135065092D01*
X186025000Y-135227000D01*
X195968967Y-135227000D01*
X205992194Y-145250226D01*
X206682242Y-145711302D01*
X206682243Y-145711302D01*
X207496210Y-145873210D01*
X212213493Y-145873210D01*
X213218857Y-148635426D01*
X213226456Y-148647948D01*
G36*
X213335622Y-54924733D02*
X211948267Y-54924733D01*
X211134299Y-55086641D01*
X210444251Y-55547717D01*
X209419637Y-56572330D01*
X209286124Y-56249999D01*
X209432000Y-55897824D01*
X209432000Y-55102175D01*
X209432000Y-54567000D01*
X213232434Y-54567000D01*
X213296532Y-54631098D01*
X213310230Y-54872096D01*
X213335622Y-54924733D01*
X213335622Y-54924733D01*
G37*
X213335622Y-54924733D02*
X211948267Y-54924733D01*
X211134299Y-55086641D01*
X210444251Y-55547717D01*
X209419637Y-56572330D01*
X209286124Y-56249999D01*
X209432000Y-55897824D01*
X209432000Y-55102175D01*
X209432000Y-54567000D01*
X213232434Y-54567000D01*
X213296532Y-54631098D01*
X213310230Y-54872096D01*
X213335622Y-54924733D01*
G36*
X216005816Y-142152000D02*
X215996153Y-142175269D01*
X215855851Y-142233241D01*
X215774751Y-142152000D01*
X216005816Y-142152000D01*
X216005816Y-142152000D01*
G37*
X216005816Y-142152000D02*
X215996153Y-142175269D01*
X215855851Y-142233241D01*
X215774751Y-142152000D01*
X216005816Y-142152000D01*
G36*
X218116137Y-137898000D02*
X216434017Y-137898000D01*
X216434426Y-137429507D01*
X216616533Y-137262638D01*
X216952788Y-136541535D01*
X217502192Y-135363335D01*
X217518819Y-134982505D01*
X217799864Y-134724976D01*
X217823000Y-134675360D01*
X217823000Y-135023024D01*
X217505925Y-135786626D01*
X217505076Y-136759108D01*
X217876445Y-137657889D01*
X218116137Y-137898000D01*
X218116137Y-137898000D01*
G37*
X218116137Y-137898000D02*
X216434017Y-137898000D01*
X216434426Y-137429507D01*
X216616533Y-137262638D01*
X216952788Y-136541535D01*
X217502192Y-135363335D01*
X217518819Y-134982505D01*
X217799864Y-134724976D01*
X217823000Y-134675360D01*
X217823000Y-135023024D01*
X217505925Y-135786626D01*
X217505076Y-136759108D01*
X217876445Y-137657889D01*
X218116137Y-137898000D01*
G36*
X219736476Y-125129663D02*
X219384748Y-125976716D01*
X213604016Y-120195984D01*
X213263951Y-119968760D01*
X212925313Y-119739646D01*
X212919177Y-119738388D01*
X212913968Y-119734908D01*
X212512825Y-119655115D01*
X212112294Y-119573036D01*
X207787295Y-119548036D01*
X207601457Y-119583885D01*
X207412247Y-119579161D01*
X207197922Y-119661731D01*
X206972404Y-119705236D01*
X206814430Y-119809475D01*
X206637817Y-119877517D01*
X205210681Y-120780398D01*
X204840892Y-120780076D01*
X203942111Y-121151445D01*
X203253862Y-121838494D01*
X203048786Y-122332371D01*
X203036032Y-122334908D01*
X202662338Y-122584602D01*
X202662393Y-122584485D01*
X202697099Y-121789593D01*
X202689222Y-121767953D01*
X203044075Y-120913374D01*
X203044924Y-119940892D01*
X202673555Y-119042111D01*
X201986506Y-118353862D01*
X201217627Y-118034595D01*
X200006900Y-116823868D01*
X199673555Y-116017111D01*
X198986506Y-115328862D01*
X198088374Y-114955925D01*
X197115892Y-114955076D01*
X196673227Y-115137981D01*
X196673641Y-114663808D01*
X196293841Y-113744621D01*
X195591193Y-113040746D01*
X194672670Y-112659342D01*
X193678109Y-112658474D01*
X192774331Y-113031907D01*
X172376125Y-113031907D01*
X175581032Y-109827000D01*
X206418968Y-109827000D01*
X219736476Y-123144508D01*
X219736476Y-125129663D01*
X219736476Y-125129663D01*
G37*
X219736476Y-125129663D02*
X219384748Y-125976716D01*
X213604016Y-120195984D01*
X213263951Y-119968760D01*
X212925313Y-119739646D01*
X212919177Y-119738388D01*
X212913968Y-119734908D01*
X212512825Y-119655115D01*
X212112294Y-119573036D01*
X207787295Y-119548036D01*
X207601457Y-119583885D01*
X207412247Y-119579161D01*
X207197922Y-119661731D01*
X206972404Y-119705236D01*
X206814430Y-119809475D01*
X206637817Y-119877517D01*
X205210681Y-120780398D01*
X204840892Y-120780076D01*
X203942111Y-121151445D01*
X203253862Y-121838494D01*
X203048786Y-122332371D01*
X203036032Y-122334908D01*
X202662338Y-122584602D01*
X202662393Y-122584485D01*
X202697099Y-121789593D01*
X202689222Y-121767953D01*
X203044075Y-120913374D01*
X203044924Y-119940892D01*
X202673555Y-119042111D01*
X201986506Y-118353862D01*
X201217627Y-118034595D01*
X200006900Y-116823868D01*
X199673555Y-116017111D01*
X198986506Y-115328862D01*
X198088374Y-114955925D01*
X197115892Y-114955076D01*
X196673227Y-115137981D01*
X196673641Y-114663808D01*
X196293841Y-113744621D01*
X195591193Y-113040746D01*
X194672670Y-112659342D01*
X193678109Y-112658474D01*
X192774331Y-113031907D01*
X172376125Y-113031907D01*
X175581032Y-109827000D01*
X206418968Y-109827000D01*
X219736476Y-123144508D01*
X219736476Y-125129663D01*
G36*
X220343858Y-77801890D02*
X212796110Y-77801890D01*
X211982142Y-77963798D01*
X211292094Y-78424874D01*
X210492607Y-79224360D01*
X210465092Y-79086032D01*
X210004016Y-78395984D01*
X208785032Y-77177000D01*
X219718968Y-77177000D01*
X220343858Y-77801890D01*
X220343858Y-77801890D01*
G37*
X220343858Y-77801890D02*
X212796110Y-77801890D01*
X211982142Y-77963798D01*
X211292094Y-78424874D01*
X210492607Y-79224360D01*
X210465092Y-79086032D01*
X210004016Y-78395984D01*
X208785032Y-77177000D01*
X219718968Y-77177000D01*
X220343858Y-77801890D01*
G36*
X224203797Y-124527000D02*
X224025900Y-124955421D01*
X223990476Y-124970058D01*
X223990476Y-124527000D01*
X224203797Y-124527000D01*
X224203797Y-124527000D01*
G37*
X224203797Y-124527000D02*
X224025900Y-124955421D01*
X223990476Y-124970058D01*
X223990476Y-124527000D01*
X224203797Y-124527000D01*
G36*
X225633191Y-154408444D02*
X224609017Y-156604792D01*
X224119611Y-156376578D01*
X224189692Y-156226290D01*
X224206366Y-155844380D01*
X224488209Y-155586119D01*
X224824465Y-154865016D01*
X224873113Y-154760688D01*
X225633191Y-154408444D01*
X225633191Y-154408444D01*
G37*
X225633191Y-154408444D02*
X224609017Y-156604792D01*
X224119611Y-156376578D01*
X224189692Y-156226290D01*
X224206366Y-155844380D01*
X224488209Y-155586119D01*
X224824465Y-154865016D01*
X224873113Y-154760688D01*
X225633191Y-154408444D01*
G36*
X228305470Y-120273000D02*
X227383706Y-120273000D01*
X227921138Y-119736506D01*
X227922620Y-119732934D01*
X228032987Y-120000041D01*
X228305470Y-120273000D01*
X228305470Y-120273000D01*
G37*
X228305470Y-120273000D02*
X227383706Y-120273000D01*
X227921138Y-119736506D01*
X227922620Y-119732934D01*
X228032987Y-120000041D01*
X228305470Y-120273000D01*
G36*
X228892298Y-113135057D02*
X228661506Y-112903862D01*
X227763374Y-112530925D01*
X226790892Y-112530076D01*
X225892111Y-112901445D01*
X225203862Y-113588494D01*
X224830925Y-114486626D01*
X224830076Y-115459108D01*
X225065612Y-116029149D01*
X224467111Y-116276445D01*
X223778862Y-116963494D01*
X223405925Y-117861626D01*
X223405076Y-118834108D01*
X223776445Y-119732889D01*
X224315614Y-120273000D01*
X223881032Y-120273000D01*
X220233658Y-116625626D01*
X220724875Y-116647074D01*
X221472540Y-116374946D01*
X222059155Y-115837412D01*
X222395411Y-115116309D01*
X223029338Y-113756847D01*
X223046012Y-113374937D01*
X223327855Y-113116676D01*
X223664111Y-112395573D01*
X223712759Y-112291245D01*
X227312210Y-110623146D01*
X227732391Y-110623512D01*
X227772590Y-110720800D01*
X228151868Y-111100740D01*
X228892298Y-113135057D01*
X228892298Y-113135057D01*
G37*
X228892298Y-113135057D02*
X228661506Y-112903862D01*
X227763374Y-112530925D01*
X226790892Y-112530076D01*
X225892111Y-112901445D01*
X225203862Y-113588494D01*
X224830925Y-114486626D01*
X224830076Y-115459108D01*
X225065612Y-116029149D01*
X224467111Y-116276445D01*
X223778862Y-116963494D01*
X223405925Y-117861626D01*
X223405076Y-118834108D01*
X223776445Y-119732889D01*
X224315614Y-120273000D01*
X223881032Y-120273000D01*
X220233658Y-116625626D01*
X220724875Y-116647074D01*
X221472540Y-116374946D01*
X222059155Y-115837412D01*
X222395411Y-115116309D01*
X223029338Y-113756847D01*
X223046012Y-113374937D01*
X223327855Y-113116676D01*
X223664111Y-112395573D01*
X223712759Y-112291245D01*
X227312210Y-110623146D01*
X227732391Y-110623512D01*
X227772590Y-110720800D01*
X228151868Y-111100740D01*
X228892298Y-113135057D01*
G36*
X231573000Y-84593968D02*
X231318968Y-84848000D01*
X230942884Y-84848000D01*
X230949376Y-84846321D01*
X231573000Y-84376343D01*
X231573000Y-84593968D01*
X231573000Y-84593968D01*
G37*
X231573000Y-84593968D02*
X231318968Y-84848000D01*
X230942884Y-84848000D01*
X230949376Y-84846321D01*
X231573000Y-84376343D01*
X231573000Y-84593968D01*
G36*
X232302054Y-107142161D02*
X232055647Y-107735573D01*
X232020223Y-107750210D01*
X232020223Y-106953847D01*
X232302054Y-107142161D01*
X232302054Y-107142161D01*
G37*
X232302054Y-107142161D02*
X232055647Y-107735573D01*
X232020223Y-107750210D01*
X232020223Y-106953847D01*
X232302054Y-107142161D01*
G36*
X233662938Y-137188596D02*
X230548677Y-143867150D01*
X230481008Y-143526948D01*
X230481007Y-143526947D01*
X230019931Y-142836899D01*
X228979386Y-141796354D01*
X229120084Y-141861963D01*
X229914976Y-141896669D01*
X230662641Y-141624541D01*
X231249256Y-141087007D01*
X231585512Y-140365904D01*
X232219439Y-139006442D01*
X232236113Y-138624532D01*
X232517956Y-138366271D01*
X232854212Y-137645168D01*
X232902860Y-137540840D01*
X233662938Y-137188596D01*
X233662938Y-137188596D01*
G37*
X233662938Y-137188596D02*
X230548677Y-143867150D01*
X230481008Y-143526948D01*
X230481007Y-143526947D01*
X230019931Y-142836899D01*
X228979386Y-141796354D01*
X229120084Y-141861963D01*
X229914976Y-141896669D01*
X230662641Y-141624541D01*
X231249256Y-141087007D01*
X231585512Y-140365904D01*
X232219439Y-139006442D01*
X232236113Y-138624532D01*
X232517956Y-138366271D01*
X232854212Y-137645168D01*
X232902860Y-137540840D01*
X233662938Y-137188596D01*
G36*
X241692686Y-119968748D02*
X238644712Y-126505149D01*
X238510754Y-125831695D01*
X238510754Y-125831694D01*
X238049678Y-125141646D01*
X237568423Y-124660391D01*
X237944723Y-124676821D01*
X238692388Y-124404693D01*
X239279003Y-123867159D01*
X239615259Y-123146056D01*
X240249186Y-121786594D01*
X240265860Y-121404684D01*
X240547703Y-121146423D01*
X240883959Y-120425320D01*
X240932607Y-120320992D01*
X241692686Y-119968748D01*
X241692686Y-119968748D01*
G37*
X241692686Y-119968748D02*
X238644712Y-126505149D01*
X238510754Y-125831695D01*
X238510754Y-125831694D01*
X238049678Y-125141646D01*
X237568423Y-124660391D01*
X237944723Y-124676821D01*
X238692388Y-124404693D01*
X239279003Y-123867159D01*
X239615259Y-123146056D01*
X240249186Y-121786594D01*
X240265860Y-121404684D01*
X240547703Y-121146423D01*
X240883959Y-120425320D01*
X240932607Y-120320992D01*
X241692686Y-119968748D01*
G36*
X247199677Y-108158966D02*
X246667544Y-109300131D01*
X246540501Y-108661441D01*
X246079425Y-107971393D01*
X241904016Y-103795984D01*
X241213968Y-103334908D01*
X240400000Y-103173000D01*
X234181032Y-103173000D01*
X225304016Y-94295984D01*
X224613968Y-93834908D01*
X223800000Y-93673000D01*
X218600623Y-93673000D01*
X218600623Y-87287057D01*
X218053711Y-85963428D01*
X217041899Y-84949848D01*
X215719226Y-84400626D01*
X214287057Y-84399377D01*
X212963428Y-84946289D01*
X211949848Y-85958101D01*
X211400626Y-87280774D01*
X211399377Y-88712943D01*
X211946289Y-90036572D01*
X212958101Y-91050152D01*
X214280774Y-91599374D01*
X215712943Y-91600623D01*
X217036572Y-91053711D01*
X218050152Y-90041899D01*
X218599374Y-88719226D01*
X218600623Y-87287057D01*
X218600623Y-93673000D01*
X210627000Y-93673000D01*
X210627000Y-85198903D01*
X211232889Y-84948555D01*
X211921138Y-84261506D01*
X212240404Y-83492627D01*
X213677142Y-82055890D01*
X226649616Y-82055890D01*
X226694850Y-82115911D01*
X226817200Y-82187973D01*
X226797450Y-82328547D01*
X227077252Y-83410266D01*
X227126002Y-83511324D01*
X227798461Y-84403627D01*
X228552930Y-84848000D01*
X224375000Y-84848000D01*
X223561032Y-85009908D01*
X222870984Y-85470984D01*
X222795984Y-85545984D01*
X222334908Y-86236032D01*
X222173000Y-87050000D01*
X222173000Y-89323024D01*
X221855925Y-90086626D01*
X221855076Y-91059108D01*
X222226445Y-91957889D01*
X222913494Y-92646138D01*
X223811626Y-93019075D01*
X224784108Y-93019924D01*
X225052372Y-92909079D01*
X225351445Y-93632889D01*
X226038494Y-94321138D01*
X226936626Y-94694075D01*
X227909108Y-94694924D01*
X228497028Y-94452000D01*
X233725000Y-94452000D01*
X234538968Y-94290092D01*
X235229016Y-93829016D01*
X238565367Y-90492664D01*
X247199677Y-108158966D01*
X247199677Y-108158966D01*
G37*
X247199677Y-108158966D02*
X246667544Y-109300131D01*
X246540501Y-108661441D01*
X246079425Y-107971393D01*
X241904016Y-103795984D01*
X241213968Y-103334908D01*
X240400000Y-103173000D01*
X234181032Y-103173000D01*
X225304016Y-94295984D01*
X224613968Y-93834908D01*
X223800000Y-93673000D01*
X218600623Y-93673000D01*
X218600623Y-87287057D01*
X218053711Y-85963428D01*
X217041899Y-84949848D01*
X215719226Y-84400626D01*
X214287057Y-84399377D01*
X212963428Y-84946289D01*
X211949848Y-85958101D01*
X211400626Y-87280774D01*
X211399377Y-88712943D01*
X211946289Y-90036572D01*
X212958101Y-91050152D01*
X214280774Y-91599374D01*
X215712943Y-91600623D01*
X217036572Y-91053711D01*
X218050152Y-90041899D01*
X218599374Y-88719226D01*
X218600623Y-87287057D01*
X218600623Y-93673000D01*
X210627000Y-93673000D01*
X210627000Y-85198903D01*
X211232889Y-84948555D01*
X211921138Y-84261506D01*
X212240404Y-83492627D01*
X213677142Y-82055890D01*
X226649616Y-82055890D01*
X226694850Y-82115911D01*
X226817200Y-82187973D01*
X226797450Y-82328547D01*
X227077252Y-83410266D01*
X227126002Y-83511324D01*
X227798461Y-84403627D01*
X228552930Y-84848000D01*
X224375000Y-84848000D01*
X223561032Y-85009908D01*
X222870984Y-85470984D01*
X222795984Y-85545984D01*
X222334908Y-86236032D01*
X222173000Y-87050000D01*
X222173000Y-89323024D01*
X221855925Y-90086626D01*
X221855076Y-91059108D01*
X222226445Y-91957889D01*
X222913494Y-92646138D01*
X223811626Y-93019075D01*
X224784108Y-93019924D01*
X225052372Y-92909079D01*
X225351445Y-93632889D01*
X226038494Y-94321138D01*
X226936626Y-94694075D01*
X227909108Y-94694924D01*
X228497028Y-94452000D01*
X233725000Y-94452000D01*
X234538968Y-94290092D01*
X235229016Y-93829016D01*
X238565367Y-90492664D01*
X247199677Y-108158966D01*
M02*
