M48
;DRILL file {pcbnew (2014-09-07 BZR 5117)-product} date Thu 04 Dec 2014 19:35:34 GMT
;FORMAT={-:-/ absolute / metric / decimal}
FMAT,2
METRIC,TZ
T1C0.635
T2C1.000
T3C1.016
T4C1.500
%
G90
G05
M71
T1
X94.4Y-57.6
X96.85Y-57.6
X110.45Y-65.2
X113.2Y-55.1
X115.95Y-55.15
X116.4Y-65.2
X129.5Y-59.5
X129.6Y-64.8
X132.25Y-54.
X134.85Y-54.
X134.95Y-64.8
X135.Y-58.15
X148.5Y-59.7
X148.5Y-61.55
X148.55Y-58.1
X151.25Y-54.05
X153.75Y-59.75
X153.8Y-61.2
X153.8Y-62.55
X154.05Y-54.05
X167.55Y-59.5
X167.55Y-60.95
X167.55Y-62.45
X167.55Y-63.95
X170.2Y-55.3
X172.65Y-62.25
X172.65Y-63.5
X172.65Y-64.95
X172.7Y-60.85
X173.1Y-55.45
X184.75Y-64.475
X186.9Y-42.
X187.8Y-69.
X187.85Y-61.5
X191.6Y-42.
X194.875Y-69.3
X196.8Y-63.2
X196.8Y-74.95
X197.6Y-117.4
X200.6Y-120.425
X202.5Y-43.8
X205.325Y-123.225
X206.85Y-73.575
X209.85Y-82.875
X215.1Y-49.35
X215.8Y-48.3
X216.4Y-47.2
X216.95Y-73.575
X218.625Y-73.675
X219.95Y-131.375
X219.95Y-136.275
X220.625Y-72.775
X224.3Y-90.575
X225.85Y-118.35
X226.Y-90.5
X227.275Y-114.975
X227.375Y-89.275
X227.375Y-90.65
X227.425Y-92.25
X236.775Y-84.05
X238.1Y-87.95
T2
X76.19Y-39.08
X76.19Y-42.082
X76.19Y-58.08
X76.19Y-61.082
X76.19Y-77.08
X76.19Y-80.082
X76.19Y-96.08
X76.19Y-99.082
X78.73Y-39.08
X78.73Y-58.08
X78.73Y-77.08
X78.73Y-96.08
X80.94Y-115.08
X80.94Y-118.082
X81.27Y-39.08
X81.27Y-58.08
X81.27Y-77.08
X81.27Y-96.08
X83.48Y-115.08
X83.81Y-39.08
X83.81Y-42.082
X83.81Y-58.08
X83.81Y-61.082
X83.81Y-77.08
X83.81Y-80.082
X83.81Y-96.08
X83.81Y-99.082
X86.02Y-115.08
X88.56Y-115.08
X88.56Y-118.082
X99.94Y-39.08
X99.94Y-42.082
X99.94Y-58.08
X99.94Y-61.082
X99.94Y-77.08
X99.94Y-80.082
X99.94Y-96.08
X99.94Y-99.082
X99.94Y-115.08
X99.94Y-118.082
X102.48Y-39.08
X102.48Y-58.08
X102.48Y-77.08
X102.48Y-96.08
X102.48Y-115.08
X105.02Y-39.08
X105.02Y-58.08
X105.02Y-77.08
X105.02Y-96.08
X105.02Y-115.08
X107.56Y-39.08
X107.56Y-42.082
X107.56Y-58.08
X107.56Y-61.082
X107.56Y-77.08
X107.56Y-80.082
X107.56Y-96.08
X107.56Y-99.082
X107.56Y-115.08
X107.56Y-118.082
X118.94Y-36.08
X118.94Y-39.082
X118.94Y-55.08
X118.94Y-58.082
X118.94Y-74.08
X118.94Y-77.082
X118.94Y-93.08
X118.94Y-96.082
X118.94Y-112.08
X118.94Y-115.082
X121.48Y-36.08
X121.48Y-55.08
X121.48Y-74.08
X121.48Y-93.08
X121.48Y-112.08
X124.02Y-36.08
X124.02Y-55.08
X124.02Y-74.08
X124.02Y-93.08
X124.02Y-112.08
X126.56Y-36.08
X126.56Y-39.082
X126.56Y-55.08
X126.56Y-58.082
X126.56Y-74.08
X126.56Y-77.082
X126.56Y-93.08
X126.56Y-96.082
X126.56Y-112.08
X126.56Y-115.082
X137.94Y-34.58
X137.94Y-37.582
X137.94Y-53.58
X137.94Y-56.582
X137.94Y-72.58
X137.94Y-75.582
X137.94Y-91.58
X137.94Y-94.582
X137.94Y-110.58
X137.94Y-113.582
X140.48Y-34.58
X140.48Y-53.58
X140.48Y-72.58
X140.48Y-91.58
X140.48Y-110.58
X143.02Y-34.58
X143.02Y-53.58
X143.02Y-72.58
X143.02Y-91.58
X143.02Y-110.58
X145.56Y-34.58
X145.56Y-37.582
X145.56Y-53.58
X145.56Y-56.582
X145.56Y-72.58
X145.56Y-75.582
X145.56Y-91.58
X145.56Y-94.582
X145.56Y-110.58
X145.56Y-113.582
X156.94Y-36.08
X156.94Y-39.082
X156.94Y-55.08
X156.94Y-58.082
X156.94Y-74.08
X156.94Y-77.082
X156.94Y-93.08
X156.94Y-96.082
X156.94Y-112.08
X156.94Y-115.082
X159.48Y-36.08
X159.48Y-55.08
X159.48Y-74.08
X159.48Y-93.08
X159.48Y-112.08
X162.02Y-36.08
X162.02Y-55.08
X162.02Y-74.08
X162.02Y-93.08
X162.02Y-112.08
X164.56Y-36.08
X164.56Y-39.082
X164.56Y-55.08
X164.56Y-58.082
X164.56Y-74.08
X164.56Y-77.082
X164.56Y-93.08
X164.56Y-96.082
X164.56Y-112.08
X164.56Y-115.082
X175.94Y-37.58
X175.94Y-40.582
X175.94Y-56.58
X175.94Y-59.582
X175.94Y-75.58
X175.94Y-78.582
X175.94Y-94.58
X175.94Y-97.582
X178.48Y-37.58
X178.48Y-56.58
X178.48Y-75.58
X178.48Y-94.58
X181.02Y-37.58
X181.02Y-56.58
X181.02Y-75.58
X181.02Y-94.58
X183.56Y-37.58
X183.56Y-40.582
X183.56Y-56.58
X183.56Y-59.582
X183.56Y-75.58
X183.56Y-78.582
X183.56Y-94.58
X183.56Y-97.582
X193.744Y-128.1
X194.817Y-125.798
X194.94Y-37.58
X194.94Y-40.582
X195.891Y-123.496
X196.465Y-129.369
X196.964Y-121.194
X197.48Y-37.58
X199.685Y-122.463
X200.02Y-37.58
X202.56Y-37.58
X202.56Y-40.582
X203.83Y-52.44
X203.83Y-54.98
X203.83Y-57.52
X203.83Y-60.06
X203.83Y-80.94
X203.83Y-83.48
X203.83Y-86.02
X203.83Y-88.56
X206.832Y-52.44
X206.832Y-60.06
X206.832Y-80.94
X206.832Y-88.56
X210.964Y-136.13
X212.037Y-133.828
X213.111Y-131.526
X213.146Y-110.415
X213.684Y-137.398
X214.184Y-129.224
X214.306Y-152.884
X214.415Y-107.694
X215.575Y-150.163
X216.717Y-108.767
X216.905Y-130.492
X217.877Y-151.237
X219.019Y-109.841
X220.052Y-113.635
X220.179Y-152.31
X221.212Y-156.104
X221.321Y-110.914
X222.336Y-135.664
X222.481Y-153.384
X223.605Y-132.943
X225.907Y-134.017
X228.209Y-135.09
X229.242Y-138.885
X230.366Y-118.444
X230.511Y-136.164
X231.634Y-115.724
X233.936Y-116.797
X236.238Y-117.87
X237.272Y-121.665
X238.54Y-118.944
T3
X216.437Y-54.764
X217.541Y-57.052
X218.645Y-59.339
X218.725Y-53.66
X219.748Y-61.627
X219.829Y-55.948
X220.852Y-63.915
X220.932Y-58.236
X221.956Y-66.203
X222.036Y-60.524
X223.059Y-68.49
X223.14Y-62.811
X224.163Y-70.778
X224.243Y-65.099
X225.266Y-73.066
X225.347Y-67.387
X226.37Y-75.353
X226.45Y-69.674
X227.474Y-77.641
X227.554Y-71.962
X228.577Y-79.929
X228.658Y-74.25
X229.681Y-82.217
X229.761Y-76.538
X230.865Y-78.825
X231.969Y-81.113
T4
X76.19Y-31.46
X76.19Y-50.46
X76.19Y-69.46
X76.19Y-88.46
X80.94Y-107.46
X83.81Y-31.46
X83.81Y-50.46
X83.81Y-69.46
X83.81Y-88.46
X88.56Y-107.46
X99.94Y-31.46
X99.94Y-50.46
X99.94Y-69.46
X99.94Y-88.46
X99.94Y-107.46
X107.56Y-31.46
X107.56Y-50.46
X107.56Y-69.46
X107.56Y-88.46
X107.56Y-107.46
X118.94Y-28.46
X118.94Y-47.46
X118.94Y-66.46
X118.94Y-85.46
X118.94Y-104.46
X126.56Y-28.46
X126.56Y-47.46
X126.56Y-66.46
X126.56Y-85.46
X126.56Y-104.46
X137.94Y-26.96
X137.94Y-45.96
X137.94Y-64.96
X137.94Y-83.96
X137.94Y-102.96
X145.56Y-26.96
X145.56Y-45.96
X145.56Y-64.96
X145.56Y-83.96
X145.56Y-102.96
X156.94Y-28.46
X156.94Y-47.46
X156.94Y-66.46
X156.94Y-85.46
X156.94Y-104.46
X164.56Y-28.46
X164.56Y-47.46
X164.56Y-66.46
X164.56Y-85.46
X164.56Y-104.46
X175.94Y-29.96
X175.94Y-48.96
X175.94Y-67.96
X175.94Y-86.96
X183.56Y-29.96
X183.56Y-48.96
X183.56Y-67.96
X183.56Y-86.96
X186.838Y-124.88
X190.058Y-117.974
X194.94Y-29.96
X196.21Y-52.44
X196.21Y-60.06
X196.21Y-80.94
X196.21Y-88.56
X202.56Y-29.96
X204.058Y-132.909
X207.278Y-126.003
X217.635Y-100.788
X218.795Y-143.257
X224.541Y-104.008
X225.701Y-146.478
X226.825Y-126.037
X233.731Y-129.258
X234.855Y-108.818
X241.761Y-112.038
T4
X77.472Y-29.26G85X77.488Y-29.66
G05
X77.472Y-48.26G85X77.488Y-48.66
G05
X77.472Y-67.26G85X77.488Y-67.66
G05
X77.472Y-86.26G85X77.488Y-86.66
G05
X82.222Y-105.26G85X82.238Y-105.66
G05
X82.528Y-29.26G85X82.512Y-29.66
G05
X82.528Y-48.26G85X82.512Y-48.66
G05
X82.528Y-67.26G85X82.512Y-67.66
G05
X82.528Y-86.26G85X82.512Y-86.66
G05
X87.278Y-105.26G85X87.262Y-105.66
G05
X101.222Y-29.26G85X101.238Y-29.66
G05
X101.222Y-48.26G85X101.238Y-48.66
G05
X101.222Y-67.26G85X101.238Y-67.66
G05
X101.222Y-86.26G85X101.238Y-86.66
G05
X101.222Y-105.26G85X101.238Y-105.66
G05
X106.278Y-29.26G85X106.262Y-29.66
G05
X106.278Y-48.26G85X106.262Y-48.66
G05
X106.278Y-67.26G85X106.262Y-67.66
G05
X106.278Y-86.26G85X106.262Y-86.66
G05
X106.278Y-105.26G85X106.262Y-105.66
G05
X120.222Y-26.26G85X120.238Y-26.66
G05
X120.222Y-45.26G85X120.238Y-45.66
G05
X120.222Y-64.26G85X120.238Y-64.66
G05
X120.222Y-83.26G85X120.238Y-83.66
G05
X120.222Y-102.26G85X120.238Y-102.66
G05
X125.278Y-26.26G85X125.262Y-26.66
G05
X125.278Y-45.26G85X125.262Y-45.66
G05
X125.278Y-64.26G85X125.262Y-64.66
G05
X125.278Y-83.26G85X125.262Y-83.66
G05
X125.278Y-102.26G85X125.262Y-102.66
G05
X139.222Y-24.76G85X139.238Y-25.16
G05
X139.222Y-43.76G85X139.238Y-44.16
G05
X139.222Y-62.76G85X139.238Y-63.16
G05
X139.222Y-81.76G85X139.238Y-82.16
G05
X139.222Y-100.76G85X139.238Y-101.16
G05
X144.278Y-24.76G85X144.262Y-25.16
G05
X144.278Y-43.76G85X144.262Y-44.16
G05
X144.278Y-62.76G85X144.262Y-63.16
G05
X144.278Y-81.76G85X144.262Y-82.16
G05
X144.278Y-100.76G85X144.262Y-101.16
G05
X158.222Y-26.26G85X158.238Y-26.66
G05
X158.222Y-45.26G85X158.238Y-45.66
G05
X158.222Y-64.26G85X158.238Y-64.66
G05
X158.222Y-83.26G85X158.238Y-83.66
G05
X158.222Y-102.26G85X158.238Y-102.66
G05
X163.278Y-26.26G85X163.262Y-26.66
G05
X163.278Y-45.26G85X163.262Y-45.66
G05
X163.278Y-64.26G85X163.262Y-64.66
G05
X163.278Y-83.26G85X163.262Y-83.66
G05
X163.278Y-102.26G85X163.262Y-102.66
G05
X177.222Y-27.76G85X177.238Y-28.16
G05
X177.222Y-46.76G85X177.238Y-47.16
G05
X177.222Y-65.76G85X177.238Y-66.16
G05
X177.222Y-84.76G85X177.238Y-85.16
G05
X182.278Y-27.76G85X182.262Y-28.16
G05
X182.278Y-46.76G85X182.262Y-47.16
G05
X182.278Y-65.76G85X182.262Y-66.16
G05
X182.278Y-84.76G85X182.262Y-85.16
G05
X185.386Y-122.788G85X185.755Y-122.943
G05
X187.522Y-118.206G85X187.878Y-118.389
G05
X194.01Y-53.722G85X194.41Y-53.738
G05
X194.01Y-58.778G85X194.41Y-58.762
G05
X194.01Y-82.222G85X194.41Y-82.238
G05
X194.01Y-87.278G85X194.41Y-87.262
G05
X196.222Y-27.76G85X196.238Y-28.16
G05
X201.278Y-27.76G85X201.262Y-28.16
G05
X202.606Y-130.817G85X202.975Y-130.972
G05
X204.742Y-126.236G85X205.098Y-126.419
G05
X219.727Y-99.336G85X219.572Y-99.705
G05
X220.887Y-141.805G85X220.732Y-142.174
G05
X224.308Y-101.472G85X224.126Y-101.828
G05
X225.469Y-143.942G85X225.286Y-144.298
G05
X228.917Y-124.586G85X228.762Y-124.954
G05
X233.499Y-126.722G85X233.316Y-127.078
G05
X236.947Y-107.366G85X236.792Y-107.734
G05
X241.528Y-109.502G85X241.345Y-109.858
G05
T0
M30
