M48
;DRILL file {kicad 0.201412201901+5330~19~ubuntu14.04.1-product} date Mon 29 Dec 2014 15:14:25 GMT
;FORMAT={-:-/ absolute / metric / decimal}
FMAT,2
METRIC,TZ
T1C0.813
T2C1.001
T3C1.016
T4C3.000
%
G90
G05
M71
T1
X122.38Y-21.03
X122.38Y-23.57
X122.38Y-26.11
X122.38Y-28.65
X122.38Y-31.19
X122.38Y-33.73
X122.38Y-36.27
X122.38Y-38.81
X122.38Y-41.35
X122.38Y-43.89
X122.38Y-46.43
X122.38Y-48.97
X124.92Y-48.97
X127.46Y-48.97
X130.Y-48.97
X132.54Y-48.97
X135.08Y-48.97
X137.62Y-21.03
X137.62Y-23.57
X137.62Y-26.11
X137.62Y-28.65
X137.62Y-31.19
X137.62Y-33.73
X137.62Y-36.27
X137.62Y-38.81
X137.62Y-41.35
X137.62Y-43.89
X137.62Y-46.43
X137.62Y-48.97
T2
X128.016Y-28.568
X128.016Y-43.568
X132.08Y-28.568
X132.08Y-43.568
T3
X107.38Y-39.802
X108.65Y-42.001
X109.92Y-44.201
X111.19Y-46.401
X112.46Y-48.601
X113.73Y-50.8
X115.Y-53.
X116.27Y-55.2
X117.54Y-57.399
X118.81Y-59.599
X120.08Y-61.799
X121.35Y-63.999
X122.62Y-66.198
X126.Y-23.73
X126.Y-26.27
X134.Y-23.73
X134.Y-26.27
X137.38Y-66.198
X138.65Y-63.999
X139.92Y-61.799
X141.19Y-59.599
X142.46Y-57.399
X143.73Y-55.2
X145.Y-53.
X146.27Y-50.8
X147.54Y-48.601
X148.81Y-46.401
X150.08Y-44.201
X151.35Y-42.001
X152.62Y-39.802
T4
X110.Y-25.
X110.Y-65.
X150.Y-25.
X150.Y-65.
T0
M30
