G04 #@! TF.FileFunction,Soldermask,Bot*
%FSLAX46Y46*%
G04 Gerber Fmt 4.6, Leading zero omitted, Abs format (unit mm)*
G04 Created by KiCad (PCBNEW 0.201412201901+5330~19~ubuntu14.04.1-product) date Mon 29 Dec 2014 15:13:16 GMT*
%MOMM*%
G01*
G04 APERTURE LIST*
%ADD10C,0.100000*%
%ADD11R,2.032000X2.032000*%
%ADD12O,2.032000X2.032000*%
%ADD13C,1.727200*%
%ADD14C,1.998980*%
%ADD15R,1.397000X1.397000*%
%ADD16C,1.397000*%
G04 APERTURE END LIST*
D10*
D11*
X134000000Y-23730000D03*
D12*
X134000000Y-26270000D03*
D10*
G36*
X123931682Y-66438127D02*
X122171918Y-67454127D01*
X121308318Y-65958327D01*
X123068082Y-64942327D01*
X123931682Y-66438127D01*
X123931682Y-66438127D01*
G37*
D13*
X121218018Y-64074723D02*
X121481982Y-63922323D01*
X119948018Y-61875018D02*
X120211982Y-61722618D01*
X118678018Y-59675314D02*
X118941982Y-59522914D01*
X117408018Y-57475609D02*
X117671982Y-57323209D01*
X116138018Y-55275905D02*
X116401982Y-55123505D01*
X114868018Y-53076200D02*
X115131982Y-52923800D01*
X113598018Y-50876495D02*
X113861982Y-50724095D01*
X112328018Y-48676791D02*
X112591982Y-48524391D01*
X111058018Y-46477086D02*
X111321982Y-46324686D01*
X109788018Y-44277382D02*
X110051982Y-44124982D01*
X108518018Y-42077677D02*
X108781982Y-41925277D01*
X107248018Y-39877973D02*
X107511982Y-39725573D01*
D10*
G36*
X137828082Y-67454127D02*
X136068318Y-66438127D01*
X136931918Y-64942327D01*
X138691682Y-65958327D01*
X137828082Y-67454127D01*
X137828082Y-67454127D01*
G37*
D13*
X138518018Y-63922323D02*
X138781982Y-64074723D01*
X139788018Y-61722618D02*
X140051982Y-61875018D01*
X141058018Y-59522914D02*
X141321982Y-59675314D01*
X142328018Y-57323209D02*
X142591982Y-57475609D01*
X143598018Y-55123505D02*
X143861982Y-55275905D01*
X144868018Y-52923800D02*
X145131982Y-53076200D01*
X146138018Y-50724095D02*
X146401982Y-50876495D01*
X147408018Y-48524391D02*
X147671982Y-48676791D01*
X148678018Y-46324686D02*
X148941982Y-46477086D01*
X149948018Y-44124982D02*
X150211982Y-44277382D01*
X151218018Y-41925277D02*
X151481982Y-42077677D01*
X152488018Y-39725573D02*
X152751982Y-39877973D01*
D11*
X126000000Y-23730000D03*
D12*
X126000000Y-26270000D03*
D14*
X132080000Y-28568000D03*
X132080000Y-43568000D03*
X128016000Y-28568000D03*
X128016000Y-43568000D03*
D15*
X122380000Y-21030000D03*
D16*
X122380000Y-23570000D03*
X122380000Y-26110000D03*
X122380000Y-28650000D03*
X122380000Y-31190000D03*
X122380000Y-33730000D03*
X122380000Y-36270000D03*
X122380000Y-38810000D03*
X122380000Y-41350000D03*
X122380000Y-43890000D03*
X122380000Y-46430000D03*
X122380000Y-48970000D03*
X137620000Y-48970000D03*
X137620000Y-46430000D03*
X137620000Y-43890000D03*
X137620000Y-41350000D03*
X137620000Y-38810000D03*
X137620000Y-36270000D03*
X137620000Y-33730000D03*
X137620000Y-31190000D03*
X137620000Y-28650000D03*
X137620000Y-26110000D03*
X137620000Y-23570000D03*
X137620000Y-21030000D03*
X135080000Y-48970000D03*
X132540000Y-48970000D03*
X130000000Y-48970000D03*
X127460000Y-48970000D03*
X124920000Y-48970000D03*
M02*
